<?xml version="1.0" encoding="utf-8"?>
<!-- Generator: Adobe Illustrator 25.2.3, SVG Export Plug-In . SVG Version: 6.00 Build 0)  -->
<svg version="1.1" id="Layer_1" xmlns="http://www.w3.org/2000/svg" xmlns:xlink="http://www.w3.org/1999/xlink" x="0px" y="0px"
	 viewBox="0 0 220 177" style="enable-background:new 0 0 220 177;" xml:space="preserve">
<style type="text/css">
	.st0{fill:#D19570;}
	.st1{fill:#070117;}
	.st2{fill:none;stroke:#3D3D3D;stroke-width:0.718;stroke-linecap:round;stroke-linejoin:round;}
	.st3{fill:#94503B;}
	.st4{fill:#fff;}
	.st5{fill:none;stroke:#94503B;stroke-width:1.614;stroke-linecap:round;stroke-linejoin:round;}
	.st6{fill:none;stroke:#070117;stroke-width:3.111;stroke-linecap:round;stroke-linejoin:round;}
	.st7{fill:#FFED00;}
	.st8{fill:none;stroke:#FFED00;stroke-width:2.393;stroke-linecap:round;stroke-miterlimit:10;stroke-dasharray:0,3.829;}
	.st9{fill:#070117;stroke:#3D3D3D;stroke-width:0.718;stroke-linecap:round;stroke-linejoin:round;}
	.st10{fill:#00FFFF;}
	.st11{fill:#FF6300;}
	.st12{fill:none;stroke:#9F63E5;stroke-width:2;stroke-miterlimit:10;}
	.st13{enable-background:new    ;}
	.st14{fill:#D19570;stroke:#94503B;stroke-width:1.614;stroke-linecap:round;stroke-linejoin:round;}
	.st15{fill:none;stroke:#BEFFFF;stroke-miterlimit:10;}
	.st16{fill:none;stroke:#fff;stroke-width:0.9233;stroke-miterlimit:10;}
</style>
<g transform="translate(-32.873 -3.688)">
	<path class="st0" d="M193.6,105.1l11.1-2.6l11.5-2.2v13.1c0,0-7.1,2.5-10.4-2.1l-10.2,4L193.6,105.1z"/>
	<rect x="208.9" y="65.3" class="st1" width="6.9" height="69.8"/>
	<path class="st1" d="M215.8,14.6c-2.7,2.3-6.9,0-6.9,0V6.9h6.9V14.6z"/>
	<path class="st0" d="M212.4,101.9h5.2c0.7,0,1.3,0.6,1.3,1.3v9.8c0,0.7-0.6,1.3-1.3,1.3h-5.2c-0.7,0-1.3-0.6-1.3-1.3v-9.8
		C211.1,102.5,211.7,101.9,212.4,101.9z"/>
	<g transform="translate(-421.6)">
		<path class="st1" d="M557.3,120.5l32.3,9.4l36.9-17l-2.4-10.7l-33.5,6.2c0,0-19.6-14.3-36-14.3"/>
		<path class="st1" d="M540.1,87.9l18.2,5.2c0,0,16.2,30.7,15.9,61.6c-13,6.1-27.7,7.6-41.7,4.3L540.1,87.9z"/>
		<path class="st2" d="M559.3,94.9c4.7,9.9,8.5,20.3,11.2,31"/>
		<path class="st3" d="M491,14.6l10.1-10.3c0,0,5.9,6.3,0.2,11.3S491,14.6,491,14.6z"/>
		<path class="st0" d="M474.8,142.9c-8.3-63.9-0.6-128.3-0.6-128.3l53.1,23.2c0,0,24.1,53.2,33.4,82c1.5,4,2.6,8.2,3.3,12.4
			c0,0.2,0.1,0.4,0.1,0.6c4.1,28.5-15.5,33.4-40.1,36.9c-24,3.4-43.8,4.3-48.5-22.3l0,0l0-0.1c-0.1-0.6-0.2-1.2-0.3-1.8
			C475,144.7,474.9,143.8,474.8,142.9z"/>
		<path class="st1" d="M567.5,152.8v27.9h-89.1v-20.8L567.5,152.8z"/>
		<path class="st3" d="M494.3,54.6l42.7,5.3c4.3,10.1,9.5,22.3,14.2,34.2C498.8,96.1,494.3,54.6,494.3,54.6z"/>
		<path class="st0" d="M471.7,77.7c0,0,91.4,14.2,103.9,2.7s14.5-65.4,4.7-72.2s-106.2,6.4-106.2,6.4L471.7,77.7z"/>
		<circle class="st1" cx="489.1" cy="28.9" r="2.6"/>
		<path class="st4" d="M520.9,58.3l-0.9,5.1l-3.9,1.8l-6.8-2.4l-0.9-6c1.5,0.9,3.1,1.4,4.8,1.5C515.6,58.5,520.9,58.3,520.9,58.3z"
			/>
		<path class="st5" d="M579.3,13.1c0,0-8.1,7.7-11.8,7.7c-8.7,0-23.4-6.2-23.4-6.2"/>
		<path class="st5" d="M522.3,58.3c0,0-7.3,0.2-9.9-0.1s-8.6-4.1-8.6-4.1"/>
		<path class="st5" d="M568.2,37.2c-0.1-10.8-0.7-16.4-0.7-16.4"/>
		<path class="st6" d="M493.2,16.9v2c-2.6-1.4-5.7-1.4-8.3,0"/>
		<path class="st0" d="M476.8,19.6l-11.7-8.4c0,0-4.7,7.2,1.8,11.2S476.8,19.6,476.8,19.6z"/>
		<path class="st0" d="M474,17.5c0-0.9,0.1-1.9,0.2-2.8c0.4-3.4,2.3-8.5,3.7-8.3c2,0.3,1.4,4.8,1.4,4.8s2.4-8.3,5.6-7.4
			c3.5,1-0.5,6.6-0.5,6.6s6.6-6.1,8.4-1.7S474,17.5,474,17.5z"/>
		<path class="st7" d="M463.5,13.5c0.2,0,0.4,0,0.6,0c-0.2,0.5-0.3,1.1-0.4,1.6c0,0-0.1,0-0.2,0c-1.5,0-2.8,1.2-2.8,2.8
			s1.2,2.8,2.8,2.8s2.8-1.2,2.8-2.8l0,0c0-0.1,0-0.3,0-0.4c0-0.3,0.1-0.6,0.3-0.8l0,0c0.4-0.3,0.9-0.2,1.2,0.2
			c0.1,0.1,0.1,0.2,0.1,0.4c0.1,0.4,0.1,0.8,0,1.2c-0.3,2.4-2.6,4.1-5,3.8c-2.4-0.3-4.1-2.6-3.8-5C459.3,15.1,461.2,13.5,463.5,13.5
			L463.5,13.5z"/>
		<line class="st5" x1="476.2" y1="71.2" x2="476.2" y2="75.9"/>
		<line class="st5" x1="481" y1="73.5" x2="481" y2="78.3"/>
		<line class="st5" x1="485.8" y1="71.2" x2="485.8" y2="75.9"/>
		<line class="st5" x1="490.6" y1="73.5" x2="490.6" y2="78.3"/>
		<line class="st5" x1="500.4" y1="73.5" x2="500.4" y2="78.3"/>
		<line class="st5" x1="495.4" y1="71.2" x2="495.4" y2="75.9"/>
		<line class="st5" x1="478.4" y1="80.8" x2="478.4" y2="85.5"/>
		<line class="st5" x1="483.2" y1="83.1" x2="483.2" y2="87.9"/>
		<line class="st5" x1="488" y1="80.8" x2="488" y2="85.5"/>
		<line class="st5" x1="475.7" y1="90.3" x2="475.7" y2="95.1"/>
		<line class="st5" x1="480.5" y1="92.7" x2="480.5" y2="97.4"/>
		<line class="st5" x1="478.4" y1="100.2" x2="478.4" y2="104.9"/>
		<line class="st5" x1="483.2" y1="102.5" x2="483.2" y2="107.3"/>
		<line class="st5" x1="485.4" y1="90.3" x2="485.4" y2="95.1"/>
		<line class="st5" x1="492.8" y1="83.1" x2="492.8" y2="87.9"/>
		<line class="st5" x1="502.5" y1="83.1" x2="502.5" y2="87.9"/>
		<line class="st5" x1="497.6" y1="80.8" x2="497.6" y2="85.5"/>
		<line class="st5" x1="484.2" y1="43.8" x2="484.2" y2="48.6"/>
		<line class="st5" x1="479.2" y1="41.5" x2="479.2" y2="46.2"/>
		<path class="st4" d="M523.9,169.8c-38.8,2.9-48.5-3.2-48.5-3.2v-19.1l0-0.1c-0.1-0.6-0.2-1.2-0.3-1.8c-0.1-0.9-0.2-1.8-0.3-2.7
			c-2-15.3-3.1-30.7-3.6-45.1l0,0c0,0,10.6-21.7,34.3,8c10.2,12.7,24.7,19,36.3,12.5c10.7-5.9,11.7-18.2,11.7-18.2l0,0
			c2.8,7.2,12.6,19.8,16.3,60.5C569.8,160.6,558.3,167.3,523.9,169.8z"/>
		<path class="st8" d="M554.1,100.5c0,0,0.2,21.6-16.9,25.7c-17.1,4.1-33.3-17.5-33.3-17.5"/>
		<path class="st1" d="M469.9,83.1c0,0,33.4,0.9,41.9,14.6c8.5,13.7,14.3,55.8,14.3,55.8s-33,16.9-58.3,9.9c0,0,3.9-0.6,3.9-27.5
			c0-16.4-2.8-32.6-8.2-48.1L469.9,83.1z"/>
		<path class="st2" d="M471,85.5l8.7,17l26.5-5.1l-10.4,20.1l22.3,18l3.4,1.3l-4.5,2.9l4.7,1.3l-3.8,2.1l4,1.7l-2.1,1.3l2.4,2.1
			l1,4.4"/>
		<circle class="st4" cx="481.8" cy="97.8" r="1.3"/>
		<circle class="st4" cx="501.6" cy="116.5" r="1.3"/>
		<path class="st0" d="M485,131.5l4.8,5.2l2.1,9.5l-11.1,4.4c0,0-1.4-5.1,1.6-8.7l-5.5-4.9L485,131.5z"/>
		<path class="st9" d="M468.1,91.5c-10.1,8.7-13.2,28.5-13.2,28.5l26,21.4l7.8-7l-12.3-15.2l8-11.3"/>
		<path class="st9" d="M492.5,136.7c0,0-5.3,8.5-14.1,11.2l2.8,5.8c6.1-1.5,11.3-5.2,14.8-10.4"/>
		<circle class="st7" cx="508.3" cy="112.7" r="3"/>
		<circle class="st10" cx="511.9" cy="118.2" r="1.7"/>
		<circle class="st11" cx="506.3" cy="119.1" r="1.7"/>
		<path class="st0" d="M485.7,27.8l6.8-1.4l-4.6-1.8L485.7,27.8z"/>
	</g>
	<path class="st1" d="M179.2,11.3h66.2c4.1,0,7.4,3.3,7.4,7.4v54.7c0,4.1-3.3,7.4-7.4,7.4h-66.2c-4.1,0-7.4-3.3-7.4-7.4V18.7
		C171.8,14.6,175.1,11.3,179.2,11.3z"/>
	<path class="st12" d="M244.9,77.8h-65.2c-2.9,0-5.2-2.3-5.2-5.2V19.4c0-2.9,2.3-5.2,5.2-5.2h65.2c2.9,0,5.2,2.3,5.2,5.2v53.3
		C250.1,75.5,247.8,77.8,244.9,77.8z"/>
	<g class="st13">
		<path class="st10" d="M180.6,17.2h5.8c6,15.6,6.7,18.5,6.7,18.5h0.1c0,0-0.3-4.8-0.3-9.1v-9.4h4.2v23.9h-5.8
			c-6-15.8-6.6-18.5-6.6-18.5h-0.1c0,0,0.2,5.1,0.3,9.5l0,9h-4.3V17.2z"/>
		<path class="st10" d="M206.2,23.4c5.7,0,6.5,3.5,6.5,5.6c0,3.5-0.8,4.6-4.9,4.6c-1.2,0-3.3-0.2-4.6-0.5v0.2c0,3.4,0.9,4.5,3.3,4.5
			c1.7,0,3.3-0.3,5-0.9l0.7,3.2c-0.8,0.4-3.3,1.2-6.4,1.2c-5.7,0-7.1-2.8-7.1-8.9C198.7,26.9,200.1,23.4,206.2,23.4z M206.6,30.7
			c1.5,0,1.7-0.7,1.7-1.7c0-1.4-0.7-2.2-2.3-2.2c-1.6,0-2.6,0.8-2.7,3.4C204.2,30.4,205.6,30.7,206.6,30.7z"/>
		<path class="st10" d="M220.9,23.4c5.7,0,6.5,3.5,6.5,5.6c0,3.5-0.8,4.6-4.9,4.6c-1.2,0-3.3-0.2-4.6-0.5v0.2c0,3.4,0.9,4.5,3.3,4.5
			c1.7,0,3.3-0.3,5-0.9l0.7,3.2c-0.8,0.4-3.3,1.2-6.4,1.2c-5.7,0-7.1-2.8-7.1-8.9C213.4,26.9,214.8,23.4,220.9,23.4z M221.3,30.7
			c1.5,0,1.7-0.7,1.7-1.7c0-1.4-0.7-2.2-2.3-2.2c-1.6,0-2.6,0.8-2.7,3.4C218.8,30.4,220.2,30.7,221.3,30.7z"/>
		<path class="st10" d="M234.7,23.5c1.3,0,2.4,0.2,2.9,0.4h0.1c0,0-0.1-1.2-0.1-3.7v-3.1h4.5V40c-2.1,0.9-4.4,1.4-6.6,1.4
			c-5.3,0-7.5-2.2-7.5-8.9C228.1,27.1,229.9,23.5,234.7,23.5z M237.7,27.6c-0.6-0.2-1.5-0.4-2.2-0.4c-1.9,0-2.9,1-2.9,5.3
			c0,3.8,0.8,5.1,3,5.1c0.8,0,1.5-0.1,2.1-0.4V27.6z"/>
	</g>
	<path class="st10" d="M180.4,47.1h4.5v4.2c0,1.5-0.1,2.7-0.1,2.7h0.1c0.7-0.2,1.9-0.6,3.3-0.6c3.4,0,6.1,1.4,6.1,6.4V71h-4.5V60
		c0-2-0.7-2.8-2.4-2.8c-1.2,0-2.2,0.4-2.5,0.5V71h-4.5V47.1z"/>
	<path class="st10" d="M203.3,53.4c5.7,0,6.5,3.5,6.5,5.6c0,3.5-0.8,4.6-4.9,4.6c-1.2,0-3.3-0.2-4.6-0.5v0.2c0,3.4,0.9,4.5,3.3,4.5
		c1.7,0,3.3-0.3,5-0.9l0.7,3.2c-0.8,0.4-3.3,1.2-6.4,1.2c-5.7,0-7.1-2.8-7.1-8.9C195.8,56.9,197.2,53.4,203.3,53.4z M203.7,60.6
		c1.5,0,1.7-0.7,1.7-1.7c0-1.4-0.7-2.2-2.3-2.2c-1.6,0-2.6,0.8-2.7,3.4C201.2,60.4,202.6,60.6,203.7,60.6z"/>
	<path class="st10" d="M218.5,70.9c-0.7,0.2-1.9,0.4-3.3,0.4c-2.6,0-4-0.9-4-5V47.1h4.5v19c0,1.3,0.4,1.5,1.1,1.5
		c0.5,0,1-0.1,1.2-0.1L218.5,70.9z"/>
	<path class="st10" d="M226.7,71.3c-1.3,0-2.4-0.2-2.9-0.3h-0.1c0,0,0.1,1.2,0.1,3.6v3.1h-4.5V54.9c2.1-0.9,4.4-1.4,6.7-1.4
		c5.2,0,7.5,2.2,7.5,8.9C233.4,67.8,231.6,71.3,226.7,71.3z M223.8,67.3c0.6,0.2,1.5,0.4,2.2,0.4c1.9,0,2.9-1,2.9-5.3
		c0-3.7-0.8-5.1-3-5.1c-0.8,0-1.5,0.2-2.1,0.4V67.3z"/>
	<path class="st10" d="M237.1,62.1c0-3,0.9-3.9,2.3-5.4l1-1c0.9-0.9,1.1-1.7,1.1-2.7c0-1.9-1-2.4-2.8-2.4c-1.2,0-3.2,0.4-4.3,0.7
		l-0.7-3.3c0.5-0.2,2.9-1.1,6-1.1c4,0,6.3,1.7,6.3,6c0,2.6-0.9,3.9-1.9,4.9l-1.1,1.1c-1.1,1.1-1.4,1.9-1.4,3.6v1.7h-4.5V62.1z
		 M237.1,67.2h4.5V71h-4.5V67.2z"/>
	<path class="st14" d="M205.5,102.3l3.4-4.8l8.8,2.4c-0.3,3-6.4,2.4-6.4,2.4s1.6,4.9-4.3,5.2"/>
	<g>
		<path class="st15" d="M192,40.1c-5.6-14.8-6.3-17.6-6.3-17.7l-0.2-0.8l-2,0l0,1c0,0.1,0.2,5.1,0.3,9.4l0,8h-2.2V18.2h4.1
			c5.6,14.7,6.3,17.6,6.4,17.7l0.2,0.8l2,0l-0.1-1.1c0,0-0.3-4.8-0.3-9v-8.4h2.2v21.9H192z"/>
		<path class="st15" d="M205.9,40.4c-4.7,0-6.1-1.8-6.1-7.9c0-5.9,1.7-8.1,6.4-8.1c4.6,0,5.5,2.5,5.5,4.6c0,3-0.3,3.6-3.9,3.6
			c-1.2,0-3.2-0.2-4.3-0.5l-1.3-0.4v1.6c0,2.9,0.6,5.5,4.3,5.5c1.5,0,2.9-0.2,4.3-0.6l0.3,1.3C210.1,39.9,208.2,40.4,205.9,40.4z
			 M206.1,25.7c-2.3,0-3.6,1.5-3.7,4.4l0,0.8l0.7,0.2c1,0.3,2.5,0.6,3.6,0.6c2.4,0,2.7-1.5,2.7-2.7C209.3,27,208.1,25.7,206.1,25.7z
			"/>
		<path class="st15" d="M220.5,40.4c-4.7,0-6.1-1.8-6.1-7.9c0-5.9,1.7-8.1,6.4-8.1c4.6,0,5.5,2.5,5.5,4.6c0,3-0.3,3.6-3.9,3.6
			c-1.2,0-3.2-0.2-4.3-0.5l-1.3-0.4v1.6c0,2.9,0.6,5.5,4.3,5.5c1.5,0,2.9-0.2,4.3-0.6l0.3,1.3C224.8,39.9,222.9,40.4,220.5,40.4z
			 M220.7,25.7c-2.3,0-3.6,1.5-3.7,4.4l0,0.8l0.7,0.2c1,0.3,2.5,0.6,3.6,0.6c2.4,0,2.7-1.5,2.7-2.7C224,27,222.8,25.7,220.7,25.7z"
			/>
		<path class="st15" d="M235.6,40.4c-4.2,0-6.5-1.3-6.5-7.9c0-7.2,3.2-8,5.7-8c1.3,0,2.3,0.2,2.7,0.3l0.1,0h1.3l-0.1-1.1
			c0,0-0.1-1.2-0.1-3.6v-2.1h2.5v21.1C239.7,39.8,237.7,40.4,235.6,40.4z M235.5,26.2c-3.4,0-3.9,3-3.9,6.3c0,3.2,0.5,6.1,4,6.1
			c0.9,0,1.8-0.2,2.5-0.5l0.6-0.3V26.9l-0.7-0.2C237.3,26.4,236.3,26.2,235.5,26.2z"/>
		<path class="st15" d="M190.9,70V60c0-2.5-1.1-3.8-3.4-3.8c-1.2,0-2.2,0.3-2.7,0.5l-0.2,0.1l-0.7,0.2V70h-2.5V48.1h2.5v3.2
			c0,1.5-0.1,2.7-0.1,2.7l-0.1,1.1h1.2l0.2-0.1c0.8-0.3,1.8-0.5,3-0.5c3.6,0,5.1,1.6,5.1,5.4V70H190.9z"/>
		<path class="st15" d="M203,70.3c-4.7,0-6.1-1.8-6.1-7.9c0-5.9,1.7-8.1,6.4-8.1c4.6,0,5.5,2.5,5.5,4.6c0,3-0.3,3.6-3.9,3.6
			c-1.2,0-3.2-0.2-4.3-0.5l-1.3-0.4v1.6c0,2.9,0.6,5.5,4.3,5.5c1.5,0,2.9-0.2,4.3-0.6l0.3,1.3C207.2,69.9,205.3,70.3,203,70.3z
			 M203.2,55.7c-2.3,0-3.6,1.5-3.7,4.4l0,0.8l0.7,0.2c1,0.3,2.5,0.6,3.6,0.6c2.4,0,2.7-1.5,2.7-2.7
			C206.4,56.9,205.2,55.7,203.2,55.7z"/>
		<path class="st15" d="M215.2,70.3c-1.9,0-3-0.3-3-4V48.1h2.5v18c0,0.6,0,2.5,2.1,2.5c0.1,0,0.2,0,0.3,0l0.2,1.5
			C216.8,70.3,216,70.3,215.2,70.3z"/>
		<path class="st15" d="M220.2,76.8V55.6c1.9-0.7,3.9-1.1,5.7-1.1c4.2,0,6.5,1.3,6.5,7.9c0,7.2-3.2,8-5.7,8c-1.1,0-2.1-0.2-2.6-0.3
			l-0.2,0h-1.3l0.1,1.1c0,0,0.1,1.2,0.1,3.5v2.1H220.2z M225.8,56.2c-0.8,0-1.7,0.2-2.4,0.4l-0.6,0.2v11.1l0.6,0.3
			c0.8,0.3,1.9,0.5,2.6,0.5c3.4,0,3.9-3,3.9-6.3C229.8,60.5,229.8,56.2,225.8,56.2z"/>
		<path class="st15" d="M238.1,70v-1.9h2.5V70H238.1z M238.1,63.2v-1.2c0-2.6,0.7-3.3,2-4.7l1-1c1.2-1.2,1.3-2.4,1.3-3.4
			c0-3-2.2-3.4-3.8-3.4c-1,0-2.4,0.2-3.6,0.5l-0.3-1.4c1-0.3,2.7-0.7,4.8-0.7c3.7,0,5.3,1.5,5.3,5c0,2.3-0.8,3.3-1.6,4.2l-1.1,1.1
			c-1.3,1.3-1.6,2.3-1.6,4.3v0.7H238.1z"/>
	</g>
	<path class="st7" d="M84.1,33.9H58.2c-2.1,0-3.8-1.7-3.8-3.8V17.2c0-2.1,1.7-3.8,3.8-3.8h25.8c2.1,0,3.8,1.7,3.8,3.8v12.8
		C87.9,32.2,86.2,33.9,84.1,33.9z"/>
	<path class="st1" d="M82.7,31.5h-23c-1.6,0-2.8-1.3-2.8-2.8v-10c0-1.6,1.3-2.8,2.8-2.8h23c1.6,0,2.8,1.3,2.8,2.8v10
		C85.5,30.2,84.2,31.5,82.7,31.5z"/>
	<path class="st7" d="M87.9,17.9c0-7,17.9-9.4,17.9-9.4S92.9,3,80,14.3L87.9,17.9z"/>
	<path class="st1" d="M147.3,39.4c0-7.4-9.6-8.2-13.7-3.6s-4.2,13.8-4.2,13.8l-8-2.1c3.2,12.6,14,9.3,14,9.3S147.3,46.9,147.3,39.4z
		"/>
	<path class="st1" d="M145.9,39.4c0-7.4,9.6-8.2,13.7-3.6s4.2,13.8,4.2,13.8l8-2.1c-3.2,12.6-14,9.3-14,9.3S145.9,46.9,145.9,39.4z"
		/>
	<path class="st4" d="M85.5,22.3v-3.6c0-0.2,0-0.5-0.1-0.7c-0.3,0.3-0.7,0.6-1.1,0.7c-1.2,0.5-2.5,0.2-3.7-0.1
		c-1.2-0.4-2.4-0.9-3.6-1c-1.2-0.1-2.6,0.2-3.3,1.3c-0.7,1.1-0.5,2.6-1.1,3.8c-0.8,1.5-2.7,2-4.3,1.9c-1.7-0.1-3.3-0.7-4.9-0.8
		c-1.7-0.1-3.5,0.6-4.2,2.1c-0.3,0.8-0.3,1.6-0.1,2.4c0.1,0.9,0.4,2.1,0.8,3.2H65c-0.2-0.6-0.3-1.2-0.3-1.9c0-0.8,0.1-1.7,0.8-2.2
		c0.6-0.4,1.4-0.3,2.1-0.2c1.2,0.2,2.4,0.5,3.6,0.5s2.5-0.5,3.1-1.5c1-1.4,0.4-3.4,1.1-5c0.2-0.4,0.5-0.8,0.9-1
		c0.3-0.1,0.6-0.1,0.9,0c2.3,0.5,4.2,2.7,6.6,2.6C84.3,22.8,84.9,22.6,85.5,22.3z"/>
	<path class="st16" d="M244.9,77.8h-65.2c-2.9,0-5.2-2.3-5.2-5.2V19.4c0-2.9,2.3-5.2,5.2-5.2h65.2c2.9,0,5.2,2.3,5.2,5.2v53.3
		C250.1,75.5,247.8,77.8,244.9,77.8z"/>
</g>
</svg>
