<svg xmlns="http://www.w3.org/2000/svg" width="219.982" height="176.962" viewBox="0 0 219.982 176.962"><g transform="translate(-32.873 -3.688)"><path d="M615.22,105.053l11.124-2.634,11.533-2.248v13.137s-7.142,2.459-10.362-2.108l-10.187,4.04Z" transform="translate(-421.6)" fill="#d19570"/><rect width="6.908" height="69.808" transform="translate(208.884 65.267)" fill="#070117"/><rect width="7.799" height="12.347" rx="1.279" transform="translate(211.114 101.929)" fill="#d19570"/><g transform="translate(-421.6)"><path d="M557.331,120.5l32.255,9.4,36.882-16.991L624.03,102.2l-33.544,6.173S570.927,94.122,554.53,94.122" fill="#070117"/><path d="M540.111,87.867l18.225,5.206s16.161,30.687,15.923,61.562a64.271,64.271,0,0,1-41.713,4.283Z" fill="#070117"/><path d="M559.264,94.933a168.623,168.623,0,0,1,11.211,30.954" fill="none" stroke="#3d3d3d" stroke-linecap="round" stroke-linejoin="round" stroke-width="0.718"/><path d="M491.005,14.619,501.063,4.288s5.926,6.262.215,11.32S491.005,14.619,491.005,14.619Z" fill="#94503b"/><path d="M474.78,142.9c-8.337-63.893-.609-128.276-.609-128.276l53.1,23.241s24.1,53.151,33.356,82.022a60.116,60.116,0,0,1,3.269,12.4c.032.2.063.4.09.584,4.087,28.5-15.515,33.4-40.059,36.925-23.983,3.44-43.807,4.278-48.514-22.277h0l-.014-.1c-.1-.59-.2-1.189-.29-1.806Q474.911,144.251,474.78,142.9Z" fill="#d19570"/><path d="M567.512,152.78v27.87H478.4V159.825Z" fill="#070117"/><path d="M494.269,54.6l42.707,5.271c4.344,10.057,9.529,22.344,14.2,34.172C498.846,96.13,494.269,54.6,494.269,54.6Z" fill="#94503b"/><path d="M471.742,77.651s91.4,14.187,103.888,2.742,14.491-65.36,4.73-72.182-106.189,6.411-106.189,6.411Z" fill="#d19570"/><circle cx="2.571" cy="2.571" r="2.571" transform="translate(486.573 26.327)" fill="#070117"/><path d="M520.853,58.349l-.9,5.078-3.915,1.755-6.774-2.423L508.34,56.8a11.262,11.262,0,0,0,4.835,1.477C515.611,58.48,520.853,58.349,520.853,58.349Z" fill="#fff"/><path d="M579.325,13.054s-8.134,7.735-11.813,7.735c-8.7,0-23.394-6.167-23.394-6.167" fill="none" stroke="#94503b" stroke-linecap="round" stroke-linejoin="round" stroke-width="1.614"/><path d="M522.283,58.294s-7.256.163-9.871-.072-8.65-4.136-8.65-4.136" fill="none" stroke="#94503b" stroke-linecap="round" stroke-linejoin="round" stroke-width="1.614"/><path d="M568.2,37.223c-.079-10.79-.69-16.434-.69-16.434" fill="none" stroke="#94503b" stroke-linecap="round" stroke-linejoin="round" stroke-width="1.614"/><path d="M493.191,16.921V18.89a8.758,8.758,0,0,0-8.309,0" fill="none" stroke="#070117" stroke-linecap="round" stroke-linejoin="round" stroke-width="3.111"/><path d="M476.834,19.625,465.1,11.238s-4.723,7.213,1.794,11.18S476.834,19.625,476.834,19.625Z" fill="#d19570"/><path d="M473.995,17.458a28.292,28.292,0,0,1,.176-2.836c.416-3.368,2.289-8.529,3.706-8.291,1.988.335,1.449,4.819,1.449,4.819s2.415-8.295,5.556-7.394c3.527,1.011-.485,6.59-.485,6.59s6.566-6.081,8.416-1.664S473.995,17.458,473.995,17.458Z" fill="#d19570"/><path d="M463.45,13.491a4.372,4.372,0,0,1,.575.042,14.871,14.871,0,0,0-.424,1.641c-.05,0-.1-.008-.151-.008a2.763,2.763,0,1,0,2.763,2.763,2.736,2.736,0,0,0-.026-.375.851.851,0,0,1,.345-.824h0a.84.84,0,0,1,1.311.576,4.39,4.39,0,0,1,0,1.223,4.438,4.438,0,1,1-4.4-5.038Z" fill="#ffed00"/><line y2="4.731" transform="translate(476.211 71.167)" fill="none" stroke="#94503b" stroke-linecap="round" stroke-linejoin="round" stroke-width="1.614"/><line y2="4.731" transform="translate(481.014 73.533)" fill="none" stroke="#94503b" stroke-linecap="round" stroke-linejoin="round" stroke-width="1.614"/><line y2="4.731" transform="translate(485.817 71.167)" fill="none" stroke="#94503b" stroke-linecap="round" stroke-linejoin="round" stroke-width="1.614"/><line y2="4.731" transform="translate(490.62 73.533)" fill="none" stroke="#94503b" stroke-linecap="round" stroke-linejoin="round" stroke-width="1.614"/><line y2="4.731" transform="translate(500.403 73.533)" fill="none" stroke="#94503b" stroke-linecap="round" stroke-linejoin="round" stroke-width="1.614"/><line y2="4.731" transform="translate(495.422 71.167)" fill="none" stroke="#94503b" stroke-linecap="round" stroke-linejoin="round" stroke-width="1.614"/><line y2="4.731" transform="translate(478.356 80.77)" fill="none" stroke="#94503b" stroke-linecap="round" stroke-linejoin="round" stroke-width="1.614"/><line y2="4.731" transform="translate(483.159 83.136)" fill="none" stroke="#94503b" stroke-linecap="round" stroke-linejoin="round" stroke-width="1.614"/><line y2="4.731" transform="translate(487.961 80.77)" fill="none" stroke="#94503b" stroke-linecap="round" stroke-linejoin="round" stroke-width="1.614"/><line y2="4.731" transform="translate(475.746 90.333)" fill="none" stroke="#94503b" stroke-linecap="round" stroke-linejoin="round" stroke-width="1.614"/><line y2="4.731" transform="translate(480.549 92.698)" fill="none" stroke="#94503b" stroke-linecap="round" stroke-linejoin="round" stroke-width="1.614"/><line y2="4.731" transform="translate(478.356 100.171)" fill="none" stroke="#94503b" stroke-linecap="round" stroke-linejoin="round" stroke-width="1.614"/><line y2="4.731" transform="translate(483.159 102.537)" fill="none" stroke="#94503b" stroke-linecap="round" stroke-linejoin="round" stroke-width="1.614"/><line y2="4.731" transform="translate(485.352 90.333)" fill="none" stroke="#94503b" stroke-linecap="round" stroke-linejoin="round" stroke-width="1.614"/><line y2="4.731" transform="translate(492.764 83.136)" fill="none" stroke="#94503b" stroke-linecap="round" stroke-linejoin="round" stroke-width="1.614"/><line x2="0.001" y2="4.731" transform="translate(502.548 83.136)" fill="none" stroke="#94503b" stroke-linecap="round" stroke-linejoin="round" stroke-width="1.614"/><line x2="0.001" y2="4.731" transform="translate(497.566 80.771)" fill="none" stroke="#94503b" stroke-linecap="round" stroke-linejoin="round" stroke-width="1.614"/><line x2="0.001" y2="4.731" transform="translate(484.225 43.822)" fill="none" stroke="#94503b" stroke-linecap="round" stroke-linejoin="round" stroke-width="1.614"/><line x2="0.001" y2="4.731" transform="translate(479.243 41.457)" fill="none" stroke="#94503b" stroke-linecap="round" stroke-linejoin="round" stroke-width="1.614"/><path d="M523.929,169.791c-38.821,2.857-48.514-3.156-48.514-3.156l0-19.121-.014-.1c-.1-.59-.2-1.189-.29-1.806q-.2-1.362-.328-2.715c-2-15.32-3.074-30.667-3.554-45.148v0s10.559-21.651,34.337,7.968c10.2,12.7,24.683,18.959,36.309,12.52,10.664-5.906,11.662-18.15,11.662-18.15h0c2.756,7.165,12.637,19.792,16.278,60.515C569.812,160.6,558.3,167.262,523.929,169.791Z" fill="#fff"/><path d="M554.078,100.474s.2,21.574-16.9,25.691-33.337-17.507-33.337-17.507" fill="none" stroke="#ffed00" stroke-linecap="round" stroke-miterlimit="10" stroke-width="2.393" stroke-dasharray="0 3.829"/><path d="M469.937,83.136s33.387.947,41.91,14.611,14.283,55.82,14.283,55.82-32.956,16.863-58.293,9.914c0,0,3.9-.579,3.9-27.509a146.635,146.635,0,0,0-8.249-48.105Z" fill="#070117"/><path d="M470.952,85.5l8.692,17.036,26.493-5.107-10.379,20.133,22.251,17.988,3.4,1.252-4.471,2.921,4.71,1.312-3.767,2.146,4.006,1.729-2.087,1.312,2.385,2.146,1.014,4.412" fill="none" stroke="#3d3d3d" stroke-linecap="round" stroke-linejoin="round" stroke-width="0.718"/><circle cx="1.313" cy="1.313" r="1.313" transform="translate(480.449 96.438)" fill="#fff"/><circle cx="1.313" cy="1.313" r="1.313" transform="translate(500.295 115.215)" fill="#fff"/><path d="M484.976,131.526l4.752,5.226,2.126,9.452-11.079,4.364s-1.445-5.077,1.64-8.736l-5.5-4.916Z" fill="#d19570"/><path d="M468.059,91.494C457.951,100.171,454.832,120,454.832,120l26.03,21.381,7.791-7L476.36,119.14l8.05-11.318" fill="#070117" stroke="#3d3d3d" stroke-linecap="round" stroke-linejoin="round" stroke-width="0.718"/><path d="M492.524,136.746s-5.323,8.524-14.124,11.22l2.834,5.828A24.986,24.986,0,0,0,496,143.37" fill="#070117" stroke="#3d3d3d" stroke-linecap="round" stroke-linejoin="round" stroke-width="0.718"/><circle cx="2.983" cy="2.983" r="2.983" transform="translate(505.357 109.736)" fill="#ffed00"/><circle cx="1.679" cy="1.679" r="1.679" transform="translate(510.249 116.52)" fill="aqua"/><circle cx="1.679" cy="1.679" r="1.679" transform="translate(504.625 117.462)" fill="#ff6300"/><path d="M485.719,27.765l6.807-1.438-4.554-1.754Z" fill="#d19570"/></g><rect width="81.036" height="69.509" rx="7.395" transform="translate(171.819 11.257)" fill="#fff"/><path d="M2.057,0H7.166L7.132-7.852C7.1-11.9,6.755-16.8,6.755-16.8h.1S7.441-13.955,12.652,0H19.2V-23.9H14.092v7.612c0,4.183.446,9.189.446,9.189h-.1s-.583-2.914-5.829-16.8H2.057ZM20.3-8.606C20.3-2.537,21.67.309,27.671.309a16.662,16.662,0,0,0,6.72-1.3l-.823-3.669a17.176,17.176,0,0,1-5.04.891c-2.194,0-2.743-1.063-2.777-3.635v-.24a18.681,18.681,0,0,0,3.84.48c4.355,0,5.143-.823,5.143-4.663,0-1.886-.583-5.863-6.72-5.863C21.4-17.693,20.3-13.784,20.3-8.606Zm5.52-2.366c.137-2.572,1.132-2.88,2.023-2.88,1.132,0,1.646.651,1.646,1.817,0,.926-.137,1.44-1.3,1.44A7.708,7.708,0,0,1,25.819-10.972Zm9.155,2.366c0,6.069,1.372,8.915,7.372,8.915a16.662,16.662,0,0,0,6.72-1.3l-.823-3.669a17.176,17.176,0,0,1-5.04.891c-2.194,0-2.743-1.063-2.777-3.635v-.24a18.681,18.681,0,0,0,3.84.48c4.355,0,5.143-.823,5.143-4.663,0-1.886-.583-5.863-6.72-5.863C36.071-17.693,34.974-13.784,34.974-8.606Zm5.52-2.366c.137-2.572,1.132-2.88,2.023-2.88,1.132,0,1.646.651,1.646,1.817,0,.926-.137,1.44-1.3,1.44A7.708,7.708,0,0,1,40.494-10.972Zm9.155,2.3c0,6.309,1.783,8.984,7.749,8.984a17.33,17.33,0,0,0,6.995-1.543V-23.9H58.907v3.017c0,2.263.1,3.566.1,3.566h-.1a11.041,11.041,0,0,0-2.537-.274C51.021-17.59,49.649-13.338,49.649-8.675Zm9.258,4.286a4.083,4.083,0,0,1-1.509.274c-1.817,0-2.263-1.372-2.263-4.526,0-3.909.823-4.526,2.263-4.526a4.232,4.232,0,0,1,1.509.309ZM1.886,29.938H7.372V17.148a5.457,5.457,0,0,1,1.886-.377c1.132,0,1.817.583,1.817,2.16V29.938h5.486V18.9c0-5.075-2.709-6.549-6.172-6.549a9.441,9.441,0,0,0-3.017.48H7.3s.069-1.2.069-2.914V6.039H1.886Zm15.6-8.606c0,6.069,1.372,8.915,7.372,8.915a16.662,16.662,0,0,0,6.72-1.3l-.823-3.669a17.176,17.176,0,0,1-5.04.891c-2.194,0-2.743-1.063-2.777-3.635v-.24a18.681,18.681,0,0,0,3.84.48c4.355,0,5.143-.823,5.143-4.663,0-1.886-.583-5.863-6.72-5.863C18.584,12.245,17.487,16.154,17.487,21.331Zm5.52-2.366c.137-2.572,1.132-2.88,2.023-2.88,1.132,0,1.646.651,1.646,1.817,0,.926-.137,1.44-1.3,1.44A7.708,7.708,0,0,1,23.007,18.965ZM40.391,25.72a5.675,5.675,0,0,1-1.1.1c-.651,0-1.029-.24-1.029-1.372V6.039H32.78V24.623c0,4.595,1.372,5.623,4.423,5.623a13.167,13.167,0,0,0,3.669-.48Zm15.635-4.389c0-6.412-1.852-8.984-7.749-8.984a17.33,17.33,0,0,0-6.995,1.543V36.658h5.486v-3.12c0-2.263-.1-3.566-.1-3.566h.1a11.041,11.041,0,0,0,2.537.274C54.655,30.246,56.027,25.994,56.027,21.331Zm-9.258-4.286a4.082,4.082,0,0,1,1.509-.274c1.817,0,2.263,1.577,2.263,4.526,0,3.909-.857,4.526-2.263,4.526a4.232,4.232,0,0,1-1.509-.309ZM59.25,22.36h5.383v-.891a4.178,4.178,0,0,1,1.2-3.463l.857-.96a6.534,6.534,0,0,0,1.783-4.937c0-4.389-2.057-6.378-6.378-6.378a16.706,16.706,0,0,0-6.24,1.132l.891,4.012a14.139,14.139,0,0,1,3.943-.72c1.852,0,2.4.651,2.4,2.092a3.528,3.528,0,0,1-.891,2.5l-.857.96a6.465,6.465,0,0,0-2.092,5.349Zm0,7.578h5.383V25.446H59.25Z" transform="translate(178.234 41.099)" fill="#fff"/><path d="M637.391,14.613c-2.724,2.3-6.908,0-6.908,0V6.879h6.908Z" transform="translate(-421.6)" fill="#070117"/><path d="M627.1,102.271l3.384-4.755,8.768,2.382c-.3,3.034-6.375,2.373-6.375,2.373s1.579,4.869-4.327,5.152" transform="translate(-421.6)" fill="#d19570" stroke="#94503b" stroke-linecap="round" stroke-linejoin="round" stroke-width="1.614"/></g></svg>