<svg xmlns="http://www.w3.org/2000/svg" xmlns:xlink="http://www.w3.org/1999/xlink" width="428" height="261" viewBox="0 0 428 261"><defs><clipPath id="a"><rect width="428" height="261" transform="translate(3373 5207)" fill="#fff"/></clipPath><clipPath id="b"><path d="M86.2,166.7,33.8,75.1,0,44.6,17.3,22.9,50,30.8,53.5,2.3,78.7,0,94.2,28.5l53.3,5.6L148.7,68,130,91.9l27.8,39.4C108.8,159,86.2,166.7,86.2,166.7Z"/></clipPath></defs><g transform="translate(-3373 -5207)" clip-path="url(#a)"><g transform="translate(3373.587 5206.815)"><g transform="translate(-1682 -3785)"><g transform="translate(1645.413 3785.185)"><path d="M237.7,268.8l-32.7,4-11-28.1,26.7-19.4Z" fill="#ffed00"/><path d="M387.6,250c-80.7,31.7-158.4,24.3-158.4,24.3l-18.6-47.4s54-59.2,132.6-90.1,121.1,17.7,121.1,17.7S468.3,218.3,387.6,250Z" fill="#fff"/><path d="M246.5,217.3l27.9-21a14.675,14.675,0,0,0,5.7-13.9L278.4,171" fill="none" stroke="#ff6300" stroke-linecap="round" stroke-linejoin="round" stroke-width="3"/><path d="M262.2,257.3l34.7-3.6a14.543,14.543,0,0,1,13.6,6.3l6.5,9.6" fill="none" stroke="#ff6300" stroke-linecap="round" stroke-linejoin="round" stroke-width="3"/><ellipse cx="57.1" cy="6.5" rx="57.1" ry="6.5" transform="translate(264.563 179.576) rotate(-26.091)" fill="#070117"/><g transform="translate(197.886 14.205)"><g clip-path="url(#b)"><g transform="translate(6.656 7.194)"><path d="M48.6,186.5a13.664,13.664,0,0,0-16.7-.5,12.392,12.392,0,0,0-4.8,7,15.184,15.184,0,0,0,.5,8.7c.1.4.3.7.4,1.1l.5,1.3c.3.9.6,1.7.9,2.6a47.746,47.746,0,0,1,1.5,5.4,29.124,29.124,0,0,1,.9,5.8,19.6,19.6,0,0,1-.5,6.4,16.073,16.073,0,0,1-1.2,3.3,12.468,12.468,0,0,1-2.1,3,18.4,18.4,0,0,1-5.5,4.1,38.27,38.27,0,0,1-5.6,2.2c-1.8.6-3.5,1.1-5.2,1.6l-2.4-8.9a59.339,59.339,0,0,0,9.4-2.6,10.288,10.288,0,0,0,3.1-2,6.83,6.83,0,0,0,1.7-2.8,11.28,11.28,0,0,0,.5-4.1,37.254,37.254,0,0,0-.4-4.7,41.5,41.5,0,0,0-1.1-4.8,21.717,21.717,0,0,0-.7-2.4l-.4-1.2c-.1-.5-.3-1-.4-1.4a31.091,31.091,0,0,1-.9-6,21.628,21.628,0,0,1,.9-6.2,17.6,17.6,0,0,1,2.9-5.6,16.722,16.722,0,0,1,4.6-4.2,19.321,19.321,0,0,1,11.7-2.9,20.493,20.493,0,0,1,5.9,1.5,20.263,20.263,0,0,1,5,3.2Z" fill="#5200a9"/><g transform="translate(144.775 133.9)"><path d="M44.4,11.9,2.2,0,.8,7.5l7,3.2L.4,12,.1,17.4l7.8,1.9L0,21.3l.5,5.2,9,2L1.7,30.6l2.1,5.6,39.8-5.7Z" fill="#e2cc00"/><path d="M48.7,29.5,26.6,34.1l-2.1-7.9,6.9-2.1-7-.9.9-7.3h6.4L26,11.8l2.7-5.5,21.5,6.8Z" fill="#690bd6"/></g><g transform="translate(82.607 191.911)"><path d="M45.3,39,25.3,0,18.9,4l2.4,7.3-6-4.6-4.1,3.5,3.9,7L8.3,12.8l-3.5,4,4.7,8L2.6,20.5,0,25.8,31.2,51.1Z" fill="#e2cc00"/><path d="M35.4,54.1,17,41.1l4.3-6.9,6.2,3.6L23.4,32l5.9-4.3,4.4,4.7-.9-7,5.8-1.8,9.7,20.3Z" fill="#690bd6"/></g><g transform="translate(48.012)"><path d="M1.5,6.8,1,40.7l32.7-8.5L19.7,2.6Z" fill="#e2cc00"/><path d="M19.1,0l5.8,10.9L19.2,14,15.8,8.1l.7,6.6-6.9.8L8.1,9.6,5.6,15.8,0,14.6,2.4.6Z" fill="#690bd6"/><path d="M15.9,32.5h0l-2.3-3a.483.483,0,0,1,0-.7l1.2-1.7-1.9.9a.574.574,0,0,1-.7-.2L10,24.6c-.2-.2-.1-.5,0-.7l1.4-1.5-1.9.7a.517.517,0,0,1-.7-.3l-2-4.1a.67.67,0,0,1,.3-.8h0l5.5-2.3a.6.6,0,1,1,.5,1.1h0L8,18.8l1.5,3,3.7-1.4a.67.67,0,0,1,.8.3.661.661,0,0,1-.1.6l-2.7,3,1.7,2.4,3.5-1.6a.67.67,0,0,1,.8.3.471.471,0,0,1-.1.6l-2.2,3.1,1.7,2.1,3.5-2.5a.605.605,0,0,1,.8.1.619.619,0,0,1-.1.8h0l-3.9,2.8C16.5,32.8,16.1,32.8,15.9,32.5Z" fill="#ffed00"/></g><path d="M49.5,193.8l11.8,35.5h7.8l28-11.8,2.1-6.2,4.4,2.6,8.5-4.7-1.6-5.6,6.2,3.1,8.3-6-1.7-5.8,6.3,3,9-7-1.3-5.8,9.8-1.9,8.7-21.6-3.6-4.7h6.9l4.8-10-8.1-5.8L136.7,131Z" fill="#690bd6"/><path d="M48.5,188.7a7.165,7.165,0,0,0-3.7-1.8,8.964,8.964,0,0,0-4.3.2,12.093,12.093,0,0,0-7.2,4.9,10.65,10.65,0,0,0-1.9,8.1,13.348,13.348,0,0,0,1.3,4.3,3.128,3.128,0,0,0,.5,1l.6,1.2c.4.8.8,1.7,1.2,2.5A60.877,60.877,0,0,1,38.7,220a31.792,31.792,0,0,1,.6,6.2,18.383,18.383,0,0,1-1.2,6.6,16.171,16.171,0,0,1-3.8,5.9,22.53,22.53,0,0,1-5.2,4,87.561,87.561,0,0,1-10.3,4.7l-3.4-8.6,5.1-1.8a34.338,34.338,0,0,0,4.4-1.9,16.284,16.284,0,0,0,3.5-2.3,9.321,9.321,0,0,0,2.2-3,15.077,15.077,0,0,0,.7-8.4,40.372,40.372,0,0,0-2.7-9.6,24.424,24.424,0,0,0-1-2.4l-.5-1.2c-.2-.5-.4-.9-.6-1.4a25.712,25.712,0,0,1-1.4-6.1,17.249,17.249,0,0,1,3.7-12.1,18.175,18.175,0,0,1,10.7-6.3,14.839,14.839,0,0,1,6.3.2,13.426,13.426,0,0,1,3,1.2,12.84,12.84,0,0,1,2.6,2Z" fill="#ffed00"/><path d="M50.3,185.2a11.074,11.074,0,0,0-7.5-4.9,20.774,20.774,0,0,0-9.6.5,17.6,17.6,0,0,0-8.1,5,14.844,14.844,0,0,0-3.8,8.2,18.483,18.483,0,0,0,0,4.7c.1.4.1.8.2,1.2s.1.8.2,1.2l.3,1.2.1.3.1.4.2.7c.5,1.9.9,3.9,1.2,5.8a27.269,27.269,0,0,1,.2,6.4,19.723,19.723,0,0,1-.7,3.5,10.565,10.565,0,0,1-1.8,3.5,9.847,9.847,0,0,1-3.2,2.9,13.158,13.158,0,0,1-3.9,1.5,15.422,15.422,0,0,1-7.4-.3,19.571,19.571,0,0,1-3.4-1.2A15.231,15.231,0,0,1,0,223.6l6.3-6.8a6.232,6.232,0,0,0,1.2.9,9.819,9.819,0,0,0,1.8.8,8.279,8.279,0,0,0,3.5.5,6.106,6.106,0,0,0,1.3-.3,2.178,2.178,0,0,0,.9-.7,6.071,6.071,0,0,0,1.3-3.2,23.634,23.634,0,0,0,.2-4.6,27.38,27.38,0,0,0-.7-5l-.3-1.3-.3-1.5a7.719,7.719,0,0,1-.2-1.5c-.1-.5-.1-1-.2-1.5a26.644,26.644,0,0,1,.3-6.3,22.055,22.055,0,0,1,2.1-6.1,21.19,21.19,0,0,1,3.8-5.1,23.774,23.774,0,0,1,10.7-6,24.021,24.021,0,0,1,12.2-.1,17.326,17.326,0,0,1,5.7,2.6,13.223,13.223,0,0,1,4.3,4.8Z" fill="#ffed00"/><path d="M158.1,140.1s-13.3-11.5-17.5-17.7L124.2,98,79.4,130.8l11.5,15.9L52.3,177.1c-8.2,10.8-3.6,24.9-3.6,24.9l6.7,1.3,4.1-8.3,3.6,9.2,8.4-.5,2.2-9.1,5.6,7.5,7.8-3-.8-10.6,10.2,5.7,7.5-5-2.2-10.3,8.4,5.4,9-6.2-2.3-9,9,4.7,6.4-4.6L130,158.4l11,2.9,6.2-6.5-4.7-8.4,10.7,1.6Z" fill="#ffed00"/><path d="M134.7,33.1C121.6,16.5,41,38.4,41,38.4L11.4,26.2,1.4,37.9l30,26.8,41.2,56.9,12.9,26.9L53.1,175l-5.8,7.1,13.7.3,4.3-9.5,3,8L79.8,177l-.3-9.4,6.5,6,9.8-6.5-2.7-9.7,10.5,6.5,9.3-7.9-4-10.4,9.3,7.4,7.3-5.4-3.9-11.8,11.2,7.2,7.1-6.7L134,125.6l11,6.2,4.9-6.4-14.8-12.6L114.6,83.3C114.4,83.5,144.2,45.2,134.7,33.1Z" fill="#690bd6"/><path d="M31.2,60.1l41.9,66.3,8.3-3-2.3-9.7,7.4,6.9,7.5-4-3.7-10.1,7.6,8,7.1-4.9-4.5-10.2,8.4,6.8,6-4.8-4.6-9.9,8.9,6.2,3.3-5.4-8.3-9S144,50.1,135.7,35,31.2,60.1,31.2,60.1Z" fill="#ffed00"/><path d="M40.9,38.3,19.2,29.4,13.6,48.8,31.4,64.7l23.3,35.4,7.6-2.7L59.7,83.7l7.5,11,7.6-4.2L72.3,76l9.1,10.8,8.5-4.7L85,68.5l11.3,9.7,6.2-6.2L95.6,59.5,108,68.2l4.7-5.9-6.2-12.5,12.3,5.9,7.3-9.1-6.8-9.7,10.2,4,4.3-6.1-.5-4.4C114.2,17.3,40.9,38.3,40.9,38.3Z" fill="#690bd6"/><path d="M37.7,55.8a.593.593,0,0,1,.3-.9.651.651,0,0,1,.9.2l3.4,5.6,8.9-3a.751.751,0,0,1,.9.4.778.778,0,0,1-.2.8l-7.1,5.3L47.7,69l8.4-3a.67.67,0,0,1,.8.3.761.761,0,0,1-.1.9L50.2,74l4.6,5.5,9.8-4.1c.4-.1.8,0,.9.4s0,.8-.4.9h0L54.8,81a.778.778,0,0,1-.8-.2l-5.3-6.4a.746.746,0,0,1,0-.9l5-5.1-6.1,2.2a.63.63,0,0,1-.8-.3l-3.5-5.8a.651.651,0,0,1,.2-.9l4.2-3.1-5.4,1.8a.67.67,0,0,1-.8-.3l-3.8-6.2Z" fill="#5200a9"/><g transform="translate(1.15 24.569)"><path d="M4,17.6,28.7,40.8l4.1-5.1L28.4,30l6.7,2.2,2.6-4.4L32,22.7l7.4,1.9L41.3,20l-6.6-5.7L42.2,16l.7-5.6-29.7-9Z" fill="#ffed00"/><path d="M10.9,0,22.8,3.1,21.2,9.4,14.6,8,20,12l-4.1,5.6-5.4-2.9,2.9,6L8.7,24,0,12.7Z" fill="#690bd6"/><path d="M17.7,17.6v-.2a.55.55,0,0,1,.3-.5l5.6-4.2a.769.769,0,0,1,1,.1.675.675,0,0,1-.1,1h0l-5,3.7,2.5,3,3.9-2.6a.8.8,0,0,1,1,.2c.1.2.2.5,0,.7L24.6,23l2.6,2.3,3.5-2.8a.769.769,0,0,1,1,.1.755.755,0,0,1,.1.8l-1.9,3.4,2.3,1.5a.721.721,0,0,1-.8,1.2l-2.9-1.8a.651.651,0,0,1-.2-.9l.5-1-1.3,1a.75.75,0,0,1-.9,0l-3.5-3a.959.959,0,0,1-.2-.9l1.2-2.1-2,1.4a.744.744,0,0,1-.9-.1L17.8,18C17.8,17.8,17.8,17.7,17.7,17.6Z" fill="#e2cc00"/></g><g transform="translate(134.606 153.427)"><path d="M47.1,30.4,15.5,0,10.7,5.9,15.4,12,8.3,9.6,5.5,14.2l6,5.3-7.9-2-2,4.9,7,6L.7,26.6l-.7,6L37.8,46.4Z" fill="#ffed00"/><path d="M42.7,47.9,21,41.6l1.9-7.9,7,1.4L24.2,31l4.2-6,5.7,3L31,21.7l4.9-3.6L51.6,34.2Z" fill="#690bd6"/><path d="M19.2,27a.3.3,0,0,1-.4,0l-4-1-.7,2.1c-.1.4-.5.5-.9.4a.751.751,0,0,1-.4-.9l.9-2.7a.891.891,0,0,1,.8-.5l1.4.3-1.5-1.2a.765.765,0,0,1-.2-.9l2.2-4.3c.1-.3.5-.4.8-.4l2.6.7-2-1.8a.633.633,0,0,1-.1-.9L21,11.3a.775.775,0,0,1,1-.2h0l5.7,4.6a.758.758,0,0,1,.1,1,.642.642,0,0,1-.9.1l-5.2-4.2-2.5,3.5,3.7,3.3a.769.769,0,0,1,.1,1,.618.618,0,0,1-.7.2l-4.9-1.3-1.7,3.3,3.8,2.9a.668.668,0,0,1,.1,1,2.736,2.736,0,0,1-.4.5Z" fill="#e2cc00"/></g><path d="M136,32.1c-4.5-5.6-15.8-7.3-29.5-6.9l-.2,10.9L118.4,35l-9.7,8.7,6.1,8.6,9.3-6.9L122,57.9l9,3.2C136.9,49.9,140.7,38.2,136,32.1Z" fill="#e2cc00"/><path d="M82.6,41.3a.769.769,0,0,1,.1-1,.608.608,0,0,1,.8,0l4.2,2.8,5.8-6.5a.769.769,0,0,1,1-.1.778.778,0,0,1,.2.8l-3,8.5,4.8,3.3,6.5-7a.707.707,0,0,1,1,1l-6.9,7.4a.744.744,0,0,1-.9.1l-5.8-3.9a.67.67,0,0,1-.3-.8l2-5.6-3.8,4.3a.633.633,0,0,1-.9.1l-4.7-3.2A.349.349,0,0,0,82.6,41.3Z" fill="#5200a9"/><path d="M73.1,105.5h0l-4.2-5.3a.75.75,0,0,1,0-.9l4.6-5.2a.711.711,0,1,1,1.1.9h0l-4.3,4.8,3.4,4.4,6-3.6a.775.775,0,0,1,1,.2.854.854,0,0,1,0,.7l-2.9,6,4.9,3.5,4.6-4.9a.668.668,0,0,1,1,0,.735.735,0,0,1,.2.6l-1.4,7.7a.707.707,0,1,1-1.4-.2l1-5.4-3.4,3.6a.744.744,0,0,1-.9.1l-5.8-4.2a.651.651,0,0,1-.2-.9l2.2-4.4-4.5,2.7C73.6,105.8,73.3,105.8,73.1,105.5Z" fill="#e2cc00"/><g transform="translate(95.166 187.578)"><path d="M.7,13.1,5,18.7l7.6-3.6L10.4,7.8l6.4,4.3,5.9-4.7L19.4.6l8.3,2.6" fill="#690bd6"/><path d="M5.3,19.4a.778.778,0,0,1-.8-.2L.2,13.6a.769.769,0,0,1,.1-1,.769.769,0,0,1,1,.1l4,5.1,6.5-3.1L9.7,8a.715.715,0,0,1,.5-.9.661.661,0,0,1,.6.1l5.9,4,5.1-4L18.7,1A.659.659,0,0,1,19,.1a.9.9,0,0,1,.5-.1l8.3,2.6A.728.728,0,0,1,27.4,4h0L20.7,1.9l2.6,5.3a.627.627,0,0,1-.2.8l-5.9,4.7a.608.608,0,0,1-.8,0L11.6,9.5,13.2,15a.68.68,0,0,1-.4.8L5.3,19.4Z" fill="#5200a9"/></g><g transform="translate(60.533 208.874)"><path d="M26.1,44.1,36,1.3,28.5.2,25.7,7.3,24,0H18.6L17.1,7.9,14.7.1,9.5.9,7.9,10,5.4,2.3,0,4.7,7.6,44.2Z" fill="#ffed00"/><path d="M8.8,49.2,3.1,27.4,10.8,25l2.4,6.8.6-7,7.3.5.3,6.4,3.8-5.9,5.6,2.4L25.1,50Z" fill="#690bd6"/><path d="M28,20.4c-.1,0-.2.1-.4,0-.3,0-.6-.4-.6-.7l.9-6.6-4.2-.4-.9,4.9a.76.76,0,0,1-.8.6.472.472,0,0,1-.5-.5l-1.4-4.8-3.7.3-.6,4.7a.641.641,0,0,1-.8.6.634.634,0,0,1-.6-.5l-1.2-4-2.2.5a.667.667,0,0,1-.3-1.3h0l2.8-.6a.618.618,0,0,1,.8.5l.4,1.3.2-1.9a.645.645,0,0,1,.6-.6l4.8-.4a.752.752,0,0,1,.7.5l.8,2.6.5-2.7a.858.858,0,0,1,.7-.6l5.6.5a.6.6,0,0,1,.6.7h0l-1,7.3C28.4,20.1,28.2,20.3,28,20.4Z" fill="#e2cc00"/></g><g transform="translate(81.707 124.415)"><path d="M6.8.7.7,9.8,7,14.4l7-5.5L11.8,16,22,19.1l4.3-7,.8,7.9,9.7.6,2-7.8,3.1,7.8,9-1.1" fill="#690bd6"/><path d="M11.6,16.7a.715.715,0,0,1-.5-.9l1.5-5.1L7.3,14.9a.608.608,0,0,1-.8,0L.2,10.3a.744.744,0,0,1-.1-.9L6.2.3a.751.751,0,0,1,1-.2.751.751,0,0,1,.2,1h0L1.6,9.6l5.3,3.9,6.5-5.2a.769.769,0,0,1,1,.1.661.661,0,0,1,.1.6l-1.9,6.5,9,2.8,4-6.5a.751.751,0,0,1,1-.2.55.55,0,0,1,.3.5l.7,7.4,8.5.5,1.8-7.3a.657.657,0,0,1,.8-.5,1,1,0,0,1,.5.4l2.9,7.3,8.5-1a.707.707,0,0,1,.2,1.4l-9,1.1a.67.67,0,0,1-.7-.4l-2.3-5.8L37.4,21a.752.752,0,0,1-.7.5L27,20.9a.645.645,0,0,1-.6-.6l-.6-5.9-3.3,5.2a.67.67,0,0,1-.8.3L11.6,16.7Z" fill="#5200a9"/></g><path d="M105.8,175.9a.616.616,0,0,1-.7-.1l-4.9-3.9a.711.711,0,0,1,.9-1.1l4.5,3.6,5.8-4-.7-6.9a.76.76,0,0,1,.6-.8h.3l7.3,3,6-4.6-2.7-6.8c-.1-.4,0-.8.4-.9a.471.471,0,0,1,.6.1l6.7,4,2.9-2.1a.721.721,0,1,1,.8,1.2l-3.2,2.3a.6.6,0,0,1-.8,0l-5.3-3.2,2.1,5.4a.778.778,0,0,1-.2.8l-6.7,5.2a.616.616,0,0,1-.7.1l-6.6-2.7.7,6.2a.6.6,0,0,1-.3.6l-6.5,4.5A.438.438,0,0,0,105.8,175.9Z" fill="#e2cc00"/><path d="M51.1,190.7a10.066,10.066,0,0,0-7.6-1,9.075,9.075,0,0,0-3.4,1.7,9.179,9.179,0,0,0-2.4,2.8,11.515,11.515,0,0,0-1.1,7.5,18.226,18.226,0,0,0,1.1,4c.1.3.3.7.4,1s.3.7.4,1l1,2.1a60.339,60.339,0,0,1,4,9.4,30.432,30.432,0,0,1,1.3,5.2,22.373,22.373,0,0,1,.4,5.8,13.9,13.9,0,0,1-1.8,6.3,13.028,13.028,0,0,1-1,1.5c-.2.2-.4.5-.6.7l-.6.7a15.352,15.352,0,0,1-2.9,2.1,10.092,10.092,0,0,1-1.5.7,7.494,7.494,0,0,1-1.6.5,16.961,16.961,0,0,1-3.1.6,20.146,20.146,0,0,1-6-.2l1.7-9.1a10.633,10.633,0,0,0,6.6-.3,4.714,4.714,0,0,0,1.9-1.5,7.257,7.257,0,0,0,1-2.8,12.75,12.75,0,0,0,0-3.9,31.05,31.05,0,0,0-.8-4.2,67.422,67.422,0,0,0-3-8.6l-1-2.3c-.2-.4-.3-.8-.5-1.3a6.468,6.468,0,0,1-.4-1.3,25.632,25.632,0,0,1-1-5.4,17.339,17.339,0,0,1,2.5-11.1,16.373,16.373,0,0,1,4.1-4.2,14.843,14.843,0,0,1,16.3-.1Z" fill="#690bd6"/><g transform="translate(61.941 53.23)"><path d="M21.9,27.5a14.686,14.686,0,1,1,5.6-20,14.637,14.637,0,0,1-5.6,20Z" fill="#fff"/><path d="M8.4,3.8A12.6,12.6,0,0,0,2.6,18.2l11.9-3.6L8.7,25.5A12.415,12.415,0,1,0,20.4,3.6a12.476,12.476,0,0,0-12,.2Z" fill="#070117"/></g></g></g></g><path d="M419,233.5c48.1-33.3,45.2-79,45.2-79S434,120,377.5,127.7c0,0-2,23,11.2,56.7S419,233.5,419,233.5Z" fill="#ff6300"/><path d="M253.6,188.5c-10.1,4.4-31.7,1.1-47.1-2.2a37.849,37.849,0,0,0-31.9,7.8L158.9,207l51.6,19.8Z" fill="#ff6300"/><path d="M286.9,273.2c-10.4,3.6-24,20.8-33.1,33.7a37.892,37.892,0,0,1-28.6,16l-20.3,1.2,24.3-49.7Z" fill="#ff6300"/><line x2="30.4" y2="77.3" transform="translate(239.1 198.6)" fill="none" stroke="#ff6300" stroke-linecap="round" stroke-linejoin="round" stroke-width="3"/><line x1="134.3" y2="52.8" transform="translate(255.1 186.3)" fill="none" stroke="#ff6300" stroke-linecap="round" stroke-linejoin="round" stroke-width="3"/><path d="M382.3,142.3c42.1-5.5,75.2,11.1,75.2,11.1-29.4,2.6-68.8,18-68.8,18A110.525,110.525,0,0,1,382.3,142.3Z" fill="#ffb383"/><path d="M84.6,275.9C78.9,282,71.3,286.5,63,286.4c-12.6-.1-19.1-11.3-34.6-9.4-12,1.4-21.6,10.5-28.4,20.5" fill="none" stroke="#ffed00" stroke-linecap="round" stroke-miterlimit="10" stroke-width="4"/><path d="M189.8,283.8c-3.1,1.3-6.3,2.8-8.1,5.5-2,3.1-1.9,7-1.5,10.7a26.442,26.442,0,0,0,1.1,5.6c.5,1.6,1.1,3.1,1.5,4.7,1.4,6.4-2.1,13.1-7.2,17.2" fill="none" stroke="#ff6300" stroke-linecap="round" stroke-miterlimit="10" stroke-width="4"/><path d="M76.2,202.5a22.306,22.306,0,0,0,10.2,15.7,28.9,28.9,0,0,0,18.6,4,54.025,54.025,0,0,1,6.9-.8,18.115,18.115,0,0,1,17.7,15" fill="none" stroke="#ff6300" stroke-linecap="round" stroke-miterlimit="10" stroke-width="4"/><line x1="76.8" y2="30.5" transform="translate(110.4 261.4)" fill="none" stroke="aqua" stroke-linecap="round" stroke-miterlimit="10" stroke-width="4"/><line x1="40.4" y2="28.9" transform="translate(107.4 302.6)" fill="none" stroke="#ffed00" stroke-linecap="round" stroke-miterlimit="10" stroke-width="4"/><line x1="68.4" y2="7.5" transform="translate(26.6 247.9)" fill="none" stroke="#fff" stroke-linecap="round" stroke-miterlimit="10" stroke-width="4"/><circle cx="9.9" cy="9.9" r="9.9" transform="translate(152.8 227.3)" fill="none" stroke="aqua" stroke-linecap="round" stroke-miterlimit="10" stroke-width="4"/><circle cx="14" cy="14" r="14" transform="translate(42.3 311.7)" fill="none" stroke="#ff6300" stroke-linecap="round" stroke-miterlimit="10" stroke-width="4"/><circle cx="7" cy="7" r="7" transform="translate(138.8 359.6)" fill="none" stroke="#fff" stroke-linecap="round" stroke-miterlimit="10" stroke-width="4"/><path d="M237.7,84.6l-6.9,10.2,5.5,6.4,6-1.2-1.8,7.3,5,6.5,7.6-2.2,3.2-6.8-10.6-5Z" fill="#690bd6"/><path d="M268.6,129.1l-5.2,6.2,4.4,5.4,8.1-2.2Z" fill="#ffed00"/><circle cx="79.7" cy="79.7" r="79.7" transform="translate(197.1 0)" fill="none" stroke="#fff" stroke-linecap="round" stroke-linejoin="round" stroke-width="3"/><path d="M339.1,73.4A58.084,58.084,0,0,0,281,15.3" fill="none" stroke="#fff" stroke-linecap="round" stroke-linejoin="round" stroke-width="3"/></g></g><path d="M200.8,41.5a2.048,2.048,0,0,1-1.5-2.1,2.608,2.608,0,0,1,1.8-2,3.232,3.232,0,0,1,2.7.4,4.305,4.305,0,0,1,1.4,5.7,5.706,5.706,0,0,1-1.3,1.4,6.051,6.051,0,0,1-2.7,1.5,5.385,5.385,0,0,1-5-1.9,9.4,9.4,0,0,1-1.9-5.2,5.845,5.845,0,0,1,.2-1.9,6.782,6.782,0,0,1,1.2-2.2,10.259,10.259,0,0,1,5.8-4,5.736,5.736,0,0,1,6.2,2.6" fill="none" stroke="#ffed00" stroke-linecap="round" stroke-miterlimit="10" stroke-width="2"/><path d="M263.5,36.7a1.426,1.426,0,0,1-1.5,1.1,1.828,1.828,0,0,1-1.5-1.3,2.356,2.356,0,0,1,.3-2,3.055,3.055,0,0,1,4.1-1,4.3,4.3,0,0,1,1,.9,4.9,4.9,0,0,1,1.1,2,3.7,3.7,0,0,1-1.4,3.6,5.582,5.582,0,0,1-3.7,1.3,6.6,6.6,0,0,1-1.4-.1,5.071,5.071,0,0,1-1.6-.9,7.678,7.678,0,0,1-2.9-4.2c-.3-1.7.3-3.7,1.9-4.4" fill="none" stroke="#ff6300" stroke-linecap="round" stroke-miterlimit="10" stroke-width="1.439"/><path d="M212.3,132.4a1.993,1.993,0,0,1-2.2,1.5,2.6,2.6,0,0,1-2.1-1.8,3.459,3.459,0,0,1,.4-2.8,4.455,4.455,0,0,1,6-1.4,4.357,4.357,0,0,1,1.4,1.3,6.384,6.384,0,0,1,1.5,2.8,5.574,5.574,0,0,1-2,5.2,8.874,8.874,0,0,1-5.4,1.9,6.478,6.478,0,0,1-2-.2,5.9,5.9,0,0,1-2.2-1.2,10.572,10.572,0,0,1-4.2-6c-.5-2.4.5-5.3,2.7-6.4" fill="none" stroke="aqua" stroke-linecap="round" stroke-miterlimit="10" stroke-width="2.079"/><circle cx="3.6" cy="3.6" r="3.6" transform="translate(293.6 100.7)" fill="aqua"/><circle cx="6.8" cy="6.8" r="6.8" transform="translate(175.1 93.9)" fill="none" stroke="#ff6300" stroke-linecap="round" stroke-miterlimit="10" stroke-width="1.439"/></g></g></svg>