<svg xmlns="http://www.w3.org/2000/svg" xmlns:xlink="http://www.w3.org/1999/xlink" width="212" height="200" viewBox="0 0 212 200"><defs><clipPath id="a"><rect width="212" height="200" transform="translate(1682 3650)" fill="#fff"/></clipPath><clipPath id="b"><path d="M119.126,688.916,90.911,639.61l-18.18-16.443,9.342-11.676,17.606,4.244,1.877-15.349,13.532-1.221,8.347,15.347,28.725,3,.628,18.25-10.037,12.871,14.978,21.208C131.339,684.8,119.126,688.916,119.126,688.916Z" transform="translate(-72.731 -599.165)" fill="none"/></clipPath></defs><g transform="translate(-1682 -3650)" clip-path="url(#a)"><g transform="translate(1657.825 3650.184)"><path d="M96.712,733.591l-16.628,2.026-5.616-14.3,13.559-9.84Z" transform="translate(24.139 -587.001)" fill="#ffed00"/><path d="M172.888,724.04c-41.022,16.124-80.527,12.349-80.527,12.349L82.9,712.308s27.44-30.087,67.4-45.792,61.577,9,61.577,9S213.91,707.916,172.888,724.04Z" transform="translate(24.134 -587.001)" fill="#fff"/><path d="M101.181,707.423l14.19-10.682a7.462,7.462,0,0,0,2.887-7.087l-.889-5.82" transform="translate(24.125 -587.001)" fill="none" stroke="#ff6300" stroke-linecap="round" stroke-linejoin="round" stroke-width="3"/><path d="M109.168,727.754l17.663-1.838a7.451,7.451,0,0,1,6.936,3.226l3.308,4.869" transform="translate(24.122 -587.001)" fill="none" stroke="#ff6300" stroke-linecap="round" stroke-linejoin="round" stroke-width="3"/><ellipse cx="29.038" cy="3.307" rx="29.038" ry="3.307" transform="translate(134.476 101.265) rotate(-26.094)" fill="#070117"/><path d="M188.917,715.653c24.455-16.91,23-40.139,23-40.139s-15.365-17.554-44.126-13.658c0,0-1.041,11.7,5.678,28.818S188.917,715.653,188.917,715.653Z" transform="translate(24.093 -587.001)" fill="#ff6300"/><path d="M104.8,692.8c-5.139,2.245-16.127.568-23.963-1.094a19.19,19.19,0,0,0-16.205,3.956l-7.981,6.583,26.244,10.065Z" transform="translate(24.147 -587.001)" fill="#ff6300"/><path d="M121.713,735.848c-5.292,1.855-12.2,10.566-16.811,17.12a19.2,19.2,0,0,1-14.564,8.138l-10.325.612,12.378-25.246Z" transform="translate(24.136 -587.001)" fill="#ff6300"/><line x2="15.428" y2="39.29" transform="translate(121.575 110.921)" fill="none" stroke="#ff6300" stroke-linecap="round" stroke-linejoin="round" stroke-width="3"/><line x1="68.293" y2="26.843" transform="translate(129.66 104.667)" fill="none" stroke="#ff6300" stroke-linecap="round" stroke-linejoin="round" stroke-width="3"/><path d="M170.274,669.312a72.331,72.331,0,0,1,38.247,5.627c-14.938,1.328-34.976,9.166-34.976,9.166A55.682,55.682,0,0,1,170.274,669.312Z" transform="translate(24.092 -587.001)" fill="#ffb383"/><path d="M18.814,737.213c-2.9,3.085-6.737,5.377-10.971,5.337-6.387-.06-9.686-5.721-17.609-4.77-6.088.73-10.969,5.356-14.421,10.426" transform="translate(24.187 -587.001)" fill="none" stroke="#ffed00" stroke-linecap="round" stroke-miterlimit="10" stroke-width="4"/><path d="M72.328,741.228a8.884,8.884,0,0,0-4.141,2.807c-1.04,1.555-.989,3.579-.77,5.437a17.035,17.035,0,0,0,.54,2.863c.236.794.563,1.561.745,2.368.729,3.254-1.081,6.659-3.679,8.747" transform="translate(24.143 -587.001)" fill="none" stroke="#ff6300" stroke-linecap="round" stroke-miterlimit="10" stroke-width="4"/><path d="M14.554,699.91a11.35,11.35,0,0,0,5.2,7.993,14.5,14.5,0,0,0,9.442,2.021c1.163-.136,2.316-.393,3.487-.42a9.2,9.2,0,0,1,9.007,7.623" transform="translate(24.168 -587.001)" fill="none" stroke="#ff6300" stroke-linecap="round" stroke-miterlimit="10" stroke-width="4"/><line x1="39.03" y2="15.544" transform="translate(56.146 142.824)" fill="none" stroke="aqua" stroke-linecap="round" stroke-miterlimit="10" stroke-width="4"/><line x1="20.54" y2="14.695" transform="translate(54.581 163.805)" fill="none" stroke="#ffed00" stroke-linecap="round" stroke-miterlimit="10" stroke-width="4"/><line x1="34.785" y2="3.794" transform="translate(13.509 135.987)" fill="none" stroke="#fff" stroke-linecap="round" stroke-miterlimit="10" stroke-width="4"/><ellipse cx="5.028" cy="5.03" rx="5.028" ry="5.03" transform="translate(77.678 125.536)" fill="none" stroke="aqua" stroke-linecap="round" stroke-miterlimit="10" stroke-width="4"/><ellipse cx="7.127" cy="7.131" rx="7.127" ry="7.131" transform="translate(21.501 168.403)" fill="none" stroke="#ff6300" stroke-linecap="round" stroke-miterlimit="10" stroke-width="4"/><ellipse cx="3.555" cy="3.557" rx="3.555" ry="3.557" transform="translate(70.568 192.743)" fill="none" stroke="#fff" stroke-linecap="round" stroke-miterlimit="10" stroke-width="4"/><g transform="translate(96.87 12.164)"><g transform="translate(0)" clip-path="url(#b)"><g transform="translate(3.584 3.873)"><path d="M102.5,703.438a7.406,7.406,0,0,0-9.017-.279,6.609,6.609,0,0,0-2.56,3.745,8.368,8.368,0,0,0,.277,4.669c.061.2.137.389.207.583l.259.687c.17.463.336.93.493,1.4.313.946.6,1.911.83,2.912a19.782,19.782,0,0,1,.485,3.129,11.491,11.491,0,0,1-.252,3.458,8.416,8.416,0,0,1-.659,1.8,7.734,7.734,0,0,1-1.112,1.636,9.747,9.747,0,0,1-2.955,2.208,20.731,20.731,0,0,1-2.993,1.188c-.966.312-1.893.573-2.784.841l-1.274-4.8a32.873,32.873,0,0,0,5.074-1.4,5.373,5.373,0,0,0,1.674-1.051,3.561,3.561,0,0,0,.915-1.527,7.279,7.279,0,0,0,.287-2.193,15.672,15.672,0,0,0-.235-2.519c-.141-.862-.342-1.736-.572-2.61-.115-.437-.241-.875-.371-1.312l-.2-.661c-.078-.257-.16-.512-.226-.774a13.107,13.107,0,0,1-.458-3.245A10.777,10.777,0,0,1,87.809,706a9.7,9.7,0,0,1,1.564-3,9.816,9.816,0,0,1,2.471-2.261,10.164,10.164,0,0,1,6.288-1.573,9.853,9.853,0,0,1,3.155.79,10.048,10.048,0,0,1,2.7,1.747Z" transform="translate(-76.32 -603.038)" fill="#5200a9"/><g transform="translate(77.954 72.099)"><path d="M178.232,681.57l-22.719-6.432-.781,4.014,3.752,1.709-3.986.678-.157,2.906,4.194,1.024-4.228,1.065.286,2.822,4.865,1.088-4.2,1.143,1.139,2.989,21.423-3.047Z" transform="translate(-154.309 -675.137)" fill="#e2cc00"/><path d="M180.533,691l-11.875,2.5-1.113-4.228,3.7-1.105-3.763-.507.476-3.923,3.472-.015-3.081-2.215,1.438-2.949,11.56,3.657Z" transform="translate(-154.316 -675.137)" fill="#690bd6"/></g><g transform="translate(44.479 103.335)"><path d="M145.21,727.393l-10.774-21.019-3.468,2.163,1.306,3.912-3.212-2.456-2.232,1.865,2.109,3.769-3.66-2.371-1.87,2.132,2.519,4.3-3.7-2.3-1.411,2.871,16.826,13.611Z" transform="translate(-120.818 -706.373)" fill="#e2cc00"/><path d="M139.878,735.5l-9.921-6.992,2.335-3.7,3.328,1.955-2.193-3.1,3.194-2.325L139,723.871l-.479-3.765,3.137-.956,5.2,10.957Z" transform="translate(-120.823 -706.373)" fill="#690bd6"/></g><g transform="translate(25.852)"><path d="M102.977,606.721l-.268,18.236,17.617-4.566-7.563-15.927Z" transform="translate(-102.182 -603.038)" fill="#f1393b"/><path d="M112.474,603.038l3.113,5.87-3.057,1.653-1.841-3.156.373,3.576-3.713.437-.789-3.191-1.348,3.329-3.032-.665,1.29-7.549Z" transform="translate(-102.182 -603.038)" fill="#690bd6"/><path d="M110.755,620.557l-.015-.018-1.225-1.581a.317.317,0,0,1-.007-.379l.639-.893-1.024.463a.317.317,0,0,1-.39-.106l-1.211-1.72a.318.318,0,0,1,.026-.4l.749-.811-1.043.388a.319.319,0,0,1-.395-.157l-1.077-2.181a.317.317,0,0,1,.161-.433l2.944-1.242a.317.317,0,1,1,.247.584l-2.634,1.111.8,1.623,2.018-.75a.317.317,0,0,1,.343.513l-1.473,1.6.914,1.3,1.86-.841a.317.317,0,0,1,.389.473l-1.188,1.661.894,1.153,1.875-1.339a.317.317,0,1,1,.369.516l-2.123,1.517A.317.317,0,0,1,110.755,620.557Z" transform="translate(-102.183 -603.038)" fill="#f45e60"/></g><path d="M102.971,707.4l6.372,19.117,4.183-.013,15.052-6.353,1.13-3.335L132.1,718.2l4.588-2.537-.873-3.012,3.331,1.652,4.468-3.211-.935-3.121,3.382,1.6,4.858-3.783-.7-3.125,5.268-1.015,4.668-11.608-1.915-2.508,3.734.009,2.563-5.358-4.378-3.119-10.2-5.5Z" transform="translate(-76.33 -603.038)" fill="#690bd6"/><path d="M102.447,704.633a4.049,4.049,0,0,0-1.983-.979,5.514,5.514,0,0,0-2.325.081,6.813,6.813,0,0,0-3.883,2.617,5.987,5.987,0,0,0-1.037,4.36,8.416,8.416,0,0,0,.674,2.3c.08.189.176.375.266.562l.331.671c.217.451.43.906.635,1.367a28.875,28.875,0,0,1,1.971,5.881,15.314,15.314,0,0,1,.332,3.314,10.471,10.471,0,0,1-.65,3.556,9.344,9.344,0,0,1-2.022,3.17,12.873,12.873,0,0,1-2.788,2.144,49.7,49.7,0,0,1-5.527,2.532L84.591,731.6l2.728-.976a21.455,21.455,0,0,0,2.391-1.016,8.408,8.408,0,0,0,1.872-1.259,4.921,4.921,0,0,0,1.171-1.611,8.274,8.274,0,0,0,.377-4.538,25.1,25.1,0,0,0-1.437-5.164c-.164-.43-.338-.86-.516-1.288L90.9,715.1c-.106-.255-.214-.506-.307-.768a11.855,11.855,0,0,1-.733-3.3,9.514,9.514,0,0,1,.376-3.456,8.981,8.981,0,0,1,1.633-3.066,9.628,9.628,0,0,1,5.74-3.378,8.064,8.064,0,0,1,3.418.111,6.793,6.793,0,0,1,1.635.666,6.422,6.422,0,0,1,1.4,1.094Z" transform="translate(-76.321 -603.038)" fill="#ffed00"/><path d="M103.4,702.761a6.094,6.094,0,0,0-4.035-2.63,10.405,10.405,0,0,0-5.177.293,9.9,9.9,0,0,0-4.339,2.674,8.034,8.034,0,0,0-2.068,4.414,10.078,10.078,0,0,0-.011,2.527c.029.214.051.428.093.642s.077.427.126.641.1.427.157.64l.043.164.053.188.106.378A25.311,25.311,0,0,1,89,715.828a14.459,14.459,0,0,1,.1,3.432,9.061,9.061,0,0,1-.391,1.877,6.765,6.765,0,0,1-.969,1.909,5.975,5.975,0,0,1-1.706,1.565,6.532,6.532,0,0,1-2.1.812,9.017,9.017,0,0,1-3.978-.154,10.4,10.4,0,0,1-1.817-.645,7.711,7.711,0,0,1-1.826-1.163l3.365-3.654a2.7,2.7,0,0,0,.636.473,5.579,5.579,0,0,0,.944.423,4.549,4.549,0,0,0,1.886.263,2.151,2.151,0,0,0,.682-.18,1.571,1.571,0,0,0,.51-.375,3.492,3.492,0,0,0,.716-1.7,10.54,10.54,0,0,0,.1-2.486,21.792,21.792,0,0,0-.361-2.7l-.146-.712c-.056-.269-.117-.535-.16-.809s-.091-.544-.122-.82-.058-.553-.082-.831a13.5,13.5,0,0,1,.175-3.385,11.476,11.476,0,0,1,1.117-3.262,11.185,11.185,0,0,1,2.046-2.762,12.857,12.857,0,0,1,5.786-3.238,13.069,13.069,0,0,1,6.548-.062,9.634,9.634,0,0,1,3.085,1.4,7.675,7.675,0,0,1,2.335,2.571Z" transform="translate(-76.317 -603.038)" fill="#ffed00"/><path d="M161.454,678.46s-7.152-6.211-9.4-9.51l-8.844-13.119L119.064,673.5l6.215,8.582-20.8,16.386c-4.426,5.808-1.95,13.428-1.95,13.428l3.629.711,2.2-4.461,1.938,4.94,4.511-.279,1.159-4.913,3.017,4.027,4.177-1.6-.452-5.683,5.489,3.085,4.038-2.708-1.162-5.557,4.512,2.884,4.859-3.32-1.226-4.86,4.872,2.522,3.46-2.467-1.228-5.8,5.942,1.578,3.355-3.516-2.553-4.5,5.74.839Z" transform="translate(-76.33 -603.038)" fill="#f45e60"/><path d="M148.824,620.835c-7.068-8.959-50.47,2.836-50.47,2.836l-15.872-6.512-5.364,6.293,16.144,14.432,22.191,30.643L122.4,683.02,104.9,697.287l-3.14,3.824,7.359.181L111.4,696.2l1.618,4.287,6.206-2.081-.187-5.078,3.521,3.234,5.259-3.51-1.457-5.2,5.627,3.5,5.021-4.279-2.139-5.576,4.992,4,3.937-2.928-2.1-6.349,6.017,3.882,3.828-3.619-3.178-5.752,5.9,3.344,2.629-3.42-7.969-6.8L137.9,647.973S153.975,627.367,148.824,620.835Z" transform="translate(-76.317 -603.038)" fill="#690bd6"/><path d="M93.14,635.424l22.587,35.721,4.451-1.641-1.231-5.24,3.98,3.72,4.016-2.148-1.972-5.416,4.084,4.3L132.9,662.1l-2.422-5.465L135,660.3l3.231-2.582-2.483-5.3,4.807,3.32,1.793-2.9-4.443-4.855s16.045-17.892,11.564-26S93.14,635.424,93.14,635.424Z" transform="translate(-76.325 -603.038)" fill="#f45e60"/><path d="M98.357,623.671l-11.682-4.793-3,10.434,9.589,8.572,12.554,19.071,4.1-1.475-1.418-7.363,4.036,5.915,4.1-2.265-1.4-7.785,4.923,5.834,4.552-2.518-2.656-7.3,6.11,5.224,3.357-3.325-3.711-6.717,6.676,4.672,2.546-3.191-3.352-6.741,6.609,3.189,3.912-4.9-3.662-5.238,5.486,2.132,2.335-3.3-.253-2.372C137.793,612.346,98.357,623.671,98.357,623.671Z" transform="translate(-76.321 -603.038)" fill="#690bd6"/><path d="M96.618,633.109a.373.373,0,0,1,.639-.385l1.854,3.029,4.813-1.625a.373.373,0,0,1,.344.65l-3.8,2.875,1.551,2.564,4.539-1.617a.374.374,0,0,1,.439.151.38.38,0,0,1-.049.462l-3.605,3.669,2.474,2.964,5.268-2.205a.373.373,0,0,1,.287.688l-5.521,2.311a.373.373,0,0,1-.43-.105l-2.866-3.435a.374.374,0,0,1,.02-.5l2.706-2.753-3.3,1.175a.373.373,0,0,1-.444-.159l-1.881-3.111a.364.364,0,0,1,.094-.491l2.238-1.693-2.921.986a.372.372,0,0,1-.437-.158l-2.01-3.282Z" transform="translate(-76.327 -603.038)" fill="#5200a9"/><g transform="translate(0.619 13.229)"><path d="M79.1,625.769l13.28,12.494,2.213-2.724-2.371-3.1,3.63,1.211,1.425-2.356-3.045-2.725,4,1,1.019-2.483L95.675,624l4.017.92.381-3-16.044-4.9Z" transform="translate(-76.937 -616.268)" fill="#f45e60"/><path d="M82.782,616.268l6.432,1.658-.841,3.373-3.57-.768,2.891,2.135L85.513,625.7l-2.887-1.569,1.548,3.241-2.535,1.791-4.7-6.043Z" transform="translate(-76.936 -616.268)" fill="#690bd6"/><path d="M86.492,625.736a.336.336,0,0,1,0-.1.368.368,0,0,1,.147-.256l3.012-2.243a.373.373,0,1,1,.445.6L87.4,625.746l1.369,1.628,2.092-1.422a.373.373,0,0,1,.536.489l-1.234,2.235,1.405,1.223,1.888-1.481a.372.372,0,0,1,.556.473l-1.006,1.83,1.253.8a.373.373,0,0,1-.4.627l-1.545-.993a.372.372,0,0,1-.125-.493l.295-.537-.7.546a.372.372,0,0,1-.474-.012l-1.864-1.623a.372.372,0,0,1-.082-.461l.628-1.136-1.082.735a.373.373,0,0,1-.495-.068l-1.84-2.188A.363.363,0,0,1,86.492,625.736Z" transform="translate(-76.941 -616.268)" fill="#f1393b"/></g><g transform="translate(72.478 82.613)"><path d="M174.214,702.032,157.2,685.651l-2.578,3.173,2.505,3.276-3.835-1.28-1.506,2.489,3.218,2.88-4.231-1.053L149.7,697.76l3.779,3.253-4.244-.972-.4,3.174,20.332,7.408Z" transform="translate(-148.831 -685.651)" fill="#ffed00"/><path d="M171.8,711.432l-11.653-3.391,1.009-4.254,3.782.768-3.081-2.221,2.267-3.236,3.07,1.623-1.675-3.406,2.657-1.924,8.475,8.674Z" transform="translate(-148.837 -685.651)" fill="#690bd6"/><path d="M159.189,700.172a.369.369,0,0,1-.235.016l-2.155-.555-.375,1.128a.372.372,0,1,1-.707-.235l.484-1.458a.373.373,0,0,1,.447-.244l.727.188-.823-.633a.374.374,0,0,1-.106-.463l1.173-2.334a.371.371,0,0,1,.427-.193l1.411.367-1.1-.975a.372.372,0,0,1-.056-.5l1.756-2.457a.374.374,0,0,1,.538-.073l3.081,2.5a.373.373,0,0,1-.469.58l-2.775-2.249-1.331,1.861,2.016,1.785a.372.372,0,0,1-.341.639l-2.627-.683-.9,1.789,2.024,1.557a.373.373,0,0,1-.085.64Z" transform="translate(-148.834 -685.651)" fill="#e2cc00"/></g><path d="M149.578,620.347c-2.4-3.038-8.521-3.947-15.9-3.737l-.1,5.894,6.523-.6-5.2,4.7,3.286,4.626,5.025-3.692-1.165,6.664,4.846,1.742C150.034,629.9,152.132,623.584,149.578,620.347Z" transform="translate(-76.345 -603.038)" fill="#f1393b"/><path d="M120.81,625.266a.373.373,0,0,1,.5-.542l2.253,1.525,3.1-3.522a.372.372,0,0,1,.63.372l-1.636,4.569,2.61,1.767,3.506-3.756a.373.373,0,0,1,.545.509l-3.724,3.988a.372.372,0,0,1-.481.054L125,628.124a.374.374,0,0,1-.142-.435l1.077-3.009-2.032,2.308a.373.373,0,0,1-.489.063l-2.525-1.71A.368.368,0,0,1,120.81,625.266Z" transform="translate(-76.339 -603.038)" fill="#5200a9"/><path d="M115.672,659.865l-.023-.026-2.248-2.855a.372.372,0,0,1,.014-.478l2.5-2.812a.373.373,0,0,1,.557.5l-2.293,2.578,1.851,2.35,3.212-1.958a.372.372,0,0,1,.529.481l-1.587,3.253,2.619,1.869,2.486-2.634a.372.372,0,0,1,.637.322l-.745,4.125a.373.373,0,0,1-.734-.132l.523-2.892-1.848,1.959a.374.374,0,0,1-.488.047l-3.139-2.241a.373.373,0,0,1-.119-.467l1.167-2.391-2.407,1.467A.372.372,0,0,1,115.672,659.865Z" transform="translate(-76.335 -603.038)" fill="#f1393b"/><g transform="translate(51.242 101.002)"><path d="M127.957,711.111l2.314,3.006,4.077-1.914-1.176-3.938,3.422,2.309,3.173-2.515-1.782-3.646,4.449,1.378" transform="translate(-127.584 -704.04)" fill="#690bd6"/><path d="M130.413,714.461a.373.373,0,0,1-.438-.117l-2.314-3.006a.373.373,0,1,1,.591-.455l2.131,2.769L133.9,712l-1.084-3.63a.373.373,0,0,1,.566-.416l3.2,2.157,2.725-2.159-1.65-3.377a.373.373,0,0,1,.445-.519l4.449,1.378a.373.373,0,0,1-.22.712l-3.626-1.123,1.4,2.871a.373.373,0,0,1-.1.456l-3.173,2.514a.372.372,0,0,1-.44.017l-2.558-1.726.878,2.94a.373.373,0,0,1-.2.444l-4.076,1.914Z" transform="translate(-127.584 -704.04)" fill="#5200a9"/></g><g transform="translate(32.593 112.469)"><path d="M122.96,739.242l5.33-23.013-4.045-.587-1.526,3.832-.869-3.951-2.908-.017-.821,4.241-1.266-4.174-2.8.421-.853,4.914-1.343-4.144-2.93,1.282L113,739.309Z" transform="translate(-108.926 -715.507)" fill="#ffed00"/><path d="M113.656,741.988l-3.067-11.747,4.167-1.315,1.281,3.642.326-3.785,3.94.287.182,3.469,2.063-3.186,3.013,1.3-3.1,11.728Z" transform="translate(-108.927 -715.507)" fill="#690bd6"/><path d="M124,726.491a.379.379,0,0,1-.2.024.373.373,0,0,1-.316-.422l.507-3.536-2.28-.189-.5,2.647a.372.372,0,0,1-.724.035l-.762-2.606-2,.145-.3,2.537a.373.373,0,0,1-.728.061l-.629-2.136-1.159.257a.373.373,0,0,1-.161-.728l1.5-.332a.373.373,0,0,1,.438.259l.212.721.121-1.032a.372.372,0,0,1,.344-.328l2.6-.19a.373.373,0,0,1,.384.268l.41,1.4.271-1.447a.372.372,0,0,1,.4-.3l3.01.248a.372.372,0,0,1,.338.425l-.563,3.928A.374.374,0,0,1,124,726.491Z" transform="translate(-108.929 -715.507)" fill="#e2cc00"/></g><g transform="translate(43.995 66.992)"><path d="M123.971,670.4l-3.265,4.909,3.37,2.456,3.743-2.966-1.116,3.852,5.465,1.682,2.332-3.752.428,4.273,5.2.332,1.056-4.221,1.674,4.216,4.852-.579" transform="translate(-120.333 -670.03)" fill="#690bd6"/><path d="M126.593,679.01a.373.373,0,0,1-.248-.46l.792-2.732-2.83,2.242a.372.372,0,0,1-.451.009l-3.369-2.456a.372.372,0,0,1-.091-.508l3.264-4.909a.373.373,0,0,1,.621.413l-3.067,4.612,2.853,2.079,3.521-2.79a.372.372,0,0,1,.589.4l-1.013,3.5L132,679.9l2.18-3.509a.373.373,0,0,1,.4-.166.369.369,0,0,1,.286.326l.4,3.959,4.576.292.98-3.92a.373.373,0,0,1,.337-.281.369.369,0,0,1,.371.234l1.568,3.949,4.568-.545a.373.373,0,0,1,.088.74l-4.852.579a.373.373,0,0,1-.391-.232l-1.246-3.141-.776,3.1a.373.373,0,0,1-.385.281l-5.2-.332a.372.372,0,0,1-.348-.334l-.319-3.185-1.754,2.823a.373.373,0,0,1-.426.16l-5.465-1.682Z" transform="translate(-120.333 -670.03)" fill="#5200a9"/></g><path d="M133.313,697.742a.371.371,0,0,1-.377-.054l-2.619-2.114a.373.373,0,0,1,.468-.58l2.4,1.939,3.106-2.14-.4-3.737a.372.372,0,0,1,.512-.384l3.926,1.619,3.235-2.5-1.433-3.67a.373.373,0,0,1,.538-.456l3.594,2.15,1.538-1.12a.372.372,0,1,1,.439.6l-1.737,1.266a.372.372,0,0,1-.411.018l-2.872-1.717,1.139,2.916a.374.374,0,0,1-.12.431l-3.626,2.8a.376.376,0,0,1-.37.05L136.7,691.6l.356,3.335a.369.369,0,0,1-.159.346l-3.517,2.424A.386.386,0,0,1,133.313,697.742Z" transform="translate(-76.343 -603.038)" fill="#e2cc00"/><path d="M103.839,705.715a5.394,5.394,0,0,0-4.086-.54A5.064,5.064,0,0,0,96.61,707.6,6.216,6.216,0,0,0,96,711.649a10.578,10.578,0,0,0,.572,2.159c.056.179.146.354.217.532s.142.355.234.528l.552,1.106a35.387,35.387,0,0,1,2.152,5.045,20.229,20.229,0,0,1,.72,2.789,12.554,12.554,0,0,1,.19,3.1,8.028,8.028,0,0,1-.975,3.4,6.866,6.866,0,0,1-.54.8c-.1.127-.2.259-.309.377l-.341.351a7.017,7.017,0,0,1-1.545,1.124,8.412,8.412,0,0,1-.833.4c-.279.1-.563.213-.843.284a9.8,9.8,0,0,1-1.673.326,12.279,12.279,0,0,1-3.243-.091l.917-4.884a5.949,5.949,0,0,0,3.555-.151,2.358,2.358,0,0,0,1.022-.827,3.619,3.619,0,0,0,.53-1.527,8.28,8.28,0,0,0,0-2.076,16,16,0,0,0-.434-2.27,31.752,31.752,0,0,0-1.632-4.617l-.528-1.256c-.1-.217-.168-.45-.25-.676s-.166-.45-.227-.688a13.94,13.94,0,0,1-.564-2.9,10.418,10.418,0,0,1,.172-3.05,8.5,8.5,0,0,1,1.2-2.9A8.025,8.025,0,0,1,96.3,703.8a7.9,7.9,0,0,1,8.762-.029Z" transform="translate(-76.324 -603.038)" fill="#690bd6"/><g transform="translate(33.352 28.662)"><path d="M121.477,646.489a7.9,7.9,0,1,1,2.99-10.773A7.9,7.9,0,0,1,121.477,646.489Z" transform="translate(-109.685 -631.701)" fill="#fff"/><path d="M116.186,633.944a4.962,4.962,0,0,0-2.309,5.742l4.749-1.424-2.337,4.374a4.959,4.959,0,1,0-.1-8.692Z" transform="translate(-109.687 -631.701)" fill="#690bd6"/></g></g></g></g><path d="M82.778,616.268l-12.845,8.221,4.533,3.193,6.263-2.247Z" transform="translate(24.141 -587.001)" fill="#690bd6"/><path d="M96.3,638.7l-4.137,5.345,3.643,4.113,3.942-.421-1.084,3.483,3.192,4.3,5.319-1.948Z" transform="translate(24.13 -587.001)" fill="#690bd6"/><path d="M112.151,662.57l-3.428,4.792,2.837,3.959,5.674-2.582Z" transform="translate(24.122 -587.001)" fill="#f45e60"/><ellipse cx="45.226" cy="45.248" rx="45.226" ry="45.248" transform="translate(91.874)" fill="none" stroke="#fff" stroke-linecap="round" stroke-linejoin="round" stroke-width="2"/><path d="M145.932,632.249a32.959,32.959,0,0,0-32.951-32.967" transform="translate(24.12 -587.001)" fill="none" stroke="#fff" stroke-linecap="round" stroke-linejoin="round" stroke-width="2"/></g></g></svg>