<?xml version="1.0" encoding="utf-8"?>
<!-- Generator: Adobe Illustrator 26.0.1, SVG Export Plug-In . SVG Version: 6.00 Build 0)  -->
<svg version="1.1" id="Layer_1" xmlns="http://www.w3.org/2000/svg" xmlns:xlink="http://www.w3.org/1999/xlink" x="0px" y="0px"
	 viewBox="0 0 382.8 279.7" style="enable-background:new 0 0 382.8 279.7;" xml:space="preserve">
<style type="text/css">
	.st0{clip-path:url(#SVGID_00000003093616383008656110000006417398457155712646_);}
	.st1{fill:#690BD6;}
	.st2{fill:#5200A9;}
	.st3{fill:#3B0084;}
	.st4{fill:#FFFFFF;}
	.st5{fill:#7CD36A;}
	.st6{fill:#070117;}
	.st7{fill:#7CAB6A;}
	.st8{fill:#7CD36A;stroke:#7CAB6A;stroke-linecap:round;stroke-linejoin:round;}
	.st9{fill:#6431A1;}
	.st10{fill:none;stroke:#4A0897;stroke-width:2;stroke-linecap:round;stroke-linejoin:round;}
	.st11{fill:#4A0897;}
	.st12{fill:#00D1D8;}
	.st13{fill:#00FFFF;}
	.st14{fill:#FF6300;}
	.st15{fill:#D63B00;}
	.st16{fill:none;stroke:#00D1D8;stroke-width:7;stroke-linecap:round;stroke-linejoin:round;}
	.st17{fill:none;stroke:#070117;stroke-width:4;stroke-linecap:round;stroke-linejoin:round;}
	.st18{fill:#FFFFFF;stroke:#FF6300;stroke-width:7;stroke-miterlimit:10;}
	.st19{fill:#8C44E0;}
	.st20{fill:none;stroke:#690BD6;stroke-width:2;stroke-linecap:round;stroke-linejoin:round;}
	.st21{fill:none;stroke:#690BD6;stroke-width:2.0008;stroke-linecap:round;stroke-linejoin:round;stroke-miterlimit:4.0017;}
</style>
<g>
	<defs>
		<rect id="SVGID_1_" width="382.8" height="279.7"/>
	</defs>
	<clipPath id="SVGID_00000166653988285581020070000006605411526448270511_">
		<use xlink:href="#SVGID_1_"  style="overflow:visible;"/>
	</clipPath>
	<g style="clip-path:url(#SVGID_00000166653988285581020070000006605411526448270511_);">
		<g transform="translate(14.045 9.948)">
			<path class="st1" d="M309.7,6.3c0,0-30-12.8-78.4,13.7C186.9,44.4,154,35.4,154,35.4s5.3,25.9,42.3,43.4
				c-4.3,19.1-30.9,41.8-30.9,41.8s17,24.7,86.6-10.8c43.5-22.2,71.2-20.2,71.2-20.2L309.7,6.3z"/>
			<g transform="translate(209.705 23.085)">
				<circle class="st2" cx="37.4" cy="37.4" r="37.4"/>
				<circle class="st1" cx="37.4" cy="37.4" r="26.9"/>
				<path class="st3" d="M35.2,10.6c15.2,0.5,27.1,13.3,26.6,28.5c-0.3,9.4-5.5,18.1-13.6,22.8C61.7,55.8,67.8,40,61.8,26.4
					C57.2,16,46.5,9.6,35.2,10.6z"/>
				<circle class="st4" cx="44" cy="25.1" r="2.3"/>
				<circle class="st4" cx="30.5" cy="25.1" r="2.3"/>
				<path class="st4" d="M35.8,32.1c-0.3,0-0.5-0.1-0.8-0.2c-0.7-0.4-0.9-1.3-0.4-2c1.6-2.5,1.9-4.9,0.9-7.1
					C34.7,21,33.3,20,33.3,20c-0.7-0.5-0.8-1.4-0.3-2c0.5-0.7,1.4-0.8,2-0.3c0.1,0.1,1.9,1.4,3,3.7c1.1,2.2,1.8,5.7-1,10.1
					C36.7,31.8,36.3,32.1,35.8,32.1z"/>
				<path class="st4" d="M53.2,45.9c-0.5,0-1-0.3-1.3-0.8c-2.6-4.7-7.8-3.8-8.1-3.8c-0.8,0.2-1.6-0.4-1.7-1.2
					c-0.2-0.8,0.4-1.6,1.2-1.7c0.1,0,1.9-0.4,4.2,0.1c3.1,0.6,5.5,2.4,7,5.1c0.4,0.7,0.1,1.6-0.6,2C53.7,45.9,53.5,45.9,53.2,45.9z"
					/>
				<path class="st4" d="M39.8,36.4c-0.3,0-0.7-0.1-1-0.4c-0.6-0.5-0.7-1.5-0.1-2.1c0.1-0.1,1.6-1.8,4.3-2.9c2.5-1,6.5-1.7,11.5,0.7
					c0.7,0.4,1,1.2,0.7,2s-1.2,1-2,0.7c-7.6-3.7-12.3,1.4-12.3,1.4C40.6,36.2,40.2,36.4,39.8,36.4z"/>
				<g>
					<path class="st4" d="M41.4,45.3c-0.6-1.2-2.1-3.7-5.4-7.1c-4.9-5.2-8.9-6.7-8.9-6.7l-1.7,4C28.5,37.8,34.1,41.9,41.4,45.3z"/>
					<path class="st4" d="M33.4,49.6l5.1-2.1c-6.3-3.1-11.3-6.6-14.3-8.9l-1.8,4.2C25.1,44.7,28.8,47.2,33.4,49.6z"/>
					<path class="st4" d="M21.2,45.8l-1.7,4l3.9,3.9l6.1-2.5C26.2,49.3,23.3,47.4,21.2,45.8z"/>
				</g>
			</g>
			<path class="st5" d="M319.3,147.8l6.7-14.7l-0.7-10.2l4.4-0.6l2.9-5.8l10.8,13.8l-8.1,8.2l-6.3,15.1L319.3,147.8z"/>
			
				<rect x="327.8" y="-1.7" transform="matrix(0.9785 -0.2064 0.2064 0.9785 -15.4861 70.6677)" class="st6" width="6.3" height="222.5"/>
			<path class="st7" d="M331,123.2l7.3-7.3l9.5,16.8l-11.1,3.2L331,123.2z"/>
			<path class="st8" d="M326,133.1l-0.9-11.9l9.2-0.6l2.9,7.5c-2.4,1.7-6.5-4.3-6.5-4.3s2.5,7.2-1,11.8"/>
			<g transform="translate(79.243 128.878)">
				<path class="st9" d="M0.8,17l9.3-15.6c0.5-0.8,1.4-1,2.2-0.6l33.4,19.8c0.8,0.5,1,1.4,0.6,2.2L37,38.5c-0.5,0.8-1.4,1-2.2,0.6
					L1.4,19.3C0.6,18.8,0.4,17.8,0.8,17z"/>
				
					<rect x="16" y="2.7" transform="matrix(0.5113 -0.8594 0.8594 0.5113 -5.6607 29.9805)" class="st10" width="15.1" height="34.5"/>
				<g transform="translate(4.862 4.666)">
					<path class="st11" d="M12.2,2.7L7.7,0L5.1,4.5C7.6,5.9,10.7,5.1,12.2,2.7z"/>
					<path class="st11" d="M34.7,22.1l2.6-4.5L32.9,15C31.5,17.5,32.3,20.6,34.7,22.1z"/>
					<path class="st11" d="M32.3,26.2c-2.4-1.5-5.6-0.7-7,1.7c0,0,0,0.1-0.1,0.1l4.5,2.7L32.3,26.2z"/>
					<path class="st11" d="M2.6,8.5L0,13l4.5,2.6C5.9,13.1,5.1,9.9,2.6,8.5z"/>
				</g>
				<circle class="st11" cx="24.4" cy="20" r="4.5"/>
			</g>
			<g transform="translate(30.6 104.985)">
				<path class="st9" d="M35.9,38.2c-14.1-3.3-26.3-12-35.4-23.1c-0.6-0.7-0.6-1.8,0.1-2.5C5.8,7.7,8.5,5.3,13.8,0.4
					c0.5-0.6,1.3-0.6,1.8-0.2c0,0,0,0,0.1,0.1l0.1,0.1c6.9,8.8,16.5,15,27.3,17.8c0.7,0.2,1.1,1,0.9,1.7c0,0.1,0,0.1-0.1,0.1
					c-2.3,6.8-3.4,10.2-5.7,17C37.9,38,36.9,38.5,35.9,38.2z"/>
				<path class="st10" d="M34.7,34.6c-11.6-4.2-22-11-30.5-19.9L14.7,4.1c6.7,7.9,15.5,13.6,25.4,16.6L34.7,34.6z"/>
				<g transform="translate(4.201 4.145)">
					<path class="st11" d="M13.7,3.4c-1.1-1.1-2.2-2.2-3.2-3.4L6.9,3.6c1.6,1.8,4.4,2,6.2,0.4L13.7,3.4z"/>
					<path class="st11" d="M34.1,21.3c0.7-1.9,1.1-2.9,1.9-4.8c-1.5-0.4-3-0.9-4.4-1.5c-1.2,2.1-0.4,4.8,1.7,6c0,0,0.1,0,0.1,0
						C33.6,21.2,33.8,21.3,34.1,21.3z"/>
					<path class="st11" d="M32.4,25.7c-2.8-0.9-5.8,0.4-7.1,3c1.7,0.7,3.5,1.3,5.3,1.8C31.3,28.6,31.6,27.6,32.4,25.7z"/>
					<path class="st11" d="M3.6,6.9C2.2,8.4,1.4,9.1,0,10.6c1.2,1.4,2.5,2.8,3.8,4.1C5.6,12.4,5.6,9.1,3.6,6.9z"/>
				</g>
				<path class="st11" d="M26.7,22.8c-1.2,2.1-3.8,2.9-5.9,1.7c-2.1-1.1-2.9-3.7-1.8-5.8c0.1-0.2,0.2-0.3,0.3-0.5c1.3-2,4-2.6,6-1.3
					C27.3,18.2,27.9,20.8,26.7,22.8z"/>
			</g>
			<g transform="translate(37.591 152.312)">
				<path class="st9" d="M43.6,20.1c-13.1,6.4-28,7.4-42,4.5c-1-0.2-1.6-1-1.6-2c1-7.1,1.6-10.7,2.6-17.8C2.6,4,3.3,3.5,4,3.5
					c0,0,0,0,0.1,0h0.1C15.1,6,26.5,4.8,36.6,0.1c0.7-0.3,1.5,0.1,1.8,0.8V1c2.5,6.7,3.8,10.1,6.3,16.8C45,18.7,44.5,19.7,43.6,20.1
					z"/>
				<path class="st10" d="M40.4,18.1c-11.6,4.1-24,5.4-36.2,3.9L5.7,7.1C15.8,9,26.3,7.9,35.8,3.9C37.7,9.6,38.6,12.4,40.4,18.1z"/>
				<g transform="translate(4.237 3.87)">
					<path class="st11" d="M6.1,3.9C4.6,3.8,3,3.5,1.5,3.2C1.3,5.3,1.2,6.3,1,8.4c2.4,0.3,4.6-1.3,5-3.7C6.1,4.4,6.1,4.2,6.1,3.9z"
						/>
					<path class="st11" d="M33.2,4.9c-0.6-2-1-2.9-1.6-4.9c-1.4,0.6-2.9,1.2-4.4,1.6c0.5,2.4,2.8,4,5.2,3.5c0,0,0,0,0,0
						C32.7,5.1,32.9,5,33.2,4.9z"/>
					<path class="st11" d="M34.6,9.3c-2.7,1.1-4.3,3.9-3.7,6.8c1.8-0.6,3.5-1.2,5.2-1.9C35.6,12.3,35.3,11.3,34.6,9.3z"/>
					<path class="st11" d="M0.5,13c-0.2,2-0.3,3.1-0.5,5.1c1.8,0.4,3.7,0.6,5.5,0.8C5.5,16,3.4,13.5,0.5,13z"/>
				</g>
				<path class="st11" d="M26.8,14c0.5,2.4-1.1,4.7-3.4,5.1c-2.4,0.5-4.7-1.1-5.1-3.4c0,0,0-0.1,0-0.1c0-0.2-0.1-0.4-0.1-0.6
					c-0.3-2.3,1.3-4.5,3.6-4.8c0.1,0,0.1,0,0.2,0C24.3,10,26.4,11.6,26.8,14z"/>
			</g>
			<path class="st12" d="M257.3,198.1c0,0-40.5-4.8-40.8,13.7s5.5,34.1,21.4,36.7s28.7-20.1,28.7-20.1L257.3,198.1z"/>
			<path class="st12" d="M275.8,199.3l31.4-32l16-32.2l13.3,5.8L323,182.1l-25.7,35.6L275.8,199.3z"/>
			<path class="st6" d="M315.7,257.8c7.2,18-4.2,27.7-23.5,35.4s-39.1,10.4-46.3-7.6s2.6-38.9,21.9-46.5S308.5,239.8,315.7,257.8z"
				/>
			<path class="st13" d="M247.1,289.1c0,0,40.8-0.2,69.8-31.7c3.7-10.4-8.1-17.1-13.3-26.4c-9.4-16.5-14.9-39.4-25.1-35.1L235.9,212
				c-6.8,1.9-10.8,9-9,15.8c0,0.1,0,0.1,0.1,0.2l12.9,35.4C239.9,263.5,238.1,285.1,247.1,289.1z"/>
			<path class="st12" d="M274.9,200.4c-15.4-14.2-46.9,2.1-46.9,2.1l-1.6,4c0,0,9.7,27.9,44.1,11C285,210.4,278.8,204,274.9,200.4z"
				/>
			<path class="st5" d="M274.3,205.2c-7.1,13.5-29.4,12.4-29.4,12.4l-15.4-50l24.2-4.6L274.3,205.2z"/>
			<path class="st7" d="M242,208.3c8.2,1.9,20.2-1.7,31-5.9l-19.3-39.6l-24.2,4.6L242,208.3z"/>
			<path class="st5" d="M287.6,123.5c13.3,13.4,29.8,45.5-10.3,65.7s-70.5,22.7-81.6-6.4c-11.2-29.1,3.3-61.7,32.3-72.9
				c0,0,0,0,0.1,0C257.2,98.7,274.1,109.8,287.6,123.5z"/>
			<g transform="translate(124.077 159.155)">
				<path class="st14" d="M45.4,53.5l-13.2-4l-2.3-4.4l2.9-9.3l2.7,0.8L33,44.8l1.2,2.3l12,3.7L45.4,53.5z"/>
				<path class="st14" d="M60.9,66.3c-5.9,0.4-11.8,0.2-17.7-0.7l-0.8-3.5l3.2-2.1l-0.9-20L59,44.4C58.9,44.5,60.5,50.5,60.9,66.3z"
					/>
				<path class="st15" d="M58.9,44.5l-14.3-4.4l0.1,5l15.6,8.8C60,50.7,59.5,47.6,58.9,44.5z"/>
				<path class="st15" d="M22,1.5l-2.2-1.3c-0.6-0.4-1.5-0.2-1.9,0.4c0,0,0,0.1,0,0.1c-0.1,0.1-0.1,0.2-0.1,0.3l-1,3.4
					c-0.2,0.7,0.2,1.5,0.9,1.8L20,6.9c0.7,0.2,1.5-0.2,1.8-0.9l0,0l0.9-2.8C22.9,2.5,22.6,1.8,22,1.5z"/>
				<path class="st14" d="M67.4,50.7l-64.6-20c-2-0.6-3.2-2.7-2.7-4.7c0-0.1,0-0.1,0.1-0.2l6.4-21c0.6-2,2.7-3.2,4.7-2.7
					c0.1,0,0.1,0,0.2,0.1l0,0l62,19.2c1.9,0.6,3.1,2.5,2.7,4.5l-3.8,21.8c-0.4,2.1-2.4,3.6-4.6,3.2C67.7,50.8,67.6,50.7,67.4,50.7z"
					/>
				<path class="st5" d="M72.2,65.3l-8.3-10.7c0,0-12.1-3.7-12.2-0.6c-0.1,5.3,7,3.7,7,3.7c-1.1,2.1-1.4,4.5-1,6.8
					c0.8,3.5,5.1,7.8,5.1,7.8L72.2,65.3z"/>
				<path class="st5" d="M41.5,43.4l4.1,1.1c1.2,0.3,2,1.6,1.7,2.8l-0.1,0.2c-0.3,1.2-1.6,2-2.8,1.7l-4.1-1.1
					c-1.2-0.3-2-1.6-1.7-2.8l0.1-0.2C39,43.9,40.2,43.1,41.5,43.4C41.5,43.4,41.5,43.4,41.5,43.4z"/>
				<path class="st5" d="M43.6,52.6l4.1,1.1c1.2,0.3,2,1.6,1.7,2.8l-0.1,0.2c-0.3,1.2-1.6,2-2.8,1.7l-4.1-1.1
					c-1.2-0.3-2-1.6-1.7-2.8l0.1-0.2c0.2-1.2,1.3-2,2.5-1.8C43.4,52.6,43.5,52.6,43.6,52.6z"/>
				<path class="st5" d="M44.1,57l4.1,1.1c1.2,0.3,2,1.6,1.7,2.8l-0.1,0.2c-0.3,1.2-1.6,2-2.8,1.7l-4.1-1.1c-1.2-0.3-2-1.6-1.7-2.8
					l0.1-0.2c0.2-1.2,1.4-2,2.6-1.7C44,57,44,57,44.1,57z"/>
			</g>
			<path class="st13" d="M231.3,214.4c0,0,1.9,3.4,7.5,8.6c18.9,17.2-21.3,40.9-21.3,40.9l-6.1-3.2l-27.3-30.3l10.8-9.7l22.3,20.1
				C217.3,240.7,223.4,217.9,231.3,214.4z"/>
			<circle class="st5" cx="233.9" cy="111.2" r="11.5"/>
			<circle class="st5" cx="256.5" cy="106" r="11.5"/>
			<path class="st16" d="M271.1,214.4c12.8,17.4,23.1,36.4,30.6,56.7"/>
			<path class="st17" d="M233.2,112.1c-0.3-1.7,0.8-3.4,2.5-3.8c1.7-0.3,3.4,0.8,3.8,2.5v0.1"/>
			<path class="st17" d="M257.4,107.4c-0.3-1.7,0.8-3.4,2.5-3.8c1.7-0.3,3.4,0.8,3.8,2.5v0.1"/>
			<path class="st17" d="M235.5,95.7c-3.2-0.6-6.5,0.8-8.3,3.5"/>
			<path class="st17" d="M253.1,90.3c0,0,6.3-2.4,9.8,2"/>
			<path class="st18" d="M267,120.8c-31.3,14.3-46.9-0.7-54.3,12.6c-9.3,16.9,6,40.9,44.3,27.6C296.4,147.3,286.4,111.9,267,120.8z"
				/>
			<path class="st17" d="M261.7,139.5c-17.5,6.4-47.6,5-47.6,5"/>
			<g transform="translate(80.359 148.139)">
				<path class="st19" d="M0.5,19L5.8,1.6c0.3-0.8,1.1-1.3,2-1.1l37.1,11.4c0.8,0.3,1.3,1.1,1.1,2l-5.3,17.4c-0.3,0.8-1.1,1.3-2,1.1
					L1.6,21C0.8,20.8,0.3,19.9,0.5,19C0.5,19,0.5,19,0.5,19z"/>
				
					<rect x="15.6" y="-0.9" transform="matrix(0.2926 -0.9562 0.9562 0.2926 0.7271 33.7686)" class="st20" width="15.1" height="34.5"/>
				<g transform="translate(4.529 4.153)">
					<path class="st1" d="M9.4,1.5L4.4,0L2.9,5C5.7,5.8,8.5,4.2,9.4,1.5z"/>
					<path class="st1" d="M35.9,15.1l1.5-5l-5-1.5C31.6,11.4,33.2,14.2,35.9,15.1z"/>
					<path class="st1" d="M34.5,19.6c-2.7-0.8-5.6,0.7-6.5,3.4l5,1.5L34.5,19.6z"/>
					<path class="st1" d="M1.5,9.4l-1.5,5l5,1.5C5.8,13.1,4.2,10.3,1.5,9.4z"/>
				</g>
				<circle class="st1" cx="24" cy="16.2" r="4.5"/>
			</g>
			<g transform="translate(80.359 148.139)">
				<path class="st19" d="M0.5,19L5.8,1.6c0.3-0.8,1.1-1.3,2-1.1l37.1,11.4c0.8,0.3,1.3,1.1,1.1,2l-5.3,17.4c-0.3,0.8-1.1,1.3-2,1.1
					L1.6,21C0.8,20.8,0.3,19.9,0.5,19C0.5,19,0.5,19,0.5,19z"/>
				
					<rect x="15.6" y="-0.9" transform="matrix(0.2926 -0.9562 0.9562 0.2926 0.7271 33.7686)" class="st20" width="15.1" height="34.5"/>
				<g transform="translate(4.529 4.153)">
					<path class="st1" d="M9.4,1.5L4.4,0L2.9,5C5.7,5.8,8.5,4.2,9.4,1.5z"/>
					<path class="st1" d="M35.9,15.1l1.5-5l-5-1.5C31.6,11.4,33.2,14.2,35.9,15.1z"/>
					<path class="st1" d="M34.5,19.6c-2.7-0.8-5.6,0.7-6.5,3.4l5,1.5L34.5,19.6z"/>
					<path class="st1" d="M1.5,9.4l-1.5,5l5,1.5C5.8,13.1,4.2,10.3,1.5,9.4z"/>
				</g>
				<circle class="st1" cx="24" cy="16.2" r="4.5"/>
			</g>
			<g transform="translate(0 162.399)">
				<path class="st19" d="M0.9,3.9l21.3-3.8c0.5-0.1,1,0.2,1.1,0.7c0,0,0,0,0,0l1.8,10c0.1,0.5-0.2,1-0.7,1.1c0,0,0,0,0,0L3,15.7
					c-0.5,0.1-1-0.2-1.1-0.7c0,0,0,0,0,0L0.2,5C0.1,4.5,0.4,4,0.9,3.9C0.9,3.9,0.9,3.9,0.9,3.9z"/>
				<rect x="3" y="3.7" transform="matrix(0.9846 -0.1749 0.1749 0.9846 -1.1854 2.3338)" class="st21" width="19.3" height="8.4"/>
				<g transform="translate(2.38 2.123)">
					<path class="st1" d="M2.9,2.9L0,3.4l0.5,2.9C2,5.9,3.1,4.5,2.9,2.9z"/>
					<path class="st1" d="M19.5,2.9L19,0l-2.9,0.5C16.4,2.1,17.9,3.1,19.5,2.9z"/>
					<path class="st1" d="M20,5.4c-1.6,0.3-2.6,1.8-2.3,3.3c0,0,0,0,0,0.1l2.9-0.5L20,5.4z"/>
					<path class="st1" d="M1,8.8l0.5,2.9l2.9-0.5C4.1,9.6,2.6,8.6,1,8.8z"/>
				</g>
				<circle class="st1" cx="13" cy="7.7" r="2.5"/>
			</g>
			<g transform="translate(80.452 181.202)">
				<path class="st19" d="M0.6,16.1L15.9,0.7c0.3-0.4,0.8-0.4,1.2-0.1c0,0,0.1,0.1,0.1,0.1l7.2,7.1c0.4,0.3,0.4,0.8,0.1,1.2
					c0,0-0.1,0.1-0.1,0.1L9.2,24.5c-0.3,0.4-0.8,0.4-1.2,0.1c0,0-0.1-0.1-0.1-0.1l-7.2-7.1C0.3,17.1,0.3,16.5,0.6,16.1z"/>
				
					<rect x="2.9" y="8.4" transform="matrix(0.7023 -0.7119 0.7119 0.7023 -5.2096 12.6804)" class="st20" width="19.3" height="8.4"/>
				<g transform="translate(2.744 2.749)">
					<path class="st1" d="M2,11.7l-2,2.1l2.1,2C3.2,14.7,3.2,12.9,2,11.7C2,11.7,2,11.7,2,11.7z"/>
					<path class="st1" d="M15.6,2l-2.1-2l-2,2.1C12.6,3.2,14.4,3.2,15.6,2C15.6,2,15.6,2,15.6,2z"/>
					<path class="st1" d="M17.5,3.9c-1.1,1.1-1.1,3,0,4.1l2-2.1L17.5,3.9z"/>
					<path class="st1" d="M3.9,17.6l2.1,2l2-2.1C6.8,16.5,5,16.5,3.9,17.6z"/>
				</g>
				<circle class="st1" cx="12.6" cy="12.1" r="2.5"/>
			</g>
			<g transform="translate(34.366 130.96)">
				<path class="st19" d="M0.1,13L1.7,1c0.1-0.6,0.6-1,1.1-0.9c0,0,0,0,0.1,0l25.5,3.4c0.6,0.1,1,0.6,0.9,1.1c0,0,0,0,0,0.1l-1.6,12
					c-0.1,0.6-0.6,1-1.1,0.9c0,0,0,0-0.1,0L1.1,14.3C0.5,14.2,0.1,13.6,0.1,13z"/>
				
					<rect x="9.7" y="-2.6" transform="matrix(0.1303 -0.9915 0.9915 0.1303 4.0588 22.3022)" class="st20" width="10" height="22.9"/>
				<g transform="translate(2.75 2.425)">
					<path class="st1" d="M4.7,0.4L1.3,0L0.9,3.4C2.8,3.6,4.5,2.3,4.7,0.4C4.7,0.5,4.7,0.4,4.7,0.4z"/>
					<path class="st1" d="M23.6,6.4L24,3l-3.4-0.4C20.4,4.5,21.7,6.2,23.6,6.4z"/>
					<path class="st1" d="M23.2,9.5c-1.9-0.2-3.6,1.1-3.9,3l3.4,0.4L23.2,9.5z"/>
					<path class="st1" d="M0.4,6.5L0,9.9l3.4,0.4C3.6,8.4,2.3,6.7,0.4,6.5z"/>
				</g>
				<circle class="st1" cx="15.3" cy="8.7" r="3"/>
			</g>
			<g transform="translate(77.563 104.037)">
				<path class="st19" d="M28,42.6C15.3,35.5,5.9,23.8,0.2,10.7C-0.2,9.8,0.1,8.8,1,8.3l16-8.1c0.6-0.4,1.5-0.2,1.9,0.5c0,0,0,0,0,0
					c0,0.1,0,0.1,0.1,0.1l0,0c4.3,10.3,11.8,18.9,21.4,24.5c0.6,0.4,0.8,1.3,0.4,1.9l-0.1,0.1L30.5,42.1
					C29.9,42.9,28.8,43.1,28,42.6z"/>
				<path class="st20" d="M27.8,38.8c-10-7.2-18.2-16.6-24-27.4l13-7.3c4.3,9.4,11.2,17.3,19.9,22.8L27.8,38.8z"/>
				<g transform="translate(3.872 4.022)">
					<path class="st1" d="M15.1,4.1C14.4,2.8,13.6,1.4,13,0L8.5,2.5c1.1,2.2,3.7,3.1,5.8,2c0,0,0,0,0.1,0
						C14.7,4.4,14.9,4.3,15.1,4.1z"/>
					<path class="st1" d="M29.9,26.9c1.2-1.6,1.9-2.5,3.1-4.1c-1.3-0.8-2.6-1.7-3.8-2.6c-1.7,1.7-1.7,4.4,0,6.1c0,0,0.1,0.1,0.1,0.1
						C29.4,26.6,29.6,26.8,29.9,26.9z"/>
					<path class="st1" d="M27,30.7c-2.4-1.6-5.7-1.2-7.7,0.9c1.5,1.1,3,2.2,4.6,3.2L27,30.7z"/>
					<path class="st1" d="M4.5,4.8L0,7.3c0.8,1.7,1.6,3.4,2.5,5C4.9,10.6,5.7,7.5,4.5,4.8z"/>
				</g>
				<path class="st1" d="M23.3,25.3c-1.7,1.7-4.5,1.7-6.2,0c-1.7-1.7-1.7-4.4-0.1-6.1c0.1-0.2,0.3-0.3,0.5-0.4
					c1.8-1.6,4.5-1.4,6.1,0.4c0,0,0,0,0,0C25.2,21,25,23.7,23.3,25.3z"/>
			</g>
			<g transform="translate(36.714 163.185)">
				<path class="st19" d="M0.4,25.8C8.2,13.6,20.5,5,34,0.1c0.9-0.3,1.9,0.1,2.4,0.9l7,16.6c0.3,0.7,0.1,1.5-0.6,1.9
					c-0.1,0-0.1,0-0.1,0.1C32.1,23.1,23,30,16.7,39.2c-0.5,0.6-1.3,0.7-1.9,0.3l-0.1-0.1C9.1,35,6.2,32.7,0.6,28.3
					C-0.1,27.6-0.2,26.6,0.4,25.8z"/>
				<path class="st20" d="M4.1,25.9c7.9-9.5,17.8-17,29-22.1l6.4,13.5c-9.7,3.6-18.1,10-24.1,18.4L4.1,25.9z"/>
				<g transform="translate(4.129 3.774)">
					<path class="st1" d="M31.1,15.3c1.4-0.7,2.8-1.3,4.3-1.8l-2.2-4.6c-2.3,0.9-3.3,3.5-2.4,5.8c0,0,0,0,0,0
						C30.9,14.9,31,15.1,31.1,15.3z"/>
					<path class="st1" d="M7.4,28.5l3.9,3.4c0.9-1.3,1.9-2.5,2.9-3.6c-1.6-1.8-4.3-2-6.1-0.4C8.1,27.9,8,28,8,28
						C7.8,28.1,7.6,28.3,7.4,28.5z"/>
					<path class="st1" d="M3.9,25.4c1.8-2.3,1.6-5.6-0.4-7.7c-1.2,1.4-2.4,2.9-3.5,4.4C1.6,23.4,2.3,24.1,3.9,25.4z"/>
					<path class="st1" d="M31.2,4.6L29,0c-1.7,0.6-3.4,1.4-5.1,2.2C25.4,4.7,28.5,5.7,31.2,4.6z"/>
				</g>
				<path class="st1" d="M17.9,22.2c-1.6-1.8-1.5-4.6,0.3-6.2c1.8-1.6,4.6-1.5,6.2,0.3c0.1,0.1,0.2,0.3,0.4,0.5
					c1.5,1.9,1.1,4.7-0.8,6.1C22.1,24.4,19.4,24.1,17.9,22.2z"/>
			</g>
		</g>
	</g>
</g>
</svg>
