<svg xmlns="http://www.w3.org/2000/svg" xmlns:xlink="http://www.w3.org/1999/xlink" width="467" height="486" viewBox="0 0 467 486"><defs><clipPath id="a"><path d="M278.02,219.732l92.029-18.561L336.025,142.83,272.939,210.2Z" fill="none"/></clipPath></defs><g transform="translate(0)"><rect width="467" height="486" transform="translate(0)" fill="none"/><g transform="translate(0)"><circle cx="104.281" cy="104.281" r="104.281" transform="translate(15.806 212.678)" fill="#ffed00"/><circle cx="54.819" cy="54.819" r="54.819" transform="translate(252.382 9.955)" fill="aqua"/><circle cx="41.348" cy="41.348" r="41.348" transform="translate(346.095 284.529)" fill="#ff6300"/></g><g transform="translate(0)"><path d="M98,180.728l-2.721-16.919s9.136-7.242,9.511-11.438-7.514-1.322-7.514-1.322,8.775-20.813-9.947-24.439S67.3,157.343,80.816,164.579l2.522,21.257Z" fill="#ffede2"/><line x1="4.664" y2="22.411" transform="translate(91.331 131.004)" fill="none" stroke="#ffcaa7" stroke-linecap="round" stroke-linejoin="round" stroke-width="3"/><line x1="0.329" y2="24.259" transform="translate(83.303 126.392)" fill="none" stroke="#ffcaa7" stroke-linecap="round" stroke-linejoin="round" stroke-width="3"/><path d="M345.839,245.584l-9.371-21.056-18.718-8.9,5.645-11.792L313.873,168.9a2.446,2.446,0,0,1,2.459-3.088h0a2.447,2.447,0,0,1,2.1,1.369l10.225,20.873,19.852-.781,3.615,19.889-3.685,8.386,12.823,19.508Z" fill="#ffede2"/><path d="M253.8,289.8c39.413-30.175,108.432,6.251,108.432,6.251l-25.96-67.531,19.5-6.182,55.791,91.923-7.429,16.624L270.73,326.238Z" fill="#00c2ff"/><path d="M333.133,409.306a25.366,25.366,0,0,0,14.7-33.907c-15.1-34.965-33.072-71.731-38.761-79.488a39.1,39.1,0,0,0-37.886-15.456l-9.921,1.634s-20.423,87.123-27.364,163Z" fill="aqua"/><path d="M310.639,385.563c1.376,38.438-19.954,48.654-51.667,49.789s-61.8-7.242-63.174-45.68,23.218-70.519,54.931-71.653S309.264,347.125,310.639,385.563Z" fill="#070117"/><path d="M189.9,402.319l23.477,83.346,58.2.121-13.393-80.3Z" fill="#070117"/><path d="M263.594,410.442,308.3,485.665l58.992.121-55.943-116.15Z" fill="#070117"/><path d="M195.092,400.8s66.073,2.3,127.4-17.471c-5.531-36.014-16.21-63.024-24.971-80.389A35.043,35.043,0,0,0,260,284.225l-65.9,11.907Z" fill="#690bd6"/><path d="M271.374,288.323c-16.954,18.212-52.4,10.329-52.4,10.329l-3.351-93.644,40.158,2.933Z" fill="#ffede2"/><path d="M218.312,280.1c15.306,1.037,32.468.449,51.172-1.527l-13.7-70.636-40.158-2.933Z" fill="#ffcaa7"/><path d="M217.412,134.161S203.506,65.5,254.835,41.119c41.621-19.77,77.124,25.064,67.324,45.222-15.674,32.243-46.005-.5-46.005-.5s-31.932,26-37.088,71.123Z" fill="#ffede2"/><path d="M276.154,85.845a50.683,50.683,0,0,1-11.675-22.3" fill="none" stroke="#ffcaa7" stroke-linecap="round" stroke-miterlimit="10" stroke-width="3"/><path d="M299.433,172.043c16.3,23.922,32.112,76.744-33.778,95.847s-112.31,14.395-121-32.416a86.205,86.205,0,0,1,69.028-100.487C260.5,126.3,282.925,147.819,299.433,172.043Z" fill="#ffede2"/><path d="M202.672,162.269S115.119,141.428,78.5,86.816,105.1.674,142.589,56.574s66.743,78.144,66.743,78.144Z" fill="#ffede2"/><path d="M202.935,152.214s-.445-40.108,13.3-41.846c9.5-1.2,9.385,14.793,9.385,14.793s12.424-28.856,24.594-25.637c12.543,3.318,1.985,23.7,1.985,23.7s18.118-8.609,22.11,2.291c3.057,8.346-28.9,16.716-28.9,16.716" fill="#ffede2"/><path d="M216.239,110.368c9.5-1.2,9.385,14.793,9.385,14.793s12.424-28.856,24.594-25.637c12.543,3.318,1.985,23.7,1.985,23.7" fill="none" stroke="#ffcaa7" stroke-linecap="round" stroke-linejoin="round" stroke-width="3"/><path d="M270.021,132.847A119.146,119.146,0,0,1,234.878,144.6" fill="none" stroke="#ffcaa7" stroke-linecap="round" stroke-miterlimit="10" stroke-width="3"/><path d="M277.823,219.73l92.226-18.558L336.025,142.83l-63.2,67.524Z" fill="aqua"/><g clip-path="url(#a)"><path d="M296.081,139.174s37.205,27.105,96.433,33.609" fill="none" stroke="#ffed00" stroke-miterlimit="10" stroke-width="8"/><path d="M287.177,149.946s37.2,27.1,96.432,33.608" fill="none" stroke="#ffed00" stroke-miterlimit="10" stroke-width="8"/><path d="M278.272,160.717s37.2,27.105,96.433,33.609" fill="none" stroke="#ffed00" stroke-miterlimit="10" stroke-width="8"/><path d="M269.368,171.489s37.2,27.1,96.432,33.608" fill="none" stroke="#ffed00" stroke-miterlimit="10" stroke-width="8"/><path d="M260.463,182.26s37.206,27.105,96.433,33.609" fill="none" stroke="#ffed00" stroke-miterlimit="10" stroke-width="8"/><path d="M251.559,193.032s37.205,27.1,96.433,33.608" fill="none" stroke="#ffed00" stroke-miterlimit="10" stroke-width="8"/></g><ellipse cx="10.996" cy="33.769" rx="10.996" ry="33.769" transform="translate(327.29 147.924) rotate(-30.25)"/><path d="M368.376,149.689c2.519-4.862,6.481-9.068,11.762-10.515,7.968-2.183,14.073,3.691,23.594-.292,7.316-3.06,11.754-10.537,14.258-18.061" fill="none" stroke="#ffed00" stroke-linecap="round" stroke-miterlimit="10" stroke-width="4"/><path d="M351.468,136.3c2.147-.424,4.423-.913,5.991-2.44,1.733-1.686,2.21-4.26,2.431-6.668a21.941,21.941,0,0,0,.084-3.766c-.085-1.067-.294-2.124-.306-3.194-.051-4.31,3.151-8.13,7-10.075" fill="none" stroke="#ff6300" stroke-linecap="round" stroke-miterlimit="10" stroke-width="4"/><path d="M423.029,189.452a14.677,14.677,0,0,0-11.25-5.042,18.753,18.753,0,0,0-11.679,4.42c-1.17.963-2.243,2.05-3.5,2.9a11.9,11.9,0,0,1-15.129-1.973" fill="none" stroke="#ff6300" stroke-linecap="round" stroke-miterlimit="10" stroke-width="4"/><line y1="35.715" x2="40.943" transform="translate(377.132 89.381)" fill="none" stroke="aqua" stroke-linecap="round" stroke-miterlimit="10" stroke-width="4"/><line y1="25.719" x2="20.127" transform="translate(392.188 51.661)" fill="none" stroke="#ffed00" stroke-linecap="round" stroke-miterlimit="10" stroke-width="4"/><line y1="8.039" x2="44.536" transform="translate(406.867 155.978)" fill="none" stroke="#fff" stroke-linecap="round" stroke-miterlimit="10" stroke-width="4"/><circle cx="6.502" cy="6.502" r="6.502" transform="translate(377.794 160.719)" fill="none" stroke="aqua" stroke-linecap="round" stroke-miterlimit="10" stroke-width="4"/><circle cx="9.218" cy="9.218" r="9.218" transform="translate(435.683 68.162)" fill="none" stroke="#ff6300" stroke-linecap="round" stroke-miterlimit="10" stroke-width="4"/><circle cx="4.598" cy="4.598" r="4.598" transform="translate(368.684 92.788)" fill="none" stroke="#fff" stroke-linecap="round" stroke-miterlimit="10" stroke-width="4"/><circle cx="4.598" cy="4.598" r="4.598" transform="translate(349.203 164.018)" fill="none" stroke="#fff" stroke-linecap="round" stroke-miterlimit="10" stroke-width="4"/><path d="M217.522,168.544s2.892-8.705,11.985-8.851" fill="none" stroke="#070117" stroke-linecap="round" stroke-miterlimit="10" stroke-width="5"/><path d="M257.837,150.956s7.895-4.668,14.851,1.191" fill="none" stroke="#070117" stroke-linecap="round" stroke-miterlimit="10" stroke-width="5"/><path d="M250.808,200.9l12.175,5.195a1.272,1.272,0,0,0,1.511-.4l7.538-9.822a1.28,1.28,0,0,0-1.078-2.054,53.756,53.756,0,0,0-20.2,4.753A1.274,1.274,0,0,0,250.808,200.9Z" fill="#ff6300"/><path d="M234.673,185.669c2.551-1.38,8.594-1.658,10.139,2.544a7.755,7.755,0,0,0-7.111,4.608" fill="none" stroke="#070117" stroke-linecap="round" stroke-linejoin="round" stroke-width="3"/><path d="M272.319,173.961c-2.766.872-7.172,5.017-5.23,9.051a7.757,7.757,0,0,1,8.258-1.9" fill="none" stroke="#070117" stroke-linecap="round" stroke-linejoin="round" stroke-width="3"/><path d="M353.329,233.945" fill="#ffede2"/><path d="M262.283,211.636c3.17,2.07,13.71-7.159,13.453,2.34,8.315,6.558-2.087,13.306-2.087,13.306" fill="#ffede2" stroke="#070117" stroke-linecap="round" stroke-linejoin="round" stroke-width="3"/><path d="M338.418,225.489l-22.982-10.67,3.169-11.536,12.1-4.69c2.9,3.8-5.965,12.04-5.965,12.04s7.029-4.737,14.876,3.755" fill="#ffede2" stroke="#ffcaa7" stroke-linecap="round" stroke-miterlimit="10" stroke-width="3"/><path d="M193.864,292.231C113.055,263.05,100.4,167.63,100.4,167.63l-21.64,5.528s9.116,126.818,99.016,160.351C202.591,310.955,193.864,292.231,193.864,292.231Z" fill="aqua"/><path d="M243.353,387.012c-11.971-52.9-25.545-101.653-25.545-101.653s-28.483,1.019-48.073,2.989c0,0,2.947,90.911,11.052,167.584l37.435-17.558A45.621,45.621,0,0,0,243.353,387.012Z" fill="aqua"/></g></g></svg>