<svg xmlns="http://www.w3.org/2000/svg" xmlns:xlink="http://www.w3.org/1999/xlink" width="1096" height="390" viewBox="0 0 1096 390"><defs><clipPath id="a"><rect width="1096" height="390" transform="translate(1682 3626)" fill="#f6f6ff"/></clipPath></defs><g transform="translate(-1682 -3626)" clip-path="url(#a)"><g transform="translate(1702 3637)"><line x1="19.594" y2="7.702" transform="translate(35.429 213.426)" fill="none" stroke="#690bd6" stroke-linecap="round" stroke-linejoin="round" stroke-width="4"/><line x1="19.594" y2="7.702" transform="translate(122.496 159.117)" fill="none" stroke="#690bd6" stroke-linecap="round" stroke-linejoin="round" stroke-width="4"/><line x1="19.594" y2="7.702" transform="translate(90.53 300.568)" fill="none" stroke="#690bd6" stroke-linecap="round" stroke-linejoin="round" stroke-width="4"/><line x1="8.919" y2="3.506" transform="translate(76.962 215.524)" fill="none" stroke="#690bd6" stroke-linecap="round" stroke-linejoin="round" stroke-width="4"/><line x1="23.621" y2="9.284" transform="translate(3.089 275.226)" fill="none" stroke="#690bd6" stroke-linecap="round" stroke-linejoin="round" stroke-width="4"/><line x1="13.599" y2="5.345" transform="translate(33.695 284.395)" fill="none" stroke="#690bd6" stroke-linecap="round" stroke-linejoin="round" stroke-width="4"/><line x1="7.438" y2="2.924" transform="translate(13.653 316.341)" fill="none" stroke="#690bd6" stroke-linecap="round" stroke-linejoin="round" stroke-width="4"/><line x1="11.129" y2="4.374" transform="translate(119.836 231.805)" fill="none" stroke="#690bd6" stroke-linecap="round" stroke-linejoin="round" stroke-width="4"/><line x1="6.407" y2="2.518" transform="translate(136.903 249.795)" fill="none" stroke="#690bd6" stroke-linecap="round" stroke-linejoin="round" stroke-width="4"/><line x1="6.407" y2="2.518" transform="translate(108.712 157.544)" fill="none" stroke="#690bd6" stroke-linecap="round" stroke-linejoin="round" stroke-width="4"/><line x1="3.504" y2="1.377" transform="translate(127.46 264.845)" fill="none" stroke="#690bd6" stroke-linecap="round" stroke-linejoin="round" stroke-width="4"/><line x1="11.129" y2="4.374" transform="translate(170.613 260.996)" fill="none" stroke="#690bd6" stroke-linecap="round" stroke-linejoin="round" stroke-width="4"/><line x1="6.407" y2="2.518" transform="translate(187.68 278.986)" fill="none" stroke="#690bd6" stroke-linecap="round" stroke-linejoin="round" stroke-width="4"/><line x1="3.504" y2="1.377" transform="translate(178.238 294.037)" fill="none" stroke="#690bd6" stroke-linecap="round" stroke-linejoin="round" stroke-width="4"/><line x1="3.504" y2="1.377" transform="translate(111.498 252.313)" fill="none" stroke="#690bd6" stroke-linecap="round" stroke-linejoin="round" stroke-width="4"/><line x1="19.594" y2="7.702" transform="translate(521.542 24.916)" fill="none" stroke="#690bd6" stroke-linecap="round" stroke-linejoin="round" stroke-width="4"/><line x1="11.129" y2="4.374" transform="translate(645.875 44.545)" fill="none" stroke="#690bd6" stroke-linecap="round" stroke-linejoin="round" stroke-width="4"/><line x1="6.407" y2="2.518" transform="translate(662.941 62.535)" fill="none" stroke="#690bd6" stroke-linecap="round" stroke-linejoin="round" stroke-width="4"/><line x1="3.504" y2="1.377" transform="translate(653.499 77.586)" fill="none" stroke="#690bd6" stroke-linecap="round" stroke-linejoin="round" stroke-width="4"/><line x1="11.129" y2="4.374" transform="translate(607.797 0.366)" fill="none" stroke="#690bd6" stroke-linecap="round" stroke-linejoin="round" stroke-width="4"/><line x1="6.407" y2="2.518" transform="translate(624.864 18.356)" fill="none" stroke="#690bd6" stroke-linecap="round" stroke-linejoin="round" stroke-width="4"/><line x1="3.504" y2="1.377" transform="translate(615.422 33.407)" fill="none" stroke="#690bd6" stroke-linecap="round" stroke-linejoin="round" stroke-width="4"/><line x1="3.504" y2="1.377" transform="translate(637.537 65.054)" fill="none" stroke="#690bd6" stroke-linecap="round" stroke-linejoin="round" stroke-width="4"/><line x1="19.594" y2="7.702" transform="translate(881.59 103.353)" fill="none" stroke="#690bd6" stroke-linecap="round" stroke-linejoin="round" stroke-width="4"/><line x1="11.129" y2="4.374" transform="translate(1011.735 153.549)" fill="none" stroke="#690bd6" stroke-linecap="round" stroke-linejoin="round" stroke-width="4"/><line x1="6.407" y2="2.518" transform="translate(1028.802 171.539)" fill="none" stroke="#690bd6" stroke-linecap="round" stroke-linejoin="round" stroke-width="4"/><line x1="3.504" y2="1.377" transform="translate(1019.359 186.59)" fill="none" stroke="#690bd6" stroke-linecap="round" stroke-linejoin="round" stroke-width="4"/><line x1="11.129" y2="4.374" transform="translate(973.658 109.37)" fill="none" stroke="#690bd6" stroke-linecap="round" stroke-linejoin="round" stroke-width="4"/><line x1="6.407" y2="2.518" transform="translate(990.725 127.36)" fill="none" stroke="#690bd6" stroke-linecap="round" stroke-linejoin="round" stroke-width="4"/><line x1="3.504" y2="1.377" transform="translate(981.282 142.411)" fill="none" stroke="#690bd6" stroke-linecap="round" stroke-linejoin="round" stroke-width="4"/><line x1="11.129" y2="4.374" transform="translate(1036.364 107.203)" fill="none" stroke="#690bd6" stroke-linecap="round" stroke-linejoin="round" stroke-width="4"/><line x1="6.407" y2="2.518" transform="translate(1050.227 116.737)" fill="none" stroke="#690bd6" stroke-linecap="round" stroke-linejoin="round" stroke-width="4"/><line x1="3.504" y2="1.377" transform="translate(1034.611 125.244)" fill="none" stroke="#690bd6" stroke-linecap="round" stroke-linejoin="round" stroke-width="4"/><line x1="11.129" y2="4.374" transform="translate(1030.091 230.093)" fill="none" stroke="#690bd6" stroke-linecap="round" stroke-linejoin="round" stroke-width="4"/><line x1="6.407" y2="2.518" transform="translate(1043.954 239.626)" fill="none" stroke="#690bd6" stroke-linecap="round" stroke-linejoin="round" stroke-width="4"/><line x1="3.504" y2="1.377" transform="translate(1028.339 248.133)" fill="none" stroke="#690bd6" stroke-linecap="round" stroke-linejoin="round" stroke-width="4"/><line x1="3.504" y2="1.377" transform="translate(1003.397 174.058)" fill="none" stroke="#690bd6" stroke-linecap="round" stroke-linejoin="round" stroke-width="4"/><line x1="11.129" y2="4.374" transform="translate(427.658 318.311)" fill="none" stroke="#690bd6" stroke-linecap="round" stroke-linejoin="round" stroke-width="4"/><line x1="6.407" y2="2.518" transform="translate(444.724 336.301)" fill="none" stroke="#690bd6" stroke-linecap="round" stroke-linejoin="round" stroke-width="4"/><line x1="3.504" y2="1.377" transform="translate(435.282 351.352)" fill="none" stroke="#690bd6" stroke-linecap="round" stroke-linejoin="round" stroke-width="4"/><line x1="3.504" y2="1.377" transform="translate(419.32 338.819)" fill="none" stroke="#690bd6" stroke-linecap="round" stroke-linejoin="round" stroke-width="4"/><line x1="19.594" y2="7.702" transform="translate(242.655 19.549)" fill="none" stroke="#690bd6" stroke-linecap="round" stroke-linejoin="round" stroke-width="4"/><line x1="19.594" y2="7.702" transform="translate(433.104 16.485)" fill="none" stroke="#690bd6" stroke-linecap="round" stroke-linejoin="round" stroke-width="4"/><line x1="19.594" y2="7.702" transform="translate(283.311 96.523)" fill="none" stroke="#690bd6" stroke-linecap="round" stroke-linejoin="round" stroke-width="4"/><line x1="8.919" y2="3.506" transform="translate(284.188 21.647)" fill="none" stroke="#690bd6" stroke-linecap="round" stroke-linejoin="round" stroke-width="4"/><line x1="23.621" y2="9.284" transform="translate(210.316 81.349)" fill="none" stroke="#690bd6" stroke-linecap="round" stroke-linejoin="round" stroke-width="4"/><line x1="23.621" y2="9.284" transform="translate(172.599)" fill="none" stroke="#690bd6" stroke-linecap="round" stroke-linejoin="round" stroke-width="4"/><line x1="13.599" y2="5.345" transform="translate(240.921 90.519)" fill="none" stroke="#690bd6" stroke-linecap="round" stroke-linejoin="round" stroke-width="4"/><line x1="7.438" y2="2.924" transform="translate(220.879 122.465)" fill="none" stroke="#690bd6" stroke-linecap="round" stroke-linejoin="round" stroke-width="4"/><line x1="23.621" y2="9.284" transform="translate(479.416 316.799)" fill="none" stroke="#690bd6" stroke-linecap="round" stroke-linejoin="round" stroke-width="4"/><line x1="13.599" y2="5.345" transform="translate(510.022 325.969)" fill="none" stroke="#690bd6" stroke-linecap="round" stroke-linejoin="round" stroke-width="4"/><line x1="7.438" y2="2.924" transform="translate(489.98 357.915)" fill="none" stroke="#690bd6" stroke-linecap="round" stroke-linejoin="round" stroke-width="4"/><line x1="19.594" y2="7.702" transform="translate(790.747 27.938)" fill="none" stroke="#690bd6" stroke-linecap="round" stroke-linejoin="round" stroke-width="4"/><line x1="23.621" y2="9.284" transform="translate(717.752 12.764)" fill="none" stroke="#690bd6" stroke-linecap="round" stroke-linejoin="round" stroke-width="4"/><line x1="13.599" y2="5.345" transform="translate(748.358 21.934)" fill="none" stroke="#690bd6" stroke-linecap="round" stroke-linejoin="round" stroke-width="4"/><line x1="7.438" y2="2.924" transform="translate(728.316 53.88)" fill="none" stroke="#690bd6" stroke-linecap="round" stroke-linejoin="round" stroke-width="4"/><line x1="11.129" y2="4.374" transform="translate(335.394 38.398)" fill="none" stroke="#690bd6" stroke-linecap="round" stroke-linejoin="round" stroke-width="4"/><line x1="11.129" y2="4.374" transform="translate(269.491 149.082)" fill="none" stroke="#690bd6" stroke-linecap="round" stroke-linejoin="round" stroke-width="4"/><line x1="6.407" y2="2.518" transform="translate(352.461 56.388)" fill="none" stroke="#690bd6" stroke-linecap="round" stroke-linejoin="round" stroke-width="4"/><line x1="6.407" y2="2.518" transform="translate(419.32 14.912)" fill="none" stroke="#690bd6" stroke-linecap="round" stroke-linejoin="round" stroke-width="4"/><line x1="3.504" y2="1.377" transform="translate(343.018 71.439)" fill="none" stroke="#690bd6" stroke-linecap="round" stroke-linejoin="round" stroke-width="4"/><line x1="11.129" y2="4.374" transform="translate(297.756 209.203)" fill="none" stroke="#690bd6" stroke-linecap="round" stroke-linejoin="round" stroke-width="4"/><line x1="6.407" y2="2.518" transform="translate(314.823 227.193)" fill="none" stroke="#690bd6" stroke-linecap="round" stroke-linejoin="round" stroke-width="4"/><line x1="3.504" y2="1.377" transform="translate(307.133 179.518)" fill="none" stroke="#690bd6" stroke-linecap="round" stroke-linejoin="round" stroke-width="4"/><line x1="3.504" y2="1.377" transform="translate(327.056 58.906)" fill="none" stroke="#690bd6" stroke-linecap="round" stroke-linejoin="round" stroke-width="4"/><line x1="19.594" y2="7.702" transform="translate(651.038 236.821)" fill="none" stroke="#690bd6" stroke-linecap="round" stroke-linejoin="round" stroke-width="4"/><line x1="19.594" y2="7.702" transform="translate(696.342 323.963)" fill="none" stroke="#690bd6" stroke-linecap="round" stroke-linejoin="round" stroke-width="4"/><line x1="19.594" y2="7.702" transform="translate(741.373 158.357)" fill="none" stroke="#690bd6" stroke-linecap="round" stroke-linejoin="round" stroke-width="4"/><line x1="19.594" y2="7.702" transform="translate(756.692 166.819)" fill="none" stroke="#690bd6" stroke-linecap="round" stroke-linejoin="round" stroke-width="4"/><line x1="19.594" y2="7.702" transform="translate(578.791 345.767)" fill="none" stroke="#690bd6" stroke-linecap="round" stroke-linejoin="round" stroke-width="4"/><line x1="8.919" y2="3.506" transform="translate(661.685 255.446)" fill="none" stroke="#690bd6" stroke-linecap="round" stroke-linejoin="round" stroke-width="4"/><line x1="23.621" y2="9.284" transform="translate(618.698 298.621)" fill="none" stroke="#690bd6" stroke-linecap="round" stroke-linejoin="round" stroke-width="4"/><line x1="13.599" y2="5.345" transform="translate(649.304 307.79)" fill="none" stroke="#690bd6" stroke-linecap="round" stroke-linejoin="round" stroke-width="4"/><line x1="23.621" y2="9.284" transform="translate(765.467 201.945)" fill="none" stroke="#690bd6" stroke-linecap="round" stroke-linejoin="round" stroke-width="4"/><line x1="13.599" y2="5.345" transform="translate(796.073 211.115)" fill="none" stroke="#690bd6" stroke-linecap="round" stroke-linejoin="round" stroke-width="4"/><line x1="23.621" y2="9.284" transform="translate(379.818 233.414)" fill="none" stroke="#690bd6" stroke-linecap="round" stroke-linejoin="round" stroke-width="4"/><line x1="13.599" y2="5.345" transform="translate(410.424 242.584)" fill="none" stroke="#690bd6" stroke-linecap="round" stroke-linejoin="round" stroke-width="4"/><line x1="7.438" y2="2.924" transform="translate(629.262 339.737)" fill="none" stroke="#690bd6" stroke-linecap="round" stroke-linejoin="round" stroke-width="4"/><line x1="19.594" y2="7.702" transform="translate(943.323 10.603)" fill="none" stroke="#690bd6" stroke-linecap="round" stroke-linejoin="round" stroke-width="4"/><line x1="23.621" y2="9.284" transform="translate(995.145 30.527)" fill="none" stroke="#690bd6" stroke-linecap="round" stroke-linejoin="round" stroke-width="4"/><line x1="13.599" y2="5.345" transform="translate(1025.751 39.697)" fill="none" stroke="#690bd6" stroke-linecap="round" stroke-linejoin="round" stroke-width="4"/><line x1="23.621" y2="9.284" transform="translate(1023.845 315.661)" fill="none" stroke="#690bd6" stroke-linecap="round" stroke-linejoin="round" stroke-width="4"/><line x1="13.599" y2="5.345" transform="translate(1043.115 326.84)" fill="none" stroke="#690bd6" stroke-linecap="round" stroke-linejoin="round" stroke-width="4"/><line x1="13.599" y2="5.345" transform="translate(985.48 361.599)" fill="none" stroke="#690bd6" stroke-linecap="round" stroke-linejoin="round" stroke-width="4"/><line x1="7.438" y2="2.924" transform="translate(1005.709 71.643)" fill="none" stroke="#690bd6" stroke-linecap="round" stroke-linejoin="round" stroke-width="4"/><line x1="11.129" y2="4.374" transform="translate(778.193 328.558)" fill="none" stroke="#690bd6" stroke-linecap="round" stroke-linejoin="round" stroke-width="4"/><line x1="6.407" y2="2.518" transform="translate(795.26 346.548)" fill="none" stroke="#690bd6" stroke-linecap="round" stroke-linejoin="round" stroke-width="4"/><line x1="3.504" y2="1.377" transform="translate(785.818 361.599)" fill="none" stroke="#690bd6" stroke-linecap="round" stroke-linejoin="round" stroke-width="4"/><line x1="3.504" y2="1.377" transform="translate(769.856 349.066)" fill="none" stroke="#690bd6" stroke-linecap="round" stroke-linejoin="round" stroke-width="4"/><line x1="11.129" y2="4.374" transform="translate(8.338 34.784)" fill="none" stroke="#690bd6" stroke-linecap="round" stroke-linejoin="round" stroke-width="4"/><line x1="6.407" y2="2.518" transform="translate(25.404 52.774)" fill="none" stroke="#690bd6" stroke-linecap="round" stroke-linejoin="round" stroke-width="4"/><line x1="3.504" y2="1.377" transform="translate(15.962 67.825)" fill="none" stroke="#690bd6" stroke-linecap="round" stroke-linejoin="round" stroke-width="4"/><line x1="3.504" y2="1.377" transform="translate(0 55.292)" fill="none" stroke="#690bd6" stroke-linecap="round" stroke-linejoin="round" stroke-width="4"/><g transform="translate(57.02 17.256)"><path d="M135.228,803.843a1.447,1.447,0,0,1-1.447-1.447,5.735,5.735,0,0,0-5.727-5.73,1.448,1.448,0,0,1,0-2.9,5.736,5.736,0,0,0,5.727-5.73,1.447,1.447,0,1,1,2.895,0,5.735,5.735,0,0,0,5.727,5.73,1.448,1.448,0,0,1,0,2.9,5.734,5.734,0,0,0-5.727,5.73A1.448,1.448,0,0,1,135.228,803.843Z" transform="translate(-82.857 -616.793)" fill="#fff"/><path d="M108.737,788.36a.692.692,0,0,1-.693-.692,2.743,2.743,0,0,0-2.739-2.741.693.693,0,1,1,0-1.385,2.742,2.742,0,0,0,2.739-2.74.692.692,0,0,1,1.384,0,2.742,2.742,0,0,0,2.74,2.74.693.693,0,0,1,0,1.385,2.743,2.743,0,0,0-2.74,2.741A.692.692,0,0,1,108.737,788.36Z" transform="translate(-82.847 -616.793)" fill="#fff"/><path d="M514.821,634.044a1.447,1.447,0,0,1-1.447-1.448,5.736,5.736,0,0,0-5.727-5.73,1.448,1.448,0,0,1,0-2.9,5.736,5.736,0,0,0,5.727-5.73,1.447,1.447,0,1,1,2.894,0,5.736,5.736,0,0,0,5.728,5.73,1.448,1.448,0,0,1,0,2.9,5.736,5.736,0,0,0-5.728,5.73A1.447,1.447,0,0,1,514.821,634.044Z" transform="translate(-83.044 -616.793)" fill="#fff"/><path d="M575.811,957.781a1.449,1.449,0,0,1-1.447-1.448,5.734,5.734,0,0,0-5.727-5.73,1.448,1.448,0,0,1,0-2.9,5.735,5.735,0,0,0,5.727-5.73,1.447,1.447,0,1,1,2.895,0,5.736,5.736,0,0,0,5.727,5.73,1.448,1.448,0,0,1,0,2.9,5.735,5.735,0,0,0-5.727,5.73A1.448,1.448,0,0,1,575.811,957.781Z" transform="translate(-83.074 -616.793)" fill="#fff"/><path d="M553.781,962.967a.926.926,0,0,1-.926-.926,3.666,3.666,0,0,0-3.661-3.663.926.926,0,1,1,0-1.851,3.667,3.667,0,0,0,3.661-3.664.926.926,0,0,1,1.851,0,3.667,3.667,0,0,0,3.661,3.664.926.926,0,1,1,0,1.851,3.666,3.666,0,0,0-3.661,3.663A.926.926,0,0,1,553.781,962.967Z" transform="translate(-83.064 -616.793)" fill="#fff"/><path d="M659.077,879.3a1.084,1.084,0,0,1-1.083-1.084,4.3,4.3,0,0,0-4.288-4.291,1.084,1.084,0,0,1,0-2.168,4.294,4.294,0,0,0,4.288-4.29,1.083,1.083,0,1,1,2.167,0,4.3,4.3,0,0,0,4.289,4.29,1.084,1.084,0,0,1,0,2.168,4.3,4.3,0,0,0-4.289,4.291A1.083,1.083,0,0,1,659.077,879.3Z" transform="translate(-83.116 -616.793)" fill="#fff"/><path d="M979.372,691.355a1.447,1.447,0,0,1-1.447-1.448,5.736,5.736,0,0,0-5.727-5.73,1.448,1.448,0,0,1,0-2.9,5.736,5.736,0,0,0,5.727-5.731,1.447,1.447,0,0,1,2.895,0,5.735,5.735,0,0,0,5.727,5.731,1.448,1.448,0,0,1,0,2.9,5.735,5.735,0,0,0-5.727,5.73A1.448,1.448,0,0,1,979.372,691.355Z" transform="translate(-83.272 -616.793)" fill="#fff"/><path d="M1065.773,886.431a1.447,1.447,0,0,1-1.447-1.448,5.736,5.736,0,0,0-5.727-5.73,1.448,1.448,0,0,1,0-2.9,5.735,5.735,0,0,0,5.727-5.73,1.447,1.447,0,0,1,2.895,0,5.734,5.734,0,0,0,5.727,5.73,1.448,1.448,0,0,1,0,2.9,5.735,5.735,0,0,0-5.727,5.73A1.447,1.447,0,0,1,1065.773,886.431Z" transform="translate(-83.314 -616.793)" fill="#fff"/><path d="M1006.518,935.649a.8.8,0,0,1-.8-.8,3.19,3.19,0,0,0-3.185-3.187.805.805,0,0,1,0-1.611,3.19,3.19,0,0,0,3.185-3.187.8.8,0,1,1,1.609,0,3.19,3.19,0,0,0,3.186,3.187.805.805,0,0,1,0,1.611,3.19,3.19,0,0,0-3.186,3.187A.8.8,0,0,1,1006.518,935.649Z" transform="translate(-83.287 -616.793)" fill="#fff"/><path d="M501.312,643.335a.692.692,0,0,1-.692-.692,2.743,2.743,0,0,0-2.74-2.74.693.693,0,0,1,0-1.385,2.744,2.744,0,0,0,2.74-2.741.692.692,0,0,1,1.384,0,2.743,2.743,0,0,0,2.739,2.741.693.693,0,1,1,0,1.385,2.742,2.742,0,0,0-2.739,2.74A.692.692,0,0,1,501.312,643.335Z" transform="translate(-83.039 -616.793)" fill="#fff"/><path d="M1069.771,678.229a.692.692,0,0,1-.692-.693,2.742,2.742,0,0,0-2.739-2.74.693.693,0,1,1,0-1.385,2.742,2.742,0,0,0,2.739-2.74.692.692,0,1,1,1.384,0,2.742,2.742,0,0,0,2.739,2.74.693.693,0,1,1,0,1.385,2.742,2.742,0,0,0-2.739,2.74A.692.692,0,0,1,1069.771,678.229Z" transform="translate(-83.318 -616.793)" fill="#fff"/><path d="M86.959,846.246a.692.692,0,0,1-.693-.692,2.743,2.743,0,0,0-2.739-2.741.693.693,0,0,1,0-1.385,2.742,2.742,0,0,0,2.739-2.74.692.692,0,0,1,1.384,0,2.743,2.743,0,0,0,2.74,2.74.693.693,0,0,1,0,1.385,2.744,2.744,0,0,0-2.74,2.741A.692.692,0,0,1,86.959,846.246Z" transform="translate(-82.836 -616.793)" fill="#fff"/><ellipse cx="2.141" cy="2.142" rx="2.141" ry="2.142" transform="translate(29.229 253.909)" fill="#fff"/><ellipse cx="2.141" cy="2.142" rx="2.141" ry="2.142" transform="translate(353.404 35.895)" fill="#fff"/><ellipse cx="2.141" cy="2.142" rx="2.141" ry="2.142" transform="translate(965.297 274.843)" fill="#fff"/></g></g></g></svg>