<svg xmlns="http://www.w3.org/2000/svg" xmlns:xlink="http://www.w3.org/1999/xlink" width="174.288" height="158.287" viewBox="0 0 174.288 158.287"><defs><clipPath id="a"><path d="M890.831,655.284,869.9,618.706l-13.487-12.2,6.931-8.662,13.062,3.149,1.393-11.388,10.039-.905,6.192,11.385,21.31,2.225.465,13.539-7.445,9.548,11.112,15.734C899.892,652.233,890.831,655.284,890.831,655.284Z" transform="translate(-856.412 -588.701)" fill="none"/></clipPath><clipPath id="b"><path d="M884.405,624.625l12.14-7.2-2.409-4.2-11.893,5.331Z" transform="translate(-882.243 -613.217)" fill="none"/></clipPath></defs><g transform="translate(2 1)"><path d="M873.355,689.493l-12.894,1.571-4.355-11.091,10.515-7.63Z" transform="translate(-790.383 -581.698)" fill="#ffed00"/><path d="M932.427,682.086c-31.81,12.5-62.446,9.577-62.446,9.577l-7.333-18.675s21.279-23.332,52.263-35.511,47.752,6.978,47.752,6.978S964.238,669.582,932.427,682.086Z" transform="translate(-790.387 -581.698)" fill="#fff"/><path d="M876.82,669.2l11-8.284a5.787,5.787,0,0,0,2.239-5.495l-.69-4.514" transform="translate(-790.394 -581.698)" fill="none" stroke="#ff6300" stroke-linecap="round" stroke-linejoin="round" stroke-width="3"/><path d="M883.014,684.966l13.7-1.425a5.782,5.782,0,0,1,5.379,2.5l2.565,3.776" transform="translate(-790.397 -581.698)" fill="none" stroke="#ff6300" stroke-linecap="round" stroke-linejoin="round" stroke-width="3"/><ellipse cx="22.518" cy="2.565" rx="22.518" ry="2.565" transform="translate(93.538 72.646) rotate(-26.094)" fill="#070117"/><path d="M944.857,675.582c18.965-13.113,17.837-31.127,17.837-31.127s-11.915-13.613-34.219-10.591c0,0-.808,9.077,4.4,22.347S944.857,675.582,944.857,675.582Z" transform="translate(-790.419 -581.698)" fill="#ff6300"/><path d="M879.624,657.858c-3.985,1.742-12.506.441-18.582-.848a14.888,14.888,0,0,0-12.568,3.068l-6.188,5.1,20.351,7.8Z" transform="translate(-790.377 -581.698)" fill="#ff6300"/><path d="M892.742,691.243c-4.1,1.438-9.462,8.194-13.037,13.276a14.887,14.887,0,0,1-11.293,6.311l-8.007.474,9.6-19.577Z" transform="translate(-790.385 -581.698)" fill="#ff6300"/><line x2="11.964" y2="30.469" transform="translate(83.534 80.135)" fill="none" stroke="#ff6300" stroke-linecap="round" stroke-linejoin="round" stroke-width="3"/><line x1="52.96" y2="20.816" transform="translate(89.803 75.284)" fill="none" stroke="#ff6300" stroke-linecap="round" stroke-linejoin="round" stroke-width="3"/><path d="M930.4,639.646a56.081,56.081,0,0,1,29.659,4.364c-11.583,1.029-27.123,7.107-27.123,7.107A43.21,43.21,0,0,1,930.4,639.646Z" transform="translate(-790.42 -581.698)" fill="#ffb383"/><path d="M847.274,679.2a6.882,6.882,0,0,1-3.866.312,6.229,6.229,0,0,1-3.1-2.915,13.346,13.346,0,0,1-1.062-1.995c-.242-.595-.416-1.217-.7-1.794-1.136-2.322-3.882-3.5-6.467-3.506" transform="translate(-790.372 -581.698)" fill="none" stroke="#ff6300" stroke-linecap="round" stroke-miterlimit="10" stroke-width="4"/><path d="M832.37,732.224a8.807,8.807,0,0,1-.731-7.359,11.25,11.25,0,0,1,4.733-5.8c.771-.483,1.592-.887,2.314-1.439a7.141,7.141,0,0,0,1.752-8.983" transform="translate(-790.371 -581.698)" fill="none" stroke="aqua" stroke-linecap="round" stroke-miterlimit="10" stroke-width="4"/><line x1="31.15" y2="7.886" transform="translate(30.499 105.027)" fill="none" stroke="aqua" stroke-linecap="round" stroke-miterlimit="10" stroke-width="4"/><line x1="19.552" y2="1.079" transform="translate(19.79 102.068)" fill="none" stroke="#ffed00" stroke-linecap="round" stroke-miterlimit="10" stroke-width="4"/><line x1="18.878" y2="19.501" transform="translate(16.3 134.958)" fill="none" stroke="#fff" stroke-linecap="round" stroke-miterlimit="10" stroke-width="4"/><line x1="30.345" y2="10.814" transform="translate(15.527 119.576)" fill="none" stroke="#ffed00" stroke-linecap="round" stroke-miterlimit="10" stroke-width="4"/><ellipse cx="3.899" cy="3.901" rx="3.899" ry="3.901" transform="translate(56.149 114.595)" fill="none" stroke="aqua" stroke-linecap="round" stroke-miterlimit="10" stroke-width="4"/><ellipse cx="5.527" cy="5.53" rx="5.527" ry="5.53" transform="translate(0 103.836)" fill="none" stroke="#ff6300" stroke-linecap="round" stroke-miterlimit="10" stroke-width="4"/><ellipse cx="2.757" cy="2.758" rx="2.757" ry="2.758" transform="translate(20.225 80.135)" fill="none" stroke="#fff" stroke-linecap="round" stroke-miterlimit="10" stroke-width="4"/><g transform="translate(66.028 7.003)"><g clip-path="url(#a)"><g transform="translate(2.659 2.873)"><path d="M878.494,666.058a5.5,5.5,0,0,0-6.689-.207,4.9,4.9,0,0,0-1.9,2.778,6.2,6.2,0,0,0,.2,3.464c.045.145.1.289.153.433l.193.509c.126.344.249.69.365,1.041.233.7.446,1.417.616,2.16a14.609,14.609,0,0,1,.36,2.321,8.528,8.528,0,0,1-.187,2.566,6.2,6.2,0,0,1-.489,1.334,5.769,5.769,0,0,1-.825,1.213,7.226,7.226,0,0,1-2.193,1.638,15.382,15.382,0,0,1-2.22.882c-.716.231-1.4.425-2.065.623l-.945-3.562a24.525,24.525,0,0,0,3.763-1.036,4,4,0,0,0,1.242-.779,2.649,2.649,0,0,0,.679-1.133,5.449,5.449,0,0,0,.213-1.627,11.675,11.675,0,0,0-.175-1.869c-.1-.639-.253-1.287-.424-1.936-.085-.325-.179-.649-.276-.974l-.151-.49c-.058-.191-.118-.38-.167-.574a9.687,9.687,0,0,1-.34-2.408,7.975,7.975,0,0,1,.358-2.467,7.184,7.184,0,0,1,1.16-2.228,7.276,7.276,0,0,1,1.833-1.678,7.543,7.543,0,0,1,4.665-1.167,7.338,7.338,0,0,1,2.341.586,7.467,7.467,0,0,1,2.005,1.3Z" transform="translate(-859.074 -591.574)" fill="#5200a9"/><g transform="translate(57.832 53.488)"><path d="M934.68,649.835l-16.854-4.772-.579,2.978,2.784,1.268-2.957.5-.116,2.156,3.112.76-3.137.79.212,2.094,3.609.807-3.117.848.845,2.218,15.893-2.26Z" transform="translate(-916.932 -645.063)" fill="#e2cc00"/><path d="M936.387,656.831l-8.81,1.855-.826-3.136,2.743-.82-2.792-.376.353-2.911,2.576-.011-2.286-1.643,1.067-2.188,8.576,2.713Z" transform="translate(-916.937 -645.063)" fill="#690bd6"/></g><g transform="translate(32.998 76.661)"><path d="M910.182,683.829l-7.993-15.594-2.573,1.6.969,2.9-2.383-1.822-1.656,1.384,1.565,2.8-2.715-1.759-1.387,1.582,1.869,3.193-2.744-1.7-1.046,2.13,12.483,10.1Z" transform="translate(-892.086 -668.236)" fill="#e2cc00"/><path d="M906.227,689.843l-7.36-5.187,1.732-2.742,2.469,1.45-1.627-2.3,2.37-1.725,1.763,1.878-.356-2.793,2.327-.709,3.859,8.129Z" transform="translate(-892.09 -668.236)" fill="#690bd6"/></g><g transform="translate(19.179)"><path d="M878.85,594.307l-.2,13.529,13.069-3.387-5.611-11.816Z" transform="translate(-878.261 -591.574)" fill="#d8c173"/><path d="M885.9,591.574l2.309,4.355-2.268,1.226-1.366-2.341.277,2.653-2.754.324-.585-2.368-1,2.47-2.249-.494.957-5.6Z" transform="translate(-878.26 -591.574)" fill="#690bd6"/><path d="M884.62,604.571l-.011-.013-.909-1.174a.234.234,0,0,1-.005-.281l.474-.662-.761.343a.233.233,0,0,1-.289-.078l-.9-1.276a.235.235,0,0,1,.019-.295l.556-.6-.775.287a.235.235,0,0,1-.293-.116l-.8-1.618a.236.236,0,0,1,.12-.321l2.184-.921a.235.235,0,0,1,.183.433l-1.954.824.595,1.2,1.5-.556a.235.235,0,0,1,.254.38l-1.092,1.185.677.962,1.381-.624a.235.235,0,0,1,.288.351l-.882,1.232.663.856,1.391-.994a.235.235,0,0,1,.274.383l-1.575,1.125A.236.236,0,0,1,884.62,604.571Z" transform="translate(-878.262 -591.574)" fill="#f4eeb2"/></g><path d="M878.846,669l4.727,14.182,3.1-.009,11.167-4.713.838-2.474,1.775,1.028,3.4-1.882-.647-2.235,2.471,1.226L909,671.739l-.694-2.315,2.509,1.189,3.6-2.806-.522-2.318,3.908-.753,3.463-8.611-1.42-1.86,2.77.007,1.9-3.975-3.247-2.314L913.7,643.9Z" transform="translate(-859.082 -591.574)" fill="#690bd6"/><path d="M878.458,666.945a3,3,0,0,0-1.471-.727,4.077,4.077,0,0,0-1.724.061,5.051,5.051,0,0,0-2.881,1.941,4.439,4.439,0,0,0-.771,3.234,6.245,6.245,0,0,0,.5,1.706c.06.14.131.278.2.417l.245.5q.241.5.472,1.015a21.394,21.394,0,0,1,1.461,4.363,11.412,11.412,0,0,1,.247,2.459,7.757,7.757,0,0,1-.483,2.637,6.926,6.926,0,0,1-1.5,2.352,9.524,9.524,0,0,1-2.068,1.59,36.509,36.509,0,0,1-4.1,1.879l-1.372-3.421,2.024-.724a15.822,15.822,0,0,0,1.774-.754,6.235,6.235,0,0,0,1.388-.934,3.659,3.659,0,0,0,.87-1.2,6.135,6.135,0,0,0,.279-3.367,18.6,18.6,0,0,0-1.065-3.831c-.122-.319-.251-.638-.383-.956l-.2-.478c-.079-.188-.159-.375-.228-.569a8.809,8.809,0,0,1-.544-2.446,7.077,7.077,0,0,1,.279-2.564,6.653,6.653,0,0,1,1.211-2.274,7.145,7.145,0,0,1,4.259-2.506,5.958,5.958,0,0,1,2.536.082,4.994,4.994,0,0,1,1.212.494,4.756,4.756,0,0,1,1.037.812Z" transform="translate(-859.075 -591.574)" fill="#ffed00"/><path d="M879.161,665.556a4.518,4.518,0,0,0-2.994-1.951,7.715,7.715,0,0,0-3.84.217,7.347,7.347,0,0,0-3.219,1.984,5.95,5.95,0,0,0-1.534,3.274,7.5,7.5,0,0,0-.008,1.876c.021.158.038.316.069.475s.056.318.093.476.077.317.117.475l.031.121.04.14.078.28a18.656,18.656,0,0,1,.488,2.327,10.755,10.755,0,0,1,.075,2.546,6.723,6.723,0,0,1-.29,1.392,5.031,5.031,0,0,1-.719,1.417,4.427,4.427,0,0,1-1.266,1.161,4.831,4.831,0,0,1-1.555.6,6.7,6.7,0,0,1-2.951-.114,7.644,7.644,0,0,1-1.348-.479,5.734,5.734,0,0,1-1.355-.862l2.5-2.711a1.981,1.981,0,0,0,.472.35,4.084,4.084,0,0,0,.7.315,3.39,3.39,0,0,0,1.4.2,1.6,1.6,0,0,0,.5-.134,1.159,1.159,0,0,0,.378-.278,2.589,2.589,0,0,0,.532-1.259,7.756,7.756,0,0,0,.077-1.845,16.078,16.078,0,0,0-.267-2.006l-.108-.528c-.042-.2-.088-.4-.119-.6s-.067-.4-.091-.608-.043-.411-.061-.617a10.023,10.023,0,0,1,.13-2.511,8.532,8.532,0,0,1,.83-2.42,8.3,8.3,0,0,1,1.517-2.049,9.541,9.541,0,0,1,4.293-2.4,9.7,9.7,0,0,1,4.858-.046,7.192,7.192,0,0,1,2.29,1.04,5.7,5.7,0,0,1,1.731,1.907Z" transform="translate(-859.072 -591.574)" fill="#ffed00"/><path d="M922.232,647.528s-5.306-4.608-6.975-7.056L908.7,630.74l-17.912,13.106,4.611,6.366-15.434,12.157c-3.283,4.308-1.446,9.962-1.446,9.962l2.693.527,1.632-3.309,1.438,3.665,3.346-.208.861-3.645,2.237,2.988,3.1-1.185-.335-4.217,4.072,2.29,3-2.01-.862-4.123,3.346,2.14,3.6-2.463-.909-3.6,3.614,1.871,2.567-1.831-.912-4.3,4.409,1.171,2.489-2.609-1.893-3.337,4.258.622Z" transform="translate(-859.081 -591.574)" fill="#f4eeb2"/><path d="M912.863,604.777c-5.242-6.646-37.443,2.1-37.443,2.1l-11.775-4.831-3.979,4.669,11.976,10.706,16.464,22.734,5.156,10.752-12.989,10.584-2.33,2.837,5.459.134,1.7-3.78,1.2,3.18,4.6-1.543-.139-3.768,2.613,2.4,3.9-2.6-1.08-3.859,4.174,2.594,3.725-3.174-1.587-4.137,3.7,2.966,2.921-2.172-1.557-4.71,4.465,2.879,2.839-2.685-2.357-4.267,4.378,2.481,1.95-2.537-5.912-5.048-8.184-11.772S916.685,609.623,912.863,604.777Z" transform="translate(-859.072 -591.574)" fill="#690bd6"/><path d="M871.553,615.6l16.756,26.5,3.3-1.218L890.7,637l2.953,2.759,2.98-1.593-1.463-4.017,3.03,3.189,2.852-1.94-1.8-4.055,3.357,2.714,2.4-1.915-1.842-3.935,3.566,2.463,1.329-2.154-3.3-3.6s11.9-13.273,8.579-19.29S871.553,615.6,871.553,615.6Z" transform="translate(-859.078 -591.574)" fill="#f4eeb2"/><path d="M875.423,606.881l-8.667-3.555-2.225,7.74,7.114,6.359,9.313,14.149L884,630.479l-1.052-5.462,2.995,4.388,3.038-1.68-1.034-5.775,3.652,4.327,3.376-1.868-1.97-5.416,4.533,3.876,2.491-2.467-2.754-4.984,4.954,3.467,1.888-2.368-2.488-5,4.9,2.366,2.9-3.633-2.717-3.886,4.07,1.582,1.731-2.452-.187-1.76C904.68,598.479,875.423,606.881,875.423,606.881Z" transform="translate(-859.075 -591.574)" fill="#690bd6"/><path d="M874.133,613.883a.276.276,0,0,1,.474-.285l1.375,2.246,3.57-1.205a.274.274,0,0,1,.333.132.278.278,0,0,1-.078.35l-2.819,2.133,1.15,1.9,3.367-1.2a.277.277,0,0,1,.326.112.281.281,0,0,1-.036.342l-2.675,2.722,1.835,2.2,3.908-1.635a.276.276,0,1,1,.213.51l-4.1,1.714a.276.276,0,0,1-.319-.078l-2.126-2.548a.277.277,0,0,1,.015-.371l2.007-2.043-2.447.872a.276.276,0,0,1-.329-.117l-1.4-2.309a.27.27,0,0,1,.07-.364l1.66-1.256-2.167.732a.277.277,0,0,1-.324-.118l-1.491-2.434Z" transform="translate(-859.079 -591.574)" fill="#5200a9"/><g transform="translate(0.459 9.815)"><path d="M861.135,608.437l9.852,9.269,1.642-2.021-1.759-2.3,2.693.9,1.057-1.748-2.259-2.022,2.971.739.756-1.842-2.653-2.284,2.98.683.282-2.228-11.9-3.637Z" transform="translate(-859.533 -601.389)" fill="#f4eeb2"/><path d="M863.868,601.389l4.772,1.23-.624,2.5-2.649-.569,2.145,1.584-1.618,2.254-2.142-1.164,1.149,2.4-1.881,1.329-3.488-4.483Z" transform="translate(-859.532 -601.389)" fill="#690bd6"/><path d="M866.621,608.413a.243.243,0,0,1,0-.071.28.28,0,0,1,.109-.19l2.235-1.663a.276.276,0,1,1,.33.443l-2,1.489,1.015,1.207,1.552-1.054a.277.277,0,0,1,.4.362l-.916,1.659,1.042.907,1.4-1.1a.276.276,0,0,1,.413.35l-.746,1.358.929.6a.277.277,0,1,1-.3.466l-1.145-.737a.277.277,0,0,1-.093-.366l.219-.4-.517.405a.276.276,0,0,1-.352-.009l-1.383-1.2a.277.277,0,0,1-.06-.342l.465-.843-.8.546a.278.278,0,0,1-.367-.051l-1.365-1.623A.271.271,0,0,1,866.621,608.413Z" transform="translate(-859.535 -601.389)" fill="#d8c173"/></g><g transform="translate(53.77 61.288)"><path d="M931.7,665.015l-12.621-12.152-1.913,2.354,1.859,2.43-2.845-.95-1.117,1.847,2.387,2.136-3.139-.781-.8,1.947,2.8,2.413-3.149-.721-.3,2.355,15.083,5.5Z" transform="translate(-912.868 -652.863)" fill="#ffed00"/><path d="M929.911,671.989l-8.645-2.515.748-3.156,2.806.569-2.285-1.648,1.682-2.4,2.277,1.2-1.243-2.526,1.971-1.427,6.288,6.435Z" transform="translate(-912.873 -652.863)" fill="#690bd6"/><path d="M920.553,663.635a.272.272,0,0,1-.174.012l-1.6-.412-.278.837a.276.276,0,1,1-.524-.174l.359-1.082a.276.276,0,0,1,.331-.181l.54.139-.611-.469a.278.278,0,0,1-.079-.344l.871-1.731a.276.276,0,0,1,.317-.143l1.048.272-.818-.723a.277.277,0,0,1-.042-.368l1.3-1.823a.277.277,0,0,1,.4-.054l2.287,1.853a.277.277,0,0,1-.348.43l-2.059-1.668-.987,1.381,1.5,1.323a.276.276,0,0,1-.252.475l-1.949-.507-.668,1.327,1.5,1.155a.277.277,0,0,1,.08.341A.271.271,0,0,1,920.553,663.635Z" transform="translate(-912.871 -652.863)" fill="#e2cc00"/></g><path d="M913.423,604.415c-1.778-2.254-6.322-2.928-11.794-2.772l-.074,4.373,4.839-.444-3.855,3.489,2.438,3.432,3.728-2.739-.865,4.944,3.6,1.292C913.761,611.505,915.317,606.817,913.423,604.415Z" transform="translate(-859.093 -591.574)" fill="#5200a9"/><path d="M892.08,608.064a.277.277,0,0,1,.371-.4l1.672,1.132,2.3-2.613a.276.276,0,0,1,.468.276l-1.213,3.39,1.935,1.31,2.6-2.786a.277.277,0,1,1,.4.378l-2.763,2.958a.275.275,0,0,1-.357.04l-2.309-1.562a.277.277,0,0,1-.1-.323l.8-2.232-1.507,1.712a.276.276,0,0,1-.363.046l-1.873-1.268A.27.27,0,0,1,892.08,608.064Z" transform="translate(-859.088 -591.574)" fill="#5200a9"/><path d="M888.268,633.732l-.017-.019-1.667-2.118a.277.277,0,0,1,.01-.355l1.855-2.085a.276.276,0,1,1,.413.367l-1.7,1.913,1.373,1.743,2.383-1.453a.277.277,0,0,1,.393.358l-1.178,2.413,1.943,1.386,1.844-1.954a.277.277,0,0,1,.326-.056.274.274,0,0,1,.147.295l-.553,3.061a.276.276,0,0,1-.544-.1l.388-2.145-1.371,1.453a.276.276,0,0,1-.362.035l-2.329-1.662a.278.278,0,0,1-.088-.347l.866-1.774-1.786,1.089A.276.276,0,0,1,888.268,633.732Z" transform="translate(-859.086 -591.574)" fill="#d8c173"/><g transform="translate(38.015 74.931)"><path d="M897.382,671.75l1.716,2.23,3.024-1.42-.872-2.921,2.539,1.713,2.354-1.865-1.322-2.7,3.3,1.022" transform="translate(-897.106 -666.505)" fill="#690bd6"/><path d="M899.2,674.236a.278.278,0,0,1-.325-.087l-1.716-2.23a.276.276,0,1,1,.438-.337l1.581,2.054,2.608-1.225-.8-2.693a.277.277,0,0,1,.42-.309l2.371,1.6,2.021-1.6-1.224-2.505a.277.277,0,0,1,.33-.386l3.3,1.022a.277.277,0,0,1-.164.529l-2.69-.833,1.041,2.13a.277.277,0,0,1-.077.338l-2.354,1.865a.276.276,0,0,1-.326.013l-1.9-1.281.652,2.181a.276.276,0,0,1-.147.329l-3.025,1.421Z" transform="translate(-897.106 -666.505)" fill="#5200a9"/></g><g transform="translate(24.181 83.437)"><path d="M893.675,692.62l3.954-17.072-3-.436-1.132,2.843-.645-2.931-2.158-.013-.609,3.146-.939-3.1-2.08.313-.633,3.646-1-3.074-2.173.951,3.02,15.774Z" transform="translate(-883.264 -675.012)" fill="#ffed00"/><path d="M886.773,694.657l-2.276-8.715,3.092-.976.95,2.7.242-2.808,2.923.213.135,2.573,1.53-2.363,2.235.961-2.3,8.7Z" transform="translate(-883.265 -675.012)" fill="#690bd6"/><path d="M894.45,683.16a.259.259,0,0,1-.144.018.275.275,0,0,1-.235-.312l.376-2.624-1.691-.14-.369,1.963a.276.276,0,0,1-.537.027l-.565-1.934-1.481.107-.221,1.883a.276.276,0,0,1-.54.045l-.467-1.584-.86.19a.277.277,0,0,1-.12-.54l1.112-.246a.276.276,0,0,1,.325.192l.157.534.09-.765a.276.276,0,0,1,.255-.243l1.932-.141a.276.276,0,0,1,.285.2l.3,1.04.2-1.073a.277.277,0,0,1,.295-.225l2.232.185a.275.275,0,0,1,.251.314l-.417,2.915A.277.277,0,0,1,894.45,683.16Z" transform="translate(-883.266 -675.012)" fill="#e2cc00"/></g><g transform="translate(32.639 49.699)"><path d="M894.425,641.55,892,645.192l2.5,1.822,2.777-2.2-.828,2.858,4.054,1.248,1.73-2.784.318,3.17,3.858.246.783-3.131,1.242,3.128,3.6-.43" transform="translate(-891.727 -641.273)" fill="#690bd6"/><path d="M896.371,647.935a.276.276,0,0,1-.184-.341l.587-2.026-2.1,1.663a.275.275,0,0,1-.334.006l-2.5-1.822a.276.276,0,0,1-.068-.376l2.422-3.642a.277.277,0,0,1,.461.306l-2.276,3.421,2.117,1.543,2.612-2.07a.276.276,0,0,1,.437.294l-.752,2.6,3.59,1.1,1.618-2.6a.277.277,0,0,1,.51.119l.294,2.936,3.394.217.728-2.908a.276.276,0,0,1,.525-.035l1.163,2.93,3.388-.4a.276.276,0,0,1,.065.549l-3.6.43a.277.277,0,0,1-.29-.173l-.925-2.33-.576,2.3a.277.277,0,0,1-.286.209l-3.857-.247a.276.276,0,0,1-.258-.248l-.237-2.362-1.3,2.094a.277.277,0,0,1-.316.118l-4.054-1.247Z" transform="translate(-891.727 -641.273)" fill="#5200a9"/></g><path d="M901.356,661.833a.275.275,0,0,1-.279-.041l-1.943-1.568a.276.276,0,0,1,.347-.43l1.783,1.439,2.3-1.588-.3-2.773a.277.277,0,0,1,.381-.285l2.912,1.2,2.4-1.855-1.063-2.723a.276.276,0,0,1,.4-.338l2.667,1.6,1.141-.831a.276.276,0,0,1,.325.447l-1.288.939a.277.277,0,0,1-.3.013l-2.13-1.274.845,2.164a.276.276,0,0,1-.088.319l-2.691,2.079a.278.278,0,0,1-.275.037l-2.631-1.085.265,2.474a.278.278,0,0,1-.119.257l-2.609,1.8A.369.369,0,0,1,901.356,661.833Z" transform="translate(-859.092 -591.574)" fill="#e2cc00"/><path d="M879.491,667.747a4,4,0,0,0-3.033-.4,3.76,3.76,0,0,0-2.332,1.8,4.614,4.614,0,0,0-.455,3,7.82,7.82,0,0,0,.424,1.6c.042.133.108.263.161.4s.1.263.174.392l.409.82a26.3,26.3,0,0,1,1.6,3.743,15,15,0,0,1,.534,2.069,9.288,9.288,0,0,1,.14,2.3,5.938,5.938,0,0,1-.723,2.521,5.085,5.085,0,0,1-.4.6c-.076.093-.147.192-.23.279l-.253.26a5.236,5.236,0,0,1-1.145.835,6.319,6.319,0,0,1-.618.293c-.207.074-.418.158-.626.211a7.408,7.408,0,0,1-1.241.242,9.116,9.116,0,0,1-2.406-.068l.68-3.623a4.419,4.419,0,0,0,2.638-.112,1.75,1.75,0,0,0,.759-.614,2.677,2.677,0,0,0,.393-1.132,6.145,6.145,0,0,0,0-1.54,11.792,11.792,0,0,0-.322-1.685,23.446,23.446,0,0,0-1.211-3.425l-.391-.932c-.072-.16-.125-.334-.185-.5s-.124-.334-.169-.51a10.328,10.328,0,0,1-.418-2.151,7.726,7.726,0,0,1,.127-2.262,6.313,6.313,0,0,1,.888-2.155,5.946,5.946,0,0,1,1.639-1.668,5.866,5.866,0,0,1,6.5-.022Z" transform="translate(-859.077 -591.574)" fill="#690bd6"/><g transform="translate(23.159 21.643)"><g clip-path="url(#b)"><g transform="translate(1.584 -0.379)"><path d="M892.576,623.81a5.864,5.864,0,1,1,2.218-7.993A5.861,5.861,0,0,1,892.576,623.81Z" transform="translate(-883.828 -612.838)" fill="#fff"/><path d="M888.649,614.5a3.681,3.681,0,0,0-1.712,4.26l3.523-1.057-1.734,3.245a3.679,3.679,0,1,0-.077-6.448Z" transform="translate(-883.829 -612.838)" fill="#690bd6"/></g></g></g></g></g></g><path d="M883.013,631.69l-2.531,2.831,1.932,2.279,2.393-.243-.667,3.143,1.753,2.693,2.94-1.312Z" transform="translate(-790.395 -581.698)" fill="#f4eeb2"/><path d="M875.786,620.988l-2.83,4.488,2.415,3.59,4.823-1.933Z" transform="translate(-790.392 -581.698)" fill="#690bd6"/><path d="M890.135,642.392l-2.179,3.176,1.777,2.348,2.692-.414Z" transform="translate(-790.399 -581.698)" fill="#690bd6"/><ellipse cx="32.186" cy="32.202" rx="32.186" ry="32.202" transform="translate(63.312)" fill="none" stroke="#fff" stroke-linecap="round" stroke-linejoin="round" stroke-width="2"/><path d="M911.057,611.34a23.457,23.457,0,0,0-23.451-23.462" transform="translate(-790.399 -581.698)" fill="none" stroke="#fff" stroke-linecap="round" stroke-linejoin="round" stroke-width="2"/></g></svg>