<svg xmlns="http://www.w3.org/2000/svg" xmlns:xlink="http://www.w3.org/1999/xlink" width="467" height="486" viewBox="0 0 467 486"><defs><clipPath id="a"><circle cx="39.804" cy="39.804" r="39.804" transform="translate(756.214 93.57)" fill="none"/></clipPath><clipPath id="b"><circle cx="39.804" cy="39.804" r="39.804" transform="translate(945.098 149.113)" fill="none"/></clipPath></defs><g transform="translate(0.06)"><rect width="467" height="486" transform="translate(-0.06)" fill="none"/><g transform="translate(-639.06)"><circle cx="94.211" cy="94.211" r="94.211" transform="translate(912.647 189.173)" fill="#690bd6"/><circle cx="28.197" cy="28.197" r="28.197" transform="translate(825.471 332.715)" fill="aqua"/><path d="M911.736,269.37c-44.59-41.136-70.072-79.054-70.072-79.054l-42.138,9.9,79.763,114.026Z" fill="#e9c200"/><path d="M863.3,56.783l-9.63,32.747,106.495,31.316,9.63-32.747Zm90.891,57.4L862.3,87.164l5.835-19.842,91.893,27.022Z"/><path d="M856.921,47.207,845.762,85.158l123.416,36.291,11.16-37.95Zm105.334,66.525L855.76,82.416l6.762-22.995,106.5,31.315Z" fill="aqua"/><path d="M1028.676,118.329l-30.214-8.884a6.561,6.561,0,0,0-8.146,4.443l-.787,2.678,42.8,12.587.788-2.678A6.563,6.563,0,0,0,1028.676,118.329Z" fill="#ff6300"/><rect width="7.348" height="54.064" transform="translate(984.17 119.672) rotate(-73.613)" fill="#ffede2"/><rect width="139.452" height="322.357" transform="translate(716.161 182.561) rotate(-73.613)" fill="#ff6300"/><rect width="69.744" height="86.722" transform="translate(837.544 187.4) rotate(-73.613)" fill="#d86300"/><rect width="43.777" height="72.552" transform="translate(848.003 176.942) rotate(-73.613)" fill="none" stroke="#ff6300" stroke-linecap="round" stroke-linejoin="round" stroke-width="3"/><rect width="22.516" height="86.722" transform="translate(858.708 115.426) rotate(-73.613)" fill="#d86300"/><path d="M1025.423,273.5,716.161,182.561l10.457,29.816,273.873,80.535Z" fill="#d86300"/><rect width="114.841" height="100.582" transform="translate(731.571 174.274) rotate(-73.613)" fill="#d86300"/><rect width="114.841" height="100.582" transform="translate(920.455 229.818) rotate(-73.613)" fill="#d86300"/><circle cx="53.705" cy="53.705" r="53.705" transform="translate(742.314 79.669)" fill="#ffed00"/><circle cx="39.804" cy="39.804" r="39.804" transform="translate(756.214 93.57)" fill="aqua"/><g clip-path="url(#a)"><line x2="41.846" y2="76.709" transform="translate(814.212 75.606)" fill="none" stroke="#ffede2" stroke-linecap="round" stroke-linejoin="round" stroke-width="3"/><line x2="41.846" y2="76.709" transform="translate(801.443 82.572)" fill="none" stroke="#ffede2" stroke-linecap="round" stroke-linejoin="round" stroke-width="3"/><line x2="41.846" y2="76.709" transform="translate(788.674 89.538)" fill="none" stroke="#ffede2" stroke-linecap="round" stroke-linejoin="round" stroke-width="3"/><line x2="41.846" y2="76.709" transform="translate(775.905 96.504)" fill="none" stroke="#ffede2" stroke-linecap="round" stroke-linejoin="round" stroke-width="3"/><line x2="41.846" y2="76.709" transform="translate(763.136 103.47)" fill="none" stroke="#ffede2" stroke-linecap="round" stroke-linejoin="round" stroke-width="3"/><line x2="41.846" y2="76.709" transform="translate(750.366 110.435)" fill="none" stroke="#ffede2" stroke-linecap="round" stroke-linejoin="round" stroke-width="3"/><line x2="41.846" y2="76.709" transform="translate(737.597 117.401)" fill="none" stroke="#ffede2" stroke-linecap="round" stroke-linejoin="round" stroke-width="3"/><line x1="76.709" y2="41.846" transform="translate(737.576 75.628)" fill="none" stroke="#ffede2" stroke-linecap="round" stroke-linejoin="round" stroke-width="3"/><line x1="76.709" y2="41.846" transform="translate(744.542 88.397)" fill="none" stroke="#ffede2" stroke-linecap="round" stroke-linejoin="round" stroke-width="3"/><line x1="76.709" y2="41.846" transform="translate(751.508 101.166)" fill="none" stroke="#ffede2" stroke-linecap="round" stroke-linejoin="round" stroke-width="3"/><line x1="76.709" y2="41.846" transform="translate(758.474 113.935)" fill="none" stroke="#ffede2" stroke-linecap="round" stroke-linejoin="round" stroke-width="3"/><line x1="76.709" y2="41.846" transform="translate(765.439 126.704)" fill="none" stroke="#ffede2" stroke-linecap="round" stroke-linejoin="round" stroke-width="3"/><line x1="76.709" y2="41.846" transform="translate(772.405 139.473)" fill="none" stroke="#ffede2" stroke-linecap="round" stroke-linejoin="round" stroke-width="3"/><line x1="76.709" y2="41.846" transform="translate(779.371 152.242)" fill="none" stroke="#ffede2" stroke-linecap="round" stroke-linejoin="round" stroke-width="3"/></g><circle cx="53.705" cy="53.705" r="53.705" transform="translate(931.198 135.213)" fill="#ffed00"/><circle cx="39.804" cy="39.804" r="39.804" transform="translate(945.098 149.113)" fill="aqua"/><g clip-path="url(#b)"><line x2="41.846" y2="76.709" transform="translate(1003.097 131.15)" fill="none" stroke="#ffede2" stroke-linecap="round" stroke-linejoin="round" stroke-width="3"/><line x2="41.846" y2="76.709" transform="translate(990.328 138.116)" fill="none" stroke="#ffede2" stroke-linecap="round" stroke-linejoin="round" stroke-width="3"/><line x2="41.846" y2="76.709" transform="translate(977.558 145.081)" fill="none" stroke="#ffede2" stroke-linecap="round" stroke-linejoin="round" stroke-width="3"/><line x2="41.846" y2="76.709" transform="translate(964.789 152.047)" fill="none" stroke="#ffede2" stroke-linecap="round" stroke-linejoin="round" stroke-width="3"/><line x2="41.846" y2="76.709" transform="translate(952.02 159.013)" fill="none" stroke="#ffede2" stroke-linecap="round" stroke-linejoin="round" stroke-width="3"/><line x2="41.846" y2="76.709" transform="translate(939.251 165.979)" fill="none" stroke="#ffede2" stroke-linecap="round" stroke-linejoin="round" stroke-width="3"/><line x2="41.846" y2="76.709" transform="translate(926.482 172.945)" fill="none" stroke="#ffede2" stroke-linecap="round" stroke-linejoin="round" stroke-width="3"/><line x1="76.709" y2="41.846" transform="translate(926.461 131.171)" fill="none" stroke="#ffede2" stroke-linecap="round" stroke-linejoin="round" stroke-width="3"/><line x1="76.709" y2="41.846" transform="translate(933.426 143.94)" fill="none" stroke="#ffede2" stroke-linecap="round" stroke-linejoin="round" stroke-width="3"/><line x1="76.709" y2="41.846" transform="translate(940.392 156.709)" fill="none" stroke="#ffede2" stroke-linecap="round" stroke-linejoin="round" stroke-width="3"/><line x1="76.709" y2="41.846" transform="translate(947.358 169.478)" fill="none" stroke="#ffede2" stroke-linecap="round" stroke-linejoin="round" stroke-width="3"/><line x1="76.709" y2="41.846" transform="translate(954.324 182.248)" fill="none" stroke="#ffede2" stroke-linecap="round" stroke-linejoin="round" stroke-width="3"/><line x1="76.709" y2="41.846" transform="translate(961.29 195.017)" fill="none" stroke="#ffede2" stroke-linecap="round" stroke-linejoin="round" stroke-width="3"/><line x1="76.709" y2="41.846" transform="translate(968.256 207.786)" fill="none" stroke="#ffede2" stroke-linecap="round" stroke-linejoin="round" stroke-width="3"/></g><circle cx="4.199" cy="4.199" r="4.199" transform="translate(847.286 92.907)" fill="#ffed00"/><circle cx="4.199" cy="4.199" r="4.199" transform="translate(764.897 68.679)" fill="#ffed00"/><circle cx="4.199" cy="4.199" r="4.199" transform="translate(819.089 188.796)" fill="#ffed00"/><circle cx="4.199" cy="4.199" r="4.199" transform="translate(736.7 164.569)" fill="#ffed00"/><circle cx="4.199" cy="4.199" r="4.199" transform="translate(1036.13 148.438)" fill="#ffed00"/><circle cx="4.199" cy="4.199" r="4.199" transform="translate(953.74 124.21)" fill="#ffed00"/><circle cx="4.199" cy="4.199" r="4.199" transform="translate(1007.932 244.327)" fill="#ffed00"/><circle cx="4.199" cy="4.199" r="4.199" transform="translate(925.543 220.1)" fill="#ffed00"/><circle cx="5.65" cy="5.65" r="5.65" transform="translate(866.462 101.898)" fill="#ff6300"/><circle cx="5.65" cy="5.65" r="5.65" transform="translate(882.231 106.535)" fill="#ffed00"/><circle cx="5.65" cy="5.65" r="5.65" transform="translate(897.857 111.13)" fill="#fff"/><rect width="5.65" height="26.301" rx="2.825" transform="translate(914.851 123.146) rotate(-73.613)" fill="aqua"/><circle cx="8.333" cy="8.333" r="8.333" transform="translate(861.389 152.737)" fill="none" stroke="#ff6300" stroke-linecap="round" stroke-linejoin="round" stroke-width="3"/><circle cx="8.333" cy="8.333" r="8.333" transform="translate(899.623 163.98)" fill="none" stroke="#ff6300" stroke-linecap="round" stroke-linejoin="round" stroke-width="3"/><line x2="54.223" y2="15.945" transform="translate(866.022 144.116)" fill="none" stroke="#ff6300" stroke-linecap="round" stroke-linejoin="round" stroke-width="3"/><rect width="10.857" height="86.722" transform="translate(832.662 204.001) rotate(-73.613)" fill="none" stroke="#d86300" stroke-linecap="round" stroke-linejoin="round" stroke-width="3"/><rect width="10.337" height="39.433" transform="translate(786.375 57.853) rotate(-73.613)" fill="aqua"/><line x1="37.579" y1="37.951" transform="translate(693.992 34.927)" fill="none" stroke="#ffed00" stroke-linecap="round" stroke-miterlimit="10" stroke-width="4"/><line x1="72.893" y1="29.051" transform="translate(643.267 64.774)" fill="none" stroke="#ff6300" stroke-linecap="round" stroke-miterlimit="10" stroke-width="4"/><line x1="51.112" y1="3.363" transform="translate(661.669 120.846)" fill="none" stroke="aqua" stroke-linecap="round" stroke-miterlimit="10" stroke-width="4"/><line x1="12.193" y1="7.901" transform="translate(687.225 59.421)" fill="none" stroke="#ffede2" stroke-linecap="round" stroke-linejoin="round" stroke-width="3"/><circle cx="4.669" cy="4.669" r="4.669" transform="translate(654.944 86.086)" fill="none" stroke="#ffede2" stroke-linecap="round" stroke-linejoin="round" stroke-width="3"/><circle cx="9.828" cy="9.828" r="9.828" transform="translate(740.452 15.007)" fill="none" stroke="#ff6300" stroke-linecap="round" stroke-miterlimit="10" stroke-width="4"/><path d="M869.9,205.725s26.655-2.264,27.387-26.964l49.3,1.883-10.657,40.62-51.6-4.926Z"/><path d="M949.293,114.039c-14.455,7.379-26.621-16.235-59.219-13.892,0,0,3.354,32.007,16.908,41.141s29.523-3.958,29.523-3.958" fill="#a97261"/><path d="M893.817,104.112s30.832,8.932,39.767,28.928c0,0-11.456,13.94-24.316,7.174S893.817,104.112,893.817,104.112Z" fill="#94503b"/><path d="M914.987,112.767s-7.809-.57-7.122,2.483,13.018,5.19,13.018,5.19-4.923,1.79-3.549,5.853,10.451,3.652,10.451,3.652-7.5.557-7.867,3.749,6.028,7.02,6.028,7.02l10.478-8.876S926.983,117.4,914.987,112.767Z" fill="#a97261"/><path d="M949.727,118.822,938.381,46.087l-7.5-.193-1.621,74.372C941.1,125.688,949.727,118.822,949.727,118.822Z" fill="#94503b"/><path d="M941.917,81.9l12.236-22.1-4.614-4.171L937.185,68.955Z" fill="#94503b"/><path d="M936.13,94.441,917.9,79.491l-2.918,5.25,18.384,24.575Z" fill="#94503b"/><path d="M929.65,264.126s60.688-19.65,66.772,8.589,2.014,66.01-21.667,74.829-50.184-34.126-50.184-34.126Z" fill="#e9c200"/><path d="M860.039,382.461c-11.31,34.9,5.626,49.858,34.48,59.21s58.7,9.554,70.009-25.343-2.91-70.768-31.764-80.12S871.35,347.564,860.039,382.461Z" fill="#070117"/><path d="M860.039,382.461l-78.169,103.2h67.867l62-68.762Z" fill="#070117"/><path d="M919.113,415.545l47.526-7.04,22.388,77.16H937.036l-31.76-63.145Z" fill="#070117"/><path d="M975.861,400.725s-62.665,12.164-116.7-27.38c-8.877-14.782,7.172-28.67,12.415-44.528,9.326-28.2,10.921-64.843,27.734-61.461l70.246,11.9a20.081,20.081,0,0,1,18.555,21.8l-8.981,58.225S988.386,391.945,975.861,400.725Z" fill="#ffed00"/><path d="M934.771,386.919c-.476,11.908,3.832,23.353,8.158,34.367l17.283,43.99a3.278,3.278,0,0,0,2.584,2.054c3.156.456,10.309.488,22.8-4.419s17.708-9.8,19.71-12.281a3.281,3.281,0,0,0,.495-3.264l-17.282-43.99c-4.327-11.014-8.962-22.33-17.416-30.73-1.986-1.973-4.027-3.7-6.126-5.538L935.49,378.692C935.2,381.468,934.883,384.122,934.771,386.919Z" fill="#7cab6a"/><path d="M936.665,318.257l.337-1.342a4.994,4.994,0,0,0-6.67-5.864l-3.809,1.5-3.81,1.5a4.994,4.994,0,0,0-.9,8.836l1.161.754,5.81,14.789c8.2,20.881,7.634,31.226,6.7,40.269l29.486-11.584c-6.839-5.989-14.3-13.181-22.5-34.062Z" fill="#7cd36a"/><path d="M956.966,374.7l12.517-3.6c-1.472-1.363-2.974-2.648-4.507-3.991-1.455-1.274-2.938-2.6-4.45-4.107l-6.631.312c-2.5-3.155-5.951-4.69-8.827-3.56s-4.364,4.611-4.042,8.627l-5.072,4.286c-.085,2.126-.266,4.106-.464,6.026-.209,2.028-.435,3.993-.586,6l11.621-5.887c2.1,1.565,4.473,2.144,6.548,1.329S956.493,377.273,956.966,374.7Z" fill="#e9c200"/><rect width="45.1" height="27.662" rx="2.693" transform="translate(948.106 429.157) rotate(-21.448)" fill="#e9c200"/><path d="M981.779,337.646l-25.964,7.048s-5.663-17.116-14.18-13.992c0,0,4.725,14.254-2.89,15.64a31.2,31.2,0,0,1-7.006.249l-2.586-7.232c-5.308,2.6-4.291,11.314-2.2,18.837a13.741,13.741,0,0,0,16.016,9.751l16.212-3.33,1.382-5.989,28.448-5.535Z" fill="#d19570"/><path d="M897.481,274.755c21.423-29.434,80.728-12.218,80.728-12.218l4.005,6.219s-7.1,50.869-71.517,33.638C883.71,295.174,892.042,282.229,897.481,274.755Z" fill="#e9c200"/><path d="M901.543,280.577c19.928,17.3,63,10.978,63,10.978l7.56-73.361L922.839,216.9Z" fill="#d19570"/><path d="M913.313,245.385c20.211-.335,40.38-2.137,56.97-9.563l1.817-17.628L922.839,216.9Z" fill="#94503b"/><path d="M972.9,116.191c-38.065-8.467-64.26,6.1-67.766,30.2-2.445,16.8-20.717,13.358-31.773,13.664l4.389,9.166,71.5,19.668-35.4,35.539-26.032-8.253c6.315,4.948,14.92,8.913,26.431,11.318,53.721,11.22,90.465,3.989,94.548-35.634S1010.06,124.457,972.9,116.191Z" fill="#d19570"/><path d="M864.889,201.922c34.717,12.764,64.819,28.557,73.734-16.2l13.331.133c-3.967,38.5-30.976,42.957-30.976,42.957S862.761,222.578,864.889,201.922Z" fill="#d19570"/><path d="M868.693,170.06c2.082,12.106,37.914,33.091,69.93,15.665-.1-16.994-20.52-19.237-23.208-29.5-5.976,12.529-48.794,1.568-48.794,1.568s-7.58-.275-6.653,15.363C860.074,175.5,862.991,181.792,868.693,170.06Z" fill="#d19570"/><path d="M947.22,232.073c11.509-10.122,25.119-26.149,20.608-42.654-7.477-27.357-47.331-16.048-57.434-21.3-6.516-3.388-7.526-10.634-7.423-15.355-4.958,8.2-16.542,7.468-25.639,7.3-6.245-1.126-10.711-2.268-10.711-2.268s-7.58-.275-6.653,15.363c.106,2.343,3.023,8.637,8.725-3.094,2.075,12.068,37.69,32.956,69.63,15.822l.252.07c-8.972,44.468-39.029,28.712-73.686,15.97-2.128,20.656,56.089,26.893,56.089,26.893h0A204.972,204.972,0,0,0,947.22,232.073Z" fill="#e8c9ac"/><path d="M944.68,139.9s-5.838-6.541-13.871-3.221" fill="none" stroke="#070117" stroke-linecap="round" stroke-miterlimit="10" stroke-width="5"/><path d="M901.74,131.818s-6.581-6.366-14.693-2.294" fill="none" stroke="#070117" stroke-linecap="round" stroke-miterlimit="10" stroke-width="5"/><path d="M881.168,161.473l-9.385,13.5c-.977.017-2.261-4.38-3.308-4.5-1.3-.155-2.349,3.929-3.284,3.618L861.7,159.547C865.449,154.548,876.6,155.882,881.168,161.473Z" fill="#070117"/><path d="M859.968,173.154s1.754,10.042,8.725-3.094c10.356,25.706,57.219,27.039,69.93,15.665" fill="none" stroke="#070117" stroke-linecap="round" stroke-linejoin="round" stroke-width="3"/><path d="M906.555,284.559s-7.661,16.555-25.567-1.407c-13.551-13.594-26.083-5.519-26.083-5.519" fill="none" stroke="#ffede2" stroke-linecap="round" stroke-linejoin="round" stroke-width="3"/><path d="M940.853,296.8c-.755,3.288-1.475,6.9.062,9.9,1.036,2.024,2.944,3.435,4.392,5.188a17.248,17.248,0,0,1,3.593,10.068,37.752,37.752,0,0,1-1.29,10.757" fill="none" stroke="#ffede2" stroke-linecap="round" stroke-linejoin="round" stroke-width="3"/><path d="M916.351,293.654s-20.916,40.775-29.66,96.139" fill="none" stroke="#e9c200" stroke-linecap="round" stroke-linejoin="round" stroke-width="3"/><path d="M999.309,130.306c10.348,12.5,30.875-4.359,59.877,10.707,0,0-15.761,28.059-31.824,31.075s-25.539-15.33-25.539-15.33" fill="#d19570"/><path d="M1054.179,143.171s-31.848-4.014-47.975,10.8c0,0,5,17.338,19.485,16.221S1054.179,143.171,1054.179,143.171Z" fill="#a97261"/><path d="M1031.312,142.73s7.4,2.57,5.555,5.1-14.009-.391-14.009-.391,3.811,3.593.94,6.779-11.043-.787-11.043-.787,6.67,3.484,5.739,6.559-8.317,4.057-8.317,4.057l-6.1-12.3S1018.463,142.229,1031.312,142.73Z" fill="#d19570"/><path d="M920.506,145.032c.1.324,16.156,3.863,16.156,3.863l6.318,15.635-16.4-2.947-7.961-15.516Z" fill="#fff"/><path d="M872.364,137.492,885.01,140.4l9.176,14.607-16.949-2.03L869.65,140.82Z" fill="#fff"/><rect width="3.65" height="3.65" transform="translate(879.34 148.119) rotate(-80.471)"/><rect width="3.65" height="3.65" transform="translate(929.222 156.493) rotate(-80.471)"/><path d="M866.96,134.938l-1.191,7.1,3.6.605-.605,3.6,3.6.6-.6,3.6,3.6.6-.6,3.6,24.89,4.178.6-3.6,3.6.6.6-3.6,3.6.6,1.191-7.1,7.1,1.191-1.192,7.1,3.6.6-.6,3.6,3.6.6-.6,3.6,24.89,4.178.6-3.6,3.6.6.6-3.6,3.6.6.6-3.6,3.291.552,1.191-7.1Zm22.49,18.474-3.6-.6.6-3.6-3.6-.6-.6,3.6-3.6-.6.6-3.6-3.6-.6.6-3.6-3.6-.6.6-3.6,3.6.6-.605,3.6,3.6.6.6-3.6,3.6.6-.6,3.6,3.6.6-.605,3.6,3.6.6Zm49.882,8.373-3.6-.6.6-3.6-3.6-.6-.6,3.6-3.6-.6.6-3.6-3.6-.6.6-3.6-3.6-.605.6-3.6,3.6.6-.6,3.6,3.6.6.6-3.6,3.6.6-.6,3.6,3.6.6-.6,3.6,3.6.6Z"/><path d="M957.82,151.538l36.2,6.123,7.833,14.7-3.954,1.285-6.16-12.427-34.046-5.57Z"/><path d="M976.508,121.074l40.962-61.166,6.881,2.987-29.894,68.119C981.434,130.937,976.508,121.074,976.508,121.074Z" fill="#94503b"/><path d="M999.161,90.888l-1.776-25.195,5.943-1.836,5.583,17.289Z" fill="#94503b"/><path d="M999.119,104.7l22.836-5.867.432,5.991-27.034,14.53Z" fill="#94503b"/><ellipse cx="7.788" cy="5.192" rx="7.788" ry="5.192" transform="translate(756.527 61.32) rotate(-85.664)" fill="#d19570"/><ellipse cx="7.788" cy="5.192" rx="7.788" ry="5.192" transform="translate(766.882 62.105) rotate(-85.664)" fill="#d19570"/><path d="M777.365,55.656,778.4,40.573a3.42,3.42,0,0,1,3.518-3.185h0a3.42,3.42,0,0,1,3.308,3.191l1.15,17.226Z" fill="#d19570"/><path d="M977.887,281.745c46.831,0,74.5,38.162,71.483,63.115L967.68,360.6l-6.472-19.857,55.808-14.8a158.5,158.5,0,0,0-50.471-14.78Z" fill="#ffed00"/><path d="M982.872,335l-21.664,5.743L967.68,360.6l11.589-2.233" fill="none" stroke="#e9c200" stroke-linecap="round" stroke-linejoin="round" stroke-width="3"/></g></g></svg>