<svg xmlns="http://www.w3.org/2000/svg" xmlns:xlink="http://www.w3.org/1999/xlink" width="382.803" height="279.743" viewBox="0 0 382.803 279.743"><defs><clipPath id="a"><rect width="382.803" height="279.743" fill="none"/></clipPath></defs><g clip-path="url(#a)"><g transform="translate(14.045 9.948)"><path d="M990.951,716.2s-30.048-12.842-78.385,13.69c-44.375,24.358-77.277,15.336-77.277,15.336s5.293,25.855,42.257,43.406c-4.3,19.095-30.893,41.825-30.893,41.825s17.041,24.674,86.607-10.825c43.506-22.2,71.151-20.248,71.151-20.248Z" transform="translate(-681.272 -709.858)" fill="#690bd6"/><g transform="translate(209.705 23.085)"><ellipse cx="37.367" cy="37.385" rx="37.367" ry="37.385" fill="#5200a9"/><ellipse cx="26.863" cy="26.876" rx="26.863" ry="26.876" transform="translate(10.504 10.509)" fill="#690bd6"/><path d="M926.27,743.533a27.592,27.592,0,0,1,13.064,51.341,26.88,26.88,0,0,0-13.064-51.341Z" transform="translate(-891.021 -732.943)" fill="#3b0084"/><g transform="translate(21.848 20.38)"><path d="M924.773,774.294l-11.91-14.878,8.794-2.24,2.562,3.573c1.574,2.217,2.248,3.24,2.726,4.036l.043-.011a33.736,33.736,0,0,1,.465-4.848l.629-4.386,8.708-2.217-3.6,18.873,3.358,13.2-8.406,2.141Z" transform="translate(-912.863 -753.323)" fill="#fff"/></g></g><path d="M1000.683,857.637l6.672-14.7-.656-10.164,4.353-.57,2.885-5.773,10.755,13.765-8.089,8.22-6.346,15.087Z" transform="translate(-681.353 -709.858)" fill="#7cd36a"/><rect width="6.343" height="222.526" transform="translate(304.942 1.314) rotate(-11.911)" fill="#070117"/><path d="M1012.369,833.094l7.319-7.29,9.524,16.823-11.092,3.23Z" transform="translate(-681.359 -709.858)" fill="#7cab6a"/><path d="M1007.358,842.934l-.876-11.917,9.188-.565,2.88,7.5c-2.384,1.658-6.535-4.295-6.535-4.295s2.534,7.238-1.031,11.8" transform="translate(-681.356 -709.858)" fill="#7cd36a" stroke="#7cab6a" stroke-linecap="round" stroke-linejoin="round" stroke-width="1"/><g transform="translate(79.243 128.878)"><rect width="21.441" height="42.06" rx="1.626" transform="translate(0 18.437) rotate(-59.252)" fill="#6431a1"/><rect width="34.547" height="15.075" transform="translate(12.563 4.666) rotate(30.748)" fill="none" stroke="#4a0897" stroke-linecap="round" stroke-linejoin="round" stroke-width="2"/><g transform="translate(4.862 4.666)"><path d="M777.5,846.053l-4.453-2.651-2.65,4.456A5.181,5.181,0,0,0,777.5,846.053Z" transform="translate(-765.345 -843.402)" fill="#4a0897"/><path d="M800.095,865.525l2.649-4.455-4.453-2.651A5.185,5.185,0,0,0,800.095,865.525Z" transform="translate(-765.359 -843.402)" fill="#4a0897"/><path d="M797.689,869.566a5.18,5.18,0,0,0-7.1,1.8l4.454,2.65Z" transform="translate(-765.355 -843.402)" fill="#4a0897"/><path d="M767.993,851.9l-2.65,4.455L769.8,859A5.186,5.186,0,0,0,767.993,851.9Z" transform="translate(-765.343 -843.402)" fill="#4a0897"/></g><ellipse cx="4.496" cy="4.498" rx="4.496" ry="4.498" transform="translate(19.873 15.502)" fill="#4a0897"/></g><g transform="translate(30.6 104.985)"><path d="M747.7,853.045c-14.127-3.332-26.348-12-35.438-23.093a1.917,1.917,0,0,1,.064-2.543c5.3-4.852,7.945-7.279,13.242-12.131a1.374,1.374,0,0,1,2.044.037,50.772,50.772,0,0,0,27.264,17.767,1.375,1.375,0,0,1,.862,1.855c-2.295,6.809-3.443,10.213-5.738,17.022A1.914,1.914,0,0,1,747.7,853.045Z" transform="translate(-711.812 -814.842)" fill="#6431a1"/><path d="M746.533,849.457a80.353,80.353,0,0,1-30.518-19.887l10.536-10.583a52.9,52.9,0,0,0,25.4,16.551Z" transform="translate(-711.814 -814.842)" fill="none" stroke="#4a0897" stroke-linecap="round" stroke-linejoin="round" stroke-width="2"/><g transform="translate(4.201 4.145)"><path d="M729.71,822.4a44.684,44.684,0,0,1-3.155-3.413l-3.624,3.641A4.409,4.409,0,0,0,729.71,822.4Z" transform="translate(-716.018 -818.987)" fill="#4a0897"/><path d="M750.1,840.327c.746-1.916,1.118-2.873,1.863-4.789a44.9,44.9,0,0,1-4.4-1.508A4.416,4.416,0,0,0,750.1,840.327Z" transform="translate(-716.03 -818.987)" fill="#4a0897"/><path d="M748.408,844.669a6,6,0,0,0-7.144,2.976,53.7,53.7,0,0,0,5.281,1.812C747.291,847.542,747.664,846.584,748.408,844.669Z" transform="translate(-716.027 -818.987)" fill="#4a0897"/><path d="M719.639,825.929c-1.449,1.456-2.175,2.184-3.624,3.641a53.921,53.921,0,0,0,3.791,4.1A6.01,6.01,0,0,0,719.639,825.929Z" transform="translate(-716.015 -818.987)" fill="#4a0897"/></g><path d="M738.492,837.679a4.364,4.364,0,1,1-7.352-4.666,4.354,4.354,0,0,1,7.352,4.666Z" transform="translate(-711.821 -814.842)" fill="#4a0897"/></g><g transform="translate(37.591 152.312)"><path d="M762.428,882.29c-13.051,6.356-28,7.373-42.049,4.53a1.914,1.914,0,0,1-1.557-2.01c1.036-7.11,1.554-10.665,2.591-17.776a1.373,1.373,0,0,1,1.607-1.263,50.751,50.751,0,0,0,32.35-3.486,1.374,1.374,0,0,1,1.839.893c2.526,6.727,3.788,10.09,6.313,16.816A1.915,1.915,0,0,1,762.428,882.29Z" transform="translate(-718.806 -862.17)" fill="#6431a1"/><path d="M759.257,880.249a80.333,80.333,0,0,1-36.212,3.9l1.474-14.864a52.884,52.884,0,0,0,30.136-3.247C756.5,871.724,757.416,874.566,759.257,880.249Z" transform="translate(-718.808 -862.17)" fill="none" stroke="#4a0897" stroke-linecap="round" stroke-linejoin="round" stroke-width="2"/><g transform="translate(4.237 3.87)"><path d="M729.122,869.934a44.748,44.748,0,0,1-4.6-.647c-.2,2.045-.3,3.068-.507,5.113A4.413,4.413,0,0,0,729.122,869.934Z" transform="translate(-723.045 -866.04)" fill="#4a0897"/><path d="M756.252,870.928c-.634-1.955-.951-2.933-1.583-4.888a44.921,44.921,0,0,1-4.359,1.613A4.412,4.412,0,0,0,756.252,870.928Z" transform="translate(-723.058 -866.04)" fill="#4a0897"/><path d="M757.689,875.361a6.007,6.007,0,0,0-3.653,6.826,53.564,53.564,0,0,0,5.236-1.938C758.64,878.294,758.323,877.316,757.689,875.361Z" transform="translate(-723.06 -866.04)" fill="#4a0897"/><path d="M723.553,879.037c-.2,2.046-.3,3.068-.508,5.114a53.948,53.948,0,0,0,5.53.778A6.008,6.008,0,0,0,723.553,879.037Z" transform="translate(-723.045 -866.04)" fill="#4a0897"/></g><path d="M745.585,876.217a4.364,4.364,0,1,1-8.645,1.036,4.353,4.353,0,0,1,8.645-1.036Z" transform="translate(-718.815 -862.17)" fill="#4a0897"/></g><path d="M938.644,907.914s-40.535-4.783-40.839,13.707,5.453,34.146,21.414,36.735,28.748-20.122,28.748-20.122Z" transform="translate(-681.303 -709.858)" fill="#00d1d8"/><path d="M957.13,909.19l31.4-31.972,15.957-32.238,13.293,5.761-13.549,41.2-25.671,35.6Z" transform="translate(-681.332 -709.858)" fill="#00d1d8"/><path d="M997.036,967.668c7.176,18.042-4.22,27.711-23.479,35.379s-39.087,10.428-46.262-7.613,2.62-38.883,21.878-46.55S989.86,949.627,997.036,967.668Z" transform="translate(-681.316 -709.858)" fill="#070117"/><path d="M928.373,998.949s40.845-.165,69.84-31.725c3.731-10.387-8.07-17.11-13.334-26.415-9.362-16.547-14.924-39.358-25.056-35.141l-42.608,16.217a12.856,12.856,0,0,0-8.934,16l12.883,35.445S919.418,994.995,928.373,998.949Z" transform="translate(-681.307 -709.858)" fill="aqua"/><path d="M956.238,910.3c-15.362-14.2-46.861,2.136-46.861,2.136l-1.562,3.955s9.688,27.888,44.063,10.971C966.281,920.275,960.139,913.907,956.238,910.3Z" transform="translate(-681.308 -709.858)" fill="#00d1d8"/><path d="M955.583,915.036c-7.12,13.455-29.448,12.377-29.448,12.377L910.75,877.375l24.184-4.647Z" transform="translate(-681.309 -709.858)" fill="#7cd36a"/><path d="M923.294,918.172c8.194,1.9,20.217-1.741,30.95-5.88l-19.31-39.564-24.184,4.647Z" transform="translate(-681.309 -709.858)" fill="#7cab6a"/><path d="M968.938,833.309c13.337,13.433,29.814,45.509-10.251,65.674s-70.463,22.69-81.644-6.371A56.394,56.394,0,0,1,909.4,819.737C938.443,808.552,955.433,819.707,968.938,833.309Z" transform="translate(-681.291 -709.858)" fill="#7cd36a"/><g transform="translate(124.077 159.155)"><path d="M850.782,922.526,837.625,918.5l-2.336-4.4,2.851-9.323,2.7.828-2.509,8.2,1.237,2.328,12.036,3.685Z" transform="translate(-805.349 -869.013)" fill="#ff6300"/><path d="M866.261,935.313a86.047,86.047,0,0,1-17.738-.67l-.766-3.46,3.151-2.076-.938-20.013,14.274,4.369S865.883,919.526,866.261,935.313Z" transform="translate(-805.355 -869.013)" fill="#ff6300"/><path d="M864.245,913.463l-14.274-4.369.063,4.993,15.6,8.82C865.04,917.143,864.245,913.463,864.245,913.463Z" transform="translate(-805.356 -869.013)" fill="#d63b00"/><path d="M827.38,870.545l-2.238-1.332a1.42,1.42,0,0,0-2.083.8l-1.041,3.406a1.42,1.42,0,0,0,.942,1.773l2.419.741a1.419,1.419,0,0,0,1.772-.943l.861-2.814A1.42,1.42,0,0,0,827.38,870.545Z" transform="translate(-805.343 -869.013)" fill="#d63b00"/><path d="M872.71,919.666l-64.587-20.03a3.943,3.943,0,0,1-2.615-4.924l6.426-21.011a3.94,3.94,0,0,1,4.921-2.617l61.991,19.235a3.943,3.943,0,0,1,2.728,4.452l-3.828,21.807A3.941,3.941,0,0,1,872.71,919.666Z" transform="translate(-805.334 -869.013)" fill="#ff6300"/><path d="M877.557,934.313l-8.285-10.719s-12.083-3.743-12.154-.638c-.121,5.274,6.967,3.653,6.967,3.653a10.568,10.568,0,0,0-.975,6.753c.81,3.529,5.129,7.785,5.129,7.785Z" transform="translate(-805.36 -869.013)" fill="#7cd36a"/><rect width="8.921" height="4.87" rx="2.329" transform="matrix(0.967, 0.254, -0.254, 0.967, 39.242, 42.826)" fill="#7cd36a"/><rect width="8.921" height="4.87" rx="2.329" transform="translate(41.338 51.963) rotate(14.719)" fill="#7cd36a"/><rect width="8.921" height="4.87" rx="2.329" transform="translate(41.895 56.369) rotate(14.719)" fill="#7cd36a"/></g><path d="M912.556,924.249s1.856,3.392,7.537,8.561c18.873,17.17-21.257,40.871-21.257,40.871l-6.079-3.161-27.29-30.283,10.792-9.727L898.6,950.582S904.672,927.721,912.556,924.249Z" transform="translate(-681.287 -709.858)" fill="aqua"/><ellipse cx="11.523" cy="11.529" rx="11.523" ry="11.529" transform="translate(222.333 99.71)" fill="#7cd36a"/><ellipse cx="11.523" cy="11.529" rx="11.523" ry="11.529" transform="translate(244.995 94.428)" fill="#7cd36a"/><path d="M952.421,924.3A226.164,226.164,0,0,1,983,980.981" transform="translate(-681.329 -709.858)" fill="none" stroke="#00d1d8" stroke-linecap="round" stroke-linejoin="round" stroke-width="7"/><path d="M914.479,821.953a3.212,3.212,0,1,1,6.318-1.16" transform="translate(-681.311 -709.858)" fill="none" stroke="#070117" stroke-linecap="round" stroke-linejoin="round" stroke-width="4"/><path d="M938.756,817.225a3.212,3.212,0,1,1,6.315-1.176" transform="translate(-681.323 -709.858)" fill="none" stroke="#070117" stroke-linecap="round" stroke-linejoin="round" stroke-width="4"/><path d="M916.758,805.556a8.3,8.3,0,0,0-8.345,3.541" transform="translate(-681.308 -709.858)" fill="none" stroke="#070117" stroke-linecap="round" stroke-linejoin="round" stroke-width="4"/><path d="M934.4,800.113s6.348-2.378,9.8,2" transform="translate(-681.321 -709.858)" fill="none" stroke="#070117" stroke-linecap="round" stroke-linejoin="round" stroke-width="4"/><path d="M948.26,830.7c-31.285,14.313-46.894-.724-54.282,12.628-9.334,16.87,6.023,40.932,44.346,27.572C977.691,857.173,967.692,821.806,948.26,830.7Z" transform="translate(-681.299 -709.858)" fill="#fff" stroke="#ff6300" stroke-miterlimit="10" stroke-width="7"/><path d="M942.991,849.316c-17.477,6.382-47.617,4.974-47.617,4.974" transform="translate(-681.301 -709.858)" fill="none" stroke="#070117" stroke-linecap="round" stroke-linejoin="round" stroke-width="4"/><g transform="translate(80.359 148.139)"><rect width="21.446" height="42.058" rx="1.626" transform="translate(0 20.514) rotate(-72.987)" fill="#8c44e0"/><rect width="34.543" height="15.074" transform="translate(8.936 4.153) rotate(17.013)" fill="none" stroke="#690bd6" stroke-linecap="round" stroke-linejoin="round" stroke-width="2"/><g transform="translate(4.529 4.153)"><path d="M775.489,863.667l-4.955-1.517-1.516,4.957A5.181,5.181,0,0,0,775.489,863.667Z" transform="translate(-766.127 -862.15)" fill="#690bd6"/><path d="M802.06,877.218l1.516-4.957-4.955-1.517A5.184,5.184,0,0,0,802.06,877.218Z" transform="translate(-766.142 -862.15)" fill="#690bd6"/><path d="M800.684,881.713a5.183,5.183,0,0,0-6.472,3.441l4.956,1.517Z" transform="translate(-766.14 -862.15)" fill="#690bd6"/><path d="M767.641,871.6l-1.515,4.957,4.955,1.517A5.184,5.184,0,0,0,767.641,871.6Z" transform="translate(-766.126 -862.15)" fill="#690bd6"/></g><ellipse cx="4.496" cy="4.498" rx="4.496" ry="4.498" transform="translate(19.547 11.745)" fill="#690bd6"/></g><g transform="translate(80.359 148.139)"><rect width="21.446" height="42.058" rx="1.626" transform="translate(0 20.514) rotate(-72.987)" fill="#8c44e0"/><rect width="34.543" height="15.074" transform="translate(8.936 4.153) rotate(17.013)" fill="none" stroke="#690bd6" stroke-linecap="round" stroke-linejoin="round" stroke-width="2"/><g transform="translate(4.529 4.153)"><path d="M775.489,863.667l-4.955-1.517-1.516,4.957A5.181,5.181,0,0,0,775.489,863.667Z" transform="translate(-766.127 -862.15)" fill="#690bd6"/><path d="M802.06,877.218l1.516-4.957-4.955-1.517A5.184,5.184,0,0,0,802.06,877.218Z" transform="translate(-766.142 -862.15)" fill="#690bd6"/><path d="M800.684,881.713a5.183,5.183,0,0,0-6.472,3.441l4.956,1.517Z" transform="translate(-766.14 -862.15)" fill="#690bd6"/><path d="M767.641,871.6l-1.515,4.957,4.955,1.517A5.184,5.184,0,0,0,767.641,871.6Z" transform="translate(-766.126 -862.15)" fill="#690bd6"/></g><ellipse cx="4.496" cy="4.498" rx="4.496" ry="4.498" transform="translate(19.547 11.745)" fill="#690bd6"/></g><g transform="translate(0 162.399)"><rect width="23.499" height="11.984" rx="0.909" transform="translate(0 4.103) rotate(-10.049)" fill="#8c44e0"/><rect width="19.298" height="8.418" transform="translate(2.38 5.492) rotate(-10.049)" fill="none" stroke="#690bd6" stroke-linecap="round" stroke-linejoin="round" stroke-width="2"/><g transform="translate(2.38 2.123)"><path d="M686.428,877.243l-2.851.506.5,2.852A2.9,2.9,0,0,0,686.428,877.243Z" transform="translate(-683.577 -874.38)" fill="#690bd6"/><path d="M703.092,877.232l-.5-2.852-2.851.505A2.9,2.9,0,0,0,703.092,877.232Z" transform="translate(-683.585 -874.38)" fill="#690bd6"/><path d="M703.551,879.818a2.9,2.9,0,0,0-2.345,3.358l2.851-.506Z" transform="translate(-683.586 -874.38)" fill="#690bd6"/><path d="M684.541,883.187l.5,2.853,2.851-.506A2.9,2.9,0,0,0,684.541,883.187Z" transform="translate(-683.578 -874.38)" fill="#690bd6"/></g><ellipse cx="2.512" cy="2.513" rx="2.512" ry="2.513" transform="translate(10.456 5.152)" fill="#690bd6"/></g><g transform="translate(80.452 181.202)"><rect width="23.503" height="11.978" rx="0.909" transform="translate(0 16.737) rotate(-45.386)" fill="#8c44e0"/><rect width="19.301" height="8.413" transform="translate(2.744 16.493) rotate(-45.386)" fill="none" stroke="#690bd6" stroke-linecap="round" stroke-linejoin="round" stroke-width="2"/><g transform="translate(2.744 2.749)"><path d="M766.467,905.491l-2.034,2.062,2.061,2.035A2.9,2.9,0,0,0,766.467,905.491Z" transform="translate(-764.433 -893.809)" fill="#690bd6"/><path d="M780.054,895.843l-2.061-2.034-2.033,2.062A2.894,2.894,0,0,0,780.054,895.843Z" transform="translate(-764.439 -893.809)" fill="#690bd6"/><path d="M781.926,897.688a2.9,2.9,0,0,0,.027,4.1l2.034-2.062Z" transform="translate(-764.441 -893.809)" fill="#690bd6"/><path d="M768.365,911.432l2.061,2.035,2.034-2.062A2.9,2.9,0,0,0,768.365,911.432Z" transform="translate(-764.435 -893.809)" fill="#690bd6"/></g><ellipse cx="2.512" cy="2.513" rx="2.512" ry="2.513" transform="translate(10.127 9.626)" fill="#690bd6"/></g><g transform="translate(34.366 130.96)"><rect width="14.235" height="27.911" rx="1.079" transform="translate(0 14.115) rotate(-82.511)" fill="#8c44e0"/><rect width="22.922" height="10.002" transform="translate(4.053 2.425) rotate(7.489)" fill="none" stroke="#690bd6" stroke-linecap="round" stroke-linejoin="round" stroke-width="2"/><g transform="translate(2.75 2.425)"><path d="M723.043,843.691l-3.409-.448-.449,3.411A3.44,3.44,0,0,0,723.043,843.691Z" transform="translate(-718.33 -843.243)" fill="#690bd6"/><path d="M741.921,849.643l.448-3.411-3.409-.448A3.441,3.441,0,0,0,741.921,849.643Z" transform="translate(-718.34 -843.243)" fill="#690bd6"/><path d="M741.513,852.736a3.44,3.44,0,0,0-3.857,2.963l3.409.448Z" transform="translate(-718.339 -843.243)" fill="#690bd6"/><path d="M718.779,849.747l-.449,3.411,3.409.449A3.441,3.441,0,0,0,718.779,849.747Z" transform="translate(-718.33 -843.243)" fill="#690bd6"/></g><ellipse cx="2.984" cy="2.985" rx="2.984" ry="2.985" transform="translate(12.283 5.694)" fill="#690bd6"/></g><g transform="translate(77.563 104.037)"><path d="M786.772,856.449c-12.687-7.055-22.088-18.724-27.816-31.873a1.916,1.916,0,0,1,.754-2.429l16.042-8.068a1.373,1.373,0,0,1,1.956.594,50.8,50.8,0,0,0,21.4,24.521,1.374,1.374,0,0,1,.324,2.019l-10.153,14.816A1.913,1.913,0,0,1,786.772,856.449Z" transform="translate(-758.798 -813.895)" fill="#8c44e0"/><path d="M786.627,852.678a80.385,80.385,0,0,1-23.955-27.448l13.018-7.313a52.936,52.936,0,0,0,19.935,22.843Z" transform="translate(-758.799 -813.895)" fill="none" stroke="#690bd6" stroke-linecap="round" stroke-linejoin="round" stroke-width="2"/><g transform="translate(3.872 4.022)"><path d="M777.8,822.06a44.87,44.87,0,0,1-2.108-4.143l-4.479,2.516A4.412,4.412,0,0,0,777.8,822.06Z" transform="translate(-762.676 -817.917)" fill="#690bd6"/><path d="M792.543,844.86c1.238-1.64,1.858-2.46,3.1-4.1a45.085,45.085,0,0,1-3.819-2.649A4.416,4.416,0,0,0,792.543,844.86Z" transform="translate(-762.686 -817.917)" fill="#690bd6"/><path d="M789.732,848.578a6,6,0,0,0-7.685.918,53.763,53.763,0,0,0,4.59,3.182Z" transform="translate(-762.682 -817.917)" fill="#690bd6"/><path d="M767.15,822.714l-4.478,2.516a53.845,53.845,0,0,0,2.533,4.979A6.008,6.008,0,0,0,767.15,822.714Z" transform="translate(-762.672 -817.917)" fill="#690bd6"/></g><path d="M782.093,839.153a4.365,4.365,0,1,1-5.805-6.492,4.355,4.355,0,0,1,5.805,6.492Z" transform="translate(-758.805 -813.895)" fill="#690bd6"/></g><g transform="translate(36.714 163.185)"><path d="M718.287,898.795c7.881-12.194,20.146-20.8,33.642-25.643a1.913,1.913,0,0,1,2.372.915l6.976,16.552a1.376,1.376,0,0,1-.722,1.914,50.777,50.777,0,0,0-25.882,19.727,1.372,1.372,0,0,1-2.035.189c-5.64-4.449-8.46-6.674-14.1-11.124A1.914,1.914,0,0,1,718.287,898.795Z" transform="translate(-717.928 -873.043)" fill="#8c44e0"/><path d="M722.059,898.9a80.369,80.369,0,0,1,28.971-22.082l6.426,13.482a52.917,52.917,0,0,0-24.111,18.378Z" transform="translate(-717.93 -873.043)" fill="none" stroke="#690bd6" stroke-linecap="round" stroke-linejoin="round" stroke-width="2"/><g transform="translate(4.129 3.774)"><path d="M753.2,892.127a44.864,44.864,0,0,1,4.273-1.828l-2.211-4.638A4.415,4.415,0,0,0,753.2,892.127Z" transform="translate(-722.074 -876.817)" fill="#690bd6"/><path d="M729.466,905.313l3.882,3.364a44.668,44.668,0,0,1,2.9-3.636A4.411,4.411,0,0,0,729.466,905.313Z" transform="translate(-722.063 -876.817)" fill="#690bd6"/><path d="M725.941,902.263a6.01,6.01,0,0,0-.4-7.733,53.893,53.893,0,0,0-3.479,4.369C723.612,900.245,724.388,900.918,725.941,902.263Z" transform="translate(-722.059 -876.817)" fill="#690bd6"/><path d="M753.252,881.455l-2.211-4.638a53.738,53.738,0,0,0-5.133,2.2A6,6,0,0,0,753.252,881.455Z" transform="translate(-722.071 -876.817)" fill="#690bd6"/></g><path d="M735.856,895.27a4.364,4.364,0,1,1,6.862-5.362,4.354,4.354,0,0,1-6.862,5.362Z" transform="translate(-717.936 -873.043)" fill="#690bd6"/></g></g></g></svg>