<?xml version="1.0" encoding="utf-8"?>
<!-- Generator: Adobe Illustrator 25.2.3, SVG Export Plug-In . SVG Version: 6.00 Build 0)  -->
<svg version="1.1" id="Layer_1" xmlns="http://www.w3.org/2000/svg" xmlns:xlink="http://www.w3.org/1999/xlink" x="0px" y="0px"
	 viewBox="0 0 467 486" style="enable-background:new 0 0 467 486;" xml:space="preserve">
<style type="text/css">
	.st0{fill:none;}
	.st1{fill:#00FFFF;}
	.st2{fill:none;stroke:#000000;stroke-width:3.0748;stroke-miterlimit:10;}
	.st3{fill:none;stroke:#000000;stroke-width:3.0748;stroke-linecap:round;stroke-miterlimit:10;}
	.st4{fill:#fff;}
	.st5{fill:#fff;}
	.st6{fill:none;stroke:#fff;stroke-width:8.7995;stroke-miterlimit:10;}
	.st7{fill:none;stroke:#000000;stroke-width:8.7995;stroke-linecap:round;stroke-miterlimit:10;}
	.st8{fill:none;stroke:#fff;stroke-width:8.7995;stroke-linecap:round;stroke-miterlimit:10;}
	.st9{fill:#D19570;}
	.st10{fill:#E9C200;}
	.st11{fill:#FF6300;}
	.st12{fill:#FFEDE2;}
	.st13{fill:#D86300;}
	.st14{fill:none;stroke:#FF6300;stroke-width:3;stroke-linecap:round;stroke-linejoin:round;}
	.st15{fill:#FFED00;}
	.st16{clip-path:url(#SVGID_2_);}
	.st17{fill:none;stroke:#FFEDE2;stroke-width:3;stroke-linecap:round;stroke-linejoin:round;}
	.st18{clip-path:url(#SVGID_4_);}
	.st19{fill:none;stroke:#D86300;stroke-width:3;stroke-linecap:round;stroke-linejoin:round;}
	.st20{fill:none;stroke:#FFED00;stroke-width:4;stroke-linecap:round;stroke-miterlimit:10;}
	.st21{fill:none;stroke:#FF6300;stroke-width:4;stroke-linecap:round;stroke-miterlimit:10;}
	.st22{fill:none;stroke:#00FFFF;stroke-width:4;stroke-linecap:round;stroke-miterlimit:10;}
	.st23{fill:#A97261;}
	.st24{fill:#94503B;}
	.st25{fill:#070117;}
	.st26{fill:#E8C9AC;}
	.st27{fill:none;stroke:#070117;stroke-width:5;stroke-linecap:round;stroke-miterlimit:10;}
	.st28{fill:none;stroke:#070117;stroke-width:3;stroke-linecap:round;stroke-linejoin:round;}
	.st29{fill:none;stroke:#E9C200;stroke-width:3;stroke-linecap:round;stroke-linejoin:round;}
	.st30{fill:none;stroke:#fff;stroke-width:7;stroke-miterlimit:10;}
	.st31{fill:none;stroke:#fff;stroke-width:5;stroke-miterlimit:10;}
	.st32{fill:none;stroke:#fff;stroke-width:3;stroke-miterlimit:10;}
	.st33{fill:none;stroke:#fff;stroke-width:4;stroke-linecap:round;stroke-miterlimit:10;}
	.st34{fill:none;stroke:#fff;stroke-width:4;stroke-linecap:round;stroke-miterlimit:10;}
	.st35{fill:none;stroke:#000000;stroke-width:2.2214;stroke-miterlimit:10;}
	.st36{fill:none;stroke:#000000;stroke-width:2.2214;stroke-linecap:round;stroke-miterlimit:10;}
</style>
<g transform="translate(0.06)">
	<rect x="-0.1" class="st0" width="467" height="486"/>
	<g transform="translate(-639.06)">
		<g>
			<circle class="st1" cx="846.8" cy="364.6" r="31.9"/>
			<circle cx="838.9" cy="356.5" r="3.7"/>
			<circle cx="854.7" cy="356.5" r="3.7"/>
			<path class="st2" d="M866.9,369.9c-2.7,8.6-10.7,14.8-20.1,14.8c-9.4,0-17.4-6.1-20.1-14.6"/>
			<line class="st3" x1="824.1" y1="371.1" x2="829.1" y2="369.2"/>
			<line class="st3" x1="869.4" y1="371.1" x2="864.5" y2="369.2"/>
		</g>
		<g>
			<circle class="st4" cx="1010.2" cy="283.4" r="91.4"/>
			<circle cx="987.5" cy="260.2" r="10.7"/>
			<circle class="st5" cx="1032.9" cy="260.2" r="10.7"/>
			<path class="st6" d="M1067.8,298.3c-7.6,24.6-30.6,42.4-57.6,42.4c-26.9,0-49.7-17.6-57.5-41.9"/>
			<line class="st7" x1="945.4" y1="301.7" x2="959.6" y2="296.5"/>
			<line class="st8" x1="1074.9" y1="301.7" x2="1060.7" y2="296.5"/>
		</g>
		<path class="st9" d="M1061.1,281.5l8.2-15c0,0,13.5-12.8,7.3-20.9c-6.2-8.1-17.4-4-16.3-1.1c1.2,2.9,8.2,1.5,9.6,5.7
			c1.4,4.1-2.2,7.2-5.4,7.9c-3.2,0.7-4.9-0.3-6-3.7c-1.2-3.5,2.6-6.2,1.3-9.6c-1.3-3.4-9.4,2.1-8.6,8.5c0.7,6.4,5.1,8.4,5.1,8.4
			l-9.2,10.4L1061.1,281.5z"/>
		<polygon class="st5" points="1067.3,249 1047.8,224.5 1043.1,229 1064.4,251.4 		"/>
		<path class="st9" d="M1075.3,255.8c4.7,3.1,15.8-7.6,16.6-3.3c0.8,4.3-11.9,14.3-21.5,11.6L1075.3,255.8z"/>
		<path class="st9" d="M1072.5,263.8c1.6,5.4,13.8,2.5,11.7,6.3s-14.7,6-20.3-2.2L1072.5,263.8z"/>
		<path class="st10" d="M911.7,269.4c-44.6-41.1-70.1-79.1-70.1-79.1l-42.1,9.9l79.8,114L911.7,269.4z"/>
		<path d="M863.3,56.8l-9.6,32.7l106.5,31.3l9.6-32.7L863.3,56.8z M954.2,114.2l-91.9-27l5.8-19.8l91.9,27L954.2,114.2z"/>
		<path class="st1" d="M856.9,47.2l-11.2,38l123.4,36.3l11.2-38L856.9,47.2z M962.3,113.7L855.8,82.4l6.8-23L969,90.7L962.3,113.7z"
			/>
		<path class="st11" d="M1028.7,118.3l-30.2-8.9c-3.5-1-7.1,1-8.1,4.4c0,0,0,0,0,0l-0.8,2.7l42.8,12.6l0.8-2.7
			C1034.1,123,1032.2,119.4,1028.7,118.3z"/>

			<rect x="1007.5" y="96.7" transform="matrix(0.2821 -0.9594 0.9594 0.2821 607.1279 1058.92)" class="st12" width="7.3" height="54.1"/>

			<rect x="820.7" y="0" transform="matrix(0.2821 -0.9594 0.9594 0.2821 484.6487 969.9694)" class="st11" width="139.5" height="322.4"/>

			<rect x="854.1" y="122.8" transform="matrix(0.2821 -0.9594 0.9594 0.2821 478.7516 972.1647)" class="st13" width="69.7" height="86.7"/>

			<rect x="867.1" y="129.9" transform="matrix(0.2821 -0.9594 0.9594 0.2821 478.7515 972.163)" class="st14" width="43.8" height="72.6"/>

			<rect x="892.2" y="73.5" transform="matrix(0.2821 -0.9594 0.9594 0.2821 536.478 950.6724)" class="st13" width="22.5" height="86.7"/>
		<path class="st13" d="M1025.4,273.5l-309.3-90.9l10.5,29.8l273.9,80.5L1025.4,273.5z"/>

			<rect x="738.6" y="83.1" transform="matrix(0.2821 -0.9594 0.9594 0.2821 443.4865 859.4291)" class="st13" width="114.8" height="100.6"/>

			<rect x="927.5" y="138.6" transform="matrix(0.2821 -0.9594 0.9594 0.2821 525.7942 1080.514)" class="st13" width="114.8" height="100.6"/>
		<circle class="st15" cx="796" cy="133.4" r="53.7"/>
		<circle class="st1" cx="796" cy="133.4" r="39.8"/>
		<g>
			<defs>
				<circle id="SVGID_1_" cx="796" cy="133.4" r="39.8"/>
			</defs>
			<clipPath id="SVGID_2_">
				<use xlink:href="#SVGID_1_"  style="overflow:visible;"/>
			</clipPath>
			<g class="st16">
				<line class="st17" x1="814.2" y1="75.6" x2="856.1" y2="152.3"/>
				<line class="st17" x1="801.4" y1="82.6" x2="843.3" y2="159.3"/>
				<line class="st17" x1="788.7" y1="89.5" x2="830.5" y2="166.2"/>
				<line class="st17" x1="775.9" y1="96.5" x2="817.8" y2="173.2"/>
				<line class="st17" x1="763.1" y1="103.5" x2="805" y2="180.2"/>
				<line class="st17" x1="750.4" y1="110.4" x2="792.2" y2="187.1"/>
				<line class="st17" x1="737.6" y1="117.4" x2="779.4" y2="194.1"/>
				<line class="st17" x1="814.3" y1="75.6" x2="737.6" y2="117.5"/>
				<line class="st17" x1="821.3" y1="88.4" x2="744.5" y2="130.2"/>
				<line class="st17" x1="828.2" y1="101.2" x2="751.5" y2="143"/>
				<line class="st17" x1="835.2" y1="113.9" x2="758.5" y2="155.8"/>
				<line class="st17" x1="842.1" y1="126.7" x2="765.4" y2="168.6"/>
				<line class="st17" x1="849.1" y1="139.5" x2="772.4" y2="181.3"/>
				<line class="st17" x1="856.1" y1="152.2" x2="779.4" y2="194.1"/>
			</g>
		</g>
		<circle class="st15" cx="984.9" cy="188.9" r="53.7"/>
		<circle class="st1" cx="984.9" cy="188.9" r="39.8"/>
		<g>
			<defs>
				<circle id="SVGID_3_" cx="984.9" cy="188.9" r="39.8"/>
			</defs>
			<clipPath id="SVGID_4_">
				<use xlink:href="#SVGID_3_"  style="overflow:visible;"/>
			</clipPath>
			<g class="st18">
				<line class="st17" x1="1003.1" y1="131.1" x2="1044.9" y2="207.9"/>
				<line class="st17" x1="990.3" y1="138.1" x2="1032.2" y2="214.8"/>
				<line class="st17" x1="977.6" y1="145.1" x2="1019.4" y2="221.8"/>
				<line class="st17" x1="964.8" y1="152" x2="1006.6" y2="228.8"/>
				<line class="st17" x1="952" y1="159" x2="993.9" y2="235.7"/>
				<line class="st17" x1="939.3" y1="166" x2="981.1" y2="242.7"/>
				<line class="st17" x1="926.5" y1="172.9" x2="968.3" y2="249.7"/>
				<line class="st17" x1="1003.2" y1="131.2" x2="926.5" y2="173"/>
				<line class="st17" x1="1010.1" y1="143.9" x2="933.4" y2="185.8"/>
				<line class="st17" x1="1017.1" y1="156.7" x2="940.4" y2="198.6"/>
				<line class="st17" x1="1024.1" y1="169.5" x2="947.4" y2="211.3"/>
				<line class="st17" x1="1031" y1="182.2" x2="954.3" y2="224.1"/>
				<line class="st17" x1="1038" y1="195" x2="961.3" y2="236.9"/>
				<line class="st17" x1="1045" y1="207.8" x2="968.3" y2="249.6"/>
			</g>
		</g>
		<circle class="st15" cx="851.5" cy="97.1" r="4.2"/>
		<circle class="st15" cx="769.1" cy="72.9" r="4.2"/>
		<circle class="st15" cx="823.3" cy="193" r="4.2"/>
		<circle class="st15" cx="740.9" cy="168.8" r="4.2"/>
		<circle class="st15" cx="1040.3" cy="152.6" r="4.2"/>
		<circle class="st15" cx="957.9" cy="128.4" r="4.2"/>
		<circle class="st15" cx="1012.1" cy="248.5" r="4.2"/>
		<circle class="st15" cx="929.7" cy="224.3" r="4.2"/>
		<circle class="st11" cx="872.1" cy="107.5" r="5.7"/>
		<circle class="st15" cx="887.9" cy="112.2" r="5.7"/>
		<circle class="st5" cx="903.5" cy="116.8" r="5.7"/>
		<path class="st1" d="M915.6,120.4L915.6,120.4c0.4-1.5,2-2.4,3.5-1.9l19.8,5.8c1.5,0.4,2.4,2,1.9,3.5l0,0c-0.4,1.5-2,2.4-3.5,1.9
			l-19.8-5.8C916.1,123.5,915.2,121.9,915.6,120.4z"/>
		<circle class="st14" cx="869.7" cy="161.1" r="8.3"/>
		<circle class="st14" cx="908" cy="172.3" r="8.3"/>
		<line class="st14" x1="866" y1="144.1" x2="920.2" y2="160.1"/>

			<rect x="870.4" y="167.7" transform="matrix(0.2821 -0.9594 0.9594 0.2821 426.2571 991.7073)" class="st19" width="10.9" height="86.7"/>

			<rect x="801.6" y="38.7" transform="matrix(0.2821 -0.9594 0.9594 0.2821 523.0634 815.9418)" class="st1" width="10.3" height="39.4"/>
		<line class="st20" x1="731.6" y1="72.9" x2="694" y2="34.9"/>
		<line class="st21" x1="716.2" y1="93.8" x2="643.3" y2="64.8"/>
		<line class="st22" x1="712.8" y1="124.2" x2="661.7" y2="120.8"/>
		<line class="st17" x1="699.4" y1="67.3" x2="687.2" y2="59.4"/>
		<circle class="st17" cx="659.6" cy="90.8" r="4.7"/>
		<circle class="st21" cx="750.3" cy="24.8" r="9.8"/>
		<path class="st23" d="M949.3,114c-14.5,7.4-26.6-16.2-59.2-13.9c0,0,3.4,32,16.9,41.1s29.5-4,29.5-4"/>
		<path class="st24" d="M893.8,104.1c0,0,30.8,8.9,39.8,28.9c0,0-11.5,13.9-24.3,7.2S893.8,104.1,893.8,104.1z"/>
		<path class="st23" d="M915,112.8c0,0-7.8-0.6-7.1,2.5s13,5.2,13,5.2s-4.9,1.8-3.5,5.9c1.4,4.1,10.5,3.7,10.5,3.7s-7.5,0.6-7.9,3.7
			s6,7,6,7l10.5-8.9C936.4,131.8,927,117.4,915,112.8z"/>
		<path class="st24" d="M949.7,118.8l-11.3-72.7l-7.5-0.2l-1.6,74.4C941.1,125.7,949.7,118.8,949.7,118.8z"/>
		<path class="st24" d="M941.9,81.9l12.2-22.1l-4.6-4.2L937.2,69L941.9,81.9z"/>
		<path class="st24" d="M936.1,94.4l-18.2-15l-2.9,5.2l18.4,24.6L936.1,94.4z"/>
		<path class="st10" d="M929.7,264.1c0,0,60.7-19.6,66.8,8.6s2,66-21.7,74.8s-50.2-34.1-50.2-34.1L929.7,264.1z"/>
		<path class="st25" d="M860,382.5c-11.3,34.9,5.6,49.9,34.5,59.2s58.7,9.6,70-25.3s-2.9-70.8-31.8-80.1S871.3,347.6,860,382.5z"/>
		<path class="st25" d="M860,382.5l-78.2,103.2h67.9l62-68.8L860,382.5z"/>
		<path class="st25" d="M919.1,415.5l47.5-7l22.4,77.2h-52l-31.8-63.1L919.1,415.5z"/>
		<path class="st15" d="M975.9,400.7c0,0-62.7,12.2-116.7-27.4c-8.9-14.8,7.2-28.7,12.4-44.5c9.3-28.2,10.9-64.8,27.7-61.5
			l70.2,11.9c11.1,0.8,19.4,10.4,18.6,21.5c0,0.1,0,0.2,0,0.3l-9,58.2C979.1,359.3,988.4,391.9,975.9,400.7z"/>
		<path class="st10" d="M897.5,274.8c21.4-29.4,80.7-12.2,80.7-12.2l4,6.2c0,0-7.1,50.9-71.5,33.6
			C883.7,295.2,892,282.2,897.5,274.8z"/>
		<path class="st9" d="M901.5,280.6c19.9,17.3,63,11,63,11l7.6-73.4l-49.3-1.3L901.5,280.6z"/>
		<path class="st24" d="M913.3,245.4c20.2-0.3,40.4-2.1,57-9.6l1.8-17.6l-49.3-1.3L913.3,245.4z"/>
		<path class="st9" d="M972.9,116.2c-38.1-8.5-64.3,6.1-67.8,30.2c-2.4,16.8-20.7,13.4-31.8,13.7l4.4,9.2l71.5,19.7l-35.4,35.5
			l-26-8.3c6.3,4.9,14.9,8.9,26.4,11.3c53.7,11.2,90.5,4,94.5-35.6S1010.1,124.5,972.9,116.2z"/>
		<path class="st9" d="M868.7,170.1c2.1,12.1,37.9,33.1,69.9,15.7c-0.1-17-20.5-19.2-23.2-29.5c-6,12.5-48.8,1.6-48.8,1.6
			s-7.6-0.3-6.7,15.4C860.1,175.5,863,181.8,868.7,170.1z"/>
		<path class="st26" d="M947.2,232.1c11.5-10.1,25.1-26.1,20.6-42.7c-7.5-27.4-47.3-16-57.4-21.3c-6.5-3.4-7.5-10.6-7.4-15.4
			c-5,8.2-16.5,7.5-25.6,7.3c-6.2-1.1-10.7-2.3-10.7-2.3s-7.6-0.3-6.7,15.4c0.1,2.3,3,8.6,8.7-3.1c2.1,12.1,37.7,33,69.6,15.8
			l0.3,0.1c-64.3-7.2-75.9-36.1-78.6-9.4c-1.3,38.4,61,52.2,61,52.2l0,0C929.6,230.5,938.4,231.6,947.2,232.1z"/>
		<path class="st25" d="M861.7,177.2l8-7.1l6.1,10.6c0,0-2.7,8.5-8.4,8.2S861.7,177.2,861.7,177.2z"/>
		<path class="st27" d="M944.7,139.9c0,0-5.8-6.5-13.9-3.2"/>
		<path class="st27" d="M901.7,131.8c0,0-6.6-6.4-14.7-2.3"/>
		<path class="st25" d="M881.2,161.5l-9.4,13.5c-1,0-2.3-4.4-3.3-4.5c-1.3-0.2-2.3,3.9-3.3,3.6l-3.5-14.5
			C865.4,154.5,876.6,155.9,881.2,161.5z"/>
		<path class="st28" d="M860,173.2c0,0,1.8,10,8.7-3.1c10.4,25.7,57.2,27,69.9,15.7"/>
		<path class="st17" d="M906.6,284.6c0,0-7.7,16.6-25.6-1.4c-13.6-13.6-26.1-5.5-26.1-5.5"/>
		<path class="st17" d="M940.9,296.8c-0.8,3.3-1.5,6.9,0.1,9.9c1,2,2.9,3.4,4.4,5.2c2.2,2.9,3.5,6.4,3.6,10.1
			c0.1,3.6-0.3,7.3-1.3,10.8"/>
		<path class="st29" d="M916.4,293.7c0,0-20.9,40.8-29.7,96.1"/>
		<path class="st9" d="M999.3,130.3c10.3,12.5,30.9-4.4,59.9,10.7c0,0-15.8,28.1-31.8,31.1s-25.5-15.3-25.5-15.3"/>
		<path class="st23" d="M1054.2,143.2c0,0-31.8-4-48,10.8c0,0,5,17.3,19.5,16.2S1054.2,143.2,1054.2,143.2z"/>
		<path class="st9" d="M1031.3,142.7c0,0,7.4,2.6,5.6,5.1s-14-0.4-14-0.4s3.8,3.6,0.9,6.8s-11-0.8-11-0.8s6.7,3.5,5.7,6.6
			s-8.3,4.1-8.3,4.1l-6.1-12.3C1004.1,151.7,1018.5,142.2,1031.3,142.7z"/>
		<g>
			<path class="st5" d="M920.5,145c0.1,0.3,16.2,3.9,16.2,3.9l6.3,15.6l-16.4-2.9l-8-15.5L920.5,145z"/>
			<path class="st5" d="M872.4,137.5l12.6,2.9l9.2,14.6l-16.9-2l-7.6-12.2L872.4,137.5z"/>
			<rect x="879.6" y="144.8" transform="matrix(0.1655 -0.9862 0.9862 0.1655 590.9239 991.6284)" width="3.7" height="3.7"/>
			<rect x="929.5" y="153.2" transform="matrix(0.1655 -0.9862 0.9862 0.1655 624.2896 1047.8098)" width="3.7" height="3.7"/>
			<path d="M867,134.9l-1.2,7.1l3.6,0.6l-0.6,3.6l3.6,0.6l-0.6,3.6l3.6,0.6l-0.6,3.6l24.9,4.2l0.6-3.6l3.6,0.6l0.6-3.6l3.6,0.6
				l1.2-7.1l7.1,1.2l-1.2,7.1l3.6,0.6l-0.6,3.6l3.6,0.6l-0.6,3.6l24.9,4.2l0.6-3.6l3.6,0.6l0.6-3.6l3.6,0.6l0.6-3.6l3.3,0.6l1.2-7.1
				L867,134.9z M889.5,153.4l-3.6-0.6l0.6-3.6l-3.6-0.6l-0.6,3.6l-3.6-0.6l0.6-3.6l-3.6-0.6l0.6-3.6l-3.6-0.6l0.6-3.6l3.6,0.6
				l-0.6,3.6l3.6,0.6l0.6-3.6l3.6,0.6l-0.6,3.6l3.6,0.6l-0.6,3.6l3.6,0.6L889.5,153.4z M939.3,161.8l-3.6-0.6l0.6-3.6l-3.6-0.6
				l-0.6,3.6l-3.6-0.6l0.6-3.6l-3.6-0.6l0.6-3.6l-3.6-0.6l0.6-3.6l3.6,0.6l-0.6,3.6l3.6,0.6l0.6-3.6l3.6,0.6l-0.6,3.6l3.6,0.6
				l-0.6,3.6l3.6,0.6L939.3,161.8z"/>
			<path d="M957.8,151.5l36.2,6.1l7.8,14.7l-4,1.3l-6.2-12.4l-34-5.6L957.8,151.5z"/>
		</g>
		<path class="st24" d="M976.5,121.1l41-61.2l6.9,3L994.5,131C981.4,130.9,976.5,121.1,976.5,121.1z"/>
		<path class="st24" d="M999.2,90.9l-1.8-25.2l5.9-1.8l5.6,17.3L999.2,90.9z"/>
		<path class="st24" d="M999.1,104.7l22.8-5.9l0.4,6l-27,14.5L999.1,104.7z"/>

			<ellipse transform="matrix(7.560524e-02 -0.9971 0.9971 7.560524e-02 650.8672 809.9793)" class="st9" cx="762.3" cy="53.9" rx="7.8" ry="5.2"/>

			<ellipse transform="matrix(7.560524e-02 -0.9971 0.9971 7.560524e-02 659.6566 821.0303)" class="st9" cx="772.6" cy="54.7" rx="7.8" ry="5.2"/>
		<path class="st9" d="M777.4,55.7l1-15.1c0.1-1.8,1.7-3.2,3.5-3.2l0,0c1.8,0.1,3.2,1.4,3.3,3.2l1.2,17.2L777.4,55.7z"/>
		<path class="st15" d="M977.9,281.7c33.3,9.8,45,18.7,45,18.7l27.4-35.4l16.1,10.2l-33,63c-15.9-7.7-49.3-25-66.8-27.1L977.9,281.7
			z"/>
		<path class="st9" d="M1051.8,249.5c0.5-1.3,4.8-6.9,7.4-5.8c2.5,1.1,0.7,4.1,0.7,4.1l-6.6,2.3
			C1053.3,250.1,1051.3,250.8,1051.8,249.5z"/>
		<g>
			<path class="st30" d="M788.6,175c0,3.3-4.1,6.4-4.4,9.5c-0.3,3.3,3.2,7.1,2.7,10.2c-0.6,3.3-5.3,5.6-6.2,8.5
				c-1,3.3,1.5,7.9,0.1,10.5c-1.6,3.2-6.7,3.6-8.7,5.6c-2.6,2.6-4.1,7.5-7.2,7.5c-3,0-4.5-4.9-7.2-7.5c-2-2-7.1-2.4-8.7-5.6
				c-1.3-2.7,1.1-7.2,0.1-10.5c-0.9-2.9-5.6-5.1-6.2-8.5c-0.6-3.1,3-6.8,2.7-10.2c-0.3-3.1-4.4-6.2-4.4-9.5c0-3.3,4.1-6.4,4.4-9.5
				c0.3-3.3-3.2-7.1-2.7-10.2c0.6-3.3,5.3-5.6,6.2-8.5c1-3.3-1.5-7.9-0.1-10.5c1.6-3.2,6.7-3.6,8.7-5.6c2.6-2.6,4.1-7.5,7.2-7.5
				c3,0,4.5,4.9,7.2,7.5c2,2,7.1,2.4,8.7,5.6c1.3,2.7-1.1,7.2-0.1,10.5c0.9,2.9,5.6,5.1,6.2,8.5c0.6,3.1-3,6.8-2.7,10.2
				C784.4,168.6,788.6,171.7,788.6,175z"/>
		</g>
		<g>
			<path class="st31" d="M830.7,177.6c0,2-2.5,3.9-2.7,5.9c-0.2,2.1,2,4.4,1.6,6.3c-0.4,2.1-3.2,3.4-3.8,5.2
				c-0.6,2.1,0.9,4.8,0.1,6.5c-1,2-4.1,2.2-5.4,3.4c-1.6,1.6-2.5,4.6-4.4,4.6c-1.9,0-2.8-3-4.4-4.6c-1.2-1.2-4.4-1.5-5.4-3.4
				c-0.8-1.6,0.7-4.4,0.1-6.5c-0.6-1.8-3.4-3.2-3.8-5.2c-0.3-1.9,1.8-4.2,1.6-6.3c-0.2-1.9-2.7-3.8-2.7-5.9c0-2,2.5-3.9,2.7-5.9
				c0.2-2.1-2-4.4-1.6-6.3c0.4-2.1,3.2-3.4,3.8-5.2c0.6-2.1-0.9-4.8-0.1-6.5c1-2,4.1-2.2,5.4-3.4c1.6-1.6,2.5-4.6,4.4-4.6
				c1.9,0,2.8,3,4.4,4.6c1.2,1.2,4.4,1.5,5.4,3.4c0.8,1.6-0.7,4.4-0.1,6.5c0.6,1.8,3.4,3.2,3.8,5.2c0.3,1.9-1.8,4.2-1.6,6.3
				C828.1,173.7,830.7,175.6,830.7,177.6z"/>
		</g>
		<g>
			<path class="st32" d="M852.9,177.6c0,0.8-1,1.5-1.1,2.3c-0.1,0.8,0.8,1.7,0.6,2.4c-0.1,0.8-1.3,1.3-1.5,2c-0.2,0.8,0.3,1.9,0,2.5
				c-0.4,0.8-1.6,0.9-2.1,1.3c-0.6,0.6-1,1.8-1.7,1.8c-0.7,0-1.1-1.2-1.7-1.8c-0.5-0.5-1.7-0.6-2.1-1.3c-0.3-0.6,0.3-1.7,0-2.5
				c-0.2-0.7-1.3-1.2-1.5-2c-0.1-0.7,0.7-1.6,0.6-2.4c-0.1-0.8-1.1-1.5-1.1-2.3c0-0.8,1-1.5,1.1-2.3c0.1-0.8-0.8-1.7-0.6-2.4
				c0.1-0.8,1.3-1.3,1.5-2c0.2-0.8-0.3-1.9,0-2.5c0.4-0.8,1.6-0.9,2.1-1.3c0.6-0.6,1-1.8,1.7-1.8c0.7,0,1.1,1.2,1.7,1.8
				c0.5,0.5,1.7,0.6,2.1,1.3c0.3,0.6-0.3,1.7,0,2.5c0.2,0.7,1.3,1.2,1.5,2c0.1,0.7-0.7,1.6-0.6,2.4
				C852,176.1,852.9,176.8,852.9,177.6z"/>
		</g>
		<path class="st33" d="M1044.1,222.1c-2.3-3-0.9-7.7,1.9-10.2c2.8-2.6,6.6-3.7,10.2-5.1s7.2-3.5,8.7-7c1.1-2.7,0.8-5.8-0.2-8.6
			s-2.5-5.3-3.7-7.9c-0.7-1.4-1.3-2.9-1.4-4.4c-0.2-3.7,2.3-6.9,5.1-9.3c2.8-2.4,6-4.4,8-7.5c2.8-4.3,2.7-10.3-0.3-14.4"/>
		<path class="st34" d="M1044.1,222.1c-2.3-3-0.9-7.7,1.9-10.2c2.8-2.6,6.6-3.7,10.2-5.1c0.9-0.4,1.8-0.7,2.6-1.2"/>
		<g>
			<circle class="st15" cx="826.6" cy="242.6" r="23.1"/>
			<circle cx="820.9" cy="236.8" r="2.7"/>
			<circle cx="832.4" cy="236.8" r="2.7"/>
			<path class="st35" d="M841.2,246.4c-1.9,6.2-7.7,10.7-14.6,10.7c-6.8,0-12.5-4.4-14.5-10.6"/>
			<line class="st36" x1="810.3" y1="247.3" x2="813.8" y2="245.9"/>
			<line class="st36" x1="843" y1="247.3" x2="839.4" y2="245.9"/>
		</g>
	</g>
</g>
</svg>
