<?xml version="1.0" encoding="utf-8"?>
<!-- Generator: Adobe Illustrator 25.2.3, SVG Export Plug-In . SVG Version: 6.00 Build 0)  -->
<svg version="1.1" id="Layer_1" xmlns="http://www.w3.org/2000/svg" xmlns:xlink="http://www.w3.org/1999/xlink" x="0px" y="0px"
	 viewBox="0 0 467 486" style="enable-background:new 0 0 467 486;" xml:space="preserve">
<style type="text/css">
	.st0{fill:none;}
	.st1{fill:#FFED00;}
	.st2{fill:#00FFFF;}
	.st3{fill:#FF6300;}
	.st4{fill:#FFEDE2;}
	.st5{fill:#00C2FF;}
	.st6{fill:#070117;}
	.st7{fill:#fff;}
	.st8{fill:#FFCAA7;}
	.st9{fill:none;stroke:#FFCAA7;stroke-width:3;stroke-linecap:round;stroke-miterlimit:10;}
	.st10{fill:none;stroke:#FFCAA7;stroke-width:3;stroke-linecap:round;stroke-linejoin:round;stroke-miterlimit:10;}
	.st11{clip-path:url(#SVGID_2_);}
	.st12{fill:none;stroke:#FFED00;stroke-width:8;stroke-miterlimit:10;}
	.st13{fill:none;stroke:#FFED00;stroke-width:4;stroke-linecap:round;stroke-miterlimit:10;}
	.st14{fill:none;stroke:#FF6300;stroke-width:4;stroke-linecap:round;stroke-miterlimit:10;}
	.st15{fill:none;stroke:#00FFFF;stroke-width:4;stroke-linecap:round;stroke-miterlimit:10;}
	.st16{fill:none;stroke:#fff;stroke-width:4;stroke-linecap:round;stroke-miterlimit:10;}
	.st17{fill:none;stroke:#070117;stroke-width:5;stroke-linecap:round;stroke-miterlimit:10;}
	.st18{fill:#FFEDE2;stroke:#FFCAA7;stroke-width:3;stroke-linecap:round;stroke-miterlimit:10;}
	.st19{fill:#7CAB6A;}
	.st20{fill:#7CD36A;}
	.st21{fill:#E9C200;}
	.st22{fill:#fff;}
</style>
<g transform="translate(0)">
	<rect class="st0" width="467" height="486"/>
	<g transform="translate(0)">
		<circle class="st1" cx="120.1" cy="317" r="104.3"/>
		<circle class="st2" cx="307.2" cy="64.8" r="54.8"/>
		<circle class="st3" cx="387.4" cy="325.9" r="41.3"/>
	</g>
	<g>
		<path class="st4" d="M358.9,240.4l-8-21.6l-18.1-10.1l6.4-11.4l-7.2-35.5c-0.3-1.6,1-3.1,2.7-2.9l0,0c0.9,0.1,1.7,0.7,2,1.5
			l8.9,21.5l19.9,0.5l2.3,20.1l-4.2,8.1l11.5,20.3L358.9,240.4z"/>
		<path class="st5" d="M253.8,289.8c39.4-30.2,108.4,6.3,108.4,6.3l-10.1-71.1l19.5-6.2l40,95.5l-7.4,16.6l-133.4-4.6L253.8,289.8z"
			/>
		<path class="st2" d="M333.1,409.3c13.8-5,20.5-20.5,14.7-33.9c-15.1-35-33.1-71.7-38.8-79.5c-8.7-11.9-23.4-17.9-37.9-15.5
			l-9.9,1.6c0,0-20.4,87.1-27.4,163L333.1,409.3z"/>
		<path class="st6" d="M310.6,385.6c1.4,38.4-20,48.7-51.7,49.8s-61.8-7.2-63.2-45.7s23.2-70.5,54.9-71.7
			C282.4,316.9,309.3,347.1,310.6,385.6z"/>
		<polygon class="st6" points="189.9,402.3 213.4,485.7 271.6,485.8 258.2,405.5 		"/>
		<polygon class="st6" points="263.6,410.4 308.3,485.7 367.3,485.8 311.3,369.6 		"/>
		<path class="st7" d="M195.1,400.8c0,0,66.1,2.3,127.4-17.5c-5.5-36-16.2-63-25-80.4c-7-13.9-22.2-21.5-37.5-18.7l-65.9,11.9
			L195.1,400.8z"/>
		<path class="st4" d="M271.4,288.3c-17,18.2-52.4,10.3-52.4,10.3l-3.4-93.6l40.2,2.9L271.4,288.3z"/>
		<path class="st8" d="M218.3,280.1c15.3,1,32.5,0.4,51.2-1.5l-13.7-70.6l-40.2-2.9L218.3,280.1z"/>
		<g>
			<path class="st4" d="M217.4,134.2c0,0-13.9-68.7,37.4-93c41.6-19.8,77.1,25.1,67.3,45.2c-15.7,32.2-46-0.5-46-0.5
				s-31.9,26-37.1,71.1L217.4,134.2z"/>
			<path class="st9" d="M276.2,85.8c-9.5-10.5-11.7-22.3-11.7-22.3"/>
		</g>
		<path class="st4" d="M299.4,172c16.3,23.9,32.1,76.7-33.8,95.8s-112.3,14.4-121-32.4c-8.7-46.8,22.2-91.8,69-100.5
			S282.9,147.8,299.4,172z"/>
		<path class="st4" d="M202.7,162.3c0,0-87.6-20.8-124.2-75.5s26.6-86.1,64.1-30.2s66.7,78.1,66.7,78.1L202.7,162.3z"/>
		<g>
			<path class="st4" d="M202.9,152.2c0,0-0.4-40.1,13.3-41.8c9.5-1.2,9.4,14.8,9.4,14.8s12.4-28.9,24.6-25.6c12.5,3.3,2,23.7,2,23.7
				s18.1-8.6,22.1,2.3c3.1,8.3-28.9,16.7-28.9,16.7"/>
			<path class="st10" d="M216.2,110.4c9.5-1.2,9.4,14.8,9.4,14.8s12.4-28.9,24.6-25.6c12.5,3.3,2,23.7,2,23.7"/>
			<path class="st9" d="M270,132.8c0,0-14.9,8.4-35.1,11.8"/>
		</g>
		<g>
			<polygon class="st2" points="292.7,210.2 385.9,197.7 355.7,137.2 288.3,200.5 			"/>
			<g>
				<defs>
					<polygon id="SVGID_1_" points="292.9,210.2 385.9,197.7 355.7,137.2 288.4,200.4 					"/>
				</defs>
				<clipPath id="SVGID_2_">
					<use xlink:href="#SVGID_1_"  style="overflow:visible;"/>
				</clipPath>
				<g class="st11">
					<path class="st12" d="M316.1,131c0,0,35.4,29.5,94.1,39.8"/>
					<path class="st12" d="M306.5,141.2c0,0,35.4,29.5,94.1,39.8"/>
					<path class="st12" d="M296.9,151.4c0,0,35.4,29.5,94.1,39.8"/>
					<path class="st12" d="M287.3,161.5c0,0,35.4,29.5,94.1,39.8"/>
					<path class="st12" d="M277.8,171.7c0,0,35.4,29.5,94.1,39.8"/>
					<path class="st12" d="M268.2,181.9c0,0,35.4,29.5,94.1,39.8"/>
				</g>
			</g>
			<ellipse transform="matrix(0.8946 -0.4468 0.4468 0.8946 -35.4843 183.6543)" cx="371.6" cy="167.1" rx="11" ry="33.8"/>
			<path class="st13" d="M387.6,146.2c2.8-4.7,7.1-8.6,12.4-9.7c8.1-1.7,13.8,4.6,23.6,1.2c7.5-2.6,12.4-9.8,15.4-17.1"/>
			<path class="st14" d="M371.6,131.7c2.2-0.3,4.5-0.6,6.1-2c1.8-1.6,2.5-4.1,2.9-6.5c0.2-1.2,0.3-2.5,0.3-3.8
				c0-1.1-0.2-2.1-0.1-3.2c0.2-4.3,3.7-7.9,7.6-9.6"/>
			<path class="st14" d="M439.5,189.4c-2.5-3.4-6.7-5.5-10.9-5.8c-4.2-0.3-8.5,1.2-11.9,3.7c-1.2,0.9-2.4,1.9-3.7,2.7
				c-4.8,2.8-11.6,1.5-15-2.9"/>
			<line class="st15" x1="397.9" y1="122.2" x2="441.1" y2="89.2"/>
			<line class="st13" x1="416" y1="75.6" x2="437.7" y2="51.2"/>
			<line class="st16" x1="413.2" y1="171.3" x2="458.2" y2="166.1"/>
			<circle class="st15" cx="402.3" cy="164.7" r="6.5"/>
			<circle class="st14" cx="452.9" cy="74" r="9.2"/>
			<circle class="st16" cx="395.8" cy="94.3" r="4.6"/>
			<circle class="st16" cx="371.8" cy="164.1" r="4.6"/>
		</g>
		<path class="st17" d="M229.1,185.7c0,0,2.9-8.7,12-8.9"/>
		<path class="st17" d="M260.4,154.8c0,0,7.9-4.7,14.9,1.2"/>
		<path class="st3" d="M250.8,200.9l12.2,5.2c0.5,0.2,1.2,0.1,1.5-0.4l7.5-9.8c0.7-0.9,0-2.1-1.1-2.1c-9.8,0.5-16.8,3.1-20.2,4.8
			C249.8,199,249.8,200.5,250.8,200.9z"/>
		<path class="st4" d="M353.3,233.9"/>
		<path class="st18" d="M352.8,219.9l-22.2-12.1l3.9-11.3l12.4-3.9c2.6,4-6.7,11.6-6.7,11.6s7.3-4.3,14.6,4.7"/>
		<path class="st2" d="M193.9,292.2c-80.8-29.2-93.5-124.6-93.5-124.6l-21.6,5.5c0,0,9.1,126.8,99,160.4
			C202.6,311,193.9,292.2,193.9,292.2z"/>
		<path class="st2" d="M243.4,387c-12-52.9-25.5-101.7-25.5-101.7s-28.5,1-48.1,3c0,0,2.9,90.9,11.1,167.6l37.4-17.6
			C237.6,429.3,248.1,407.9,243.4,387z"/>
		<g>
			<g>
				<path class="st19" d="M65,185.6c-7.6,9.2-11.2,20.9-14.5,32.2l-13.1,45.4c-0.3,1.1,0,2.4,0.8,3.2c2.2,2.3,7.9,6.7,20.8,10.4
					c12.9,3.7,20,3,23.1,2.3c1.1-0.3,2.1-1.2,2.4-2.3l13.1-45.4c3.3-11.4,6.5-23.2,4.9-35c-0.4-2.8-0.9-5.4-1.5-8.1l-30.4-8.8
					C68.7,181.6,66.8,183.5,65,185.6z"/>
				<path class="st20" d="M108.3,132.3l1.1-0.9c3.2-2.5,2.2-7.6-1.7-8.7l-3.9-1.1l-3.9-1.1c-3.9-1.1-7.4,2.6-6.1,6.5l0.5,1.3
					l-4.4,15.3c-6.2,21.6-13,29.4-19.2,36l30.4,8.8c-1.8-8.9-3.3-19.2,2.9-40.7L108.3,132.3z"/>
			</g>
			<path class="st21" d="M90.1,189.5l12.1,4.8c-0.3-2-0.7-3.9-1.1-5.9c-0.4-1.9-0.7-3.9-1-6l-5.4-3.8c-0.1-4-1.9-7.3-4.8-8.2
				c-3-0.9-6.3,1-8.5,4.4l-6.6,0.3c-1.4,1.6-2.7,3.1-4,4.5c-1.4,1.5-2.8,2.9-4.1,4.4l12.8,2.4c0.7,2.5,2.2,4.4,4.4,5
				C85.8,192,88.1,191.2,90.1,189.5z"/>
			<path class="st21" d="M83,265.6l-38.2-11c-1.4-0.4-2.3-1.9-1.8-3.3l6.2-21.4c0.4-1.4,1.9-2.3,3.3-1.8l38.2,11
				c1.4,0.4,2.3,1.9,1.8,3.3l-6.2,21.4C85.9,265.2,84.4,266,83,265.6z"/>
		</g>
		<path class="st4" d="M91,139.5c0,0-2.6,4.5,2.4,8.6c5.1,4.2,5.1,4.2,5.1,4.2s-0.2,17.8-5.6,20.3s-20.1-5.9-17.8-17.6
			C77.4,143.4,91,139.5,91,139.5z"/>
		<circle class="st4" cx="100.4" cy="167.6" r="4.5"/>
		<path class="st6" d="M243.7,186.7c0.9,2.4-0.4,5-2.7,5.9s-5-0.4-5.9-2.7L243.7,186.7z"/>
		<circle class="st6" cx="271.4" cy="179.5" r="3.5"/>
		<path class="st6" d="M275.9,210.2c-21.5,10.1-60.6-27-68.5-1.2c-7.8,25.8,14.7,44.5,44.5,37.8S275.9,210.2,275.9,210.2z"/>
		<g>
			<path class="st22" d="M243.2,206.1L243.2,206.1l3.8,13.3l10.1,1.6l10-9.1l0,0C259.7,211.9,251.3,209.1,243.2,206.1z"/>
			<path class="st22" d="M244.3,238.5l-9.4,9.3c5.2,0.6,10.9,0.3,16.9-1.1c3.8-0.9,7.1-2.1,9.8-3.6l-5.3-5.2L244.3,238.5z"/>
		</g>
	</g>
</g>
</svg>
