<svg xmlns="http://www.w3.org/2000/svg" xmlns:xlink="http://www.w3.org/1999/xlink" width="428" height="261" viewBox="0 0 428 261"><defs><clipPath id="a"><rect width="428" height="261" transform="translate(1682 3785)" fill="#fff"/></clipPath><clipPath id="b"><path d="M247.542,902.89l-52.4-91.569-33.762-30.539L178.727,759.1l32.7,7.882,3.486-28.507,25.133-2.267,15.5,28.5,53.348,5.568,1.165,33.893-18.64,23.9,27.815,39.387C270.225,895.25,247.542,902.89,247.542,902.89Z" transform="translate(-161.378 -736.207)" fill="none" stroke="rgba(0,0,0,0)" stroke-width="1"/></clipPath></defs><g transform="translate(-1682 -3785)" clip-path="url(#a)"><g transform="translate(1645.413 3785.185)"><path d="M201.212,990.77,168.5,994.754,157.457,966.62l26.672-19.355Z" transform="translate(36.51 -722.002)" fill="#ffed00" stroke="rgba(0,0,0,0)" stroke-width="1"/><path d="M351.056,971.982c-80.692,31.717-158.4,24.292-158.4,24.292l-18.6-47.369s53.976-59.185,132.572-90.078,121.126,17.7,121.126,17.7S431.75,940.265,351.056,971.982Z" transform="translate(36.502 -722.002)" fill="#fff" stroke="rgba(0,0,0,0)" stroke-width="1"/><path d="M210,939.295l27.913-21.013a14.673,14.673,0,0,0,5.678-13.939l-1.748-11.449" transform="translate(36.484 -722.002)" fill="none" stroke="#ff6300" stroke-linecap="round" stroke-linejoin="round" stroke-width="3"/><path d="M225.715,979.288l34.745-3.615a14.659,14.659,0,0,1,13.643,6.344l6.508,9.578" transform="translate(36.476 -722.002)" fill="none" stroke="#ff6300" stroke-linecap="round" stroke-linejoin="round" stroke-width="3"/><ellipse cx="57.12" cy="6.506" rx="57.12" ry="6.506" transform="translate(264.525 179.609) rotate(-26.094)" fill="#070117" stroke="rgba(0,0,0,0)" stroke-width="1"/><g transform="translate(197.886 14.205)"><g clip-path="url(#b)"><g transform="translate(6.656 7.194)"><path d="M216.658,929.86a13.754,13.754,0,0,0-16.745-.518,12.271,12.271,0,0,0-4.754,6.955,15.525,15.525,0,0,0,.515,8.671c.112.363.252.723.383,1.083l.482,1.276c.315.861.624,1.726.915,2.6.581,1.756,1.113,3.547,1.54,5.407a36.784,36.784,0,0,1,.9,5.811,21.34,21.34,0,0,1-.47,6.423,15.552,15.552,0,0,1-1.222,3.339,14.416,14.416,0,0,1-2.065,3.038,18.111,18.111,0,0,1-5.488,4.1,38.51,38.51,0,0,1-5.558,2.206c-1.792.579-3.515,1.065-5.168,1.562l-2.366-8.919a61.03,61.03,0,0,0,9.42-2.592,9.929,9.929,0,0,0,3.11-1.952,6.622,6.622,0,0,0,1.7-2.836,13.576,13.576,0,0,0,.533-4.073,29.307,29.307,0,0,0-.437-4.677c-.262-1.6-.635-3.223-1.062-4.847-.213-.812-.448-1.625-.689-2.438l-.379-1.227c-.145-.477-.3-.95-.419-1.437a24.389,24.389,0,0,1-.851-6.028,19.954,19.954,0,0,1,.9-6.176,17.963,17.963,0,0,1,2.9-5.578,18.174,18.174,0,0,1,4.589-4.2,18.873,18.873,0,0,1,11.677-2.922,18.32,18.32,0,0,1,5.859,1.467,18.659,18.659,0,0,1,5.019,3.244Z" transform="translate(-168.042 -743.401)" fill="#5200a9" stroke="rgba(0,0,0,0)" stroke-width="1"/><g transform="translate(144.775 133.9)"><path d="M357.312,889.247,315.12,877.3l-1.45,7.454,6.969,3.174-7.4,1.26-.291,5.4,7.789,1.9-7.852,1.978.531,5.241,9.035,2.021-7.8,2.122,2.116,5.552,39.785-5.658Z" transform="translate(-312.883 -877.301)" fill="#e2cc00" stroke="rgba(0,0,0,0)" stroke-width="1"/><path d="M361.585,906.762l-22.054,4.644-2.067-7.851,6.867-2.052-6.989-.942.884-7.286,6.448-.028-5.723-4.113,2.671-5.477,21.469,6.792Z" transform="translate(-312.895 -877.301)" fill="#fff" stroke="rgba(0,0,0,0)" stroke-width="1"/></g><g transform="translate(82.607 191.911)"><path d="M295.984,974.348l-20.01-39.037-6.441,4.017,2.426,7.266-5.965-4.562-4.146,3.464,3.917,7-6.8-4.4-3.472,3.96,4.678,7.994-6.869-4.268-2.62,5.332,31.249,25.279Z" transform="translate(-250.684 -935.311)" fill="#e2cc00" stroke="rgba(0,0,0,0)" stroke-width="1"/><path d="M286.082,989.4l-18.425-12.986,4.336-6.863,6.18,3.63-4.073-5.76,5.933-4.317,4.414,4.7-.89-6.993,5.826-1.776,9.659,20.349Z" transform="translate(-250.693 -935.311)" fill="#fff" stroke="rgba(0,0,0,0)" stroke-width="1"/></g><g transform="translate(48.012)"><path d="M217.549,750.241l-.5,33.868,32.717-8.48-14.046-29.579Z" transform="translate(-216.073 -743.401)" fill="#e2cc00" stroke="rgba(0,0,0,0)" stroke-width="1"/><path d="M235.188,743.4l5.781,10.9-5.677,3.07-3.419-5.861.693,6.641-6.9.812-1.464-5.927-2.5,6.183-5.63-1.236,2.4-14.02Z" transform="translate(-216.073 -743.401)" fill="#fff" stroke="rgba(0,0,0,0)" stroke-width="1"/><path d="M231.994,775.936c-.01-.011-.019-.022-.028-.034l-2.275-2.936a.59.59,0,0,1-.014-.7l1.187-1.659-1.9.86a.585.585,0,0,1-.724-.2l-2.25-3.194a.589.589,0,0,1,.049-.738l1.39-1.508-1.939.721a.59.59,0,0,1-.733-.291l-2-4.051a.589.589,0,0,1,.3-.8l5.467-2.306a.589.589,0,1,1,.458,1.085l-4.892,2.064,1.489,3.014,3.747-1.393a.589.589,0,0,1,.638.951l-2.737,2.967,1.7,2.407,3.456-1.562a.588.588,0,0,1,.721.879l-2.206,3.084,1.659,2.142,3.482-2.487a.589.589,0,1,1,.684.959l-3.942,2.816A.589.589,0,0,1,231.994,775.936Z" transform="translate(-216.076 -743.401)" fill="#ffed00" stroke="rgba(0,0,0,0)" stroke-width="1"/></g><path d="M217.539,937.22l11.833,35.5,7.769-.024L265.1,960.9l2.1-6.193,4.444,2.574,8.52-4.712-1.621-5.594,6.187,3.069,8.3-5.963-1.737-5.8,6.282,2.977,9.022-7.025-1.307-5.8,9.783-1.885,8.669-21.557-3.556-4.657,6.934.017,4.759-9.951-8.13-5.792L304.8,874.386Z" transform="translate(-168.061 -743.401)" fill="#fff" stroke="rgba(0,0,0,0)" stroke-width="1"/><path d="M216.566,932.08a7.505,7.505,0,0,0-3.682-1.819,10.231,10.231,0,0,0-4.317.151,12.645,12.645,0,0,0-7.211,4.861,11.108,11.108,0,0,0-1.928,8.1,15.638,15.638,0,0,0,1.251,4.27c.148.351.326.7.494,1.043l.614,1.246q.606,1.257,1.18,2.539a53.685,53.685,0,0,1,3.659,10.922,28.617,28.617,0,0,1,.618,6.156,19.42,19.42,0,0,1-1.208,6.6,17.353,17.353,0,0,1-3.755,5.889,23.9,23.9,0,0,1-5.177,3.981,92.033,92.033,0,0,1-10.264,4.7l-3.434-8.565,5.066-1.812a39.819,39.819,0,0,0,4.441-1.886,15.652,15.652,0,0,0,3.476-2.34,9.122,9.122,0,0,0,2.175-2.99,15.371,15.371,0,0,0,.7-8.429,46.694,46.694,0,0,0-2.669-9.59q-.459-1.2-.959-2.393l-.511-1.2c-.2-.472-.4-.94-.57-1.426a22.074,22.074,0,0,1-1.36-6.123,17.7,17.7,0,0,1,.7-6.419,16.7,16.7,0,0,1,3.035-5.694,17.873,17.873,0,0,1,10.661-6.272,14.926,14.926,0,0,1,6.348.206,12.539,12.539,0,0,1,3.036,1.236,11.907,11.907,0,0,1,2.595,2.032Z" transform="translate(-168.045 -743.401)" fill="#ffed00" stroke="rgba(0,0,0,0)" stroke-width="1"/><path d="M218.327,928.6a11.313,11.313,0,0,0-7.493-4.885,19.341,19.341,0,0,0-9.614.544,18.39,18.39,0,0,0-8.059,4.967,14.908,14.908,0,0,0-3.841,8.2,18.8,18.8,0,0,0-.021,4.694c.055.4.1.794.174,1.191.062.4.142.794.234,1.191s.191.793.291,1.189l.08.3.1.351.2.7a47.114,47.114,0,0,1,1.22,5.824,26.889,26.889,0,0,1,.187,6.374,16.76,16.76,0,0,1-.726,3.486,12.607,12.607,0,0,1-1.8,3.546,11.1,11.1,0,0,1-3.169,2.907,12.153,12.153,0,0,1-3.894,1.508,16.777,16.777,0,0,1-7.387-.286,19.353,19.353,0,0,1-3.374-1.2,14.311,14.311,0,0,1-3.393-2.16l6.251-6.786a5,5,0,0,0,1.179.878,10.4,10.4,0,0,0,1.752.787,8.474,8.474,0,0,0,3.505.488,4.047,4.047,0,0,0,1.264-.334,2.92,2.92,0,0,0,.947-.7,6.463,6.463,0,0,0,1.329-3.152,19.5,19.5,0,0,0,.195-4.617,40.327,40.327,0,0,0-.67-5.021l-.271-1.322c-.1-.5-.218-.993-.3-1.5s-.169-1.01-.227-1.523c-.074-.508-.108-1.028-.152-1.543a25.086,25.086,0,0,1,.324-6.287,21.324,21.324,0,0,1,2.076-6.058,20.789,20.789,0,0,1,3.8-5.129,23.869,23.869,0,0,1,10.745-6.014,24.292,24.292,0,0,1,12.162-.115,17.94,17.94,0,0,1,5.73,2.6,14.247,14.247,0,0,1,4.335,4.775Z" transform="translate(-168.037 -743.401)" fill="#ffed00" stroke="rgba(0,0,0,0)" stroke-width="1"/><path d="M326.152,883.471s-13.284-11.534-17.461-17.661l-16.425-24.364-44.839,32.809,11.541,15.938-38.637,30.431c-8.219,10.787-3.62,24.939-3.62,24.939l6.74,1.32,4.087-8.284,3.6,9.174,8.377-.519,2.154-9.125,5.6,7.48,7.757-2.968-.839-10.554,10.194,5.73,7.5-5.029-2.159-10.322,8.379,5.356,9.024-6.165-2.278-9.025,9.048,4.683,6.426-4.582-2.282-10.776,11.037,2.932,6.23-6.531L310.567,890l10.659,1.558Z" transform="translate(-168.06 -743.401)" fill="#ffed00" stroke="rgba(0,0,0,0)" stroke-width="1"/><path d="M302.695,776.452c-13.124-16.637-93.732,5.268-93.732,5.268l-29.477-12.094-9.962,11.687,29.981,26.8,41.214,56.911,12.909,26.916-32.514,26.5-5.834,7.1,13.668.337,4.251-9.464,3,7.961,11.527-3.864-.348-9.431,6.54,6.006,9.767-6.518-2.707-9.66,10.451,6.493,9.323-7.946L276.786,889.1l9.269,7.426,7.311-5.438-3.9-11.792,11.176,7.209,7.108-6.721-5.9-10.683,10.96,6.212,4.882-6.352-14.8-12.637L282.4,826.852S312.263,788.583,302.695,776.452Z" transform="translate(-168.038 -743.401)" fill="#fff" stroke="rgba(0,0,0,0)" stroke-width="1"/><path d="M199.282,803.546l41.946,66.341,8.266-3.049-2.286-9.73,7.39,6.907,7.459-3.988L258.4,849.969l7.584,7.985,7.138-4.858-4.5-10.15,8.406,6.8,6-4.8-4.611-9.852,8.927,6.167,3.329-5.392-8.251-9.017s29.8-33.228,21.476-48.291S199.282,803.546,199.282,803.546Z" transform="translate(-168.052 -743.401)" fill="#ffed00" stroke="rgba(0,0,0,0)" stroke-width="1"/><path d="M208.969,781.72l-21.7-8.9L181.7,792.2l17.807,15.919,23.316,35.419,7.62-2.739-2.636-13.674,7.5,10.985,7.608-4.208-2.59-14.456,9.142,10.833,8.454-4.675-4.932-13.56,11.345,9.7,6.236-6.175-6.893-12.475,12.4,8.678,4.728-5.927-6.227-12.52,12.274,5.923,7.265-9.095-6.8-9.728,10.189,3.96,4.335-6.138-.468-4.405C282.211,760.686,208.969,781.72,208.969,781.72Z" transform="translate(-168.044 -743.401)" fill="#fff" stroke="rgba(0,0,0,0)" stroke-width="1"/><path d="M205.741,799.247a.692.692,0,0,1,1.185-.714l3.444,5.624,8.937-3.018a.692.692,0,0,1,.639,1.208l-7.057,5.339,2.88,4.763,8.429-3a.692.692,0,0,1,.816.28.7.7,0,0,1-.09.857l-6.7,6.814,4.594,5.505,9.784-4.095a.692.692,0,0,1,.534,1.277l-10.255,4.292a.693.693,0,0,1-.8-.195l-5.321-6.379a.694.694,0,0,1,.037-.928l5.026-5.114-6.126,2.182a.691.691,0,0,1-.824-.294l-3.494-5.779a.674.674,0,0,1,.175-.91l4.156-3.146-5.424,1.832a.692.692,0,0,1-.811-.294l-3.733-6.1Z" transform="translate(-168.055 -743.401)" fill="#5200a9" stroke="rgba(0,0,0,0)" stroke-width="1"/><g transform="translate(1.15 24.569)"><path d="M173.2,785.615l24.663,23.2,4.111-5.058-4.4-5.758,6.741,2.25,2.647-4.375-5.656-5.061,7.437,1.851,1.892-4.612-6.643-5.717,7.46,1.709.707-5.578-29.8-9.105Z" transform="translate(-169.19 -767.97)" fill="#ffed00" stroke="rgba(0,0,0,0)" stroke-width="1"/><path d="M180.044,767.97l11.945,3.079-1.562,6.265-6.631-1.426,5.369,3.966-4.05,5.642-5.362-2.914,2.876,6.019-4.708,3.327L169.188,780.7Z" transform="translate(-169.188 -767.97)" fill="#fff" stroke="rgba(0,0,0,0)" stroke-width="1"/><path d="M186.934,785.555a.706.706,0,0,1,0-.178.692.692,0,0,1,.274-.476l5.593-4.164a.692.692,0,1,1,.826,1.11l-5,3.726,2.544,3.022,3.886-2.639a.691.691,0,0,1,.994.907l-2.292,4.152,2.609,2.271,3.507-2.751a.692.692,0,0,1,1.032.878l-1.867,3.4,2.327,1.494a.692.692,0,0,1-.749,1.165l-2.869-1.844a.692.692,0,0,1-.233-.915l.549-1-1.293,1.014a.692.692,0,0,1-.882-.022l-3.461-3.014a.694.694,0,0,1-.152-.857l1.165-2.11-2.011,1.366a.691.691,0,0,1-.918-.127L187.09,785.9A.7.7,0,0,1,186.934,785.555Z" transform="translate(-169.197 -767.97)" fill="#e2cc00" stroke="rgba(0,0,0,0)" stroke-width="1"/></g><g transform="translate(134.606 153.427)"><path d="M349.85,927.249l-31.594-30.421-4.788,5.892,4.653,6.084L311,906.427l-2.8,4.623,5.976,5.348-7.858-1.956-2,4.873,7.019,6.041-7.882-1.805-.747,5.894L340.468,943.2Z" transform="translate(-302.709 -896.827)" fill="#ffed00" stroke="rgba(0,0,0,0)" stroke-width="1"/><path d="M345.373,944.706l-21.641-6.3,1.873-7.9,7.023,1.425-5.721-4.125,4.21-6.011,5.7,3.014-3.112-6.325,4.934-3.572,15.74,16.109Z" transform="translate(-302.719 -896.827)" fill="#fff" stroke="rgba(0,0,0,0)" stroke-width="1"/><path d="M321.947,923.795a.688.688,0,0,1-.438.03l-4-1.032-.695,2.095a.692.692,0,0,1-1.313-.436l.9-2.708a.69.69,0,0,1,.829-.452l1.35.348-1.528-1.176a.692.692,0,0,1-.2-.86l2.179-4.334a.69.69,0,0,1,.793-.358l2.622.681-2.046-1.811a.692.692,0,0,1-.1-.921l3.262-4.562a.692.692,0,0,1,1-.136l5.724,4.64a.692.692,0,0,1-.871,1.075l-5.153-4.176-2.473,3.457,3.744,3.314a.692.692,0,0,1-.633,1.188l-4.879-1.269-1.67,3.323,3.758,2.891a.693.693,0,0,1-.157,1.189Z" transform="translate(-302.715 -896.827)" fill="#e2cc00" stroke="rgba(0,0,0,0)" stroke-width="1"/></g><path d="M304.1,775.546c-4.451-5.643-15.825-7.33-29.526-6.941l-.185,10.947,12.114-1.109-9.651,8.732,6.1,8.592,9.331-6.857-2.163,12.377,9,3.234C304.943,793.294,308.839,781.557,304.1,775.546Z" transform="translate(-168.089 -743.401)" fill="#e2cc00" stroke="rgba(0,0,0,0)" stroke-width="1"/><path d="M250.669,784.681a.692.692,0,0,1,.928-1.006l4.185,2.833,5.761-6.543a.692.692,0,0,1,1.17.691l-3.039,8.487,4.846,3.28,6.513-6.974a.692.692,0,0,1,1.011.945l-6.917,7.406a.692.692,0,0,1-.894.1l-5.779-3.912a.693.693,0,0,1-.264-.807l2-5.589-3.775,4.287a.691.691,0,0,1-.907.115l-4.69-3.174A.7.7,0,0,1,250.669,784.681Z" transform="translate(-168.077 -743.401)" fill="#5200a9" stroke="rgba(0,0,0,0)" stroke-width="1"/><path d="M241.126,848.937a.48.48,0,0,1-.042-.048l-4.176-5.3a.692.692,0,0,1,.027-.888l4.643-5.221a.692.692,0,1,1,1.033.92l-4.258,4.788,3.437,4.364,5.966-3.637a.692.692,0,0,1,.983.895l-2.949,6.04,4.864,3.471,4.617-4.891a.692.692,0,0,1,1.183.6l-1.384,7.661a.691.691,0,1,1-1.36-.246l.97-5.37-3.433,3.637a.691.691,0,0,1-.9.088l-5.831-4.162a.693.693,0,0,1-.22-.867l2.168-4.441-4.471,2.725A.692.692,0,0,1,241.126,848.937Z" transform="translate(-168.071 -743.401)" fill="#e2cc00" stroke="rgba(0,0,0,0)" stroke-width="1"/><g transform="translate(95.166 187.578)"><path d="M263.941,944.11l4.3,5.582,7.571-3.555-2.184-7.313,6.355,4.288,5.893-4.67-3.309-6.771,8.263,2.559" transform="translate(-263.25 -930.978)" fill="#fff" stroke="rgba(0,0,0,0)" stroke-width="1"/><path d="M268.5,950.332a.692.692,0,0,1-.813-.217l-4.3-5.583a.692.692,0,1,1,1.1-.844l3.957,5.142,6.529-3.066-2.013-6.742a.692.692,0,0,1,1.049-.772l5.935,4.005,5.06-4.01-3.065-6.271a.692.692,0,0,1,.826-.965l8.263,2.559a.692.692,0,0,1-.409,1.323l-6.734-2.086,2.606,5.333a.692.692,0,0,1-.192.846l-5.892,4.67a.692.692,0,0,1-.817.032l-4.752-3.207,1.63,5.46a.692.692,0,0,1-.369.824l-7.571,3.556Z" transform="translate(-263.249 -930.978)" fill="#5200a9" stroke="rgba(0,0,0,0)" stroke-width="1"/></g><g transform="translate(60.533 208.874)"><path d="M254.662,996.354l9.9-42.738-7.511-1.09-2.834,7.117-1.614-7.337-5.4-.031-1.524,7.876-2.352-7.752-5.207.782-1.584,9.127-2.493-7.7-5.441,2.381,7.561,39.487Z" transform="translate(-228.599 -952.274)" fill="#ffed00" stroke="rgba(0,0,0,0)" stroke-width="1"/><path d="M237.382,1001.454l-5.7-21.817,7.739-2.443,2.379,6.763.6-7.029,7.317.533.338,6.442,3.831-5.916,5.6,2.406-5.749,21.781Z" transform="translate(-228.601 -952.274)" fill="#fff" stroke="rgba(0,0,0,0)" stroke-width="1"/><path d="M256.6,972.673a.679.679,0,0,1-.362.045.692.692,0,0,1-.587-.783l.941-6.568-4.235-.351-.923,4.916a.691.691,0,0,1-1.343.066l-1.413-4.841-3.708.269-.554,4.712a.692.692,0,0,1-1.351.114l-1.166-3.967-2.154.478a.692.692,0,0,1-.3-1.352l2.785-.617a.691.691,0,0,1,.813.48l.394,1.339.226-1.917a.692.692,0,0,1,.637-.609l4.836-.351a.692.692,0,0,1,.715.5l.76,2.6.5-2.686a.692.692,0,0,1,.737-.562l5.589.462a.692.692,0,0,1,.628.787l-1.045,7.3A.692.692,0,0,1,256.6,972.673Z" transform="translate(-228.604 -952.274)" fill="#e2cc00" stroke="rgba(0,0,0,0)" stroke-width="1"/></g><g transform="translate(81.707 124.415)"><path d="M256.539,868.508l-6.063,9.116,6.259,4.562,6.951-5.508-2.073,7.154,10.15,3.123,4.331-6.969.8,7.937,9.657.616,1.961-7.839,3.108,7.83,9.011-1.075" transform="translate(-249.785 -867.816)" fill="#fff" stroke="rgba(0,0,0,0)" stroke-width="1"/><path d="M261.409,884.493a.692.692,0,0,1-.461-.854l1.47-5.074-5.254,4.164a.691.691,0,0,1-.838.016l-6.258-4.561a.693.693,0,0,1-.169-.943l6.063-9.116a.692.692,0,1,1,1.152.767l-5.7,8.564,5.3,3.861,6.54-5.182a.692.692,0,0,1,1.093.736l-1.883,6.5,8.99,2.766,4.049-6.515a.692.692,0,0,1,1.276.3l.737,7.352,8.5.542,1.82-7.279a.692.692,0,0,1,1.314-.088l2.912,7.335,8.483-1.012a.692.692,0,0,1,.164,1.374l-9.011,1.076a.692.692,0,0,1-.726-.432l-2.315-5.833-1.44,5.754a.692.692,0,0,1-.715.523l-9.657-.616a.69.69,0,0,1-.645-.622l-.593-5.913-3.257,5.242a.693.693,0,0,1-.792.3l-10.149-3.123Z" transform="translate(-249.784 -867.816)" fill="#5200a9" stroke="rgba(0,0,0,0)" stroke-width="1"/></g><path d="M273.89,919.282a.688.688,0,0,1-.7-.1l-4.865-3.925a.692.692,0,0,1,.869-1.077l4.463,3.6,5.768-3.974-.741-6.941a.692.692,0,0,1,.952-.713l7.29,3.007,6.009-4.643-2.662-6.817a.692.692,0,0,1,1-.846l6.675,3.993,2.857-2.081a.692.692,0,0,1,.815,1.119l-3.226,2.35a.69.69,0,0,1-.763.035l-5.332-3.19,2.115,5.416a.692.692,0,0,1-.222.8l-6.736,5.2a.689.689,0,0,1-.686.092l-6.586-2.716.662,6.193a.693.693,0,0,1-.3.644l-6.533,4.5A.69.69,0,0,1,273.89,919.282Z" transform="translate(-168.086 -743.401)" fill="#e2cc00" stroke="rgba(0,0,0,0)" stroke-width="1"/><path d="M219.153,934.089a10.019,10.019,0,0,0-7.59-1,9.633,9.633,0,0,0-3.409,1.683,9.537,9.537,0,0,0-2.429,2.828,11.548,11.548,0,0,0-1.138,7.513,19.646,19.646,0,0,0,1.062,4.008c.1.334.269.659.4.989s.264.659.436.981l1.025,2.054a65.893,65.893,0,0,1,4,9.369,37.4,37.4,0,0,1,1.335,5.179,23.284,23.284,0,0,1,.353,5.759,14.877,14.877,0,0,1-1.81,6.311,12.52,12.52,0,0,1-1,1.49c-.189.235-.367.481-.575.7l-.633.651a13.05,13.05,0,0,1-2.87,2.088,15.321,15.321,0,0,1-1.546.734c-.518.187-1.044.4-1.564.528a18.14,18.14,0,0,1-3.108.6,22.822,22.822,0,0,1-6.024-.169l1.7-9.069a11.057,11.057,0,0,0,6.6-.281,4.372,4.372,0,0,0,1.9-1.537,6.7,6.7,0,0,0,.984-2.835,15.378,15.378,0,0,0,0-3.855,29.88,29.88,0,0,0-.807-4.217,58.939,58.939,0,0,0-3.032-8.574l-.98-2.332c-.179-.4-.312-.836-.464-1.256s-.309-.835-.422-1.277a25.867,25.867,0,0,1-1.047-5.383,19.407,19.407,0,0,1,.319-5.664,15.808,15.808,0,0,1,2.221-5.394,14.909,14.909,0,0,1,4.1-4.175,14.678,14.678,0,0,1,16.272-.055Z" transform="translate(-168.05 -743.401)" fill="#fff" stroke="rgba(0,0,0,0)" stroke-width="1"/><g transform="translate(61.941 53.23)"><path d="M251.909,824.1a14.681,14.681,0,1,1,5.551-20.007A14.672,14.672,0,0,1,251.909,824.1Z" transform="translate(-230.009 -796.631)" fill="#fff" stroke="rgba(0,0,0,0)" stroke-width="1"/><path d="M242.081,800.8a9.216,9.216,0,0,0-4.288,10.665l8.82-2.646-4.341,8.123a9.21,9.21,0,1,0-.191-16.142Z" transform="translate(-230.012 -796.631)" fill="#fff" stroke="rgba(0,0,0,0)" stroke-width="1"/></g></g></g></g><path d="M382.586,955.483c48.105-33.261,45.245-78.955,45.245-78.955s-30.223-34.531-86.8-26.867c0,0-2.049,23.024,11.169,56.687S382.586,955.483,382.586,955.483Z" transform="translate(36.42 -722.002)" fill="#ff6300" stroke="rgba(0,0,0,0)" stroke-width="1"/><path d="M217.115,910.526c-10.108,4.417-31.723,1.118-47.136-2.152a37.755,37.755,0,0,0-31.878,7.783L122.4,929.1l51.624,19.8Z" transform="translate(36.527 -722.002)" fill="#ff6300" stroke="rgba(0,0,0,0)" stroke-width="1"/><path d="M250.39,995.21c-10.41,3.647-24,20.784-33.067,33.676a37.768,37.768,0,0,1-28.649,16.008l-20.309,1.2,24.348-49.661Z" transform="translate(36.504 -722.002)" fill="#ff6300" stroke="rgba(0,0,0,0)" stroke-width="1"/><line x2="30.348" y2="77.287" transform="translate(239.148 198.605)" fill="none" stroke="#ff6300" stroke-linecap="round" stroke-linejoin="round" stroke-width="3"/><line x1="134.338" y2="52.802" transform="translate(255.051 186.301)" fill="none" stroke="#ff6300" stroke-linecap="round" stroke-linejoin="round" stroke-width="3"/><path d="M345.915,864.327c42.1-5.523,75.234,11.07,75.234,11.07-29.384,2.612-68.8,18.029-68.8,18.029A109.544,109.544,0,0,1,345.915,864.327Z" transform="translate(36.417 -722.002)" fill="#ffb383" stroke="rgba(0,0,0,0)" stroke-width="1"/><path d="M47.982,997.893c-5.706,6.069-13.252,10.578-21.58,10.5-12.564-.118-19.055-11.254-34.64-9.384-11.975,1.437-21.575,10.537-28.367,20.509" transform="translate(36.605 -722.002)" fill="none" stroke="#ffed00" stroke-linecap="round" stroke-miterlimit="10" stroke-width="4"/><path d="M153.248,1005.792c-3.061,1.308-6.294,2.755-8.145,5.522-2.046,3.058-1.945,7.04-1.514,10.694a33.5,33.5,0,0,0,1.062,5.633c.464,1.56,1.107,3.069,1.463,4.657,1.435,6.4-2.126,13.1-7.235,17.207" transform="translate(36.519 -722.002)" fill="none" stroke="#ff6300" stroke-linecap="round" stroke-miterlimit="10" stroke-width="4"/><path d="M39.6,924.517A22.329,22.329,0,0,0,49.828,940.24,28.507,28.507,0,0,0,68.4,944.214c2.289-.266,4.556-.773,6.861-.826a18.106,18.106,0,0,1,17.715,14.995" transform="translate(36.568 -722.002)" fill="none" stroke="#ff6300" stroke-linecap="round" stroke-miterlimit="10" stroke-width="4"/><line x1="76.776" y2="30.575" transform="translate(110.444 261.36)" fill="none" stroke="aqua" stroke-linecap="round" stroke-miterlimit="10" stroke-width="4"/><line x1="40.404" y2="28.906" transform="translate(107.365 302.631)" fill="none" stroke="#ffed00" stroke-linecap="round" stroke-miterlimit="10" stroke-width="4"/><line x1="68.425" y2="7.464" transform="translate(26.574 247.911)" fill="none" stroke="#fff" stroke-linecap="round" stroke-miterlimit="10" stroke-width="4"/><ellipse cx="9.89" cy="9.895" rx="9.89" ry="9.895" transform="translate(152.8 227.353)" fill="none" stroke="aqua" stroke-linecap="round" stroke-miterlimit="10" stroke-width="4"/><ellipse cx="14.02" cy="14.027" rx="14.02" ry="14.027" transform="translate(42.294 311.675)" fill="none" stroke="#ff6300" stroke-linecap="round" stroke-miterlimit="10" stroke-width="4"/><ellipse cx="6.993" cy="6.997" rx="6.993" ry="6.997" transform="translate(138.812 359.554)" fill="none" stroke="#fff" stroke-linecap="round" stroke-miterlimit="10" stroke-width="4"/><path d="M201.23,806.631l-6.924,10.182,5.513,6.353,6.041-1.2-1.752,7.28,5.009,6.468,7.637-2.187,3.2-6.8-10.567-4.982Z" transform="translate(36.492 -722.002)" fill="#fff" stroke="rgba(0,0,0,0)" stroke-width="1"/><path d="M232.137,851.136l-5.246,6.206,4.437,5.379,8.091-2.187Z" transform="translate(36.476 -722.002)" fill="#ffed00" stroke="rgba(0,0,0,0)" stroke-width="1"/><ellipse cx="79.702" cy="79.741" rx="79.702" ry="79.741" transform="translate(197.113)" fill="none" stroke="#fff" stroke-linecap="round" stroke-linejoin="round" stroke-width="3"/><path d="M302.651,795.405a58.085,58.085,0,0,0-58.07-58.1" transform="translate(36.467 -722.002)" fill="none" stroke="#fff" stroke-linecap="round" stroke-linejoin="round" stroke-width="3"/></g></g></svg>