<svg xmlns="http://www.w3.org/2000/svg" width="238.796" height="202.9" viewBox="0 0 238.796 202.9"><g transform="translate(26.954 0.816)"><g transform="translate(-1682 -3650)"><g transform="translate(1657.825 3650.184)"><path d="M120.9,146.6l-16.6,2-5.6-14.3,13.6-9.8Z" fill="#ffed00"/><path d="M197,137c-41,16.1-80.5,12.3-80.5,12.3L107,125.2s27.4-30.1,67.4-45.8,61.6,9,61.6,9S238,120.9,197,137Z" fill="#fff"/><path d="M125.3,120.4l14.2-10.7a7.562,7.562,0,0,0,2.9-7.1l-.9-5.8" fill="none" stroke="#ff6300" stroke-linecap="round" stroke-linejoin="round" stroke-width="3"/><path d="M133.3,140.8,151,139a7.474,7.474,0,0,1,6.9,3.2l3.3,4.9" fill="none" stroke="#ff6300" stroke-linecap="round" stroke-linejoin="round" stroke-width="3"/><ellipse cx="29" cy="3.3" rx="29" ry="3.3" transform="translate(134.502 101.299) rotate(-26.091)" fill="#070117"/><path d="M136.2,43.4a7.963,7.963,0,0,0-.6-9.6,6.568,6.568,0,0,0-4.2-2.3,8.253,8.253,0,0,0-4.9.8l-.6.3-.7.3a6.11,6.11,0,0,0-1.4.7l-3,1.2a19.807,19.807,0,0,1-3.3.8,15.284,15.284,0,0,1-3.7.1,14.619,14.619,0,0,1-2-.5,7.677,7.677,0,0,1-1.8-1,8.935,8.935,0,0,1-2.6-2.9,30.133,30.133,0,0,1-1.6-3.1c-.4-1-.8-2-1.2-2.9l5-1.8a29.473,29.473,0,0,0,2,5.2,6.991,6.991,0,0,0,1.3,1.7,3.805,3.805,0,0,0,1.7.8,9.662,9.662,0,0,0,2.4.1,19.969,19.969,0,0,0,2.6-.5,14.262,14.262,0,0,0,2.7-.9c.5-.2.9-.3,1.4-.5l.7-.3c.3-.1.5-.2.8-.3a12.971,12.971,0,0,1,3.4-.8,10.925,10.925,0,0,1,3.6.2,9.68,9.68,0,0,1,3.3,1.4,9.924,9.924,0,0,1,2.6,2.4,10.529,10.529,0,0,1,2.3,6.5,12.7,12.7,0,0,1-.5,3.4,10.805,10.805,0,0,1-1.6,3Z" fill="#5200a9"/><path d="M134.9,43.5a3.5,3.5,0,0,0,.8-2.2,5.4,5.4,0,0,0-.3-2.5,7.657,7.657,0,0,0-3.2-3.9,6.416,6.416,0,0,0-4.7-.7,11.725,11.725,0,0,0-2.4.9l-.6.3-.7.4c-.5.3-.9.5-1.4.8a32.377,32.377,0,0,1-6,2.7,13.592,13.592,0,0,1-3.5.7,11.985,11.985,0,0,1-3.8-.3,12.159,12.159,0,0,1-3.6-1.8,16.614,16.614,0,0,1-2.6-2.7,44.774,44.774,0,0,1-3.2-5.6l4.7-2.4,1.3,2.8a18.343,18.343,0,0,0,1.3,2.4,8.961,8.961,0,0,0,1.5,1.9,6.7,6.7,0,0,0,1.8,1.1,9.067,9.067,0,0,0,4.9-.1,33.911,33.911,0,0,0,5.3-2,8.265,8.265,0,0,0,1.3-.7l.7-.4c.3-.1.5-.3.8-.4a13.521,13.521,0,0,1,3.4-1.1,9.23,9.23,0,0,1,3.7.1,8.47,8.47,0,0,1,3.4,1.4A10.734,10.734,0,0,1,138,38a8.773,8.773,0,0,1,.2,3.6,12.092,12.092,0,0,1-.5,1.8,8.637,8.637,0,0,1-1,1.6Z" fill="#f45e60"/><path d="M137,44.3a6.716,6.716,0,0,0,2.4-4.5,11.547,11.547,0,0,0-.8-5.5,9.981,9.981,0,0,0-3.3-4.3,8.639,8.639,0,0,0-4.9-1.8,12.287,12.287,0,0,0-2.7.2,6.373,6.373,0,0,1-.7.2c-.3.1-.4.1-.7.2a6.373,6.373,0,0,1-.7.2l-.2.1-.2.1-.4.2c-1.1.4-2.2.7-3.3,1a14.723,14.723,0,0,1-3.6.4,12.31,12.31,0,0,1-2-.2,7.607,7.607,0,0,1-2.1-.8,5.814,5.814,0,0,1-1.8-1.7,8.421,8.421,0,0,1-1.1-2.1,8.559,8.559,0,0,1-.2-4.2,14.62,14.62,0,0,1,.5-2,10.6,10.6,0,0,1,1.1-2.1l4.2,3.2a2.507,2.507,0,0,0-.4.7,4.179,4.179,0,0,0-.4,1,4.584,4.584,0,0,0-.1,2,1.08,1.08,0,0,0,.3.7,2.181,2.181,0,0,0,.4.5,3.292,3.292,0,0,0,1.9.6,11.109,11.109,0,0,0,2.6-.1,22.912,22.912,0,0,0,2.8-.7l.7-.2a6.891,6.891,0,0,0,.8-.3,2.92,2.92,0,0,1,.9-.2c.3-.1.6-.1.9-.2a14.523,14.523,0,0,1,3.6-.2,11.9,11.9,0,0,1,3.6.9,12.3,12.3,0,0,1,3.1,1.9,14.435,14.435,0,0,1,4,5.8,13.543,13.543,0,0,1,.7,6.9,9.847,9.847,0,0,1-1.2,3.4,8.09,8.09,0,0,1-2.5,2.7Z" fill="#f45e60"/><path d="M133.9,45a6.09,6.09,0,0,0,.2-4.4,5.215,5.215,0,0,0-2.9-3.1,6.067,6.067,0,0,0-4.4-.2,14.272,14.272,0,0,0-2.2.8,77504514989145.64,77504514989145.64,0,0,1-1,.6l-1.1.7a36.326,36.326,0,0,1-5.1,2.8,14.191,14.191,0,0,1-2.9,1,12.573,12.573,0,0,1-3.3.5,9.366,9.366,0,0,1-3.7-.7,4.053,4.053,0,0,1-.9-.5c-.1-.1-.3-.2-.4-.3l-.4-.3a6.1,6.1,0,0,1-1.3-1.5,9.223,9.223,0,0,1-.5-.8c-.1-.3-.3-.6-.4-.9a10.926,10.926,0,0,1-.5-1.7,12.967,12.967,0,0,1-.2-3.4l5.1.4a7.058,7.058,0,0,0,.5,3.8,2.41,2.41,0,0,0,1,1,3.287,3.287,0,0,0,1.7.4,8.2,8.2,0,0,0,2.2-.2,21.718,21.718,0,0,0,2.4-.7,28.637,28.637,0,0,0,4.7-2.2l1.3-.7c.2-.1.5-.2.7-.3s.5-.2.7-.3a17.1,17.1,0,0,1,3-.9,12.173,12.173,0,0,1,3.3-.1,9.179,9.179,0,0,1,3.2,1,7.545,7.545,0,0,1,2.6,2.1,8.517,8.517,0,0,1,.9,9.3Z" fill="#fff"/><path d="M139.7,103.1,121,53.5l30.5-21.4,30.3,49.8Z" fill="#fff"/><path d="M135.1,78.8a.758.758,0,0,1-.4-.2l-2-3c-.1-.2-.1-.4.1-.5s.4-.1.5.1l1.8,2.7,3.8-1.2.8-3.9a.382.382,0,0,1,.5-.3c.1,0,.1,0,.2.1l3.5,2.9L148,74l-.3-4.2a.43.43,0,0,1,.4-.4.367.367,0,0,1,.3.1l3,3.3,1.9-.6a.381.381,0,1,1,.3.7h0l-2.2.7c-.2.1-.3,0-.4-.1l-2.4-2.7.2,3.3c0,.2-.1.3-.3.4l-4.6,1.7a.6.6,0,0,1-.4-.1l-3.1-2.6-.7,3.5a.319.319,0,0,1-.3.3l-4.3,1.5Z" fill="#5200a9"/><path d="M156.7,85a.758.758,0,0,1-.4-.2l-2-3c-.1-.2-.1-.4.1-.5s.4-.1.5.1l1.8,2.7,3.8-1.2.8-3.9a.382.382,0,0,1,.5-.3c.1,0,.1,0,.2.1l3.5,2.9,4.1-1.5-.3-4.2a.43.43,0,0,1,.4-.4.367.367,0,0,1,.3.1l3,3.3,1.9-.6a.381.381,0,1,1,.3.7h0L173,80c-.2.1-.3,0-.4-.1l-2.4-2.7.2,3.3c0,.2-.1.3-.3.4l-4.6,1.7a.6.6,0,0,1-.4-.1L162,79.9l-.7,3.5a.319.319,0,0,1-.3.3L156.7,85Z" fill="#5200a9"/><path d="M142.1,60.9a.758.758,0,0,1-.4-.2l-2-3c-.1-.2-.1-.4.1-.5s.4-.1.5.1l1.8,2.7,3.8-1.2.8-3.9a.382.382,0,0,1,.5-.3c.1,0,.1,0,.2.1l3.5,2.9,4.1-1.5-.3-4.2a.43.43,0,0,1,.4-.4.367.367,0,0,1,.3.1l3,3.3,1.9-.6a.381.381,0,0,1,.3.7h0l-2.2.7c-.2.1-.3,0-.4-.1l-2.4-2.7.2,3.3c0,.2-.1.3-.3.4l-4.6,1.7a.6.6,0,0,1-.4-.1l-3.1-2.6-.7,3.5a.319.319,0,0,1-.3.3l-4.3,1.5Z" fill="#5200a9"/><g transform="translate(32.593 112.469)"><path d="M72.8-52.8l23.5,9.1,1.2-4.2-3.8-2.2,4.3-.3.5-3.1L94.1-55l4.6-.7v-3l-5.1-1.6,4.6-.8-.9-3.3-23,1.1Z" fill="#f45e60"/><path d="M71.3-63l12.9-1.5.8,4.6-4,.8,3.9.9L84-54.1l-3.7-.3,3.1,2.7-1.8,3-11.9-5Z" fill="#fff"/><path d="M86.1-49.8V-50a.55.55,0,0,1,.5-.3l3.7,1.1.5-2.4-2.7-.9a.55.55,0,0,1-.3-.5c0-.1.2-.2.3-.3l2.9-.4.1-2.1-2.6-.7a.55.55,0,0,1-.3-.5.319.319,0,0,1,.3-.3l2.3-.3-.1-1.3a.43.43,0,0,1,.4-.4.366.366,0,0,1,.4.4l.1,1.6c0,.2-.1.4-.3.4l-.8.1,1.1.3c.2,0,.3.2.3.4l-.2,2.8c0,.2-.2.3-.3.4l-1.5.2,1.5.5a.55.55,0,0,1,.3.5L91-48.6c0,.2-.3.3-.5.3h0l-4.1-1.2Q86.1-49.65,86.1-49.8Z" fill="#f1393b"/></g><g transform="translate(32.593 112.469)"><path d="M126.8-92.6,110.1-73.8l3.5,2.6L117-74l-1.2,4.1,2.7,1.5,2.9-3.6-.9,4.6,2.8,1,3.3-4.2-.8,4.6,3.4.3,7-22Z" fill="#f45e60"/><path d="M136.9-90.4l-3.1,12.6-4.6-.9.7-4.1-2.2,3.4-3.5-2.3,1.6-3.3-3.6,1.9L120-85.8l8.9-9.4Z" fill="#fff"/><path d="M119.4-81.1c.1,0,.1,0,.2.1.2.1.2.4.1.6l-2.3,3.1,2,1.3,1.8-2.2c.1-.2.4-.2.6-.1.1.1.2.2.1.4l-.6,2.8,1.9.9,1.6-2.2c.1-.2.4-.2.6-.1a.758.758,0,0,1,.2.4l-.5,2.3,1.2.3a.55.55,0,0,1,.3.5.55.55,0,0,1-.5.3l-1.6-.5a.55.55,0,0,1-.3-.5l.2-.8-.6.9c-.1.2-.3.2-.5.1l-2.5-1.1c-.2-.1-.3-.3-.2-.4l.3-1.5-1,1.2a.348.348,0,0,1-.5.1L116.7-77a.348.348,0,0,1-.1-.5h0L119-81C119.1-81.1,119.2-81.2,119.4-81.1Z" fill="#f1393b"/></g><path d="M213,128.7c24.5-16.9,23-40.1,23-40.1S220.6,71,191.9,74.9c0,0-1,11.7,5.7,28.8S213,128.7,213,128.7Z" fill="#ff6300"/><path d="M128.9,105.8c-5.1,2.2-16.1.6-24-1.1a19.015,19.015,0,0,0-16.2,4l-8,6.6,26.2,10.1Z" fill="#ff6300"/><path d="M145.8,148.8c-5.3,1.9-12.2,10.6-16.8,17.1a19.016,19.016,0,0,1-14.6,8.1l-10.3.6,12.4-25.2Z" fill="#ff6300"/><line x2="15.4" y2="39.3" transform="translate(121.6 110.9)" fill="none" stroke="#ff6300" stroke-linecap="round" stroke-linejoin="round" stroke-width="3"/><line x1="68.3" y2="26.8" transform="translate(129.7 104.7)" fill="none" stroke="#ff6300" stroke-linecap="round" stroke-linejoin="round" stroke-width="3"/><path d="M194.4,82.3a72.573,72.573,0,0,1,38.2,5.6c-14.9,1.3-35,9.2-35,9.2A57.54,57.54,0,0,1,194.4,82.3Z" fill="#ffb383"/><path d="M43,150.2c-2.9,3.1-6.7,5.4-11,5.3-6.4-.1-9.7-5.7-17.6-4.8-6.1.7-11,5.4-14.4,10.4" fill="none" stroke="#ffed00" stroke-linecap="round" stroke-miterlimit="10" stroke-width="4"/><path d="M96.5,154.2a6.505,6.505,0,0,0-4.9,8.2,29.311,29.311,0,0,0,.5,2.9,21.719,21.719,0,0,1,.7,2.4c.7,3.3-1.1,6.7-3.7,8.7" fill="none" stroke="#ff6300" stroke-linecap="round" stroke-miterlimit="10" stroke-width="4"/><path d="M38.7,112.9a11.566,11.566,0,0,0,5.2,8,14.805,14.805,0,0,0,9.4,2c1.2-.1,2.3-.4,3.5-.4a9.124,9.124,0,0,1,9,7.6" fill="none" stroke="#ff6300" stroke-linecap="round" stroke-miterlimit="10" stroke-width="4"/><line x1="39.1" y2="15.6" transform="translate(56.1 142.8)" fill="none" stroke="aqua" stroke-linecap="round" stroke-miterlimit="10" stroke-width="4"/><line x1="20.5" y2="14.7" transform="translate(54.6 163.8)" fill="none" stroke="#ffed00" stroke-linecap="round" stroke-miterlimit="10" stroke-width="4"/><line x1="34.8" y2="3.8" transform="translate(13.5 136)" fill="none" stroke="#fff" stroke-linecap="round" stroke-miterlimit="10" stroke-width="4"/><circle cx="5" cy="5" r="5" transform="translate(77.7 125.6)" fill="none" stroke="aqua" stroke-linecap="round" stroke-miterlimit="10" stroke-width="4"/><circle cx="7.1" cy="7.1" r="7.1" transform="translate(21.5 168.4)" fill="none" stroke="#ff6300" stroke-linecap="round" stroke-miterlimit="10" stroke-width="4"/><circle cx="3.6" cy="3.6" r="3.6" transform="translate(70.5 192.7)" fill="none" stroke="#fff" stroke-linecap="round" stroke-miterlimit="10" stroke-width="4"/><circle cx="45.2" cy="45.2" r="45.2" transform="translate(91.9 0)" fill="none" stroke="#fff" stroke-linecap="round" stroke-linejoin="round" stroke-width="2"/><path d="M170.1,45.2a32.969,32.969,0,0,0-33-33" fill="none" stroke="#fff" stroke-linecap="round" stroke-linejoin="round" stroke-width="2"/></g></g></g></svg>