<svg xmlns="http://www.w3.org/2000/svg" xmlns:xlink="http://www.w3.org/1999/xlink" width="174.411" height="158.328" viewBox="0 0 174.411 158.328"><defs><clipPath id="a"><path d="M34.4,66.6,8.9,33.3,0,17.8,6.9,9.1,20,12.3,21.4.9l10-.9,6.2,11.4,21.3,2.2.5,13.5L52,36.6,63.1,52.3C43.5,63.5,34.4,66.6,34.4,66.6Z"/></clipPath></defs><path d="M149,45.8c.2,1.8.3,3.9-1.1,5.1s-3.4.8-5.2.4-3.8-.8-5.2.3c-1.2,1-1.4,2.8-2.3,4.2a4.9,4.9,0,0,1-4.2,2,7.6,7.6,0,0,1-4.5-1.7" fill="none" stroke="#fff" stroke-linecap="round" stroke-miterlimit="10" stroke-width="3.031"/><path d="M146,40.8l-1.3,7.4,9.1-2.1-5.2-6.2Z" fill="#d86300"/><circle cx="16.9" cy="16.9" r="16.9" transform="translate(129.1 9.9)" fill="#ff6300"/><path d="M146,14.3a12.5,12.5,0,0,1,12.5,12.5" fill="none" stroke="#fff" stroke-linecap="round" stroke-linejoin="round" stroke-width="1.516"/><g transform="translate(2 1)"><path d="M83,107.8l-12.9,1.6L65.7,98.3l10.5-7.6Z" fill="#ffed00"/><path d="M142,100.4c-31.8,12.5-62.4,9.6-62.4,9.6L72.3,91.3S93.6,68,124.6,55.8s47.8,7,47.8,7S173.9,87.9,142,100.4Z" fill="#fff"/><path d="M86.4,87.5l11-8.3a5.627,5.627,0,0,0,2.2-5.5L99,69.2" fill="none" stroke="#ff6300" stroke-linecap="round" stroke-linejoin="round" stroke-width="3"/><path d="M92.6,103.3l13.7-1.4a5.793,5.793,0,0,1,5.4,2.5l2.6,3.8" fill="none" stroke="#ff6300" stroke-linecap="round" stroke-linejoin="round" stroke-width="3"/><ellipse cx="22.5" cy="2.6" rx="22.5" ry="2.6" transform="translate(93.528 72.567) rotate(-26.091)" fill="#070117"/><path d="M154.4,93.9c19-13.1,17.8-31.1,17.8-31.1S160.3,49.2,138,52.2c0,0-.8,9.1,4.4,22.3S154.4,93.9,154.4,93.9Z" fill="#ff6300"/><path d="M89.2,76.2c-4,1.7-12.5.4-18.6-.8A15.1,15.1,0,0,0,58,78.5l-6.2,5.1,20.4,7.8Z" fill="#ff6300"/><path d="M102.4,109.5c-4.1,1.4-9.5,8.2-13,13.3a15.055,15.055,0,0,1-11.3,6.3l-8,.5L79.7,110Z" fill="#ff6300"/><line x2="12" y2="30.5" transform="translate(83.5 80.1)" fill="none" stroke="#ff6300" stroke-linecap="round" stroke-linejoin="round" stroke-width="3"/><line x1="53" y2="20.8" transform="translate(89.8 75.3)" fill="none" stroke="#ff6300" stroke-linecap="round" stroke-linejoin="round" stroke-width="3"/><path d="M140,57.9a55.107,55.107,0,0,1,29.7,4.4c-11.6,1-27.1,7.1-27.1,7.1A40.893,40.893,0,0,1,140,57.9Z" fill="#ffb383"/><path d="M56.9,97.5a6.484,6.484,0,0,1-3.9.3,6.694,6.694,0,0,1-3.1-2.9,12.81,12.81,0,0,1-1.1-2,13.356,13.356,0,0,0-.7-1.8c-1.1-2.3-3.9-3.5-6.5-3.5" fill="none" stroke="#ff6300" stroke-linecap="round" stroke-miterlimit="10" stroke-width="4"/><path d="M42,150.5a8.717,8.717,0,0,1-.7-7.4,11.23,11.23,0,0,1,4.7-5.8c.8-.5,1.6-.9,2.3-1.4a7.241,7.241,0,0,0,1.8-9" fill="none" stroke="aqua" stroke-linecap="round" stroke-miterlimit="10" stroke-width="4"/><line x1="31.1" y2="7.9" transform="translate(30.5 105)" fill="none" stroke="aqua" stroke-linecap="round" stroke-miterlimit="10" stroke-width="4"/><line x1="19.5" y2="1" transform="translate(19.8 102.1)" fill="none" stroke="#ffed00" stroke-linecap="round" stroke-miterlimit="10" stroke-width="4"/><line x1="18.9" y2="19.5" transform="translate(16.3 135)" fill="none" stroke="#fff" stroke-linecap="round" stroke-miterlimit="10" stroke-width="4"/><line x1="30.4" y2="10.8" transform="translate(15.5 119.6)" fill="none" stroke="#ffed00" stroke-linecap="round" stroke-miterlimit="10" stroke-width="4"/><circle cx="3.9" cy="3.9" r="3.9" transform="translate(56.1 114.6)" fill="none" stroke="aqua" stroke-linecap="round" stroke-miterlimit="10" stroke-width="4"/><circle cx="5.5" cy="5.5" r="5.5" transform="translate(0 103.9)" fill="none" stroke="#ff6300" stroke-linecap="round" stroke-miterlimit="10" stroke-width="4"/><circle cx="2.8" cy="2.8" r="2.8" transform="translate(20.2 80.1)" fill="none" stroke="#fff" stroke-linecap="round" stroke-miterlimit="10" stroke-width="4"/><g transform="translate(66.028 7.003)"><g clip-path="url(#a)"><g transform="translate(2.659 2.873)"><g transform="translate(1.584 -0.379)"><path d="M40.8,20.9a5.644,5.644,0,1,1,2.1-7.7,5.533,5.533,0,0,1-2.1,7.7Z" fill="#ff6300"/></g><g transform="translate(1.584 -0.379)"><path d="M40.5,19.5a4.478,4.478,0,1,1,1.7-6.1,4.436,4.436,0,0,1-1.7,6.1Z" fill="#070117"/></g><path d="M19.4,74.5a5.323,5.323,0,0,0-8.6,2.6,5.946,5.946,0,0,0,.2,3.5.758.758,0,0,0,.2.4l.2.5a4.179,4.179,0,0,0,.4,1c.2.7.4,1.4.6,2.2a18.457,18.457,0,0,1,.4,2.3,7.634,7.634,0,0,1-.2,2.6,5.023,5.023,0,0,1-.5,1.3,8.341,8.341,0,0,1-.8,1.2,6.915,6.915,0,0,1-2.2,1.6,20.363,20.363,0,0,1-2.2.9l-2.1.6-.9-3.6a26.643,26.643,0,0,0,3.8-1,2.55,2.55,0,0,0,1.2-.8,2.589,2.589,0,0,0,.7-1.1,4.4,4.4,0,0,0,.2-1.6,12.252,12.252,0,0,0-.2-1.9c-.1-.6-.3-1.3-.4-1.9-.1-.3-.2-.6-.3-1l-.2-.5c-.1-.2-.1-.4-.2-.6a9.863,9.863,0,0,1-.3-2.4,7.267,7.267,0,0,1,.4-2.5,5.9,5.9,0,0,1,1.2-2.2,7.28,7.28,0,0,1,1.8-1.7,7.714,7.714,0,0,1,4.7-1.2,8.648,8.648,0,0,1,2.3.6,8.578,8.578,0,0,1,2,1.3Z" fill="#5200a9"/><g transform="translate(57.832 53.488)"><path d="M17.7,4.8.9,0,.3,3,3.1,4.3l-3,.5L0,6.9l3.1.8L0,8.5l.2,2.1,3.6.8-3.1.8.8,2.2,15.9-2.3Z" fill="#e2cc00"/><path d="M19.5,11.8l-8.8,1.9-.8-3.1,2.7-.8L9.8,9.3l.4-2.9h2.6L10.5,4.8l1.1-2.2,8.6,2.7Z" fill="#690bd6"/></g><g transform="translate(32.998 76.661)"><path d="M18.1,15.6,10.1,0,7.5,1.6l1,2.9L6.1,2.7,4.5,4.1,6,6.9,3.3,5.1,1.9,6.7,3.8,9.9,1,8.2,0,10.3,12.5,20.4Z" fill="#e2cc00"/><path d="M14.1,21.6,6.7,16.4l1.7-2.7,2.5,1.5L9.3,12.9l2.4-1.7,1.8,1.9-.4-2.8,2.3-.7,3.9,8.1Z" fill="#690bd6"/></g><g transform="translate(19.179)"><path d="M.6,2.7.4,16.3l13.1-3.4L7.8,1.1Z" fill="#d8c173"/><path d="M7.6,0,9.9,4.4,7.7,5.6,6.3,3.2l.3,2.7-2.8.3L3.3,3.8l-1,2.5L0,5.8,1,.2Z" fill="#690bd6"/><path d="M6.4,13h0l-.9-1.2a.188.188,0,0,1,0-.3l.5-.7-.8.3a.367.367,0,0,1-.3-.1L4,9.9c-.1-.1-.1-.3,0-.3L4.5,9l-.7.2a.367.367,0,0,1-.3-.1L2.7,7.5a.192.192,0,0,1,.1-.3h0L5,6.3a.192.192,0,0,1,.3.1c0,.1,0,.3-.1.3l-2,.8.6,1.2,1.5-.6c.1,0,.3,0,.3.1v.2L4.5,9.7l.7,1,1.4-.6a.192.192,0,0,1,.3.1v.2L6,11.6l.7.9,1.4-1c.1-.1.3-.1.3.1s.1.3-.1.3h0L6.7,13C6.6,13.1,6.4,13.1,6.4,13Z" fill="#f4eeb2"/></g><path d="M19.8,77.4l4.7,14.2h3.1l11.2-4.7.8-2.5,1.8,1,3.4-1.9-.6-2.2,2.5,1.2L50,80.1l-.7-2.3L51.8,79l3.6-2.8-.5-2.3,3.9-.8,3.5-8.6-1.4-1.9h2.8l1.9-4-3.2-2.3-7.6-4.1Z" fill="#690bd6"/><path d="M19.4,75.4a2.628,2.628,0,0,0-1.5-.7,3.219,3.219,0,0,0-1.7.1,5.308,5.308,0,0,0-2.9,1.9,4.553,4.553,0,0,0-.8,3.2,8.447,8.447,0,0,0,.5,1.7c.1.1.1.3.2.4l.2.5c.2.3.3.7.5,1a32.551,32.551,0,0,1,1.5,4.4,6.883,6.883,0,0,1,.2,2.5,7.512,7.512,0,0,1-.5,2.6,6.08,6.08,0,0,1-1.5,2.4A8.341,8.341,0,0,1,11.5,97c-1.3.7-2.7,1.3-4.1,1.9L6,95.5l2-.7A14.166,14.166,0,0,0,9.8,94a6.706,6.706,0,0,0,1.4-.9,2.73,2.73,0,0,0,.9-1.2,6.516,6.516,0,0,0,.3-3.4,16.569,16.569,0,0,0-1.1-3.8,10.375,10.375,0,0,1-.4-1l-.2-.5a1.421,1.421,0,0,1-.2-.6,6.874,6.874,0,0,1-.5-2.4,5.82,5.82,0,0,1,.3-2.6,10.076,10.076,0,0,1,1.2-2.3,7.291,7.291,0,0,1,4.3-2.5,5.3,5.3,0,0,1,2.5.1,6.117,6.117,0,0,1,1.2.5,3.915,3.915,0,0,1,1,.8Z" fill="#ffed00"/><path d="M20.1,74a5.2,5.2,0,0,0-3-2,6.984,6.984,0,0,0-3.8.2,8.251,8.251,0,0,0-3.2,2,5.605,5.605,0,0,0-1.5,3.3,6.054,6.054,0,0,0,0,1.9.9.9,0,0,0,.1.5.9.9,0,0,1,.1.5c0,.2.1.3.1.5v.2l.1.3a18.916,18.916,0,0,1,.5,2.3,10.479,10.479,0,0,1,.1,2.5,3.529,3.529,0,0,1-.3,1.4A6.109,6.109,0,0,1,8.6,89a3.745,3.745,0,0,1-1.3,1.2,4.418,4.418,0,0,1-1.6.6,7.587,7.587,0,0,1-3-.1,5.023,5.023,0,0,1-1.3-.5A4.2,4.2,0,0,1,0,89.3l2.5-2.7A1,1,0,0,0,3,87c.2.1.5.2.7.3a3.178,3.178,0,0,0,1.4.2c.2,0,.3-.1.5-.1.1-.1.3-.2.4-.3a2.106,2.106,0,0,0,.5-1.3A10.869,10.869,0,0,0,6.6,84a6.929,6.929,0,0,0-.3-2l-.1-.5c0-.2-.1-.4-.1-.6s-.1-.5-.1-.7a1.268,1.268,0,0,0-.1-.6A10.479,10.479,0,0,1,6,77.1a9.678,9.678,0,0,1,.8-2.4,7.492,7.492,0,0,1,1.5-2,9.214,9.214,0,0,1,4.3-2.4,10.154,10.154,0,0,1,4.9,0,9.432,9.432,0,0,1,2.3,1,5.194,5.194,0,0,1,1.7,1.9Z" fill="#ffed00"/><path d="M63.2,56s-5.3-4.6-7-7.1l-6.6-9.7L31.7,52.3l4.6,6.4L20.9,70.8c-3.3,4.3-1.4,10-1.4,10l2.7.5L23.8,78l1.4,3.7,3.3-.2.9-3.6,2.2,3,3.1-1.2-.3-4.2,4.1,2.3,3-2-.9-4.1,3.3,2.1,3.6-2.5-.9-3.6,3.6,1.9,2.6-1.8-.9-4.3,4.4,1.2,2.5-2.6-1.9-3.3,4.3.6Z" fill="#f4eeb2"/><path d="M53.8,13.2c-5.2-6.6-37.4,2.1-37.4,2.1L4.6,10.5l-4,4.7,12,10.7L29,48.6l5.2,10.8L21.2,70l-2.3,2.8,5.5.1,1.7-3.8,1.2,3.2,4.6-1.5L31.7,67l2.6,2.4,3.9-2.6-1.1-3.9,4.2,2.6L45,62.3l-1.6-4.1,3.7,3L50,59l-1.6-4.7,4.5,2.9,2.8-2.7-2.4-4.3,4.4,2.5,2-2.5-5.9-5L45.6,33.4C45.7,33.3,57.6,18,53.8,13.2Z" fill="#690bd6"/><path d="M12.5,24,29.3,50.5l3.3-1.2-.9-3.9,3,2.8,3-1.6-1.5-4,3,3.2,2.9-1.9-1.8-4.1,3.4,2.7,2.4-1.9-1.8-3.9,3.6,2.5L49.2,37l-3.3-3.6s11.9-13.3,8.6-19.3S12.5,24,12.5,24Z" fill="#f4eeb2"/><path d="M16.3,15.3,7.6,11.7,5.4,19.4l7.1,6.4L21.9,40l3-1.1-1.1-5.5,3,4.4,3-1.7-1-5.8,3.7,4.3,3.4-1.9-2-5.4,4.5,3.9,2.5-2.5-2.8-5,5,3.5L45,24.8l-2.5-5,4.9,2.4,2.9-3.6-2.7-3.9,4.1,1.6,1.7-2.5L53.2,12C45.6,6.9,16.3,15.3,16.3,15.3Z" fill="#690bd6"/><path d="M16.7,29.4l-2.8,4.5,2.4,3.6,4.8-1.9Z" fill="#690bd6"/><path d="M15.1,22.3c-.1-.1,0-.3.1-.4s.3,0,.4.1L17,24.2,20.6,23c.1,0,.3,0,.3.1a.192.192,0,0,1-.1.3L18,25.5l1.2,1.9,3.4-1.2c.1,0,.3,0,.3.1a.187.187,0,0,1,0,.3l-2.9,3,1.8,2.2,3.9-1.6c.1-.1.3,0,.4.1s0,.3-.1.4h0l-4.1,1.7a.367.367,0,0,1-.3-.1l-2.1-2.5a.3.3,0,0,1,0-.4l2-2-2.5.8c-.1,0-.3,0-.3-.1l-1.4-2.3c-.1-.1,0-.3.1-.4l1.7-1.3-2.2.7c-.1,0-.3,0-.3-.1l-1.5-2.4Z" fill="#5200a9"/><g transform="translate(0.459 9.815)"><path d="M1.6,7l9.9,9.3,1.6-2L11.3,12l2.7.9,1.1-1.7-2.3-2,3,.7L16.6,8,13.9,5.7l3,.7.3-2.2L5.3.6Z" fill="#f4eeb2"/><path d="M4.3,0,9.1,1.2,8.5,3.7,5.8,3.2,8,4.7,6.4,7,4.2,5.8,5.3,8.2,3.5,9.6,0,5.1Z" fill="#690bd6"/><path d="M7.1,7h0a.367.367,0,0,1,.1-.3L9.4,5c.2,0,.3,0,.4.2a.247.247,0,0,1-.1.4L7.8,7l1,1.2,1.6-1.1a.247.247,0,0,1,.4.1.187.187,0,0,1,0,.3l-1,1.7,1,.9L12.3,9a.3.3,0,0,1,.4,0,.187.187,0,0,1,0,.3L12,10.7l.9.6c.1.1.2.3.1.4s-.3.2-.4.1L11.4,11c-.1-.1-.2-.2-.1-.4l.2-.4-.5.5a.3.3,0,0,1-.4,0L9.3,9.5c-.1-.1-.1-.2-.1-.4l.5-.8-.8.5a.3.3,0,0,1-.4,0L7.2,7.2C7.1,7.1,7.1,7.1,7.1,7Z" fill="#d8c173"/></g><g transform="translate(53.77 61.288)"><path d="M18.8,12.2,6.2,0,4.3,2.4,6.2,4.8l-2.8-1L2.2,5.7,4.6,7.8,1.4,7,.6,9l2.8,2.4L.3,10.7,0,13l15.1,5.5Z" fill="#ffed00"/><path d="M17,19.1,8.4,16.6l.7-3.2,2.8.6L9.6,12.4,11.3,10l2.3,1.2L12.4,8.7l2-1.4,6.3,6.4Z" fill="#690bd6"/><path d="M7.7,10.8H7.5l-1.6-.4-.3.8c0,.1-.2.2-.3.2s-.2-.2-.2-.4l.4-1c0-.1.2-.2.3-.2l.5.1-.6-.5c-.1,0-.1-.2-.1-.3l.9-1.7c.1-.1.2-.2.3-.1l1,.3-.7-.8c-.1-.1-.2-.3-.1-.4L8.3,4.6c.1-.1.3-.2.4-.1h0L11,6.4a.283.283,0,0,1-.4.4l-2-1.7-1,1.4L9.1,7.8a.3.3,0,0,1,0,.4c0,.1-.1.1-.2.1l-2-.5L6.2,9.1l1.5,1.2a.367.367,0,0,1,.1.3C7.8,10.7,7.7,10.7,7.7,10.8Z" fill="#e2cc00"/></g><path d="M54.3,12.8C52.5,10.5,48,9.9,42.5,10l-.1,4.4,4.8-.4-3.9,3.5,2.4,3.4,3.7-2.7-.9,4.9,3.6,1.3C54.7,19.9,56.2,15.2,54.3,12.8Z" fill="#5200a9"/><path d="M33,16.5a.247.247,0,0,1,.1-.4.187.187,0,0,1,.3,0l1.7,1.1,2.3-2.6a.3.3,0,0,1,.4,0,.367.367,0,0,1,.1.3l-1.2,3.4,1.9,1.3,2.6-2.8a.6.6,0,0,1,.4-.1.6.6,0,0,1,.1.4h0l-2.8,3c-.1.1-.2.1-.4,0l-2.3-1.6c-.2,0-.2-.1-.2-.2l.8-2.2-1.5,1.7c-.1.1-.2.1-.4,0L33,16.5Z" fill="#5200a9"/><path d="M29.2,42.2h0L27.5,40a.3.3,0,0,1,0-.4l1.9-2.1a.283.283,0,1,1,.4.4h0l-1.7,1.9,1.4,1.7L31.9,40c.1-.1.3,0,.4.1,0,.1.1.2,0,.3L31,42.9l1.9,1.4,1.8-2a.367.367,0,0,1,.3-.1c.1.1.2.2.1.3l-.6,3.1c0,.2-.2.2-.3.2-.2,0-.2-.2-.2-.3l.4-2.1L33,44.9c-.1.1-.2.1-.4,0l-2.3-1.7a.367.367,0,0,1-.1-.3l.9-1.8-1.8,1.1C29.4,42.3,29.3,42.3,29.2,42.2Z" fill="#d8c173"/><g transform="translate(38.015 74.931)"><path d="M.3,5.2,2,7.5,5,6.1l-.9-3L6.6,4.8,9,3,7.7.3l3.3,1" fill="#690bd6"/><path d="M2.1,7.7a.367.367,0,0,1-.3-.1L.1,5.4A.3.3,0,0,1,.1,5c.1-.1.3,0,.4.1L2.1,7.2,4.7,6,3.9,3.2c0-.1,0-.3.2-.3h.2L6.7,4.5l2-1.6L7.5.4c-.1-.1,0-.3.1-.4h.2l3.3,1c.1,0,.2.2.2.4,0,.1-.2.2-.3.2L8.2.7l1,2.1a.192.192,0,0,1-.1.3l-2.2,2a.188.188,0,0,1-.3,0l-2-1.3L5.3,6c0,.1,0,.3-.1.3L2.1,7.7Z" fill="#5200a9"/></g><g transform="translate(24.181 83.437)"><path d="M10.4,17.6,14.4.5l-3-.4L10.3,2.9,9.6,0H7.4L6.8,3.1,5.9,0,3.8.4,3.2,4,2.2.9,0,1.9,3,17.7Z" fill="#ffed00"/><path d="M3.5,19.6,1.2,10.9l3.1-1,1,2.7.2-2.8,2.9.2.1,2.6L10,10.2l2.2,1L10,19.9Z" fill="#690bd6"/><path d="M11.2,8.1h-.1c-.2,0-.3-.2-.2-.3h0l.4-2.6L9.5,5.1l-.4,2c0,.2-.2.2-.3.2a.215.215,0,0,1-.2-.2L8,5.1l-1.5.2L6.3,7.1c0,.2-.2.3-.3.2a.215.215,0,0,1-.2-.2L5.3,5.6l-.8.2c-.2,0-.3-.1-.3-.2s.1-.3.2-.3l1-.3c.1,0,.3.1.3.2l.2.5L6,5c0-.1.1-.2.3-.2l1.9-.1c.1,0,.2.1.3.2l.3,1L9,4.7c0-.1.2-.2.3-.2l2.2.2a.265.265,0,0,1,.3.3h0l-.4,2.9C11.3,8,11.3,8.1,11.2,8.1Z" fill="#e2cc00"/></g><g transform="translate(32.639 49.699)"><path d="M2.7.3.3,3.9,2.8,5.7,5.6,3.5,4.7,6.4,8.8,7.6l1.7-2.8L10.8,8l3.9.2.8-3.1,1.2,3.1,3.6-.4" fill="#690bd6"/><path d="M4.6,6.7c-.1,0-.2-.2-.2-.3l.6-2L2.9,6H2.6L.1,4.1C0,4.1,0,3.9,0,3.8L2.4.2c.2-.2.3-.2.5-.1.1,0,.1.2,0,.3L.7,3.9,2.8,5.4,5.4,3.3a.3.3,0,0,1,.4,0,.188.188,0,0,1,0,.3L5.1,6.2,8.7,7.3l1.6-2.6c.1-.1.3-.2.4-.1.1,0,.1.1.1.2l.3,2.9,3.4.3.7-2.9c0-.1.2-.2.3-.2a.215.215,0,0,1,.2.2L16.9,8l3.4-.4c.2,0,.3.1.3.2s-.1.3-.2.3l-3.6.4c-.1,0-.2-.1-.3-.2L15.6,6,15,8.4c0,.1-.2.2-.3.2l-3.9-.2c-.1,0-.2-.1-.3-.2l-.2-2.4L9,7.8c-.1.1-.2.2-.3.1L4.6,6.7Z" fill="#5200a9"/></g><path d="M42.3,70.3H42l-2-1.6a.283.283,0,1,1,.4-.4l1.8,1.4,2.3-1.6-.3-2.8c0-.2.1-.3.2-.3h.1l2.9,1.2,2.4-1.9-1.1-2.7c-.1-.1,0-.3.2-.4h.2l2.7,1.6,1.1-.8a.292.292,0,1,1,.3.5l-1.2,1a.188.188,0,0,1-.3,0l-2.1-1.3.8,2.2a.367.367,0,0,1-.1.3l-2.7,2.1a.188.188,0,0,1-.3,0l-2.6-1.1.3,2.5a.367.367,0,0,1-.1.3l-2.6,1.8Z" fill="#e2cc00"/><path d="M20.4,76.2a3.938,3.938,0,0,0-3-.4,3.788,3.788,0,0,0-2.3,1.8,5.183,5.183,0,0,0-.5,3,9.363,9.363,0,0,0,.4,1.6.758.758,0,0,0,.2.4c.1.1.1.3.2.4l.4.8a29.535,29.535,0,0,1,1.6,3.7,15.985,15.985,0,0,1,.5,2.1,8.879,8.879,0,0,1,.1,2.3,7.172,7.172,0,0,1-.7,2.5c-.1.2-.3.4-.4.6-.1.1-.1.2-.2.3l-.3.3a4.44,4.44,0,0,1-1.1.8l-.6.3a1.421,1.421,0,0,1-.6.2,5.019,5.019,0,0,1-1.2.2,6.473,6.473,0,0,1-2.4-.1l.7-3.6a4.574,4.574,0,0,0,2.6-.1,1.555,1.555,0,0,0,.8-.6,3.582,3.582,0,0,0,.4-1.1,3.787,3.787,0,0,0,0-1.5c-.1-.6-.2-1.1-.3-1.7A19.571,19.571,0,0,0,13.5,85l-.6-1c-.1-.2-.1-.3-.2-.5s-.1-.3-.2-.5a7.8,7.8,0,0,1-.4-2.2,8.879,8.879,0,0,1,.1-2.3,8.488,8.488,0,0,1,.9-2.2,6.479,6.479,0,0,1,1.6-1.7,5.9,5.9,0,0,1,6.5,0Z" fill="#690bd6"/><g transform="translate(1.584 -0.379)"><path d="M31.3,32.6a8.081,8.081,0,1,1,3.1-11,8.151,8.151,0,0,1-3.1,11Z" fill="#ff6300"/></g><g transform="translate(1.584 -0.379)"><path d="M30.8,30.7a6.45,6.45,0,0,1-6.4-11.2,6.368,6.368,0,0,1,8.7,2.4,6.285,6.285,0,0,1-2.3,8.8Z" fill="#070117"/></g><path d="M34.2,21.5v-.8a5.731,5.731,0,0,0-1.1-1.1,1.7,1.7,0,0,0-.1.7,3.812,3.812,0,0,1-.1,1.5c-.1.2-.2.4-.4.4a1.141,1.141,0,0,1-.6-.3,9.016,9.016,0,0,1-.9-1c-.1-.1-.3-.3-.4-.3a.6.6,0,0,0-.4.1,1.716,1.716,0,0,0-.8,1.6,6.07,6.07,0,0,0,.5,1.8,3.805,3.805,0,0,1,.3,1.8c-.1.4-.3.8-.7.8s-.8-.4-1.1-.7a2.7,2.7,0,0,0-3.2.1,3.194,3.194,0,0,0-1.1,2.4,7.545,7.545,0,0,0,2.6,2.1c0-.1-.1-.2-.1-.3a2.4,2.4,0,0,1-.2-1.4,1.063,1.063,0,0,1,1-.9,1.884,1.884,0,0,1,.8.2,2.6,2.6,0,0,0,2.8-.4,3.256,3.256,0,0,0,.3-2.4,8.752,8.752,0,0,1-.2-1.6c-.1-.4-.1-1,.3-1.2.5-.3,1.1.5,1.7.5a1.013,1.013,0,0,0,.9-.6A1.5,1.5,0,0,0,34.2,21.5Z" fill="#fff"/><path d="M30.8,18c0-.1-1-6.8,3.9-8.4,2.4-.8,2.6,1.3,2.6,1.3l-1.2.3s.3-.9-.8-.4c-4.6,1.9-1.6,8.3-1.6,8.3Z" fill="#ff6300"/><path d="M22.1,27.7,13.2,32l.3,6.3a14.159,14.159,0,0,0,2,.4c0-.1-.1-5.5-.1-5.5l8.8-2.9Z" fill="#ff6300"/></g></g></g><path d="M92.6,50l-2.5,2.8L92,55.1l2.4-.2L93.7,58l1.8,2.7,2.9-1.3Z" fill="#f4eeb2"/><path d="M99.7,60.7l-2.2,3.2,1.8,2.3,2.7-.4Z" fill="#690bd6"/><circle cx="32.2" cy="32.2" r="32.2" transform="translate(63.3 0)" fill="none" stroke="#fff" stroke-linecap="round" stroke-linejoin="round" stroke-width="2"/><path d="M120.7,29.6A23.473,23.473,0,0,0,97.2,6.1" fill="none" stroke="#fff" stroke-linecap="round" stroke-linejoin="round" stroke-width="2"/></g><path d="M126.9,130.8c.2,1.8.3,3.9-1.1,5.1s-3.4.8-5.2.4c-1.7-.4-3.8-.8-5.2.3-1.2,1-1.4,2.8-2.3,4.2a4.9,4.9,0,0,1-4.2,2,7.6,7.6,0,0,1-4.5-1.7" fill="none" stroke="#fff" stroke-linecap="round" stroke-miterlimit="10" stroke-width="3.031"/><path d="M123.9,125.8l-1.3,7.4,9.1-2.1-5.2-6.2Z" fill="#ffd600"/><circle cx="16.9" cy="16.9" r="16.9" transform="translate(107 94.9)" fill="#ffed00"/><path d="M123.9,99.3a12.5,12.5,0,0,1,12.5,12.5" fill="none" stroke="#fff" stroke-linecap="round" stroke-linejoin="round" stroke-width="1.516"/><path d="M53.5,57c.3,2.4.4,5.2-1.5,6.8-1.8,1.6-4.5,1.1-6.8.5s-5-1.1-6.8.4c-1.6,1.4-1.8,3.8-3,5.5a6.651,6.651,0,0,1-5.6,2.7,9.273,9.273,0,0,1-5.9-2.3" fill="none" stroke="#fff" stroke-linecap="round" stroke-miterlimit="10" stroke-width="4"/><path d="M49.5,50.5l-1.7,9.7,12-2.8L53,49.3Z" fill="#00dbff"/><circle cx="22.3" cy="22.3" r="22.3" transform="translate(27.2 9.7)" fill="aqua"/><path d="M49.5,15.5A16.516,16.516,0,0,1,66,32" fill="none" stroke="#fff" stroke-linecap="round" stroke-linejoin="round" stroke-width="2"/></svg>