<svg xmlns="http://www.w3.org/2000/svg" xmlns:xlink="http://www.w3.org/1999/xlink" width="382.8" height="279.7" viewBox="0 0 382.8 279.7"><defs><clipPath id="a"><rect width="382.8" height="279.7"/></clipPath></defs><g clip-path="url(#a)"><g transform="translate(14.045 9.948)"><path d="M309.7,6.3S279.7-6.5,231.3,20C186.9,44.4,154,35.4,154,35.4s5.3,25.9,42.3,43.4c-4.3,19.1-30.9,41.8-30.9,41.8s17,24.7,86.6-10.8c43.5-22.2,71.2-20.2,71.2-20.2Z" fill="#690bd6"/><g transform="translate(209.705 23.085)"><circle cx="37.4" cy="37.4" r="37.4" transform="translate(0 0)" fill="#5200a9"/><circle cx="26.9" cy="26.9" r="26.9" transform="translate(10.5 10.5)" fill="#690bd6"/><path d="M35.2,10.6a27.549,27.549,0,0,1,13,51.3A26.922,26.922,0,0,0,61.8,26.4,26.582,26.582,0,0,0,35.2,10.6Z" fill="#3b0084"/><path d="M35.3,22.3l-.6-4.2,1.4-.2,2.3,4.4A13.034,13.034,0,0,0,35.3,22.3Z" fill="#fff"/><path d="M47.2,42.1A11.006,11.006,0,0,1,46,46.2l5,3.1,1-1.9Z" fill="#fff"/><path d="M36.7,50.5l-3.4.4.8,4.2h2Z" fill="#fff"/><circle cx="1" cy="1" r="1" transform="translate(43 20.9)" fill="#fff"/><path d="M48.6,25.9c-1.5-3.1-14.5-2.6-14.5-2.6L30,19.2l-1.2.5,7.9,20.2-7.9,1.3-2.9-5-.8.6.9,2.6L22.3,37l-.9,1,3.4,3.1-2.8.3.2,1.1,4.9.7-.8,10.9,2.8.1,2.8-4.4,8.4-.9,3.9,4.8,2.2-1.4-1.8-6.2.9-2.2a5.792,5.792,0,0,0,.2-3.9l-2.3-6.7C43.4,33.4,49.7,28.2,48.6,25.9ZM40,28.6a1.36,1.36,0,1,1,.9-1.7A1.391,1.391,0,0,1,40,28.6Z" fill="#fff"/></g><path d="M319.3,147.8l6.7-14.7-.7-10.2,4.4-.6,2.9-5.8,10.8,13.8-8.1,8.2L329,153.6Z" fill="#7cd36a"/><rect width="6.3" height="222.5" transform="translate(304.915 1.347) rotate(-11.911)" fill="#070117"/><path d="M331,123.2l7.3-7.3,9.5,16.8-11.1,3.2Z" fill="#7cab6a"/><path d="M326,133.1l-.9-11.9,9.2-.6,2.9,7.5c-2.4,1.7-6.5-4.3-6.5-4.3s2.5,7.2-1,11.8" fill="#7cd36a" stroke="#7cab6a" stroke-linecap="round" stroke-linejoin="round" stroke-width="1"/><g transform="translate(79.243 128.878)"><path d="M.8,17,10.1,1.4A1.657,1.657,0,0,1,12.3.8L45.7,20.6a1.657,1.657,0,0,1,.6,2.2L37,38.5a1.657,1.657,0,0,1-2.2.6L1.4,19.3A1.755,1.755,0,0,1,.8,17Z" fill="#6431a1"/><rect width="15.1" height="34.5" transform="translate(4.841 17.611) rotate(-59.249)" fill="none" stroke="#4a0897" stroke-linecap="round" stroke-linejoin="round" stroke-width="2"/><g transform="translate(4.862 4.666)"><path d="M12.2,2.7,7.7,0,5.1,4.5a5.312,5.312,0,0,0,7.1-1.8Z" fill="#4a0897"/><path d="M34.7,22.1l2.6-4.5L32.9,15A5.264,5.264,0,0,0,34.7,22.1Z" fill="#4a0897"/><path d="M32.3,26.2A5.11,5.11,0,0,0,25.2,28l4.5,2.7Z" fill="#4a0897"/><path d="M2.6,8.5,0,13l4.5,2.6A5.227,5.227,0,0,0,2.6,8.5Z" fill="#4a0897"/></g><circle cx="4.5" cy="4.5" r="4.5" transform="translate(19.9 15.5)" fill="#4a0897"/></g><g transform="translate(30.6 104.985)"><path d="M35.9,38.2C21.8,34.9,9.6,26.2.5,15.1a1.85,1.85,0,0,1,.1-2.5C5.8,7.7,8.5,5.3,13.8.4A1.3,1.3,0,0,1,15.7.3l.1.1A50.816,50.816,0,0,0,43.1,18.2a1.391,1.391,0,0,1,.9,1.7.1.1,0,0,1-.1.1c-2.3,6.8-3.4,10.2-5.7,17A1.878,1.878,0,0,1,35.9,38.2Z" fill="#6431a1"/><path d="M34.7,34.6A79.576,79.576,0,0,1,4.2,14.7L14.7,4.1A53.539,53.539,0,0,0,40.1,20.7Z" fill="none" stroke="#4a0897" stroke-linecap="round" stroke-linejoin="round" stroke-width="2"/><g transform="translate(4.201 4.145)"><path d="M13.7,3.4C12.6,2.3,11.5,1.2,10.5,0L6.9,3.6a4.416,4.416,0,0,0,6.2.4Z" fill="#4a0897"/><path d="M34.1,21.3c.7-1.9,1.1-2.9,1.9-4.8A32.551,32.551,0,0,1,31.6,15a4.38,4.38,0,0,0,1.8,6A.908.908,0,0,0,34.1,21.3Z" fill="#4a0897"/><path d="M32.4,25.7a5.915,5.915,0,0,0-7.1,3,47.181,47.181,0,0,0,5.3,1.8C31.3,28.6,31.6,27.6,32.4,25.7Z" fill="#4a0897"/><path d="M3.6,6.9C2.2,8.4,1.4,9.1,0,10.6c1.2,1.4,2.5,2.8,3.8,4.1A6.051,6.051,0,0,0,3.6,6.9Z" fill="#4a0897"/></g><path d="M26.7,22.8A4.362,4.362,0,0,1,19,18.7c.1-.2.2-.3.3-.5a4.357,4.357,0,0,1,7.4,4.6Z" fill="#4a0897"/></g><g transform="translate(37.591 152.312)"><path d="M43.6,20.1c-13.1,6.4-28,7.4-42,4.5a1.948,1.948,0,0,1-1.6-2C1,15.5,1.6,11.9,2.6,4.8A1.375,1.375,0,0,1,4.1,3.5h.1A50.194,50.194,0,0,0,36.6.1a1.4,1.4,0,0,1,1.8.8V1c2.5,6.7,3.8,10.1,6.3,16.8A1.867,1.867,0,0,1,43.6,20.1Z" fill="#6431a1"/><path d="M40.4,18.1A79.515,79.515,0,0,1,4.2,22L5.7,7.1A52.523,52.523,0,0,0,35.8,3.9C37.7,9.6,38.6,12.4,40.4,18.1Z" fill="none" stroke="#4a0897" stroke-linecap="round" stroke-linejoin="round" stroke-width="2"/><g transform="translate(4.237 3.87)"><path d="M6.1,3.9a33.954,33.954,0,0,1-4.6-.7C1.3,5.3,1.2,6.3,1,8.4A4.468,4.468,0,0,0,6,4.7,2.2,2.2,0,0,0,6.1,3.9Z" fill="#4a0897"/><path d="M33.2,4.9c-.6-2-1-2.9-1.6-4.9a32.934,32.934,0,0,1-4.4,1.6,4.428,4.428,0,0,0,5.2,3.5A2.353,2.353,0,0,0,33.2,4.9Z" fill="#4a0897"/><path d="M34.6,9.3a6.078,6.078,0,0,0-3.7,6.8c1.8-.6,3.5-1.2,5.2-1.9C35.6,12.3,35.3,11.3,34.6,9.3Z" fill="#4a0897"/><path d="M.5,13c-.2,2-.3,3.1-.5,5.1a52.061,52.061,0,0,0,5.5.8A6,6,0,0,0,.5,13Z" fill="#4a0897"/></g><path d="M26.8,14a4.374,4.374,0,1,1-8.6,1.6c0-.2-.1-.4-.1-.6a4.24,4.24,0,0,1,3.8-4.8A4.54,4.54,0,0,1,26.8,14Z" fill="#4a0897"/></g><path d="M257.3,198.1s-40.5-4.8-40.8,13.7,5.5,34.1,21.4,36.7,28.7-20.1,28.7-20.1Z" fill="#00d1d8"/><path d="M275.8,199.3l31.4-32,16-32.2,13.3,5.8L323,182.1l-25.7,35.6Z" fill="#00d1d8"/><path d="M315.7,257.8c7.2,18-4.2,27.7-23.5,35.4s-39.1,10.4-46.3-7.6,2.6-38.9,21.9-46.5S308.5,239.8,315.7,257.8Z" fill="#070117"/><path d="M247.1,289.1s40.8-.2,69.8-31.7c3.7-10.4-8.1-17.1-13.3-26.4-9.4-16.5-14.9-39.4-25.1-35.1L235.9,212a12.91,12.91,0,0,0-9,15.8c0,.1,0,.1.1.2l12.9,35.4C239.9,263.5,238.1,285.1,247.1,289.1Z" fill="aqua"/><path d="M274.9,200.4c-15.4-14.2-46.9,2.1-46.9,2.1l-1.6,4s9.7,27.9,44.1,11C285,210.4,278.8,204,274.9,200.4Z" fill="#00d1d8"/><path d="M249.6,216s19.1,32.7,21.5,45.5a117.926,117.926,0,0,1,1.9,23,78.544,78.544,0,0,0,30.9-15.4s-7.3-25.4-14.1-36.9-15.5-27-15.5-27Z" fill="#7cd36a"/><path d="M274.3,205.2c-7.1,13.5-29.4,12.4-29.4,12.4l-15.4-50,24.2-4.6Z" fill="#7cd36a"/><path d="M242,208.3c8.2,1.9,20.2-1.7,31-5.9l-19.3-39.6-24.2,4.6Z" fill="#7cab6a"/><path d="M289.5,125.9c12.7,14.2,27.6,47.3-13.7,65.5s-72,19.2-81.8-10.6a56.738,56.738,0,0,1,36.3-71.6C260.1,99.4,276.6,111.5,289.5,125.9Z" fill="#7cd36a"/><circle cx="7.4" cy="7.4" r="7.4" transform="translate(205.6 109.1)" fill="#7cd36a"/><circle cx="7.4" cy="7.4" r="7.4" transform="translate(217.5 102.6)" fill="#7cd36a"/><line y1="1.6" x2="9.6" transform="translate(206.2 112)" fill="none" stroke="#070117" stroke-linecap="round" stroke-linejoin="round" stroke-miterlimit="10" stroke-width="3.845"/><line y1="7.8" x2="4.1" transform="translate(219.9 102.4)" fill="none" stroke="#070117" stroke-linecap="round" stroke-linejoin="round" stroke-miterlimit="10" stroke-width="3.845"/><line y1="2.1" x2="4.5" transform="translate(213.3 115)" fill="none" stroke="#070117" stroke-linecap="round" stroke-linejoin="round" stroke-miterlimit="10" stroke-width="2.136"/><line y1="4.1" x2="4" transform="translate(221.9 108.9)" fill="none" stroke="#070117" stroke-linecap="round" stroke-linejoin="round" stroke-miterlimit="10" stroke-width="2.136"/><path d="M233.1,108.8c-41.3,17.2-38.3,63.6-13.3,75.1,15.3,7,19.4-8,38.1-14.8s33.8,3.6,35.5-14.4C296,129.3,265.2,95.4,233.1,108.8Z" fill="#ff6300"/><path d="M227.5,179.5a10.964,10.964,0,0,1-5.1-1.3c-9.2-4.2-15-14.7-14.8-26.8.3-16,10.7-29.8,27.9-37a31.4,31.4,0,0,1,11.2-2.5c10.1-.4,20.6,4.3,28.8,13s12.8,19.9,11.9,29.1c-.1,1.5-.6,4.1-1.7,4.9s-3.7,1-5.9,1h0c-.9,0-1.9.1-3,.1-1.2,0-2.4.1-3.7.1a55.52,55.52,0,0,0-17.2,3.1c-8.2,3-13.8,7.3-18.4,10.8C233,177.4,230.4,179.4,227.5,179.5Z" fill="#070117"/><path d="M246.7,112a34.251,34.251,0,0,0-11.2,2.5c-17.1,7.1-27.5,20.9-27.9,36.8a9.37,9.37,0,0,0,8.6-9.7,10.207,10.207,0,0,0-1.2-4.3,14.978,14.978,0,0,0,2.2.2,9.371,9.371,0,0,0,9-9.7c0-.4-.1-.7-.1-1a10.356,10.356,0,0,0,4.3.9,9.444,9.444,0,0,0,9-9,9.5,9.5,0,0,0,6.9,2.7,9.183,9.183,0,0,0,7.7-4.7,9.443,9.443,0,0,0,9.2,6.3,9.254,9.254,0,0,0,6.5-3C262.7,114.5,254.5,111.7,246.7,112Z" fill="#fff"/><g transform="translate(124.077 159.155)"><path d="M45.4,53.5l-13.2-4-2.3-4.4,2.9-9.3,2.7.8L33,44.8l1.2,2.3,12,3.7Z" fill="#ff6300"/><path d="M60.9,66.3a80.519,80.519,0,0,1-17.7-.7l-.8-3.5L45.6,60l-.9-20L59,44.4C58.9,44.5,60.5,50.5,60.9,66.3Z" fill="#ff6300"/><path d="M58.9,44.5,44.6,40.1l.1,5,15.6,8.8A91.067,91.067,0,0,0,58.9,44.5Z" fill="#d63b00"/><path d="M22,1.5,19.8.2a1.342,1.342,0,0,0-1.9.5.367.367,0,0,0-.1.3l-1,3.4a1.556,1.556,0,0,0,.9,1.8l2.3.7A1.556,1.556,0,0,0,21.8,6h0l.9-2.8A1.479,1.479,0,0,0,22,1.5Z" fill="#d63b00"/><path d="M67.4,50.7,2.8,30.7A3.825,3.825,0,0,1,.2,25.8l6.4-21a3.825,3.825,0,0,1,4.9-2.6h0l62,19.2a3.914,3.914,0,0,1,2.7,4.5L72.4,47.7a3.976,3.976,0,0,1-4.6,3.2A.4.4,0,0,0,67.4,50.7Z" fill="#ff6300"/><path d="M72.2,65.3,63.9,54.6S51.8,50.9,51.7,54c-.1,5.3,7,3.7,7,3.7a10.69,10.69,0,0,0-1,6.8c.8,3.5,5.1,7.8,5.1,7.8Z" fill="#7cd36a"/><path d="M41.5,43.4l4.1,1.1a2.373,2.373,0,0,1,1.7,2.8l-.1.2a2.373,2.373,0,0,1-2.8,1.7l-4.1-1.1a2.373,2.373,0,0,1-1.7-2.8l.1-.2A2.293,2.293,0,0,1,41.5,43.4Z" fill="#7cd36a"/><path d="M43.6,52.6l4.1,1.1a2.373,2.373,0,0,1,1.7,2.8l-.1.2a2.373,2.373,0,0,1-2.8,1.7l-4.1-1.1a2.373,2.373,0,0,1-1.7-2.8l.1-.2A2.183,2.183,0,0,1,43.6,52.6Z" fill="#7cd36a"/><path d="M44.1,57l4.1,1.1a2.373,2.373,0,0,1,1.7,2.8l-.1.2A2.373,2.373,0,0,1,47,62.8l-4.1-1.1a2.373,2.373,0,0,1-1.7-2.8l.1-.2A2.222,2.222,0,0,1,44.1,57Z" fill="#7cd36a"/></g><path d="M231.3,214.4s1.9,3.4,7.5,8.6c18.9,17.2-21.3,40.9-21.3,40.9l-6.1-3.2-27.3-30.3,10.8-9.7,22.3,20.1C217.3,240.7,223.4,217.9,231.3,214.4Z" fill="aqua"/><line transform="translate(239.3 211.6)" fill="none" stroke="#690bd6" stroke-linecap="round" stroke-miterlimit="10" stroke-width="3"/><path d="M241.2,215.1c5.4,9.5,21.4,34.8,34.6,29.9,23.7-8.9,7.3-38.3,2.7-45.6" fill="none" stroke="#690bd6" stroke-linecap="round" stroke-miterlimit="10" stroke-width="3" stroke-dasharray="0 3.991"/><line transform="translate(277.4 197.7)" fill="none" stroke="#690bd6" stroke-linecap="round" stroke-miterlimit="10" stroke-width="3"/><line transform="translate(236.8 212.4)" fill="none" stroke="#ffed00" stroke-linecap="round" stroke-miterlimit="10" stroke-width="3"/><path d="M239,215.7c5.2,7.4,18.9,24.6,31.6,19.9,13.8-5.1,9.4-29.7,7.8-36.8" fill="none" stroke="#ffed00" stroke-linecap="round" stroke-miterlimit="10" stroke-width="3" stroke-dasharray="0 3.928"/><line transform="translate(278 196.9)" fill="none" stroke="#ffed00" stroke-linecap="round" stroke-miterlimit="10" stroke-width="3"/><line transform="translate(240 211.8)" fill="none" stroke="#fff" stroke-linecap="round" stroke-miterlimit="10" stroke-width="3"/><path d="M242.2,215.1c4.7,6.7,16.4,20.8,28.9,16.2,13.7-5,10.9-26.5,9.7-33.1" fill="none" stroke="#fff" stroke-linecap="round" stroke-miterlimit="10" stroke-width="3" stroke-dasharray="0 3.937"/><line transform="translate(280.4 196.3)" fill="none" stroke="#fff" stroke-linecap="round" stroke-miterlimit="10" stroke-width="3"/><g transform="translate(80.359 148.139)"><path d="M.5,19,5.8,1.6A1.666,1.666,0,0,1,7.8.5L44.9,11.9a1.666,1.666,0,0,1,1.1,2L40.7,31.3a1.666,1.666,0,0,1-2,1.1L1.6,21A1.584,1.584,0,0,1,.5,19Z" fill="#8c44e0"/><rect width="15.1" height="34.5" transform="translate(4.431 18.587) rotate(-72.986)" fill="none" stroke="#690bd6" stroke-linecap="round" stroke-linejoin="round" stroke-width="2"/><g transform="translate(4.529 4.153)"><path d="M9.4,1.5,4.4,0,2.9,5A5.269,5.269,0,0,0,9.4,1.5Z" fill="#690bd6"/><path d="M35.9,15.1l1.5-5-5-1.5A5.354,5.354,0,0,0,35.9,15.1Z" fill="#690bd6"/><path d="M34.5,19.6A5.3,5.3,0,0,0,28,23l5,1.5Z" fill="#690bd6"/><path d="M1.5,9.4,0,14.4l5,1.5A5.269,5.269,0,0,0,1.5,9.4Z" fill="#690bd6"/></g><circle cx="4.5" cy="4.5" r="4.5" transform="translate(19.5 11.7)" fill="#690bd6"/></g><g transform="translate(80.359 148.139)"><path d="M.5,19,5.8,1.6A1.666,1.666,0,0,1,7.8.5L44.9,11.9a1.666,1.666,0,0,1,1.1,2L40.7,31.3a1.666,1.666,0,0,1-2,1.1L1.6,21A1.584,1.584,0,0,1,.5,19Z" fill="#8c44e0"/><rect width="15.1" height="34.5" transform="translate(4.431 18.587) rotate(-72.986)" fill="none" stroke="#690bd6" stroke-linecap="round" stroke-linejoin="round" stroke-width="2"/><g transform="translate(4.529 4.153)"><path d="M9.4,1.5,4.4,0,2.9,5A5.269,5.269,0,0,0,9.4,1.5Z" fill="#690bd6"/><path d="M35.9,15.1l1.5-5-5-1.5A5.354,5.354,0,0,0,35.9,15.1Z" fill="#690bd6"/><path d="M34.5,19.6A5.3,5.3,0,0,0,28,23l5,1.5Z" fill="#690bd6"/><path d="M1.5,9.4,0,14.4l5,1.5A5.269,5.269,0,0,0,1.5,9.4Z" fill="#690bd6"/></g><circle cx="4.5" cy="4.5" r="4.5" transform="translate(19.5 11.7)" fill="#690bd6"/></g><g transform="translate(0 162.399)"><path d="M.9,3.9,22.2.1a.921.921,0,0,1,1.1.7l1.8,10a.921.921,0,0,1-.7,1.1L3,15.7A.921.921,0,0,1,1.9,15L.2,5A.921.921,0,0,1,.9,3.9Z" fill="#8c44e0"/><rect width="19.3" height="8.4" transform="matrix(0.985, -0.175, 0.175, 0.985, 2.416, 5.447)" fill="none" stroke="#690bd6" stroke-linecap="round" stroke-linejoin="round" stroke-width="2"/><g transform="translate(2.38 2.123)"><path d="M2.9,2.9,0,3.4.5,6.3A3.136,3.136,0,0,0,2.9,2.9Z" fill="#690bd6"/><path d="M19.5,2.9,19,0,16.1.5A3.017,3.017,0,0,0,19.5,2.9Z" fill="#690bd6"/><path d="M20,5.4a2.871,2.871,0,0,0-2.3,3.4l2.9-.5Z" fill="#690bd6"/><path d="M1,8.8l.5,2.9,2.9-.5A3.048,3.048,0,0,0,1,8.8Z" fill="#690bd6"/></g><circle cx="2.5" cy="2.5" r="2.5" transform="translate(10.5 5.2)" fill="#690bd6"/></g><g transform="translate(80.452 181.202)"><path d="M.6,16.1,15.9.7a.854.854,0,0,1,1.3,0l7.2,7.1a.854.854,0,0,1,0,1.3L9.2,24.5a.854.854,0,0,1-1.3,0L.7,17.4A.946.946,0,0,1,.6,16.1Z" fill="#8c44e0"/><rect width="19.3" height="8.4" transform="translate(2.807 16.515) rotate(-45.389)" fill="none" stroke="#690bd6" stroke-linecap="round" stroke-linejoin="round" stroke-width="2"/><g transform="translate(2.744 2.749)"><path d="M2,11.7,0,13.8l2.1,2A2.867,2.867,0,0,0,2,11.7Z" fill="#690bd6"/><path d="M15.6,2,13.5,0l-2,2.1A2.867,2.867,0,0,0,15.6,2Z" fill="#690bd6"/><path d="M17.5,3.9a2.959,2.959,0,0,0,0,4.1l2-2.1Z" fill="#690bd6"/><path d="M3.9,17.6l2.1,2,2-2.1A3.065,3.065,0,0,0,3.9,17.6Z" fill="#690bd6"/></g><circle cx="2.5" cy="2.5" r="2.5" transform="translate(10.1 9.6)" fill="#690bd6"/></g><g transform="translate(34.366 130.96)"><path d="M.1,13,1.7,1A1.033,1.033,0,0,1,2.9.1L28.4,3.5a1.033,1.033,0,0,1,.9,1.2l-1.6,12a1.033,1.033,0,0,1-1.2.9L1.1,14.3A1.3,1.3,0,0,1,.1,13Z" fill="#8c44e0"/><rect width="10" height="22.9" transform="translate(2.745 12.346) rotate(-82.513)" fill="none" stroke="#690bd6" stroke-linecap="round" stroke-linejoin="round" stroke-width="2"/><g transform="translate(2.75 2.425)"><path d="M4.7.4,1.3,0,.9,3.4A3.384,3.384,0,0,0,4.7.4Z" fill="#690bd6"/><path d="M23.6,6.4,24,3l-3.4-.4A3.455,3.455,0,0,0,23.6,6.4Z" fill="#690bd6"/><path d="M23.2,9.5a3.552,3.552,0,0,0-3.9,3l3.4.4Z" fill="#690bd6"/><path d="M.4,6.5,0,9.9l3.4.4A3.438,3.438,0,0,0,.4,6.5Z" fill="#690bd6"/></g><circle cx="3" cy="3" r="3" transform="translate(12.3 5.7)" fill="#690bd6"/></g><g transform="translate(77.563 104.037)"><path d="M28,42.6C15.3,35.5,5.9,23.8.2,10.7A1.824,1.824,0,0,1,1,8.3L17,.2a1.362,1.362,0,0,1,1.9.5.1.1,0,0,0,.1.1A51.124,51.124,0,0,0,40.4,25.3a1.424,1.424,0,0,1,.4,1.9l-.1.1L30.5,42.1A1.9,1.9,0,0,1,28,42.6Z" fill="#8c44e0"/><path d="M27.8,38.8a80.99,80.99,0,0,1-24-27.4l13-7.3A53.026,53.026,0,0,0,36.7,26.9Z" fill="none" stroke="#690bd6" stroke-linecap="round" stroke-linejoin="round" stroke-width="2"/><g transform="translate(3.872 4.022)"><path d="M15.1,4.1C14.4,2.8,13.6,1.4,13,0L8.5,2.5a4.371,4.371,0,0,0,5.9,2A1.612,1.612,0,0,0,15.1,4.1Z" fill="#690bd6"/><path d="M29.9,26.9c1.2-1.6,1.9-2.5,3.1-4.1-1.3-.8-2.6-1.7-3.8-2.6a4.317,4.317,0,0,0,.1,6.2A1.024,1.024,0,0,0,29.9,26.9Z" fill="#690bd6"/><path d="M27,30.7a6.081,6.081,0,0,0-7.7.9c1.5,1.1,3,2.2,4.6,3.2Z" fill="#690bd6"/><path d="M4.5,4.8,0,7.3c.8,1.7,1.6,3.4,2.5,5A6.108,6.108,0,0,0,4.5,4.8Z" fill="#690bd6"/></g><path d="M23.3,25.3A4.385,4.385,0,0,1,17,19.2a2.181,2.181,0,0,1,.5-.4,4.29,4.29,0,0,1,6.1.4A4.381,4.381,0,0,1,23.3,25.3Z" fill="#690bd6"/></g><g transform="translate(36.714 163.185)"><path d="M.4,25.8C8.2,13.6,20.5,5,34,.1a2.091,2.091,0,0,1,2.4.9l7,16.6a1.463,1.463,0,0,1-.6,1.9.1.1,0,0,0-.1.1,50.3,50.3,0,0,0-26,19.6,1.417,1.417,0,0,1-1.9.3l-.1-.1C9.1,35,6.2,32.7.6,28.3A1.86,1.86,0,0,1,.4,25.8Z" fill="#8c44e0"/><path d="M4.1,25.9a80.737,80.737,0,0,1,29-22.1l6.4,13.5A52.2,52.2,0,0,0,15.4,35.7Z" fill="none" stroke="#690bd6" stroke-linecap="round" stroke-linejoin="round" stroke-width="2"/><g transform="translate(4.129 3.774)"><path d="M31.1,15.3a32.508,32.508,0,0,1,4.3-1.8L33.2,8.9a4.415,4.415,0,0,0-2.4,5.8A3.329,3.329,0,0,1,31.1,15.3Z" fill="#690bd6"/><path d="M7.4,28.5l3.9,3.4a35.062,35.062,0,0,1,2.9-3.6A4.321,4.321,0,0,0,8,28,2.651,2.651,0,0,0,7.4,28.5Z" fill="#690bd6"/><path d="M3.9,25.4a5.921,5.921,0,0,0-.4-7.7C2.3,19.1,1.1,20.6,0,22.1,1.6,23.4,2.3,24.1,3.9,25.4Z" fill="#690bd6"/><path d="M31.2,4.6,29,0a46.1,46.1,0,0,0-5.1,2.2A5.9,5.9,0,0,0,31.2,4.6Z" fill="#690bd6"/></g><path d="M17.9,22.2a4.389,4.389,0,1,1,6.5-5.9c.1.1.2.3.4.5a4.381,4.381,0,0,1-6.9,5.4Z" fill="#690bd6"/></g><line transform="translate(241.3 210)" fill="none" stroke="#690bd6" stroke-linecap="round" stroke-miterlimit="10" stroke-width="3"/><path d="M243.4,213.3c3.6,4.9,11.6,13,23.3,8.7,13.1-4.8,8.5-17.4,6.3-22" fill="none" stroke="#690bd6" stroke-linecap="round" stroke-miterlimit="10" stroke-width="3" stroke-dasharray="0 3.948"/><line transform="translate(272.1 198.3)" fill="none" stroke="#690bd6" stroke-linecap="round" stroke-miterlimit="10" stroke-width="3"/><line transform="translate(239.3 210.7)" fill="none" stroke="#ff6300" stroke-linecap="round" stroke-miterlimit="10" stroke-width="3"/><path d="M241.9,213.8c5.2,5.7,17.4,17,29.7,12.5,13.5-4.9,6.7-21.5,4.1-27" fill="none" stroke="#ff6300" stroke-linecap="round" stroke-miterlimit="10" stroke-width="3" stroke-dasharray="0 3.959"/><line transform="translate(274.7 197.5)" fill="none" stroke="#ff6300" stroke-linecap="round" stroke-miterlimit="10" stroke-width="3"/></g></g></svg>