<svg xmlns="http://www.w3.org/2000/svg" viewBox="0 0 78 76.08"><path d="M39 0a39 39 0 00-12.33 76c1.95.36 2.66-.85 2.66-1.88v-7.26c-10.86 2.36-13.14-4.6-13.14-4.6-1.78-4.51-4.33-5.71-4.33-5.71-3.53-2.41.27-2.37.27-2.37 3.92.28 6 4 6 4 3.48 6 9.12 4.24 11.35 3.25a8.36 8.36 0 012.47-5.22c-8.66-1-17.77-4.33-17.77-19.27a15.11 15.11 0 014-10.48 14 14 0 01.38-10.32s3.28-1 10.73 4a36.74 36.74 0 0119.52 0c7.45-5.05 10.72-4 10.72-4 2.13 5.38.79 9.34.38 10.32a15.09 15.09 0 014 10.48c0 15-9.12 18.28-17.8 19.24 1.39 1.21 2.65 3.58 2.65 7.22v10.7c0 1 .7 2.25 2.68 1.87A39 39 0 0039 0z" fill="currentColor" fill-rule="evenodd" data-name="Layer 2"/></svg>