<svg xmlns="http://www.w3.org/2000/svg" viewBox="0 0 40.394 41"><path d="M35.124,24.5a2.153,2.153,0,0,1-2.2.147c-.813-.459-1.26-1.534-1.26-3.029V17.145c0-2.16-.854-3.7-2.282-4.112-2.42-.7-4.24,2.256-4.924,3.368l-4.268,6.92V14.863c-.048-1.946-.68-3.11-1.88-3.461-.794-.232-1.982-.139-3.136,1.627L5.615,28.383A16.869,16.869,0,0,1,3.671,20.5,16.668,16.668,0,0,1,20.193,3.727,16.667,16.667,0,0,1,36.714,20.5c0,.016,0,.03.005.045s0,.03,0,.046a4.18,4.18,0,0,1-1.593,3.91Zm5.261-4h0v-.092A20.369,20.369,0,0,0,20.192,0,20.371,20.371,0,0,0,0,20.5,20.372,20.372,0,0,0,20.193,41a19.962,19.962,0,0,0,13.728-5.467,1.882,1.882,0,0,0,.1-2.633,1.817,1.817,0,0,0-2.594-.1A16.333,16.333,0,0,1,7.9,31.69l8.623-13.846v6.383c0,3.066,1.189,4.057,2.186,4.347s2.523.092,4.124-2.508l4.743-7.689c.152-.248.292-.462.42-.647v3.888c0,2.866,1.148,5.158,3.149,6.287a5.774,5.774,0,0,0,5.92-.24c2.24-1.415,3.447-4.022,3.321-7.164Z" fill="currentColor" fill-rule="evenodd"/></svg>