<svg id="Layer_1" data-name="Layer 1" xmlns="http://www.w3.org/2000/svg" viewBox="0 0 1440 474.73"><defs><style>.cls-1{fill:#ffed00;}.cls-2{fill:#ff6300;}.cls-3{fill:aqua;}.cls-4{fill:#b59100;}.cls-5{fill:#d9b400;}.cls-6{fill:#e2c53b;}.cls-7{fill:#fff245;}.cls-8{fill:#fff9ae;}.cls-9{fill:#fff;}</style></defs><polygon class="cls-1" points="1299.15 167.59 1279.42 143.59 1359.24 71.37 1385.47 103.29 1299.15 167.59"/><polygon class="cls-2" points="1248.8 129.78 1221.46 115.03 1267.98 17.97 1304.34 37.57 1248.8 129.78"/><polygon class="cls-3" points="1306.28 199.73 1315.45 229.42 1419.69 202.6 1407.51 163.13 1306.28 199.73"/><path class="cls-4" d="M1018.77,451c-51.67,0-84.36-28-92.06-78.81L892.59,144h238.06c4.35-.42,33.11-3.1,50.94-3.1,62,0,97.54,35.84,97.54,98.33,0,45.83-17.1,78.45-52.18,99.28h52.18V446.87H1081V431.5C1065.62,444.45,1044.81,451,1018.77,451Z"/><path class="cls-5" d="M1018.77,440.44c-58.72,0-76.8-38-81.63-69.84l-32.3-216h226.31s31.82-3.09,50.44-3.09c56.1,0,87,31.17,87,87.77,0,47.27-18.76,77.93-59,96.49L1195.76,342c-4,1.83-5.59,2.59-6.26,7.09h79.08v87.23h-177V400.39C1078.92,427,1054.56,440.44,1018.77,440.44Z"/><path class="cls-6" d="M1252.48,181.64,995.92,438.2a111.31,111.31,0,0,0,22.85,2.24c35.79,0,60.15-13.46,72.77-40.05v22.22l176.9-176.91c.08-2.12.14-4.26.14-6.45C1268.58,215.37,1263.06,196,1252.48,181.64Z"/><path class="cls-6" d="M1147.78,153.15c-9.49.73-16.63,1.42-16.63,1.42h-58.82L926.62,300.27l9.63,64.4Z"/><polygon class="cls-6" points="922.36 271.75 1039.54 154.57 1033.05 154.57 1004.48 154.57 1003.54 154.57 917.68 240.43 922.36 271.75"/><path class="cls-7" d="M1049,175.67h55.64l-28,191.77c-5.8,40.89-29.35,51.89-60.42,51.89-30.72,0-54.61-11.34-60.76-51.89L926.79,175.67h56.66l25.26,189.71c1,6.87,3.76,8.24,7.51,8.24s6.49-1.37,7.51-8.24Zm61.11,182.49c0-50.17,15.7-63.23,49.83-78.7l12.63-5.84c11.27-5.5,18.78-13.06,18.78-29.9,0-15.81-5.46-26.12-21.85-26.12-18.09,0-29.69,3.44-46.76,7.22l-7.85-41.93c15.7-4.47,38.23-10.31,64.17-10.31,43.69,0,65.88,20.28,65.88,66.67,0,44.34-18.43,64.27-46.76,77.33l-13.66,6.18c-17.07,7.91-19.11,17.53-19.11,39.52v7.91h79.53v45H1110.1Z"/><path class="cls-8" d="M1001.35,310,954,357.41l1.5,10a89.36,89.36,0,0,0,4.32,17.43l45.47-45.46Z"/><path class="cls-8" d="M1165.4,370.19v-7.91c0-22,2-31.61,19.11-39.52l13.66-6.18c26.21-12.09,43.94-30.07,46.44-67.81L1110.1,383.28v31.93h14.41l45-45Z"/><polygon class="cls-8" points="1035.67 275.7 1030.56 314.11 1093.63 251.03 1099.32 212.06 1035.67 275.7"/><polygon class="cls-8" points="950.54 334.49 998.25 286.78 987.27 204.3 938.38 253.18 950.54 334.49"/><path class="cls-8" d="M1117,194.35l5.26,28,49.64-49.65a212.1,212.1,0,0,0-38.66,5.38Z"/><polygon class="cls-8" points="1039.72 245.31 1103.83 181.21 1104.63 175.68 1048.99 175.68 1039.72 245.31"/><path class="cls-9" d="M113.68,184.5,117.3,163l7.24,1.3L129,189.08A79.5,79.5,0,0,0,113.68,184.5Z"/><path class="cls-9" d="M142.24,299.47a58.46,58.46,0,0,1-12.3,18.19l19.57,22.78,7.6-7.93Z"/><polygon class="cls-9" points="77.75 324.76 60.58 321.33 58.22 343.28 67.92 346.11 77.75 324.76"/><circle class="cls-9" cx="157.11" cy="195.65" r="5.32"/><path class="cls-9" d="M173.32,222.48c-2.7-17.49-67.09-34.68-67.09-34.68l-14-26.11-6.69.58,8,110.67L53,267.41l-6.56-28.68-4.67,1.7.64,14L27.74,236.6l-5.92,3.79,11.69,20.45-13.66-3.19-.67,5.82L42,274.29,21.46,326.6l13.59,4.72,20.43-17,42.28,8.19L109.58,352l13-3.54.59-33.08,7.7-9.19a28.37,28.37,0,0,0,6.61-18.64l-.88-36.27S175.3,235.24,173.32,222.48Zm-46,0a6.82,6.82,0,1,1,6.82-6.82A6.82,6.82,0,0,1,127.27,222.48Z"/><path class="cls-9" d="M612.52,217l-7.16,18.23-1.72-.39A109.07,109.07,0,0,0,581.29,232c-10.86,0-15.58,3.47-17.4,12.79-1.6,9.08,1.07,12.21,9.39,16.48l5.92,3.07c16.36,8.32,24.94,17.73,20.32,41.16-4.31,23-15.71,32.43-39.34,32.43a124,124,0,0,1-34.59-5l-2-.68,7.15-18.62,1.72.38,3.31.78c5.63,1.37,14.12,3.43,22.93,3.43,12.65,0,17.37-3.64,19.43-15,1.77-9.05.66-15.37-10.23-20.92l-6.07-3.06c-15.28-8-23.3-16.71-19.16-37.93,3.9-19.28,16.85-29,38.49-29,11.24,0,24,2.09,29.41,4ZM710,246.9l-23.12,65.5c-1.84,5.39-3.09,6.34-4.15,6.42-.28-.4-.74-1.69-1.14-5.78l-3.87-42.59,3.55-22.52h-20.1l-4.87,21.78L636.2,312.12c-1.91,3.75-3.43,6.71-4.58,6.71h-.12c-.35-.49-.53-2.37-.53-5.53l2.09-66.39H610.84L610,316.27c-.09,8.61,1.49,14.26,5,17.8,2.93,3,7,4.34,12.94,4.34,12.43,0,18.06-7.09,24.64-21L658,306.46c1.51-3.18,3-6.75,4.27-9.81.13,3.2.33,6.92.61,10.3l.84,9.51c1.14,13.55,4.5,22,17.76,22,11.83,0,19.18-6.35,24.55-21.21l26.9-70.3Zm87.56,88.17a46.7,46.7,0,0,1-13.66,2.15c-6.4,0-11-2.29-13.74-6.81-5.66,3.72-11.61,7.49-22.91,7.49-8.47,0-14.87-2.53-19-7.53-5.95-7.19-7.24-19.1-3.95-36.4,6.75-34.52,19.62-48.6,44.41-48.6,10,0,23.49,3.7,31.86,7.13l1.55.64-11.46,59.29c-.89,4.66-.63,6.08-.25,6.45s1.53.66,6.25-.35l2.51-.54L799,334.61Zm-51.16-40.48c-2.17,11.1-1.91,18.39.79,21.66,1.25,1.53,3.15,2.24,6,2.24a28.21,28.21,0,0,0,15-4.75l9.13-47.4a36.64,36.64,0,0,0-10.31-1.55C757.5,264.79,751.38,269.54,746.44,294.59Zm132.23-3.24c-6.06,31.76-19.15,46.55-41.2,46.55a74.37,74.37,0,0,1-15.31-1.71c-.41,2.67-1.27,7.95-2.93,16.54l-3.37,17H793.78l22.64-117.14,1.06-.4c11.93-4.62,21.88-6.78,31.31-6.78,12.76,0,21,2.84,26.07,8.94C880.85,261.57,882.1,273.69,878.67,291.35ZM826.16,317.1a43,43,0,0,0,10.64,1.39c9.16,0,15.36-4.57,19.94-27.93,2.27-12,2-19.24-.89-22.72-1.73-2.08-4.61-3-9.09-3a33.93,33.93,0,0,0-10.87,1.69Zm-551.56-64c-5.3,27.75-18.08,38.56-45.58,38.56H216.7l-8.62,44.72H185.83l23.59-122.62H241c14.79,0,24.22,3.06,29.65,9.64C275.93,229.77,277.22,239.49,274.6,253.09ZM220.53,271.9h9.33c14.15,0,19.61-4.76,22.47-19.59,1.55-7.65,1.23-12.47-1-15.19-2.05-2.5-6-3.62-12.87-3.62H228Zm117.83,46.63,2.52-.54-.23,16.62-1.38.46a46.7,46.7,0,0,1-13.66,2.15c-6.39,0-11-2.29-13.74-6.81-5.65,3.72-11.6,7.49-22.9,7.49-8.48,0-14.88-2.53-19-7.53-5.95-7.19-7.25-19.1-3.95-36.4,6.75-34.52,19.61-48.6,44.41-48.6,9.95,0,23.48,3.7,31.85,7.13l1.56.64-11.47,59.29c-.89,4.66-.62,6.08-.24,6.45S333.65,319.54,338.36,318.53Zm-50.25-23.94c-2.17,11.1-1.9,18.39.79,21.66,1.26,1.53,3.16,2.24,6,2.24a28.18,28.18,0,0,0,15-4.75l9.13-47.4a36.56,36.56,0,0,0-10.3-1.55C299.17,264.79,293.06,269.54,288.11,294.59Zm116-27.44,6.77-19.39-2.3-.47a105.26,105.26,0,0,0-18.82-1.92c-18.34,0-31.61,5.52-36.81,32.45L341.7,336.37H364l10.62-56.24c2.14-11,5.89-14.66,14.87-14.66a72.85,72.85,0,0,1,12.92,1.32Zm28-1.34h18.47l7.12-18.91H435.84l4.61-24.07L418,225.14l-17,87.86c-1.82,9.27-1.14,15.45,2.15,19.45,3.82,4.65,10.44,5.28,16.42,5.28,7.47,0,17.05-1.79,20-3.28l1.12-.56.21-17.65-2.42.4-1.29.28a55.47,55.47,0,0,1-10.19,1.57c-1,0-3.44,0-4-.65-.21-.25-.63-1.18-.07-4.39Zm76.31-18.91-12.28,63.93a33.18,33.18,0,0,1-13.71,3.07c-3.69,0-6.09-.74-7.34-2.24-1.69-2.05-1.89-6.13-.61-12.83l10.1-51.93H462.39l-10.12,52.17h0c-2.23,11.61-.91,20.45,3.9,26.28,4.37,5.28,11.4,8,20.92,8a40.39,40.39,0,0,0,16.14-3.22l-.43,2.14c-2.14,11.13-6.79,14.48-14.57,16.77A107.66,107.66,0,0,1,458,352.84l-1.9.21.65,18.64,5.93-.83c7.28-1,14.16-2,20.15-3.43,12.78-2.93,26.5-9.3,31.28-34.25l16.68-86.28Z"/></svg>