<svg xmlns="http://www.w3.org/2000/svg" xmlns:xlink="http://www.w3.org/1999/xlink" width="536" height="536" viewBox="0 0 536 536"><defs><clipPath id="a"><rect width="536" height="536" transform="translate(7758 2506)" fill="#fff"/></clipPath></defs><g transform="translate(-7758 -2506)" clip-path="url(#a)"><g transform="translate(7731.2 2478.4)"><g transform="translate(26.8 48.854)"><g transform="translate(94.057 55.681)"><ellipse cx="44.667" cy="62.018" rx="44.667" ry="62.018" transform="translate(0 54.886) rotate(-25.684)" fill="#690bd6"/><path d="M144,138l.672-5.261L167.285,117.4l57.093,118.775-26.307,8.4Z" transform="translate(-106.856 -95.838)" fill="#690bd6"/><ellipse cx="47.465" cy="65.937" rx="47.465" ry="65.937" transform="translate(19.641 41.143) rotate(-25.684)" fill="#5200a9"/><ellipse cx="32.017" cy="44.555" rx="32.017" ry="44.555" transform="translate(42.83 53.717) rotate(-25.684)" fill="none" stroke="#690bd6" stroke-linecap="round" stroke-linejoin="round" stroke-miterlimit="10" stroke-width="4.339"/><g transform="translate(79.46 53.915)"><path d="M188.039,152.569l-2.239-5.485,1.119-.784,3.806,5.038A22.677,22.677,0,0,0,188.039,152.569Z" transform="translate(-181.322 -146.3)" fill="#fff"/><path d="M204.3,171.9a23.867,23.867,0,0,1,.56,5.933l5.6,2.463v-2.911Z" transform="translate(-179.112 -143.242)" fill="#fff"/><path d="M199.5,185.4l-2.8,1.679,2.463,5.373,1.679-.784Z" transform="translate(-180.02 -141.629)" fill="#fff"/><ellipse cx="1.008" cy="1.455" rx="1.008" ry="1.455" transform="matrix(0.975, -0.221, 0.221, 0.975, 12.794, 1.379)" fill="#fff"/><path d="M201.615,152.251c-2.575-3.582-13.657,1.679-13.657,1.679L182.7,149.9l-.9,1.119,15.113,24.292-6.269,4.59-4.59-5.6-.448,1.119,1.9,3.135-4.254-2.015-.336,1.679,4.254,3.023-2.239,1.231.672,1.455,4.478-.784,3.806,15,2.463-.9.672-6.829,6.829-4.254,5.373,5.038,1.343-2.687-4.142-7.724-.112-3.246a12.342,12.342,0,0,0-1.455-5.261l-4.7-8.172C200.159,164.229,203.406,154.938,201.615,152.251Zm-6.381,6.717c-.56.56-1.343.336-1.791-.56a2.347,2.347,0,0,1,.112-2.575c.56-.56,1.343-.336,1.791.56A2.59,2.59,0,0,1,195.234,158.968Z" transform="translate(-181.8 -145.87)" fill="#fff"/></g></g><g transform="translate(270.911)"><circle cx="54.294" cy="54.294" r="54.294" fill="#690bd6"/><circle cx="36.607" cy="36.607" r="36.607" transform="translate(17.688 17.688)" fill="none" stroke="#5200a9" stroke-linecap="round" stroke-linejoin="round" stroke-miterlimit="10" stroke-width="4.339"/><g transform="translate(30.785 27.427)"><path d="M323.1,79.761l2.015-5.261,1.791.672-.112,6.493A20.465,20.465,0,0,0,323.1,79.761Z" transform="translate(-293.098 -72.709)" fill="#fff"/><path d="M324.93,106.4a14.3,14.3,0,0,1-4.03,4.03l3.806,6.717,2.351-1.679Z" transform="translate(-293.361 -68.898)" fill="#fff"/><path d="M309.533,109.491l-4.254-1.791-1.679,5.485,2.351,1.231Z" transform="translate(-295.428 -68.743)" fill="#fff"/><circle cx="1.343" cy="1.343" r="1.343" transform="translate(39.069 10.635)" fill="#fff"/><path d="M339.511,92.491c.224-4.59-15.225-12.09-15.225-12.09l-2.239-7.277-1.679-.224-3.358,28.322-9.963-3.358-.224-7.612-1.231.224-.56,3.582-2.8-5.261-1.679.672,1.9,5.709-3.246-1.455-.448,1.455,5.262,3.806-7.724,12.2,3.246,1.9,6.045-3.246,10.3,4.142,1.567,8.06,3.47-.224,1.791-8.284,2.351-1.9a7.648,7.648,0,0,0,2.575-4.366l1.567-9.18C328.876,97.976,339.4,95.737,339.511,92.491Zm-11.642-2.239a1.712,1.712,0,1,1,2.015-1.343A1.711,1.711,0,0,1,327.869,90.252Z" transform="translate(-296.3 -72.9)" fill="#fff"/></g></g><ellipse cx="169.599" cy="47.241" rx="169.599" ry="47.241" transform="translate(98.401 327.332)" fill="#b8aaeb"/><path d="M294.8,469.2c-147.993,0-268-26.979-268-60.339,0-15.337,25.3-29.33,66.944-39.965" transform="translate(-26.8 -10.111)" fill="none" stroke="#b8aaeb" stroke-linecap="round" stroke-linejoin="round" stroke-miterlimit="10" stroke-width="4.266"/><path d="M446.256,368.2c43.771,10.747,70.526,25.076,70.526,40.749,0,19.479-41.084,36.83-104.782,47.913" transform="translate(19.218 -10.195)" fill="none" stroke="#b8aaeb" stroke-linecap="round" stroke-linejoin="round" stroke-miterlimit="10" stroke-width="4.266"/><path d="M477.689,377.5c13.434,6.381,20.934,13.546,20.934,21.046,0,26.755-94.035,48.361-210.012,48.361S78.6,425.189,78.6,398.546c0-7.053,6.6-13.769,18.359-19.815" transform="translate(-20.612 -9.084)" fill="none" stroke="#b8aaeb" stroke-linecap="round" stroke-linejoin="round" stroke-miterlimit="10" stroke-width="4.266"/><path d="M281.925,365.448c49.928,0,95.267,5.709,128.85,18.7,17.24,6.6,52.391-55.078,40.189-67.168C420.4,286.75,356.146,274.1,281.813,274.1c-69.295,0-129.858,11.083-162.546,37.054-16.232,12.986,16.68,79.37,34.144,72.765C187.106,371.158,232.221,365.448,281.925,365.448Z" transform="translate(-16.276 -21.437)" fill="#ffed00"/><path d="M319.8,176.8c9.851,76.459,45.45,152.919,45.45,152.919l79.706,2.463-24.18-95.155Z" transform="translate(8.203 -33.061)" fill="#ffed00"/><g transform="translate(327.556 30.488)"><circle cx="87.878" cy="87.878" r="87.878" transform="translate(0 17.537)" fill="#ffed00"/><path d="M377.977,175.649c12.426-23.173,62.69,10.523,76.459-22.949,16.232,29.218,50.376,14.777,58.772,32.576s-25.076,32.576-66.944,32.576S368.014,194.12,377.977,175.649Z" transform="translate(-312.6 -66.428)" fill="#ff6300"/><g transform="translate(13.546 77.876)"><path d="M440.563,146.6c-.224.448-23.061,1.679-23.061,1.679l-12.2,20.038,23.173-.336L442.914,148.5Z" transform="translate(-322.683 -145.033)" fill="#fff"/><path d="M500.92,147.1,482.9,148.219,467,166.131l23.733,1.119,13.21-15Z" transform="translate(-315.312 -144.973)" fill="#fff"/><rect width="5.038" height="5.038" transform="matrix(1, -0.003, 0.003, 1, 168.586, 10.086)"/><rect width="5.038" height="5.038" transform="matrix(1, -0.003, 0.003, 1, 98.171, 10.31)"/><path d="M387.8,145.424v9.963h4.59v5.038h5.038v5.038h5.038V170.5l35.151-.112V165.35h5.038v-5.038h5.038V150.35h9.963v9.963h5.038v5.038h5.038v5.038l35.151-.112v-5.038h5.038V160.2h5.038v-5.038h5.038V145.2ZM483.29,160.2h5.038v-5.038h5.038v-5.038H498.4v5.038h5.038v-5.038h5.038v5.038h-5.038V160.2H498.4v5.038h-5.038V160.2h-5.038v5.038H483.29Zm-70.3.224h5.038v-5.038h5.038V150.35H428.1v5.038h5.038V150.35h5.038v5.038h-5.038v5.038H428.1v5.038h-5.038v-5.038h-5.038v5.038h-5.038Z" transform="translate(-324.774 -145.2)"/><path d="M396.653,147l-51.048.224L331.5,165.7l5.15,2.575L347.956,152.6l47.913.112Z" transform="translate(-331.5 -144.985)"/></g><path d="M407.14,93.171c-25.86-4.7-24.18-20.6-35.487-17.016s-2.015,19.367-19.031,33.36C335.27,123.957,433,97.985,407.14,93.171Z" transform="translate(-315.679 -75.635)" fill="#ffed00"/><path d="M387.9,176.8s23.509,32.129,115.865,12.09" transform="translate(-311.217 -63.549)" fill="none" stroke="#5200a9" stroke-linecap="round" stroke-linejoin="round" stroke-miterlimit="10" stroke-width="4.266"/></g><path d="M276.477,341.134c43.771,0,84.072-4.366,115.977-14.217-31.9-9.851-72.206-14.217-115.977-14.217S192.4,317.066,160.5,326.917C192.4,336.657,232.706,341.134,276.477,341.134Z" transform="translate(-10.828 -16.825)" fill="#4f09a0"/><g transform="translate(154.15 148.777)"><circle cx="107.581" cy="107.581" r="107.581" transform="translate(0 0)" fill="#690bd6"/><circle cx="72.653" cy="72.653" r="72.653" transform="translate(34.927 34.927)" fill="none" stroke="#5200a9" stroke-linecap="round" stroke-linejoin="round" stroke-miterlimit="10" stroke-width="4.339"/><g transform="translate(69.407 54.294)"><path d="M266.8,241.33l.672-11.53,3.918.224L275.2,242.9A33.151,33.151,0,0,0,266.8,241.33Z" transform="translate(-221.686 -229.8)" fill="#fff"/><path d="M287.073,292.9a30.474,30.474,0,0,1-5.373,10.3l11.754,10.859,3.582-4.7Z" transform="translate(-219.906 -222.262)" fill="#fff"/><path d="M258.392,308.384,249.1,307.6v11.754l5.373.9Z" transform="translate(-223.8 -220.506)" fill="#fff"/><circle cx="2.799" cy="2.799" r="2.799" transform="translate(65.937 11.978)" fill="#fff"/><path d="M305.422,257.715c-2.463-9.068-37.5-14.329-37.5-14.329L258.965,230.4l-3.47.672,10.859,57.988-21.83-.448-5.15-14.777-2.351,1.231,1.231,7.388-8.844-8.508L226.5,276.3l7.388,10.075-7.388-.9v3.134l12.65,4.366-7.724,28.882,7.5,1.679,9.739-10.187,22.837,1.791,8.06,14.889,6.6-2.687-1.679-17.576,3.47-5.373a15.2,15.2,0,0,0,2.351-10.3l-2.687-19.143C287.735,275.179,307.213,264.432,305.422,257.715Zm-24.292,2.8a3.659,3.659,0,1,1,3.246-4.03A3.732,3.732,0,0,1,281.13,260.514Z" transform="translate(-226.5 -229.728)" fill="#fff"/></g></g><path d="M284.17,329.931c-75.452,0-140.493-13.1-170.495-44.331C102.369,300.265,96.1,316.5,96.1,333.737c0,62.8,84.184,87.654,188.07,87.654s188.07-24.852,188.07-87.654c0-17.24-6.269-33.472-17.576-48.137C424.663,316.833,359.622,329.931,284.17,329.931Z" transform="translate(-18.521 -20.063)" fill="#ffed00"/><path d="M147.479,274.5c10.075,20.15-.336,41.2-15.561,51.831s-35.823,6.6-46.906-8.4c-24.74-33.36-6.045-69.071,3.135-75.564C97.887,235.543,135.949,251.216,147.479,274.5Z" transform="translate(-21.316 -25.42)" fill="#ffed00"/><path d="M142.4,305.9c34.256,15,82.617,21.606,136.239,21.606,45.9,0,87.99-4.814,120.678-15.673" transform="translate(-12.99 -17.638)" fill="none" stroke="#5200a9" stroke-linecap="round" stroke-linejoin="round" stroke-miterlimit="10" stroke-width="4.266"/><path d="M115.278,299.5s-16.12,38.286,7.277,64.145" transform="translate(-16.877 -18.402)" fill="none" stroke="#fff" stroke-linecap="round" stroke-linejoin="round" stroke-miterlimit="10" stroke-width="4.266"/><path d="M364,331.2a64.263,64.263,0,0,1,7.165,28.658" transform="translate(13.484 -14.615)" fill="none" stroke="#5200a9" stroke-linecap="round" stroke-linejoin="round" stroke-miterlimit="10" stroke-width="4.266"/><path d="M374.4,327.6s8.172,8.62,10.747,19.479" transform="translate(14.726 -15.045)" fill="none" stroke="#5200a9" stroke-linecap="round" stroke-linejoin="round" stroke-miterlimit="10" stroke-width="4.266"/><path d="M244.8,483.643S381.823,487.337,484.366,457" transform="translate(-0.757 0.414)" fill="none" stroke="#b8aaeb" stroke-linecap="round" stroke-linejoin="round" stroke-miterlimit="10" stroke-width="4.266"/><path d="M49.7,472.6s38.286,15.561,108.364,21.158" transform="translate(-24.064 2.277)" fill="none" stroke="#b8aaeb" stroke-linecap="round" stroke-linejoin="round" stroke-miterlimit="10" stroke-width="4.266"/></g><g transform="translate(43.144 44.6)"><path d="M177.611,98.929c1.231-2.911,1.679-6.157.336-8.956-1.9-4.254-6.717-4.814-8.4-10.411-1.343-4.366.336-8.956,2.8-12.762" transform="translate(-26.147 -41.948)" fill="none" stroke="#ffed00" stroke-linecap="round" stroke-miterlimit="10" stroke-width="4.977"/><path d="M495.511,297.429c1.231-2.911,1.679-6.157.336-8.956-1.9-4.254-6.717-4.814-8.4-10.411-1.343-4.366.336-8.956,2.8-12.762" transform="translate(11.831 -18.234)" fill="none" stroke="#ffed00" stroke-linecap="round" stroke-miterlimit="10" stroke-width="4.977"/><path d="M245.8,151.249c-1.343-1.791-2.687-3.806-2.8-6.045-.112-2.463,1.343-4.814,2.911-6.717a31.882,31.882,0,0,1,2.575-2.911c.784-.784,1.679-1.343,2.463-2.239,3.134-3.246,3.358-8.4,1.9-12.538" transform="translate(-17.316 -35.497)" fill="none" stroke="#ff6300" stroke-linecap="round" stroke-miterlimit="10" stroke-width="4.977"/><path d="M104.7,121.2a10.417,10.417,0,0,1,4.7,7.277,13.114,13.114,0,0,1-1.9,8.62c-.56.9-1.231,1.791-1.679,2.687a8.4,8.4,0,0,0,2.911,10.3" transform="translate(-33.838 -35.449)" fill="none" stroke="#690bd6" stroke-linecap="round" stroke-miterlimit="10" stroke-width="4.977"/><path d="M215.4,92.7a10.417,10.417,0,0,1,4.7,7.277,13.114,13.114,0,0,1-1.9,8.62c-.56.9-1.231,1.791-1.679,2.687a8.4,8.4,0,0,0,2.911,10.3" transform="translate(-20.613 -38.854)" fill="none" stroke="#690bd6" stroke-linecap="round" stroke-miterlimit="10" stroke-width="4.977"/><path d="M482.3,333.3a10.417,10.417,0,0,1,4.7,7.277,13.114,13.114,0,0,1-1.9,8.62c-.56.9-1.231,1.791-1.679,2.687a8.4,8.4,0,0,0,2.911,10.3" transform="translate(11.272 -10.11)" fill="none" stroke="aqua" stroke-linecap="round" stroke-miterlimit="10" stroke-width="4.977"/><line x1="1.119" y1="20.262" transform="translate(95.043 45.003)" fill="none" stroke="aqua" stroke-linecap="round" stroke-miterlimit="10" stroke-width="4.977"/><line x1="1.119" y1="20.262" transform="translate(264.754 124.708)" fill="none" stroke="aqua" stroke-linecap="round" stroke-miterlimit="10" stroke-width="4.977"/><circle cx="4.59" cy="4.59" r="4.59" transform="translate(95.267 79.146)" fill="aqua"/><circle cx="4.59" cy="4.59" r="4.59" transform="translate(291.509 144.971)" fill="#ffed00"/><circle cx="4.59" cy="4.59" r="4.59" transform="translate(56.869 172.845)" fill="#ff6300"/><circle cx="5.15" cy="5.15" r="5.15" transform="translate(220.647 30.561)" fill="#690bd6"/><path d="M480.8,123.849c-1.343-1.791-2.687-3.806-2.8-6.045-.112-2.463,1.343-4.814,2.911-6.717a31.893,31.893,0,0,1,2.575-2.911c.784-.784,1.679-1.343,2.463-2.239,3.134-3.246,3.358-8.4,1.9-12.538" transform="translate(10.758 -38.77)" fill="none" stroke="#ff6300" stroke-linecap="round" stroke-miterlimit="10" stroke-width="4.977"/><path d="M450.4,65.4a10.417,10.417,0,0,1,4.7,7.277,13.114,13.114,0,0,1-1.9,8.62c-.56.9-1.231,1.791-1.679,2.687a8.4,8.4,0,0,0,2.911,10.3" transform="translate(7.461 -42.115)" fill="none" stroke="#690bd6" stroke-linecap="round" stroke-miterlimit="10" stroke-width="4.977"/><line x1="1.119" y1="20.262" transform="translate(443.644 236.767)" fill="none" stroke="aqua" stroke-linecap="round" stroke-miterlimit="10" stroke-width="4.977"/><circle cx="4.59" cy="4.59" r="4.59" transform="translate(471.855 209.34)" fill="#ffed00"/><circle cx="5.15" cy="5.15" r="5.15" transform="translate(483.721)" fill="#690bd6"/><path d="M71.8,356.949c-1.343-1.791-2.687-3.806-2.8-6.045-.112-2.463,1.343-4.814,2.911-6.717a31.885,31.885,0,0,1,2.575-2.911c.784-.784,1.679-1.343,2.463-2.239,3.135-3.246,3.358-8.4,1.9-12.538" transform="translate(-38.103 -10.923)" fill="none" stroke="#ff6300" stroke-linecap="round" stroke-miterlimit="10" stroke-width="4.977"/><path d="M41.4,298.4a10.417,10.417,0,0,1,4.7,7.277,13.114,13.114,0,0,1-1.9,8.62c-.56.9-1.231,1.791-1.679,2.687a8.4,8.4,0,0,0,2.911,10.3" transform="translate(-41.4 -14.28)" fill="none" stroke="#690bd6" stroke-linecap="round" stroke-miterlimit="10" stroke-width="4.977"/><path d="M55.6,205.8a10.417,10.417,0,0,1,4.7,7.277,13.114,13.114,0,0,1-1.9,8.62c-.56.9-1.231,1.791-1.679,2.687a8.4,8.4,0,0,0,2.911,10.3" transform="translate(-39.704 -25.342)" fill="none" stroke="#ffed00" stroke-linecap="round" stroke-miterlimit="10" stroke-width="4.977"/><circle cx="5.15" cy="5.15" r="5.15" transform="translate(20.71 294.979)" fill="aqua"/><circle cx="5.15" cy="5.15" r="5.15" transform="translate(462.115 289.718)" fill="#690bd6"/></g></g></g></svg>