<?xml version="1.0" encoding="utf-8"?>
<!-- Generator: Adobe Illustrator 26.0.1, SVG Export Plug-In . SVG Version: 6.00 Build 0)  -->
<svg version="1.1" id="Layer_1" xmlns="http://www.w3.org/2000/svg" xmlns:xlink="http://www.w3.org/1999/xlink" x="0px" y="0px"
	 viewBox="0 0 536 536" style="enable-background:new 0 0 536 536;" xml:space="preserve">
<style type="text/css">
	.st0{fill:#690BD6;}
	.st1{fill:none;stroke:#5200A9;stroke-width:4.339;stroke-linecap:round;stroke-linejoin:round;stroke-miterlimit:10;}
	.st2{fill:#FFFFFF;}
	.st3{fill:#5200A9;}
	.st4{fill:none;stroke:#690BD6;stroke-width:4.339;stroke-linecap:round;stroke-linejoin:round;stroke-miterlimit:10;}
	.st5{fill:#B8AAEB;}
	.st6{fill:none;stroke:#B8AAEB;stroke-width:4.339;stroke-linecap:round;stroke-linejoin:round;stroke-miterlimit:10;}
	.st7{fill:#FFED00;}
	.st8{fill:#FF6300;}
	.st9{fill:#4F09A0;}
	.st10{fill:none;stroke:#FFFFFF;stroke-width:4.339;stroke-linecap:round;stroke-linejoin:round;stroke-miterlimit:10;}
	.st11{fill:none;stroke:#FFED00;stroke-width:5.0622;stroke-linecap:round;stroke-miterlimit:10;}
	.st12{fill:none;stroke:#FF6300;stroke-width:5.0622;stroke-linecap:round;stroke-miterlimit:10;}
	.st13{fill:none;stroke:#690BD6;stroke-width:5.0622;stroke-linecap:round;stroke-miterlimit:10;}
	.st14{fill:none;stroke:#00FFFF;stroke-width:5.0622;stroke-linecap:round;stroke-miterlimit:10;}
	.st15{fill:#00FFFF;}
	.st16{fill:none;stroke:#FFFFFF;stroke-width:5;stroke-linecap:round;stroke-miterlimit:10;}
	.st17{fill:none;stroke:#5200A9;stroke-width:10;stroke-linecap:round;stroke-linejoin:round;stroke-miterlimit:10;}
	.st18{fill:none;stroke:#FF6300;stroke-width:10;stroke-linejoin:round;}
	.st19{fill:none;stroke:#FF6300;stroke-width:10;stroke-linejoin:round;stroke-dasharray:8.8348,10.6017;}
	.st20{fill:none;stroke:#FF6300;stroke-width:10;stroke-linejoin:round;stroke-dasharray:10.0871,12.1045;}
</style>
<g>
	<g>
		<circle class="st0" cx="317.3" cy="96.9" r="48.5"/>
		<circle class="st1" cx="317.3" cy="96.9" r="32.7"/>
		<circle class="st2" cx="331.9" cy="89.5" r="2.6"/>
		<circle class="st2" cx="319.2" cy="80.9" r="2.6"/>
		<path class="st2" d="M319.7,90.8c-0.3-0.2-0.5-0.4-0.6-0.7c-0.4-0.8,0-1.8,0.9-2.2c3.1-1.3,5-3.4,5.4-6.1c0.3-2.1-0.3-3.9-0.3-3.9
			c-0.3-0.9,0.1-1.8,1-2.1c0.9-0.3,1.8,0.1,2.1,1c0,0.1,0.9,2.5,0.5,5.4c-0.4,2.7-2,6.5-7.4,8.8C320.7,91.2,320.2,91.1,319.7,90.8z"
			/>
		<path class="st2" d="M327.2,115c-0.5-0.3-0.8-0.9-0.7-1.5c0.6-6-4.9-8.6-5.2-8.7c-0.8-0.4-1.2-1.3-0.9-2.2
			c0.4-0.8,1.3-1.2,2.2-0.9c0.1,0,2,0.9,3.9,2.8c2.5,2.5,3.6,5.7,3.3,9.3c-0.1,0.9-0.9,1.6-1.8,1.5
			C327.7,115.2,327.4,115.1,327.2,115z"/>
		<path class="st2" d="M320.7,97.4c-0.3-0.2-0.6-0.6-0.7-1c-0.2-0.9,0.3-1.8,1.2-2c0.1,0,2.6-0.7,5.9,0.1c3,0.6,7.2,2.6,10.3,8
			c0.5,0.8,0.2,1.8-0.6,2.3c-0.8,0.5-1.8,0.2-2.3-0.6c-4.8-8.4-12.4-6.5-12.5-6.5C321.5,97.8,321.1,97.7,320.7,97.4z"/>
		<g>
			<path class="st2" d="M316.5,106.8c0.2-1.5,0.4-4.8-0.5-10.1c-1.3-8-4.1-11.9-4.1-11.9l-4.1,2.7C309.1,91.6,311.9,99,316.5,106.8z
				"/>
			<path class="st2" d="M306.2,105.7l6.2,1.3c-4-6.9-6.4-13.4-7.7-17.5l-4.3,2.8C301.6,95.8,303.5,100.6,306.2,105.7z"/>
			<path class="st2" d="M297.2,94.4l-4.1,2.6l1.2,6.2l7.3,1.5C299.7,100.9,298.2,97.3,297.2,94.4z"/>
		</g>
	</g>
	<g>
		
			<ellipse transform="matrix(0.9012 -0.4334 0.4334 0.9012 -61.0522 91.7836)" class="st0" cx="170.8" cy="179.8" rx="39.9" ry="55.4"/>
		<polygon class="st0" points="144,135.8 144.6,131.1 164.8,117.4 215.8,223.5 192.3,231 		"/>
		
			<ellipse transform="matrix(0.9012 -0.4334 0.4334 0.9012 -54.5233 100.0131)" class="st3" cx="192.1" cy="169.6" rx="42.4" ry="58.9"/>
		
			<ellipse transform="matrix(0.9012 -0.4334 0.4334 0.9012 -54.5233 100.0131)" class="st4" cx="192.1" cy="169.6" rx="28.6" ry="39.8"/>
		
			<ellipse transform="matrix(0.8834 -0.4687 0.4687 0.8834 -48.0721 106.7989)" class="st2" cx="190.5" cy="150" rx="2.1" ry="3.1"/>
		
			<ellipse transform="matrix(0.8834 -0.4687 0.4687 0.8834 -52.1082 102.3046)" class="st2" cx="179.5" cy="155.8" rx="2.1" ry="3.1"/>
		<path class="st2" d="M188.2,161.8c-0.2,0.1-0.5,0.1-0.8,0.1c-0.8-0.2-1.5-1.2-1.6-2.2c-0.3-3.7-1.5-6.6-3.7-8.7
			c-1.7-1.7-3.4-2.2-3.4-2.2c-0.8-0.3-1.5-1.3-1.5-2.2c0-1,0.6-1.5,1.5-1.3c0.1,0,2.4,0.8,4.8,3c2.2,2.1,5,6,5.4,12.3
			C188.8,161.1,188.6,161.5,188.2,161.8z"/>
		<path class="st2" d="M211,170.5c-0.4,0.2-1,0.1-1.5-0.3c-5-4.4-8.7-1.1-8.9-0.9c-0.6,0.5-1.5,0.2-2.1-0.6c-0.6-0.9-0.7-2-0.1-2.5
			c0.1-0.1,1.3-1.3,3.5-1.7c2.9-0.6,6,0.4,8.9,3c0.8,0.7,1.1,1.8,0.8,2.6C211.3,170.2,211.2,170.4,211,170.5z"/>
		<path class="st2" d="M194.1,165.1c-0.3,0.1-0.6,0.2-1,0c-0.8-0.4-1.4-1.4-1.4-2.4c0-0.1,0.2-2.8,1.7-5.2c1.4-2.2,4.2-4.8,9.8-4.1
			c0.8,0.1,1.6,1,1.8,2c0.2,1-0.4,1.7-1.2,1.6c-8.5-1-9.1,6.9-9.1,7C194.7,164.5,194.4,164.9,194.1,165.1z"/>
		<g>
			<path class="st2" d="M201,174.8c-1.3-1.2-4-3.4-8.8-6c-7.2-4-11.4-4-11.4-4l1.1,5.4C185.8,171.7,193,174,201,174.8z"/>
			<path class="st2" d="M197.1,183.4l2.9-4.7c-7.1-0.9-13.3-2.8-17.2-4.3l1.2,5.7C187.3,181.2,191.9,182.6,197.1,183.4z"/>
			<path class="st2" d="M184.8,184.2l1.1,5.4l5.7,2.9l3.4-5.6C191.1,186.1,187.6,185.1,184.8,184.2z"/>
		</g>
	</g>
	<ellipse class="st5" cx="269.8" cy="382.5" rx="154.1" ry="42.9"/>
	<ellipse class="st5" cx="474.1" cy="413.3" rx="59.6" ry="16.6"/>
	<path class="st6" d="M269.8,459.3c-134.5,0-243.5-24.5-243.5-54.8c0-13.9,23-26.6,60.9-36.3"/>
	<path class="st6" d="M449.3,367.4c39.8,9.8,64.1,22.8,64.1,37.1c0,17.7-37.3,33.5-95.2,43.5"/>
	<path class="st6" d="M441.6,376.8c12.2,5.8,19,12.3,19,19.1c0,24.3-85.4,43.9-190.8,43.9S79,420.3,79,396c0-6.4,6-12.5,16.7-18"/>
	<path class="st7" d="M267.7,354.7c45.3,0,86.5,5.2,117.1,16.9c15.7,6,47.6-50.1,36.5-61c-27.8-27.5-86.1-39-153.6-39
		c-63,0-118,10-147.6,33.7c-14.8,11.8,15.1,72.2,31,66.1C181.6,359.9,222.6,354.7,267.7,354.7z"/>
	<path class="st7" d="M324.3,172.8c8.9,69.4,41.3,139,41.3,139L438,314l-22-86.4L324.3,172.8z"/>
	<g>
		<circle class="st7" cx="403.8" cy="165.6" r="79.8"/>
		<path class="st8" d="M383.4,169.1c11.3-21.1,57,9.6,69.5-20.9c14.8,26.6,45.8,13.4,53.4,29.6c7.6,16.2-22.8,29.6-60.8,29.6
			S374.3,185.9,383.4,169.1z"/>
		<g>
			<path class="st2" d="M443.3,142c-0.2,0.4-20.9,1.5-20.9,1.5l-11.1,18.2l21.1-0.3l13.1-17.7L443.3,142z"/>
			<polygon class="st2" points="504.9,142.5 488.5,143.6 474.1,159.9 495.6,160.8 507.6,147.2 			"/>
			<rect x="489.4" y="149.7" transform="matrix(1 -3.054408e-03 3.054408e-03 1 -0.462 1.5026)" width="4.6" height="4.6"/>
			<rect x="425.5" y="149.9" transform="matrix(1 -3.054408e-03 3.054408e-03 1 -0.4629 1.3074)" width="4.6" height="4.6"/>
			<path d="M393.6,140.8v9.1h4.2v4.6h4.6v4.6h4.6v4.6l31.9-0.1V159h4.6v-4.6h4.6v-9.1h9.1v9.1h4.6v4.6h4.6v4.6l31.9-0.1v-4.6h4.6
				v-4.6h4.6v-4.6h4.6v-9.1L393.6,140.8z M480.3,154.3h4.6v-4.6h4.6v-4.6h4.6v4.6h4.6v-4.6h4.6v4.6h-4.6v4.6h-4.6v4.6h-4.6v-4.6
				h-4.6v4.6h-4.6V154.3z M416.4,154.5h4.6v-4.6h4.6v-4.6h4.6v4.6h4.6v-4.6h4.6v4.6h-4.6v4.6h-4.6v4.6h-4.6v-4.6H421v4.6h-4.6V154.5
				z"/>
			<polygon points="395.5,142.5 349.1,142.7 336.3,159.4 341,161.8 351.2,147.6 394.8,147.6 			"/>
		</g>
		<path class="st7" d="M407.1,85.9c-23.5-4.3-22-18.7-32.2-15.4s-1.8,17.6-17.3,30.3C341.8,113.8,430.5,90.1,407.1,85.9z"/>
	</g>
	<path class="st9" d="M267.7,336.8c39.8,0,76.3-4,105.4-12.9C344,315,307.4,311,267.7,311s-76.3,4-105.4,12.9
		C191.3,332.8,227.9,336.8,267.7,336.8z"/>
	<g>
		<circle class="st0" cx="260.6" cy="277.4" r="96.1"/>
		<circle class="st1" cx="260.6" cy="277.4" r="64.9"/>
		<circle class="st2" cx="286.3" cy="253" r="5.4"/>
		<circle class="st2" cx="255.2" cy="247.1" r="5.4"/>
		<path class="st2" d="M264.4,265.4c-0.6-0.1-1.2-0.4-1.7-0.9c-1.4-1.3-1.4-3.4-0.1-4.8c4.8-5.1,6.5-10.4,5.1-15.9
			c-1.1-4.3-3.7-7.1-3.8-7.1c-1.3-1.4-1.3-3.5,0.1-4.8c1.4-1.3,3.5-1.3,4.8,0.1c0.2,0.2,3.7,4,5.4,9.8c1.5,5.5,1.6,13.9-6.7,22.6
			C266.7,265.3,265.5,265.7,264.4,265.4z"/>
		<path class="st2" d="M298.2,304.6c-1.2-0.2-2.2-1.1-2.6-2.3c-3.8-11.8-16.3-12.1-16.8-12.1c-1.9,0-3.4-1.5-3.4-3.4
			c0-1.9,1.5-3.4,3.4-3.4c0.2,0,4.6,0,9.5,2c6.7,2.7,11.5,7.8,13.7,14.7c0.6,1.8-0.4,3.7-2.2,4.3
			C299.3,304.7,298.7,304.7,298.2,304.6z"/>
		<path class="st2" d="M271.6,277c-0.8-0.1-1.5-0.6-2.1-1.3c-1.2-1.5-0.9-3.6,0.6-4.8c0.2-0.1,4.4-3.4,11.1-4.7
			c6.1-1.2,15.6-1,25.9,6.7c1.5,1.1,1.8,3.3,0.7,4.8c-1.1,1.5-3.3,1.8-4.8,0.7c-15.9-11.8-28.6-2.1-28.8-2
			C273.5,277,272.5,277.2,271.6,277z"/>
		<g>
			<path class="st2" d="M271.4,298.1c-0.9-3-3.2-9.4-9.2-18.6c-8.9-13.9-17.4-19.1-17.4-19.1l-5.6,8.4
				C245.1,275.5,256.3,287.3,271.4,298.1z"/>
			<path class="st2" d="M251.2,304.5l12.7-2.7c-13.1-9.8-23-19.9-28.9-26.5l-5.8,8.8C234.4,289.7,241.9,297.1,251.2,304.5z"/>
			<path class="st2" d="M225,290.5l-5.5,8.3l7.3,10.7l15-3.1C234.9,300.7,229.3,295.1,225,290.5z"/>
		</g>
	</g>
	<path class="st7" d="M267.7,323.7c-68.6,0-127.7-11.9-154.9-40.3c-10.3,13.3-16,28.1-16,43.7c0,57.1,76.5,79.7,170.9,79.7
		s170.9-22.6,170.9-79.7c0-15.6-5.7-30.4-16-43.7C395.4,311.8,336.2,323.7,267.7,323.7z"/>
	<path class="st7" d="M141,268.4c9.1,18.3-0.3,37.4-14.2,47s-32.5,6-42.6-7.6c-22.5-30.3-5.5-62.8,2.9-68.6
		C96,233.1,130.5,247.4,141,268.4z"/>
	<path class="st1" d="M143.9,304c31.1,13.7,75.1,19.7,123.8,19.7c41.7,0,79.9-4.4,109.6-14.3"/>
	<path class="st10" d="M115.8,297.6c0,0-14.7,34.8,6.6,58.2"/>
	<path class="st1" d="M369.4,329.8c0,0,6.5,11.5,6.5,26.1"/>
	<path class="st1" d="M379.9,326.2c0,0,7.5,7.8,9.8,17.7"/>
	<path class="st6" d="M248.1,482c0,0,124.5,3.3,217.6-24.2"/>
	<path class="st6" d="M49.6,473.6c0,0,34.8,14.2,98.4,19.2"/>
</g>
<g>
	<path class="st11" d="M178.9,90.1c1.1-2.6,1.5-5.6,0.3-8.1c-1.8-3.9-6.1-4.4-7.6-9.5c-1.2-3.9,0.3-8.2,2.5-11.6"/>
	<path class="st11" d="M502.2,292c1.1-2.6,1.5-5.6,0.3-8.1c-1.8-3.9-6.1-4.4-7.6-9.5c-1.2-3.9,0.3-8.2,2.5-11.6"/>
	<path class="st12" d="M248.8,143.4c-1.2-1.7-2.4-3.5-2.5-5.5c-0.1-2.3,1.2-4.3,2.6-6.1c0.7-0.9,1.5-1.8,2.4-2.6
		c0.7-0.7,1.6-1.3,2.3-2c2.8-2.9,3.1-7.6,1.7-11.4"/>
	<path class="st13" d="M105.6,116.2c2.3,1.4,3.9,3.9,4.3,6.6s-0.3,5.5-1.7,7.8c-0.5,0.8-1.1,1.6-1.5,2.5c-1.5,3.2-0.3,7.5,2.7,9.4"
		/>
	<path class="st13" d="M218.2,87.3c2.3,1.4,3.9,3.9,4.3,6.6s-0.3,5.5-1.7,7.8c-0.5,0.8-1.1,1.6-1.5,2.5c-1.5,3.2-0.3,7.5,2.7,9.4"/>
	<path class="st14" d="M489.6,331.9c2.3,1.4,3.9,3.9,4.3,6.6s-0.3,5.5-1.7,7.8c-0.5,0.8-1.1,1.6-1.5,2.5c-1.5,3.2-0.3,7.5,2.7,9.4"
		/>
	<line class="st14" x1="128.6" y1="97.6" x2="127.6" y2="79.2"/>
	<line class="st14" x1="282.7" y1="170.1" x2="281.8" y2="151.6"/>
	<circle class="st15" cx="132" cy="114.4" r="4.2"/>
	<circle class="st7" cx="310.3" cy="174.2" r="4.2"/>
	<circle class="st8" cx="97.1" cy="199.5" r="4.2"/>
	<circle class="st0" cx="246.4" cy="70.7" r="4.7"/>
	<path class="st12" d="M487.8,115.6c-1.2-1.7-2.4-3.5-2.5-5.5c-0.1-2.3,1.2-4.3,2.6-6.1c0.7-0.9,1.5-1.8,2.4-2.6
		c0.7-0.7,1.6-1.3,2.3-2c2.8-2.9,3.1-7.6,1.7-11.4"/>
	<path class="st13" d="M457.2,59.5c2.3,1.4,3.9,3.9,4.3,6.6s-0.3,5.5-1.7,7.8c-0.5,0.8-1.1,1.6-1.5,2.5c-1.5,3.2-0.3,7.5,2.7,9.4"/>
	<line class="st14" x1="445.3" y1="271.9" x2="444.3" y2="253.4"/>
	<circle class="st7" cx="474.1" cy="232.7" r="4.2"/>
	<circle class="st0" cx="485.4" cy="43" r="4.7"/>
	<path class="st12" d="M71.8,352.6c-1.2-1.7-2.4-3.5-2.5-5.5c-0.1-2.3,1.2-4.3,2.6-6.1c0.7-0.9,1.5-1.8,2.4-2.6
		c0.7-0.7,1.6-1.3,2.3-2c2.8-2.9,3.1-7.6,1.7-11.4"/>
	<path class="st13" d="M41.3,296.5c2.3,1.4,3.9,3.9,4.3,6.6c0.4,2.7-0.3,5.5-1.7,7.8c-0.5,0.8-1.1,1.6-1.5,2.5
		c-1.5,3.2-0.3,7.5,2.7,9.4"/>
	<path class="st11" d="M55.7,202.2c2.3,1.4,3.9,3.9,4.3,6.6c0.4,2.7-0.3,5.5-1.7,7.8c-0.5,0.8-1.1,1.6-1.5,2.5
		c-1.5,3.2-0.3,7.5,2.7,9.4"/>
	
		<ellipse transform="matrix(6.652067e-02 -0.9978 0.9978 6.652067e-02 -249.9314 354.8573)" class="st15" cx="64.7" cy="311" rx="4.7" ry="4.7"/>
	<circle class="st0" cx="465.7" cy="306.3" r="4.7"/>
</g>
<g>
	<path class="st8" d="M474.1,392.1c16.9,0,32.4,1.9,43.8,6.3c5.9,2.2,17.8-18.7,13.7-22.8c-10.4-10.3-32.2-14.6-57.5-14.6
		c-23.5,0-44.1,3.8-55.2,12.6c-5.5,4.4,5.7,27,11.6,24.7C441.9,394,457.2,392.1,474.1,392.1z"/>
	<path class="st15" d="M512.6,322.3l-3.8-43.1l-36-4.6l-14.4,40.8c-5.3,15.1,3.1,31.1,17.6,35.9l-2.2,26.6l-16,10.8l37.2,4.7
		L482.1,379l4.5-26.3C501.9,351.7,514.1,338.2,512.6,322.3z"/>
	<circle class="st7" cx="474.1" cy="277.9" r="16"/>
	<path class="st0" d="M506.7,308.5l-39.1-4.9l-4.6,13.1c-4.9,14,4.3,28.9,19,30.8l0,0c14.7,1.9,27.3-10.3,26-25.1L506.7,308.5z"/>
	<path class="st16" d="M487.3,342.5c0,0,20-1.8,18.6-21.5s-2.1-29.7-2.1-29.7"/>
	<path class="st8" d="M474.1,389c-24.7,0-46.1-4.3-55.9-14.5c-3.7,4.8-5.8,10.1-5.8,15.8c0,20.6,27.6,28.7,61.7,28.7
		s61.7-8.1,61.7-28.7c0-5.6-2.1-11-5.8-15.8C520.2,384.7,498.8,389,474.1,389z"/>
	<path class="st1" d="M429.4,381.9c11.2,4.9,27.1,7.1,44.7,7.1c15.1,0,28.8-1.6,39.6-5.1"/>
	<g>
		<polyline class="st17" points="477.4,188.6 512.8,207.4 488.9,315.7 		"/>
		<g>
			<g>
				<line class="st18" x1="477.4" y1="188.6" x2="481.8" y2="191"/>
				<line class="st19" x1="491.2" y1="196" x2="503.7" y2="202.6"/>
				<polyline class="st18" points="508.4,205.1 512.8,207.4 511.7,212.3 				"/>
				<line class="st20" x1="509.1" y1="224.1" x2="491.3" y2="304.9"/>
				<line class="st18" x1="490" y1="310.8" x2="488.9" y2="315.7"/>
			</g>
		</g>
	</g>
</g>
</svg>
