<svg xmlns="http://www.w3.org/2000/svg" xmlns:xlink="http://www.w3.org/1999/xlink" viewBox="0 0 536 536"><defs><clipPath id="a"><rect width="536" height="536" transform="translate(6595 1599)" fill="#fff"/></clipPath></defs><g transform="translate(-6595 -1599)" clip-path="url(#a)"><g transform="translate(6568.7 1589.7)"><g transform="translate(26.3 48.925)"><g transform="translate(255.113)"><circle cx="51.023" cy="51.023" r="51.023" fill="#690bd6"/><circle cx="34.401" cy="34.401" r="34.401" transform="translate(16.622 16.622)" fill="none" stroke="#5200a9" stroke-linecap="round" stroke-linejoin="round" stroke-miterlimit="10" stroke-width="4.339"/><path d="M339.66,84.366l-8.732-1.788a.952.952,0,0,0-1.052.316L318.936,93.939l-5.891-14.413a1.178,1.178,0,0,0-.842-.736L303.471,77a1.193,1.193,0,0,0-1.368,1.578l9.679,23.67-3.156,15.991a1.189,1.189,0,0,0,.947,1.368l8.311,1.683a1.189,1.189,0,0,0,1.368-.947l3.261-16.1L340.4,86.154A1.071,1.071,0,0,0,339.66,84.366Z" transform="translate(-267.072 -46.914)" fill="#fff"/></g><g transform="translate(88.924 52.322)"><ellipse cx="41.975" cy="58.281" rx="41.975" ry="58.281" transform="translate(0 51.609) rotate(-25.684)" fill="#690bd6"/><path d="M144,136.757l.631-4.944L165.882,117.4l53.653,111.618-24.722,7.89Z" transform="translate(-109.103 -97.133)" fill="#690bd6"/><ellipse cx="44.605" cy="61.963" rx="44.605" ry="61.963" transform="translate(18.437 38.664) rotate(-25.684)" fill="#5200a9"/><ellipse cx="30.088" cy="41.87" rx="30.088" ry="41.87" transform="translate(40.229 50.48) rotate(-25.684)" fill="none" stroke="#690bd6" stroke-linecap="round" stroke-linejoin="round" stroke-miterlimit="10" stroke-width="4.339"/><path d="M198.565,144.7l-7.048,3.366a.986.986,0,0,0-.526.947l.105,17.358-13.571-10.836a1,1,0,0,0-1.052-.21l-7.048,3.366c-.736.316-.631,1.788.21,2.42l22.3,17.989,8.626,17.884c.316.736,1.052,1.157,1.578.842l6.628-3.261c.526-.21.631-1.052.316-1.788l-8.626-17.989-.105-28.615C200.353,145.334,199.3,144.387,198.565,144.7Z" transform="translate(-107.806 -95.716)" fill="#fff"/></g><ellipse cx="162.115" cy="45.131" rx="162.115" ry="45.131" transform="translate(94.05 306.346)" fill="#b8aaeb"/><ellipse cx="62.7" cy="17.463" rx="62.7" ry="17.463" transform="translate(408.391 366.416)" fill="#b8aaeb"/><path d="M282.465,464.038c-141.5,0-256.165-25.774-256.165-57.65,0-14.623,24.2-27.984,64.068-38.188" transform="translate(-26.3 -31.767)" fill="none" stroke="#b8aaeb" stroke-linecap="round" stroke-linejoin="round" stroke-miterlimit="10" stroke-width="4.339"/><path d="M450.918,367.4c41.87,10.31,67.434,23.986,67.434,39.03,0,18.621-39.24,35.242-100.152,45.763" transform="translate(-5.917 -31.808)" fill="none" stroke="#b8aaeb" stroke-linecap="round" stroke-linejoin="round" stroke-miterlimit="10" stroke-width="4.339"/><path d="M460.459,376.8c12.835,6.1,19.988,12.94,19.988,20.093,0,25.564-89.842,46.183-200.724,46.183S79,422.562,79,397c0-6.733,6.312-13.15,17.569-18.936" transform="translate(-23.559 -31.319)" fill="none" stroke="#b8aaeb" stroke-linecap="round" stroke-linejoin="round" stroke-miterlimit="10" stroke-width="4.339"/><path d="M275.585,359.022c47.656,0,91,5.47,123.191,17.779,16.517,6.312,50.076-52.706,38.4-64.173C407.928,283.7,346.6,271.6,275.585,271.6c-66.277,0-124.137,10.52-155.277,35.453-15.57,12.414,15.885,75.955,32.612,69.538C185.007,364.493,228.139,359.022,275.585,359.022Z" transform="translate(-21.629 -36.791)" fill="#ffed00"/><path d="M324.3,172.8c9.363,73.01,43.448,146.23,43.448,146.23l76.166,2.314L420.769,230.45Z" transform="translate(-10.801 -41.93)" fill="#ffed00"/><g transform="translate(313.184 22.737)"><circle cx="83.951" cy="83.951" r="83.951" transform="translate(0 16.608)" fill="#ffed00"/><path d="M383.479,170.187c11.888-22.2,59.965,10.1,73.115-21.987,15.57,27.984,48.182,14.1,56.177,31.14s-23.986,31.14-63.962,31.14S373.906,187.861,383.479,170.187Z" transform="translate(-320.989 -65.946)" fill="#ff6300"/><g transform="translate(12.94 74.258)"><path d="M444.964,142c-.21.421-21.987,1.578-21.987,1.578L411.3,162.725l22.2-.316,13.781-18.621Z" transform="translate(-332.399 -140.527)" fill="#fff"/><path d="M506.5,142.5l-17.253,1.157L474.1,160.8l22.618.947,12.624-14.307Z" transform="translate(-329.133 -140.501)" fill="#fff"/><rect width="4.839" height="4.839" transform="matrix(1, -0.003, 0.003, 1, 161.057, 9.584)"/><rect width="4.839" height="4.839" transform="matrix(1, -0.003, 0.003, 1, 93.833, 9.794)"/><path d="M393.6,140.81v9.573h4.418v4.839h4.839v4.839H407.7V164.9l33.559-.105v-4.839H446.1v-4.839h4.839v-9.573h9.573v9.573h4.839v4.839h4.839V164.8l33.559-.105v-4.839h4.839v-4.839h4.839v-4.839h4.839V140.6Zm91.209,14.2h4.839v-4.839h4.839v-4.839h4.839v4.839h4.839v-4.839h4.839v4.839h-4.839v4.839h-4.839v4.839h-4.839v-4.839h-4.839v4.839h-4.839Zm-67.224.21h4.839v-4.839h4.839v-4.839H432.1v4.839h4.839v-4.839h4.839v4.839h-4.839v4.839H432.1v4.839h-4.839v-4.839h-4.839v4.839h-4.839Z" transform="translate(-333.32 -140.6)"/><path d="M398.579,142.5l-48.813.21L336.3,160.279l4.944,2.525,10.731-14.939h45.868Z" transform="translate(-336.3 -140.501)"/></g><path d="M409.773,86.726c-24.722-4.524-23.144-19.673-33.875-16.2S374,89.041,357.7,102.4C341.077,116.077,434.39,91.145,409.773,86.726Z" transform="translate(-322.351 -70.013)" fill="#ffed00"/></g><path d="M273.182,338.142c41.87,0,80.268-4.208,110.882-13.571C353.451,315.208,314.947,311,273.182,311s-80.269,4.208-110.882,13.571C192.808,333.934,231.312,338.142,273.182,338.142Z" transform="translate(-19.226 -34.742)" fill="#4f09a0"/><g transform="translate(145.388 139.812)"><circle cx="101.098" cy="101.098" r="101.098" fill="#690bd6"/><circle cx="68.276" cy="68.276" r="68.276" transform="translate(32.823 32.823)" fill="none" stroke="#5200a9" stroke-linecap="round" stroke-linejoin="round" stroke-miterlimit="10" stroke-width="4.339"/><path d="M292.052,238.3l-17.463,3.366a2.511,2.511,0,0,0-1.788,1.473l-11.677,28.4-21.461-21.987a2.244,2.244,0,0,0-2.1-.631l-17.463,3.366a2.385,2.385,0,0,0-1.262,4l35.453,36.189,6.207,31.771a2.378,2.378,0,0,0,2.735,1.894l16.517-3.261a2.378,2.378,0,0,0,1.894-2.735l-6.207-31.981,19.252-46.6A2.348,2.348,0,0,0,292.052,238.3Z" transform="translate(-161.708 -178.338)" fill="#fff"/></g><path d="M276.589,325.8c-72.168,0-134.342-12.519-162.957-42.4C102.8,297.392,96.8,312.962,96.8,329.373c0,60.07,80.479,83.845,179.789,83.845s179.789-23.775,179.789-83.845c0-16.411-6-31.981-16.832-45.973C410.931,313.277,348.652,325.8,276.589,325.8Z" transform="translate(-22.633 -36.177)" fill="#ffed00"/><path d="M144.536,269.992c9.573,19.252-.316,39.345-14.939,49.445s-34.19,6.312-44.816-8c-23.67-31.876-5.786-66.066,3.051-72.168C97.2,232.856,133.49,247.9,144.536,269.992Z" transform="translate(-23.87 -38.55)" fill="#ffed00"/><path d="M143.9,304c32.718,14.413,79.006,20.725,130.239,20.725,43.869,0,84.056-4.629,115.3-15.044" transform="translate(-20.183 -35.106)" fill="none" stroke="#5200a9" stroke-linecap="round" stroke-linejoin="round" stroke-miterlimit="10" stroke-width="4.339"/><path d="M116.057,297.6S100.593,334.21,123,358.827" transform="translate(-21.902 -35.439)" fill="none" stroke="#fff" stroke-linecap="round" stroke-linejoin="round" stroke-miterlimit="10" stroke-width="4.339"/><path d="M369.4,329.8a61.633,61.633,0,0,1,6.838,27.457" transform="translate(-8.455 -33.764)" fill="none" stroke="#5200a9" stroke-linecap="round" stroke-linejoin="round" stroke-miterlimit="10" stroke-width="4.339"/><path d="M379.9,326.2s7.89,8.206,10.31,18.621" transform="translate(-7.909 -33.951)" fill="none" stroke="#5200a9" stroke-linecap="round" stroke-linejoin="round" stroke-miterlimit="10" stroke-width="4.339"/><path d="M248.1,483.259S379.075,486.73,477.018,457.8" transform="translate(-14.764 -27.106)" fill="none" stroke="#b8aaeb" stroke-linecap="round" stroke-linejoin="round" stroke-miterlimit="10" stroke-width="4.339"/><path d="M49.6,473.6s36.61,14.939,103.518,20.2" transform="translate(-25.088 -26.285)" fill="none" stroke="#b8aaeb" stroke-linecap="round" stroke-linejoin="round" stroke-miterlimit="10" stroke-width="4.339"/></g><g transform="translate(42.08 38.3)"><path d="M179.3,91.619c1.157-2.735,1.578-5.891.316-8.521-1.894-4.1-6.417-4.629-8-9.994-1.262-4.1.316-8.626,2.63-12.2" transform="translate(-34.545 -37.125)" fill="none" stroke="#ffed00" stroke-linecap="round" stroke-miterlimit="10" stroke-width="5.062"/><path d="M502.6,293.519c1.157-2.735,1.578-5.891.316-8.521-1.894-4.1-6.417-4.629-8-9.994-1.262-4.1.316-8.626,2.63-12.2" transform="translate(-17.73 -26.623)" fill="none" stroke="#ffed00" stroke-linecap="round" stroke-miterlimit="10" stroke-width="5.062"/><path d="M248.93,144.836c-1.262-1.788-2.525-3.682-2.63-5.786-.105-2.42,1.262-4.524,2.735-6.417a20.479,20.479,0,0,1,2.525-2.735c.736-.736,1.683-1.368,2.42-2.1,2.946-3.051,3.261-8,1.788-11.993" transform="translate(-30.638 -34.269)" fill="none" stroke="#ff6300" stroke-linecap="round" stroke-miterlimit="10" stroke-width="5.062"/><path d="M105.6,116.2a9.908,9.908,0,0,1,4.524,6.943,12.484,12.484,0,0,1-1.788,8.206,21.752,21.752,0,0,0-1.578,2.63,8.085,8.085,0,0,0,2.84,9.889" transform="translate(-37.956 -34.248)" fill="none" stroke="#690bd6" stroke-linecap="round" stroke-miterlimit="10" stroke-width="5.062"/><path d="M218.2,87.3a9.908,9.908,0,0,1,4.524,6.943,12.484,12.484,0,0,1-1.788,8.206,21.752,21.752,0,0,0-1.578,2.63,8.085,8.085,0,0,0,2.84,9.889" transform="translate(-32.099 -35.751)" fill="none" stroke="#690bd6" stroke-linecap="round" stroke-miterlimit="10" stroke-width="5.062"/><path d="M489.6,331.9a9.908,9.908,0,0,1,4.524,6.943,12.483,12.483,0,0,1-1.788,8.206,21.746,21.746,0,0,0-1.578,2.63,8.085,8.085,0,0,0,2.84,9.889" transform="translate(-17.983 -23.029)" fill="none" stroke="aqua" stroke-linecap="round" stroke-miterlimit="10" stroke-width="5.062"/><line x1="1.052" y1="19.357" transform="translate(90.789 43.027)" fill="none" stroke="aqua" stroke-linecap="round" stroke-miterlimit="10" stroke-width="5.062"/><line x1="0.947" y1="19.462" transform="translate(253.009 119.193)" fill="none" stroke="aqua" stroke-linecap="round" stroke-miterlimit="10" stroke-width="5.062"/><circle cx="4.418" cy="4.418" r="4.418" transform="translate(90.999 75.64)" fill="aqua"/><circle cx="4.418" cy="4.418" r="4.418" transform="translate(278.573 138.55)" fill="#ffed00"/><circle cx="4.418" cy="4.418" r="4.418" transform="translate(54.284 165.166)" fill="#ff6300"/><circle cx="4.944" cy="4.944" r="4.944" transform="translate(210.823 29.141)" fill="#690bd6"/><path d="M487.93,117.036c-1.262-1.788-2.525-3.682-2.63-5.786-.105-2.42,1.262-4.524,2.735-6.417a20.484,20.484,0,0,1,2.525-2.735c.736-.736,1.683-1.368,2.42-2.1,2.946-3.051,3.261-8,1.788-11.993" transform="translate(-18.207 -35.715)" fill="none" stroke="#ff6300" stroke-linecap="round" stroke-miterlimit="10" stroke-width="5.062"/><path d="M457.2,59.5a9.908,9.908,0,0,1,4.524,6.943,12.484,12.484,0,0,1-1.788,8.206,21.752,21.752,0,0,0-1.578,2.63,8.085,8.085,0,0,0,2.84,9.889" transform="translate(-19.668 -37.197)" fill="none" stroke="#690bd6" stroke-linecap="round" stroke-miterlimit="10" stroke-width="5.062"/><line x1="1.052" y1="19.462" transform="translate(423.961 226.288)" fill="none" stroke="aqua" stroke-linecap="round" stroke-miterlimit="10" stroke-width="5.062"/><circle cx="4.418" cy="4.418" r="4.418" transform="translate(450.892 200.093)" fill="#ffed00"/><circle cx="4.944" cy="4.944" r="4.944" transform="translate(462.254)" fill="#690bd6"/><path d="M71.93,354.036c-1.262-1.788-2.525-3.682-2.63-5.786-.105-2.42,1.262-4.524,2.735-6.417A20.479,20.479,0,0,1,74.56,339.1c.736-.736,1.683-1.368,2.42-2.1,2.946-3.051,3.261-8,1.788-11.993" transform="translate(-39.844 -23.388)" fill="none" stroke="#ff6300" stroke-linecap="round" stroke-miterlimit="10" stroke-width="5.062"/><path d="M41.3,296.5a9.908,9.908,0,0,1,4.524,6.943,12.484,12.484,0,0,1-1.788,8.206,21.749,21.749,0,0,0-1.578,2.63,8.085,8.085,0,0,0,2.84,9.889" transform="translate(-41.3 -24.871)" fill="none" stroke="#690bd6" stroke-linecap="round" stroke-miterlimit="10" stroke-width="5.062"/><path d="M55.7,202.2a9.908,9.908,0,0,1,4.524,6.943,12.484,12.484,0,0,1-1.788,8.206,21.753,21.753,0,0,0-1.578,2.63,8.085,8.085,0,0,0,2.84,9.889" transform="translate(-40.551 -29.775)" fill="none" stroke="#ffed00" stroke-linecap="round" stroke-miterlimit="10" stroke-width="5.062"/><circle cx="4.944" cy="4.944" r="4.944" transform="translate(19.673 281.939)" fill="aqua"/><circle cx="4.944" cy="4.944" r="4.944" transform="translate(441.529 276.995)" fill="#690bd6"/></g><g transform="translate(432.482 196.417)"><path d="M477.048,393.718c17.779,0,34.085,2,46.078,6.628,6.207,2.314,18.726-19.673,14.413-23.986C526.6,365.524,503.664,361,477.048,361c-24.722,0-46.394,4-58.071,13.255-5.786,4.629,6,28.4,12.2,25.985C443.173,395.716,459.269,393.718,477.048,393.718Z" transform="translate(-412.139 -179.633)" fill="#ff6300"/><path d="M515.5,324.781l-4-45.342L473.632,274.6l-15.149,42.922A29.523,29.523,0,0,0,477,355.289l-2.314,27.984-16.832,11.362,39.135,4.944L483.416,384.43l4.734-27.668A29.42,29.42,0,0,0,515.5,324.781Z" transform="translate(-410.091 -184.127)" fill="aqua"/><circle cx="16.832" cy="16.832" r="16.832" transform="translate(48.077 77.112)" fill="#ffed00"/><path d="M509.042,308.755,467.908,303.6l-4.839,13.781a24.481,24.481,0,0,0,19.988,32.4h0a24.364,24.364,0,0,0,27.352-26.405Z" transform="translate(-409.837 -182.619)" fill="#690bd6"/><path d="M487.3,345.163s21.04-1.894,19.567-22.618-2.209-31.245-2.209-31.245" transform="translate(-408.504 -183.258)" fill="none" stroke="#fff" stroke-linecap="round" stroke-miterlimit="10" stroke-width="5"/><path d="M477.309,389.754c-25.985,0-48.5-4.524-58.807-15.254a26.993,26.993,0,0,0-6.1,16.622c0,21.671,29.036,30.193,64.909,30.193s64.909-8.521,64.909-30.193a27.222,27.222,0,0,0-6.1-16.622C525.807,385.231,503.294,389.754,477.309,389.754Z" transform="translate(-412.4 -178.931)" fill="#ff6300"/><path d="M429.4,381.9c11.783,5.155,28.51,7.469,47.025,7.469,15.885,0,30.3-1.683,41.66-5.365" transform="translate(-411.516 -178.546)" fill="none" stroke="#5200a9" stroke-linecap="round" stroke-linejoin="round" stroke-miterlimit="10" stroke-width="4.339"/><g transform="translate(68.381 0)"><path d="M477.4,188.6l37.241,19.778L489.5,322.311" transform="translate(-477.4 -188.6)" fill="none" stroke="#5200a9" stroke-linecap="round" stroke-linejoin="round" stroke-miterlimit="10" stroke-width="10"/><line x2="4.629" y2="2.525" fill="none" stroke="#ff6300" stroke-linejoin="round" stroke-width="10"/><line x2="13.15" y2="6.943" transform="translate(14.518 7.785)" fill="none" stroke="#ff6300" stroke-linejoin="round" stroke-width="10" stroke-dasharray="8.835 10.602"/><path d="M508.4,205.1l4.629,2.42-1.157,5.155" transform="translate(-475.788 -187.742)" fill="none" stroke="#ff6300" stroke-linejoin="round" stroke-width="10"/><line x1="18.726" y2="85.003" transform="translate(14.623 37.346)" fill="none" stroke="#ff6300" stroke-linejoin="round" stroke-width="10" stroke-dasharray="10.087 12.104"/><line x1="1.157" y2="5.155" transform="translate(12.098 128.556)" fill="none" stroke="#ff6300" stroke-linejoin="round" stroke-width="10"/></g></g></g></g></svg>