<?xml version="1.0" encoding="utf-8"?>
<!-- Generator: Adobe Illustrator 26.0.1, SVG Export Plug-In . SVG Version: 6.00 Build 0)  -->
<svg version="1.1" id="Layer_1" xmlns="http://www.w3.org/2000/svg" xmlns:xlink="http://www.w3.org/1999/xlink" x="0px" y="0px"
	 viewBox="0 0 536 536" style="enable-background:new 0 0 536 536;" xml:space="preserve">
<style type="text/css">
	.st0{fill:#690BD6;}
	.st1{fill:none;stroke:#5200A9;stroke-width:4.339;stroke-linecap:round;stroke-linejoin:round;stroke-miterlimit:10;}
	.st2{fill:#FFFFFF;}
	.st3{fill:#B8AAEB;}
	.st4{fill:none;stroke:#B8AAEB;stroke-width:4.2664;stroke-linecap:round;stroke-linejoin:round;stroke-miterlimit:10;}
	.st5{fill:#FFED00;}
	.st6{fill:#FF6300;}
	.st7{fill:none;stroke:#5200A9;stroke-width:4.2664;stroke-linecap:round;stroke-linejoin:round;stroke-miterlimit:10;}
	.st8{fill:#4F09A0;}
	.st9{fill:#5200A9;}
	.st10{fill:none;stroke:#690BD6;stroke-width:4.339;stroke-linecap:round;stroke-linejoin:round;stroke-miterlimit:10;}
	.st11{fill:none;stroke:#FFFFFF;stroke-width:4.2664;stroke-linecap:round;stroke-linejoin:round;stroke-miterlimit:10;}
	.st12{fill:none;stroke:#FFED00;stroke-width:4.9775;stroke-linecap:round;stroke-miterlimit:10;}
	.st13{fill:none;stroke:#FF6300;stroke-width:4.9775;stroke-linecap:round;stroke-miterlimit:10;}
	.st14{fill:none;stroke:#690BD6;stroke-width:4.9775;stroke-linecap:round;stroke-miterlimit:10;}
	.st15{fill:none;stroke:#00FFFF;stroke-width:4.9775;stroke-linecap:round;stroke-miterlimit:10;}
	.st16{fill:#00FFFF;}
</style>
<g>
	<g>
		<circle class="st0" cx="317.3" cy="96.9" r="48.5"/>
		<circle class="st1" cx="317.3" cy="96.9" r="32.7"/>
		<circle class="st2" cx="331.9" cy="89.5" r="2.6"/>
		<circle class="st2" cx="319.2" cy="80.9" r="2.6"/>
		<path class="st2" d="M319.7,90.8c-0.3-0.2-0.5-0.4-0.6-0.7c-0.4-0.8,0-1.8,0.9-2.2c3.1-1.3,5-3.4,5.4-6.1c0.3-2.1-0.3-3.9-0.3-3.9
			c-0.3-0.9,0.1-1.8,1-2.1c0.9-0.3,1.8,0.1,2.1,1c0,0.1,0.9,2.5,0.5,5.4c-0.4,2.7-2,6.5-7.4,8.8C320.7,91.2,320.2,91.1,319.7,90.8z"
			/>
		<path class="st2" d="M327.2,115c-0.5-0.3-0.8-0.9-0.7-1.5c0.6-6-4.9-8.6-5.2-8.7c-0.8-0.4-1.2-1.3-0.9-2.2
			c0.4-0.8,1.3-1.2,2.2-0.9c0.1,0,2,0.9,3.9,2.8c2.5,2.5,3.6,5.7,3.3,9.3c-0.1,0.9-0.9,1.6-1.8,1.5
			C327.7,115.2,327.4,115.1,327.2,115z"/>
		<path class="st2" d="M320.7,97.4c-0.3-0.2-0.6-0.6-0.7-1c-0.2-0.9,0.3-1.8,1.2-2c0.1,0,2.6-0.7,5.9,0.1c3,0.6,7.2,2.6,10.3,8
			c0.5,0.8,0.2,1.8-0.6,2.3c-0.8,0.5-1.8,0.2-2.3-0.6c-4.8-8.4-12.4-6.5-12.5-6.5C321.5,97.8,321.1,97.7,320.7,97.4z"/>
		<g>
			<path class="st2" d="M316.5,106.8c0.2-1.5,0.4-4.8-0.5-10.1c-1.3-8-4.1-11.9-4.1-11.9l-4.1,2.7C309.1,91.6,311.9,99,316.5,106.8z
				"/>
			<path class="st2" d="M306.2,105.7l6.2,1.3c-4-6.9-6.4-13.4-7.7-17.5l-4.3,2.8C301.6,95.8,303.5,100.6,306.2,105.7z"/>
			<path class="st2" d="M297.2,94.4l-4.1,2.6l1.2,6.2l7.3,1.5C299.7,100.9,298.2,97.3,297.2,94.4z"/>
		</g>
	</g>
	<ellipse class="st3" cx="266.2" cy="383" rx="151.5" ry="42.2"/>
	<path class="st4" d="M266.2,458.5c-132.2,0-239.4-24.1-239.4-53.9c0-13.7,22.6-26.2,59.8-35.7"/>
	<path class="st4" d="M442.6,368.2c39.1,9.6,63,22.4,63,36.4c0,17.4-36.7,32.9-93.6,42.8"/>
	<path class="st4" d="M435.1,377.5c12,5.7,18.7,12.1,18.7,18.8c0,23.9-84,43.2-187.6,43.2S78.6,420.1,78.6,396.3
		c0-6.3,5.9-12.3,16.4-17.7"/>
	<path class="st5" d="M264.1,355.7c44.6,0,85.1,5.1,115.1,16.7c15.4,5.9,46.8-49.2,35.9-60c-27.3-27-84.7-38.3-151.1-38.3
		c-61.9,0-116,9.9-145.2,33.1c-14.5,11.6,14.9,70.9,30.5,65C179.4,360.8,219.7,355.7,264.1,355.7z"/>
	<path class="st5" d="M319.8,176.8c8.8,68.3,40.6,136.6,40.6,136.6l71.2,2.2l-21.6-85L319.8,176.8z"/>
	<g>
		<circle class="st5" cx="397.9" cy="169.8" r="78.5"/>
		<path class="st6" d="M377.8,173.2c11.1-20.7,56,9.4,68.3-20.5c14.5,26.1,45,13.2,52.5,29.1s-22.4,29.1-59.8,29.1
			S368.9,189.7,377.8,173.2z"/>
		<g>
			<path class="st2" d="M436.8,146.6c-0.2,0.4-20.6,1.5-20.6,1.5L405.3,166l20.7-0.3l12.9-17.4L436.8,146.6z"/>
			<polygon class="st2" points="497.3,147.1 481.2,148.1 467,164.1 488.2,165.1 500,151.7 			"/>
			<rect x="482.1" y="154.2" transform="matrix(1 -3.054408e-03 3.054408e-03 1 -0.4756 1.4801)" width="4.5" height="4.5"/>
			<rect x="419.2" y="154.4" transform="matrix(1 -3.054408e-03 3.054408e-03 1 -0.4765 1.288)" width="4.5" height="4.5"/>
			<path d="M387.8,145.4v8.9h4.1v4.5h4.5v4.5h4.5v4.5l31.4-0.1v-4.5h4.5v-4.5h4.5v-8.9h8.9v8.9h4.5v4.5h4.5v4.5l31.4-0.1v-4.5h4.5
				v-4.5h4.5v-4.5h4.5v-8.9L387.8,145.4z M473.1,158.6h4.5v-4.5h4.5v-4.5h4.5v4.5h4.5v-4.5h4.5v4.5h-4.5v4.5h-4.5v4.5h-4.5v-4.5
				h-4.5v4.5h-4.5V158.6z M410.3,158.8h4.5v-4.5h4.5v-4.5h4.5v4.5h4.5v-4.5h4.5v4.5h-4.5v4.5h-4.5v4.5h-4.5v-4.5h-4.5v4.5h-4.5
				V158.8z"/>
			<polygon points="389.7,147 344.1,147.2 331.5,163.7 336.1,166 346.2,152 389,152.1 			"/>
		</g>
		<path class="st5" d="M401.1,91.3c-23.1-4.2-21.6-18.4-31.7-15.2c-10.1,3.2-1.8,17.3-17,29.8C336.9,118.8,424.2,95.6,401.1,91.3z"
			/>
		<path class="st7" d="M387.9,176.8c0,0,21,28.7,103.5,10.8"/>
	</g>
	<path class="st8" d="M264.1,338.1c39.1,0,75.1-3.9,103.6-12.7c-28.5-8.8-64.5-12.7-103.6-12.7s-75.1,3.9-103.6,12.7
		C189,334.1,225,338.1,264.1,338.1z"/>
	<g>
		
			<ellipse transform="matrix(0.9012 -0.4334 0.4334 0.9012 -61.0498 91.7895)" class="st0" cx="170.8" cy="179.8" rx="39.9" ry="55.4"/>
		<polygon class="st0" points="144,135.8 144.6,131.1 164.8,117.4 215.8,223.5 192.3,231 		"/>
		
			<ellipse transform="matrix(0.9012 -0.4334 0.4334 0.9012 -54.5259 100.0124)" class="st9" cx="192.1" cy="169.6" rx="42.4" ry="58.9"/>
		
			<ellipse transform="matrix(0.9012 -0.4334 0.4334 0.9012 -54.5259 100.0124)" class="st10" cx="192.1" cy="169.6" rx="28.6" ry="39.8"/>
		<ellipse transform="matrix(0.8834 -0.4687 0.4687 0.8834 -48.09 106.7812)" class="st2" cx="190.5" cy="150" rx="2.1" ry="3.1"/>
		
			<ellipse transform="matrix(0.8834 -0.4687 0.4687 0.8834 -52.0828 102.3013)" class="st2" cx="179.5" cy="155.8" rx="2.1" ry="3.1"/>
		<path class="st2" d="M188.2,161.8c-0.2,0.1-0.5,0.1-0.8,0.1c-0.8-0.2-1.5-1.2-1.6-2.2c-0.3-3.7-1.5-6.6-3.7-8.7
			c-1.7-1.7-3.4-2.2-3.4-2.2c-0.8-0.3-1.5-1.3-1.5-2.2c0-1,0.6-1.5,1.5-1.3c0.1,0,2.4,0.8,4.8,3c2.2,2.1,5,6,5.4,12.3
			C188.8,161.1,188.6,161.5,188.2,161.8z"/>
		<path class="st2" d="M211,170.5c-0.4,0.2-1,0.1-1.5-0.3c-5-4.4-8.7-1.1-8.9-0.9c-0.6,0.5-1.5,0.2-2.1-0.6c-0.6-0.9-0.7-2-0.1-2.5
			c0.1-0.1,1.3-1.3,3.5-1.7c2.9-0.6,6,0.4,8.9,3c0.8,0.7,1.1,1.8,0.8,2.6C211.3,170.2,211.2,170.4,211,170.5z"/>
		<path class="st2" d="M194.1,165.1c-0.3,0.1-0.6,0.2-1,0c-0.8-0.4-1.4-1.4-1.4-2.4c0-0.1,0.2-2.8,1.7-5.2c1.4-2.2,4.2-4.8,9.8-4.1
			c0.8,0.1,1.6,1,1.8,2s-0.4,1.7-1.2,1.6c-8.5-1-9.1,6.9-9.1,7C194.7,164.5,194.4,164.9,194.1,165.1z"/>
		<g>
			<path class="st2" d="M201,174.8c-1.3-1.2-4-3.4-8.8-6c-7.2-4-11.4-4-11.4-4l1.1,5.4C185.8,171.7,193,174,201,174.8z"/>
			<path class="st2" d="M197.1,183.4l2.9-4.7c-7.1-0.9-13.3-2.8-17.2-4.3l1.2,5.7C187.3,181.2,191.9,182.6,197.1,183.4z"/>
			<path class="st2" d="M184.8,184.2l1.1,5.4l5.7,2.9l3.4-5.6C191.1,186.1,187.6,185.1,184.8,184.2z"/>
		</g>
	</g>
	<g>
		<circle class="st0" cx="260.6" cy="277.4" r="96.1"/>
		<circle class="st1" cx="260.6" cy="277.4" r="64.9"/>
		<circle class="st2" cx="286.3" cy="253" r="5.4"/>
		
			<ellipse transform="matrix(0.3162 -0.9487 0.9487 0.3162 -59.9194 411.0673)" class="st2" cx="255.2" cy="247.1" rx="5.4" ry="5.4"/>
		<path class="st2" d="M264.4,265.4c-0.6-0.1-1.2-0.4-1.7-0.9c-1.4-1.3-1.4-3.4-0.1-4.8c4.8-5.1,6.5-10.4,5.1-15.9
			c-1.1-4.3-3.7-7.1-3.8-7.1c-1.3-1.4-1.3-3.5,0.1-4.8s3.5-1.3,4.8,0.1c0.2,0.2,3.7,4,5.4,9.8c1.5,5.5,1.6,13.9-6.7,22.6
			C266.7,265.3,265.5,265.7,264.4,265.4z"/>
		<path class="st2" d="M298.2,304.6c-1.2-0.2-2.2-1.1-2.6-2.3c-3.8-11.8-16.3-12.1-16.8-12.1c-1.9,0-3.4-1.5-3.4-3.4
			s1.5-3.4,3.4-3.4c0.2,0,4.6,0,9.5,2c6.7,2.7,11.5,7.8,13.7,14.7c0.6,1.8-0.4,3.7-2.2,4.3C299.3,304.7,298.7,304.7,298.2,304.6z"/>
		<path class="st2" d="M271.6,277c-0.8-0.1-1.5-0.6-2.1-1.3c-1.2-1.5-0.9-3.6,0.6-4.8c0.2-0.1,4.4-3.4,11.1-4.7
			c6.1-1.2,15.6-1,25.9,6.7c1.5,1.1,1.8,3.3,0.7,4.8c-1.1,1.5-3.3,1.8-4.8,0.7c-15.9-11.8-28.6-2.1-28.8-2
			C273.5,277,272.5,277.2,271.6,277z"/>
		<g>
			<path class="st2" d="M271.4,298.1c-0.9-3-3.2-9.4-9.2-18.6c-8.9-13.9-17.4-19.1-17.4-19.1l-5.6,8.4
				C245.1,275.5,256.3,287.3,271.4,298.1z"/>
			<path class="st2" d="M251.2,304.5l12.7-2.7c-13.1-9.8-23-19.9-28.9-26.5l-5.8,8.8C234.4,289.7,241.9,297.1,251.2,304.5z"/>
			<path class="st2" d="M225,290.5l-5.5,8.3l7.3,10.7l15-3.1C234.9,300.7,229.3,295.1,225,290.5z"/>
		</g>
	</g>
	<path class="st5" d="M264.1,325.2c-67.4,0-125.5-11.7-152.3-39.6c-10.1,13.1-15.7,27.6-15.7,43c0,56.1,75.2,78.3,168,78.3
		s168-22.2,168-78.3c0-15.4-5.6-29.9-15.7-43C389.6,313.5,331.5,325.2,264.1,325.2z"/>
	<path class="st5" d="M139.5,270.9c9,18-0.3,36.8-13.9,46.3s-32,5.9-41.9-7.5c-22.1-29.8-5.4-61.7,2.8-67.5
		C95.2,236.1,129.2,250.1,139.5,270.9z"/>
	<path class="st7" d="M142.4,305.9c30.6,13.4,73.8,19.3,121.7,19.3c41,0,78.6-4.3,107.8-14"/>
	<path class="st11" d="M114.7,299.5c0,0-14.4,34.2,6.5,57.3"/>
	<path class="st7" d="M364,331.2c0,0,6.4,11.3,6.4,25.6"/>
	<path class="st7" d="M374.4,327.6c0,0,7.3,7.7,9.6,17.4"/>
	<path class="st4" d="M244.8,480.8c0,0,122.4,3.3,214-23.8"/>
	<path class="st4" d="M49.7,472.6c0,0,34.2,13.9,96.8,18.9"/>
</g>
<g>
	<path class="st12" d="M176.7,95.5c1.1-2.6,1.5-5.5,0.3-8c-1.7-3.8-6-4.3-7.5-9.3c-1.2-3.9,0.3-8,2.5-11.4"/>
	<path class="st12" d="M494.6,294c1.1-2.6,1.5-5.5,0.3-8c-1.7-3.8-6-4.3-7.5-9.3c-1.2-3.9,0.3-8,2.5-11.4"/>
	<path class="st13" d="M245.5,148c-1.2-1.6-2.4-3.4-2.5-5.4c-0.1-2.2,1.2-4.3,2.6-6c0.7-0.9,1.5-1.8,2.3-2.6c0.7-0.7,1.5-1.2,2.2-2
		c2.8-2.9,3-7.5,1.7-11.2"/>
	<path class="st14" d="M104.7,121.2c2.3,1.4,3.8,3.9,4.2,6.5c0.4,2.6-0.3,5.4-1.7,7.7c-0.5,0.8-1.1,1.6-1.5,2.4
		c-1.5,3.2-0.3,7.3,2.6,9.2"/>
	<path class="st14" d="M215.4,92.7c2.3,1.4,3.8,3.9,4.2,6.5s-0.3,5.4-1.7,7.7c-0.5,0.8-1.1,1.6-1.5,2.4c-1.5,3.2-0.3,7.3,2.6,9.2"/>
	<path class="st15" d="M482.3,333.3c2.3,1.4,3.8,3.9,4.2,6.5c0.4,2.6-0.3,5.4-1.7,7.7c-0.5,0.8-1.1,1.6-1.5,2.4
		c-1.5,3.2-0.3,7.3,2.6,9.2"/>
	<line class="st15" x1="127.3" y1="102.9" x2="126.3" y2="84.8"/>
	<line class="st15" x1="278.9" y1="174.1" x2="277.9" y2="156"/>
	<circle class="st16" cx="130.6" cy="119.4" r="4.1"/>
	<circle class="st5" cx="305.9" cy="178.2" r="4.1"/>
	<circle class="st6" cx="96.3" cy="203.1" r="4.1"/>
	<circle class="st0" cx="243.1" cy="76.5" r="4.6"/>
	<path class="st13" d="M480.5,120.6c-1.2-1.6-2.4-3.4-2.5-5.4c-0.1-2.2,1.2-4.3,2.6-6c0.7-0.9,1.5-1.8,2.3-2.6
		c0.7-0.7,1.5-1.2,2.2-2c2.8-2.9,3-7.5,1.7-11.2"/>
	<path class="st14" d="M450.4,65.4c2.3,1.4,3.8,3.9,4.2,6.5c0.4,2.6-0.3,5.4-1.7,7.7c-0.5,0.8-1.1,1.6-1.5,2.4
		c-1.5,3.2-0.3,7.3,2.6,9.2"/>
	<line class="st15" x1="438.7" y1="274.2" x2="437.7" y2="256.1"/>
	<circle class="st5" cx="467" cy="235.7" r="4.1"/>
	<circle class="st0" cx="478.1" cy="49.2" r="4.6"/>
	<path class="st13" d="M71.5,353.7c-1.2-1.6-2.4-3.4-2.5-5.4c-0.1-2.2,1.2-4.3,2.6-6c0.7-0.9,1.5-1.8,2.3-2.6c0.7-0.7,1.5-1.2,2.2-2
		c2.8-2.9,3-7.5,1.7-11.2"/>
	<path class="st14" d="M41.4,298.4c2.3,1.4,3.8,3.9,4.2,6.5s-0.3,5.4-1.7,7.7c-0.5,0.8-1.1,1.6-1.5,2.4c-1.5,3.2-0.3,7.3,2.6,9.2"/>
	<path class="st12" d="M55.6,205.8c2.3,1.4,3.8,3.9,4.2,6.5s-0.3,5.4-1.7,7.7c-0.5,0.8-1.1,1.6-1.5,2.4c-1.5,3.2-0.3,7.3,2.6,9.2"/>
	<circle class="st16" cx="64.5" cy="312.7" r="4.6"/>
	<circle class="st0" cx="458.8" cy="308" r="4.6"/>
</g>
</svg>
