<svg xmlns="http://www.w3.org/2000/svg" xmlns:xlink="http://www.w3.org/1999/xlink" viewBox="0 0 536 536"><defs><clipPath id="a"><rect width="536" height="536" transform="translate(8107 2456)" fill="#fff"/></clipPath></defs><g transform="translate(-8107 -2456)" clip-path="url(#a)"><g transform="translate(8084.357 2431.873)"><g transform="translate(26.8 48.808)"><g transform="translate(93.047 55.083)"><ellipse cx="44.187" cy="61.352" rx="44.187" ry="61.352" transform="translate(0 54.296) rotate(-25.684)" fill="#690bd6"/><path d="M144,137.777l.664-5.2,22.37-15.172,56.48,117.5-26.025,8.306Z" transform="translate(-107.255 -96.069)" fill="#690bd6"/><ellipse cx="46.956" cy="65.228" rx="46.956" ry="65.228" transform="translate(19.43 40.701) rotate(-25.684)" fill="#5200a9"/><ellipse cx="31.673" cy="44.076" rx="31.673" ry="44.076" transform="translate(42.37 53.14) rotate(-25.684)" fill="none" stroke="#690bd6" stroke-linecap="round" stroke-linejoin="round" stroke-miterlimit="10" stroke-width="4.339"/><g transform="translate(78.607 53.336)"><path d="M188.015,152.5l-2.215-5.426,1.107-.775,3.765,4.983A22.432,22.432,0,0,0,188.015,152.5Z" transform="translate(-181.37 -146.3)" fill="#fff"/><path d="M204.3,171.9a23.612,23.612,0,0,1,.554,5.869l5.537,2.436v-2.879Z" transform="translate(-179.383 -143.549)" fill="#fff"/><path d="M199.469,185.4l-2.769,1.661,2.436,5.316,1.661-.775Z" transform="translate(-180.199 -142.099)" fill="#fff"/><ellipse cx="0.997" cy="1.44" rx="0.997" ry="1.44" transform="matrix(0.975, -0.221, 0.221, 0.975, 12.656, 1.364)" fill="#fff"/><path d="M201.4,152.226c-2.547-3.544-13.511,1.661-13.511,1.661l-5.2-3.987-.886,1.107,14.95,24.031-6.2,4.541-4.541-5.537-.443,1.107,1.883,3.1-4.208-1.993-.332,1.661,4.208,2.99-2.215,1.218.664,1.44,4.43-.775,3.765,14.84,2.436-.886.664-6.755,6.755-4.208,5.316,4.983,1.329-2.658-4.1-7.641-.111-3.212a12.209,12.209,0,0,0-1.44-5.205l-4.651-8.084C199.962,164.075,203.174,154.883,201.4,152.226Zm-6.312,6.645c-.554.554-1.329.332-1.772-.554a2.321,2.321,0,0,1,.111-2.547c.554-.554,1.329-.332,1.772.554A2.562,2.562,0,0,1,195.089,158.87Z" transform="translate(-181.8 -145.913)" fill="#fff"/></g></g><g transform="translate(268.001)"><circle cx="53.711" cy="53.711" r="53.711" fill="#690bd6"/><circle cx="36.213" cy="36.213" r="36.213" transform="translate(17.498 17.498)" fill="none" stroke="#5200a9" stroke-linecap="round" stroke-linejoin="round" stroke-miterlimit="10" stroke-width="4.339"/><g transform="translate(30.455 27.132)"><path d="M323.1,79.7l1.993-5.2,1.772.664-.111,6.423A20.246,20.246,0,0,0,323.1,79.7Z" transform="translate(-293.421 -72.728)" fill="#fff"/><path d="M324.887,106.4a14.145,14.145,0,0,1-3.987,3.987l3.765,6.645,2.326-1.661Z" transform="translate(-293.657 -69.301)" fill="#fff"/><path d="M309.469,109.472l-4.208-1.772-1.661,5.426,2.326,1.218Z" transform="translate(-295.516 -69.161)" fill="#fff"/><circle cx="1.329" cy="1.329" r="1.329" transform="translate(38.65 10.521)" fill="#fff"/><path d="M339.047,92.28c.221-4.541-15.061-11.96-15.061-11.96l-2.215-7.2L320.11,72.9l-3.322,28.018L306.931,97.6l-.221-7.531-1.218.221-.554,3.544-2.769-5.2-1.661.664,1.883,5.648-3.212-1.44-.443,1.44,5.2,3.765L296.3,110.774l3.212,1.883,5.98-3.212,10.188,4.1,1.55,7.974,3.433-.221,1.772-8.2,2.326-1.883a7.566,7.566,0,0,0,2.547-4.319l1.55-9.081C328.527,97.707,338.936,95.492,339.047,92.28ZM327.53,90.065a1.694,1.694,0,1,1,1.993-1.329A1.693,1.693,0,0,1,327.53,90.065Z" transform="translate(-296.3 -72.9)" fill="#fff"/></g></g><ellipse cx="167.777" cy="46.734" rx="167.777" ry="46.734" transform="translate(97.344 323.816)" fill="#b8aaeb"/><path d="M291.922,468.127c-146.4,0-265.122-26.689-265.122-59.691,0-15.172,25.028-29.015,66.225-39.536" transform="translate(-26.8 -13.965)" fill="none" stroke="#b8aaeb" stroke-linecap="round" stroke-linejoin="round" stroke-miterlimit="10" stroke-width="4.266"/><path d="M445.888,368.2c43.3,10.631,69.769,24.807,69.769,40.311,0,19.269-40.643,36.435-103.657,47.4" transform="translate(14.587 -14.04)" fill="none" stroke="#b8aaeb" stroke-linecap="round" stroke-linejoin="round" stroke-miterlimit="10" stroke-width="4.266"/><path d="M473.4,377.5c13.289,6.312,20.709,13.4,20.709,20.82,0,26.468-93.025,47.842-207.756,47.842S78.6,424.677,78.6,398.32c0-6.977,6.534-13.622,18.162-19.6" transform="translate(-21.235 -13.041)" fill="none" stroke="#b8aaeb" stroke-linecap="round" stroke-linejoin="round" stroke-miterlimit="10" stroke-width="4.266"/><path d="M280.131,364.467c49.392,0,94.243,5.648,127.467,18.494,17.055,6.534,51.828-54.486,39.757-66.446-30.233-29.9-93.8-42.415-167.334-42.415-68.551,0-128.463,10.964-160.8,36.656C103.162,323.6,135.721,389.274,153,382.74,186.331,370.115,230.961,364.467,280.131,364.467Z" transform="translate(-17.335 -24.15)" fill="#ffed00"/><path d="M319.8,176.8c9.745,75.638,44.962,151.277,44.962,151.277l78.85,2.436L419.691,236.38Z" transform="translate(4.68 -34.604)" fill="#ffed00"/><g transform="translate(324.037 30.161)"><circle cx="86.934" cy="86.934" r="86.934" transform="translate(0 17.349)" fill="#ffed00"/><path d="M377.959,175.4c12.293-22.924,62.017,10.41,75.638-22.7,16.058,28.9,49.835,14.618,58.141,32.227s-24.807,32.227-66.225,32.227S368.1,193.675,377.959,175.4Z" transform="translate(-313.285 -67.355)" fill="#ff6300"/><g transform="translate(13.4 77.04)"><path d="M440.184,146.6c-.222.443-22.813,1.661-22.813,1.661L405.3,168.084l22.924-.332,14.286-19.27Z" transform="translate(-323.571 -145.05)" fill="#fff"/><path d="M500.555,147.1l-17.83,1.107L467,165.927l23.478,1.107,13.068-14.84Z" transform="translate(-316.942 -144.996)" fill="#fff"/><rect width="4.983" height="4.983" transform="matrix(1, -0.003, 0.003, 1, 166.775, 9.978)"/><rect width="4.983" height="4.983" transform="matrix(1, -0.003, 0.003, 1, 97.117, 10.199)"/><path d="M387.8,145.421v9.856h4.541v4.984h4.983v4.983h4.983v4.983l34.774-.111v-4.983h4.983V160.15h4.983v-9.856H456.9v9.856h4.984v4.984h4.983v4.983l34.774-.111v-4.983h4.983V160.04h4.984v-4.983H516.6V145.2Zm94.465,14.618h4.983v-4.983h4.983v-4.983h4.984v4.983H502.2v-4.983h4.983v4.983H502.2v4.983h-4.983v4.983h-4.984V160.04h-4.983v4.983h-4.983Zm-69.547.221H417.7v-4.984h4.984v-4.983h4.983v4.983h4.983v-4.983h4.983v4.983h-4.983v4.984h-4.983v4.983h-4.983v-4.983H417.7v4.983h-4.983Z" transform="translate(-325.451 -145.2)"/><path d="M395.953,147l-50.5.221L331.5,165.494l5.094,2.547,11.185-15.5,47.4.111Z" transform="translate(-331.5 -145.007)"/></g><path d="M406.532,92.983c-25.582-4.651-23.921-20.377-35.106-16.833s-1.993,19.159-18.827,33C335.434,123.438,432.114,97.745,406.532,92.983Z" transform="translate(-316.054 -75.635)" fill="#ffed00"/><path d="M387.9,176.8s23.256,31.784,114.62,11.96" transform="translate(-312.04 -64.765)" fill="none" stroke="#5200a9" stroke-linecap="round" stroke-linejoin="round" stroke-miterlimit="10" stroke-width="4.266"/></g><path d="M275.231,340.829c43.3,0,83.169-4.319,114.731-14.065C358.4,317.019,318.532,312.7,275.231,312.7s-83.169,4.319-114.731,14.065C192.062,336.4,231.93,340.829,275.231,340.829Z" transform="translate(-12.435 -20.003)" fill="#4f09a0"/><g transform="translate(152.495 147.179)"><circle cx="106.425" cy="106.425" r="106.425" transform="translate(0 0)" fill="#690bd6"/><circle cx="71.873" cy="71.873" r="71.873" transform="translate(34.552 34.552)" fill="none" stroke="#5200a9" stroke-linecap="round" stroke-linejoin="round" stroke-miterlimit="10" stroke-width="4.339"/><g transform="translate(68.661 53.711)"><path d="M266.8,241.207l.664-11.407,3.876.221,3.765,12.736A32.8,32.8,0,0,0,266.8,241.207Z" transform="translate(-222.17 -229.8)" fill="#fff"/><path d="M287.016,292.9a30.147,30.147,0,0,1-5.316,10.189l11.628,10.742,3.544-4.651Z" transform="translate(-220.569 -223.02)" fill="#fff"/><path d="M258.292,308.375,249.1,307.6v11.628l5.316.886Z" transform="translate(-224.072 -221.441)" fill="#fff"/><circle cx="2.769" cy="2.769" r="2.769" transform="translate(65.228 11.85)" fill="#fff"/><path d="M304.575,257.422c-2.436-8.97-37.1-14.175-37.1-14.175l-8.86-12.846-3.433.664,10.742,57.365-21.6-.443-5.094-14.618-2.326,1.218,1.218,7.309-8.749-8.417-2.879,2.326,7.309,9.967-7.309-.886v3.1l12.514,4.319-7.641,28.572,7.42,1.661,9.635-10.078,22.592,1.772,7.974,14.729,6.534-2.658-1.661-17.387L287.3,303.6a15.039,15.039,0,0,0,2.326-10.188l-2.658-18.937C287.077,274.7,306.347,264.066,304.575,257.422Zm-24.031,2.769a3.62,3.62,0,1,1,3.212-3.987A3.692,3.692,0,0,1,280.543,260.19Z" transform="translate(-226.5 -229.736)" fill="#fff"/></g></g><path d="M282.15,329.455c-74.642,0-138.984-12.957-168.663-43.855C102.3,300.107,96.1,316.165,96.1,333.22c0,62.127,83.28,86.713,186.05,86.713S468.2,395.347,468.2,333.22c0-17.055-6.2-33.113-17.387-47.62C421.134,316.5,356.792,329.455,282.15,329.455Z" transform="translate(-19.354 -22.915)" fill="#ffed00"/><path d="M146.676,274.138c9.967,19.934-.332,40.754-15.393,51.275s-35.438,6.534-46.4-8.306c-24.474-33-5.98-68.329,3.1-74.752C97.617,235.6,135.27,251.1,146.676,274.138Z" transform="translate(-21.868 -27.732)" fill="#ffed00"/><path d="M142.4,305.9c33.888,14.84,81.729,21.374,134.776,21.374,45.405,0,87.045-4.762,119.382-15.5" transform="translate(-14.38 -20.734)" fill="none" stroke="#5200a9" stroke-linecap="round" stroke-linejoin="round" stroke-miterlimit="10" stroke-width="4.266"/><path d="M115.22,299.5s-15.947,37.875,7.2,63.456" transform="translate(-17.875 -21.421)" fill="none" stroke="#fff" stroke-linecap="round" stroke-linejoin="round" stroke-miterlimit="10" stroke-width="4.266"/><path d="M364,331.2a63.572,63.572,0,0,1,7.088,28.351" transform="translate(9.429 -18.015)" fill="none" stroke="#5200a9" stroke-linecap="round" stroke-linejoin="round" stroke-miterlimit="10" stroke-width="4.266"/><path d="M374.4,327.6s8.084,8.527,10.631,19.27" transform="translate(10.547 -18.402)" fill="none" stroke="#5200a9" stroke-linecap="round" stroke-linejoin="round" stroke-miterlimit="10" stroke-width="4.266"/><path d="M244.8,483.357S380.351,487.012,481.793,457" transform="translate(-3.378 -4.499)" fill="none" stroke="#b8aaeb" stroke-linecap="round" stroke-linejoin="round" stroke-miterlimit="10" stroke-width="4.266"/><path d="M49.7,472.6s37.875,15.393,107.2,20.931" transform="translate(-24.34 -2.823)" fill="none" stroke="#b8aaeb" stroke-linecap="round" stroke-linejoin="round" stroke-miterlimit="10" stroke-width="4.266"/></g><g transform="translate(42.969 44.6)"><path d="M177.519,98.584c1.218-2.879,1.661-6.091.332-8.86-1.883-4.208-6.645-4.762-8.306-10.3-1.329-4.319.332-8.86,2.769-12.625" transform="translate(-27.682 -42.215)" fill="none" stroke="#ffed00" stroke-linecap="round" stroke-miterlimit="10" stroke-width="4.977"/><path d="M495.419,297.084c1.218-2.879,1.661-6.091.332-8.86-1.883-4.208-6.645-4.762-8.306-10.3-1.329-4.319.332-8.86,2.769-12.625" transform="translate(6.473 -20.888)" fill="none" stroke="#ffed00" stroke-linecap="round" stroke-miterlimit="10" stroke-width="4.977"/><path d="M245.769,150.922c-1.329-1.772-2.658-3.765-2.769-5.98-.111-2.436,1.329-4.762,2.879-6.645a31.541,31.541,0,0,1,2.547-2.879c.775-.775,1.661-1.329,2.436-2.215,3.1-3.212,3.322-8.306,1.883-12.4" transform="translate(-19.74 -36.413)" fill="none" stroke="#ff6300" stroke-linecap="round" stroke-miterlimit="10" stroke-width="4.977"/><path d="M104.7,121.2a10.305,10.305,0,0,1,4.651,7.2,12.973,12.973,0,0,1-1.883,8.527c-.554.886-1.218,1.772-1.661,2.658a8.307,8.307,0,0,0,2.879,10.188" transform="translate(-34.599 -36.37)" fill="none" stroke="#690bd6" stroke-linecap="round" stroke-miterlimit="10" stroke-width="4.977"/><path d="M215.4,92.7a10.305,10.305,0,0,1,4.651,7.2,12.973,12.973,0,0,1-1.883,8.527c-.554.886-1.218,1.772-1.661,2.658a8.307,8.307,0,0,0,2.879,10.188" transform="translate(-22.705 -39.432)" fill="none" stroke="#690bd6" stroke-linecap="round" stroke-miterlimit="10" stroke-width="4.977"/><path d="M482.3,333.3a10.305,10.305,0,0,1,4.651,7.2,12.973,12.973,0,0,1-1.883,8.527c-.554.886-1.218,1.772-1.661,2.658a8.307,8.307,0,0,0,2.879,10.188" transform="translate(5.971 -13.582)" fill="none" stroke="aqua" stroke-linecap="round" stroke-miterlimit="10" stroke-width="4.977"/><line x1="1.107" y1="20.045" transform="translate(94.022 44.519)" fill="none" stroke="aqua" stroke-linecap="round" stroke-miterlimit="10" stroke-width="4.977"/><line x1="1.107" y1="20.045" transform="translate(261.91 123.369)" fill="none" stroke="aqua" stroke-linecap="round" stroke-miterlimit="10" stroke-width="4.977"/><circle cx="4.541" cy="4.541" r="4.541" transform="translate(94.243 78.296)" fill="aqua"/><circle cx="4.541" cy="4.541" r="4.541" transform="translate(288.378 143.414)" fill="#ffed00"/><circle cx="4.541" cy="4.541" r="4.541" transform="translate(56.258 170.989)" fill="#ff6300"/><circle cx="5.094" cy="5.094" r="5.094" transform="translate(218.277 30.233)" fill="#690bd6"/><path d="M480.769,123.522c-1.329-1.772-2.658-3.765-2.769-5.98-.111-2.436,1.329-4.762,2.879-6.645a31.554,31.554,0,0,1,2.547-2.879c.775-.775,1.661-1.329,2.436-2.215,3.1-3.212,3.322-8.306,1.883-12.4" transform="translate(5.508 -39.357)" fill="none" stroke="#ff6300" stroke-linecap="round" stroke-miterlimit="10" stroke-width="4.977"/><path d="M450.4,65.4a10.305,10.305,0,0,1,4.651,7.2,12.973,12.973,0,0,1-1.883,8.527c-.554.886-1.218,1.772-1.661,2.658a8.307,8.307,0,0,0,2.879,10.188" transform="translate(2.544 -42.365)" fill="none" stroke="#690bd6" stroke-linecap="round" stroke-miterlimit="10" stroke-width="4.977"/><line x1="1.107" y1="20.045" transform="translate(438.879 234.224)" fill="none" stroke="aqua" stroke-linecap="round" stroke-miterlimit="10" stroke-width="4.977"/><circle cx="4.541" cy="4.541" r="4.541" transform="translate(466.787 207.092)" fill="#ffed00"/><circle cx="5.094" cy="5.094" r="5.094" transform="translate(478.526)" fill="#690bd6"/><path d="M71.769,356.622c-1.329-1.772-2.658-3.765-2.769-5.98-.111-2.436,1.329-4.762,2.879-6.645a31.545,31.545,0,0,1,2.547-2.879c.775-.775,1.661-1.329,2.436-2.215,3.1-3.212,3.322-8.306,1.883-12.4" transform="translate(-38.435 -14.312)" fill="none" stroke="#ff6300" stroke-linecap="round" stroke-miterlimit="10" stroke-width="4.977"/><path d="M41.4,298.4a10.3,10.3,0,0,1,4.651,7.2,12.973,12.973,0,0,1-1.883,8.527c-.554.886-1.218,1.772-1.661,2.658a8.307,8.307,0,0,0,2.879,10.188" transform="translate(-41.4 -17.331)" fill="none" stroke="#690bd6" stroke-linecap="round" stroke-miterlimit="10" stroke-width="4.977"/><path d="M55.6,205.8a10.305,10.305,0,0,1,4.651,7.2,12.973,12.973,0,0,1-1.883,8.527c-.554.886-1.218,1.772-1.661,2.658a8.307,8.307,0,0,0,2.879,10.188" transform="translate(-39.874 -27.28)" fill="none" stroke="#ffed00" stroke-linecap="round" stroke-miterlimit="10" stroke-width="4.977"/><circle cx="5.094" cy="5.094" r="5.094" transform="translate(20.488 291.811)" fill="aqua"/><circle cx="5.094" cy="5.094" r="5.094" transform="translate(457.152 286.606)" fill="#690bd6"/></g></g></g></svg>