<?xml version="1.0" encoding="utf-8"?>
<!-- Generator: Adobe Illustrator 26.0.1, SVG Export Plug-In . SVG Version: 6.00 Build 0)  -->
<svg version="1.1" id="Layer_1" xmlns="http://www.w3.org/2000/svg" xmlns:xlink="http://www.w3.org/1999/xlink" x="0px" y="0px"
	 viewBox="0 0 600 600" style="enable-background:new 0 0 600 600;" xml:space="preserve">
<style type="text/css">
	.st0{fill:#690BD6;}
	.st1{fill:#5200A9;}
	.st2{fill:#3C007E;}
	.st3{fill:#FFFFFF;}
</style>
<g>
	<circle class="st0" cx="300.3" cy="300.4" r="295.5"/>
	<circle class="st1" cx="300.3" cy="300.4" r="219.3"/>
	<path class="st2" d="M300.3,81.1c-4.4,0-8.8,0.1-13.1,0.4c115,6.8,206.2,102.2,206.2,218.9s-91.2,212.1-206.2,218.9
		c4.3,0.3,8.7,0.4,13.1,0.4c121.1,0,219.3-98.2,219.3-219.3S421.4,81.1,300.3,81.1z"/>
	<g>
		
			<ellipse transform="matrix(0.873 -0.4877 0.4877 0.873 -48.4741 206.0408)" class="st3" cx="371.4" cy="196.1" rx="18.7" ry="18.7"/>
		
			<ellipse transform="matrix(0.873 -0.4877 0.4877 0.873 -57.834 151.1564)" class="st3" cx="261.4" cy="186.6" rx="18.7" ry="18.7"/>
		<path class="st3" d="M299.3,247.1c-2.6-0.2-4.5-0.8-6.2-2.3c-5.3-3.6-6.3-11.3-2.1-17c14.9-19.1,19.5-38.9,12.5-57.3
			c-5.5-14.3-15.6-23.5-15.6-23.5c-5-4.6-5.7-11.7-1.1-16.7c4.6-5,11.7-5.7,16.7-1.1c0.4,0.6,14.4,12.6,22.1,32.2
			c7,18.4,10.3,47.9-15.6,81.3C307,246.1,303.5,247.3,299.3,247.1z"/>
		<path class="st3" d="M431.5,373c-4.2-0.1-8.2-2.8-9.7-7c-17.3-39.8-61-36.9-63.3-36.4c-6.4,0.3-12.1-4-13.4-10.7
			c-0.3-6.4,4-12.1,10.7-13.4c0.6-0.4,15.7-1.4,34.4,3.9c24.5,6.9,42.7,23.2,53.4,46.9c2.5,6,0,13.2-6.1,15.8
			C435.3,372.5,433.1,372.9,431.5,373z"/>
		<path class="st3" d="M328.7,285.1c-2.6-0.2-5.9-1.7-7.9-3.8c-4.4-5-4.4-12.4,0.5-16.8c0.6-0.4,13.9-13.5,37.5-20.1
			c21-6.8,54.4-8.9,92.9,14.1c6,3.3,7.6,10.6,4.3,16.6c-3.3,6-10.6,7.6-16.6,4.3c-59.7-36-100.8,2.7-101.4,3
			C335.2,284.8,332.3,285.6,328.7,285.1z"/>
		<g>
			<path class="st3" d="M335.4,359c-4-10.1-14.3-31.6-38.6-61.8c-36.3-45.7-67.6-60.4-67.6-60.4l-16.3,31.4
				C235.4,289.4,279,326.1,335.4,359z"/>
			<path class="st3" d="M266.7,388.3l43.6-13.6c-49.4-29.3-87.3-61.8-109.9-83l-17.2,32.7C203,342.2,231.8,365.7,266.7,388.3z"/>
			<path class="st3" d="M170.4,348.8l-16.6,30.8l29.3,34.8l51.2-16.2C209,380.9,186.9,363.5,170.4,348.8z"/>
		</g>
	</g>
</g>
</svg>
