<svg xmlns="http://www.w3.org/2000/svg" xmlns:xlink="http://www.w3.org/1999/xlink" viewBox="0 0 536 536"><defs><clipPath id="a"><rect width="536" height="536" transform="translate(8107 1867)" fill="#fff"/></clipPath></defs><g transform="translate(-8107 -1867)" clip-path="url(#a)"><g transform="translate(8083.482 1859.049)"><g transform="translate(26.3 48.864)"><g transform="translate(253.651)"><circle cx="50.73" cy="50.73" r="50.73" fill="#690bd6"/><circle cx="34.204" cy="34.204" r="34.204" transform="translate(16.527 16.527)" fill="none" stroke="#5200a9" stroke-linecap="round" stroke-linejoin="round" stroke-miterlimit="10" stroke-width="4.339"/><g transform="translate(28.765 25.627)"><path d="M323.1,79.416l1.883-4.916,1.674.628-.1,6.067A19.12,19.12,0,0,0,323.1,79.416Z" transform="translate(-295.068 -72.826)" fill="#fff"/><path d="M324.665,106.4a13.359,13.359,0,0,1-3.766,3.766l3.556,6.276,2.2-1.569Z" transform="translate(-295.169 -71.36)" fill="#fff"/><path d="M309.144,109.374l-3.975-1.674-1.569,5.125,2.2,1.151Z" transform="translate(-295.964 -71.3)" fill="#fff"/><circle cx="1.255" cy="1.255" r="1.255" transform="translate(36.505 9.937)" fill="#fff"/><path d="M336.675,91.2c.209-4.289-14.225-11.3-14.225-11.3l-2.092-6.8-1.569-.209-3.138,26.463-9.309-3.138-.209-7.113-1.151.209-.523,3.347-2.615-4.916-1.569.628,1.778,5.335-3.033-1.36-.418,1.36,4.916,3.556-7.217,11.4,3.033,1.778,5.648-3.033,9.623,3.87,1.464,7.531,3.243-.209,1.674-7.74,2.2-1.778a7.146,7.146,0,0,0,2.406-4.079l1.464-8.577C326.738,96.33,336.57,94.238,336.675,91.2ZM325.8,89.113a1.6,1.6,0,1,1,1.883-1.255A1.6,1.6,0,0,1,325.8,89.113Z" transform="translate(-296.3 -72.9)" fill="#fff"/></g></g><g transform="translate(88.406 52.026)"><ellipse cx="41.735" cy="57.947" rx="41.735" ry="57.947" transform="translate(0 51.283) rotate(-25.684)" fill="#690bd6"/><path d="M144,136.646l.628-4.916,21.129-14.33L219.1,228.379l-24.581,7.845Z" transform="translate(-109.294 -97.253)" fill="#690bd6"/><ellipse cx="44.35" cy="61.608" rx="44.35" ry="61.608" transform="translate(18.351 38.442) rotate(-25.684)" fill="#5200a9"/><ellipse cx="29.915" cy="41.63" rx="29.915" ry="41.63" transform="translate(40.018 50.191) rotate(-25.684)" fill="none" stroke="#690bd6" stroke-linecap="round" stroke-linejoin="round" stroke-miterlimit="10" stroke-width="4.339"/><g transform="translate(74.244 50.376)"><path d="M187.892,152.157l-2.092-5.125,1.046-.732,3.556,4.707A21.2,21.2,0,0,0,187.892,152.157Z" transform="translate(-181.616 -146.3)" fill="#fff"/><path d="M204.3,171.9a22.3,22.3,0,0,1,.523,5.544l5.23,2.3v-2.72Z" transform="translate(-180.765 -145.123)" fill="#fff"/><path d="M199.315,185.4l-2.615,1.569,2.3,5.021,1.569-.732Z" transform="translate(-181.115 -144.502)" fill="#fff"/><ellipse cx="0.941" cy="1.36" rx="0.941" ry="1.36" transform="matrix(0.975, -0.221, 0.221, 0.975, 11.954, 1.288)" fill="#fff"/><path d="M200.314,152.1c-2.406-3.347-12.761,1.569-12.761,1.569l-4.916-3.766-.837,1.046,14.121,22.7-5.858,4.289-4.289-5.23-.418,1.046,1.778,2.929-3.975-1.883-.314,1.569,3.975,2.824-2.092,1.151.628,1.36,4.184-.732,3.556,14.016,2.3-.837.628-6.381,6.381-3.975,5.021,4.707,1.255-2.51-3.87-7.217-.1-3.033a11.532,11.532,0,0,0-1.36-4.916l-4.393-7.636C198.954,163.289,201.987,154.607,200.314,152.1Zm-5.962,6.276c-.523.523-1.255.314-1.674-.523a2.193,2.193,0,0,1,.1-2.406c.523-.523,1.255-.314,1.674.523A2.42,2.42,0,0,1,194.352,158.372Z" transform="translate(-181.8 -146.134)" fill="#fff"/></g></g><ellipse cx="161.186" cy="44.873" rx="161.186" ry="44.873" transform="translate(93.511 304.59)" fill="#b8aaeb"/><ellipse cx="62.341" cy="17.363" rx="62.341" ry="17.363" transform="translate(406.051 364.316)" fill="#b8aaeb"/><path d="M281,463.489c-140.685,0-254.7-25.627-254.7-57.32,0-14.539,24.058-27.823,63.7-37.969" transform="translate(-26.3 -33.694)" fill="none" stroke="#b8aaeb" stroke-linecap="round" stroke-linejoin="round" stroke-miterlimit="10" stroke-width="4.339"/><path d="M450.73,367.4c41.63,10.251,67.048,23.848,67.048,38.806,0,18.514-39.015,35.04-99.578,45.5" transform="translate(-8.279 -33.731)" fill="none" stroke="#b8aaeb" stroke-linecap="round" stroke-linejoin="round" stroke-miterlimit="10" stroke-width="4.339"/><path d="M458.274,376.8c12.761,6.067,19.874,12.866,19.874,19.978,0,25.417-89.327,45.919-199.574,45.919S79,422.3,79,396.883c0-6.694,6.276-13.075,17.468-18.828" transform="translate(-23.877 -33.299)" fill="none" stroke="#b8aaeb" stroke-linecap="round" stroke-linejoin="round" stroke-miterlimit="10" stroke-width="4.339"/><path d="M274.671,358.521c47.383,0,90.478,5.439,122.485,17.677,16.422,6.276,49.789-52.4,38.178-63.8C406.256,283.629,345.275,271.6,274.671,271.6c-65.9,0-123.426,10.46-154.387,35.25-15.481,12.343,15.794,75.52,32.425,69.139C184.612,363.96,227.5,358.521,274.671,358.521Z" transform="translate(-22.171 -38.136)" fill="#ffed00"/><path d="M324.3,172.8c9.309,72.591,43.2,145.392,43.2,145.392l75.729,2.3L420.217,230.12Z" transform="translate(-12.597 -42.68)" fill="#ffed00"/><g transform="translate(311.389 22.607)"><circle cx="83.469" cy="83.469" r="83.469" transform="translate(0 16.513)" fill="#ffed00"/><path d="M383.47,170.061c11.82-22.07,59.621,10.041,72.7-21.861,15.48,27.823,47.906,14.016,55.855,30.961s-23.848,30.961-63.6,30.961S373.951,187.634,383.47,170.061Z" transform="translate(-321.338 -66.418)" fill="#ff6300"/><g transform="translate(12.866 73.833)"><path d="M444.771,142c-.209.418-21.861,1.569-21.861,1.569L411.3,162.606l22.07-.314,13.7-18.514Z" transform="translate(-332.851 -140.536)" fill="#fff"/><path d="M506.316,142.5l-17.154,1.151L474.1,160.7l22.489.941,12.552-14.225Z" transform="translate(-329.963 -140.513)" fill="#fff"/><rect width="4.812" height="4.812" transform="matrix(1, -0.003, 0.003, 1, 160.134, 9.529)"/><rect width="4.812" height="4.812" transform="matrix(1, -0.003, 0.003, 1, 93.296, 9.738)"/><path d="M393.6,140.809v9.518h4.393v4.812H402.8v4.812h4.812v4.812l33.367-.1v-4.812h4.811v-4.812h4.812v-9.518h9.518v9.518h4.812v4.812h4.811v4.812l33.367-.1v-4.812h4.812V154.93h4.811v-4.812h4.812V140.6Zm90.687,14.121H489.1v-4.812h4.812v-4.812h4.812v4.812h4.812v-4.812h4.812v4.812h-4.812v4.812h-4.812v4.812H493.91V154.93H489.1v4.812h-4.811Zm-66.838.209h4.812v-4.812h4.812v-4.812h4.812v4.812h4.812v-4.812h4.812v4.812h-4.812v4.812h-4.812v4.812h-4.812v-4.812H422.26v4.812h-4.812Z" transform="translate(-333.665 -140.6)"/><path d="M398.222,142.5l-48.534.209L336.3,160.177l4.916,2.51,10.669-14.853h45.6Z" transform="translate(-336.3 -140.513)"/></g><path d="M409.463,86.631c-24.581-4.5-23.012-19.56-33.681-16.108s-1.883,18.409-18.1,31.693C341.161,115.813,433.939,91.024,409.463,86.631Z" transform="translate(-322.542 -70.013)" fill="#ffed00"/></g><path d="M272.547,337.986c41.63,0,79.809-4.184,110.247-13.493C352.355,315.184,314.072,311,272.547,311s-79.809,4.184-110.247,13.493C192.633,333.8,230.916,337.986,272.547,337.986Z" transform="translate(-20.046 -36.325)" fill="#4f09a0"/><g transform="translate(144.555 139.011)"><circle cx="100.519" cy="100.519" r="100.519" fill="#690bd6"/><circle cx="67.884" cy="67.884" r="67.884" transform="translate(32.635 32.635)" fill="none" stroke="#5200a9" stroke-linecap="round" stroke-linejoin="round" stroke-miterlimit="10" stroke-width="4.339"/><g transform="translate(64.851 50.73)"><path d="M266.8,240.574l.628-10.774,3.661.209,3.556,12.029A30.974,30.974,0,0,0,266.8,240.574Z" transform="translate(-224.647 -229.8)" fill="#fff"/><path d="M286.721,292.9a28.474,28.474,0,0,1-5.021,9.623l10.983,10.146,3.347-4.393Z" transform="translate(-223.962 -226.898)" fill="#fff"/><path d="M257.782,308.332,249.1,307.6v10.983l5.021.837Z" transform="translate(-225.461 -226.222)" fill="#fff"/><circle cx="2.615" cy="2.615" r="2.615" transform="translate(61.608 11.192)" fill="#fff"/><path d="M300.242,255.922c-2.3-8.472-35.04-13.389-35.04-13.389L256.833,230.4l-3.243.628,10.146,54.182-20.4-.418-4.812-13.807-2.2,1.151,1.151,6.9-8.263-7.949-2.72,2.2,6.9,9.414-6.9-.837v2.929l11.82,4.079L231.1,315.857l7.008,1.569,9.1-9.518,21.338,1.674,7.531,13.912,6.171-2.51-1.569-16.422,3.243-5.021a14.2,14.2,0,0,0,2.2-9.623l-2.51-17.886C283.715,272.239,301.915,262.2,300.242,255.922Zm-22.7,2.615a3.419,3.419,0,1,1,3.033-3.766A3.487,3.487,0,0,1,277.544,258.537Z" transform="translate(-226.5 -229.772)" fill="#fff"/></g></g><path d="M275.559,325.553c-71.754,0-133.572-12.447-162.023-42.153C102.762,297.312,96.8,312.792,96.8,329.109c0,59.726,80.018,83.365,178.759,83.365s178.758-23.639,178.758-83.365c0-16.317-5.962-31.8-16.736-45.71C409.131,313.106,347.208,325.553,275.559,325.553Z" transform="translate(-23.058 -37.594)" fill="#ffed00"/><path d="M144.126,269.808c9.518,19.141-.314,39.12-14.853,49.161s-33.994,6.276-44.559-7.949c-23.535-31.693-5.753-65.688,3.033-71.754C97.057,232.885,133.144,247.842,144.126,269.808Z" transform="translate(-24.152 -39.692)" fill="#ffed00"/><path d="M143.9,304c32.53,14.33,78.553,20.606,129.493,20.606,43.617,0,83.574-4.6,114.64-14.957" transform="translate(-20.892 -36.647)" fill="none" stroke="#5200a9" stroke-linecap="round" stroke-linejoin="round" stroke-miterlimit="10" stroke-width="4.339"/><path d="M116.027,297.6s-15.376,36.4,6.9,60.876" transform="translate(-22.412 -36.941)" fill="none" stroke="#fff" stroke-linecap="round" stroke-linejoin="round" stroke-miterlimit="10" stroke-width="4.339"/><path d="M369.4,329.8a61.28,61.28,0,0,1,6.8,27.3" transform="translate(-10.523 -35.46)" fill="none" stroke="#5200a9" stroke-linecap="round" stroke-linejoin="round" stroke-miterlimit="10" stroke-width="4.339"/><path d="M379.9,326.2s7.845,8.159,10.251,18.514" transform="translate(-10.04 -35.626)" fill="none" stroke="#5200a9" stroke-linecap="round" stroke-linejoin="round" stroke-miterlimit="10" stroke-width="4.339"/><path d="M248.1,483.113s130.225,3.452,227.606-25.313" transform="translate(-16.101 -29.574)" fill="none" stroke="#b8aaeb" stroke-linecap="round" stroke-linejoin="round" stroke-miterlimit="10" stroke-width="4.339"/><path d="M49.6,473.6S86,488.453,152.525,493.683" transform="translate(-25.229 -28.848)" fill="none" stroke="#b8aaeb" stroke-linecap="round" stroke-linejoin="round" stroke-miterlimit="10" stroke-width="4.339"/></g><g transform="translate(41.99 38.3)"><path d="M179.255,91.443c1.151-2.72,1.569-5.858.314-8.472-1.883-4.079-6.381-4.6-7.949-9.937-1.255-4.079.314-8.577,2.615-12.133" transform="translate(-35.328 -37.261)" fill="none" stroke="#ffed00" stroke-linecap="round" stroke-miterlimit="10" stroke-width="5.062"/><path d="M502.555,293.343c1.151-2.72,1.569-5.858.314-8.473-1.883-4.079-6.38-4.6-7.949-9.937-1.255-4.079.314-8.577,2.615-12.133" transform="translate(-20.461 -27.977)" fill="none" stroke="#ffed00" stroke-linecap="round" stroke-miterlimit="10" stroke-width="5.062"/><path d="M248.915,144.669c-1.255-1.778-2.51-3.661-2.615-5.753-.1-2.406,1.255-4.5,2.72-6.38a20.362,20.362,0,0,1,2.51-2.72c.732-.732,1.674-1.36,2.406-2.092,2.929-3.033,3.243-7.949,1.778-11.924" transform="translate(-31.874 -34.736)" fill="none" stroke="#ff6300" stroke-linecap="round" stroke-miterlimit="10" stroke-width="5.062"/><path d="M105.6,116.2a9.851,9.851,0,0,1,4.5,6.9,12.412,12.412,0,0,1-1.778,8.159,21.625,21.625,0,0,0-1.569,2.615,8.038,8.038,0,0,0,2.824,9.832" transform="translate(-38.343 -34.718)" fill="none" stroke="#690bd6" stroke-linecap="round" stroke-miterlimit="10" stroke-width="5.062"/><path d="M218.2,87.3a9.851,9.851,0,0,1,4.5,6.9,12.412,12.412,0,0,1-1.778,8.159,21.633,21.633,0,0,0-1.569,2.615,8.039,8.039,0,0,0,2.824,9.832" transform="translate(-33.166 -36.047)" fill="none" stroke="#690bd6" stroke-linecap="round" stroke-miterlimit="10" stroke-width="5.062"/><path d="M489.6,331.9a9.851,9.851,0,0,1,4.5,6.9,12.412,12.412,0,0,1-1.778,8.159,21.623,21.623,0,0,0-1.569,2.615,8.038,8.038,0,0,0,2.824,9.832" transform="translate(-20.686 -24.799)" fill="none" stroke="aqua" stroke-linecap="round" stroke-miterlimit="10" stroke-width="5.062"/><line x1="1.046" y1="19.246" transform="translate(90.268 42.781)" fill="none" stroke="aqua" stroke-linecap="round" stroke-miterlimit="10" stroke-width="5.062"/><line x1="0.941" y1="19.351" transform="translate(251.559 118.51)" fill="none" stroke="aqua" stroke-linecap="round" stroke-miterlimit="10" stroke-width="5.062"/><circle cx="4.393" cy="4.393" r="4.393" transform="translate(90.478 75.206)" fill="aqua"/><circle cx="4.393" cy="4.393" r="4.393" transform="translate(276.976 137.756)" fill="#ffed00"/><circle cx="4.393" cy="4.393" r="4.393" transform="translate(53.973 164.219)" fill="#ff6300"/><circle cx="4.916" cy="4.916" r="4.916" transform="translate(209.615 28.974)" fill="#690bd6"/><path d="M487.915,116.869c-1.255-1.778-2.51-3.661-2.615-5.753-.1-2.406,1.255-4.5,2.72-6.381a20.369,20.369,0,0,1,2.51-2.72c.732-.732,1.674-1.36,2.406-2.092,2.929-3.033,3.243-7.949,1.778-11.924" transform="translate(-20.884 -36.015)" fill="none" stroke="#ff6300" stroke-linecap="round" stroke-miterlimit="10" stroke-width="5.062"/><path d="M457.2,59.5a9.851,9.851,0,0,1,4.5,6.9,12.412,12.412,0,0,1-1.778,8.159,21.637,21.637,0,0,0-1.569,2.615,8.039,8.039,0,0,0,2.824,9.832" transform="translate(-22.175 -37.325)" fill="none" stroke="#690bd6" stroke-linecap="round" stroke-miterlimit="10" stroke-width="5.062"/><line x1="1.046" y1="19.351" transform="translate(421.531 224.991)" fill="none" stroke="aqua" stroke-linecap="round" stroke-miterlimit="10" stroke-width="5.062"/><circle cx="4.393" cy="4.393" r="4.393" transform="translate(448.308 198.946)" fill="#ffed00"/><circle cx="4.916" cy="4.916" r="4.916" transform="translate(459.605)" fill="#690bd6"/><path d="M71.915,353.869c-1.255-1.778-2.51-3.661-2.615-5.753-.1-2.406,1.255-4.5,2.72-6.38a20.362,20.362,0,0,1,2.51-2.72c.732-.732,1.674-1.36,2.406-2.092,2.929-3.033,3.243-7.949,1.778-11.924" transform="translate(-40.013 -25.117)" fill="none" stroke="#ff6300" stroke-linecap="round" stroke-miterlimit="10" stroke-width="5.062"/><path d="M41.3,296.5a9.851,9.851,0,0,1,4.5,6.9,12.412,12.412,0,0,1-1.778,8.159,21.63,21.63,0,0,0-1.569,2.615,8.038,8.038,0,0,0,2.824,9.832" transform="translate(-41.3 -26.427)" fill="none" stroke="#690bd6" stroke-linecap="round" stroke-miterlimit="10" stroke-width="5.062"/><path d="M55.7,202.2a9.851,9.851,0,0,1,4.5,6.9,12.412,12.412,0,0,1-1.778,8.159,21.629,21.629,0,0,0-1.569,2.615,8.038,8.038,0,0,0,2.824,9.832" transform="translate(-40.638 -30.763)" fill="none" stroke="#ffed00" stroke-linecap="round" stroke-miterlimit="10" stroke-width="5.062"/><circle cx="4.916" cy="4.916" r="4.916" transform="translate(19.384 289.993) rotate(-88.093)" fill="aqua"/><circle cx="4.916" cy="4.916" r="4.916" transform="translate(438.999 275.407)" fill="#690bd6"/></g><g transform="translate(430.154 195.511)"><path d="M476.706,393.53c17.677,0,33.89,1.987,45.814,6.59,6.171,2.3,18.618-19.56,14.33-23.848C525.972,365.5,503.17,361,476.706,361c-24.581,0-46.128,3.975-57.738,13.179-5.753,4.6,5.962,28.242,12.133,25.836C443.025,395.517,459.029,393.53,476.706,393.53Z" transform="translate(-412.169 -180.672)" fill="#ff6300"/><path d="M515.166,324.493l-3.975-45.082L473.536,274.6l-15.062,42.676a29.354,29.354,0,0,0,18.409,37.551l-2.3,27.823-16.736,11.3,38.911,4.916L483.263,383.8l4.707-27.509A29.252,29.252,0,0,0,515.166,324.493Z" transform="translate(-410.358 -184.645)" fill="aqua"/><circle cx="16.736" cy="16.736" r="16.736" transform="translate(47.801 76.671)" fill="#ffed00"/><path d="M508.77,308.725l-40.9-5.125-4.812,13.7a24.341,24.341,0,0,0,19.874,32.216h0a24.225,24.225,0,0,0,27.2-26.254Z" transform="translate(-410.134 -183.312)" fill="#690bd6"/><path d="M487.3,344.854s20.92-1.883,19.455-22.489-2.2-31.066-2.2-31.066" transform="translate(-408.956 -183.877)" fill="none" stroke="#fff" stroke-linecap="round" stroke-miterlimit="10" stroke-width="5"/><path d="M476.937,389.667c-25.836,0-48.22-4.5-58.47-15.167a26.838,26.838,0,0,0-6.067,16.527c0,21.547,28.869,30.02,64.537,30.02s64.537-8.473,64.537-30.02a27.067,27.067,0,0,0-6.067-16.527C525.157,385.169,502.773,389.667,476.937,389.667Z" transform="translate(-412.4 -180.052)" fill="#ff6300"/><path d="M429.4,381.9c11.715,5.125,28.346,7.427,46.755,7.427,15.794,0,30.124-1.674,41.421-5.335" transform="translate(-411.618 -179.711)" fill="none" stroke="#5200a9" stroke-linecap="round" stroke-linejoin="round" stroke-miterlimit="10" stroke-width="4.339"/><g transform="translate(67.989 0)"><path d="M477.4,188.6l37.028,19.664-25,113.28" transform="translate(-477.4 -188.6)" fill="none" stroke="#5200a9" stroke-linecap="round" stroke-linejoin="round" stroke-miterlimit="10" stroke-width="10"/><line x2="4.602" y2="2.51" fill="none" stroke="#ff6300" stroke-linejoin="round" stroke-width="10"/><line x2="13.075" y2="6.903" transform="translate(14.435 7.74)" fill="none" stroke="#ff6300" stroke-linejoin="round" stroke-width="10" stroke-dasharray="8.835 10.602"/><path d="M508.4,205.1l4.6,2.406-1.15,5.125" transform="translate(-475.974 -187.841)" fill="none" stroke="#ff6300" stroke-linejoin="round" stroke-width="10"/><line x1="18.619" y2="84.515" transform="translate(14.539 37.132)" fill="none" stroke="#ff6300" stroke-linejoin="round" stroke-width="10" stroke-dasharray="10.087 12.104"/><line x1="1.151" y2="5.125" transform="translate(12.029 127.819)" fill="none" stroke="#ff6300" stroke-linejoin="round" stroke-width="10"/></g></g></g></g></svg>