<svg xmlns="http://www.w3.org/2000/svg" viewBox="0 0 189.311 41.92"><g transform="translate(-29.106 -45.467)"><g transform="translate(29.106 45.467)"><g transform="translate(0 0)"><path d="M202.859,52.216l.724-4.286,1.445.259.894,4.941A15.887,15.887,0,0,0,202.859,52.216Z" transform="translate(-183.997 -47.663)" fill="#fff"/><path d="M235.227,298.813a11.667,11.667,0,0,1-2.454,3.631l3.906,4.548,1.517-1.583Z" transform="translate(-210.664 -271.311)" fill="#fff"/><path d="M104.793,339.7l-3.428-.686-.471,4.382,1.936.565Z" transform="translate(-93.102 -307.146)" fill="#fff"/><circle cx="1.063" cy="1.063" r="1.063" transform="translate(26.469 5.717)" fill="#fff"/><path d="M59.875,57.6c-.54-3.492-13.393-6.924-13.393-6.924l-2.8-5.212-1.334.116,1.6,22.091-8.1-1.1-1.31-5.726-.932.34.127,2.795-2.921-3.56-1.182.758,2.334,4.082-2.728-.636-.133,1.162,4.548,2.16L29.56,78.385l2.712.943,4.08-3.394,8.439,1.635,2.358,5.9,2.594-.707.118-6.6L51.4,74.32A5.657,5.657,0,0,0,52.717,70.6l-.174-7.24S60.269,60.148,59.875,57.6Zm-9.194,0a1.362,1.362,0,1,1,1.362-1.362A1.362,1.362,0,0,1,50.681,57.6Z" transform="translate(-29.106 -45.467)" fill="#fff"/></g><path d="M420.707,139.331l-1.429,3.64-.344-.078a21.773,21.773,0,0,0-4.46-.567c-2.168,0-3.11.692-3.474,2.553-.319,1.811.214,2.437,1.875,3.289l1.181.612c3.266,1.662,4.979,3.54,4.057,8.216-.861,4.6-3.136,6.474-7.853,6.474a24.767,24.767,0,0,1-6.906-1.005l-.406-.136,1.427-3.716.345.076c.191.042.413.1.66.156a19.568,19.568,0,0,0,4.577.683c2.524,0,3.466-.726,3.878-2.989.353-1.807.131-3.068-2.041-4.177l-1.212-.61c-3.051-1.589-4.652-3.336-3.825-7.572.778-3.847,3.363-5.8,7.684-5.8a21.277,21.277,0,0,1,5.87.8Zm19.466,5.976-4.615,13.073c-.367,1.076-.616,1.267-.828,1.282a3.082,3.082,0,0,1-.229-1.153l-.771-8.5.707-4.5h-4.011l-.972,4.349-4.02,8.466c-.383.748-.686,1.338-.916,1.338H424.5a3,3,0,0,1-.106-1.1l.418-13.252h-4.436l-.174,13.846c-.019,1.718.3,2.847,1,3.554a3.412,3.412,0,0,0,2.583.866c2.481,0,3.6-1.416,4.918-4.2l1.082-2.179c.3-.635.6-1.347.853-1.957.026.639.065,1.38.121,2.055l.168,1.9c.227,2.7.9,4.381,3.544,4.381,2.363,0,3.83-1.269,4.9-4.235l5.371-14.031Zm17.478,17.6a9.321,9.321,0,0,1-2.726.428,2.957,2.957,0,0,1-2.743-1.36,7.381,7.381,0,0,1-4.572,1.5,4.662,4.662,0,0,1-3.795-1.5c-1.188-1.435-1.446-3.812-.788-7.265,1.347-6.891,3.915-9.7,8.864-9.7a19.322,19.322,0,0,1,6.359,1.422l.311.127-2.289,11.836c-.178.929-.125,1.213-.049,1.287s.306.131,1.246-.069l.5-.107-.045,3.316Zm-10.212-8.082c-.434,2.216-.381,3.671.157,4.325a1.431,1.431,0,0,0,1.194.446,5.62,5.62,0,0,0,3-.948l1.822-9.462a7.313,7.313,0,0,0-2.057-.309C449.647,148.876,448.426,149.824,447.439,154.824Zm26.4-.646c-1.209,6.339-3.823,9.292-8.223,9.292a14.9,14.9,0,0,1-3.058-.341c-.081.532-.253,1.588-.585,3.3l-.673,3.387h-4.407l4.52-23.383.212-.082A17.162,17.162,0,0,1,467.87,145c2.547,0,4.2.567,5.2,1.784C474.269,148.234,474.518,150.652,473.835,154.178Zm-10.482,5.141a8.613,8.613,0,0,0,2.124.276c1.829,0,3.067-.912,3.98-5.574.454-2.4.4-3.841-.178-4.536a2.206,2.206,0,0,0-1.813-.609,6.742,6.742,0,0,0-2.169.338Zm-110.1-12.778c-1.059,5.54-3.611,7.7-9.1,7.7h-2.459l-1.719,8.926h-4.443l4.709-24.477h6.306c2.954,0,4.835.611,5.919,1.924C353.519,141.887,353.777,143.826,353.254,146.541ZM342.461,150.3h1.862c2.825,0,3.915-.95,4.485-3.91.309-1.527.246-2.489-.2-3.032-.409-.5-1.2-.723-2.568-.723h-2.089Zm23.52,9.309.5-.107-.045,3.316-.276.092a9.322,9.322,0,0,1-2.726.428,2.958,2.958,0,0,1-2.743-1.36,7.381,7.381,0,0,1-4.572,1.5,4.662,4.662,0,0,1-3.795-1.5c-1.188-1.435-1.446-3.812-.788-7.265,1.347-6.891,3.915-9.7,8.864-9.7a19.318,19.318,0,0,1,6.359,1.422l.311.127-2.289,11.836c-.178.929-.125,1.213-.049,1.287S365.04,159.805,365.98,159.6Zm-10.03-4.78c-.434,2.216-.381,3.671.157,4.325a1.431,1.431,0,0,0,1.194.446,5.619,5.619,0,0,0,3-.948l1.822-9.462a7.311,7.311,0,0,0-2.057-.309C358.158,148.876,356.938,149.824,355.951,154.824Zm23.16-5.476,1.352-3.871-.46-.094a21.127,21.127,0,0,0-3.757-.382c-3.66,0-6.309,1.1-7.347,6.476l-2.251,11.688h4.444l2.119-11.226c.428-2.188,1.177-2.927,2.968-2.927a14.746,14.746,0,0,1,2.58.263Zm5.6-.268H388.4l1.421-3.774h-4.378l.921-4.805-4.493.46L378.472,158.5c-.364,1.85-.228,3.084.429,3.882a4.079,4.079,0,0,0,3.277,1.054,12.232,12.232,0,0,0,3.994-.654l.223-.112.043-3.523-.484.081c-.043.007-.134.027-.258.055a11.088,11.088,0,0,1-2.034.313c-.205,0-.686,0-.795-.129-.042-.05-.127-.235-.016-.876Zm15.234-3.774-2.453,12.76a6.615,6.615,0,0,1-2.737.613,1.842,1.842,0,0,1-1.464-.446c-.338-.409-.377-1.223-.122-2.561l2.016-10.365h-4.443l-2.02,10.412h0c-.445,2.318-.183,4.083.778,5.247a5.135,5.135,0,0,0,4.176,1.588,8.06,8.06,0,0,0,3.221-.643l-.085.427c-.429,2.222-1.356,2.892-2.91,3.348a21.488,21.488,0,0,1-4.046.768l-.38.041.13,3.722,1.184-.166c1.453-.2,2.826-.391,4.021-.685,2.553-.586,5.291-1.856,6.244-6.838l3.331-17.221Z" transform="translate(-302.268 -128.296)" fill="#fff"/><path d="M202.859,52.216l.724-4.286,1.445.259.894,4.941A15.887,15.887,0,0,0,202.859,52.216Z" transform="translate(-183.997 -47.663)" fill="#fff"/><path d="M235.227,298.813a11.667,11.667,0,0,1-2.454,3.631l3.906,4.548,1.517-1.583Z" transform="translate(-210.664 -271.311)" fill="#fff"/><path d="M104.793,339.7l-3.428-.686-.471,4.382,1.936.565Z" transform="translate(-93.102 -307.146)" fill="#fff"/><circle cx="1.063" cy="1.063" r="1.063" transform="translate(26.469 5.717)" fill="#fff"/><path d="M59.875,57.6c-.54-3.492-13.393-6.924-13.393-6.924l-2.8-5.212-1.334.116,1.6,22.091-8.1-1.1-1.31-5.726-.932.34.127,2.795-2.921-3.56-1.182.758,2.334,4.082-2.728-.636-.133,1.162,4.548,2.16L29.56,78.385l2.712.943,4.08-3.394,8.439,1.635,2.358,5.9,2.594-.707.118-6.6L51.4,74.32A5.657,5.657,0,0,0,52.717,70.6l-.174-7.24S60.269,60.148,59.875,57.6Zm-9.194,0a1.362,1.362,0,1,1,1.362-1.362A1.362,1.362,0,0,1,50.681,57.6Z" transform="translate(-29.106 -45.467)" fill="#fff"/></g><path d="M1627.59,113.172l-2.254-2.743,9.122-8.253,3,3.648Z" transform="translate(-1422.949 -50.553)" fill="#ffed00"/><path d="M1567.435,58.732l-3.125-1.685,5.317-11.093,4.156,2.241Z" transform="translate(-1368.548 -0.434)" fill="#ff6300"/><path d="M1653.612,202.951l1.047,3.393,11.913-3.065-1.393-4.511Z" transform="translate(-1448.155 -136.658)" fill="aqua"/></g></svg>