<svg width="860.9999999999999" height="210" xmlns="http://www.w3.org/2000/svg" data-name="Layer 1">

 <g>
  <title>Layer 1</title>
  <path id="svg_16" fill="#fff" d="m94.5,22.81l3.62,-21.5l7.24,1.3l4.46,24.78a79.5,79.5 0 0 0 -15.32,-4.58z" class="cls-9"/>
  <path id="svg_17" fill="#fff" d="m123.06,137.78a58.46,58.46 0 0 1 -12.3,18.19l19.57,22.78l7.6,-7.93l-14.87,-33.04z" class="cls-9"/>
  <polygon id="svg_18" fill="#fff" points="58.56999969482422,163.07000732421875 41.400001525878906,159.63998413085938 39.040000915527344,181.58999633789062 48.73999786376953,184.41998291015625 58.56999969482422,163.07000732421875 " class="cls-9"/>
  <circle id="svg_19" fill="#fff" r="5.32" cy="33.96" cx="137.93" class="cls-9"/>
  <path id="svg_20" fill="#fff" d="m154.14,60.79c-2.7,-17.49 -67.09,-34.68 -67.09,-34.68l-14,-26.11l-6.69,0.58l8,110.67l-40.54,-5.53l-6.56,-28.68l-4.67,1.7l0.64,14l-14.67,-17.83l-5.92,3.79l11.69,20.45l-13.66,-3.19l-0.67,5.82l22.82,10.82l-20.54,52.31l13.59,4.72l20.43,-17l42.28,8.19l11.82,29.49l13,-3.54l0.59,-33.08l7.7,-9.19a28.37,28.37 0 0 0 6.61,-18.64l-0.88,-36.27s38.7,-16.04 36.72,-28.8zm-46,0a6.82,6.82 0 1 1 6.82,-6.82a6.82,6.82 0 0 1 -6.87,6.82l0.05,0z" class="cls-9"/>
  <path id="svg_21" fill="#fff" d="m593.34,55.31l-7.16,18.23l-1.72,-0.39a109.07,109.07 0 0 0 -22.35,-2.84c-10.86,0 -15.58,3.47 -17.4,12.79c-1.6,9.08 1.07,12.21 9.39,16.48l5.92,3.07c16.36,8.32 24.94,17.73 20.32,41.16c-4.31,23 -15.71,32.43 -39.34,32.43a124,124 0 0 1 -34.59,-5l-2,-0.68l7.15,-18.62l1.72,0.38l3.31,0.78c5.63,1.37 14.12,3.43 22.93,3.43c12.65,0 17.37,-3.64 19.43,-15c1.77,-9.05 0.66,-15.37 -10.23,-20.92l-6.07,-3.06c-15.28,-8 -23.3,-16.71 -19.16,-37.93c3.9,-19.28 16.85,-29 38.49,-29c11.24,0 24,2.09 29.41,4l1.95,0.69zm97.48,29.9l-23.12,65.5c-1.84,5.39 -3.09,6.34 -4.15,6.42c-0.28,-0.4 -0.74,-1.69 -1.14,-5.78l-3.87,-42.59l3.55,-22.52l-20.1,0l-4.87,21.78l-20.1,42.41c-1.91,3.75 -3.43,6.71 -4.58,6.71l-0.12,0c-0.35,-0.49 -0.53,-2.37 -0.53,-5.53l2.09,-66.39l-22.22,0l-0.84,69.36c-0.09,8.61 1.49,14.26 5,17.8c2.93,3 7,4.34 12.94,4.34c12.43,0 18.06,-7.09 24.64,-21l5.42,-10.95c1.51,-3.18 3,-6.75 4.27,-9.81c0.13,3.2 0.33,6.92 0.61,10.3l0.84,9.51c1.14,13.55 4.5,22 17.76,22c11.83,0 19.18,-6.35 24.55,-21.21l26.9,-70.3l-22.93,-0.05zm87.56,88.17a46.7,46.7 0 0 1 -13.66,2.15c-6.4,0 -11,-2.29 -13.74,-6.81c-5.66,3.72 -11.61,7.49 -22.91,7.49c-8.47,0 -14.87,-2.53 -19,-7.53c-5.95,-7.19 -7.24,-19.1 -3.95,-36.4c6.75,-34.52 19.62,-48.6 44.41,-48.6c10,0 23.49,3.7 31.86,7.13l1.55,0.64l-11.46,59.29c-0.89,4.66 -0.63,6.08 -0.25,6.45s1.53,0.66 6.25,-0.35l2.51,-0.54l-0.17,16.62l-1.44,0.46zm-51.16,-40.48c-2.17,11.1 -1.91,18.39 0.79,21.66c1.25,1.53 3.15,2.24 6,2.24a28.21,28.21 0 0 0 15,-4.75l9.13,-47.4a36.64,36.64 0 0 0 -10.31,-1.55c-9.51,0 -15.63,4.75 -20.57,29.8l-0.04,0zm132.23,-3.24c-6.06,31.76 -19.15,46.55 -41.2,46.55a74.37,74.37 0 0 1 -15.31,-1.71c-0.41,2.67 -1.27,7.95 -2.93,16.54l-3.37,17l-22.04,0l22.64,-117.14l1.06,-0.4c11.93,-4.62 21.88,-6.78 31.31,-6.78c12.76,0 21,2.84 26.07,8.94c5.99,7.22 7.24,19.34 3.81,37l-0.04,0zm-52.47,25.75a43,43 0 0 0 10.64,1.39c9.16,0 15.36,-4.57 19.94,-27.93c2.27,-12 2,-19.24 -0.89,-22.72c-1.73,-2.08 -4.61,-3 -9.09,-3a33.93,33.93 0 0 0 -10.87,1.69l-9.73,50.57zm-551.56,-64c-5.3,27.75 -18.08,38.56 -45.58,38.56l-12.32,0l-8.62,44.72l-22.25,0l23.59,-122.62l31.58,0c14.79,0 24.22,3.06 29.65,9.64c5.28,6.37 6.57,16.09 3.95,29.69l0,0.01zm-54.07,18.8l9.33,0c14.15,0 19.61,-4.76 22.47,-19.59c1.55,-7.65 1.23,-12.47 -1,-15.19c-2.05,-2.5 -6,-3.62 -12.87,-3.62l-10.46,0l-7.47,38.4zm117.83,46.63l2.52,-0.54l-0.23,16.62l-1.38,0.46a46.7,46.7 0 0 1 -13.66,2.15c-6.39,0 -11,-2.29 -13.74,-6.81c-5.65,3.72 -11.6,7.49 -22.9,7.49c-8.48,0 -14.88,-2.53 -19,-7.53c-5.95,-7.19 -7.25,-19.1 -3.95,-36.4c6.75,-34.52 19.61,-48.6 44.41,-48.6c9.95,0 23.48,3.7 31.85,7.13l1.56,0.64l-11.47,59.29c-0.89,4.66 -0.62,6.08 -0.24,6.45s1.52,0.66 6.23,-0.35zm-50.25,-23.94c-2.17,11.1 -1.9,18.39 0.79,21.66c1.26,1.53 3.16,2.24 6,2.24a28.18,28.18 0 0 0 15,-4.75l9.13,-47.4a36.56,36.56 0 0 0 -10.3,-1.55c-9.56,0 -15.67,4.75 -20.62,29.8zm116,-27.44l6.77,-19.39l-2.3,-0.47a105.26,105.26 0 0 0 -18.82,-1.92c-18.34,0 -31.61,5.52 -36.81,32.45l-11.25,58.55l22.3,0l10.62,-56.24c2.14,-11 5.89,-14.66 14.87,-14.66a72.85,72.85 0 0 1 12.92,1.32l1.7,0.36zm28,-1.34l18.47,0l7.12,-18.91l-21.86,0l4.61,-24.07l-22.45,2.31l-17,87.86c-1.82,9.27 -1.14,15.45 2.15,19.45c3.82,4.65 10.44,5.28 16.42,5.28c7.47,0 17.05,-1.79 20,-3.28l1.12,-0.56l0.21,-17.65l-2.42,0.4l-1.29,0.28a55.47,55.47 0 0 1 -10.19,1.57c-1,0 -3.44,0 -4,-0.65c-0.21,-0.25 -0.63,-1.18 -0.07,-4.39l9.18,-47.64zm76.31,-18.91l-12.28,63.93a33.18,33.18 0 0 1 -13.71,3.07c-3.69,0 -6.09,-0.74 -7.34,-2.24c-1.69,-2.05 -1.89,-6.13 -0.61,-12.83l10.1,-51.93l-22.19,0l-10.12,52.17l0,0c-2.23,11.61 -0.91,20.45 3.9,26.28c4.37,5.28 11.4,8 20.92,8a40.39,40.39 0 0 0 16.14,-3.22l-0.43,2.14c-2.14,11.13 -6.79,14.48 -14.57,16.77a107.66,107.66 0 0 1 -20.23,3.8l-1.9,0.21l0.65,18.64l5.93,-0.83c7.28,-1 14.16,-2 20.15,-3.43c12.78,-2.93 26.5,-9.3 31.28,-34.25l16.68,-86.28l-22.37,0z" class="cls-9"/>
 </g>
</svg>