<svg xmlns="http://www.w3.org/2000/svg" xmlns:xlink="http://www.w3.org/1999/xlink" width="575" height="501" viewBox="0 0 575 501"><defs><clipPath id="a"><rect width="575" height="501" transform="translate(0 -0.332)" fill="#fff"/></clipPath></defs><g transform="translate(0 0.332)" clip-path="url(#a)"><g transform="translate(0 -785.332)"><circle cx="81.273" cy="81.273" r="81.273" transform="translate(51.345 1018.05)" fill="#ffed00"/><circle cx="32.685" cy="32.685" r="32.685" transform="translate(306.998 855.538)" fill="aqua"/><circle cx="99.348" cy="99.348" r="99.348" transform="translate(332.638 1145.922)" fill="#ff6300"/><path d="M171.342,896.21l12.213-34.564a9.827,9.827,0,0,1,7.928-6.462l22.385-3.079a9.829,9.829,0,0,1,10.846,7.241l3.222,12.268A2.827,2.827,0,0,1,224.259,875l-7.026-2.485,3.453,31.172Z" fill="#a97261"/><path d="M217.233,872.512l-18.669-7.762a4.681,4.681,0,0,0-6.475,4.509l1.112,27.847" fill="none" stroke="#94503b" stroke-linecap="round" stroke-linejoin="round" stroke-width="1.326"/><path d="M177.779,1125.1s-52.977,3.863-86.992-39.355c-8.407,3.616-10.6,20.211,4.5,22.646-5.717,8.675-4.319,24.557,20.644,19.425-1.262,25.63,18.256,12.77,18.256,12.77,13.117,26.4,36.938,2.28,36.938,2.28Z" fill="#a97261"/><path d="M79.835,914,74.3,892.709c13.235-9.21-2.386-23.792-5.673-18.552-1.643,2.62,3.806,4.893,3.814,7.924.01,3.414-2.358,6.46-6.37,6.239-3.795-.209-5.651-4.677-4.969-6.811,1.262-3.944,6.585-4.809,6.334-7.507-.625-6.709-18.2,1.715-11.227,14.04-13.382.374-13.011-15.212-17.78-12.159s1.177,19.073,15.955,19.391c-5.306,6.382-10.509,1.462-11.524,5.267-.99,3.709,6.718,7.342,19.888-1.935l3.643,20.7Z" fill="#a97261"/><path d="M229.415,1027.677c25.386,2.974,68.3,65.064,68.3,65.064l69.21-5.3,1.8,18.1-82.632,21.24L198.3,1051.549S204.028,1024.7,229.415,1027.677Z" fill="#d03900"/><path d="M196.782,1021.933s-53.008-23.407-61.134,1.544-6.846,48.587,13.731,58.761,47.4-15.291,47.4-15.291Z" fill="#d03900"/><path d="M248.505,1117.911c0,27.553-18.826,34.32-46.379,34.32s-53.4-6.767-53.4-34.32a49.889,49.889,0,1,1,99.778,0Z" fill="#070117"/><path d="M144.946,1139.535s-42.858,141.184,49.447,320.755l21.874-7.485c-48.864-158.054-40.653-240.228-28.48-278.838,6.8-21.585,46.1-35.352,46.1-35.352Z" fill="#070117"/><path d="M242.089,1121.647s35.062,13.462,79.306,87.172c34.589,57.627,11.588,132.967-6.878,183.627L288.43,1383c14.328-50.068,30.219-104.872,3.091-142.88-53.955-75.6-100.079-85.224-100.079-85.224Z" fill="#070117"/><path d="M144.858,1141.11s55.491,16.826,108-13.874c9.4-12.531-3.811-26.574-7.073-41.392-5.8-26.35-3.83-59.609-19.337-58.119l-64.582,4.21a18.241,18.241,0,0,0-18.8,17.966l2.693,53.449S134.357,1132.01,144.858,1141.11Z" fill="#ff6300"/><path d="M162.983,1029.208C85.144,994.086,79.929,898.555,79.929,898.555l-21.87,3.817s-.7,126.373,85.811,166.506C170.193,1048.433,162.983,1029.208,162.983,1029.208Z" fill="#ff6300"/><path d="M61.641,901.111l3.548.463L72.7,856.392l-6.707-.876Z" fill="#fff"/><path d="M65.339,872.347l3.662.478s32.455-1.194,36.156-24.833l-68.339-9.279C34.851,860.246,65.339,872.347,65.339,872.347Z" fill="#fff"/><path d="M66.6,867.674c-3.312-1.438-21.788-10.014-24.693-23.428l57.138,7.759c-6.03,13.881-26.869,15.8-29.872,16.005Z" fill="#fff"/><path d="M43.239,909.618l36.007,4.59L65.735,898.751l-3.9-.509Z" fill="#fff"/><path d="M65.195,862.544" fill="none" stroke="#070117" stroke-linecap="round" stroke-linejoin="round" stroke-width="1.326"/><path d="M55.908,835.28a9.565,9.565,0,0,0-1.9-4.023c-1.057-1.063-3.05-1.366-3.966-.179a6.227,6.227,0,0,0-.736,2.559c-.2.876-.844,1.832-1.735,1.734-1.034-.114-1.36-1.441-1.411-2.48-.273-5.511-.182-11.375-3.1-16.06-.918-1.476-2.382-2.894-4.115-2.754a3.815,3.815,0,0,0-2.959,2.3,9.475,9.475,0,0,0-.691,3.834c-.244,10.484,3.67,20.685,8.982,29.727,1.35,2.3,2.876,4.624,5.161,6a14.992,14.992,0,0,0,5.966,1.726,51.447,51.447,0,0,0,9,.306,10.61,10.61,0,0,0,3.528-.637,26.563,26.563,0,0,0,3.689-1.92c1.479-.928.716-.954-.807-1.818a32.732,32.732,0,0,1-14.9-18.309Z" fill="#fff"/><path d="M46.921,802.585a5.123,5.123,0,0,1,.412-1.983,4.009,4.009,0,0,1,3.752-1.865,4.114,4.114,0,0,1,1.677.347,3.737,3.737,0,0,1,1.889,2.411,7.367,7.367,0,0,1,.064,3.133c-.438,2.732-1.643,5.282-2.272,7.976a42.913,42.913,0,0,0-.8,7.348c-.029.52-.241,1.209-.76,1.167-.37-.03-.571-.434-.7-.781C48.039,814.613,46.433,808.773,46.921,802.585Z" fill="#fff"/><path d="M219.653,1032.513c-14.92-25.673-64.478-16.663-64.478-16.663l-3.77,4.711s1.512,41.867,55.214,33.272C229.119,1050.232,223.442,1039.032,219.653,1032.513Z" fill="#d03900"/><path d="M216.787,1038.66c-15.276,15.277-45.122,4.495-45.122,4.495V968.87l34.754,3.792Z" fill="#a97261"/><path d="M171.665,1034.116a260.425,260.425,0,0,0,44.45.264l-9.7-61.718-34.754-3.792Z" fill="#94503b"/><path d="M160.628,895.873c39.443-15.088,62.834,1.056,81.515,20.57a84.407,84.407,0,0,1,15.08,22.051l-5.564-2.573L199,972.59l29.887,32.87,25.51-16.34c-5.339,7.12-13.416,13.846-25.054,19.738-54.317,27.494-95.762,30.332-111.55-10.938S121.185,910.962,160.628,895.873Z" fill="#a97261"/><path d="M197.572,926.5c-1.991-1.316-3.278-3.54-5.348-4.727-2.625-1.506-5.989-1.015-8.722.284a10.293,10.293,0,0,0-5.639,5.8c-1.17,3.676.582,8.115-1.575,11.313-1.1,1.627-7.325,6.732-4.448,14.255s9.437,7.1,13.675,7.518c7.8.762,18.147-2.13,22.745-8.86,3.335-4.884,2.292-14.4-.51-19.029C204.641,927.913,202.209,929.561,197.572,926.5Z" fill="#94503b"/><path d="M274.856,967.25c-33.514,23.673-49.093,30.475-68.706-2.294L191.2,971.138c15.341,40.1,31.313,41.077,31.313,41.077S283.086,988.765,274.856,967.25Z" fill="#94503b"/><path d="M254.073,941.489c1.257,13.568-23.554,39.094-62.87,29.649-4.79-18.233,16.441-26.519,16.363-38.29,10.01,11.7,52.722-12.375,52.722-12.375s10.6,4.219,14.116,21.239C272.387,943.947,263.561,952.414,254.073,941.489Z" fill="#94503b"/><path d="M208.761,908.6s3.846-6.974,11.632-5.661" fill="none" stroke="#070117" stroke-linecap="round" stroke-miterlimit="10" stroke-width="2.211"/><circle cx="4.56" cy="4.56" r="4.56" transform="translate(189.649 936.314)" fill="#070117"/><circle cx="4.56" cy="4.56" r="4.56" transform="translate(214.749 922.759)" fill="#070117"/><path d="M231.127,937.829l20.6,3.139a2.007,2.007,0,0,0,2.149-1.2l7.633-17.937a2.015,2.015,0,0,0-2.45-2.708c-14.8,4.617-24.361,11.373-28.924,15.183A2,2,0,0,0,231.127,937.829Z" fill="#070117"/><path d="M274.4,941.712s-9.08,11.841-20.331-.223c-3.69,30.521-53.784,37.6-62.87,29.649" fill="none" stroke="#070117" stroke-linecap="round" stroke-linejoin="round" stroke-width="1.326"/><path d="M218.3,1042.595s5.381,15.672,23.234,1.109c13.511-11.021,24.082-2.558,24.082-2.558" fill="none" stroke="#ffede2" stroke-linecap="round" stroke-linejoin="round" stroke-width="1.326"/><path d="M186.168,1050.462c.376,3.041.69,6.372-.978,8.942-1.125,1.733-2.981,2.83-4.451,4.279a15.662,15.662,0,0,0-4.185,8.763,34.316,34.316,0,0,0,.164,9.84" fill="none" stroke="#ffede2" stroke-linecap="round" stroke-linejoin="round" stroke-width="1.326"/><path d="M208.6,1049.9s15.1,38.793,17.849,89.634" fill="none" stroke="#d03900" stroke-linecap="round" stroke-linejoin="round" stroke-width="1.326"/><path d="M207.613,1408.416s-25.561,1.5-36.714,12.752c0,0,14.38,23.425,19.507,41.221s-22.063,10.342-22.063,28.044h26.389c7.957,0,32.264-18.052,32.264-18.052a49.291,49.291,0,0,0-8.262-17.405Z" fill="#ffed00"/><path d="M293.95,1341.521s25.582-1.081,37.81,9c0,0-11.951,24.752-15.263,42.973s22.992,8.071,24.772,25.683c0,0-34.07,9.045-60.171-12.062,0-10.195,6.47-18.148,6.47-18.148Z" fill="#ffed00"/><path d="M213.981,1474.019s-13.841,9.241-17.644,10.826-26.584-.456-26.584-.456" fill="none" stroke="#070117" stroke-linecap="round" stroke-linejoin="round" stroke-width="1.326"/><path d="M341.269,1412.25s-25.5,9.813-51.481-7.794" fill="none" stroke="#070117" stroke-linecap="round" stroke-linejoin="round" stroke-width="1.326"/><path d="M257,979.083s-23.428-4.548-33.146,9.541c-6.382,9.253-7.429,34.042,8.527,29.975,14.255-3.635,3.79-15.858,6.888-23.623S257,979.083,257,979.083Z" fill="#ff63c7"/><path d="M143.744,912.741,108.9,901.362a9.83,9.83,0,0,0-9.955,2.349L82.859,919.583a9.829,9.829,0,0,0-.868,13.012l7.764,10.03a2.827,2.827,0,0,0,4.923-.853l2.312-7.085L119.6,956.42Z" fill="#a97261"/><path d="M96.99,934.687l5.221-19.533a4.682,4.682,0,0,1,7.521-2.386l21.4,17.85" fill="none" stroke="#94503b" stroke-linecap="round" stroke-linejoin="round" stroke-width="1.326"/><circle cx="11.781" cy="11.781" r="11.781" transform="translate(183.785 924.958)" fill="#070117"/><path d="M215.758,925.848l-12.69,6.052-14.975,7.567-37.519,8.842-6.307,7.158" fill="none" stroke="#070117" stroke-linecap="round" stroke-linejoin="round" stroke-width="1.326"/><circle cx="11.781" cy="11.781" r="11.781" transform="translate(211.429 910.935)" fill="#070117"/><path d="M194.748,924.993a11.788,11.788,0,0,1,7.851,2.3l-.45,19.2a11.6,11.6,0,0,1-7.95,1.936Z" fill="#fff"/><path d="M189.452,926.67a11.872,11.872,0,0,1,2.073-1c.278-.1.559-.179.839-.258l-.527,22.493a11.834,11.834,0,0,1-2.849-1.408Z" fill="#fff"/><path d="M222.033,911.005a11.782,11.782,0,0,1,7.858,2.018l-.462,19.7a11.8,11.8,0,0,1-7.943,1.65Z" fill="#fff"/><path d="M216.732,912.887a11.779,11.779,0,0,1,2.438-1.238c.158-.058.318-.1.477-.147l-.522,22.257a11.867,11.867,0,0,1-2.846-1.516Z" fill="#fff"/><path d="M197.335,920.747s-4.414,6.629-12.063,4.671" fill="none" stroke="#070117" stroke-linecap="round" stroke-miterlimit="10" stroke-width="2.211"/><path d="M286.968,1022.494c6.416-20.253,7.825-40.492,22.034-54,13.642-12.965,38.013-5.386,59.777-.656s37.62,5.893,44.65,23.35c7.322,18.185.9,24.491-1.424,58.477-2.572,37.581-20.489,135.762,5.338,141.375-8.057,37.071-30.382,55.4-105.56,39.06s-69.442-66.739-52.007-121.775Z" fill="#fff"/><path d="M291.966,1220.579s2.748,4.68,1.267,23.568l-71.347-17.86c1.553-19.809,35.224-6.052,49.8-13.574C285.7,1221.858,291.966,1220.579,291.966,1220.579Z" fill="#ff6300"/><line x1="6.719" y1="12.011" transform="translate(260.786 1212.03)" fill="none" stroke="#fff" stroke-linecap="round" stroke-linejoin="round" stroke-width="5"/><line x1="4.542" y1="12.133" transform="translate(250.123 1211.915)" fill="none" stroke="#fff" stroke-linecap="round" stroke-linejoin="round" stroke-width="5"/><rect width="79.59" height="11.947" rx="4.994" transform="translate(293.332 1253.273) rotate(-165.946)" fill="#fff"/><path d="M357.922,1223.757s-1.567,5.2,4.329,23.2l65.119-34.189c-6.183-18.883-35.658,2.43-51.6-1.441C364.31,1223.522,357.922,1223.757,357.922,1223.757Z" fill="#ff6300"/><line y1="13.257" x2="3.695" transform="translate(382.509 1208.094)" fill="none" stroke="#fff" stroke-linecap="round" stroke-linejoin="round" stroke-width="5"/><line y1="12.862" x2="1.551" transform="translate(394.989 1205.466)" fill="none" stroke="#fff" stroke-linecap="round" stroke-linejoin="round" stroke-width="5"/><rect width="79.59" height="11.947" rx="4.994" transform="translate(358.754 1245.272) rotate(-27.7)" fill="#fff"/><path d="M406.015,1056.788c26.182,42.049,56.782,34.08,60.028,50.468s-33.736,28.537-94.639-10.539Z" fill="#fff"/><path d="M384.248,971.089c-22.178-4.82-18.384-30.683-28.177-33.128-6.247-1.559-8.7,9.646-8.7,9.646s-16.246-36.524-32.239-29.059c-17.454,8.146.713,38.71.713,38.71s-6.579-7.481-12.823-3.822c-10.376,6.082,13.627,24.243,13.627,24.243Z" fill="#fff"/><path d="M260.928,1092.007c7.94-13.737,26.316-69.734,31.051-91.522s15.594-26.657,26.66-27.81c18.839-1.963,22.6,14.119,24.935,20.112,1.7,4.351,6.173,5.675,9.795,2.936,10.068-7.613,13.689-11.116,23.384-9.009,11.844,2.574,18.2,8,7.889,55.434-9.025,41.525,1.154,130.505-26.8,168.948s-115.909,4.657-118.763-31.748C236.277,1143.55,249.138,1112.406,260.928,1092.007Z" fill="#fff"/><path d="M381.324,1002.134s-5.2-5.863-12.391-2.918" fill="none" stroke="#070117" stroke-linecap="round" stroke-miterlimit="10" stroke-width="7"/><circle cx="4.487" cy="4.487" r="4.487" transform="translate(358.935 1017.859)" fill="#070117"/><circle cx="4.487" cy="4.487" r="4.487" transform="translate(316.84 1006.334)" fill="#070117"/><path d="M371.4,1024.5l-12.47-4.645-30.417-9.987-16.06-4.487,20.576-5.612s30.228,14.263,30.389,14.148S371.4,1024.5,371.4,1024.5Z" fill="#fff"/><path d="M316.839,994.969s5.2,5.863,12.392,2.917" fill="none" stroke="#070117" stroke-linecap="round" stroke-miterlimit="10" stroke-width="7"/><circle cx="7.918" cy="7.918" r="7.918" transform="translate(319.677 1060.562)" fill="#ff6300"/><path d="M326.7,1064.768s-16.785-18.735-22.1-13.853-.891,11.707-.891,11.707-9.192,2.473-5.647,9.009,25.91-1.54,25.91-1.54Z" fill="#ff6300"/><path d="M329.483,1072.973s16.785,18.736,22.1,13.854.89-11.708.89-11.708,9.193-2.473,5.648-9.008-25.91,1.54-25.91,1.54Z" fill="#ff6300"/><circle cx="12.453" cy="12.453" r="12.453" transform="translate(355.878 1010.824)" fill="none" stroke="#ffed00" stroke-linecap="round" stroke-linejoin="round" stroke-width="2"/><circle cx="12.453" cy="12.453" r="12.453" transform="translate(305.633 997.436)" fill="none" stroke="#ffed00" stroke-linecap="round" stroke-linejoin="round" stroke-width="2"/><path d="M330.407,1011.7a40.731,40.731,0,0,1,26.335,7.017" fill="none" stroke="#ffed00" stroke-linecap="round" stroke-linejoin="round" stroke-width="2"/><line x2="30.032" y2="8.002" transform="translate(380.365 1026.484)" fill="none" stroke="#ffed00" stroke-linecap="round" stroke-linejoin="round" stroke-width="2"/><path d="M317.854,1025.614c-2.161,7.618-2.322,23.5,14.689,29.262s25.665-9.589,27.825-17.208-5.606-16.493-17.346-19.822S320.014,1017.995,317.854,1025.614Z" fill="#ff6300"/><path d="M351.444,1029.246s-14.941-6.706-26.183-7.424c0,0-9.435,21.859,5.3,28.437S351.444,1029.246,351.444,1029.246Z" fill="#070117"/><path d="M478.95,1107.324l-2.874-36.238-30.221-4.106-12.436,34.159a23.516,23.516,0,0,0,14.5,30.3l-2.025,22.331-13.555,8.93,31.223,4.241-10.682-12.222,4.005-22.062A23.517,23.517,0,0,0,478.95,1107.324Z" fill="#fff"/><circle cx="13.395" cy="13.395" r="13.395" transform="translate(433.522 1056.335)" fill="#ff6300"/><path d="M474.054,1095.692l-32.814-4.457-4.006,11a19.491,19.491,0,0,0,15.692,25.982h0a19.491,19.491,0,0,0,22.054-20.855Z" fill="#ffed00"/><path d="M457.743,1100.551l7.893-25.218,6.408-.965-4.4-7.182,7.516-.01-4.551-6.976,3.506-11.9" fill="none" stroke="#ff6300" stroke-linecap="round" stroke-linejoin="round" stroke-width="3.544"/><path d="M477.248,1085.857s-8.892-2.05-12.575,8.376,14.983,18.777,11.334,26.473c0,0,7.62-6.151,8.96-19.465S477.248,1085.857,477.248,1085.857Z" fill="#fff"/></g></g></svg>