<svg xmlns="http://www.w3.org/2000/svg" xmlns:xlink="http://www.w3.org/1999/xlink" width="575" height="501" viewBox="0 0 575 501"><defs><clipPath id="a"><rect width="575" height="501" fill="#fff"/></clipPath></defs><g clip-path="url(#a)"><circle cx="81.273" cy="81.273" r="81.273" transform="translate(51.345 232.718)" fill="#ffed00"/><circle cx="32.685" cy="32.685" r="32.685" transform="translate(306.998 70.207)" fill="aqua"/><circle cx="99.348" cy="99.348" r="99.348" transform="translate(332.638 360.59)" fill="#ff6300"/><path d="M213.106,112.237l16.988-29.349a9.092,9.092,0,0,1,8.309-4.527l20.878,1.011a9.093,9.093,0,0,1,8.629,8.43l.842,11.7a2.616,2.616,0,0,1-3.92,2.451L258.866,98.5,256.7,127.432Z" fill="#a97261"/><path d="M258.866,98.5,243.213,88.265a4.331,4.331,0,0,0-6.655,3l-3.729,25.509" fill="none" stroke="#94503b" stroke-linecap="round" stroke-linejoin="round" stroke-width="3"/><path d="M225.831,326.488s-47.572,12.3-85.7-21.385c-7.052,4.685-6.3,20.152,7.85,19.864-3.763,8.842.144,23.064,22.01,14.253,3.1,23.534,18.732,8.593,18.732,8.593,16.317,21.846,33.995-4.053,33.995-4.053Z" fill="#a97261"/><path d="M226.01,229.444s-52.124-12.508-55.381,11.547,1.83,45.353,22.244,51.2,40.6-21.78,40.6-21.78Z" fill="#d03900"/><path d="M247.207,231.488l131.361-45.661,8.284,14.691-129.99,63.755Z" fill="#d03900"/><path d="M98.241,148.753l-4.088-15.217s3.473-7.415,3.42-11.288-2.8-.571-2.8-.571,6.762-16.468-11.6-9.968c-16.529,5.851-15.223,18.558-2.178,23.9l4.316,19.2Z" fill="#a97261"/><path d="M289,308.21c4.571,25.075-11.439,34.356-36.514,38.927s-49.719,2.7-54.29-22.375A46.15,46.15,0,0,1,289,308.21Z" fill="#070117"/><path d="M259.1,320.953s108.962-64.027,127.8-55.982,31.672,43.846,48.223,88.583l-17.678,10.061c-15.246-29.248-30.46-51.257-35.509-59.632-1.166-1.934-3.572-2.266-5.6-1.269C308.12,336.27,254.035,357.66,258.573,395.22,226.013,385.2,259.1,320.953,259.1,320.953Z" fill="#070117"/><path d="M255.553,327.741s11.335,167.952-7.194,176.686-65.614-9.711-110.045-27.066l4.226-19.9c31.988,8.038,68.326,10.151,77.94,11.942,2.219.413,5.021-1.111,4.667-3.341-12.224-76.974-18.8-121.509-18.8-121.509Z" fill="#070117"/><path d="M173.171,460.179s-1.139,23.658-11.443,34.083c0,0-21.807-13.076-38.317-17.647s-9.354,20.508-25.729,20.679c0,0-5.49-32.143,16.134-54.429,9.393.851,16.18,7.475,16.18,7.475Z" fill="#ffed00"/><path d="M104.061,497.871s-6.913-24.315,11.475-46.778" fill="none" stroke="#070117" stroke-linecap="round" stroke-linejoin="round" stroke-width="3"/><path d="M205.5,347.148s46.315,5.476,89.01-31.174c6.474-12.963-7.876-23.552-13.3-36.5-9.65-23.018-13.374-53.612-27.239-49.684l-58.076,14.544a16.876,16.876,0,0,0-14.125,19.469l15.779,49.338S194.436,340.608,205.5,347.148Z" fill="#ff6300"/><path d="M196.457,241.672C119.792,222.621,99.2,136.547,99.2,136.547l-19.269,7.1S102.909,260.231,188.3,282.4C208.865,259.43,196.457,241.672,196.457,241.672Z" fill="#ff6300"/><path d="M248.578,235.278c-17.837-20.888-61.443-4.468-61.443-4.468l-2.649,4.913s8.321,37.851,55.768,21.12C260.133,249.834,253.108,240.583,248.578,235.278Z" fill="#d03900"/><path d="M246.99,241.349c-11.368,16.436-40.319,11.575-40.319,11.575l-12.323-67.6,32.258-2.314Z" fill="#a97261"/><path d="M205.172,244.7a241.013,241.013,0,0,0,40.5-7.134l-19.062-54.559-32.258,2.314Z" fill="#94503b"/><path d="M203.422,110.107c38.432-7.006,56.952,11.655,70.617,32.579A78.045,78.045,0,0,1,284,165.3l-4.62-3.286L225.256,186.4l21.581,34.974,25.976-10.514c-6.067,5.565-14.555,10.306-26.141,13.682-54.068,15.754-92.236,11.28-99.566-28.933S164.99,117.113,203.422,110.107Z" fill="#a97261"/><path d="M249.268,134.612c-1.587-1.536-2.378-3.777-4.059-5.209-2.13-1.816-5.273-1.942-7.979-1.226a9.521,9.521,0,0,0-6.114,4.313c-1.689,3.143-.852,7.477-3.358,10.019-1.274,1.292-7.806,4.874-6.47,12.2s7.371,8.065,11.154,9.163c6.961,2.02,16.863,1.153,22.189-4.185,3.864-3.872,2.954-10.261,2.22-15.211C256,138.769,252.962,138.188,249.268,134.612Z" fill="#94503b"/><path d="M295.135,194.45c-34.5,15.821-49.825,19.354-62.081-13.78l-14.643,3.076c7.123,39.076,21.48,42.681,21.48,42.681S298.957,215.414,295.135,194.45Z" fill="#94503b"/><path d="M280.623,167.489c-1.166,12.552-28.07,31.538-62.212,16.257-1.252-17.394,19.463-21.313,21.4-32.029,7.11,12.342,50.045-2.279,50.045-2.279s8.923,5.642,9.219,21.715C296.857,172.841,287.39,179.038,280.623,167.489Z" fill="#94503b"/><path d="M231.125,131.6s4.465-5.861,11.412-3.6" fill="none" stroke="#070117" stroke-linecap="round" stroke-miterlimit="10" stroke-width="5"/><path d="M257.192,124.651s4.684-5.687,11.54-3.167" fill="none" stroke="#070117" stroke-linecap="round" stroke-miterlimit="10" stroke-width="5"/><circle cx="4.218" cy="4.218" r="4.218" transform="translate(244.234 140.492)" fill="#070117"/><circle cx="4.218" cy="4.218" r="4.218" transform="translate(269.365 132.439)" fill="#070117"/><path d="M260.383,160.256l18.2,6.361a1.857,1.857,0,0,0,2.158-.724l9.993-15.01a1.864,1.864,0,0,0-1.766-2.88,78.292,78.292,0,0,0-28.885,8.882A1.855,1.855,0,0,0,260.383,160.256Z" fill="#070117"/><path d="M299.071,171.153s-10.271,9.221-18.448-3.664c-8.55,27.124-55.3,25.036-62.212,16.257" fill="none" stroke="#070117" stroke-linecap="round" stroke-linejoin="round" stroke-width="3"/><path d="M249.019,244.678s7.5,13.371,21.328-2.844c10.468-12.272,21.492-6.323,21.492-6.323" fill="none" stroke="#ffede2" stroke-linecap="round" stroke-linejoin="round" stroke-width="3"/><path d="M221.082,257.168c.847,2.7,1.686,5.684.594,8.3-.736,1.763-2.243,3.069-3.341,4.632a14.483,14.483,0,0,0-2.355,8.669,31.709,31.709,0,0,0,1.782,8.928" fill="none" stroke="#ffede2" stroke-linecap="round" stroke-linejoin="round" stroke-width="3"/><path d="M241.4,252.936s20.18,32.8,31.113,78.612" fill="none" stroke="#d03900" stroke-linecap="round" stroke-linejoin="round" stroke-width="3"/><path d="M399.125,338.919s18.438-14.868,33.076-14.093c0,0,4.716,24.985,12.269,40.362s21.542-6.635,32.549,5.49c0,0-20.375,25.459-51.4,24.1-5.605-7.585-5.164-17.058-5.164-17.058Z" fill="#ffed00"/><path d="M473.213,365.526s-13.58,21.322-42.585,22.5" fill="none" stroke="#070117" stroke-linecap="round" stroke-linejoin="round" stroke-width="3"/><circle cx="10.898" cy="10.898" r="10.898" transform="translate(231.48 136.039)" fill="#070117"/><circle cx="10.898" cy="10.898" r="10.898" transform="translate(258.877 127.573)" fill="#070117"/><path d="M262.491,140.163,249.975,143.7l-14.837,4.559-35.59,2.2L192.68,156" fill="none" stroke="#070117" stroke-linecap="round" stroke-linejoin="round" stroke-width="3"/><path d="M243.469,136.1a10.908,10.908,0,0,1,6.8,3.324l-3.411,17.438a10.729,10.729,0,0,1-7.551.522Z" fill="#fff"/><path d="M238.378,136.8a11.005,11.005,0,0,1,2.046-.586c.27-.049.537-.076.805-.1l-4,20.427a10.954,10.954,0,0,1-2.378-1.729Z" fill="#fff"/><path d="M270.532,127.61a10.893,10.893,0,0,1,6.849,3.067l-3.5,17.89a10.919,10.919,0,0,1-7.5.263Z" fill="#fff"/><path d="M265.4,128.5a10.951,10.951,0,0,1,2.416-.748c.153-.027.3-.038.458-.059L264.325,147.9a10.968,10.968,0,0,1-2.358-1.828Z" fill="#fff"/><path d="M301.372,180.67c-12.8,1.1-36.857,15.481-49.572,24.309,10.193,3.517,23.635-1.5,43.335-10.529,7.66,1.066,15.791,13.56,25.24,3.766C330.95,187.253,311.732,179.777,301.372,180.67Z" fill="#ff63c7"/><path d="M185.2,122.57l-29.749-16.277a9.091,9.091,0,0,0-9.452.44l-17.324,11.695a9.094,9.094,0,0,0-3,11.684l5.352,10.441a2.615,2.615,0,0,0,4.622.062l3.308-6.049,16.86,23.61Z" fill="#a97261"/><path d="M138.951,134.566l8.072-16.871a4.331,4.331,0,0,1,7.245-.889l16.421,19.873" fill="none" stroke="#94503b" stroke-linecap="round" stroke-linejoin="round" stroke-width="3"/><path d="M49.493,148.294c-8.616-4.257-7.339-13.781-7.339-13.781l61.712-31.758,21.672-10.163L238.294,33.577l4.42,8.3L133.906,100.427,110.344,114.78Z" fill="#ff6300"/><path d="M161.551,73.17l-79.923,39.3,1.766,5.878,24.128-9.8L85.854,122.969l4.693,5.505,78.2-48.466Z" fill="#fff"/><path d="M208.465,48.144,134.072,85.562l1.131,5.705,28.807-12.292L132.618,96.6l3.911,5.692L213.891,56.4Z" fill="aqua"/><path d="M238.294,33.577,182.063,58.986l1.92,6.389L211.56,53.14l-25.732,15.7,2.583,4.85,54.3-31.813Z" fill="#ffed00"/><path d="M238.294,33.577l-1.232-10.695,5.563-.143,1.434,8.053,8.489-5.672,2.6,7.25L248.1,38.482l8.2,3.4-3.7,6.458-9.887-6.465Z" fill="#ffed00"/><path d="M238.294,33.577l8.727-8.166,3.7,3.1-4.511,4.825,9.753-2.679.938,7.533L248,39.839l4.962,3.227-4.145,5.655-6.1-6.844Z" fill="#ff6300"/><path d="M68.638,118.315l17.545-15.481a3.2,3.2,0,0,1,5.081,1.189l5.227,12.792-4.4,2.28L86,114.2l-1,10.092L73.966,129.58l-5.671-6.818A3.2,3.2,0,0,1,68.638,118.315Z" fill="#94503b"/><path d="M376.347,194.061s-9.2-9.551-7.243-13.073,7.551,2.307,7.551,2.307l6.487-16.535a1.511,1.511,0,0,1,1.153-.938h0a1.512,1.512,0,0,1,1.761,1.634l-2.042,10.782,2.891-5.732a6.124,6.124,0,0,1,9.187-2.3l2.448,1.816a6.125,6.125,0,0,1,1.621,8.039s-6.481,13.85-11.853,17.081S376.347,194.061,376.347,194.061Z" fill="#a97261"/><path d="M94.153,133.536s8.9-12.649,7.718-16.994-19.606-1.309-19.606-1.309c-.912,5.594,8.754,5.139,8.754,5.139s-5.927,3.647-3.556,14.863" fill="#a97261" stroke="#94503b" stroke-linecap="round" stroke-linejoin="round" stroke-width="2"/><path d="M437.857,351.419c32.173,7.756,44.813-27.38,53.777-48.75,4.453-10.615,7.24-6.594,11.822-3.473,5.75,3.916,7.158,14.122,4.449,31.92-4.527,29.736-25.387,64.366-66.712,73.04Z" fill="#fff"/><path d="M523.01,349.754c-4.39,7.257-12.67,5.418-12.67,5.418l-23.287-56.655L479.744,278.7,436.325,175.107l7.63-3.262,43.308,100.082,10.851,21.8Z" fill="#ff6300"/><path d="M465.373,245.568,493.926,318.8l5.3-1.111-6.808-21.954,11.055,20.138,5.194-3.713-36.74-72.412Z" fill="#fff"/><path d="M446.893,202.433,474.2,270.663l5.1-.566-8.644-26.256,13.143,28.931,5.3-3.012-34.541-71.478Z" fill="aqua"/><path d="M436.325,175.107l18.117,51.357,5.762-1.208-8.685-25.17,11.87,23.808,4.459-1.907-23.893-50.143Z" fill="#ffed00"/><path d="M436.325,175.107l-9.5.279.292-4.9,7.189-.656-4.349-7.891,6.571-1.737,4.845,6.655,3.608-6.955,5.4,3.736-6.429,8.208Z" fill="#ffed00"/><path d="M436.325,175.107l-6.525-8.288,3.006-3.022,3.9,4.329-1.622-8.778,6.7-.258.779,7.954,3.21-4.121,4.661,4.07-6.477,4.85Z" fill="#ff6300"/><path d="M454.447,316.742c3.043-21.025,10.588-39.859,3.677-58.2-6.634-17.611-31.874-21.4-53.526-26.62s-36.432-11.076-50.362,1.578c-14.51,13.181-11.476,21.654-24.182,53.261C316,321.708,289.381,417.894,263.687,411.7c-8.89,36.881,3.227,63.1,78.017,81.129s91.575-29.841,99.845-86.977Z" fill="#fff"/><path d="M405.845,494.078s-1.4,5.243,5.048,23.056l64.026-36.194c-6.766-18.682-35.565,3.536-51.619.162C412.223,493.645,405.845,494.078,405.845,494.078Z" fill="#ff6300"/><line y1="13.365" x2="3.282" transform="translate(430.346 477.544)" fill="none" stroke="#fff" stroke-linecap="round" stroke-linejoin="round" stroke-width="5"/><line y1="12.904" x2="1.151" transform="translate(442.726 474.596)" fill="none" stroke="#fff" stroke-linecap="round" stroke-linejoin="round" stroke-width="5"/><rect width="79.59" height="11.947" rx="4.994" transform="translate(407.345 515.557) rotate(-29.48)" fill="#fff"/><path d="M306.986,441.615s-5.056-1.974-23.472,2.475l28.917,67.626c19.314-4.667.406-35.739,5.528-51.323C306.714,448,306.986,441.615,306.986,441.615Z" fill="#ff6300"/><line x2="12.922" y2="4.735" transform="translate(307.435 466.315)" fill="none" stroke="#fff" stroke-linecap="round" stroke-linejoin="round" stroke-width="5"/><line x2="12.699" y2="2.566" transform="translate(309.459 478.995)" fill="none" stroke="#fff" stroke-linecap="round" stroke-linejoin="round" stroke-width="5"/><rect width="79.59" height="11.947" rx="4.994" transform="translate(285.473 440.738) rotate(66.848)" fill="#fff"/><path d="M305.2,365.821c-19.475-45.545-89.829,1.421-90.542-15.27s76.584-66.816,130.828-18.925Z" fill="#fff"/><path d="M389.258,228.106c22.064,5.319,29.911-19.616,39.792-17.552,6.3,1.316,3.634,12.473,3.634,12.473s30.529-25.8,41.676-12.12c12.165,14.933-17.5,34.536-17.5,34.536s9.181-3.87,13.207,2.143c6.693,9.994-22.823,15.89-22.823,15.89Z" fill="#fff"/><path d="M447.619,390.658c-1.166-15.824,6.675-74.235,11.9-95.911S458.446,260.71,447.63,258.1c-5.986-1.443-12.6,3.135-17.315,7.513-3.423,3.177-8.029,2.42-10.1-1.623-5.748-11.237-12.314-15.466-21.959-17.791-11.782-2.84-28.923-1.489-40.3,45.7C348,333.214,300.093,408.883,308.514,455.66S410.829,510.325,429.25,478.8C447.366,447.791,449.35,414.155,447.619,390.658Z" fill="#fff"/><path d="M399.8,262.561s6.873-3.767,12.65,1.43" fill="none" stroke="#070117" stroke-linecap="round" stroke-miterlimit="10" stroke-width="7"/><path d="M451.738,266.073s6.873-3.767,12.649,1.43" fill="none" stroke="#070117" stroke-linecap="round" stroke-miterlimit="10" stroke-width="7"/><circle cx="4.487" cy="4.487" r="4.487" transform="translate(404.497 282.947)" fill="#070117"/><circle cx="4.487" cy="4.487" r="4.487" transform="translate(456.335 287.064)" fill="#070117"/><circle cx="7.918" cy="7.918" r="7.918" transform="translate(420.1 335.217)" fill="#ff6300"/><path d="M430.107,339.941s22.119-11.982,25.477-5.594-3.108,11.322-3.108,11.322,7.821,5.427,2.28,10.385-23.874-10.183-23.874-10.183Z" fill="#ff6300"/><path d="M424.726,346.729s-22.119,11.981-25.477,5.594S402.357,341,402.357,341s-7.821-5.427-2.28-10.385S423.951,340.8,423.951,340.8Z" fill="#ff6300"/><circle cx="12.453" cy="12.453" r="12.453" transform="translate(392.043 275.782)" fill="none" stroke="#ffed00" stroke-linecap="round" stroke-linejoin="round" stroke-width="2"/><circle cx="12.453" cy="12.453" r="12.453" transform="translate(443.922 279.29)" fill="none" stroke="#ffed00" stroke-linecap="round" stroke-linejoin="round" stroke-width="2"/><path d="M444.127,289.493a40.726,40.726,0,0,0-27.191-1.839" fill="none" stroke="#ffed00" stroke-linecap="round" stroke-linejoin="round" stroke-width="2"/><line x1="31.009" y1="2.097" transform="translate(361.062 285.299)" fill="none" stroke="#ffed00" stroke-linecap="round" stroke-linejoin="round" stroke-width="2"/><path d="M451.637,306.061c-.534,7.9-5.735,22.909-23.692,22.6s-20.931-17.679-20.4-25.579,10.837-13.639,23.012-12.816S452.172,298.16,451.637,306.061Z" fill="#ff6300"/><path d="M418.789,298.158s16.326-1.278,27.153,1.836c0,0,1.515,23.76-14.578,24.985S418.789,298.158,418.789,298.158Z" fill="#070117"/><path d="M509.973,320.415s4.874-18.027-1.3-27.7-23.687-5.417-17.98,6.771,14.986,11.254,14.986,11.254Z" fill="#4200a6"/><line x1="26.319" transform="translate(204.194 87.854)" fill="none" stroke="#a97261" stroke-linecap="round" stroke-linejoin="round" stroke-width="3"/><line x1="26.319" transform="translate(132.679 169.435)" fill="none" stroke="#a97261" stroke-linecap="round" stroke-linejoin="round" stroke-width="3"/><line x1="15.72" transform="translate(196.334 94.016)" fill="none" stroke="#a97261" stroke-linecap="round" stroke-linejoin="round" stroke-width="3"/><line x1="15.72" transform="translate(124.758 152.906)" fill="none" stroke="#a97261" stroke-linecap="round" stroke-linejoin="round" stroke-width="3"/><line x1="26.319" transform="translate(77.573 199.155)" fill="none" stroke="#ff6300" stroke-linecap="round" stroke-linejoin="round" stroke-width="3"/><line x1="15.72" transform="translate(92.092 205.587)" fill="none" stroke="#ff6300" stroke-linecap="round" stroke-linejoin="round" stroke-width="3"/><line x1="26.319" transform="translate(332.324 259.597)" fill="none" stroke="#fff" stroke-linecap="round" stroke-linejoin="round" stroke-width="3"/><line x1="13.16" transform="translate(326.523 239.751)" fill="none" stroke="#fff" stroke-linecap="round" stroke-linejoin="round" stroke-width="3"/><line x1="13.16" transform="translate(405.865 218.301)" fill="none" stroke="#fff" stroke-linecap="round" stroke-linejoin="round" stroke-width="3"/><line x1="25.726" transform="translate(319.757 267.503)" fill="none" stroke="#fff" stroke-linecap="round" stroke-linejoin="round" stroke-width="3"/><line x1="25.726" transform="translate(190.779 396.95)" fill="none" stroke="#070117" stroke-linecap="round" stroke-linejoin="round" stroke-width="3"/><line x1="25.726" transform="translate(207.806 408.243)" fill="none" stroke="#070117" stroke-linecap="round" stroke-linejoin="round" stroke-width="3"/><line x1="15.72" transform="translate(64.209 185.827)" fill="none" stroke="#ff6300" stroke-linecap="round" stroke-linejoin="round" stroke-width="3"/></g></svg>