<svg xmlns="http://www.w3.org/2000/svg" xmlns:xlink="http://www.w3.org/1999/xlink" width="575" height="501" viewBox="0 0 575 501"><defs><clipPath id="a"><rect width="575" height="501" transform="translate(0.791 -0.332)" fill="#fff"/></clipPath></defs><g transform="translate(-0.791 0.332)" clip-path="url(#a)"><g transform="translate(-1336.209 -785.332)"><circle cx="81.273" cy="81.273" r="81.273" transform="translate(1625.813 803.191)" fill="#ffed00"/><circle cx="71.752" cy="71.752" r="71.752" transform="translate(1435.864 1155.981)" fill="aqua"/><circle cx="36.028" cy="36.028" r="36.028" transform="translate(1480.343 975.623)" fill="#ff6300"/><path d="M1692.714,1128.057c-1.318-24.332,30.744-39.247,47.72-13.179,22.943,35.231,46.284,28.558,61.674,16.707" fill="none" stroke="#ff6300" stroke-miterlimit="10" stroke-width="20"/><path d="M1695.595,1130.308c-2.314-18.14,29.65-32.868,43.462-6.1,22.814,44.211,45.238,31.576,64.027,30.579" fill="none" stroke="aqua" stroke-miterlimit="10" stroke-width="20"/><path d="M1689.792,1130.042c-9.382-22.635,30.379-55.64,55.943-23.173,24.978,31.722,44.172,14.823,57.349,5.781" fill="none" stroke="#ffed00" stroke-miterlimit="10" stroke-width="20"/><path d="M1695.613,1134.716c1.712-18.206,28.079-28.08,42.3.332,20.726,41.409,24.911,20.733,43.826,29.5" fill="none" stroke="#690bd6" stroke-miterlimit="10" stroke-width="20"/><path d="M1552.82,917.928a11.482,11.482,0,1,0-8.776-13.662A11.483,11.483,0,0,0,1552.82,917.928Z" fill="#fff"/><path d="M1560.541,899.847a6.61,6.61,0,0,1,5.2,6.4l-6.608.059,4.7,4.645a6.608,6.608,0,1,1-3.293-11.1Z" fill="#690bd6"/><path d="M1469.691,1128.354l57.856-37.573,5.645,10.523-9,8.011,11.711-1.551,2.946,7.971-10.823,6.48,12.721-.682,1.639,8.12-12.64,7.24,12.714-.443-.6,9.324-62.425,10.009Z" fill="#eacc00"/><path d="M1471.431,1156.646l35.305-3.284-.545-12.756-11.274.111,10.065-4.667-4.717-10.534-9.7,2.958,6.688-8.84-6.561-6.984-29.107,20.19Z" fill="#ff6300"/><path d="M1601.385,1227.673l11.921-67.948,11.548,3.038-.268,12.044,6.844-9.628,7.842,3.275-2.631,12.337,8.169-9.776,7.06,4.333-3.314,14.184,8.339-9.607,6.417,6.791-35.209,52.51Z" fill="#eacc00"/><path d="M1623.279,1245.677l21.653-28.078-9.707-8.293-7.6,8.328,3.442-10.547-10.924-3.725-4.447,9.117-1.913-10.919-9.582.043-5.055,35.061Z" fill="#ff6300"/><path d="M1615.032,854.545l16.5,50.643-53.114,2.482,7.356-50.967Z" fill="#00d1d8"/><path d="M1585.341,852.477l-3.62,19.066,9.96,1.97,2.413-10.394,2.047,10.3,10.74-1.988-.555-9.584,6.639,8.123,7.887-4.476-10.12-19.945Z" fill="#ff6300"/><path d="M1617.532,877.263l2.619,10.651-8.213,1.5-2.349-8.035-1.537,8.195-7.217.19-1.694-7.727-2.38,7.447-6.864-.131-.18-8.954" fill="none" stroke="aqua" stroke-linecap="round" stroke-linejoin="round" stroke-width="3"/><path d="M1701.993,1135.413l-1.276,58.836-11.688,3.579-47.5-4.717-6.034-8.326-5.482,5.934-15-3.115-.165-9.157-7.871,7.488-15.245-5.1-.084-9.514-8.057,7.394-16.826-6.356-.734-9.325-15.579,1.719-23.052-28.35,3.178-8.65-10.414,3.252-11.78-12.734,9.525-12.482,23.724-24.172Z" fill="aqua"/><path d="M1513.765,1105.2s14.6-23.507,18.029-34.654l13.356-44.239,82.645,28.424-9.935,29.311,72.217,27.737c17.369,12.38,17.038,35.779,17.038,35.779l-9.515,5.117-9.994-10.542-1.145,15.456-12.831,3.117-7.48-12.7-4.94,13.842-13.039-.85-3.647-16.245-12.656,13.351-13.611-4.066-1.555-16.509-10.1,11.944-16.428-5.064-.773-14.616-11.42,11.243-11.788-3.893-1.581-17.248-15.224,9.538-12.4-6.912,3.237-14.755-15.3,7.3Z" fill="#690bd6"/><path d="M1499.22,933.542c11.988-31.1,143.319-35.694,143.319-35.694l38.678-31.88,20.406,12.921-32.6,54.209-35.477,104.662-6.884,46.438,61.186,24.674,12.07,7.955-20.386,6.865-10.789-12.239-.814,13.357-19.121-.442-3.862-14.329-7.037,12.065-17.709-5.247-.425-15.771-12.686,14.616-17.708-7.6,1.153-17.4-10.478,15.467-13.517-4.768.376-19.526-13.444,16.027-13.809-6.788,3.9-18.793-13.584,14.43-10.289-7.271,16.367-25.869,17.087-53.8S1490.481,956.215,1499.22,933.542Z" fill="#ffed00"/><path d="M1667.26,926.124l-32.193,119.17-13.841-.734-1.089-15.68-7.9,13.814-13.065-2.521.829-16.813-7.686,15.523-12.985-3.977,2.041-17.339-9.473,14.117-11.25-4.411,2.35-16.945-10.549,13.417-7.511-6.551,8.208-17.383s-60.235-36.051-54.732-62.549S1667.26,926.124,1667.26,926.124Z" fill="aqua"/><path d="M1642.539,897.848l28.468-23.464,17.38,26.516-19.361,32.2-18.571,64.051-12.726-.57-2.4-21.767-6.158,19.99-13.391-2.781-2.83-22.921-8.7,20.526-14.879-3.091,1.107-22.663-12.541,19.853-12.243-6.376,4.559-21.946-14.6,18.8-9.86-6.705,3.536-21.7-15.693,14.608-15.148-10.282,5.7-17.778-13.473,10.688-9.369-7.2L1500,929C1522.683,900.326,1642.539,897.848,1642.539,897.848Z" fill="#690bd6"/><path d="M1658.068,959.2l-11.176-1.2-1.838-15.6-3.03,14.588-10.567-1.074-1.5-14.889-5.508,15.035-12.65-3.268-.815-17.469" fill="none" stroke="#5200a9" stroke-linecap="round" stroke-linejoin="round" stroke-width="3"/><path d="M1597.745,981.471A23.088,23.088,0,1,0,1580.1,954,23.089,23.089,0,0,0,1597.745,981.471Z" fill="#fff"/><path d="M1698.1,887.061l-26.276,46.33-8.53-5.686,3.94-10.7-9.085,6.515-6.013-5.341,6.146-10.234-10.316,6.24-4.988-6.048,7.325-11.678-10.417,6.037-3.657-8.051,40.547-27.539Z" fill="aqua"/><path d="M1679.608,863.74l-16.521,10.183,5.26,8.684,9.3-5.226-6.225,8.455,8.71,6.591,6.7-6.872-1.523,10.38,8.623,2.807,7.906-20.922Z" fill="#ff6300"/><path d="M1675.9,896.836l-6.1,9.116-6.648-5.051,4.35-7.152-7.088,4.391-5.006-5.2,4.564-6.461-6.057,3.734-3.121-4.363" fill="none" stroke="#00d1d8" stroke-linecap="round" stroke-linejoin="round" stroke-width="3"/><path d="M1498.568,1181.97l33.338-60.4,9.936,6.623-4.164,11.3,9.6-6.884,6.354,5.643-6.495,10.814,10.9-6.594,5.271,6.39-7.74,12.34,11.007-6.379,3.864,8.507-50.351,38.233Z" fill="#ffed00"/><path d="M1513.43,1206.107l29.6-19.527-6.489-11-9.893,5.409,6.68-8.858-9.122-7.07-7.167,7.179,1.735-10.948-9.077-3.071-16.165,31.521Z" fill="#ff6300"/><path d="M1522.177,1151.768l6.446-9.632,7.025,5.337-4.6,7.557,7.489-4.639,5.29,5.5-4.823,6.827,6.4-3.946,2.611,3.649" fill="#ffed00" stroke="#eacc00" stroke-linecap="round" stroke-linejoin="round" stroke-width="3"/><path d="M1496.768,932.809c4.066-10.547,20.375-18.374,41.147-24.162l5.368,16.358-18.722,3.969,18.565,8.627-5.177,15.746-17.213-5.959,9.007,17.586-12.021,9.044C1503.751,959.863,1492.437,944.045,1496.768,932.809Z" fill="#ff6300"/><path d="M1576.025,941.04l-8.233-3.4,3.833-14.159-9,12.024-10.147-4.192,3.714-15.5" fill="none" stroke="#5200a9" stroke-linecap="round" stroke-linejoin="round" stroke-width="3"/><path d="M1600.544,943.75a15.52,15.52,0,0,1,12.214,15.024l-15.515.138,11.034,10.908a15.517,15.517,0,1,1-7.733-26.07Z" fill="#690bd6"/><path d="M1633.711,914.847c-25.351-22.292-44.648-17.706-44.648-17.706l-1.894,16.122s25.3-3.552,42.659,7.279Z" fill="#5200a9"/><path d="M1570.938,886.235c-13.472-11.657-23.637-9.156-23.637-9.156l-.931,8.516s13.334-1.981,22.543,3.662Z" fill="#5200a9"/><path d="M1624.43,1012l-1.934,10.818-10.614-.007-1.425-11.871-5,10.349-10.817-3.162,1.691-11.4-8.12,9.161" fill="none" stroke="#00d1d8" stroke-linecap="round" stroke-linejoin="round" stroke-width="3"/><path d="M1635.492,1167.34l-3.862,10.385-13.032-1.818-.118-12-7.557,9.4-11.028-4.274,1.825-11.711-11.229,7.688" fill="none" stroke="#00d1d8" stroke-linecap="round" stroke-linejoin="round" stroke-width="3"/><path d="M1673.706,1241.511l-34.75-59.595,10.782-5.132,7.569,9.372-.987-11.772,8.1-2.56,5.952,11.121-.07-12.739,8.189-1.247,6.624,12.973.169-12.72,9.284,1.046,7,62.833Z" fill="#ffed00"/><path d="M1702.049,1241.132l-1.584-35.422-12.767-.069-.43,11.266-4.178-10.278-10.748,4.205,2.488,9.834-8.509-7.1-7.291,6.217,18.768,30.043Z" fill="#ff6300"/><path d="M1659.887,1205.754l-4.963-10.473,8.184-3.294,4.13,7.822L1667.1,1191l7.431-1.722,3.387,7.641-.1-7.517,4.472-.37" fill="#ffed00" stroke="#eacc00" stroke-linecap="round" stroke-linejoin="round" stroke-width="3"/><path d="M1628.823,1060.109l3.35,16.89-11.838,2.876-6.806-12.178-1.275,11.642-16.634-1.55-2.119-12.729-5.917,11.059-14.414-4.9,1.849-12.571-9.216,9.517-12.46-6.97" fill="#ffed00" stroke="#eacc00" stroke-linecap="round" stroke-linejoin="round" stroke-width="3"/><path d="M1614.583,1125.43l-5.485,8.159-11.911-3.722-2.239-11.406-10.044,8.311-12.543-4.685.89-12.291-8.656,9.639-5.942-2.03" fill="#690bd6" stroke="#5200a9" stroke-linecap="round" stroke-linejoin="round" stroke-width="3"/><path d="M1542.077,1034.675l-5.989,19.944-16.392,24.858" fill="none" stroke="#eacc00" stroke-linecap="round" stroke-linejoin="round" stroke-width="3"/><path d="M1578.416,951.152h50.839s-6.6-20.317-26.6-20.317S1578.416,951.152,1578.416,951.152Z" fill="#690bd6"/></g></g></svg>