<svg xmlns="http://www.w3.org/2000/svg" xmlns:xlink="http://www.w3.org/1999/xlink" width="575" height="501" viewBox="0 0 575 501"><defs><clipPath id="a"><rect width="575" height="501" transform="translate(-0.209)" fill="#fff"/></clipPath></defs><g transform="translate(0.209)" clip-path="url(#a)"><g transform="translate(-1336.209)"><circle cx="81.273" cy="81.273" r="81.273" transform="translate(1625.813 17.86)" fill="#ffed00"/><circle cx="71.752" cy="71.752" r="71.752" transform="translate(1435.864 370.65)" fill="aqua"/><circle cx="36.028" cy="36.028" r="36.028" transform="translate(1480.343 190.292)" fill="#ff6300"/><path d="M1545.258,342.726c1.318-24.333-30.745-39.248-47.721-13.179-22.942,35.23-46.284,28.557-61.673,16.706" fill="none" stroke="#ff6300" stroke-miterlimit="10" stroke-width="20"/><path d="M1542.377,344.977c2.313-18.14-29.651-32.868-43.463-6.1-22.814,44.21-45.238,31.575-64.026,30.578" fill="none" stroke="aqua" stroke-miterlimit="10" stroke-width="20"/><path d="M1548.18,344.711c9.382-22.636-30.379-55.641-55.944-23.174-24.978,31.722-44.172,14.823-57.348,5.782" fill="none" stroke="#ffed00" stroke-miterlimit="10" stroke-width="20"/><path d="M1542.358,349.385c-1.712-18.207-28.078-28.081-42.3.331-20.726,41.41-24.91,20.733-43.826,29.5" fill="none" stroke="#690bd6" stroke-miterlimit="10" stroke-width="20"/><path d="M1685.151,132.6a11.482,11.482,0,1,1,8.776-13.662A11.481,11.481,0,0,1,1685.151,132.6Z" fill="#fff"/><path d="M1677.431,114.516a6.609,6.609,0,0,0-5.2,6.4l6.608.059-4.7,4.646a6.608,6.608,0,1,0,3.293-11.1Z" fill="#690bd6"/><path d="M1768.281,343.023l-57.856-37.573-5.645,10.523,9,8.011-11.711-1.551-2.946,7.971,10.823,6.48-12.721-.682-1.639,8.12,12.64,7.24-12.714-.443.6,9.324,62.425,10.009Z" fill="#eacc00"/><path d="M1766.54,371.315l-35.305-3.284.545-12.756,11.274.111-10.065-4.667,4.717-10.534,9.7,2.957-6.688-8.84,6.561-6.984,29.107,20.19Z" fill="#ff6300"/><path d="M1636.586,442.341l-11.921-67.948-11.548,3.039.268,12.044-6.844-9.628-7.842,3.275,2.631,12.337-8.169-9.776-7.06,4.333,3.314,14.184-8.339-9.607-6.416,6.791,35.209,52.51Z" fill="#eacc00"/><path d="M1614.692,460.345l-21.653-28.078,9.707-8.293,7.6,8.328-3.442-10.547,10.924-3.725,4.447,9.117,1.913-10.919,9.582.043,5.055,35.061Z" fill="#ff6300"/><path d="M1622.939,69.214l-16.5,50.643,53.114,2.482L1652.2,71.372Z" fill="#00d1d8"/><path d="M1652.63,67.145l3.62,19.066-9.96,1.97-2.413-10.394-2.047,10.3L1631.09,86.1l.555-9.584-6.639,8.123-7.887-4.476,10.12-19.945Z" fill="#ff6300"/><path d="M1620.44,91.931l-2.619,10.651,8.213,1.5,2.349-8.035,1.537,8.195,7.217.19,1.694-7.727,2.38,7.447,6.864-.131.18-8.954" fill="none" stroke="aqua" stroke-linecap="round" stroke-linejoin="round" stroke-width="3"/><path d="M1535.979,350.082l1.276,58.836,11.688,3.579,47.5-4.717,6.034-8.326,5.482,5.934,15-3.115.165-9.157,7.871,7.488,15.245-5.1.084-9.514,8.057,7.394,16.826-6.356.734-9.325,15.579,1.719,23.052-28.35-3.178-8.65,10.414,3.252,11.78-12.734-9.525-12.482-23.724-24.172Z" fill="aqua"/><path d="M1724.207,319.872s-14.6-23.507-18.03-34.654l-13.355-44.239L1610.177,269.4l9.935,29.311-72.218,27.738c-17.369,12.379-17.038,35.778-17.038,35.778l9.516,5.118,9.994-10.542,1.145,15.456,12.831,3.117,7.479-12.7,4.94,13.842,13.04-.85,3.647-16.245,12.656,13.351,13.61-4.066,1.556-16.509,10.1,11.944,16.427-5.064.774-14.616,11.42,11.244,11.787-3.894,1.582-17.248,15.224,9.539,12.4-6.912-3.238-14.755,15.295,7.3Z" fill="#690bd6"/><path d="M1738.751,148.21c-11.987-31.1-143.318-35.693-143.318-35.693l-38.678-31.88-20.406,12.92,32.6,54.209,35.478,104.662,6.884,46.438-61.186,24.674-12.07,7.955,20.386,6.865,10.788-12.239.814,13.358,19.121-.443,3.863-14.329,7.036,12.065,17.709-5.246.425-15.772,12.687,14.617,17.708-7.6-1.154-17.4,10.479,15.467,13.516-4.768-.375-19.526,13.444,16.028,13.808-6.789-3.9-18.793,13.583,14.43,10.29-7.271-16.367-25.869-17.088-53.8S1747.491,170.883,1738.751,148.21Z" fill="#ffed00"/><path d="M1570.711,140.792l32.194,119.17,13.841-.734,1.089-15.68,7.9,13.814,13.066-2.521-.829-16.812,7.685,15.522,12.986-3.977-2.042-17.339,9.473,14.117,11.25-4.411L1674.969,225l10.549,13.416,7.511-6.55-8.208-17.383s60.236-36.051,54.732-62.55S1570.711,140.792,1570.711,140.792Z" fill="aqua"/><path d="M1595.433,112.517l-28.468-23.465-17.381,26.516,19.361,32.2,18.571,64.052,12.727-.571,2.4-21.766,6.158,19.989,13.391-2.781,2.83-22.921,8.7,20.526,14.879-3.09-1.107-22.664,12.54,19.854,12.243-6.376-4.558-21.947,14.6,18.805,9.86-6.7-3.537-21.7,15.693,14.607,15.149-10.282-5.7-17.777,13.473,10.688,9.368-7.2,1.345-6.835C1715.288,114.994,1595.433,112.517,1595.433,112.517Z" fill="#690bd6"/><path d="M1579.9,173.865l11.176-1.2,1.838-15.6,3.03,14.588,10.567-1.074,1.5-14.889,5.508,15.035,12.65-3.268.815-17.469" fill="none" stroke="#5200a9" stroke-linecap="round" stroke-linejoin="round" stroke-width="3"/><path d="M1640.226,196.14a23.088,23.088,0,1,1,17.647-27.472A23.089,23.089,0,0,1,1640.226,196.14Z" fill="#fff"/><path d="M1539.871,101.73l26.276,46.33,8.53-5.686-3.94-10.7,9.085,6.515,6.013-5.341-6.146-10.234,10.316,6.24,4.988-6.048-7.325-11.678,10.417,6.037,3.657-8.051-40.547-27.539Z" fill="aqua"/><path d="M1558.363,78.409l16.521,10.183-5.26,8.684-9.3-5.226,6.225,8.455-8.71,6.591-6.7-6.872,1.523,10.38-8.623,2.807-7.906-20.922Z" fill="#ff6300"/><path d="M1562.076,111.5l6.1,9.116,6.649-5.051-4.35-7.152,7.088,4.391,5.006-5.2L1578,101.146l6.057,3.734,3.121-4.363" fill="none" stroke="#00d1d8" stroke-linecap="round" stroke-linejoin="round" stroke-width="3"/><path d="M1739.4,396.638l-33.338-60.4-9.936,6.623,4.164,11.3-9.6-6.884-6.354,5.644,6.495,10.814-10.9-6.594-5.271,6.39,7.74,12.34L1671.4,369.5l-3.864,8.507,50.351,38.233Z" fill="#ffed00"/><path d="M1724.542,420.775l-29.6-19.527,6.489-11,9.893,5.409-6.68-8.858,9.122-7.07,7.167,7.179-1.735-10.948,9.077-3.071,16.165,31.52Z" fill="#ff6300"/><path d="M1715.795,366.436l-6.446-9.632-7.025,5.337,4.6,7.557-7.489-4.639-5.29,5.5,4.823,6.827-6.4-3.946-2.611,3.649" fill="#ffed00" stroke="#eacc00" stroke-linecap="round" stroke-linejoin="round" stroke-width="3"/><path d="M1741.2,147.477c-4.065-10.546-20.375-18.373-41.147-24.162l-5.367,16.359,18.722,3.969-18.566,8.627,5.178,15.745,17.213-5.959-9.007,17.586,12.02,9.044C1734.221,174.531,1745.534,158.713,1741.2,147.477Z" fill="#ff6300"/><path d="M1661.947,155.708l8.233-3.4-3.833-14.159,9,12.024,10.147-4.192-3.714-15.5" fill="none" stroke="#5200a9" stroke-linecap="round" stroke-linejoin="round" stroke-width="3"/><path d="M1626.36,157.163a15.52,15.52,0,0,0-12.215,15.024l15.516.138-11.034,10.908a15.517,15.517,0,1,0,7.733-26.07Z" fill="#690bd6"/><path d="M1590.311,152.786c12.09-31.518,31.308-36.425,31.308-36.425l9.168,13.4s-24.049,8.608-34.391,26.267Z" fill="#5200a9"/><path d="M1667.034,100.9c13.472-11.658,23.636-9.157,23.636-9.157l.932,8.516s-13.335-1.98-22.543,3.663Z" fill="#5200a9"/><path d="M1613.541,226.673l1.934,10.817,10.614-.007,1.425-11.871,5,10.349,10.817-3.162-1.691-11.4,8.12,9.161" fill="none" stroke="#00d1d8" stroke-linecap="round" stroke-linejoin="round" stroke-width="3"/><path d="M1602.48,382.009l3.862,10.385,13.032-1.818.118-12,7.557,9.4,11.028-4.274-1.825-11.711,11.229,7.688" fill="none" stroke="#00d1d8" stroke-linecap="round" stroke-linejoin="round" stroke-width="3"/><path d="M1564.266,456.18l34.75-59.595-10.782-5.132-7.569,9.372.987-11.772-8.1-2.56-5.952,11.122.07-12.739-8.189-1.247-6.624,12.973-.169-12.72-9.284,1.046-7,62.833Z" fill="#ffed00"/><path d="M1535.923,455.8l1.584-35.422,12.767-.069.43,11.267,4.178-10.278,10.748,4.205-2.488,9.834,8.509-7.105,7.291,6.217-18.768,30.043Z" fill="#ff6300"/><path d="M1578.085,420.422l4.963-10.473-8.184-3.294-4.13,7.822.141-8.809-7.431-1.722-3.387,7.641.1-7.517-4.472-.369" fill="#ffed00" stroke="#eacc00" stroke-linecap="round" stroke-linejoin="round" stroke-width="3"/><path d="M1609.148,274.777l-3.35,16.89,11.838,2.876,6.806-12.178,1.275,11.642,16.634-1.55,2.119-12.728,5.917,11.059,14.414-4.9-1.849-12.571,9.216,9.517,12.46-6.97" fill="#ffed00" stroke="#eacc00" stroke-linecap="round" stroke-linejoin="round" stroke-width="3"/><path d="M1623.388,340.1l5.484,8.159,11.911-3.722,2.239-11.407,10.044,8.311,12.543-4.685-.89-12.291,8.656,9.639,5.942-2.03" fill="#690bd6" stroke="#5200a9" stroke-linecap="round" stroke-linejoin="round" stroke-width="3"/><path d="M1695.9,249.344l5.989,19.944,16.392,24.858" fill="none" stroke="#eacc00" stroke-linecap="round" stroke-linejoin="round" stroke-width="3"/><path d="M1718.1,68.414a7.193,7.193,0,0,1,6.5,7.822c-.364,3.956-8.425,13.056-8.425,13.056s-6.264-10.419-5.9-14.375A7.193,7.193,0,0,1,1718.1,68.414Z" fill="aqua"/><path d="M1748.016,104.907a3.726,3.726,0,0,1-2.4,4.69c-1.958.631-7.933-1.355-7.933-1.355s3.687-5.1,5.646-5.736A3.725,3.725,0,0,1,1748.016,104.907Z" fill="aqua"/><path d="M1747.82,78.034a4.8,4.8,0,0,1-.684,6.756c-2.055,1.676-10.159,2.093-10.159,2.093s2.033-7.856,4.087-9.533A4.8,4.8,0,0,1,1747.82,78.034Z" fill="aqua"/><path d="M1526.3,206.379a7.192,7.192,0,0,1,1.784-10.014c3.258-2.273,15.412-1.981,15.412-1.981s-3.924,11.507-7.182,13.779A7.192,7.192,0,0,1,1526.3,206.379Z" fill="aqua"/><path d="M1528.208,149.21a3.726,3.726,0,0,1,5.268-.117c1.486,1.423,2.579,7.624,2.579,7.624s-6.244-.818-7.73-2.24A3.725,3.725,0,0,1,1528.208,149.21Z" fill="aqua"/><path d="M1556.165,217.665a3.725,3.725,0,0,1-3.338-4.077c.2-2.047,4.415-6.729,4.415-6.729s3.2,5.421,3,7.469A3.725,3.725,0,0,1,1556.165,217.665Z" fill="aqua"/><path d="M1512.554,170.912a4.8,4.8,0,0,1,4.787-4.816c2.651-.009,9.209,4.772,9.209,4.772s-6.528,4.822-9.18,4.83A4.8,4.8,0,0,1,1512.554,170.912Z" fill="aqua"/><line x1="31.886" transform="translate(1502.143 100.516)" fill="none" stroke="#00d1d8" stroke-linecap="round" stroke-linejoin="round" stroke-width="3"/><line x1="17.006" transform="translate(1519.552 109.721)" fill="none" stroke="#00d1d8" stroke-linecap="round" stroke-linejoin="round" stroke-width="3"/><line x1="31.828" transform="translate(1577.049 240.165)" fill="none" stroke="#00d1d8" stroke-linecap="round" stroke-linejoin="round" stroke-width="3"/><line x1="22.5" transform="translate(1544.685 175.013)" fill="none" stroke="#5200a9" stroke-linecap="round" stroke-linejoin="round" stroke-width="3"/><line x1="10.039" transform="translate(1564.845 188.686)" fill="none" stroke="#5200a9" stroke-linecap="round" stroke-linejoin="round" stroke-width="3"/><line x1="31.828" transform="translate(1558.97 181.909)" fill="none" stroke="#5200a9" stroke-linecap="round" stroke-linejoin="round" stroke-width="3"/><line x1="20.76" transform="translate(1571.333 249.344)" fill="none" stroke="#00d1d8" stroke-linecap="round" stroke-linejoin="round" stroke-width="3"/><line x1="31.828" transform="translate(1581.713 303.208)" fill="none" stroke="#eacc00" stroke-linecap="round" stroke-linejoin="round" stroke-width="3"/><line x1="9.328" transform="translate(1588.299 292.525)" fill="none" stroke="#eacc00" stroke-linecap="round" stroke-linejoin="round" stroke-width="3"/><line x1="31.828" transform="translate(1464.429 310.791)" fill="none" stroke="#eacc00" stroke-linecap="round" stroke-linejoin="round" stroke-width="3"/><line x1="24.069" transform="translate(1481.416 304.364)" fill="none" stroke="#eacc00" stroke-linecap="round" stroke-linejoin="round" stroke-width="3"/></g></g></svg>