<svg xmlns="http://www.w3.org/2000/svg" xmlns:xlink="http://www.w3.org/1999/xlink" width="336.4" height="547.9" viewBox="0 0 336.4 547.9"><defs><clipPath id="a"><rect width="336.4" height="547.9"/></clipPath><clipPath id="b"><path d="M321.2,178.6,252,244.3s3.3,25.3,61.3,28.3L322,179Z"/></clipPath></defs><g clip-path="url(#a)"><path d="M287,15.3a31.131,31.131,0,0,1-2.2,4c.9-.9,9.5-2,9.1,3.3s-9.3,2.5-11.9-.9c-1.6-2.1-1.5-4.6-1.3-7.2C281.3,6.2,289.7,9.5,287,15.3Z" fill="none" stroke="#070117" stroke-linecap="round" stroke-linejoin="round" stroke-width="3"/><path d="M247.9,358a36.941,36.941,0,0,1-1.7-4.2c.2,1.2-4.3,8.7-8.3,5.1s3.8-8.9,8.1-8.8c2.7,0,4.6,1.7,6.5,3.4C258.6,359.2,250.8,363.8,247.9,358Z" fill="none" stroke="#070117" stroke-linecap="round" stroke-linejoin="round" stroke-width="3"/><circle cx="39.7" cy="39.7" r="39.7" transform="translate(163.3 398.1)" fill="aqua"/><circle cx="61.4" cy="61.4" r="61.4" transform="translate(95.3 52.1)" fill="#ff6300"/><circle cx="20.1" cy="20.1" r="20.1" transform="translate(20 251.9)" fill="#ffed00"/><path d="M209.2,203.6c-27,12.9-37.5,30.9-37.5,30.9-11.8-11.8-34-23.6-69.7-33.5L91.9,217.4l82.7,68.4s65-31.9,73.2-60.7C247.8,225.1,236.2,190.7,209.2,203.6Z" fill="#7cd36a"/><path d="M249.1,224.1c-17.6-54.1-61.7-12.8-61.7-12.8s3.3,40.2,33.9,50.1C221.3,261.4,255,242.3,249.1,224.1Z" fill="#00d1d8"/><path d="M382.8,314.7c95.4-37.7,40.8-164.1,40.8-164.1S446,168.5,452.3,166,437,98.3,405.2,110.8,333.9,251,333.9,251,334.6,303.7,382.8,314.7Z" fill="#7cab6a"/><path d="M423.6,150.6,418,139.7c3.3-1.3,14.7,7.9,19.9,21A55.283,55.283,0,0,1,423.6,150.6Z" fill="#60994a"/><path d="M415.9,249.5c20,50.6-18,68.7-66.2,87.8s-88.4,31.9-108.4-18.7,2.9-107.1,51.1-126.1S395.9,198.9,415.9,249.5Z" fill="#7cd36a"/><path d="M236.4,292.1l4.8-42L186.1,57.5l-17.2,1.1L171.7,29l28.2-11.2L256.7-4.7s8.6,4,31.6,29.4c29.1,32.1,75,95.1,124.8,220.9Z" fill="#7cd36a"/><line y1="6.6" x2="34.1" transform="translate(249.8 19.9)" fill="none" stroke="#070117" stroke-linecap="round" stroke-linejoin="round" stroke-width="3"/><path d="M140,90.4s30.7,3.2,25.5,49L255.3,113l.8-62.7-71.4,9.9Z" fill="#070117"/><path d="M84.2,122.7s6.6,6.8,8.7,6-.5-11.4-.5-11.4Z" fill="#fff"/><path d="M109,112s3.2,8.9,5.5,9,4.2-10.6,4.2-10.6Z" fill="#fff"/><path d="M147.4,100.5s3.2,8.9,5.5,9,4.2-10.6,4.2-10.6Z" fill="#fff"/><path d="M212.3,70s.6,13,3.6,14.1,9.7-12.2,9.7-12.2Z" fill="#fff"/><path d="M176.2,89.6s8,5.1,9.8,3.8-3.1-10.9-3.1-10.9Z" fill="#fff"/><path d="M244.9,64.9s10.9,7.1,13.5,5.3-4.3-15-4.3-15Z" fill="#fff"/><path d="M163.4,95.7s4.3,5.7,6,5.3.6-8.6.6-8.6Z" fill="#fff"/><path d="M177.1,132.1s-.8-9.4-2.9-10.1-6.8,9.1-6.8,9.1Z" fill="#fff"/><path d="M221.4,119.4s-5-8.1-7.3-7.7-1.9,11.2-1.9,11.2Z" fill="#fff"/><path d="M146.4,135s-6.3-7-8.5-6.3.1,11.4.1,11.4Z" fill="#fff"/><path d="M160.3,132.5s-2.7-6.6-4.4-6.7S153,134,153,134Z" fill="#fff"/><path d="M236.5,113.3s-3.8-6.1-5.5-5.8-1.4,8.5-1.4,8.5Z" fill="#fff"/><path d="M134,103.4s1.8,6.9,3.5,7.2,3.9-7.7,3.9-7.7Z" fill="#fff"/><path d="M233.1,71.9s4.3,8.9,6.7,8.7,3.1-11.4,3.1-11.4Z" fill="#fff"/><path d="M133.3,142s15,23.6,45.3,14c24.2,62,65.1,44.1,65.1,44.1S320.3,117.3,258,38.3c-24.8,4.3.2,46-11.2,65-5.8,9.6-34.3,19-61.1,26-10.8,2.8-21.7-.6-30.3,1.3C143.1,133.2,133.3,142,133.3,142Z" fill="#ffed00"/><path d="M178.6,156a99.347,99.347,0,0,0,10.4-5" fill="none" stroke="#e9c200" stroke-linecap="round" stroke-linejoin="round" stroke-width="3"/><path d="M219.4-.8s26.3,25,64.6.3L270.5-4.3l-4.1-20.5-28,4.8L233.6-5.5Z" fill="#e8c9ac"/><path d="M232.1-6.2S252,7.3,271-4.5l-.6-7.2c-17.5,7.8-38.1,2.8-38.1,2.8Z" fill="#fff"/><path d="M251.3,234V204.8s33.2-74.1,100.3-100.7c32.8,45,79.1,162,79.1,162-46.8,43.7-135.4,70.1-135.4,70.1l-20.8-22.7-6.4,26.9c-14.8,2.6-31.3-3-31.3-3s-17.5-47.4,1.3-92.5L221,203.1l15.9,4.5Z" fill="aqua"/><path d="M255.6,224.1l1.6-16.4c8,2.9,17.5,14.2,17.5,14.2,12.2-38.7,33.3-79.8,77.2-108.2" fill="none" stroke="#00d1d8" stroke-linecap="round" stroke-linejoin="round" stroke-width="3"/><path d="M247,230.7,235.4,212s-7.1,10.5-1.5,30.4c-12.4-5.8-12.8-39.2-12.8-39.2" fill="aqua" stroke="#00d1d8" stroke-linecap="round" stroke-linejoin="round" stroke-width="3"/><path d="M251.1,233.5l6.4,19.7s-6.1,26.3,15.7,57.2" fill="none" stroke="#00d1d8" stroke-linecap="round" stroke-linejoin="round" stroke-width="3"/><circle cx="1.8" cy="1.8" r="1.8" transform="translate(256.5 233.8)" fill="none" stroke="#00d1d8" stroke-linecap="round" stroke-linejoin="round" stroke-width="3"/><circle cx="1.8" cy="1.8" r="1.8" transform="translate(259.9 261.1)" fill="none" stroke="#00d1d8" stroke-linecap="round" stroke-linejoin="round" stroke-width="3"/><circle cx="1.8" cy="1.8" r="1.8" transform="translate(266 288.4)" fill="none" stroke="#00d1d8" stroke-linecap="round" stroke-linejoin="round" stroke-width="3"/><circle cx="1.8" cy="1.8" r="1.8" transform="translate(284.8 315.1)" fill="none" stroke="#00d1d8" stroke-linecap="round" stroke-linejoin="round" stroke-width="3"/><path d="M341.7,173.3c24.4,17.3,47.8,8.2,47.8,8.2-18.3,27.1-19.6,56.8-16.6,64.3l16.9,5.2c25.6-37.5,40.6-87.6,40.6-87.6s-59.5-41.2-88.7-34.3C341.6,129.1,317.3,156,341.7,173.3Z" fill="#7cd36a"/><path d="M340.1,128.5c-38.7,41.8,18.9,60.2,18.9,60.2s33.5-22.5,27.2-54C386.2,134.6,353.1,114.5,340.1,128.5Z" fill="#00d1d8"/><path d="M373.1,246.5l12.1,30.7L423.5,262s-3.1-9.3-13.2-5.2c5.9-13.2-15-21.3-15-21.3Z" fill="#7cd36a"/><path d="M203.6,40.1,113.1,88.8s.4-9-8.4-6.6-13,15.3-13,15.3-16.8-6.8-20.4,5.8C69,111.5,86,115.7,86,115.7l-4,9c9.4,3.9,7.1-4.6,16.4-9,7.8-3.7,13.4,4.5,20.7-4.7,9.7-12.3,12.1-.8,40.7-12.1s28.9-21.2,41.6-26.2,18.7,7,39.8-1.4,16.6-33,16.6-33Z" fill="#7cd36a"/><path d="M248.9,7.5c8,26.4-.3,50.6-14,57.3a27.617,27.617,0,1,1-24.1-49.7C224.5,8.4,223.4,17.8,248.9,7.5ZM215.4,20.6a11.8,11.8,0,1,0,11.8,11.8A11.822,11.822,0,0,0,215.4,20.6Z" fill="#fff"/><path d="M184.5,29.7a27.617,27.617,0,1,1-24.1,49.7c-13.7-6.7-22-30.9-14-57.3C171.9,32.3,170.8,23,184.5,29.7ZM168.1,46.9a11.8,11.8,0,1,0,11.8-11.8A11.822,11.822,0,0,0,168.1,46.9Z" fill="#fff"/><circle cx="4.6" cy="4.6" r="4.6" transform="translate(174.1 42.9)" fill="#070117"/><circle cx="4.6" cy="4.6" r="4.6" transform="translate(210.8 28.4)" fill="#070117"/><path d="M163,35.7s6.6-9.1,17.3-6" fill="none" stroke="#070117" stroke-linecap="round" stroke-miterlimit="10" stroke-width="9"/><path d="M200.7,20.7s6.6-9.1,17.3-6" fill="none" stroke="#070117" stroke-linecap="round" stroke-miterlimit="10" stroke-width="9"/><path d="M108.3,92.7c-.2-2.5.3-7.4-2.1-7.2s-7,5.4-6.8,7.9a4.468,4.468,0,0,0,4.8,4.1,4.41,4.41,0,0,0,4.1-4.8Z" fill="#070117"/><path d="M79.5,102.7c-1.8.3-5.5.3-5.2,2.1s4.5,4.8,6.3,4.5a3.439,3.439,0,0,0,2.8-3.8,3.268,3.268,0,0,0-3.9-2.8Z" fill="#070117"/><circle cx="4.8" cy="4.8" r="4.8" transform="translate(287.1 70.4)" fill="#7cab6a"/><circle cx="1.8" cy="1.8" r="1.8" transform="translate(299 74.6)" fill="#7cab6a"/><circle cx="1.8" cy="1.8" r="1.8" transform="translate(326.6 90.9)" fill="#7cab6a"/><circle cx="3.4" cy="3.4" r="3.4" transform="translate(295 80.2)" fill="#7cab6a"/><circle cx="3.4" cy="3.4" r="3.4" transform="translate(331.5 93.3)" fill="#7cab6a"/><path d="M86.6,180.9c-.5,3.1,3.6,4,6.7,5.6l8.6-5C95.9,176.9,87.3,176.2,86.6,180.9Z" fill="#7cd36a"/><path d="M236.3,253.5l-25.8-19.2a8.654,8.654,0,0,0-8.9-.8l-17.8,8.7a8.727,8.727,0,0,0-4.4,10.6l3.6,10.5a2.446,2.446,0,0,0,3.2,1.5,2.73,2.73,0,0,0,1.2-.9l3.9-5.2L204,283.1Z" fill="#a97261"/><path d="M191.4,258.6l9.8-14.8a4.155,4.155,0,0,1,5.7-1.2,3.745,3.745,0,0,1,1.2,1.3l12.8,20.8" fill="none" stroke="#94503b" stroke-linecap="round" stroke-linejoin="round" stroke-width="3"/><path d="M328.6,430.8s43.1-17.7,52.9-64.9c8-.4,16.2,11.7,5.3,19.5,7.9,4.6,13,17.6-8.6,23.3,11,19.6-9.3,17.2-9.3,17.2,0,25.8-28.1,16.2-28.1,16.2Z" fill="#a97261"/><path d="M149.7,347.5,137,333c6.8-12.4-11.2-17.7-11.7-12.3-.3,2.7,4.9,2.4,6.1,4.7a5.227,5.227,0,0,1-1.9,7.1l-.6.3c-3.1,1.3-6.3-1.5-6.6-3.4-.6-3.6,3.3-6.3,2-8.4-3.1-5-13.6,8.5-3.3,15.4-10.4,5.5-16.2-6.9-18.7-2.6s8.4,14.5,20.1,9c-1.7,7.1-7.7,5.3-7,8.6s8.1,3.1,14.8-9.3l10.9,14.8Z" fill="#a97261"/><path d="M262,371.6c-43.3,8.8-76.5,7.6-76.5,7.6l-42.4-43.7-11.7,10.8,41.9,61.9,101.3,1.6Z" fill="#d03900"/><path d="M164,409.9,138.5,418a18.581,18.581,0,0,0-9.2-2.4c-5,.2-5.7,5.5-5.7,5.5l-28.4,8.1a3.389,3.389,0,0,0-2.3,4.2c0,.1,0,.1.1.2h0a3.356,3.356,0,0,0,3.9,2.2l23.9-4.7s1.2,6,8.6,8.2,12.5-.3,12.2-2.2-4.3-2.9-4.3-2.9,9.7-2.2,7.9-5.7l24.8-6Z" fill="#a97261"/><path d="M130.4,344.5l3-1-11.8-38.4L116,307Z" fill="#d6c6f8"/><path d="M122,320.5l3.1-1.1s25-13.6,18.7-33.6L86.6,305.2C93.4,322.9,122,320.5,122,320.5Z" fill="#d6c6f8"/><path d="M121.2,316.4c-3.2.2-21,.7-28.5-8.7l47.9-16.2c.7,13.2-14.9,22.9-17.2,24.2Z" fill="#fff"/><path d="M119.3,358.4l30-10.5-16.6-6.8-3.3,1.1Z" fill="#d6c6f8"/><path d="M118.1,312.9" fill="none" stroke="#070117" stroke-linecap="round" stroke-linejoin="round" stroke-width="3"/><path d="M100.2,295.1a8.122,8.122,0,0,0-3.1-2.4c-1.2-.4-2.9.1-3.2,1.4a5.867,5.867,0,0,0,.4,2.3c.2.8.1,1.8-.7,2-.9.3-1.6-.6-2.1-1.4-2.4-4.2-4.6-8.9-8.7-11.4-1.3-.8-3-1.3-4.3-.6a3.25,3.25,0,0,0-1.4,3,7.9,7.9,0,0,0,1,3.3c3.9,8.3,11,14.8,18.7,19.8a15.138,15.138,0,0,0,6.4,2.7,12.641,12.641,0,0,0,5.4-1,46.867,46.867,0,0,0,7.2-3.3,9.2,9.2,0,0,0,2.5-1.9,19.408,19.408,0,0,0,2.1-2.9c.8-1.3.2-1-1.3-1.1a28.1,28.1,0,0,1-18.9-8.5Z" fill="#fff"/><path d="M80.3,273a4.8,4.8,0,0,1-.5-1.7,3.5,3.5,0,0,1,2.2-2.9,3.707,3.707,0,0,1,1.5-.4,2.982,2.982,0,0,1,2.4,1.2,6.983,6.983,0,0,1,1.3,2.4c.7,2.3.8,4.8,1.3,7.1a44.4,44.4,0,0,0,2.2,6.1c.2.4.3,1-.1,1.2-.3.1-.6-.1-.9-.3C85.9,282,82.4,278,80.3,273Z" fill="#fff"/><path d="M273.4,357.3s32.4-39.1,48.6-22.7,24.4,35.4,12.2,51.5-43.2,6.5-43.2,6.5Z" fill="#d03900"/><path d="M270.3,452.8c10.8,21.6,28.2,19.6,49.8,8.8s39.2-26.2,28.5-47.8a43.738,43.738,0,0,0-78.3,39Z" fill="#070117"/><path d="M277.7,456.5s0,68.3,60.3,97.8l1.9-40,8.4-83-25.1-2Z" fill="#070117"/><path d="M360.7,430.5s-37,34.9-90.2,31.3c-12.3-6.2-7.4-22.3-10.6-35.2-5.7-22.9-20.3-48.3-7.5-53.2l52.3-21.9a15.861,15.861,0,0,1,21.6,6.5c0,.1.1.1.1.2l18.8,43S365.4,419.3,360.7,430.5Z" fill="#ff6300"/><path d="M259.6,374.5c1.7-26,44.1-38.3,44.1-38.3l4.8,2.2s15.2,33.4-30.3,47.7C259.1,392.1,259.2,381.1,259.6,374.5Z" fill="#d03900"/><path d="M264.2,378.2c18,6,37.2-14.1,37.2-14.1l-29-58.3-25.8,16.6Z" fill="#a97261"/><path d="M295.6,352.4l-23.2-46.6-25.8,16.6,10.7,33.8Z" fill="#94503b"/><path d="M244,248c-36.1,8.3-45.2,31.5-49.3,54.8a73.459,73.459,0,0,0-.2,23.4l2.8-4.6,56.2,1-7.7,28.2-26.5.6c7.4,2.6,16.5,3.5,27.9,2.1,53-6.5,86.5-14.4,77.8-52.2S280.1,239.7,244,248Z" fill="#a97261"/><path d="M232.1,288.3c.8-1.9.7-4.2,1.6-6.1,1.2-2.4,3.9-3.7,6.5-4.1a8.924,8.924,0,0,1,6.9,1.5c2.6,2.1,3.5,6.2,6.7,7.5,1.6.6,8.6,1.3,10.2,8.2s-3.4,9.8-6.3,12.1c-5.3,4.4-14.2,7.3-20.9,4.7-4.8-1.9-6.4-7.8-7.6-12.4C227.7,294.5,230.2,292.8,232.1,288.3Z" fill="#94503b"/><path d="M193.7,345.3c36,.9,50.6-1.8,48.9-35.2l13.9-2.8c8.4,36.7-2.7,45.2-2.7,45.2S198.2,365,193.7,345.3Z" fill="#94503b"/><path d="M234.3,331.8s-2.6,8.5-10.1,8.5-9.6-.3-15.1,2.3c-7.3,3.4-2.3,17.4,5.5,17.4,7.7,0,5.8-12.9,5.8-12.9,14.9-1.5,21.2-16,21.2-16Z" fill="#fff"/><path d="M198.3,326.8c5.7,10.5,36.2,16.9,60.2-9.1-5.4-15.6-24.9-11.3-30.6-19.9-1.6,13.4-44.4,16.7-44.4,16.7s-5.7,8.2.1,22.4C186.1,337.6,196.7,339.4,198.3,326.8Z" fill="#94503b"/><circle cx="14" cy="14" r="14" transform="translate(200.5 286)" fill="#ff6300"/><circle cx="14" cy="14" r="14" transform="translate(227.5 283.1)" fill="#ff6300"/><path d="M221.5,298.8l12.2-1.6,14.6-1.6,31.8-11.4,8.1,2.3" fill="none" stroke="#ff6300" stroke-linecap="round" stroke-linejoin="round" stroke-width="3"/><path d="M245.6,279.6s-6.1-3.4-11.3,1.1" fill="none" stroke="#070117" stroke-linecap="round" stroke-miterlimit="10" stroke-width="5"/><path d="M220.3,283.3s-6.2-3.2-11.2,1.6" fill="none" stroke="#070117" stroke-linecap="round" stroke-miterlimit="10" stroke-width="5"/><circle cx="4" cy="4" r="4" transform="translate(237.5 293.1)" fill="#070117"/><circle cx="4" cy="4" r="4" transform="translate(212.6 295.5)" fill="#070117"/><path d="M213.2,313l-13.5,12.3a1.822,1.822,0,0,1-2.1.2l-14.3-9.3a1.752,1.752,0,0,1-.5-2.4,1.834,1.834,0,0,1,1-.7,74.311,74.311,0,0,1,28.5-3.1,1.769,1.769,0,0,1,1.6,1.9A4.129,4.129,0,0,1,213.2,313Z" fill="#070117"/><path d="M183.6,336.9s12.4,4.2,14.7-10.1c17.6,20.4,57.5,1.1,60.2-9.1" fill="none" stroke="#070117" stroke-linecap="round" stroke-linejoin="round" stroke-width="3"/><path d="M264.6,381.9s1.9,14.4-17.8,9.9c-14.9-3.4-19.9,7.4-19.9,7.4" fill="none" stroke="#ffede2" stroke-linecap="round" stroke-linejoin="round" stroke-width="3"/><path d="M292.9,375.5c.9,2.5,1.9,5.3,4.3,6.6,1.6.9,3.4,1.1,5.2,1.6a13.8,13.8,0,0,1,6.7,5.2,27.95,27.95,0,0,1,3.7,7.8" fill="none" stroke="#ffede2" stroke-linecap="round" stroke-linejoin="round" stroke-width="3"/><path d="M275,383.8s3.3,36.3,21,77.3" fill="none" stroke="#d03900" stroke-linecap="round" stroke-linejoin="round" stroke-width="3"/><circle cx="10.3" cy="10.3" r="10.3" transform="translate(231.2 286.8)" fill="#070117"/><circle cx="10.3" cy="10.3" r="10.3" transform="translate(204.2 289.7)" fill="#070117"/><path d="M236.5,288.1a10.352,10.352,0,0,0-4.7,5.4l9.5,13.9a9.953,9.953,0,0,0,6.8-2.4Z" fill="#fff"/><path d="M241.2,286.8a6.93,6.93,0,0,0-2,.3,6.372,6.372,0,0,0-.7.2l11.1,16.3a7.217,7.217,0,0,0,1.4-2.4Z" fill="#fff"/><path d="M209.8,290.9a10.13,10.13,0,0,0-4.8,5.2l9.7,14.3a7.613,7.613,0,0,0,2.1-.3,10.722,10.722,0,0,0,4.5-2.3Z" fill="#fff"/><path d="M214.6,289.7a9.863,9.863,0,0,0-2.4.3c-.1,0-.3.1-.4.1l11,16.1a12.293,12.293,0,0,0,1.4-2.5Z" fill="#fff"/><path d="M309.2,245.1l-13.3-11.7a4.115,4.115,0,0,0-5.8.4,5.071,5.071,0,0,0-.9,1.6l-6.9,23.4" fill="none" stroke="#94503b" stroke-linecap="round" stroke-linejoin="round" stroke-width="3"/><path d="M310.9,349.7l-170,64.4,6.5,17.2S324.2,401.5,326,381.9,310.9,349.7,310.9,349.7Z" fill="#ff6300"/><path d="M254.4,409.6s65.7-15.8,70.6-21.7-1.7-22-1.7-22" fill="none" stroke="#d03900" stroke-linecap="round" stroke-linejoin="round" stroke-width="3"/><path d="M247.2,24.6a1.367,1.367,0,0,1-1.4-1.4,5.7,5.7,0,0,0-5.7-5.7,1.4,1.4,0,0,1,0-2.8A5.7,5.7,0,0,0,245.8,9a1.4,1.4,0,1,1,2.8,0,5.7,5.7,0,0,0,5.7,5.7,1.4,1.4,0,0,1,0,2.8,5.7,5.7,0,0,0-5.7,5.7A1.43,1.43,0,0,1,247.2,24.6Z" fill="#fff"/><path d="M153,83.8a1.367,1.367,0,0,1-1.4-1.4,5.7,5.7,0,0,0-5.7-5.7,1.4,1.4,0,0,1,0-2.8,5.7,5.7,0,0,0,5.7-5.7,1.4,1.4,0,1,1,2.8,0,5.7,5.7,0,0,0,5.7,5.7,1.4,1.4,0,0,1,0,2.8,5.7,5.7,0,0,0-5.7,5.7A1.312,1.312,0,0,1,153,83.8Z" fill="#fff"/><path d="M233.7,33.9a.684.684,0,0,1-.7-.7,2.689,2.689,0,0,0-2.7-2.7.7.7,0,0,1,0-1.4,2.689,2.689,0,0,0,2.7-2.7.7.7,0,1,1,1.4,0,2.689,2.689,0,0,0,2.7,2.7.7.7,0,0,1,0,1.4,2.689,2.689,0,0,0-2.7,2.7A.751.751,0,0,1,233.7,33.9Z" fill="#fff"/><path d="M174.1,70.7a.684.684,0,0,1-.7-.7,2.689,2.689,0,0,0-2.7-2.7.7.7,0,1,1,0-1.4,2.689,2.689,0,0,0,2.7-2.7.7.7,0,1,1,1.4,0,2.689,2.689,0,0,0,2.7,2.7.7.7,0,0,1,0,1.4,2.689,2.689,0,0,0-2.7,2.7A.842.842,0,0,1,174.1,70.7Z" fill="#fff"/><circle cx="2.1" cy="2.1" r="2.1" transform="translate(159.2 44.8)" fill="#fff"/><circle cx="2.1" cy="2.1" r="2.1" transform="translate(220.1 46.9)" fill="#fff"/><path d="M172.2,47.5,185.9,46l-9.7-6.7Z" fill="#7cd36a"/><path d="M208.5,33.1l13.8-1.5-9.8-6.7Z" fill="#7cd36a"/><path d="M57.7,189.2l12.6-40.6,35.5,3.1,5.4,42.2a27.5,27.5,0,0,1-24.4,30.8l-3.5,26,13.1,13.7-36.7-3.2L75.2,250l1.1-26.2A27.518,27.518,0,0,1,57.7,189.2Z" fill="aqua"/><circle cx="15.7" cy="15.7" r="15.7" transform="translate(88.2 139)" fill="#ffed00"/><path d="M66.3,177.2l38.6,3.4,1.7,13.6A22.853,22.853,0,0,1,82,219.8h0a22.835,22.835,0,0,1-19.8-29.5Z" fill="#ffed00"/><path d="M83.6,187l-2.4-30.8-7.1-2.7,6.9-7.1-8.6-2,7-6.7-.9-14.5" fill="none" stroke="#ff6300" stroke-linecap="round" stroke-linejoin="round" stroke-miterlimit="10" stroke-width="4.143"/><ellipse cx="5.2" cy="7.7" rx="5.2" ry="7.7" transform="translate(51.537 188.312) rotate(-84.966)" fill="#7cd36a"/><ellipse cx="5.2" cy="7.7" rx="5.2" ry="7.7" transform="translate(49.28 198.551) rotate(-84.966)" fill="#7cd36a"/><ellipse cx="5.2" cy="7.7" rx="5.2" ry="7.7" transform="translate(48.384 208.666) rotate(-84.966)" fill="#7cd36a"/><circle cx="6.4" cy="6.4" r="6.4" transform="translate(99 207.3)" fill="#7cd36a"/><path d="M321.2,178.6,252,244.3s3.3,25.3,61.3,28.3L322,179Z" fill="#fff"/><g clip-path="url(#b)"><path d="M348.2,252.7s-46-.9-98.3,27.7" fill="none" stroke="#ffed00" stroke-miterlimit="10" stroke-width="8"/><path d="M349.3,238.8s-46-.9-98.3,27.7" fill="none" stroke="#ffed00" stroke-miterlimit="10" stroke-width="8"/><path d="M350.4,224.9s-46-.9-98.3,27.7" fill="none" stroke="#ffed00" stroke-miterlimit="10" stroke-width="8"/><path d="M351.6,210.9s-46-.9-98.3,27.7" fill="none" stroke="#ffed00" stroke-miterlimit="10" stroke-width="8"/><path d="M352.7,197s-46-.9-98.3,27.7" fill="none" stroke="#ffed00" stroke-miterlimit="10" stroke-width="8"/><path d="M353.8,183.1s-46-.9-98.3,27.7" fill="none" stroke="#ffed00" stroke-miterlimit="10" stroke-width="8"/></g><path d="M337.7,178.6c0,1.6-2.2,2.8-2.7,4.2-.5,1.5.6,3.7-.3,5-.9,1.2-3.4.9-4.6,1.8s-1.7,3.4-3.2,3.8c-1.4.5-3.2-1.2-4.8-1.2s-3.4,1.7-4.8,1.2c-1.5-.5-1.9-2.9-3.2-3.8-1.2-.9-3.7-.6-4.6-1.8s.2-3.5-.3-5c-.5-1.4-2.7-2.6-2.7-4.2s2.2-2.8,2.7-4.2c.5-1.5-.6-3.7.3-5,.9-1.2,3.4-.9,4.6-1.8s1.7-3.4,3.2-3.8c1.4-.5,3.2,1.2,4.8,1.2s3.4-1.7,4.8-1.2c1.5.5,1.9,2.9,3.2,3.8,1.2.9,3.7.6,4.6,1.8s-.2,3.5.3,5C335.5,175.8,337.7,177,337.7,178.6Z" fill="#fff"/><path d="M304.4,270.1s6.2,74.9-57.2,83.4" fill="none" stroke="#070117" stroke-linecap="round" stroke-linejoin="round" stroke-width="3"/></g></svg>