<svg xmlns="http://www.w3.org/2000/svg" xmlns:xlink="http://www.w3.org/1999/xlink" width="348.656" height="559.848" viewBox="0 0 348.656 559.848"><defs><clipPath id="a"><rect width="348.656" height="559.848" transform="translate(0 689.827)" fill="none"/></clipPath><clipPath id="b"><path d="M152.3,1087.811l91.53-12.261-29.619-59.466-66.281,62.038Z" fill="none"/></clipPath></defs><g transform="translate(0 -689.827)" clip-path="url(#a)"><circle cx="39.71" cy="39.71" r="39.71" transform="translate(68.858 716.004)" fill="aqua"/><circle cx="65.363" cy="65.363" r="65.363" transform="translate(204.639 1090.781)" fill="#fff"/><circle cx="25.101" cy="25.101" r="25.101" transform="translate(251.086 895.83)" fill="#ff6300"/><path d="M-10.248,902.911-93.12,920.327l31.93,84.191,10.818-.744L-62.536,938.2s57.693,4.7,60.54-6.13Z" fill="#ffed00"/><path d="M-50.372,1003.774l-15.478,21.4-24.5-22.922a13.231,13.231,0,0,1,13.746,4.256c7.5-13.4,17.376-6.546,17.376-6.546Z" fill="#d19570"/><ellipse cx="3.767" cy="7.64" rx="3.767" ry="7.64" transform="matrix(0.396, -0.918, 0.918, 0.396, 119.018, 836.894)" fill="#ff9d5c"/><path d="M102.959,774.258c18.506,4.916,39.313-16.982,81.39-7.109,0,0-11.069,41.093-30.675,50.188S115.949,806,115.949,806" fill="#a97261"/><path d="M178.633,771.544s-42.127,5.22-57.974,29.464c0,0,12.047,20.6,30.254,14.449S178.633,771.544,178.633,771.544Z" fill="#94503b"/><path d="M149.18,778.422s10.316.887,8.781,4.729-18.083,4.058-18.083,4.058,6.054,3.365,3.411,8.384-14.411,2.585-14.411,2.585,9.683,2.3,9.49,6.539-9.338,7.908-9.338,7.908L117.2,798.845S132.548,781.961,149.18,778.422Z" fill="#a97261"/><path d="M186.141,895.267,199.2,879.29c-8.732-15.831,16.8-22.395,17.5-15.495.352,3.45-8.864,2.935-10.377,5.978-1.7,3.428,1.773,7.759,5.915,9.528,3.919,1.675,8-1.9,8.377-4.379.69-4.592-4.232-8.1-2.64-10.692,3.96-6.433,17.448,10.763,4.316,19.689,13.267,7.02,20.633-8.832,23.91-3.4s-10.653,18.589-25.667,11.571c2.166,9.051,9.839,6.688,8.97,11.017-.847,4.22-12.376,1.539-21.01-14.326l-13.367,19.745Z" fill="#d19570"/><path d="M84.749,933.909c48.023,20.068,110.037-53.448,110.037-53.448l14.635,12.724S168.186,985.7,57.992,977.161Z" fill="#ffed00"/><path d="M210.342,894.361l-3.8-1.3,14.888-49.148,7.177,2.45Z" fill="#d6c6f8"/><path d="M220.906,863.608l-3.919-1.337s-32.033-17.315-24.017-42.916l73.307,24.6C257.564,866.581,220.906,863.608,220.906,863.608Z" fill="#d6c6f8"/><path d="M221.955,858.283c4.044.2,26.876.752,36.456-11.291l-61.293-20.57c-.829,16.949,19.167,29.225,22.085,30.922Z" fill="#fff"/><path d="M224.617,912.049l-38.476-13.264,21.257-8.83,4.169,1.423Z" fill="#d6c6f8"/><path d="M225.918,853.825" fill="none" stroke="#070117" stroke-linecap="round" stroke-linejoin="round" stroke-width="3"/><path d="M248.791,831.029c1.166-1.211,2.322-2.554,3.912-3.1s3.744.141,4.076,1.788a6.981,6.981,0,0,1-.532,2.939c-.237.977-.061,2.26.884,2.6,1.1.4,2.082-.774,2.65-1.792,3.01-5.4,5.831-11.345,11.088-14.607,1.656-1.028,3.831-1.726,5.5-.725a4.275,4.275,0,0,1,1.834,3.778,10.609,10.609,0,0,1-1.209,4.2c-4.96,10.661-13.959,18.972-23.789,25.425-2.5,1.64-5.187,3.22-8.166,3.466a16.82,16.82,0,0,1-6.855-1.227,57.7,57.7,0,0,1-9.2-4.16,11.934,11.934,0,0,1-3.23-2.392,29.819,29.819,0,0,1-2.755-3.762c-1.026-1.668-.246-1.315,1.713-1.427a36.7,36.7,0,0,0,24.073-11.006Z" fill="#fff"/><path d="M274.059,802.623a5.76,5.76,0,0,0,.57-2.2,4.5,4.5,0,0,0-2.845-3.738,4.628,4.628,0,0,0-1.859-.484,4.184,4.184,0,0,0-3.1,1.486,8.242,8.242,0,0,0-1.621,3.118c-.916,2.964-.97,6.125-1.676,9.146a48.017,48.017,0,0,1-2.847,7.782c-.229.537-.358,1.335.185,1.551.386.153.789-.153,1.093-.437C266.963,814.16,271.477,809.086,274.059,802.623Z" fill="#fff"/><path d="M41.115,1093.274c-6.8,37.792-29.818,43.234-61.065,37.613s-58.89-20.175-52.092-57.967,37.639-63.872,68.887-58.252S47.913,1055.482,41.115,1093.274Z" fill="#070117"/><path d="M88.976,937.422c-7.639,1.736-24.037,48.47-50.307,40.512C-35.39,955.5-6.109,907.052-6.109,907.052L6.61,914.413,31.3,854.126,76.157,876.64l-9.694,52.987Z" fill="#d19570"/><path d="M71.023,906.8c-17.988-10.014-35.234-21.325-46.563-35.967l6.841-16.7L76.157,876.64Z" fill="#94503b"/><path d="M79.605,762.145c38.25,10.691,54.773,36.36,46.34,59.685-5.881,16.266,12.184,21.951,21.964,27.54l-8.346,6.122-73.654-16.7,14.706,48.924,27.342,5.1c-8.048,1.409-17.681.834-29.173-2.539C25.151,874.536-4.37,850.384,11.006,812.841S42.263,751.709,79.605,762.145Z" fill="#d19570"/><path d="M125.945,821.83a34.831,34.831,0,0,0,1.332-19.534c-5.069.723-11.423,4.661-16.353,17.66-20.743-49.885-52.768-50.565-73.62-27.685-45.48,49.9,9.669,86.275,9.669,86.275l20.424-34.8-1.488-4.951,3.878.879,4.882-8.318,48.07,20.323,7.128,1.616,1.637-13.324C126.236,835.774,122.917,830.2,125.945,821.83Z" fill="#e8c9ac"/><path d="M66.952,799.646,29.8,785.022l-11.906,9.225,2.526,4.136,10.4-8.827,35.2,19.252Z" fill="#ffed00"/><g stroke-miterlimit="10"><path d="M 127.1321487426758 849.0072021484375 C 127.1317291259766 849.0072021484375 127.1314086914062 849.0072021484375 127.130989074707 849.0072021484375 C 123.9371948242188 849.0069580078125 120.9861145019531 848.0916748046875 118.5968017578125 846.3602294921875 C 117.2028579711914 845.35009765625 116.0190048217773 844.0732421875 115.078125 842.5650024414062 C 114.0860214233398 840.9747314453125 113.3611831665039 839.1181640625 112.9237518310547 837.0469360351562 C 111.5149307250977 830.3761596679688 114.2085418701172 823.9252319335938 117.1991119384766 820.1124267578125 C 118.3528518676758 818.6414794921875 119.6141891479492 817.448974609375 120.9480743408203 816.5681762695312 C 122.5121307373047 815.5353393554688 124.094352722168 814.986083984375 125.6507797241211 814.9356079101562 C 126.0874710083008 814.9214477539062 126.5371932983398 814.9142456054688 126.9873886108398 814.9142456054688 C 136.6761016845703 814.9142456054688 146.3256988525391 818.17236328125 146.7317352294922 818.3110961914062 L 149.0824279785156 819.1140747070312 L 148.7319946289062 821.5732421875 C 148.1575164794922 825.6046142578125 147.1688385009766 829.3676147460938 145.7934417724609 832.7576904296875 C 144.5593719482422 835.7994384765625 143.0177459716797 838.5385131835938 141.2113952636719 840.8988647460938 C 139.5861968994141 843.0225219726562 137.7915496826172 844.7884521484375 135.8773345947266 846.1476440429688 C 134.07568359375 847.4269409179688 132.2162170410156 848.2947387695312 130.4999389648438 848.6572265625 C 129.4007568359375 848.889404296875 128.267578125 849.0072021484375 127.1321487426758 849.0072021484375 Z" stroke="none"/><path d="M 127.131217956543 846.0072021484375 C 128.0880279541016 846.0072631835938 129.0167694091797 845.9043579101562 129.8800048828125 845.7219848632812 C 134.8610076904297 844.6699829101562 143.468994140625 837.2410278320312 145.7620086669922 821.1500244140625 C 145.7620086669922 821.1500854492188 135.4280700683594 817.6210327148438 125.7480010986328 817.9340209960938 C 120.6600036621094 818.0989990234375 114.0100021362305 827.6719970703125 115.859001159668 836.427001953125 C 117.3874969482422 843.6644287109375 122.5681762695312 846.0068359375 127.131217956543 846.0072021484375 M 127.1320648193359 852.0072021484375 L 127.1315994262695 852.0072021484375 C 120.3081207275391 852.0066528320312 112.221321105957 848.2391967773438 109.9885025024414 837.6668090820312 C 108.3663787841797 829.9861450195312 111.4303207397461 822.6063232421875 114.8385848999023 818.2609252929688 C 117.9402618408203 814.3064575195312 121.7455825805664 812.0606689453125 125.5535583496094 811.9371948242188 L 126.9873580932617 811.9142456054688 C 137.1686553955078 811.9142456054688 147.2761993408203 815.3268432617188 147.7015075683594 815.47216796875 L 152.4028778076172 817.0780639648438 L 151.7019958496094 821.9964599609375 C 149.1531982421875 839.882568359375 139.2461395263672 849.8761596679688 131.1198577880859 851.5924682617188 C 129.8173370361328 851.8676147460938 128.4755554199219 852.0072021484375 127.1320648193359 852.0072021484375 Z" stroke="none" fill="#ffed00"/></g><path d="M142.971,820.315A72,72,0,0,0,132.93,818.3l-17.324,16.432a14.424,14.424,0,0,0,.253,1.694,12.15,12.15,0,0,0,3.957,7.083Z" fill="#fff"/><path d="M124.856,845.806,145.057,825c.274-1.225.513-2.5.7-3.849l-.308-.1-23.427,23.862A11.411,11.411,0,0,0,124.856,845.806Z" fill="#fff"/><path d="M117.883,888.3c-37.309-5.223-54.419-2.771-40.916-47.244L64.932,834.77C49.99,871.252,72.1,888.232,72.1,888.232S109.867,907.874,117.883,888.3Z" fill="#d19570"/><path d="M147.291,860.6c-7.687,9.871-49.949,11.494-70.324-19.541,8.255-15.213,27.672-7.412,35.019-15.339-.655,14.123,43.062,24.858,43.062,24.858s6.939,3.4-1.409,16.994C152.418,869.624,146.774,873.874,147.291,860.6Z" fill="#d19570"/><path d="M46.973,878.546c-5.471-14.62-9.99-35.553,1.993-48.206,19.862-20.973,62-3.318,64.181-7.608.512,9.746,10.1,13.019,18.357,17.237,6.149,1.991,23.544,10.608,23.544,10.608s6.939,3.4-1.409,16.994c-1.221,2.053-6.865,6.3-6.348-6.972-7.663,9.84-49.683,11.48-70.13-19.255l-.26-.059c.042,37.32,16.668,39.794,40.982,47.017-8.016,19.572-45.78-.07-45.78-.07l0,0A208.741,208.741,0,0,1,46.973,878.546Z" fill="#e8c9ac"/><path d="M83.823,790.987a26.789,26.789,0,0,1,23.794,13.752" fill="none" stroke="#070117" stroke-linecap="round" stroke-miterlimit="10" stroke-width="5"/><path d="M122.886,809.918s8.1-8.052,15.3-.109" fill="none" stroke="#070117" stroke-linecap="round" stroke-miterlimit="10" stroke-width="5"/><path d="M140.216,846.893l1.941,16.631c.869.485,4.134-2.847,5.135-2.455,1.242.486.22,4.657,1.21,4.828l10.121-11.377C157.66,848.228,147,844.066,140.216,846.893Z" fill="#070117"/><path d="M153.639,867.571s-6.4,8.174-6.348-6.972c-21.654,18.107-64.376-3.218-70.324-19.541" fill="none" stroke="#070117" stroke-linecap="round" stroke-linejoin="round" stroke-width="3"/><path d="M66.568,761.753c-21.417.182-21.845-34.872-61.708-51.341,0,0-14.926,39.761-4.316,58.541S37.729,781.7,37.729,781.7" fill="#d19570"/><path d="M6.939,717.3s31.125,28.737,29.874,57.613c0,0-21.749,9.7-32.937-5.88S6.939,717.3,6.939,717.3Z" fill="#a97261"/><path d="M26.822,740.01s-8.881-5.281-9.871-1.272,12.3,13.808,12.3,13.808-6.866-.792-7.642,4.815,10.182,10.478,10.182,10.478-9.187-3.771-11.5-.217,2.973,11.844,2.973,11.844l17.606-4.295S38.25,752.554,26.822,740.01Z" fill="#d19570"/><ellipse cx="5.916" cy="12" rx="5.916" ry="12" transform="matrix(0.396, -0.918, 0.918, 0.396, 48.363, 829.194)" fill="#ff9d5c"/><path d="M34.8,966.4C28.274,934.34-8.222,931.9-8.222,931.9l5.7-24.667-7.73-4.323-17.833,29.343,5.863,53.652L-27.7,998.134l-56.479,30.793s59.342,78.26,151.09,60.869l-27.848-61.324,4.263-11.44,48.715-44.806,12.087-30.468-19.377-7.849-11.8,24.219S53.387,948.929,34.8,966.4Z" fill="#ffed00"/><g stroke-miterlimit="10"><path d="M 90.67279815673828 841.2119750976562 C 88.51065826416016 841.2119750976562 86.38327026367188 840.8519897460938 84.34973907470703 840.1419067382812 C 82.24508666992188 839.4070434570312 80.29480743408203 838.3148803710938 78.55306243896484 836.895751953125 C 76.53289794921875 835.2498168945312 74.43779754638672 833.014892578125 72.49424743652344 830.4325561523438 C 70.32241058349609 827.546875 68.42698669433594 824.36474609375 66.86061859130859 820.9745483398438 C 65.07395935058594 817.1074829101562 63.78007125854492 813.0925903320312 63.01490020751953 809.0414428710938 C 62.14405059814453 804.4306640625 61.96520233154297 799.7889404296875 62.48332214355469 795.2451171875 L 62.88521957397461 791.7205810546875 L 66.29412841796875 792.7021484375 C 66.36617279052734 792.722900390625 73.59001159667969 794.8082885742188 81.56725311279297 797.5610961914062 C 86.27822875976562 799.1868286132812 90.33751678466797 800.7274780273438 93.63236236572266 802.1402587890625 C 97.98458862304688 804.0064697265625 100.986930847168 805.6361083984375 102.8109436035156 807.1222534179688 C 104.8195571899414 808.7587890625 106.4484024047852 810.7413330078125 107.652214050293 813.0147705078125 C 108.8141937255859 815.209228515625 109.5317077636719 817.5792236328125 109.7848587036133 820.0589599609375 C 110.0380096435547 822.5386962890625 109.8141937255859 825.0047607421875 109.1195983886719 827.3887329101562 C 108.3999938964844 829.8585815429688 107.2053070068359 832.1293334960938 105.5687637329102 834.137939453125 C 101.9064788818359 838.633544921875 96.47705841064453 841.2119750976562 90.67279815673828 841.2119750976562 Z" stroke="none"/><path d="M 90.67279815673828 838.2119750976562 C 95.37612915039062 838.2119750976562 100.0406341552734 836.1740112304688 103.2430038452148 832.2429809570312 C 108.8949966430664 825.3060302734375 107.8529968261719 815.0999755859375 100.9160003662109 809.447998046875 C 93.97900390625 803.7960205078125 65.46399688720703 795.5850219726562 65.46399688720703 795.5850219726562 C 63.40900039672852 813.6069946289062 73.51100158691406 828.9180297851562 80.447998046875 834.5700073242188 C 83.45456695556641 837.0196533203125 87.07499694824219 838.2119750976562 90.67279815673828 838.2119750976562 M 90.67279052734375 844.2119750976562 C 85.5850830078125 844.2119750976562 80.60791778564453 842.439697265625 76.65812683105469 839.2215576171875 C 68.48975372314453 832.5662841796875 57.18025207519531 815.2721557617188 59.50262451171875 794.9052734375 L 60.30643844604492 787.8560791015625 L 67.124267578125 789.8192749023438 C 72.08277130126953 791.2471313476562 97.19824981689453 798.6795654296875 104.7058792114258 804.7964477539062 C 109.3033981323242 808.5422973632812 112.1670455932617 813.8544311523438 112.7693557739258 819.7542724609375 C 113.3716659545898 825.6541748046875 111.6404190063477 831.4353637695312 107.8945236206055 836.0328979492188 C 103.6602096557617 841.230712890625 97.38301849365234 844.2119750976562 90.67279052734375 844.2119750976562 Z" stroke="none" fill="#ffed00"/></g><path d="M104.47,813.5,76.9,831.1a30.411,30.411,0,0,0,3.547,3.472c.071.058.145.111.217.168l25.706-16.772A16.148,16.148,0,0,0,104.47,813.5Z" fill="#fff"/><path d="M101.666,810.1c-.243-.223-.491-.443-.75-.654-2.92-2.378-9.661-5.21-16.49-7.693L66.665,811.6A49.707,49.707,0,0,0,73.9,827.252Z" fill="#fff"/><path d="M110.579,816.88c2.234,3.009,4.713,3.119,6.589,1.24,0,0-6.009,10.306,2.638,15.578-4.108-1.529-4.454-5.974-7.152-6.945s-1.732,2.764-5.07,7C107.584,833.756,108.346,813.872,110.579,816.88Z" fill="#ffed00"/><path d="M217.193,1117.575l-7.835-21.274-17.8-9.95,6.3-11.209-7.086-34.9a2.408,2.408,0,0,1,2.615-2.872h0a2.408,2.408,0,0,1,1.97,1.479L204.05,1060l19.536.518,2.26,19.756-4.159,7.993,11.324,19.977Z" fill="#ff6300"/><path d="M10.041,1560.948a95.71,95.71,0,0,1-21.086-3,10.978,10.978,0,0,1-7.687-13.489,10.98,10.98,0,0,1,13.489-7.688c7.565,2.035,29.568,5.256,40.1-4.215,6.282-5.651,8.275-16.038,5.925-30.869-1.733-10.934-5.8-23.527-10.1-36.859-7.944-24.618-16.948-52.521-14.75-80.717,2.608-33.445,20.225-60.531,53.859-82.8a10.979,10.979,0,0,1,12.123,18.307c-61.81,40.934-45.81,90.519-30.336,138.471,4.572,14.166,8.89,27.547,10.889,40.165,3.6,22.7-.776,39.75-12.994,50.691C38.033,1559.179,22.536,1561.323,10.041,1560.948Z" fill="#ff6300"/><path d="M-18.732,1544.456a10.978,10.978,0,0,0,7.687,13.489A93.285,93.285,0,0,0,4.1,1560.578l-5.845-5.469,11.336-4.2-11.041-5.669,10.327-6.363-.005,0a73.413,73.413,0,0,1-14.115-2.108A10.98,10.98,0,0,0-18.732,1544.456Z" fill="#070117"/><path d="M50.984,1458.936c-7.626,4.092-14.078,6.249-20.046,6.694.982,3.043,1.951,6.051,2.878,9,6.414-.815,13.162-3.148,20.768-7.147q-1.4-4.424-2.863-8.952C51.475,1458.668,51.229,1458.805,50.984,1458.936Z" fill="#070117"/><path d="M61.892,1495.056q-.979-5.264-2.39-10.7c-5.2,5.6-10.6,10.151-16.969,11.118-.905.137-1.884.2-2.9.263.439,2.023.839,4.018,1.144,5.944.174,1.1.317,2.166.443,3.217.881-.063,1.776-.143,2.7-.285C51.059,1503.533,57.018,1499.524,61.892,1495.056Z" fill="#070117"/><path d="M46.381,1356.165a78.811,78.811,0,0,1,5.078-8.211c-.432-.1-.87-.195-1.3-.311a36.729,36.729,0,0,1-17.682-10.995q-2.725,3.992-5,8.146A46.176,46.176,0,0,0,46.381,1356.165Z" fill="#070117"/><path d="M39.551,1525.7l19.651,9.92a46.528,46.528,0,0,0,2.971-8.856L41.6,1516.376A30.739,30.739,0,0,1,39.551,1525.7Z" fill="#070117"/><path d="M37.436,1415.266c.752-.112,1.482-.259,2.2-.416-.559-3.062-1.024-6.118-1.376-9.166-.745.177-1.478.332-2.2.439-6.556.984-13.139-1.321-20.169-4.81.239,3.58.618,7.144,1.117,10.688C23.252,1414.573,30.224,1416.346,37.436,1415.266Z" fill="#070117"/><path d="M46.09,1320.38q-3.375,3.361-6.371,6.851a130.126,130.126,0,0,0,19.636,11.074c2.192-2.342,4.566-4.663,7.159-6.962A121.259,121.259,0,0,1,46.09,1320.38Z" fill="#070117"/><path d="M24.012,1428.623l-1.456.09c-.763.046-1.551.1-2.349.158q1.073,4.593,2.3,9.108l.6-.037,1.52-.094a73.16,73.16,0,0,0,19.538-3.807q-1.257-4.492-2.348-8.982A63.068,63.068,0,0,1,24.012,1428.623Z" fill="#070117"/><path d="M36.466,1549.331a24.96,24.96,0,0,1-11.219-11.848,44.66,44.66,0,0,1-9.412,1.416A34.035,34.035,0,0,0,32.3,1557.583c.308.156.623.3.936.44a45.92,45.92,0,0,0,12.6-6.214A24.136,24.136,0,0,1,36.466,1549.331Z" fill="#070117"/><path d="M23.3,1377.9a114.97,114.97,0,0,1,15.6-.436,74.684,74.684,0,0,1,2.34-9.209l-2.164-.034a123.78,123.78,0,0,0-16.878.5q-2.108.253-4.054.673A100.951,100.951,0,0,0,16.4,1379.51,31.613,31.613,0,0,1,23.3,1377.9Z" fill="#070117"/><path d="M123.989,1155.014c40.638-27.066,106.024,13.154,106.024,13.154L208.9,1100.2l19.545-4.806,48.811,93.836-8.369,15.837-130.641-13.2Z" fill="#00c2ff"/><path d="M157.512,1647.818l-21.437-.643-4.839-35.088,21.437.643Z" fill="#ff6300"/><path d="M141.661,1146.969l-9.843.962s-53.077,173.976-41.463,241.652c6.146,35.8,146.352-.242,147.41-35.4.672-22.331-46.782-168.958-59.918-189.587A38.456,38.456,0,0,0,141.661,1146.969Z" fill="aqua"/><path d="M173.582,1252.69c-1.138,37.817-22.735,46.464-53.935,45.525s-60.188-11.108-59.05-48.926,27.353-67.713,58.553-66.774S174.721,1214.872,173.582,1252.69Z" fill="#070117"/><path d="M53.99,1261.321l77.488,365.866,25.144.754L120.8,1268.852Z" fill="#070117"/><path d="M173.079,1623.46l8.88-22.432-16.516-13.435-9.717,20.334C158.349,1634.537,173.079,1623.46,173.079,1623.46Z" fill="#ff6300"/><path d="M156.643,1605.137s.914,13.094,18.284,13.656c2.145,24.541,22.9,27.557,14.271,44.289,0,0-9.3-1.944-24.819-16.343-13.61-12.626-18.089-18.925-23.2-35.232C152.073,1605.772,156.643,1605.137,156.643,1605.137Z" fill="#fff"/><line x1="10.97" y2="0.191" transform="translate(170.235 1626.222)" fill="none" stroke="#070117" stroke-linecap="round" stroke-linejoin="round" stroke-width="3"/><line x1="10" y2="4.514" transform="translate(173.485 1632.884)" fill="none" stroke="#070117" stroke-linecap="round" stroke-linejoin="round" stroke-width="3"/><path d="M125.795,1274.064l82.188,161.649-48.916,162.162a30.638,30.638,0,0,0,20.794,15.671l74.583-180.033L175.309,1237.1Z" fill="#070117"/><path d="M59.183,1260.17s64.7,6.53,126.177-8.9c-3.1-35.707-11.831-62.909-19.306-80.52a34.47,34.47,0,0,0-35.617-20.8l-65.449,7.421Z" fill="#fff"/><path d="M143.97,1150s14.845,34.542-11.91,42.558-48.767-37.266-48.767-37.266" fill="none" stroke="#ffede2" stroke-linecap="round" stroke-linejoin="round" stroke-width="3"/><path d="M141.337,1154.7c-17.82,16.778-52.1,6.747-52.1,6.747l2.772-92.132,39.227,5.478Z" fill="#ff6300"/><path d="M89.787,1143.2c14.956,2.008,31.839,2.543,50.325,1.814l-8.875-70.219-39.227-5.478Z" fill="#cc4000"/><path d="M188.276,1057.44l7.171-6.466c-7.968-14.123-39.7-61.947-98.358-49.6-62.787,13.216-73.253,82.985-74.882,100.056l14.25-1.487L26.1,1109.023c12.734,10.82,53.711,39.864,110.648,23.106,52.236-15.375,59.551-63.326,60.559-74.827C194.334,1057.231,188.276,1057.44,188.276,1057.44Z" fill="#ff6300"/><path d="M88.952,1148.328s-28.023-.844-47.379-.178c0,0,12.388,181.109,9.927,262.875,0,0,65.782,8.266,66.841-26.894S88.952,1148.328,88.952,1148.328Z" fill="aqua"/><path d="M57.19,1308.778s28.584-7.356,37.519-33.164" fill="none" stroke="#00c2ff" stroke-linecap="round" stroke-linejoin="round" stroke-width="3"/><path d="M91.54,1007.835S71.17,996.867,76.148,990.29c3.44-4.544,14.045,6.574,14.045,6.574s-7.12-17.292-.688-21.135c6.63-3.961,10.919,9.013,10.919,9.013s3.869-11.295,10.171-8.461c4.824,2.169-7.827,27.527-7.827,27.527" fill="#ff6300"/><path d="M76.148,990.29c3.44-4.544,14.045,6.574,14.045,6.574s-7.12-17.292-.688-21.135c6.63-3.961,10.919,9.013,10.919,9.013" fill="none" stroke="#cc4000" stroke-linecap="round" stroke-linejoin="round" stroke-width="3"/><path d="M111.93,981.156s-2.183,12.632-9.162,22.652" fill="none" stroke="#cc4000" stroke-linecap="round" stroke-miterlimit="10" stroke-width="3"/><path d="M157.6,1641.119s3.432,3.712,5.843,21.191l-68.467-2.053c-2.528-18.331,30.563-14.155,39.641-19.827C149.182,1645.962,157.6,1641.119,157.6,1641.119Z" fill="#fff"/><line x1="1.395" y1="11.017" transform="translate(130.042 1637.715)" fill="none" stroke="#070117" stroke-linecap="round" stroke-linejoin="round" stroke-width="3"/><line x1="5.625" y1="10.299" transform="translate(119.38 1640.33)" fill="none" stroke="#070117" stroke-linecap="round" stroke-linejoin="round" stroke-width="3"/><path d="M74.016,1014.157s-30.024-18-62.525-7.333c4.508,35.174,29.59,53.4,29.59,53.4Z" fill="#ff6300"/><path d="M38.7,1003.667a70.234,70.234,0,0,0-27.21,3.157,81.868,81.868,0,0,0,8.182,26.635l-1.326-8.277,11.575.074-4.111-14.974,14.577-2.334Z" fill="#070117"/><path d="M64.362,1023.115s-21.073-12.632-43.885-5.146a58.017,58.017,0,0,0,20.769,37.48S45.263,1034.106,64.362,1023.115Z" fill="#cc4000"/><path d="M29.2,1068.317,57.9,1079.273l-31.583-1.054Z" fill="#070117"/><path d="M24.448,1086.457l33.042,1.178L22.952,1095.2Z" fill="#070117"/><path d="M178.429,1028.017l-21.453,21.208L185.1,1035.7C183.118,1033.209,180.9,1030.619,178.429,1028.017Z" fill="#070117"/><path d="M190.124,1042.485l-29.4,14.227,34.066-6.882C193.623,1047.823,192.07,1045.312,190.124,1042.485Z" fill="#070117"/><path d="M119.319,1001.051s17.959-30.048,51.642-36c12.645,33.131-.85,61.045-.85,61.045Z" fill="#ff6300"/><path d="M145.487,975.12a70.248,70.248,0,0,1,25.474-10.073,81.909,81.909,0,0,1,5.373,27.34l-2.742-7.921L163.425,990l-3.452-15.139-13.95,4.83Z" fill="#070117"/><path d="M132.06,1004.385s12.6-21.09,36.246-25.27a58.014,58.014,0,0,1-.6,42.845S154.086,1005.048,132.06,1004.385Z" fill="#cc4000"/><path d="M100.223,1057.793l-6.82,1.092,5.8,36.242a4.323,4.323,0,0,1-3.585,4.953h0a4.323,4.323,0,0,1-4.952-3.585l-5.8-36.243" fill="none" stroke="#ffed00" stroke-linecap="round" stroke-linejoin="round" stroke-width="3"/><path d="M176.126,1085.656c2.992,18.683-13.684,23.622-34.693,26.986s-38.393,3.88-41.385-14.8,11.614-36.557,32.622-39.921S173.134,1066.972,176.126,1085.656Z" fill="#ffede2"/><path d="M152.106,1087.8l91.724-12.246-29.619-59.466L147.8,1078.269Z" fill="aqua"/><g clip-path="url(#b)"><path d="M175.242,1009.909s34.763,29.013,92.476,39.23" fill="none" stroke="#ffed00" stroke-miterlimit="10" stroke-width="8"/><path d="M165.8,1019.906s34.764,29.012,92.476,39.229" fill="none" stroke="#ffed00" stroke-miterlimit="10" stroke-width="8"/><path d="M156.367,1029.9s34.764,29.012,92.476,39.23" fill="none" stroke="#ffed00" stroke-miterlimit="10" stroke-width="8"/><path d="M146.93,1039.9s34.764,29.013,92.476,39.23" fill="none" stroke="#ffed00" stroke-miterlimit="10" stroke-width="8"/><path d="M137.493,1049.894s34.763,29.013,92.476,39.23" fill="none" stroke="#ffed00" stroke-miterlimit="10" stroke-width="8"/><path d="M128.056,1059.891s34.763,29.012,92.476,39.229" fill="none" stroke="#ffed00" stroke-miterlimit="10" stroke-width="8"/></g><ellipse cx="10.816" cy="33.217" rx="10.816" ry="33.217" transform="translate(205.308 1020.518) rotate(-26.477)"/><path d="M246.244,1026.362c2.255-3.728,5.621-6.86,9.89-7.733,6.44-1.315,10.98,3.668,18.749,1,5.968-2.046,9.884-7.751,12.266-13.594" fill="none" stroke="#ffed00" stroke-linecap="round" stroke-miterlimit="10" stroke-width="4"/><path d="M229.341,1010c3.135-.406,6.461-.895,8.866-2.946,2.658-2.266,3.591-5.93,4.138-9.379a31.921,31.921,0,0,0,.479-5.42c-.022-1.545-.222-3.089-.139-4.632.337-6.216,5.316-11.418,11.044-13.855" fill="none" stroke="#ff6300" stroke-linecap="round" stroke-miterlimit="10" stroke-width="4"/><path d="M296.59,1067.476a14.434,14.434,0,0,0-10.715-5.677,18.447,18.447,0,0,0-11.75,3.582c-1.211.869-2.334,1.867-3.62,2.62a11.707,11.707,0,0,1-14.722-2.915" fill="none" stroke="#ff6300" stroke-linecap="round" stroke-miterlimit="10" stroke-width="4"/><line y1="19.898" x2="25.57" transform="translate(262.096 985.347)" fill="none" stroke="aqua" stroke-linecap="round" stroke-miterlimit="10" stroke-width="4"/><line y1="0.901" x2="28.433" transform="translate(282.374 1040.563)" fill="none" stroke="#fff" stroke-linecap="round" stroke-miterlimit="10" stroke-width="4"/><circle cx="6.396" cy="6.396" r="6.396" transform="translate(253.757 1034.618)" fill="aqua"/><circle cx="4.523" cy="4.523" r="4.523" transform="translate(248.464 969.319)" fill="#ffed00"/><circle cx="4.523" cy="4.523" r="4.523" transform="translate(221.475 1029.973)" fill="#ff6300"/><path d="M96.232,1033.651s3.4-8.356,12.337-7.911" fill="none" stroke="#070117" stroke-linecap="round" stroke-miterlimit="10" stroke-width="5"/><path d="M136.941,1019s8.052-4.072,14.5,2.129" fill="none" stroke="#070117" stroke-linecap="round" stroke-miterlimit="10" stroke-width="5"/><path d="M126.81,1067.564l11.613,5.887a1.254,1.254,0,0,0,1.509-.291l8.034-9.153a1.259,1.259,0,0,0-.924-2.086,52.853,52.853,0,0,0-20.131,3.359A1.253,1.253,0,0,0,126.81,1067.564Z" fill="#070117"/><path d="M111.958,1051.57c2.593-1.189,8.542-1.071,9.787,3.154a7.628,7.628,0,0,0-7.278,4.063" fill="none" stroke="#070117" stroke-linecap="round" stroke-linejoin="round" stroke-width="3"/><path d="M149.667,1042.516c-2.772.676-7.365,4.46-5.72,8.545a7.629,7.629,0,0,1,8.229-1.328" fill="none" stroke="#070117" stroke-linecap="round" stroke-linejoin="round" stroke-width="3"/><circle cx="14.014" cy="14.014" r="14.014" transform="translate(100.723 1040.621)" fill="none" stroke="#ffed00" stroke-linecap="round" stroke-linejoin="round" stroke-width="3"/><path d="M225.3,1106.636" fill="#ffede2"/><path d="M137.377,1078.845c2.978,2.237,13.921-6.139,13.054,3.168,7.736,6.975-2.911,12.925-2.911,12.925" fill="#ffede2" stroke="#070117" stroke-linecap="round" stroke-linejoin="round" stroke-width="3"/><path d="M211.21,1097.371l-21.868-11.962,3.858-11.117,12.18-3.82c2.6,3.916-6.634,11.432-6.634,11.432s7.205-4.2,14.358,4.648" fill="#ff6300" stroke="#cc4000" stroke-miterlimit="10" stroke-width="1"/><path d="M-21.872,1037.874l-1.576-16.783s9.436-6.517,10.076-10.61-7.289-1.785-7.289-1.785,9.96-19.86-8.182-24.632-21.647,28.87-8.849,36.847l1.1,21.028Z" fill="#ff6300"/><line x1="6.028" y2="21.695" transform="translate(-26.649 988.938)" fill="none" stroke="#cc4000" stroke-linecap="round" stroke-linejoin="round" stroke-width="3"/><line x1="1.893" y2="23.789" transform="translate(-34.349 983.612)" fill="none" stroke="#cc4000" stroke-linecap="round" stroke-linejoin="round" stroke-width="3"/><path d="M65,1153.523c-77.427-33.873-83.673-128.349-83.673-128.349l-21.6,4.025s.74,125.065,86.808,163.8C72.359,1172.466,65,1153.523,65,1153.523Z" fill="aqua"/></g></svg>