<svg xmlns="http://www.w3.org/2000/svg" xmlns:xlink="http://www.w3.org/1999/xlink" width="336.439" height="547.858" viewBox="0 0 336.439 547.858"><defs><clipPath id="a"><rect width="336.439" height="547.858" fill="none"/></clipPath></defs><g clip-path="url(#a)"><circle cx="39.71" cy="39.71" r="39.71" transform="translate(163.273 398.053)" fill="aqua"/><circle cx="61.383" cy="61.383" r="61.383" transform="translate(95.291 52.114)" fill="#ff6300"/><circle cx="20.088" cy="20.088" r="20.088" transform="translate(20.041 251.92)" fill="#ffed00"/><path d="M209.167,203.624c-27.03,12.889-37.5,30.861-37.5,30.861-11.833-11.839-33.968-23.638-69.719-33.529L91.871,217.373l82.726,68.38s64.967-31.874,73.227-60.685C247.824,225.068,236.2,190.735,209.167,203.624Z" fill="#7cd36a"/><path d="M249.074,224.145c-17.591-54.124-61.729-12.846-61.729-12.846s3.327,40.22,33.91,50.057C221.255,261.356,254.962,242.261,249.074,224.145Z" fill="#00d1d8"/><path d="M382.81,314.721c95.386-37.74,40.826-164.148,40.826-164.148s22.361,17.944,28.7,15.438-15.341-67.742-47.094-55.179-71.379,140.205-71.379,140.205S334.609,303.725,382.81,314.721Z" fill="#7cab6a"/><path d="M423.636,150.573l-5.631-10.864c3.306-1.308,14.674,7.86,19.873,21A52.948,52.948,0,0,1,423.636,150.573Z" fill="#60994a"/><path d="M415.927,249.451c20.016,50.591-18.013,68.749-66.237,87.829s-88.382,31.857-108.4-18.734,2.851-107.07,51.075-126.15S395.91,198.86,415.927,249.451Z" fill="#7cd36a"/><path d="M236.392,292.122l4.83-41.98L186.11,57.465,168.9,58.585l2.8-29.638,28.188-11.153L256.724-4.694s8.6,3.95,31.615,29.381C317.4,56.8,363.37,119.781,413.149,245.594Z" fill="#7cd36a"/><path d="M139.981,90.392s30.709,3.243,25.481,49L255.3,112.976l.833-62.746-71.388,9.853Z" fill="#070117"/><path d="M84.21,122.689s6.578,6.814,8.714,5.969-.541-11.357-.541-11.357Z" fill="#fff"/><path d="M109.018,112.021s3.2,8.913,5.5,9.018,4.166-10.579,4.166-10.579Z" fill="#fff"/><path d="M147.359,100.5s3.2,8.913,5.5,9.018,4.166-10.579,4.166-10.579Z" fill="#fff"/><path d="M212.285,69.974s.619,13.015,3.594,14.08,9.747-12.233,9.747-12.233Z" fill="#fff"/><path d="M176.216,89.626s7.955,5.139,9.843,3.83S182.95,82.52,182.95,82.52Z" fill="#fff"/><path d="M244.938,64.867s10.945,7.07,13.542,5.27S254.2,55.091,254.2,55.091Z" fill="#fff"/><path d="M163.441,95.688s4.323,5.712,6,5.271.622-8.577.622-8.577Z" fill="#fff"/><path d="M177.085,132.093s-.762-9.44-2.949-10.142-6.787,9.121-6.787,9.121Z" fill="#fff"/><path d="M221.439,119.375s-4.991-8.05-7.257-7.675-1.87,11.215-1.87,11.215Z" fill="#fff"/><path d="M146.387,135.046s-6.335-7.04-8.5-6.271.141,11.369.141,11.369Z" fill="#fff"/><path d="M160.3,132.535s-2.679-6.643-4.416-6.656-2.843,8.115-2.843,8.115Z" fill="#fff"/><path d="M236.457,113.271s-3.76-6.1-5.474-5.818-1.436,8.478-1.436,8.478Z" fill="#fff"/><path d="M134.01,103.375s1.77,6.941,3.49,7.186,3.9-7.665,3.9-7.665Z" fill="#fff"/><path d="M233.118,71.894s4.315,8.86,6.7,8.711,3.121-11.411,3.121-11.411Z" fill="#fff"/><path d="M133.282,141.978s15.032,23.591,45.345,13.991c24.243,62,65.107,44.116,65.107,44.116s76.647-82.8,14.28-161.813c-24.808,4.319.213,46.029-11.217,64.973-5.776,9.574-34.293,19.023-61.09,26.028-10.818,2.828-21.652-.6-30.3,1.281C143.086,133.23,133.282,141.978,133.282,141.978Z" fill="#ffed00"/><path d="M178.627,155.969a100.926,100.926,0,0,0,10.383-5.018" fill="none" stroke="#e9c200" stroke-linecap="round" stroke-linejoin="round" stroke-width="3"/><path d="M219.361-.759s26.259,24.978,64.556.332L270.444-4.251l-4.1-20.463-27.986,4.765L233.573-5.425Z" fill="#e8c9ac"/><path d="M232.1-6.16S252.025,7.3,271.049-4.491l-.613-7.215c-17.537,7.77-38.121,2.847-38.121,2.847Z" fill="#690bd6"/><path d="M251.317,233.983l.012-29.2s33.188-74.1,100.312-100.652c32.828,45,79.129,162.022,79.129,162.022C383.939,309.888,295.4,336.241,295.4,336.241l-20.753-22.71-6.422,26.935c-14.787,2.615-31.3-3.019-31.3-3.019s-17.517-47.407,1.336-92.495l-17.133-41.813,15.924,4.5Z" fill="aqua"/><path d="M255.6,224.055l1.585-16.382c7.979,2.921,17.537,14.195,17.537,14.195,12.191-38.692,33.344-79.844,77.248-108.157" fill="none" stroke="#00d1d8" stroke-linecap="round" stroke-linejoin="round" stroke-width="3"/><path d="M247.043,230.668,235.43,211.945s-7.069,10.473-1.478,30.4c-12.366-5.811-12.824-39.208-12.824-39.208" fill="aqua" stroke="#00d1d8" stroke-linecap="round" stroke-linejoin="round" stroke-width="3"/><path d="M251.074,233.533l6.355,19.741s-6.112,26.317,15.656,57.173" fill="none" stroke="#00d1d8" stroke-linecap="round" stroke-linejoin="round" stroke-width="3"/><circle cx="1.8" cy="1.8" r="1.8" transform="translate(256.479 233.823)" fill="none" stroke="#00d1d8" stroke-linecap="round" stroke-linejoin="round" stroke-width="3"/><circle cx="1.8" cy="1.8" r="1.8" transform="translate(259.926 261.087)" fill="none" stroke="#00d1d8" stroke-linecap="round" stroke-linejoin="round" stroke-width="3"/><circle cx="1.8" cy="1.8" r="1.8" transform="translate(265.983 288.368)" fill="none" stroke="#00d1d8" stroke-linecap="round" stroke-linejoin="round" stroke-width="3"/><circle cx="1.8" cy="1.8" r="1.8" transform="translate(284.765 315.099)" fill="none" stroke="#00d1d8" stroke-linecap="round" stroke-linejoin="round" stroke-width="3"/><path d="M341.689,173.348c24.436,17.31,47.778,8.215,47.778,8.215-18.316,27.082-19.6,56.819-16.638,64.31l16.861,5.234c25.628-37.46,40.558-87.639,40.558-87.639s-59.513-41.168-88.694-34.326C341.554,129.142,317.253,156.037,341.689,173.348Z" fill="#7cd36a"/><path d="M340.138,128.5c-38.669,41.756,18.895,60.154,18.895,60.154s33.488-22.522,27.159-54.018C386.192,134.637,353.082,114.524,340.138,128.5Z" fill="#00d1d8"/><path d="M373.073,246.489,385.2,277.141l38.337-15.168s-3.133-9.324-13.223-5.186c5.932-13.242-15.023-21.332-15.023-21.332Z" fill="#7cd36a"/><path d="M203.615,40.057,113.15,88.739s.434-9-8.386-6.616S91.788,97.455,91.788,97.455,74.94,90.634,71.433,103.3c-2.284,8.246,14.664,12.39,14.664,12.39l-3.978,9.01c9.363,3.921,7.1-4.574,16.447-8.969,7.839-3.687,13.416,4.537,20.734-4.678,9.739-12.265,12.093-.837,40.685-12.149s28.949-21.215,41.636-26.234,18.68,7,39.825-1.372,16.568-33.024,16.568-33.024Z" fill="#7cd36a"/><circle cx="4.618" cy="4.618" r="4.618" transform="translate(174.052 42.878)" fill="#070117"/><circle cx="4.618" cy="4.618" r="4.618" transform="translate(210.782 28.345)" fill="#070117"/><path d="M163.029,35.657s6.587-9.127,17.286-5.953" fill="none" stroke="#070117" stroke-linecap="round" stroke-miterlimit="10" stroke-width="9"/><path d="M200.742,20.736s6.587-9.127,17.286-5.954" fill="none" stroke="#070117" stroke-linecap="round" stroke-miterlimit="10" stroke-width="9"/><path d="M108.332,92.737c-.178-2.458.35-7.389-2.108-7.21s-6.971,5.4-6.793,7.856a4.462,4.462,0,0,0,8.9-.646Z" fill="#070117"/><path d="M79.54,102.652c-1.811.317-5.512.294-5.195,2.105s4.53,4.772,6.342,4.455a3.33,3.33,0,1,0-1.147-6.56Z" fill="#070117"/><circle cx="4.792" cy="4.792" r="4.792" transform="translate(287.058 70.406)" fill="#7cab6a"/><circle cx="1.812" cy="1.812" r="1.812" transform="translate(299.01 74.61)" fill="#7cab6a"/><circle cx="1.812" cy="1.812" r="1.812" transform="translate(326.595 90.91)" fill="#7cab6a"/><circle cx="3.38" cy="3.38" r="3.38" transform="translate(295 80.222)" fill="#7cab6a"/><circle cx="3.38" cy="3.38" r="3.38" transform="translate(331.534 93.284)" fill="#7cab6a"/><path d="M108.508,208.617l-3.5-6.187c12.343-20.033-17.051-30.444-18.4-21.518-.673,4.463,7.942,4.329,9.719,8.38,2,4.563.607,10.017-4.889,12.058-5.2,1.931-10.286-2.966-10.616-6.217-.609-6.013,6.01-10.271,4.1-13.735-4.744-8.612-23.356,12.9-6.842,25.326-17.688,8.295-26.271-12.774-30.872-5.912S59.9,225.646,79.856,217.463c-3.382,11.63-13.21,8.078-12.351,13.761.837,5.539,13.265,5.909,25.482-14.175l4.808,1.793Z" fill="#7cd36a"/><path d="M30.25,193.112l2.6-23.5,27.936,0,2.175,19.63a66.806,66.806,0,0,0,18.7-12.534,18.109,18.109,0,0,1,12.379-4.858h7.464V169.6h6v6.722h-5.194a18.107,18.107,0,0,0-15.968,9.461c-5.8,10.79-18.069,26.954-39.523,26.957A16.808,16.808,0,0,1,30.25,193.112Z" fill="#b13600"/><path d="M81.663,176.7a18.109,18.109,0,0,1,12.379-4.858h7.464V169.6h6v6.722h-5.194a18.107,18.107,0,0,0-15.968,9.461c-.912,1.7-1.985,3.527-3.228,5.406l-7.428-9.469A75.169,75.169,0,0,0,81.663,176.7Z" fill="#070117"/><path d="M75.688,181.723l7.428,9.469c-.818,1.237-1.713,2.494-2.682,3.749l-7.857-11.009C73.666,183.2,74.71,182.462,75.688,181.723Z" fill="#ffed00"/><path d="M42.536,205.9s-8.276-.735-7.427-11.73l1.13-14.621" fill="none" stroke="#ffede2" stroke-linecap="round" stroke-linejoin="round" stroke-width="3"/><circle cx="11.588" cy="11.588" r="11.588" transform="translate(35.042 133.209)" fill="none" stroke="aqua" stroke-linecap="round" stroke-linejoin="round" stroke-width="3"/><circle cx="5.355" cy="5.355" r="5.355" transform="translate(18.302 116.219)" fill="none" stroke="aqua" stroke-linecap="round" stroke-linejoin="round" stroke-width="3"/><circle cx="4.593" cy="4.593" r="4.593" transform="translate(35.536 97.522)" fill="aqua"/><path d="M86.612,180.912c-.47,3.121,3.6,4,6.7,5.625l8.645-5C95.875,176.88,87.323,176.193,86.612,180.912Z" fill="#7cd36a"/><path d="M236.347,253.468l-25.771-19.187a8.616,8.616,0,0,0-8.927-.83l-17.793,8.694a8.616,8.616,0,0,0-4.356,10.568l3.648,10.5a2.477,2.477,0,0,0,4.328.666l3.9-5.24,12.713,24.371Z" fill="#a97261"/><path d="M191.376,258.64l9.794-14.769a4.1,4.1,0,0,1,6.914.119L220.878,264.8" fill="none" stroke="#94503b" stroke-linecap="round" stroke-linejoin="round" stroke-width="3"/><path d="M328.617,430.8s43.071-17.67,52.869-64.868c8.008-.449,16.215,11.713,5.32,19.524,7.874,4.572,12.984,17.578-8.605,23.307,11.005,19.614-9.333,17.151-9.333,17.151.024,25.834-28.088,16.223-28.088,16.223Z" fill="#a97261"/><path d="M149.685,347.54,137.025,333c6.785-12.4-11.168-17.734-11.7-12.338-.266,2.7,4.9,2.351,6.088,4.726a5.179,5.179,0,0,1-2.559,7.383c-3.059,1.319-6.262-1.461-6.56-3.4-.551-3.588,3.287-6.346,2.035-8.365-3.111-5.019-13.61,8.459-3.321,15.4-10.353,5.523-16.152-6.85-18.7-2.591s8.376,14.5,20.094,8.978c-1.669,7.08-7.673,5.253-6.983,8.635.673,3.3,8.14,3.135,14.847-9.289l10.946,14.816Z" fill="#a97261"/><path d="M261.965,371.613c-43.3,8.765-76.547,7.627-76.547,7.627l-42.363-43.663-11.694,10.836,41.925,61.919,101.32,1.575Z" fill="#d03900"/><path d="M164.011,409.907l-25.507,8.1a18.176,18.176,0,0,0-9.164-2.384c-5,.182-5.745,5.483-5.745,5.483L95.2,429.2a3.375,3.375,0,0,0-2.268,4.34h0a3.374,3.374,0,0,0,3.9,2.2L120.706,431s1.2,6.05,8.634,8.228,12.461-.334,12.222-2.248-4.306-2.87-4.306-2.87,9.688-2.194,7.894-5.734l24.82-5.965Z" fill="#a97261"/><path d="M130.376,344.54l2.965-1.023-11.767-38.38-5.6,1.934Z" fill="#d6c6f8"/><path d="M122.037,320.529l3.06-1.056s24.995-13.619,18.661-33.61L86.519,305.287C93.39,322.949,122.037,320.529,122.037,320.529Z" fill="#d6c6f8"/><path d="M121.2,316.369c-3.16.166-21.007.658-28.527-8.731l47.858-16.24c.693,13.246-14.906,22.895-17.182,24.229Z" fill="#690bd6"/><path d="M119.263,358.4l30.042-10.469-16.64-6.846-3.255,1.123Z" fill="#d6c6f8"/><path d="M118.093,312.894" fill="none" stroke="#070117" stroke-linecap="round" stroke-linejoin="round" stroke-width="3"/><path d="M100.154,295.134a8.377,8.377,0,0,0-3.066-2.411c-1.244-.422-2.927.119-3.182,1.408a5.474,5.474,0,0,0,.423,2.3c.189.763.054,1.766-.684,2.038-.855.315-1.629-.6-2.075-1.394-2.368-4.217-4.589-8.853-8.706-11.389-1.3-.8-3-1.34-4.305-.553a3.343,3.343,0,0,0-1.424,2.958,8.288,8.288,0,0,0,.957,3.278c3.9,8.32,10.961,14.794,18.662,19.812a14.146,14.146,0,0,0,6.392,2.688,13.151,13.151,0,0,0,5.356-.977,45.073,45.073,0,0,0,7.179-3.276,9.3,9.3,0,0,0,2.519-1.879,23.28,23.28,0,0,0,2.143-2.947c.8-1.306.189-1.029-1.343-1.111a28.693,28.693,0,0,1-18.846-8.541Z" fill="#690bd6"/><path d="M80.327,273a4.489,4.489,0,0,1-.451-1.717,3.514,3.514,0,0,1,2.214-2.929,3.628,3.628,0,0,1,1.452-.384,3.276,3.276,0,0,1,2.423,1.154,6.461,6.461,0,0,1,1.276,2.433c.724,2.315.774,4.786,1.333,7.145a37.613,37.613,0,0,0,2.247,6.076c.18.419.283,1.043-.141,1.213-.3.121-.617-.118-.855-.339C85.9,282,82.363,278.041,80.327,273Z" fill="#690bd6"/><path d="M273.394,357.289s32.439-39.077,48.564-22.678,24.358,35.443,12.189,51.465-43.164,6.527-43.164,6.527Z" fill="#d03900"/><path d="M270.32,452.8c10.767,21.616,28.18,19.569,49.8,8.8s39.249-26.175,28.483-47.791A43.726,43.726,0,1,0,270.32,452.8Z" fill="#070117"/><path d="M277.726,456.538s0,68.347,60.321,97.783l1.932-39.966,8.41-83.016L323.308,429.3Z" fill="#070117"/><path d="M360.7,430.5s-36.96,34.884-90.152,31.318c-12.27-6.158-7.395-22.337-10.626-35.237-5.746-22.939-20.288-48.261-7.54-53.152l52.311-21.934a15.989,15.989,0,0,1,21.767,6.751l18.773,42.984S365.381,419.254,360.7,430.5Z" fill="#ff6300"/><path d="M259.585,374.526c1.674-25.971,44.074-38.268,44.074-38.268l4.8,2.223s15.174,33.437-30.316,47.678C259.082,392.126,259.16,381.121,259.585,374.526Z" fill="#d03900"/><path d="M264.236,378.229c17.954,6.016,37.156-14.106,37.156-14.106l-29.028-58.279L246.58,322.4Z" fill="#a97261"/><path d="M295.565,352.424l-23.2-46.579L246.58,322.4l10.679,33.768Z" fill="#94503b"/><path d="M183.976,329.943l58.805-.663-4.308,20.467-44.747-4.423H173.739l-.734-15.917Z" fill="#690bd6"/><path d="M243.979,247.989c-36.074,8.288-45.209,31.462-49.271,54.788a73.913,73.913,0,0,0-.2,23.412L197.3,321.6l56.231.962-7.683,28.244-26.546.571c7.364,2.573,16.527,3.523,27.874,2.124,52.957-6.525,86.494-14.429,77.823-52.174S280.052,239.7,243.979,247.989Z" fill="#a97261"/><path d="M232.053,288.32c.806-1.93.656-4.177,1.583-6.052,1.175-2.378,3.862-3.664,6.486-4.054a9.026,9.026,0,0,1,6.936,1.465c2.647,2.1,3.541,6.19,6.672,7.464,1.593.648,8.62,1.32,10.2,8.2s-3.4,9.778-6.279,12.15c-5.3,4.364-14.246,7.315-20.879,4.663-4.813-1.924-6.412-7.826-7.626-12.409C227.746,294.46,230.176,292.816,232.053,288.32Z" fill="#94503b"/><path d="M193.725,345.324c35.953.856,50.612-1.8,48.877-35.231l13.9-2.8c8.426,36.677-2.722,45.189-2.722,45.189S198.246,365,193.725,345.324Z" fill="#94503b"/><path d="M213.746,345.135h50.487l.4-15.855-17.594-.928-21.109,9.054Z" fill="#690bd6"/><path d="M198.261,326.83c5.713,10.488,36.237,16.944,60.234-9.135-5.421-15.608-24.918-11.267-30.612-19.87-1.569,13.4-44.411,16.748-44.411,16.748s-5.655,8.25.1,22.351C186.134,337.565,196.693,339.415,198.261,326.83Z" fill="#94503b"/><path d="M245.577,279.574s-6.079-3.429-11.28,1.136" fill="none" stroke="#070117" stroke-linecap="round" stroke-miterlimit="10" stroke-width="5"/><path d="M220.289,283.287s-6.205-3.2-11.23,1.562" fill="none" stroke="#070117" stroke-linecap="round" stroke-miterlimit="10" stroke-width="5"/><circle cx="3.996" cy="3.996" r="3.996" transform="translate(237.528 293.144)" fill="#070117"/><circle cx="3.996" cy="3.996" r="3.996" transform="translate(212.641 295.541)" fill="#070117"/><path d="M213.171,312.959l-13.46,12.348a1.758,1.758,0,0,1-2.149.177l-14.317-9.324a1.766,1.766,0,0,1,.46-3.167,74.188,74.188,0,0,1,28.465-3.081A1.758,1.758,0,0,1,213.171,312.959Z" fill="#070117"/><path d="M183.575,336.924s12.391,4.182,14.686-10.094c17.594,20.409,57.507,1.091,60.234-9.135" fill="none" stroke="#070117" stroke-linecap="round" stroke-linejoin="round" stroke-width="3"/><path d="M264.587,381.907s1.9,14.4-17.794,9.949c-14.906-3.367-19.893,7.4-19.893,7.4" fill="none" stroke="#ffede2" stroke-linecap="round" stroke-linejoin="round" stroke-width="3"/><path d="M292.869,375.523c.893,2.533,1.948,5.269,4.262,6.633,1.559.92,3.443,1.055,5.164,1.618A13.725,13.725,0,0,1,309,389.013a30.047,30.047,0,0,1,3.717,7.784" fill="none" stroke="#ffede2" stroke-linecap="round" stroke-linejoin="round" stroke-width="3"/><path d="M275.05,383.849s3.31,36.336,21.022,77.3" fill="none" stroke="#d03900" stroke-linecap="round" stroke-linejoin="round" stroke-width="3"/><circle cx="10.326" cy="10.326" r="10.326" transform="translate(231.199 286.814)" fill="#070117"/><circle cx="10.326" cy="10.326" r="10.326" transform="translate(204.184 289.7)" fill="#070117"/><path d="M221.483,298.771l12.217-1.608,14.62-1.585,31.8-11.407,8.052,2.252" fill="none" stroke="#070117" stroke-linecap="round" stroke-linejoin="round" stroke-width="3"/><path d="M236.519,288.115a10.339,10.339,0,0,0-4.673,5.439l9.5,13.9a10.159,10.159,0,0,0,6.769-2.371Z" fill="#fff"/><path d="M241.213,286.82a10.386,10.386,0,0,0-2,.256c-.252.058-.5.135-.739.21L249.6,303.569a10.391,10.391,0,0,0,1.422-2.394Z" fill="#fff"/><path d="M209.786,290.855a10.318,10.318,0,0,0-4.813,5.234l9.741,14.261a10.414,10.414,0,0,0,2.108-.261,10.277,10.277,0,0,0,4.519-2.318Z" fill="#fff"/><path d="M214.581,289.708a10.3,10.3,0,0,0-2.383.254c-.144.033-.28.08-.421.119l11.006,16.113a10.382,10.382,0,0,0,1.369-2.474Z" fill="#fff"/><path d="M264.505,252.016l19.8-25.3a8.616,8.616,0,0,1,8.392-3.155l19.456,3.695a8.616,8.616,0,0,1,6.988,9.045l-.75,11.092a2.478,2.478,0,0,1-4,1.784l-5.143-4.027-5.838,26.86Z" fill="#a97261"/><path d="M309.249,245.148l-13.341-11.664a4.1,4.1,0,0,0-6.639,1.938l-6.854,23.444" fill="none" stroke="#94503b" stroke-linecap="round" stroke-linejoin="round" stroke-width="3"/><path d="M310.887,349.747,140.875,414.1l6.519,17.242s176.792-29.814,178.555-49.432S310.887,349.747,310.887,349.747Z" fill="#ff6300"/><path d="M254.4,409.593s65.67-15.752,70.56-21.719-1.657-21.951-1.657-21.951" fill="none" stroke="#d03900" stroke-linecap="round" stroke-linejoin="round" stroke-width="3"/><circle cx="9.065" cy="9.065" r="9.065" transform="translate(255.441 337.762)" fill="#690bd6"/><circle cx="9.065" cy="9.065" r="9.065" transform="translate(255.441 321.527)" fill="#690bd6"/><circle cx="9.065" cy="9.065" r="9.065" transform="translate(160.892 336.815)" fill="#690bd6"/><circle cx="9.065" cy="9.065" r="9.065" transform="translate(160.892 320.58)" fill="#690bd6"/></g></svg>