<svg xmlns="http://www.w3.org/2000/svg" xmlns:xlink="http://www.w3.org/1999/xlink" width="301" height="298.729" viewBox="0 0 301 298.729"><defs><clipPath id="a"><path d="M790.9,309.528l26.126,37.737-1.65,3.077-46.495-.881" transform="translate(-768.885 -309.528)" fill="none" stroke="#707070" stroke-width="1"/></clipPath></defs><g opacity="0.05"><rect width="301" height="298" fill="rgba(255,255,255,0)"/><g transform="translate(6.23 9.696)"><circle cx="51.801" cy="51.801" r="51.801" transform="translate(0 0)" fill="none" stroke="#fff" stroke-miterlimit="10" stroke-width="1"/><circle cx="37.239" cy="37.239" r="37.239" transform="translate(14.562 14.562)" fill="none" stroke="#fff" stroke-miterlimit="10" stroke-width="1"/></g><g transform="translate(185.721 160.66)"><path d="M805.767,562.189l-1.544-15.346,5.19-.469,7.7,16.071a56.387,56.387,0,0,0-11.346-.256Z" transform="translate(-753.492 -546.374)" fill="none" stroke="#fff" stroke-miterlimit="10" stroke-width="1"/><path d="M937.142,849.15a41.4,41.4,0,0,1-4.991,14.73l17.634,11.9,3.706-6.841Z" transform="translate(-843.817 -760.152)" fill="none" stroke="#fff" stroke-miterlimit="10" stroke-width="1"/><path d="M785.676,949.036l-12.373.871,2.5,15.439,7.154.115Z" transform="translate(-731.661 -830.677)" fill="none" stroke="#fff" stroke-miterlimit="10" stroke-width="1"/><circle cx="3.771" cy="3.771" r="3.771" transform="translate(80.264 11.528)" fill="none" stroke="#fff" stroke-miterlimit="10" stroke-width="1"/><path d="M731.77,587.185c-5.126-11.442-52.329-11.124-52.329-11.124L664.97,560.853l-4.457,1.647,26.2,74.1-28.739,3.827-9.857-18.367-2.867,2.04,3.058,9.445L634.969,624.1l-3.335,3.7,11.819,11.778-9.932.382.636,4.1,17.592,3.123-4.212,39.57,10.167.683,10.776-15.444,30.413-2.327,13.6,17.963,8.214-4.856-5.794-22.709,3.535-7.716a20.073,20.073,0,0,0,1.022-13.974l-7.392-24.612S735.508,595.526,731.77,587.185Zm-31.461,8.628a4.832,4.832,0,1,1,3.382-5.938,4.832,4.832,0,0,1-3.382,5.938Z" transform="translate(-631.634 -556.597)" fill="none" stroke="#fff" stroke-miterlimit="10" stroke-width="1"/></g><g transform="translate(12.463 122.61)"><path d="M121.406,446.724l7.3,1.333L125.3,473.549l-9.711-1.772Z" transform="translate(-94.017 -437.964)" fill="none" stroke="#fff" stroke-miterlimit="10" stroke-width="1"/><path d="M186.475,440.061l7.264-1.532,6.5,24.885-9.659,2.038Z" transform="translate(-144.066 -432.178)" fill="none" stroke="#fff" stroke-miterlimit="10" stroke-width="1"/><path d="M63.323,420.924l-6.254-4L42.2,437.909l8.317,5.318Z" transform="translate(-42.198 -416.924)" fill="none" stroke="#fff" stroke-miterlimit="10" stroke-width="1"/></g><g transform="translate(243.568 29.997)"><path d="M878.549,171.53l-4.382-5.993,20.016-16.151,5.826,7.969Z" transform="translate(-860.723 -135.414)" fill="none" stroke="#fff" stroke-miterlimit="10" stroke-width="1"/><path d="M834.755,128.267l-6.325-3.887,12.408-22.529,8.41,5.168Z" transform="translate(-828.43 -101.852)" fill="none" stroke="#fff" stroke-miterlimit="10" stroke-width="1"/><path d="M893.389,233.437l1.786,7.206,25.231-4.992-2.375-9.582Z" transform="translate(-874.295 -189.557)" fill="none" stroke="#fff" stroke-miterlimit="10" stroke-width="1"/></g><g transform="translate(149.173 131.855)"><path d="M517.463,499.882l-5.911,12.728a15.811,15.811,0,0,0,7.976,21.128l-2.64,14.842-9.593,5.2,20.671,4.635-6.453-8.8,3.95-14.549a15.81,15.81,0,0,0,16.233-15.7l.157-24.439-10.668-2.392" transform="translate(-507.296 -479.558)" fill="none" stroke="#fff" stroke-miterlimit="10" stroke-width="1"/><circle cx="9.006" cy="9.006" r="9.006" transform="translate(6.097 3.784)" fill="none" stroke="#fff" stroke-miterlimit="10" stroke-width="1"/><path d="M552.351,544.656l-21.724-4.871-3.316,7.14a13.1,13.1,0,0,0,9.019,18.306h0a13.1,13.1,0,0,0,15.971-12.7Z" transform="translate(-520.562 -512.917)" fill="none" stroke="#fff" stroke-miterlimit="10" stroke-width="1"/><path d="M577.325,482.435,584.061,466l4.348-.278-2.533-5.063,5.035.425-2.648-4.934,3.032-7.767" transform="translate(-556.74 -448.379)" fill="none" stroke="#fff" stroke-miterlimit="10" stroke-width="1"/></g><g transform="translate(4.683 223.796)"><path d="M94.126,812.454l13.674-4.627-8.7,21.36L79.214,817.5l7.552-2.555" transform="translate(-60.554 -794.112)" fill="none" stroke="#fff" stroke-miterlimit="10" stroke-width="1"/><path d="M55.218,795.418c-7.03-4.656-13.791-9.653-20.92-14.4" transform="translate(-28.841 -775.181)" fill="none" stroke="#fff" stroke-miterlimit="10" stroke-width="1"/><path d="M143.172,855.97l-2.513-1.73" transform="translate(-103.938 -826.882)" fill="none" stroke="#fff" stroke-miterlimit="10" stroke-width="1"/><path d="M55.218,795.418c-7.03-4.656-13.791-9.653-20.92-14.4" transform="translate(-28.841 -775.181)" fill="none" stroke="#fff" stroke-miterlimit="10" stroke-width="1"/><path d="M143.172,855.97l-2.513-1.73" transform="translate(-103.938 -826.882)" fill="none" stroke="#fff" stroke-miterlimit="10" stroke-width="1"/><path d="M65.963,824.742l-8-26.653,18.015-36.922-60.25,20.385,36.733,18.4,9.83,26.033-.073.025-5.1,8.3,18-6.091-9.089-3.5Z" transform="translate(-15.732 -761.166)" fill="none" stroke="#fff" stroke-miterlimit="10" stroke-width="1"/><ellipse cx="5.413" cy="6.283" rx="5.413" ry="6.283" transform="translate(23.528 23.044) rotate(-46.514)" fill="none" stroke="#fff" stroke-miterlimit="10" stroke-width="1"/><path d="M151.093,857.543" transform="translate(-111.305 -829.214)" fill="none" stroke="#fff" stroke-miterlimit="10" stroke-width="1"/></g><g transform="translate(134.004 4.664)"><path d="M455.687,59s44.3,2.86,83.025-43.335" transform="translate(-455.687 -15.667)" fill="none" stroke="#fff" stroke-linecap="round" stroke-miterlimit="10" stroke-width="1"/><path d="M471.81,69.7l14.613,14.841,5.751-18.028,19.2,12.331,2.388-21.725,20.555,10.33-4.062-21.363,22.293,3.451L546.1,31.207" transform="translate(-467.071 -26.639)" fill="none" stroke="#fff" stroke-linecap="round" stroke-linejoin="round" stroke-width="1"/></g><g transform="translate(69.712 177.856)"><path d="M251.81,604.876s17.267,40.9,75.9,54.859" transform="translate(-247.446 -604.876)" fill="none" stroke="#fff" stroke-linecap="round" stroke-miterlimit="10" stroke-width="1"/><path d="M243.7,618.87l-6.734,19.709,18.7-2.924-2.436,22.69,20.5-7.585-.041,23.005,17.287-13.191,6.888,21.481,13.506-13.964" transform="translate(-236.963 -614.757)" fill="none" stroke="#fff" stroke-linecap="round" stroke-linejoin="round" stroke-width="1"/></g><path d="M365.9,439.94l3.583,7.26,8.012,1.164-5.8,5.651,1.369,7.979-7.166-3.767-7.166,3.767,1.369-7.979-5.8-5.651,8.012-1.164Z" transform="translate(-250.103 -310.565)" fill="none" stroke="#fff" stroke-linecap="round" stroke-linejoin="round" stroke-width="1"/><path d="M417.4,916.182l3.583,7.26L429,924.606l-5.8,5.651,1.369,7.979-7.166-3.767-7.166,3.767,1.369-7.979-5.8-5.651,8.012-1.164Z" transform="translate(-286.466 -646.821)" fill="none" stroke="#fff" stroke-linecap="round" stroke-linejoin="round" stroke-width="1"/><path d="M954.821,1.5,958.4,8.76l8.012,1.164-5.8,5.651,1.369,7.979-7.166-3.767-7.166,3.767,1.369-7.979-5.8-5.651L951.23,8.76Z" transform="translate(-665.916 -1)" fill="none" stroke="#fff" stroke-linecap="round" stroke-linejoin="round" stroke-width="1"/><g transform="translate(197.774 69.364)"><path d="M787.295,302.836l1.362,1.967,26.126,37.737-1.65,3.077-47.43-.881" transform="translate(-738.348 -283.125)" fill="none" stroke="#fff" stroke-linecap="round" stroke-linejoin="round" stroke-width="1"/><g transform="translate(28.291 21.678)"><g clip-path="url(#a)"><g transform="translate(4.538 -1.138)"><path d="M857.419,305.656a88.1,88.1,0,0,1-15.654,9.245" transform="translate(-824.881 -305.656)" fill="none" stroke="#fff" stroke-linecap="round" stroke-linejoin="round" stroke-width="1"/><path d="M855.08,325.583a112.045,112.045,0,0,1-24,12.911" transform="translate(-817.335 -319.726)" fill="none" stroke="#fff" stroke-linecap="round" stroke-linejoin="round" stroke-width="1"/><path d="M847.5,345.51c-10.257,7.838-22.6,12.541-34.534,16.581" transform="translate(-804.543 -333.795)" fill="none" stroke="#fff" stroke-linecap="round" stroke-linejoin="round" stroke-width="1"/><path d="M835.984,365.437a123.713,123.713,0,0,1-46.7,19.62" transform="translate(-787.826 -347.865)" fill="none" stroke="#fff" stroke-linecap="round" stroke-linejoin="round" stroke-width="1"/><path d="M837.688,385.364s-20.3,15.938-53.365,20.774" transform="translate(-784.323 -361.935)" fill="none" stroke="#fff" stroke-linecap="round" stroke-linejoin="round" stroke-width="1"/><path d="M855.4,405.291s-20.3,15.938-53.366,20.774" transform="translate(-796.829 -376.004)" fill="none" stroke="#fff" stroke-linecap="round" stroke-linejoin="round" stroke-width="1"/></g></g></g><path d="M759.8,320.194q.46-.92.957-1.847c6.2-11.561,14.273-19.3,18.038-17.279s1.792,13.026-4.405,24.587-14.273,19.3-18.038,17.279c-2.566-1.376-2.466-6.93-.179-13.989" transform="translate(-730.397 -281.651)" fill="none" stroke="#fff" stroke-linecap="round" stroke-linejoin="round" stroke-width="1"/><path d="M728.044,331.08a11.229,11.229,0,0,0-6.9-5.738c-4.575-1.078-7.926,2.386-13.421.315-4.222-1.59-6.9-5.751-8.476-9.978" transform="translate(-691.424 -292.193)" fill="none" stroke="#fff" stroke-linecap="round" stroke-linejoin="round" stroke-width="1"/><path d="M779.874,274.817c-2.259-.071-4.66-.188-6.514-1.48-2.049-1.428-2.968-3.97-3.6-6.386a22.764,22.764,0,0,1-.718-3.824c-.092-1.1-.057-2.213-.224-3.306a10.666,10.666,0,0,0-5.29-7.446" transform="translate(-736.813 -247.497)" fill="none" stroke="#fff" stroke-linecap="round" stroke-linejoin="round" stroke-width="1"/><path d="M685.05,402.31a10.32,10.32,0,0,1,7.78-3.828,13.188,13.188,0,0,1,8.32,2.812c.847.647,1.628,1.384,2.531,1.95a8.371,8.371,0,0,0,10.584-1.768" transform="translate(-681.402 -350.652)" fill="none" stroke="#fff" stroke-linecap="round" stroke-linejoin="round" stroke-width="1"/><line x1="17.848" y1="14.769" transform="translate(7.895 8.686)" fill="none" stroke="#fff" stroke-linecap="round" stroke-linejoin="round" stroke-width="1"/><line x1="19.94" y1="4.016" transform="translate(0 37.759)" fill="none" stroke="#fff" stroke-linecap="round" stroke-linejoin="round" stroke-width="1"/><circle cx="4.573" cy="4.573" r="4.573" transform="translate(23.717 38.543)" fill="none" stroke="#fff" stroke-linecap="round" stroke-linejoin="round" stroke-width="1"/><circle cx="3.234" cy="3.234" r="3.234" transform="translate(20.483 0)" fill="none" stroke="#fff" stroke-linecap="round" stroke-linejoin="round" stroke-width="1"/></g><circle cx="5.716" cy="5.716" r="5.716" transform="translate(157.184 86.998)" fill="none" stroke="#fff" stroke-linecap="round" stroke-miterlimit="10" stroke-width="1"/><circle cx="5.716" cy="5.716" r="5.716" transform="translate(0.5 286.797)" fill="none" stroke="#fff" stroke-linecap="round" stroke-miterlimit="10" stroke-width="1"/></g></svg>