<svg xmlns="http://www.w3.org/2000/svg" xmlns:xlink="http://www.w3.org/1999/xlink" width="348.66" height="559.85" viewBox="0 0 348.66 559.85"><defs><clipPath id="a"><rect width="348.66" height="559.85" transform="translate(1906 636)" fill="#fff"/></clipPath></defs><g transform="translate(-1906 -636)" clip-path="url(#a)"><g transform="translate(1919.1 612.727)"><g transform="translate(0 -689.827)"><circle cx="39.7" cy="39.7" r="39.7" transform="translate(68.9 716)" fill="aqua"/><circle cx="65.4" cy="65.4" r="65.4" transform="translate(204.6 1090.7)" fill="#fff"/><circle cx="25.1" cy="25.1" r="25.1" transform="translate(251.1 895.8)" fill="#ff6300"/><path d="M-10.2,902.9l-82.9,17.4,31.9,84.2,10.8-.7-12.2-65.6s57.7,4.7,60.5-6.1Z" fill="#ffed00"/><path d="M-50.4,1003.8l-15.5,21.4-24.5-22.9a13.2,13.2,0,0,1,13.7,4.3c7.5-13.4,17.4-6.5,17.4-6.5Z" fill="#d19570"/><ellipse cx="7.6" cy="3.8" rx="7.6" ry="3.8" transform="translate(99.182 800.917) rotate(-14.662)" fill="#ff9d5c"/><path d="M49.8,768.8c17.6-7.5,20.5-37.6,59.8-55.7,0,0,16.6,39.2,6.7,58.4s-36.7,14.3-36.7,14.3" fill="#a97261"/><path d="M107.8,720.1s-30,30-27.5,58.9c0,0,22.2,8.8,32.7-7.2C123.5,755.7,107.8,720.1,107.8,720.1Z" fill="#94503b"/><path d="M88.8,743.6s8.7-5.7,9.8-1.7c1.2,4-11.8,14.3-11.8,14.3s6.8-1.1,7.8,4.5-9.8,10.9-9.8,10.9,9-4.1,11.5-.7c2.5,3.5-2.5,12-2.5,12L76,779.3C76.2,779.4,77.9,756.7,88.8,743.6Z" fill="#a97261"/><path d="M186.1,895.3l13.1-16c-8.7-15.8,16.8-22.4,17.5-15.5.4,3.5-8.9,2.9-10.4,6-1.7,3.4,1.8,7.8,5.9,9.5,3.9,1.7,8-1.9,8.4-4.4.7-4.6-4.2-8.1-2.6-10.7,4-6.4,17.4,10.8,4.3,19.7,13.3,7,20.6-8.8,23.9-3.4s-10.7,18.6-25.7,11.6c2.2,9.1,9.8,6.7,9,11-.8,4.2-12.4,1.5-21-14.3l-13.4,19.7Z" fill="#d19570"/><path d="M84.7,933.9c48,20.1,110-53.4,110-53.4l14.6,12.7s-41.2,92.5-151.4,84Z" fill="#ffed00"/><path d="M225.5,884.9l-3.8,1.2-17.1-48.4,7.2-2.3Z" fill="#d6c6f8"/><path d="M215.8,853.8l-3.9,1.2s-36.1,5-44.8-20.4L240.7,811C247.1,834.5,215.8,853.8,215.8,853.8Z" fill="#d6c6f8"/><path d="M213.5,848.9c3.4-2.2,22.1-15.3,22.7-30.7l-61.6,19.7c9.4,14.1,32.8,12.2,36.1,11.8Z" fill="#fff"/><path d="M247.5,890.7l-38.9,12.1,11.9-19.7,4.2-1.3Z" fill="#d6c6f8"/><path d="M225.9,853.8" fill="none" stroke="#070117" stroke-linecap="round" stroke-linejoin="round" stroke-width="3"/><path d="M219,811.1a11.07,11.07,0,0,1,1.3-4.8c1-1.4,3.1-2.1,4.3-1a6.778,6.778,0,0,1,1.3,2.7c.4.9,1.3,1.9,2.3,1.6,1.1-.3,1.2-1.9,1.1-3-.8-6.1-2-12.6.3-18.3.7-1.8,2.1-3.7,4-3.8a4.271,4.271,0,0,1,3.7,2,9.655,9.655,0,0,1,1.5,4.1c2.3,11.5,0,23.6-4.1,34.6-1,2.8-2.3,5.7-4.5,7.6a17.682,17.682,0,0,1-6.3,3.1A54.438,54.438,0,0,1,214,838a13.408,13.408,0,0,1-4,0,22.531,22.531,0,0,1-4.4-1.4c-1.8-.7-1-.9.5-2.2A38.189,38.189,0,0,0,219,811.1Z" fill="#fff"/><path d="M222.5,773.2a4.851,4.851,0,0,0-.8-2.1,4.265,4.265,0,0,0-4.5-1.3,6.7,6.7,0,0,0-1.8.7,4.27,4.27,0,0,0-1.6,3,8.279,8.279,0,0,0,.5,3.5c1,2.9,2.8,5.5,4.1,8.4a43.206,43.206,0,0,1,2.3,8c.1.6.5,1.3,1.1,1.1.4-.1.5-.6.6-1C223.6,786.7,224.3,779.9,222.5,773.2Z" fill="#fff"/><path d="M41.1,1093.3c-6.8,37.8-29.8,43.2-61.1,37.6s-58.9-20.2-52.1-58,37.6-63.9,68.9-58.3S47.9,1055.5,41.1,1093.3Z" fill="#070117"/><path d="M89,937.4c-7.6,1.7-24,48.5-50.3,40.5C-35.4,955.5-6.1,907-6.1,907l12.7,7.4,24.7-60.3,44.9,22.5-9.7,53Z" fill="#d19570"/><path d="M71,906.8c-18-10-35.2-21.3-46.6-36l6.8-16.7,44.9,22.5Z" fill="#94503b"/><path d="M24,773.6c36.7-15.1,65.5-5.1,73.3,18.5,5.4,16.4,23.1,9.8,34.3,8.2l-2.8,10L60.5,842.5S89.3,880.1,83.1,882c-42,12.9-72.2,7.9-81.8-26.1C-9.9,816.8-11.9,788.4,24,773.6Z" fill="#d19570"/><path d="M97.2,792.1a34.115,34.115,0,0,0-11-16.2c-3.5,3.7-6.1,10.7-2,24-47.1-26.5-72.7-7.4-75.1,23.5-5.1,67.3,60.7,62,60.7,62l-5.3-40-4.2-3,3.6-1.7-1.3-9.6L113,817.5l6.6-3.1-6.9-11.5C106,802.9,100,800.6,97.2,792.1Z" fill="#e8c9ac"/><path d="M37.1,811-1.2,822.3l-3.7,14.6,4.5,1.7,2.8-13.4L42,818.7Z" fill="#ffed00"/><path d="M114.9,812.8h0a14.15,14.15,0,0,1-8.4,3.2,12.973,12.973,0,0,1-5.1-.8,16.682,16.682,0,0,1-5.1-3c-5.2-4.4-7.1-11.1-7.1-16a16.049,16.049,0,0,1,.8-5.1,9.018,9.018,0,0,1,2.7-4.2,7.008,7.008,0,0,1,1-.8c7.6-6,17.2-9.3,17.7-9.5l2.3-.8,1.2,2.2a48.656,48.656,0,0,1,4.6,10.6,34.294,34.294,0,0,1,1.4,9.2,24.539,24.539,0,0,1-1,7.4,15.556,15.556,0,0,1-2.7,5.3A12.511,12.511,0,0,1,114.9,812.8Z"/><path d="M113,810.5a12.1,12.1,0,0,0,2-1.9c3.3-3.9,5.5-15-2.6-29.1,0,0-10.3,3.6-17.8,9.8-3.9,3.3-3.3,14.9,3.6,20.7,5.7,4.6,11.2,3.3,14.8.5m3.7,4.7h0c-5.4,4.2-14.1,6.2-22.3-.7-6-5.1-8.1-12.8-8.1-18.3,0-5,1.6-9.1,4.6-11.6l1.1-.9a69.244,69.244,0,0,1,18.5-9.9l4.7-1.6,2.5,4.3c9,15.7,7.3,29.6,2,36A26.118,26.118,0,0,1,116.7,815.2Z" fill="#ffed00"/><path d="M109.7,780.5a65.815,65.815,0,0,0-9.2,4.6L97,808.7l1.2,1.2a11.731,11.731,0,0,0,7.5,3.1Z" fill="#fff"/><path d="M111.1,811.7l3.1-28.8a39.062,39.062,0,0,0-1.8-3.5l-.3.1-3.8,33.2A9.38,9.38,0,0,0,111.1,811.7Z" fill="#fff"/><path d="M137.9,809.5c0,12.5-32.3,39.8-67.4,27.9-2.9-17.1,17.2-22.9,18.2-33.6,8.2,11.5,49.2-6.9,49.2-6.9s7.6-1.6,9.4,14.3C147.5,813.5,145.7,820.3,137.9,809.5Z" fill="#d19570"/><path d="M69.9,885.4c-13.3-8.2-29.8-21.9-28.1-39.2,2.7-28.8,46.8-40.8,45.9-45.5,6.4,7.4,16,4,25.1,2.3,6.1-2.2,25.1-6.1,25.1-6.1s7.6-1.6,9.4,14.3c.3,2.4-1.5,9.2-9.3-1.6,0,12.5-32.1,39.6-67.1,28L146.4,811c-1.9,32.4-50.6,66.6-50.6,66.6h0A202.338,202.338,0,0,1,69.9,885.4Z" fill="#e8c9ac"/><path d="M129.2,824.7l9-14.8,6.5,5.6S142,828,137,832.8,129.2,824.7,129.2,824.7Z" fill="#070117"/><path d="M85.7,777.7s1.4-11.3,12-9.5" fill="none" stroke="#070117" stroke-linecap="round" stroke-miterlimit="10" stroke-width="5"/><path d="M123.9,803.1,135.7,815c1-.2,1.5-4.8,2.5-5.1,1.3-.4,3,3.5,3.9,3.1l1-15.2C138.5,793.4,127.5,796.7,123.9,803.1Z" fill="#070117"/><path d="M147.2,811.1s0,10.4-9.3-1.6c-5.9,27.6-52.7,37.1-67.4,27.9" fill="none" stroke="#070117" stroke-linecap="round" stroke-linejoin="round" stroke-width="3"/><path d="M13.4,781.3c-16.8,13.3-38.7-14-80.2-2.5,0,0,12.7,40.5,32.6,48.8S3,814.8,3,814.8" fill="#d19570"/><path d="M-60.9,783s42.2,3.5,59,27c0,0-11.2,21-29.6,15.6S-60.9,783-60.9,783Z" fill="#a97261"/><path d="M-31.3,788.7s-10.2,1.3-8.6,5.1c1.7,3.8,18.2,3.3,18.2,3.3s-5.9,3.6-3.1,8.5,14.5,2,14.5,2-9.6,2.7-9.2,6.9,9.6,7.5,9.6,7.5L1.3,807.8C1.5,807.7-14.5,791.5-31.3,788.7Z" fill="#d19570"/><ellipse cx="12" cy="5.9" rx="12" ry="5.9" transform="translate(37.597 834.196) rotate(-14.662)" fill="#ff9d5c"/><path d="M34.8,966.4c-6.5-32.1-43-34.5-43-34.5l5.7-24.7-7.7-4.3L-28,932.2l5.9,53.7-5.5,12.2-56.5,30.8s59.3,78.3,151.1,60.9l-27.8-61.3,4.3-11.4L92,972.2l12.1-30.5-19.4-7.8L73,958.1S53.4,948.9,34.8,966.4Z" fill="#ffed00"/><path d="M81.4,829.1a17.873,17.873,0,0,1-5.6,3,18.246,18.246,0,0,1-6.6,1,38.028,38.028,0,0,1-8.8-1.4,52.184,52.184,0,0,1-10.3-4,49.873,49.873,0,0,1-10.4-7,46.812,46.812,0,0,1-8.9-10.5l-1.9-3,3.3-1.3c.1,0,7-2.8,15-5.6,4.7-1.6,8.9-2.9,12.3-3.8,4.6-1.2,7.9-1.8,10.3-1.7a18.639,18.639,0,0,1,7.4,1.7,18.077,18.077,0,0,1,6,4.2,19.414,19.414,0,0,1,4,6.2,19.219,19.219,0,0,1,1.4,7.5A18.769,18.769,0,0,1,81.4,829.1Z"/><path d="M79.5,826.8a16.169,16.169,0,0,0-9.7-28.9c-9-.2-36.5,10.9-36.5,10.9,9.5,15.5,26.9,21.3,35.8,21.5a16.713,16.713,0,0,0,10.4-3.5m3.7,4.7a22.4,22.4,0,0,1-14.1,4.7c-10.5-.2-30.1-6.9-40.8-24.4l-3.7-6,6.6-2.6c4.8-1.9,29.2-11.5,38.8-11.3a21.983,21.983,0,0,1,15.6,6.8,22.038,22.038,0,0,1-2.4,32.8Z" fill="#ffed00"/><path d="M72.3,789.9a26.793,26.793,0,0,1-27.2,3.8" fill="none" stroke="#070117" stroke-linecap="round" stroke-miterlimit="10" stroke-width="5"/><path d="M75.2,798.8,64.3,829.6a40.954,40.954,0,0,0,4.9.6h.3l9.9-29A14.724,14.724,0,0,0,75.2,798.8Z" fill="#fff"/><path d="M70.9,797.8a3.4,3.4,0,0,1-1-.1c-3.8-.1-10.8,1.8-17.7,4.1l-7.9,18.7a49.492,49.492,0,0,0,15.3,7.9Z" fill="#fff"/><path d="M82.1,797.7c3.6,1,5.6-.4,6-3.1,0,0,1.6,11.8,11.7,10.7-4.2,1.3-7.2-2-9.9-1.1s.3,3.2.3,8.6C90.1,812.8,78.5,796.7,82.1,797.7Z" fill="#ffed00"/><path d="M10,1560.9a94.206,94.206,0,0,1-21.1-3,11.012,11.012,0,0,1-7.7-13.5h0a11.012,11.012,0,0,1,13.5-7.7c7.6,2,29.6,5.3,40.1-4.2,6.3-5.7,8.3-16,5.9-30.9-1.7-10.9-5.8-23.5-10.1-36.9-7.9-24.6-16.9-52.5-14.8-80.7,2.6-33.4,20.2-60.5,53.9-82.8a10.969,10.969,0,0,1,12.1,18.3C20,1360.4,36,1410,51.5,1458c4.6,14.2,8.9,27.5,10.9,40.2,3.6,22.7-.8,39.8-13,50.7C38,1559.2,22.5,1561.3,10,1560.9Z" fill="#ff6300"/><path d="M-18.7,1544.5A10.978,10.978,0,0,0-11,1558h0a86.742,86.742,0,0,0,15.1,2.6l-5.8-5.5,11.3-4.2-11-5.7,10.3-6.4h0a66.7,66.7,0,0,1-14.1-2.1A11.072,11.072,0,0,0-18.7,1544.5Z" fill="#070117"/><path d="M51,1458.9c-7.6,4.1-14.1,6.2-20,6.7,1,3,2,6.1,2.9,9,6.4-.8,13.2-3.1,20.8-7.1-.9-2.9-1.9-5.9-2.9-9A5.9,5.9,0,0,1,51,1458.9Z" fill="#070117"/><path d="M61.9,1495.1c-.7-3.5-1.4-7.1-2.4-10.7-5.2,5.6-10.6,10.2-17,11.1-.9.1-1.9.2-2.9.3.4,2,.8,4,1.1,5.9.2,1.1.3,2.2.4,3.2a24.746,24.746,0,0,0,2.7-.3C51.1,1503.5,57,1499.5,61.9,1495.1Z" fill="#070117"/><path d="M46.4,1356.2a69.881,69.881,0,0,1,5.1-8.2c-.4-.1-.9-.2-1.3-.3a36.974,36.974,0,0,1-17.7-11c-1.8,2.7-3.5,5.4-5,8.1A45.978,45.978,0,0,0,46.4,1356.2Z" fill="#070117"/><path d="M39.6,1525.7l19.7,9.9a44.38,44.38,0,0,0,3-8.9l-20.6-10.4A36.7,36.7,0,0,1,39.6,1525.7Z" fill="#070117"/><path d="M37.4,1415.3c.8-.1,1.5-.3,2.2-.4-.6-3.1-1-6.1-1.4-9.2a16.962,16.962,0,0,1-2.2.4c-6.6,1-13.1-1.3-20.2-4.8.2,3.6.6,7.1,1.1,10.7C23.3,1414.6,30.2,1416.3,37.4,1415.3Z" fill="#070117"/><path d="M46.1,1320.4c-2.2,2.2-4.4,4.5-6.4,6.9a126.47,126.47,0,0,0,19.6,11.1c2.2-2.3,4.6-4.7,7.2-7A129.222,129.222,0,0,1,46.1,1320.4Z" fill="#070117"/><path d="M24,1428.6l-1.5.1a16.417,16.417,0,0,0-2.3.2c.7,3.1,1.5,6.1,2.3,9.1h.6l1.5-.1a75.713,75.713,0,0,0,19.5-3.8c-.8-3-1.6-6-2.3-9A63.175,63.175,0,0,1,24,1428.6Z" fill="#070117"/><path d="M36.5,1549.3a25.112,25.112,0,0,1-11.2-11.8,42.706,42.706,0,0,1-9.4,1.4,33.7,33.7,0,0,0,16.5,18.7,3.553,3.553,0,0,0,.9.4,46.194,46.194,0,0,0,12.6-6.2A23.459,23.459,0,0,1,36.5,1549.3Z" fill="#070117"/><path d="M23.3,1377.9a116.139,116.139,0,0,1,15.6-.4c.6-3.1,1.4-6.2,2.3-9.2H39a119.321,119.321,0,0,0-16.9.5c-1.4.2-2.8.4-4.1.7a85.144,85.144,0,0,0-1.7,10.1A28.62,28.62,0,0,1,23.3,1377.9Z" fill="#070117"/><path d="M124,1155c40.6-27.1,106,13.2,106,13.2l-8.2-75,19.5-4.8,35.9,100.9-8.4,15.8-130.6-13.2Z" fill="#00c2ff"/><path d="M157.5,1647.8l-21.4-.6-4.8-35.1,21.4.6Z" fill="#ff6300"/><path d="M141.7,1147l-9.8,1s-53.1,174-41.5,241.7c6.1,35.8,146.4-.2,147.4-35.4.7-22.3-46.8-169-59.9-189.6A38.444,38.444,0,0,0,141.7,1147Z" fill="aqua"/><path d="M173.6,1252.7c-1.1,37.8-22.7,46.5-53.9,45.5s-60.2-11.1-59-48.9,27.4-67.7,58.6-66.8S174.7,1214.9,173.6,1252.7Z" fill="#070117"/><path d="M54,1261.3l77.5,365.9,25.1.8-35.8-359.1Z" fill="#070117"/><path d="M173.1,1623.5l8.9-22.4-16.5-13.4-9.7,20.3C158.3,1634.5,173.1,1623.5,173.1,1623.5Z" fill="#ff6300"/><path d="M156.6,1605.1s.9,13.1,18.3,13.7c2.1,24.5,22.9,27.6,14.3,44.3,0,0-9.3-1.9-24.8-16.3-13.6-12.6-18.1-18.9-23.2-35.2C152.1,1605.8,156.6,1605.1,156.6,1605.1Z" fill="#fff"/><line x1="11" y2="0.2" transform="translate(170.2 1626.2)" fill="none" stroke="#070117" stroke-linecap="round" stroke-linejoin="round" stroke-width="3"/><line x1="10" y2="4.5" transform="translate(173.5 1632.9)" fill="none" stroke="#070117" stroke-linecap="round" stroke-linejoin="round" stroke-width="3"/><path d="M125.8,1274.1,208,1435.7l-48.9,162.2a30.771,30.771,0,0,0,20.8,15.7l74.6-180-79.1-196.4Z" fill="#070117"/><path d="M59.2,1260.2s64.7,6.5,126.2-8.9c-3.1-35.7-11.8-62.9-19.3-80.5a34.422,34.422,0,0,0-35.6-20.8l-65.4,7.4Z" fill="#fff"/><path d="M141.3,1154.7c13,1.4,29.7,24.7,19.4,34.2-12.6,11.6-71.5-27.5-71.5-27.5l2.8-92.1,39.2,5.5Z" fill="#ff6300"/><path d="M144,1150s14.8,34.5-11.9,42.6-48.8-37.3-48.8-37.3" fill="none" stroke="#ffede2" stroke-linecap="round" stroke-linejoin="round" stroke-width="3"/><path d="M89.8,1143.2c15,2,31.8,2.5,50.3,1.8l-8.9-70.2L92,1069.3Z" fill="#cc4000"/><path d="M188.3,1057.4l7.2-6.5c-8-14.1-39.7-61.9-98.4-49.6-62.8,13.2-73.3,83-74.9,100.1l14.2-1.5L26,1109c12.7,10.8,53.7,39.9,110.6,23.1,52.2-15.4,59.6-63.3,60.6-74.8C194.3,1057.2,188.3,1057.4,188.3,1057.4Z" fill="#ff6300"/><path d="M89,1148.3s-28-.8-47.4-.2c0,0,12.4,181.1,9.9,262.9,0,0,65.8,8.3,66.8-26.9S89,1148.3,89,1148.3Z" fill="aqua"/><path d="M57.2,1308.8s28.6-7.4,37.5-33.2" fill="none" stroke="#00c2ff" stroke-linecap="round" stroke-linejoin="round" stroke-width="3"/><path d="M95.7,1002.7s-16.2-16.5-9.5-21.3c4.6-3.3,11.5,10.4,11.5,10.4s-1.7-18.6,5.6-20.4c7.5-1.8,7.8,11.8,7.8,11.8s7-9.7,12.2-5.1c4,3.5-15.6,24-15.6,24" fill="#ff6300"/><path d="M86.1,981.4c4.6-3.3,11.5,10.4,11.5,10.4s-1.7-18.6,5.6-20.4c7.5-1.8,7.8,11.8,7.8,11.8" fill="none" stroke="#cc4000" stroke-linecap="round" stroke-linejoin="round" stroke-width="3"/><path d="M123,983.2s-5.8,11.4-15.4,18.9" fill="none" stroke="#cc4000" stroke-linecap="round" stroke-miterlimit="10" stroke-width="3"/><path d="M157.6,1641.1s3.4,3.7,5.8,21.2l-68.5-2.1c-2.5-18.3,30.6-14.2,39.6-19.8C149.2,1646,157.6,1641.1,157.6,1641.1Z" fill="#fff"/><line x1="1.4" y1="11" transform="translate(130 1637.7)" fill="none" stroke="#070117" stroke-linecap="round" stroke-linejoin="round" stroke-width="3"/><line x1="5.6" y1="10.3" transform="translate(119.4 1640.3)" fill="none" stroke="#070117" stroke-linecap="round" stroke-linejoin="round" stroke-width="3"/><path d="M74,1014.2s-30-18-62.5-7.3c4.5,35.2,29.6,53.4,29.6,53.4Z" fill="#ff6300"/><path d="M38.7,1003.7a69.707,69.707,0,0,0-27.2,3.2,82.284,82.284,0,0,0,8.2,26.6l-1.3-8.3,11.6.1-4.1-15,14.6-2.3Z" fill="#070117"/><path d="M64.4,1023.1s-21.1-12.6-43.9-5.1a57.954,57.954,0,0,0,20.8,37.5C41.2,1055.4,45.3,1034.1,64.4,1023.1Z" fill="#cc4000"/><path d="M29.2,1068.3l28.7,11-31.6-1.1Z" fill="#070117"/><path d="M24.4,1086.5l33,1.2-34.5,7.6Z" fill="#070117"/><path d="M178.4,1028l-21.5,21.2,28.1-13.5A87.763,87.763,0,0,0,178.4,1028Z" fill="#070117"/><path d="M190.1,1042.5l-29.4,14.2,34.1-6.9C193.6,1047.8,192.1,1045.3,190.1,1042.5Z" fill="#070117"/><path d="M119.3,1001.1s18-30,51.6-36c12.6,33.1-.9,61-.9,61Z" fill="#ff6300"/><path d="M145.5,975.1A70.642,70.642,0,0,1,171,965a82.35,82.35,0,0,1,5.4,27.3l-2.7-7.9-10.2,5.5L160,974.8l-13.9,4.8Z" fill="#070117"/><path d="M132.1,1004.4s12.6-21.1,36.2-25.3a57.575,57.575,0,0,1-.6,42.8C167.7,1022,154.1,1005,132.1,1004.4Z" fill="#cc4000"/><path d="M100.2,1057.8l-6.8,1.1,5.8,36.2a4.322,4.322,0,0,1-3.6,5h0a4.322,4.322,0,0,1-5-3.6l-5.8-36.2" fill="none" stroke="#ffed00" stroke-linecap="round" stroke-linejoin="round" stroke-width="3"/><path d="M176.1,1085.7c3,18.7-13.7,23.6-34.7,27s-38.4,3.9-41.4-14.8,11.6-36.6,32.6-39.9S173.1,1067,176.1,1085.7Z" fill="#ffede2"/><path d="M246.1,999.1c-.4-4.3.4-8.9,3.3-12.1,4.4-4.9,11-3.6,15.6-10.4,3.6-5.2,3.3-12.1,1.7-18.2" fill="none" stroke="#ffed00" stroke-linecap="round" stroke-miterlimit="10" stroke-width="4"/><path d="M234,1009.2c1.1-3,2.1-6.2,1.4-9.2-.8-3.4-3.7-5.9-6.5-7.9a44.346,44.346,0,0,0-4.6-2.9c-1.4-.7-2.9-1.2-4.2-2-5.4-3.1-7.8-9.9-7.4-16.1" fill="none" stroke="#ff6300" stroke-linecap="round" stroke-miterlimit="10" stroke-width="4"/><line x1="6.2" y1="31.8" transform="translate(238.3 946)" fill="none" stroke="aqua" stroke-linecap="round" stroke-miterlimit="10" stroke-width="4"/><line y1="22.1" x2="17.9" transform="translate(251.1 993.5)" fill="none" stroke="#fff" stroke-linecap="round" stroke-miterlimit="10" stroke-width="4"/><circle cx="6.4" cy="6.4" r="6.4" transform="translate(206.2 997)" fill="aqua"/><circle cx="4.5" cy="4.5" r="4.5" transform="translate(207.9 967.3)" fill="#ffed00"/><circle cx="4.5" cy="4.5" r="4.5" transform="translate(272.8 982.5)" fill="#ff6300"/><path d="M129.7,1059.1l11.6,5.9a1.237,1.237,0,0,0,1.5-.3l8-9.2a1.272,1.272,0,0,0-.1-1.8,1.136,1.136,0,0,0-.8-.3,50.969,50.969,0,0,0-20.1,3.4,1.252,1.252,0,0,0-.7,1.6A.877.877,0,0,0,129.7,1059.1Z" fill="#070117"/><circle cx="14" cy="14" r="14" transform="translate(100.7 1040.6)" fill="none" stroke="#ffed00" stroke-linecap="round" stroke-linejoin="round" stroke-width="3"/><path d="M225.3,1106.6" fill="#ffede2"/><path d="M-21.9,1037.9l-1.6-16.8s9.4-6.5,10.1-10.6-7.3-1.8-7.3-1.8,10-19.9-8.2-24.6-21.6,28.9-8.8,36.8l1.1,21Z" fill="#ff6300"/><line x1="6" y2="21.7" transform="translate(-26.6 988.9)" fill="none" stroke="#cc4000" stroke-linecap="round" stroke-linejoin="round" stroke-width="3"/><line x1="1.8" y2="23.8" transform="translate(-34.3 983.6)" fill="none" stroke="#cc4000" stroke-linecap="round" stroke-linejoin="round" stroke-width="3"/><path d="M65,1153.5c-77.4-33.9-83.7-128.3-83.7-128.3l-21.6,4s.7,125.1,86.8,163.8C72.4,1172.5,65,1153.5,65,1153.5Z" fill="aqua"/><path d="M8.3,955.3c1,2.1,4.1,2.4,6.2,1.4s3.9-2.7,6.1-3.6a1.11,1.11,0,0,1,1.1-.1.909.909,0,0,1,.4.8c.5,2.4.8,5.3,3,6.5,2.1,1.1,4.9-.3,5.9-2.5a5.638,5.638,0,0,0,.4-1.2c-4.6-9.5-12.3-15.4-19.7-19-1.7,0-3,.5-3.5,1.5-1.2,2.7,2.9,5,2.2,8.2C9.9,949.9,6.9,952.5,8.3,955.3Z" fill="#fff"/><path d="M140.6,1034.3c8.3-5.3,16.1.7,16.1.7" fill="none" stroke="#070117" stroke-linecap="round" stroke-miterlimit="10" stroke-width="5"/><path d="M97.5,1036.3c2.7-9.5,12.6-10,12.6-10" fill="none" stroke="#070117" stroke-linecap="round" stroke-miterlimit="10" stroke-width="5"/><path d="M118.1,1049.6a4.984,4.984,0,0,1-9.7,2.3Z" fill="#070117"/><circle cx="3.8" cy="3.8" r="3.8" transform="translate(142.7 1042.7)" fill="#070117"/><path d="M162.6,1066.9c-15.6,13.1-51.1-3.8-55.2,14.6s8.9,29.6,37.8,22.2C174.4,1096.1,162.6,1066.9,162.6,1066.9Z" fill="#fff"/><path d="M34.1,1058.7s-12.8-8.1-14.4-4.7,3.2,8.9,3.2,8.9-8.4-.1-7.1,5.2c1.4,5.3,15.6-2.4,15.6-2.4" fill="#ff6300"/><path d="M206.5,1087.5c-6.9,9.7-9.5,21.7-11.8,33.3l-9.4,46.3a3.22,3.22,0,0,0,1.1,3.1c2.4,2.1,8.4,6,21.5,8.7,13.2,2.7,20.2,1.4,23.2.4a3.3,3.3,0,0,0,2.2-2.5l9.4-46.3c2.4-11.6,4.6-23.6,2.1-35.3-.6-2.7-1.4-5.3-2.1-8l-31-6.3C209.8,1083.2,208.1,1085.3,206.5,1087.5Z" fill="#7cab6a"/><path d="M245.4,1030.9l1-.9a4.937,4.937,0,0,0-2.4-8.5l-4-.8-4-.8a5.011,5.011,0,0,0-5.6,6.9l.6,1.3-3.2,15.6c-4.5,22-10.6,30.4-16.3,37.4l31,6.3c-2.5-8.7-4.8-18.8-.4-40.8Z" fill="#7cd36a"/><path d="M231.8,1089.3l12.5,3.8c-.5-1.9-1.1-3.8-1.6-5.8-.5-1.9-1.1-3.8-1.5-5.9l-5.7-3.3c-.4-4-2.4-7.2-5.5-7.8-3-.6-6.2,1.5-8.1,5l-6.6.8c-1.2,1.7-2.5,3.3-3.7,4.8-1.3,1.6-2.5,3.1-3.8,4.7l13,1.4a6.856,6.856,0,0,0,4.8,4.7C227.8,1092.2,230,1091.3,231.8,1089.3Z" fill="#e9c200"/><path d="M230.8,1165.8l-38.9-7.9a2.663,2.663,0,0,1-2.1-3.2l4.4-21.8a2.663,2.663,0,0,1,3.2-2.1l38.9,7.9a2.663,2.663,0,0,1,2.1,3.2l-4.4,21.8A2.738,2.738,0,0,1,230.8,1165.8Z" fill="#e9c200"/><path d="M242.5,1045.2s5.8,5.4,6.5,17c.4,6.4-5.2,10.8-10.3,13.5a5.371,5.371,0,0,1-7.9-4.7v-12a5.464,5.464,0,0,1,1.6-3.8Z" fill="#ff6300"/><circle cx="7.2" cy="7.2" r="7.2" transform="translate(214 1063)" fill="#ff6300"/><path d="M146.5,1086.5l-4.9-5.5-4.6,11.3-10.4-10.6-6.1,11.4-8.4-11.4-5.1,9.8" fill="none" stroke="#070117" stroke-linecap="round" stroke-linejoin="round" stroke-width="3"/></g></g></g></svg>