<svg xmlns="http://www.w3.org/2000/svg" xmlns:xlink="http://www.w3.org/1999/xlink" viewBox="0 0 437 156"><defs><clipPath id="a"><rect width="437" height="156" transform="translate(2138 700)" fill="#fff"/></clipPath><linearGradient id="b" x1="0.5" x2="0.5" y2="1" gradientUnits="objectBoundingBox"><stop offset="0" stop-color="#340396"/><stop offset="1" stop-color="#1f005f"/></linearGradient><clipPath id="c"><path d="M90.1,92.5,63.8,46.6,46.9,31.3l8.7-10.9,16.4,4,1.7-14.3L86.3,9l7.8,14.3,26.7,2.8.6,17-9.3,12L126,74.7C101.4,88.6,90.1,92.5,90.1,92.5Z"/></clipPath></defs><g transform="translate(-2138 -700)" clip-path="url(#a)"><rect width="437" height="156" transform="translate(2575 856) rotate(180)" fill="url(#b)"/><g transform="translate(2145.3 705.663)"><path d="M-.3,86.9a1.087,1.087,0,0,1-1-.7,1.114,1.114,0,0,1,.6-1.4l10.9-4.3a1.077,1.077,0,1,1,.8,2L.1,86.8A.6.6,0,0,1-.3,86.9Z" fill="#690bd6"/><path d="M47.9,56.9a1.087,1.087,0,0,1-1-.7,1.114,1.114,0,0,1,.6-1.4l10.9-4.3a1.077,1.077,0,0,1,.8,2L48.3,56.8C48.2,56.8,48.1,56.9,47.9,56.9Z" fill="#690bd6"/><path d="M30.2,135.2a1.087,1.087,0,0,1-1-.7,1.114,1.114,0,0,1,.6-1.4l10.9-4.3a1.077,1.077,0,0,1,.8,2l-10.9,4.3C30.5,135.1,30.4,135.2,30.2,135.2Z" fill="#690bd6"/><path d="M22.7,85.8a1.087,1.087,0,0,1-1-.7,1.114,1.114,0,0,1,.6-1.4l4.9-1.9a1.077,1.077,0,1,1,.8,2l-4.9,1.9C23,85.7,22.9,85.8,22.7,85.8Z" fill="#690bd6"/><path d="M-18.2,122a1.087,1.087,0,0,1-1-.7,1.114,1.114,0,0,1,.6-1.4l13.1-5.1a1.114,1.114,0,0,1,1.4.6,1.114,1.114,0,0,1-.6,1.4l-13.1,5.1A.6.6,0,0,1-18.2,122Z" fill="#690bd6"/><path d="M-1.2,124.9a1.087,1.087,0,0,1-1-.7,1.114,1.114,0,0,1,.6-1.4l7.5-3a1.077,1.077,0,1,1,.8,2l-7.5,3A.756.756,0,0,1-1.2,124.9Z" fill="#690bd6"/><path d="M-12.3,141.3a1.087,1.087,0,0,1-1-.7,1.114,1.114,0,0,1,.6-1.4l4.1-1.6a1.114,1.114,0,0,1,1.4.6,1.114,1.114,0,0,1-.6,1.4l-4.1,1.6C-12.1,141.2-12.2,141.3-12.3,141.3Z" fill="#690bd6"/><path d="M46.5,95.3a1.087,1.087,0,0,1-1-.7,1.114,1.114,0,0,1,.6-1.4l6.2-2.4a1.077,1.077,0,1,1,.8,2l-6.2,2.4C46.7,95.2,46.6,95.3,46.5,95.3Z" fill="#690bd6"/><path d="M55.9,104.2a1.087,1.087,0,0,1-1-.7,1.114,1.114,0,0,1,.6-1.4l3.5-1.4a1.077,1.077,0,1,1,.8,2l-3.5,1.4C56.2,104.2,56.1,104.2,55.9,104.2Z" fill="#690bd6"/><path d="M40.3,53.1a1.087,1.087,0,0,1-1-.7,1.114,1.114,0,0,1,.6-1.4l3.5-1.4a1.077,1.077,0,0,1,.8,2L40.7,53A.6.6,0,0,1,40.3,53.1Z" fill="#690bd6"/><path d="M50.7,111.9a1.087,1.087,0,0,1-1-.7,1.114,1.114,0,0,1,.6-1.4l1.9-.8a1.077,1.077,0,0,1,.8,2l-1.9.8A.6.6,0,0,1,50.7,111.9Z" fill="#690bd6"/><path d="M74.6,111.4a1.087,1.087,0,0,1-1-.7,1.114,1.114,0,0,1,.6-1.4l6.2-2.4a1.077,1.077,0,1,1,.8,2L75,111.3A.6.6,0,0,1,74.6,111.4Z" fill="#690bd6"/><path d="M84,120.4a1.087,1.087,0,0,1-1-.7,1.114,1.114,0,0,1,.6-1.4l3.5-1.4a1.114,1.114,0,0,1,1.4.6,1.158,1.158,0,0,1-.6,1.4l-3.5,1.4C84.3,120.3,84.2,120.4,84,120.4Z" fill="#690bd6"/><path d="M78.8,128.1a1.087,1.087,0,0,1-1-.7,1.114,1.114,0,0,1,.6-1.4l1.9-.8a1.077,1.077,0,1,1,.8,2l-1.9.8C79.1,128,79,128.1,78.8,128.1Z" fill="#690bd6"/><path d="M41.8,105a1.087,1.087,0,0,1-1-.7,1.114,1.114,0,0,1,.6-1.4l1.9-.8a1.114,1.114,0,0,1,1.4.6,1.158,1.158,0,0,1-.6,1.4l-1.9.8C42.1,104.9,42,105,41.8,105Z" fill="#690bd6"/><path d="M269-17.4a1.087,1.087,0,0,1-1-.7,1.114,1.114,0,0,1,.6-1.4l10.9-4.3a1.114,1.114,0,0,1,1.4.6,1.114,1.114,0,0,1-.6,1.4l-10.9,4.3C269.2-17.5,269.1-17.4,269-17.4Z" fill="#690bd6"/><path d="M337.8-8.4a1.087,1.087,0,0,1-1-.7,1.114,1.114,0,0,1,.6-1.4l6.2-2.4a1.114,1.114,0,0,1,1.4.6,1.114,1.114,0,0,1-.6,1.4l-6.2,2.4C338.1-8.4,338-8.4,337.8-8.4Z" fill="#690bd6"/><path d="M347.3.5a1.087,1.087,0,0,1-1-.7,1.114,1.114,0,0,1,.6-1.4L350.4-3a1.114,1.114,0,0,1,1.4.6,1.114,1.114,0,0,1-.6,1.4L347.7.4A.6.6,0,0,1,347.3.5Z" fill="#690bd6"/><path d="M342.1,8.2a1.087,1.087,0,0,1-1-.7,1.114,1.114,0,0,1,.6-1.4l1.9-.8a1.114,1.114,0,0,1,1.4.6,1.114,1.114,0,0,1-.6,1.4l-1.9.8A.756.756,0,0,1,342.1,8.2Z" fill="#690bd6"/><path d="M316.7-32.9a1.087,1.087,0,0,1-1-.7,1.114,1.114,0,0,1,.6-1.4l6.2-2.4a1.114,1.114,0,0,1,1.4.6,1.114,1.114,0,0,1-.6,1.4L317.1-33C317-32.9,316.9-32.9,316.7-32.9Z" fill="#690bd6"/><path d="M326.2-23.9a1.087,1.087,0,0,1-1-.7,1.114,1.114,0,0,1,.6-1.4l3.5-1.4a1.114,1.114,0,0,1,1.4.6,1.114,1.114,0,0,1-.6,1.4L326.6-24C326.5-24,326.3-23.9,326.2-23.9Z" fill="#690bd6"/><path d="M321-16.2a1.087,1.087,0,0,1-1-.7,1.114,1.114,0,0,1,.6-1.4l1.9-.8a1.114,1.114,0,0,1,1.4.6,1.114,1.114,0,0,1-.6,1.4l-1.9.8C321.2-16.3,321.1-16.2,321-16.2Z" fill="#690bd6"/><path d="M333.2,1.3a1.087,1.087,0,0,1-1-.7,1.114,1.114,0,0,1,.6-1.4l1.9-.8a1.114,1.114,0,0,1,1.4.6,1.114,1.114,0,0,1-.6,1.4l-1.9.8C333.5,1.3,333.4,1.3,333.2,1.3Z" fill="#690bd6"/><path d="M468.4,26a1.087,1.087,0,0,1-1-.7,1.114,1.114,0,0,1,.6-1.4l10.9-4.3a1.077,1.077,0,1,1,.8,2l-10.9,4.3A.6.6,0,0,1,468.4,26Z" fill="#690bd6"/><path d="M540.5,51.9a1.087,1.087,0,0,1-1-.7,1.114,1.114,0,0,1,.6-1.4l6.2-2.4a1.077,1.077,0,0,1,.8,2l-6.2,2.4A.6.6,0,0,1,540.5,51.9Z" fill="#690bd6"/><path d="M549.9,60.9a1.087,1.087,0,0,1-1-.7,1.114,1.114,0,0,1,.6-1.4l3.5-1.4a1.077,1.077,0,0,1,.8,2l-3.5,1.4C550.2,60.8,550.1,60.9,549.9,60.9Z" fill="#690bd6"/><path d="M544.7,68.6a1.087,1.087,0,0,1-1-.7,1.114,1.114,0,0,1,.6-1.4l1.9-.8a1.077,1.077,0,0,1,.8,2l-1.9.8C545,68.5,544.8,68.6,544.7,68.6Z" fill="#690bd6"/><path d="M519.4,27.5a1.087,1.087,0,0,1-1-.7,1.114,1.114,0,0,1,.6-1.4l6.2-2.4a1.077,1.077,0,0,1,.8,2l-6.2,2.4A.6.6,0,0,1,519.4,27.5Z" fill="#690bd6"/><path d="M528.9,36.4a1.087,1.087,0,0,1-1-.7,1.114,1.114,0,0,1,.6-1.4l3.5-1.4a1.077,1.077,0,0,1,.8,2l-3.5,1.4A.756.756,0,0,1,528.9,36.4Z" fill="#690bd6"/><path d="M523.6,44.1a1.087,1.087,0,0,1-1-.7,1.114,1.114,0,0,1,.6-1.4l1.9-.8a1.114,1.114,0,0,1,1.4.6,1.158,1.158,0,0,1-.6,1.4L524,44C523.9,44.1,523.8,44.1,523.6,44.1Z" fill="#690bd6"/><path d="M554.1,26.3a1.087,1.087,0,0,1-1-.7,1.114,1.114,0,0,1,.6-1.4l6.2-2.4a1.077,1.077,0,0,1,.8,2l-6.2,2.4C554.4,26.3,554.3,26.3,554.1,26.3Z" fill="#690bd6"/><path d="M561.8,30.5a1.087,1.087,0,0,1-1-.7,1.114,1.114,0,0,1,.6-1.4L565,27a1.077,1.077,0,0,1,.8,2l-3.5,1.4A1.088,1.088,0,0,1,561.8,30.5Z" fill="#690bd6"/><path d="M553.2,34.6a1.087,1.087,0,0,1-1-.7,1.114,1.114,0,0,1,.6-1.4l1.9-.8a1.077,1.077,0,0,1,.8,2l-1.9.8A.756.756,0,0,1,553.2,34.6Z" fill="#690bd6"/><path d="M550.7,94.3a1.087,1.087,0,0,1-1-.7,1.114,1.114,0,0,1,.6-1.4l6.2-2.4a1.077,1.077,0,0,1,.8,2l-6.2,2.4A.756.756,0,0,1,550.7,94.3Z" fill="#690bd6"/><path d="M558.3,98.6a1.087,1.087,0,0,1-1-.7,1.114,1.114,0,0,1,.6-1.4l3.5-1.4a1.077,1.077,0,0,1,.8,2l-3.5,1.4C558.6,98.5,558.5,98.6,558.3,98.6Z" fill="#690bd6"/><path d="M549.7,102.6a1.087,1.087,0,0,1-1-.7,1.114,1.114,0,0,1,.6-1.4l1.9-.8a1.077,1.077,0,0,1,.8,2l-1.9.8A.6.6,0,0,1,549.7,102.6Z" fill="#690bd6"/><path d="M535.9,61.6a1.087,1.087,0,0,1-1-.7,1.114,1.114,0,0,1,.6-1.4l1.9-.8a1.077,1.077,0,0,1,.8,2l-1.9.8A.756.756,0,0,1,535.9,61.6Z" fill="#690bd6"/><path d="M217,143.2a1.088,1.088,0,0,1-1-.7,1.114,1.114,0,0,1,.6-1.4l6.2-2.4a1.077,1.077,0,0,1,.8,2l-6.2,2.4C217.2,143.1,217.1,143.2,217,143.2Z" fill="#690bd6"/><path d="M226.4,152.1a1.088,1.088,0,0,1-1-.7,1.114,1.114,0,0,1,.6-1.4l3.5-1.4a1.077,1.077,0,1,1,.8,2l-3.5,1.4C226.7,152.1,226.6,152.1,226.4,152.1Z" fill="#690bd6"/><path d="M221.2,159.8a1.088,1.088,0,0,1-1-.7,1.114,1.114,0,0,1,.6-1.4l1.9-.8a1.077,1.077,0,1,1,.8,2l-1.9.8A.6.6,0,0,1,221.2,159.8Z" fill="#690bd6"/><path d="M212.4,152.8a1.088,1.088,0,0,1-1-.7,1.114,1.114,0,0,1,.6-1.4l1.9-.8a1.077,1.077,0,1,1,.8,2l-1.9.8A.756.756,0,0,1,212.4,152.8Z" fill="#690bd6"/><path d="M114.5-20.4a1.087,1.087,0,0,1-1-.7,1.114,1.114,0,0,1,.6-1.4L125-26.8a1.114,1.114,0,0,1,1.4.6,1.114,1.114,0,0,1-.6,1.4l-10.9,4.3A.6.6,0,0,1,114.5-20.4Z" fill="#690bd6"/><path d="M220-22.1a1.087,1.087,0,0,1-1-.7,1.114,1.114,0,0,1,.6-1.4l10.9-4.3a1.114,1.114,0,0,1,1.4.6,1.114,1.114,0,0,1-.6,1.4l-10.9,4.3A.6.6,0,0,1,220-22.1Z" fill="#690bd6"/><path d="M137,22.2a1.087,1.087,0,0,1-1-.7,1.114,1.114,0,0,1,.6-1.4l10.9-4.3a1.077,1.077,0,1,1,.8,2l-10.9,4.3C137.3,22.2,137.2,22.2,137,22.2Z" fill="#690bd6"/><path d="M137.5-21.6a1.087,1.087,0,0,1-1-.7,1.114,1.114,0,0,1,.6-1.4l4.9-1.9a1.114,1.114,0,0,1,1.4.6,1.114,1.114,0,0,1-.6,1.4l-4.9,1.9A.6.6,0,0,1,137.5-21.6Z" fill="#690bd6"/><path d="M96.6,14.7a1.087,1.087,0,0,1-1-.7,1.114,1.114,0,0,1,.6-1.4l13.1-5.1a1.077,1.077,0,0,1,.8,2L97,14.6A.6.6,0,0,1,96.6,14.7Z" fill="#690bd6"/><path d="M75.7-30.4a1.087,1.087,0,0,1-1-.7,1.114,1.114,0,0,1,.6-1.4l13.1-5.1a1.114,1.114,0,0,1,1.4.6,1.114,1.114,0,0,1-.6,1.4L76.1-30.5A.6.6,0,0,1,75.7-30.4Z" fill="#690bd6"/><path d="M113.5,17.6a1.087,1.087,0,0,1-1-.7,1.114,1.114,0,0,1,.6-1.4l7.5-3a1.077,1.077,0,0,1,.8,2l-7.5,3C113.8,17.6,113.7,17.6,113.5,17.6Z" fill="#690bd6"/><path d="M102.4,33.9a1.087,1.087,0,0,1-1-.7,1.114,1.114,0,0,1,.6-1.4l4.1-1.6a1.077,1.077,0,0,1,.8,2l-4.1,1.6C102.7,33.9,102.6,33.9,102.4,33.9Z" fill="#690bd6"/><path d="M245.6,145a1.088,1.088,0,0,1-1-.7,1.114,1.114,0,0,1,.6-1.4l13.1-5.1a1.077,1.077,0,1,1,.8,2L246,145Z" fill="#690bd6"/><path d="M262.6,147.9a1.088,1.088,0,0,1-1-.7,1.114,1.114,0,0,1,.6-1.4l7.5-3a1.077,1.077,0,0,1,.8,2l-7.5,3A.6.6,0,0,1,262.6,147.9Z" fill="#690bd6"/><path d="M251.5,164.3a1.088,1.088,0,0,1-1-.7,1.114,1.114,0,0,1,.6-1.4l4.1-1.6a1.077,1.077,0,0,1,.8,2l-4.1,1.6C251.8,164.2,251.6,164.3,251.5,164.3Z" fill="#690bd6"/><path d="M418.1-15.8a1.087,1.087,0,0,1-1-.7,1.114,1.114,0,0,1,.6-1.4l10.9-4.3a1.114,1.114,0,0,1,1.4.6,1.114,1.114,0,0,1-.6,1.4l-10.9,4.3A.6.6,0,0,1,418.1-15.8Z" fill="#690bd6"/><path d="M377.7-23.3a1.087,1.087,0,0,1-1-.7,1.114,1.114,0,0,1,.6-1.4l13.1-5.1a1.114,1.114,0,0,1,1.4.6,1.114,1.114,0,0,1-.6,1.4l-13.1,5.1A.756.756,0,0,1,377.7-23.3Z" fill="#690bd6"/><path d="M394.6-20.4a1.087,1.087,0,0,1-1-.7,1.114,1.114,0,0,1,.6-1.4l7.5-3a1.114,1.114,0,0,1,1.4.6,1.114,1.114,0,0,1-.6,1.4l-7.5,3A.6.6,0,0,1,394.6-20.4Z" fill="#690bd6"/><path d="M383.5-4a1.087,1.087,0,0,1-1-.7,1.114,1.114,0,0,1,.6-1.4l4.1-1.6a1.114,1.114,0,0,1,1.4.6,1.114,1.114,0,0,1-.6,1.4l-4.1,1.6C383.8-4.1,383.6-4,383.5-4Z" fill="#690bd6"/><path d="M165.9-11.8a1.087,1.087,0,0,1-1-.7,1.114,1.114,0,0,1,.6-1.4l6.2-2.4a1.114,1.114,0,0,1,1.4.6,1.114,1.114,0,0,1-.6,1.4l-6.2,2.4A.756.756,0,0,1,165.9-11.8Z" fill="#690bd6"/><path d="M129.4,49.5a1.087,1.087,0,0,1-1-.7,1.114,1.114,0,0,1,.6-1.4l6.2-2.4a1.077,1.077,0,1,1,.8,2l-6.2,2.4C129.6,49.4,129.5,49.5,129.4,49.5Z" fill="#690bd6"/><path d="M175.3-2.9a1.087,1.087,0,0,1-1-.7,1.114,1.114,0,0,1,.6-1.4l3.5-1.4a1.114,1.114,0,0,1,1.4.6,1.114,1.114,0,0,1-.6,1.4L175.7-3C175.6-2.9,175.5-2.9,175.3-2.9Z" fill="#690bd6"/><path d="M212.4-25.8a1.087,1.087,0,0,1-1-.7,1.114,1.114,0,0,1,.6-1.4l3.5-1.4a1.114,1.114,0,0,1,1.4.6,1.114,1.114,0,0,1-.6,1.4l-3.5,1.4C212.6-25.9,212.5-25.8,212.4-25.8Z" fill="#690bd6"/><path d="M170.1,4.8a1.087,1.087,0,0,1-1-.7,1.114,1.114,0,0,1,.6-1.4l1.9-.8a1.114,1.114,0,0,1,1.4.6,1.114,1.114,0,0,1-.6,1.4l-1.9.8A.6.6,0,0,1,170.1,4.8Z" fill="#690bd6"/><path d="M145,82.7a1.088,1.088,0,0,1-1-.7,1.114,1.114,0,0,1,.6-1.4l6.2-2.4a1.077,1.077,0,1,1,.8,2l-6.2,2.4C145.3,82.7,145.2,82.7,145,82.7Z" fill="#690bd6"/><path d="M154.5,91.7a1.088,1.088,0,0,1-1-.7,1.114,1.114,0,0,1,.6-1.4l3.5-1.4a1.077,1.077,0,1,1,.8,2l-3.5,1.4A.756.756,0,0,1,154.5,91.7Z" fill="#690bd6"/><path d="M150.2,64.7a1.088,1.088,0,0,1-1-.7,1.114,1.114,0,0,1,.6-1.4l1.9-.8a1.077,1.077,0,1,1,.8,2l-1.9.8C150.5,64.6,150.3,64.7,150.2,64.7Z" fill="#690bd6"/><path d="M161.2-2.1a1.087,1.087,0,0,1-1-.7,1.114,1.114,0,0,1,.6-1.4l1.9-.8a1.114,1.114,0,0,1,1.4.6,1.114,1.114,0,0,1-.6,1.4l-1.9.8C161.5-2.1,161.4-2.1,161.2-2.1Z" fill="#690bd6"/><path d="M340.7,99.9a1.088,1.088,0,0,1-1-.7,1.114,1.114,0,0,1,.6-1.4l10.9-4.3a1.077,1.077,0,1,1,.8,2l-10.9,4.3A.6.6,0,0,1,340.7,99.9Z" fill="#690bd6"/><path d="M289.8,86a1.088,1.088,0,0,1-1-.7,1.114,1.114,0,0,1,.6-1.4l10.9-4.3a1.077,1.077,0,1,1,.8,2l-10.9,4.3C290.1,85.9,290,86,289.8,86Z" fill="#690bd6"/><path d="M365.8,148.1a1.088,1.088,0,0,1-1-.7,1.114,1.114,0,0,1,.6-1.4l10.9-4.3a1.077,1.077,0,1,1,.8,2L366.2,148A.6.6,0,0,1,365.8,148.1Z" fill="#690bd6"/><path d="M390.7,56.4a1.087,1.087,0,0,1-1-.7,1.114,1.114,0,0,1,.6-1.4L401.2,50a1.077,1.077,0,1,1,.8,2l-10.9,4.3C391,56.4,390.9,56.4,390.7,56.4Z" fill="#690bd6"/><path d="M399.2,61.1a1.087,1.087,0,0,1-1-.7,1.114,1.114,0,0,1,.6-1.4l10.9-4.3a1.077,1.077,0,1,1,.8,2L399.6,61C399.5,61.1,399.4,61.1,399.2,61.1Z" fill="#690bd6"/><path d="M300.7,160.2a1.088,1.088,0,0,1-1-.7,1.114,1.114,0,0,1,.6-1.4l10.9-4.3a1.077,1.077,0,0,1,.8,2l-10.9,4.3A.6.6,0,0,1,300.7,160.2Z" fill="#690bd6"/><path d="M346.6,107.9a1.088,1.088,0,0,1-1-.7,1.114,1.114,0,0,1,.6-1.4l4.9-1.9a1.077,1.077,0,1,1,.8,2l-4.9,1.9C346.9,107.8,346.7,107.9,346.6,107.9Z" fill="#690bd6"/><path d="M322.8,135a1.088,1.088,0,0,1-1-.7,1.114,1.114,0,0,1,.6-1.4l13.1-5.1a1.077,1.077,0,1,1,.8,2l-13.1,5.1C323.1,134.9,322.9,135,322.8,135Z" fill="#690bd6"/><path d="M339.7,137.9a1.088,1.088,0,0,1-1-.7,1.114,1.114,0,0,1,.6-1.4l7.5-3a1.077,1.077,0,1,1,.8,2l-7.5,3C340,137.8,339.9,137.9,339.7,137.9Z" fill="#690bd6"/><path d="M404.1,81.4a1.088,1.088,0,0,1-1-.7,1.114,1.114,0,0,1,.6-1.4l13.1-5.1a1.077,1.077,0,1,1,.8,2l-13.1,5.1A.6.6,0,0,1,404.1,81.4Z" fill="#690bd6"/><path d="M421,84.3a1.088,1.088,0,0,1-1-.7,1.114,1.114,0,0,1,.6-1.4l7.5-3a1.077,1.077,0,1,1,.8,2l-7.5,3C421.3,84.3,421.2,84.3,421,84.3Z" fill="#690bd6"/><path d="M190.5,98.9a1.088,1.088,0,0,1-1-.7,1.114,1.114,0,0,1,.6-1.4l13.1-5.1a1.077,1.077,0,1,1,.8,2l-13.1,5.1C190.7,98.8,190.6,98.9,190.5,98.9Z" fill="#690bd6"/><path d="M207.4,101.8a1.088,1.088,0,0,1-1-.7,1.114,1.114,0,0,1,.6-1.4l7.5-3a1.077,1.077,0,1,1,.8,2l-7.5,3C207.7,101.7,207.6,101.8,207.4,101.8Z" fill="#690bd6"/><path d="M328.6,154.2a1.088,1.088,0,0,1-1-.7,1.114,1.114,0,0,1,.6-1.4l4.1-1.6a1.077,1.077,0,1,1,.8,2l-4.1,1.6C328.9,154.2,328.8,154.2,328.6,154.2Z" fill="#690bd6"/><path d="M502.6-25.4a1.087,1.087,0,0,1-1-.7,1.114,1.114,0,0,1,.6-1.4l10.9-4.3a1.114,1.114,0,0,1,1.4.6,1.114,1.114,0,0,1-.6,1.4L503-25.4Z" fill="#690bd6"/><path d="M531.3-13.5a1.087,1.087,0,0,1-1-.7,1.114,1.114,0,0,1,.6-1.4L544-20.7a1.114,1.114,0,0,1,1.4.6,1.114,1.114,0,0,1-.6,1.4l-13.1,5.1A.6.6,0,0,1,531.3-13.5Z" fill="#690bd6"/><path d="M548.3-10.6a1.087,1.087,0,0,1-1-.7,1.114,1.114,0,0,1,.6-1.4l7.5-3a1.114,1.114,0,0,1,1.4.6,1.114,1.114,0,0,1-.6,1.4l-7.5,3A.756.756,0,0,1,548.3-10.6Z" fill="#690bd6"/><path d="M547.2,144.4a1.087,1.087,0,0,1-1-.7,1.114,1.114,0,0,1,.6-1.4l13.1-5.1a1.077,1.077,0,0,1,.8,2l-13.1,5.1A.6.6,0,0,1,547.2,144.4Z" fill="#690bd6"/><path d="M557.9,148.4a1.087,1.087,0,0,1-1-.7,1.114,1.114,0,0,1,.6-1.4l7.5-3a1.077,1.077,0,0,1,.8,2l-7.5,3A.756.756,0,0,1,557.9,148.4Z" fill="#690bd6"/><path d="M525.9,167.7a1.087,1.087,0,0,1-1-.7,1.114,1.114,0,0,1,.6-1.4l7.5-3a1.077,1.077,0,0,1,.8,2l-7.5,3C526.2,167.6,526.1,167.7,525.9,167.7Z" fill="#690bd6"/><path d="M537.2,5.8a1.087,1.087,0,0,1-1-.7,1.114,1.114,0,0,1,.6-1.4l4.1-1.6a1.114,1.114,0,0,1,1.4.6,1.114,1.114,0,0,1-.6,1.4l-4.1,1.6A.756.756,0,0,1,537.2,5.8Z" fill="#690bd6"/><path d="M411.1,148.8a1.088,1.088,0,0,1-1-.7,1.114,1.114,0,0,1,.6-1.4l6.2-2.4a1.077,1.077,0,0,1,.8,2l-6.2,2.4C411.4,148.8,411.3,148.8,411.1,148.8Z" fill="#690bd6"/><path d="M420.6,157.8a1.088,1.088,0,0,1-1-.7,1.114,1.114,0,0,1,.6-1.4l3.5-1.4a1.077,1.077,0,1,1,.8,2l-3.5,1.4C420.9,157.7,420.7,157.8,420.6,157.8Z" fill="#690bd6"/><path d="M415.4,165.5a1.088,1.088,0,0,1-1-.7,1.114,1.114,0,0,1,.6-1.4l1.9-.8a1.077,1.077,0,1,1,.8,2l-1.9.8C415.6,165.4,415.5,165.5,415.4,165.5Z" fill="#690bd6"/><path d="M406.5,158.5a1.088,1.088,0,0,1-1-.7,1.114,1.114,0,0,1,.6-1.4l1.9-.8a1.077,1.077,0,0,1,.8,2l-1.9.8A.6.6,0,0,1,406.5,158.5Z" fill="#690bd6"/><path d="M-15.3-13.8a1.087,1.087,0,0,1-1-.7,1.114,1.114,0,0,1,.6-1.4l6.2-2.4a1.114,1.114,0,0,1,1.4.6,1.114,1.114,0,0,1-.6,1.4l-6.2,2.4A.6.6,0,0,1-15.3-13.8Z" fill="#690bd6"/><path d="M-5.8-4.9a1.087,1.087,0,0,1-1-.7A.97.97,0,0,1-6.2-7l3.5-1.4a1.114,1.114,0,0,1,1.4.6.97.97,0,0,1-.6,1.4L-5.4-5A.756.756,0,0,1-5.8-4.9Z" fill="#690bd6"/><path d="M-11.1,2.8a1.087,1.087,0,0,1-1-.7A1.114,1.114,0,0,1-11.5.7l1.9-.8A1.237,1.237,0,0,1-8.1.5,1.237,1.237,0,0,1-8.7,2l-1.9.8Z" fill="#690bd6"/><path d="M-19.9-4.1a1.087,1.087,0,0,1-1-.7,1.114,1.114,0,0,1,.6-1.4l1.9-.8a1.114,1.114,0,0,1,1.4.6A1.114,1.114,0,0,1-17.6-5l-1.9.8A.6.6,0,0,1-19.9-4.1Z" fill="#690bd6"/><path d="M40.7,76.5a.86.86,0,0,1-.8-.8,3.222,3.222,0,0,0-3.2-3.2.8.8,0,0,1,0-1.6,3.222,3.222,0,0,0,3.2-3.2.8.8,0,1,1,1.6,0,3.222,3.222,0,0,0,3.2,3.2.8.8,0,0,1,0,1.6,3.222,3.222,0,0,0-3.2,3.2A.86.86,0,0,1,40.7,76.5Z" fill="#fff"/><path d="M26,67.9a.43.43,0,0,1-.4-.4A1.538,1.538,0,0,0,24.1,66a.4.4,0,0,1,0-.8,1.538,1.538,0,0,0,1.5-1.5.4.4,0,1,1,.8,0,1.538,1.538,0,0,0,1.5,1.5.4.4,0,0,1,0,.8,1.538,1.538,0,0,0-1.5,1.5A.366.366,0,0,1,26,67.9Z" fill="#fff"/><path d="M250.8-17.5a.86.86,0,0,1-.8-.8,3.222,3.222,0,0,0-3.2-3.2.86.86,0,0,1-.8-.8.86.86,0,0,1,.8-.8,3.222,3.222,0,0,0,3.2-3.2.86.86,0,0,1,.8-.8.86.86,0,0,1,.8.8,3.222,3.222,0,0,0,3.2,3.2.86.86,0,0,1,.8.8.86.86,0,0,1-.8.8,3.222,3.222,0,0,0-3.2,3.2A.789.789,0,0,1,250.8-17.5Z" fill="#fff"/><path d="M284.6,161.7a.86.86,0,0,1-.8-.8,3.222,3.222,0,0,0-3.2-3.2.8.8,0,0,1,0-1.6,3.222,3.222,0,0,0,3.2-3.2.8.8,0,1,1,1.6,0,3.222,3.222,0,0,0,3.2,3.2.8.8,0,0,1,0,1.6,3.222,3.222,0,0,0-3.2,3.2A.789.789,0,0,1,284.6,161.7Z" fill="#fff"/><path d="M272.4,164.6a.472.472,0,0,1-.5-.5,2.006,2.006,0,0,0-2-2,.5.5,0,0,1,0-1,2.006,2.006,0,0,0,2-2,.5.5,0,0,1,1,0,2.006,2.006,0,0,0,2,2,.5.5,0,0,1,0,1,2.006,2.006,0,0,0-2,2A.472.472,0,0,1,272.4,164.6Z" fill="#fff"/><path d="M368.3,104.7a.645.645,0,0,1-.6-.6,2.433,2.433,0,0,0-2.4-2.4.6.6,0,1,1,0-1.2,2.433,2.433,0,0,0,2.4-2.4.6.6,0,0,1,1.2,0,2.433,2.433,0,0,0,2.4,2.4.6.6,0,1,1,0,1.2,2.433,2.433,0,0,0-2.4,2.4A.576.576,0,0,1,368.3,104.7Z" fill="#fff"/><path d="M508,14.2a.86.86,0,0,1-.8-.8,3.222,3.222,0,0,0-3.2-3.2.86.86,0,0,1-.8-.8.86.86,0,0,1,.8-.8,3.222,3.222,0,0,0,3.2-3.2.8.8,0,1,1,1.6,0A3.222,3.222,0,0,0,512,8.6a.86.86,0,0,1,.8.8.86.86,0,0,1-.8.8,3.222,3.222,0,0,0-3.2,3.2A.736.736,0,0,1,508,14.2Z" fill="#fff"/><path d="M555.9,122.2a.86.86,0,0,1-.8-.8,3.222,3.222,0,0,0-3.2-3.2.8.8,0,0,1,0-1.6,3.222,3.222,0,0,0,3.2-3.2.8.8,0,1,1,1.6,0,3.222,3.222,0,0,0,3.2,3.2.8.8,0,0,1,0,1.6,3.222,3.222,0,0,0-3.2,3.2A.789.789,0,0,1,555.9,122.2Z" fill="#fff"/><path d="M523,149.5a.43.43,0,0,1-.4-.4,1.793,1.793,0,0,0-1.8-1.8.4.4,0,1,1,0-.8,1.793,1.793,0,0,0,1.8-1.8.4.4,0,0,1,.8,0,1.793,1.793,0,0,0,1.8,1.8.4.4,0,1,1,0,.8,1.793,1.793,0,0,0-1.8,1.8C523.5,149.3,523.3,149.5,523,149.5Z" fill="#fff"/><path d="M243.4-12.4a.43.43,0,0,1-.4-.4,1.538,1.538,0,0,0-1.5-1.5.43.43,0,0,1-.4-.4.43.43,0,0,1,.4-.4,1.538,1.538,0,0,0,1.5-1.5.43.43,0,0,1,.4-.4.43.43,0,0,1,.4.4,1.538,1.538,0,0,0,1.5,1.5.43.43,0,0,1,.4.4.43.43,0,0,1-.4.4,1.538,1.538,0,0,0-1.5,1.5C243.7-12.5,243.6-12.4,243.4-12.4Z" fill="#fff"/><path d="M558.1,7a.43.43,0,0,1-.4-.4,1.538,1.538,0,0,0-1.5-1.5.43.43,0,0,1-.4-.4.43.43,0,0,1,.4-.4,1.538,1.538,0,0,0,1.5-1.5.4.4,0,0,1,.8,0A1.538,1.538,0,0,0,560,4.3a.43.43,0,0,1,.4.4.43.43,0,0,1-.4.4,1.538,1.538,0,0,0-1.5,1.5A.43.43,0,0,1,558.1,7Z" fill="#fff"/><path d="M14,100a.43.43,0,0,1-.4-.4,1.538,1.538,0,0,0-1.5-1.5.4.4,0,0,1,0-.8,1.538,1.538,0,0,0,1.5-1.5.4.4,0,1,1,.8,0,1.538,1.538,0,0,0,1.5,1.5.4.4,0,0,1,0,.8,1.538,1.538,0,0,0-1.5,1.5C14.3,99.8,14.2,100,14,100Z" fill="#fff"/><circle cx="1.2" cy="1.2" r="1.2" transform="translate(27.8 113.5)" fill="#fff"/><circle cx="1.2" cy="1.2" r="1.2" transform="translate(207.4 -7.2)" fill="#fff"/><circle cx="1.2" cy="1.2" r="1.2" transform="translate(546.3 125.1)" fill="#fff"/></g><g transform="translate(2144.969 705.663)"><path d="M6.663.3A13.645,13.645,0,0,1,3.184-.148,8.557,8.557,0,0,1,.443-1.328l1.37-3.078a8.868,8.868,0,0,0,2.3,1.054,8.749,8.749,0,0,0,2.572.4q2.4,0,2.4-1.2A1,1,0,0,0,8.4-5.092a12.6,12.6,0,0,0-2.2-.643A21.03,21.03,0,0,1,3.416-6.5,4.684,4.684,0,0,1,1.5-7.822a3.561,3.561,0,0,1-.8-2.446A4.234,4.234,0,0,1,1.434-12.7a4.938,4.938,0,0,1,2.2-1.718,9.069,9.069,0,0,1,3.595-.633,12.681,12.681,0,0,1,2.867.327,8.781,8.781,0,0,1,2.488.959l-1.286,3.1a8.592,8.592,0,0,0-4.09-1.139,3.429,3.429,0,0,0-1.813.369,1.106,1.106,0,0,0-.569.959.951.951,0,0,0,.675.886,12.2,12.2,0,0,0,2.172.611,20.344,20.344,0,0,1,2.794.77,4.824,4.824,0,0,1,1.919,1.307A3.491,3.491,0,0,1,13.2-4.47a4.151,4.151,0,0,1-.738,2.4A5.03,5.03,0,0,1,10.247-.348,8.955,8.955,0,0,1,6.663.3ZM22.813-.464A4.036,4.036,0,0,1,21.58.021,6.846,6.846,0,0,1,20.03.19a4.923,4.923,0,0,1-3.437-1.1,4.2,4.2,0,0,1-1.2-3.268V-8.012H13.726v-2.994h1.666v-2.973H19.4v2.973h2.614v2.994H19.4v3.8a1.346,1.346,0,0,0,.327.959,1.143,1.143,0,0,0,.875.348,2.122,2.122,0,0,0,1.223-.358Zm6.41-11.154a6.451,6.451,0,0,1,4.343,1.3,4.978,4.978,0,0,1,1.5,3.974V0H31.332V-1.476Q30.467.19,27.958.19a5.279,5.279,0,0,1-2.3-.464,3.407,3.407,0,0,1-1.465-1.255,3.323,3.323,0,0,1-.5-1.8,2.925,2.925,0,0,1,1.244-2.52,6.605,6.605,0,0,1,3.837-.9h2.277Q30.952-8.56,28.633-8.56a5.563,5.563,0,0,0-1.666.264,4.438,4.438,0,0,0-1.434.727l-1.349-2.72a7.474,7.474,0,0,1,2.309-.98A10.978,10.978,0,0,1,29.223-11.618ZM29.076-2.34A2.219,2.219,0,0,0,30.3-2.678a1.878,1.878,0,0,0,.759-.991V-4.66H29.329q-1.75,0-1.75,1.16a1.02,1.02,0,0,0,.4.843A1.724,1.724,0,0,0,29.076-2.34Zm13.7-1.666L41.6-2.8V0H37.594V-15.645H41.6v8.2l4.09-3.985h4.744L45.69-6.536,50.835,0H45.985ZM63.232-5.693q0,.042-.063.991H54.862a2.325,2.325,0,0,0,.98,1.36,3.273,3.273,0,0,0,1.824.474A3.948,3.948,0,0,0,59.089-3.1,4.2,4.2,0,0,0,60.3-3.858L62.41-1.666A6.208,6.208,0,0,1,57.54.19a7.776,7.776,0,0,1-3.521-.759,5.669,5.669,0,0,1-2.351-2.108,5.7,5.7,0,0,1-.833-3.057,5.72,5.72,0,0,1,.812-3.026,5.672,5.672,0,0,1,2.245-2.1,6.787,6.787,0,0,1,3.226-.759,6.749,6.749,0,0,1,3.1.706,5.374,5.374,0,0,1,2.2,2.045A6,6,0,0,1,63.232-5.693ZM57.139-8.771a2.314,2.314,0,0,0-1.55.527A2.38,2.38,0,0,0,54.8-6.81h4.681a2.38,2.38,0,0,0-.791-1.434A2.314,2.314,0,0,0,57.139-8.771Zm17.9-1.286a3.729,3.729,0,0,1,1.592-1.17,6.039,6.039,0,0,1,2.245-.39v3.605a8.19,8.19,0,0,0-.907-.063,2.794,2.794,0,0,0-2.014.7,2.821,2.821,0,0,0-.727,2.13V0H71.223V-11.428H75.04ZM92.1-5.693q0,.042-.063.991H83.727a2.325,2.325,0,0,0,.98,1.36,3.273,3.273,0,0,0,1.824.474A3.948,3.948,0,0,0,87.954-3.1a4.2,4.2,0,0,0,1.212-.759l2.108,2.193A6.208,6.208,0,0,1,86.4.19a7.776,7.776,0,0,1-3.521-.759,5.669,5.669,0,0,1-2.351-2.108A5.7,5.7,0,0,1,79.7-5.735a5.72,5.72,0,0,1,.812-3.026,5.672,5.672,0,0,1,2.245-2.1,6.787,6.787,0,0,1,3.226-.759,6.749,6.749,0,0,1,3.1.706,5.373,5.373,0,0,1,2.2,2.045A6,6,0,0,1,92.1-5.693ZM86-8.771a2.314,2.314,0,0,0-1.55.527,2.38,2.38,0,0,0-.791,1.434h4.681a2.38,2.38,0,0,0-.791-1.434A2.314,2.314,0,0,0,86-8.771ZM101.4-11.618a4.7,4.7,0,0,1,3.426,1.265,5.109,5.109,0,0,1,1.3,3.816V0h-4.006V-5.883q0-2.34-1.877-2.34a2.143,2.143,0,0,0-1.655.675,2.9,2.9,0,0,0-.622,2.024V0H93.953V-11.428h3.816v1.244a4.541,4.541,0,0,1,1.6-1.065A5.428,5.428,0,0,1,101.4-11.618Zm7.422-3.142H115.8a9.769,9.769,0,0,1,4.3.907,6.829,6.829,0,0,1,2.91,2.572,7.248,7.248,0,0,1,1.033,3.9,7.248,7.248,0,0,1-1.033,3.9A6.829,6.829,0,0,1,120.1-.907,9.769,9.769,0,0,1,115.8,0h-6.979Zm6.81,11.428a4.279,4.279,0,0,0,3.047-1.075,3.873,3.873,0,0,0,1.149-2.973,3.873,3.873,0,0,0-1.149-2.973,4.279,4.279,0,0,0-3.047-1.075h-2.636v8.1ZM133.676.3A8.828,8.828,0,0,1,129.469-.7a7.445,7.445,0,0,1-2.931-2.741,7.434,7.434,0,0,1-1.065-3.943,7.434,7.434,0,0,1,1.065-3.943,7.445,7.445,0,0,1,2.931-2.741,8.828,8.828,0,0,1,4.206-.991,8.828,8.828,0,0,1,4.206.991,7.446,7.446,0,0,1,2.931,2.741,7.435,7.435,0,0,1,1.065,3.943,7.435,7.435,0,0,1-1.065,3.943A7.446,7.446,0,0,1,137.882-.7,8.828,8.828,0,0,1,133.676.3Zm0-3.458A3.953,3.953,0,0,0,135.7-3.69a3.791,3.791,0,0,0,1.434-1.486,4.5,4.5,0,0,0,.527-2.2,4.5,4.5,0,0,0-.527-2.2,3.791,3.791,0,0,0-1.434-1.486,3.953,3.953,0,0,0-2.024-.527,3.953,3.953,0,0,0-2.024.527,3.792,3.792,0,0,0-1.434,1.486,4.5,4.5,0,0,0-.527,2.2,4.5,4.5,0,0,0,.527,2.2,3.792,3.792,0,0,0,1.434,1.486A3.953,3.953,0,0,0,133.676-3.163ZM153.959-7.7h3.69v6.115a9.621,9.621,0,0,1-2.91,1.392A11.579,11.579,0,0,1,151.45.3a8.8,8.8,0,0,1-4.175-.98,7.314,7.314,0,0,1-2.91-2.73,7.531,7.531,0,0,1-1.054-3.964,7.531,7.531,0,0,1,1.054-3.964,7.279,7.279,0,0,1,2.931-2.73,9.014,9.014,0,0,1,4.238-.98,9.441,9.441,0,0,1,3.711.7,7.153,7.153,0,0,1,2.741,2l-2.657,2.4a4.683,4.683,0,0,0-3.584-1.645,4.154,4.154,0,0,0-3.057,1.149,4.125,4.125,0,0,0-1.16,3.068,4.456,4.456,0,0,0,.527,2.182,3.78,3.78,0,0,0,1.476,1.5,4.328,4.328,0,0,0,2.172.538,5.334,5.334,0,0,0,2.256-.485Zm18.2,4.47V0H160.305V-14.759h11.575v3.226h-7.443v2.488H171v3.121h-6.557v2.7Z" transform="translate(214.998 65.044)" fill="#fff"/><path d="M6.157-11.618a6.451,6.451,0,0,1,4.343,1.3A4.978,4.978,0,0,1,12-6.346V0H8.265V-1.476Q7.4.19,4.892.19a5.279,5.279,0,0,1-2.3-.464A3.407,3.407,0,0,1,1.128-1.529a3.323,3.323,0,0,1-.5-1.8,2.925,2.925,0,0,1,1.244-2.52,6.605,6.605,0,0,1,3.837-.9H7.991Q7.886-8.56,5.566-8.56A5.563,5.563,0,0,0,3.9-8.3a4.438,4.438,0,0,0-1.434.727l-1.349-2.72a7.474,7.474,0,0,1,2.309-.98A10.978,10.978,0,0,1,6.157-11.618ZM6.009-2.34a2.219,2.219,0,0,0,1.223-.337,1.878,1.878,0,0,0,.759-.991V-4.66H6.262q-1.75,0-1.75,1.16a1.02,1.02,0,0,0,.4.843A1.724,1.724,0,0,0,6.009-2.34ZM21.97-11.618A4.7,4.7,0,0,1,25.4-10.352a5.109,5.109,0,0,1,1.3,3.816V0H22.687V-5.883q0-2.34-1.877-2.34a2.143,2.143,0,0,0-1.655.675,2.9,2.9,0,0,0-.622,2.024V0H14.527V-11.428h3.816v1.244a4.541,4.541,0,0,1,1.6-1.065A5.428,5.428,0,0,1,21.97-11.618Zm19.545-4.027V0H37.7V-1.139A4.134,4.134,0,0,1,34.347.19,5.681,5.681,0,0,1,31.5-.538a5.26,5.26,0,0,1-2.035-2.077,6.327,6.327,0,0,1-.749-3.121,6.267,6.267,0,0,1,.749-3.11A5.205,5.205,0,0,1,31.5-10.9a5.747,5.747,0,0,1,2.846-.717,4.145,4.145,0,0,1,3.163,1.181v-5.208ZM35.19-2.994A2.229,2.229,0,0,0,36.9-3.721a2.847,2.847,0,0,0,.675-2.014,2.8,2.8,0,0,0-.664-1.982,2.236,2.236,0,0,0-1.718-.717,2.269,2.269,0,0,0-1.729.717,2.777,2.777,0,0,0-.675,1.982,2.847,2.847,0,0,0,.675,2.014A2.253,2.253,0,0,0,35.19-2.994ZM54.377.19a12.317,12.317,0,0,1-2.825-.327,7.463,7.463,0,0,1-2.235-.854l1.2-2.741a6.789,6.789,0,0,0,1.855.77,8.3,8.3,0,0,0,2.13.285,3.411,3.411,0,0,0,1.381-.2.628.628,0,0,0,.411-.58q0-.38-.5-.538A10.256,10.256,0,0,0,54.229-4.3a15.515,15.515,0,0,1-2.33-.443,3.6,3.6,0,0,1-1.655-1.012,2.894,2.894,0,0,1-.7-2.066,3.123,3.123,0,0,1,.654-1.95,4.335,4.335,0,0,1,1.908-1.349,8.176,8.176,0,0,1,3-.5,12.144,12.144,0,0,1,2.467.253,7.09,7.09,0,0,1,2.045.717l-1.2,2.72a6.662,6.662,0,0,0-3.289-.843,3.278,3.278,0,0,0-1.392.221.66.66,0,0,0-.443.58q0,.4.485.559a11.12,11.12,0,0,0,1.6.327,17.669,17.669,0,0,1,2.34.485,3.577,3.577,0,0,1,1.613,1,2.851,2.851,0,0,1,.685,2.035,3.092,3.092,0,0,1-.654,1.929A4.258,4.258,0,0,1,57.445-.3,8.647,8.647,0,0,1,54.377.19ZM69.642-.464a4.036,4.036,0,0,1-1.233.485,6.846,6.846,0,0,1-1.55.169,4.923,4.923,0,0,1-3.437-1.1,4.2,4.2,0,0,1-1.2-3.268V-8.012H60.555v-2.994H62.22v-2.973h4.006v2.973h2.614v2.994H66.226v3.8a1.346,1.346,0,0,0,.327.959,1.143,1.143,0,0,0,.875.348,2.122,2.122,0,0,0,1.223-.358Zm6.41-11.154a6.451,6.451,0,0,1,4.343,1.3,4.978,4.978,0,0,1,1.5,3.974V0H78.16V-1.476Q77.3.19,74.787.19a5.279,5.279,0,0,1-2.3-.464,3.407,3.407,0,0,1-1.465-1.255,3.323,3.323,0,0,1-.5-1.8,2.925,2.925,0,0,1,1.244-2.52,6.605,6.605,0,0,1,3.837-.9h2.277Q77.781-8.56,75.461-8.56A5.563,5.563,0,0,0,73.8-8.3a4.438,4.438,0,0,0-1.434.727l-1.349-2.72a7.474,7.474,0,0,1,2.309-.98A10.978,10.978,0,0,1,76.052-11.618ZM75.9-2.34a2.219,2.219,0,0,0,1.223-.337,1.878,1.878,0,0,0,.759-.991V-4.66H76.157q-1.75,0-1.75,1.16a1.02,1.02,0,0,0,.4.843A1.724,1.724,0,0,0,75.9-2.34Zm12.334-7.717a3.729,3.729,0,0,1,1.592-1.17,6.039,6.039,0,0,1,2.245-.39v3.605a8.19,8.19,0,0,0-.907-.063,2.794,2.794,0,0,0-2.014.7,2.821,2.821,0,0,0-.727,2.13V0H84.422V-11.428h3.816ZM101.965-.464a4.036,4.036,0,0,1-1.233.485,6.846,6.846,0,0,1-1.55.169,4.923,4.923,0,0,1-3.437-1.1,4.2,4.2,0,0,1-1.2-3.268V-8.012H92.877v-2.994h1.666v-2.973h4.006v2.973h2.614v2.994H98.549v3.8a1.346,1.346,0,0,0,.327.959,1.143,1.143,0,0,0,.875.348,2.122,2.122,0,0,0,1.223-.358ZM121.32-5.693q0,.042-.063.991H112.95a2.325,2.325,0,0,0,.98,1.36,3.273,3.273,0,0,0,1.824.474,3.948,3.948,0,0,0,1.423-.232,4.2,4.2,0,0,0,1.212-.759L120.5-1.666A6.208,6.208,0,0,1,115.627.19a7.776,7.776,0,0,1-3.521-.759,5.669,5.669,0,0,1-2.351-2.108,5.7,5.7,0,0,1-.833-3.057,5.72,5.72,0,0,1,.812-3.026,5.672,5.672,0,0,1,2.245-2.1,6.787,6.787,0,0,1,3.226-.759,6.749,6.749,0,0,1,3.1.706,5.373,5.373,0,0,1,2.2,2.045A6,6,0,0,1,121.32-5.693Zm-6.093-3.078a2.314,2.314,0,0,0-1.55.527,2.38,2.38,0,0,0-.791,1.434h4.681a2.38,2.38,0,0,0-.791-1.434A2.314,2.314,0,0,0,115.227-8.771Zm12.5-2.846a6.451,6.451,0,0,1,4.343,1.3,4.978,4.978,0,0,1,1.5,3.974V0h-3.732V-1.476Q128.974.19,126.465.19a5.279,5.279,0,0,1-2.3-.464A3.407,3.407,0,0,1,122.7-1.529a3.323,3.323,0,0,1-.5-1.8,2.925,2.925,0,0,1,1.244-2.52,6.605,6.605,0,0,1,3.837-.9h2.277q-.105-1.813-2.425-1.813a5.563,5.563,0,0,0-1.666.264,4.438,4.438,0,0,0-1.434.727l-1.349-2.72A7.474,7.474,0,0,1,125-11.27,10.978,10.978,0,0,1,127.73-11.618Zm-.148,9.277a2.219,2.219,0,0,0,1.223-.337,1.878,1.878,0,0,0,.759-.991V-4.66h-1.729q-1.75,0-1.75,1.16a1.02,1.02,0,0,0,.4.843A1.724,1.724,0,0,0,127.582-2.34Zm12.334-7.717a3.729,3.729,0,0,1,1.592-1.17,6.039,6.039,0,0,1,2.246-.39v3.605a8.19,8.19,0,0,0-.907-.063,2.794,2.794,0,0,0-2.014.7,2.821,2.821,0,0,0-.727,2.13V0H136.1V-11.428h3.816Zm12.925-1.56a4.7,4.7,0,0,1,3.426,1.265,5.109,5.109,0,0,1,1.3,3.816V0h-4.006V-5.883q0-2.34-1.877-2.34a2.143,2.143,0,0,0-1.655.675,2.9,2.9,0,0,0-.622,2.024V0H145.4V-11.428h3.816v1.244a4.541,4.541,0,0,1,1.6-1.065A5.428,5.428,0,0,1,152.842-11.618Zm7.232.19h4.006V0h-4.006Zm2-1.265a2.536,2.536,0,0,1-1.771-.611,1.966,1.966,0,0,1-.675-1.518,1.966,1.966,0,0,1,.675-1.518,2.536,2.536,0,0,1,1.771-.611,2.622,2.622,0,0,1,1.771.58,1.871,1.871,0,0,1,.675,1.486,2.045,2.045,0,0,1-.675,1.571A2.51,2.51,0,0,1,162.077-12.693Zm12.039,1.075a4.7,4.7,0,0,1,3.426,1.265,5.109,5.109,0,0,1,1.3,3.816V0h-4.006V-5.883q0-2.34-1.877-2.34a2.143,2.143,0,0,0-1.655.675,2.9,2.9,0,0,0-.622,2.024V0h-4.006V-11.428h3.816v1.244a4.541,4.541,0,0,1,1.6-1.065A5.428,5.428,0,0,1,174.116-11.618Zm19.693.19v9.34a6.178,6.178,0,0,1-1.729,4.776A7.09,7.09,0,0,1,187.1,4.28a12.664,12.664,0,0,1-3.163-.38,7.479,7.479,0,0,1-2.509-1.117l1.455-2.8a5.121,5.121,0,0,0,1.761.9,7.124,7.124,0,0,0,2.1.327,3.292,3.292,0,0,0,2.319-.7A2.708,2.708,0,0,0,189.8-1.56v-.38A4.23,4.23,0,0,1,186.408-.59a5.871,5.871,0,0,1-2.8-.685,5.218,5.218,0,0,1-2.045-1.94,5.489,5.489,0,0,1-.759-2.9,5.449,5.449,0,0,1,.759-2.878,5.218,5.218,0,0,1,2.045-1.94,5.871,5.871,0,0,1,2.8-.685,4.116,4.116,0,0,1,3.584,1.581v-1.392Zm-6.452,7.654a2.521,2.521,0,0,0,1.782-.654,2.194,2.194,0,0,0,.706-1.687,2.177,2.177,0,0,0-.7-1.676,2.536,2.536,0,0,0-1.792-.643,2.575,2.575,0,0,0-1.8.643,2.161,2.161,0,0,0-.706,1.676,2.178,2.178,0,0,0,.717,1.687A2.559,2.559,0,0,0,187.357-3.774Z" transform="translate(204.398 90.344)" fill="#fff"/><path d="M13.2-4.47a4.169,4.169,0,0,1-1.255,3.026A6.243,6.243,0,0,1,8.307.19V2.53H5.777V.274A13.2,13.2,0,0,1,2.783-.264,8.634,8.634,0,0,1,.443-1.328l1.37-3.078a8.868,8.868,0,0,0,2.3,1.054,8.749,8.749,0,0,0,2.572.4q2.4,0,2.4-1.2A1,1,0,0,0,8.4-5.092a12.6,12.6,0,0,0-2.2-.643A21.03,21.03,0,0,1,3.416-6.5,4.684,4.684,0,0,1,1.5-7.822a3.561,3.561,0,0,1-.8-2.446A4.225,4.225,0,0,1,2-13.378,6.24,6.24,0,0,1,5.777-14.97v-2.319h2.53v2.277a12.3,12.3,0,0,1,2.309.422,8.52,8.52,0,0,1,1.971.822l-1.286,3.1a8.592,8.592,0,0,0-4.09-1.139,3.429,3.429,0,0,0-1.813.369,1.106,1.106,0,0,0-.569.959.951.951,0,0,0,.675.886,12.2,12.2,0,0,0,2.172.611,20.344,20.344,0,0,1,2.794.77,4.824,4.824,0,0,1,1.919,1.307A3.491,3.491,0,0,1,13.2-4.47Zm8.666-10.289a8.418,8.418,0,0,1,3.479.664,5.159,5.159,0,0,1,2.277,1.9,5.2,5.2,0,0,1,.8,2.9,5.151,5.151,0,0,1-.8,2.889,5.185,5.185,0,0,1-2.277,1.887,8.418,8.418,0,0,1-3.479.664H19.292V0H15.118V-14.759Zm-.253,7.612a2.917,2.917,0,0,0,1.94-.559A1.979,1.979,0,0,0,24.205-9.3a2.012,2.012,0,0,0-.654-1.6,2.879,2.879,0,0,0-1.94-.569H19.292v4.322ZM39.6-2.867H33.356L32.2,0H27.937l6.515-14.759h4.111L45.1,0H40.756ZM38.374-5.946l-1.9-4.723-1.9,4.723ZM52.732-3.922H50.455V0H46.28V-14.759h6.747a8.418,8.418,0,0,1,3.479.664,5.159,5.159,0,0,1,2.277,1.9,5.2,5.2,0,0,1,.8,2.9A5.14,5.14,0,0,1,58.836-6.5,5.063,5.063,0,0,1,56.7-4.639L59.88,0H55.41ZM55.368-9.3a2.012,2.012,0,0,0-.654-1.6,2.879,2.879,0,0,0-1.94-.569H50.455v4.322h2.319a2.917,2.917,0,0,0,1.94-.559A1.979,1.979,0,0,0,55.368-9.3Zm9.446-2.151H60.281v-3.31H73.5v3.31H68.988V0H64.814Zm17.8,6.157V0H78.434V-5.355l-5.63-9.4h4.407l3.5,5.861,3.5-5.861H88.26Z" transform="translate(257.098 115.644)" fill="#fff"/></g><path d="M.688-6.861H4.325a5.092,5.092,0,0,1,2.242.473A3.559,3.559,0,0,1,8.083-5.048a3.778,3.778,0,0,1,.538,2.033A3.778,3.778,0,0,1,8.083-.982,3.559,3.559,0,0,1,6.567.359,5.092,5.092,0,0,1,4.325.831H.688ZM4.237-.9a2.23,2.23,0,0,0,1.588-.56,2.018,2.018,0,0,0,.6-1.549,2.018,2.018,0,0,0-.6-1.549,2.23,2.23,0,0,0-1.588-.56H2.864V-.9ZM13.644.985A4.6,4.6,0,0,1,11.451.469,3.88,3.88,0,0,1,9.924-.96a3.875,3.875,0,0,1-.555-2.055A3.875,3.875,0,0,1,9.924-5.07,3.88,3.88,0,0,1,11.451-6.5a4.6,4.6,0,0,1,2.192-.516,4.6,4.6,0,0,1,2.192.516A3.88,3.88,0,0,1,17.364-5.07a3.875,3.875,0,0,1,.555,2.055A3.875,3.875,0,0,1,17.364-.96,3.881,3.881,0,0,1,15.836.469,4.6,4.6,0,0,1,13.644.985Zm0-1.8A2.06,2.06,0,0,0,14.7-1.092a1.976,1.976,0,0,0,.747-.775,2.346,2.346,0,0,0,.275-1.148,2.346,2.346,0,0,0-.275-1.148,1.976,1.976,0,0,0-.747-.775,2.06,2.06,0,0,0-1.055-.275,2.06,2.06,0,0,0-1.055.275,1.976,1.976,0,0,0-.747.775,2.346,2.346,0,0,0-.275,1.148,2.346,2.346,0,0,0,.275,1.148,1.976,1.976,0,0,0,.747.775A2.06,2.06,0,0,0,13.644-.817ZM24.215-3.18h1.923V.007a5.014,5.014,0,0,1-1.516.725,6.035,6.035,0,0,1-1.714.253A4.585,4.585,0,0,1,20.732.474,3.812,3.812,0,0,1,19.215-.949a3.925,3.925,0,0,1-.549-2.066,3.925,3.925,0,0,1,.549-2.066A3.794,3.794,0,0,1,20.743-6.5a4.7,4.7,0,0,1,2.209-.511,4.92,4.92,0,0,1,1.934.363,3.728,3.728,0,0,1,1.429,1.044L24.929-4.355a2.441,2.441,0,0,0-1.868-.857,2.165,2.165,0,0,0-1.593.6,2.15,2.15,0,0,0-.6,1.6,2.323,2.323,0,0,0,.275,1.137,1.97,1.97,0,0,0,.769.78,2.255,2.255,0,0,0,1.132.28,2.78,2.78,0,0,0,1.176-.253ZM33.7-.85V.831H27.523V-6.861h6.033V-5.18H29.677v1.3h3.418v1.626H29.677V-.85ZM38.732.985a4.552,4.552,0,0,1-2.17-.511A3.821,3.821,0,0,1,35.05-.949,3.925,3.925,0,0,1,34.5-3.015a3.925,3.925,0,0,1,.549-2.066A3.821,3.821,0,0,1,36.561-6.5a4.552,4.552,0,0,1,2.17-.511,4.658,4.658,0,0,1,1.9.374,3.658,3.658,0,0,1,1.407,1.077L40.655-4.311a2.278,2.278,0,0,0-1.813-.9,2.238,2.238,0,0,0-1.115.275,1.907,1.907,0,0,0-.758.775A2.384,2.384,0,0,0,36.7-3.015a2.384,2.384,0,0,0,.269,1.148,1.907,1.907,0,0,0,.758.775,2.238,2.238,0,0,0,1.115.275,2.278,2.278,0,0,0,1.813-.9L42.039-.465A3.658,3.658,0,0,1,40.633.612,4.658,4.658,0,0,1,38.732.985Zm7.989,0A4.6,4.6,0,0,1,44.528.469,3.881,3.881,0,0,1,43-.96a3.875,3.875,0,0,1-.555-2.055A3.875,3.875,0,0,1,43-5.07,3.881,3.881,0,0,1,44.528-6.5a4.6,4.6,0,0,1,2.192-.516,4.6,4.6,0,0,1,2.192.516A3.88,3.88,0,0,1,50.44-5.07,3.875,3.875,0,0,1,51-3.015,3.875,3.875,0,0,1,50.44-.96,3.88,3.88,0,0,1,48.913.469,4.6,4.6,0,0,1,46.721.985Zm0-1.8a2.06,2.06,0,0,0,1.055-.275,1.976,1.976,0,0,0,.747-.775A2.346,2.346,0,0,0,48.8-3.015a2.346,2.346,0,0,0-.275-1.148,1.976,1.976,0,0,0-.747-.775,2.06,2.06,0,0,0-1.055-.275,2.06,2.06,0,0,0-1.055.275,1.976,1.976,0,0,0-.747.775,2.346,2.346,0,0,0-.275,1.148,2.346,2.346,0,0,0,.275,1.148,1.976,1.976,0,0,0,.747.775A2.06,2.06,0,0,0,46.721-.817Zm5.418-6.044h2.176V.831H52.138Zm11.044,0V.831H61.391L58-3.268v4.1H55.864V-6.861h1.791l3.4,4.1v-4.1ZM74.864.831l-.022-4.077L72.864.073H71.9L69.929-3.136V.831H67.918V-6.861H69.71l2.7,4.44,2.637-4.44h1.791L76.864.831Zm7.418.154A4.6,4.6,0,0,1,80.089.469,3.88,3.88,0,0,1,78.561-.96a3.875,3.875,0,0,1-.555-2.055,3.875,3.875,0,0,1,.555-2.055A3.88,3.88,0,0,1,80.089-6.5a4.6,4.6,0,0,1,2.192-.516,4.6,4.6,0,0,1,2.192.516A3.88,3.88,0,0,1,86-5.07a3.875,3.875,0,0,1,.555,2.055A3.875,3.875,0,0,1,86-.96,3.88,3.88,0,0,1,84.473.469,4.6,4.6,0,0,1,82.281.985Zm0-1.8a2.06,2.06,0,0,0,1.055-.275,1.976,1.976,0,0,0,.747-.775,2.345,2.345,0,0,0,.275-1.148,2.345,2.345,0,0,0-.275-1.148,1.976,1.976,0,0,0-.747-.775,2.06,2.06,0,0,0-1.055-.275,2.06,2.06,0,0,0-1.055.275,1.976,1.976,0,0,0-.747.775A2.346,2.346,0,0,0,80.2-3.015a2.346,2.346,0,0,0,.275,1.148,1.976,1.976,0,0,0,.747.775A2.06,2.06,0,0,0,82.281-.817Zm9.3,1.8A4.6,4.6,0,0,1,89.386.469,3.881,3.881,0,0,1,87.858-.96,3.875,3.875,0,0,1,87.3-3.015a3.875,3.875,0,0,1,.555-2.055A3.881,3.881,0,0,1,89.386-6.5a4.6,4.6,0,0,1,2.192-.516A4.6,4.6,0,0,1,93.77-6.5,3.88,3.88,0,0,1,95.3-5.07a3.875,3.875,0,0,1,.555,2.055A3.875,3.875,0,0,1,95.3-.96,3.88,3.88,0,0,1,93.77.469,4.6,4.6,0,0,1,91.578.985Zm0-1.8a2.06,2.06,0,0,0,1.055-.275,1.976,1.976,0,0,0,.747-.775,2.346,2.346,0,0,0,.275-1.148,2.346,2.346,0,0,0-.275-1.148,1.976,1.976,0,0,0-.747-.775,2.06,2.06,0,0,0-1.055-.275,2.06,2.06,0,0,0-1.055.275,1.976,1.976,0,0,0-.747.775A2.346,2.346,0,0,0,89.5-3.015a2.346,2.346,0,0,0,.275,1.148,1.976,1.976,0,0,0,.747.775A2.06,2.06,0,0,0,91.578-.817Zm12.736-6.044V.831h-1.791l-3.4-4.1v4.1H97V-6.861h1.791l3.4,4.1v-4.1Z" transform="translate(2394.312 745.657)" fill="#ffed00"/><g transform="translate(2145.3 705.663)"><path d="M66.8,136.5l-16.3,2-5.6-14.1,13.4-9.7Z" fill="#ffed00"/><path d="M141.9,127.1c-40.4,15.9-79.4,12.2-79.4,12.2l-9.3-23.7s27-29.6,66.4-45.1,60.7,8.9,60.7,8.9S182.4,111.2,141.9,127.1Z" fill="#fff"/><path d="M71.2,110.7l14-10.5a7.045,7.045,0,0,0,2.8-7l-.9-5.7" fill="none" stroke="#ff6300" stroke-linecap="round" stroke-linejoin="round" stroke-miterlimit="10" stroke-width="3"/><path d="M79.1,130.7l17.4-1.8a7.112,7.112,0,0,1,6.8,3.2l3.3,4.8" fill="none" stroke="#ff6300" stroke-linecap="round" stroke-linejoin="round" stroke-miterlimit="10" stroke-width="3"/><ellipse cx="28.6" cy="3.3" rx="28.6" ry="3.3" transform="translate(80.28 91.827) rotate(-26.091)" fill="#070117"/><g clip-path="url(#c)"><path d="M74.6,106a7.281,7.281,0,0,0-4.2-1.6,6.971,6.971,0,0,0-4.2,1.3,6.546,6.546,0,0,0-2.4,3.5,7.066,7.066,0,0,0,.3,4.3c.1.2.1.4.2.5l.2.6c.2.4.3.9.5,1.3a27.587,27.587,0,0,1,.8,2.7,25,25,0,0,1,.5,2.9,11.734,11.734,0,0,1-.2,3.2,5.775,5.775,0,0,1-.6,1.7,7.837,7.837,0,0,1-1,1.5,9.36,9.36,0,0,1-2.8,2.1,20.161,20.161,0,0,1-2.8,1.1c-.9.3-1.8.5-2.6.8l-1.2-4.5a24.267,24.267,0,0,0,4.7-1.3,6.242,6.242,0,0,0,1.6-1,3.39,3.39,0,0,0,.9-1.4,6.448,6.448,0,0,0,.3-2,17.852,17.852,0,0,0-.2-2.3,20.481,20.481,0,0,0-.5-2.4l-.3-1.2-.2-.6c-.1-.2-.1-.5-.2-.7a10.323,10.323,0,0,1-.4-3,11,11,0,0,1,.4-3.1,7.607,7.607,0,0,1,1.5-2.8,9.3,9.3,0,0,1,2.3-2.1,10.027,10.027,0,0,1,5.9-1.5,9.474,9.474,0,0,1,2.9.7,10.679,10.679,0,0,1,2.5,1.6Z" fill="#5200a9"/><path d="M145,85.6l-21.1-6-.7,3.8,3.5,1.6-3.8.6-.1,2.7,3.9,1-3.9.9.2,2.7,4.6,1-3.9,1,1,2.8,20-2.8Z" fill="#e2cc00"/><path d="M147.2,94.4l-11.1,2.3-1-3.9,3.4-1-3.5-.5.5-3.7h3.2l-2.9-2,1.4-2.8,10.7,3.4Z" fill="#690bd6"/><path d="M114.3,128.3l-10-19.6-3.2,2,1.2,3.7-3-2.3-2.1,1.7,2,3.5-3.4-2.2-1.8,2,2.4,4L92.9,119l-1.3,2.6,15.7,12.7Z" fill="#e2cc00"/><path d="M109.4,135.8l-9.3-6.5,2.2-3.4,3.1,1.8-2.1-2.9,3-2.2,2.2,2.4-.4-3.5,2.9-.9,4.8,10.2Z" fill="#690bd6"/><path d="M75,16l-.2,17,16.4-4.3L84.1,13.9Z" fill="#f4eeb2"/><path d="M83.9,12.6,86.8,18l-2.9,1.6-1.7-3,.3,3.4-3.4.4-.7-3-1.3,3.1-2.8-.6,1.2-7Z" fill="#f45e60"/><path d="M82.3,28.9h0l-1.2-1.5c-.1-.1-.1-.2,0-.4l.6-.8-1,.4c-.1.1-.3,0-.4-.1l-1.1-1.6a.3.3,0,0,1,0-.4l.7-.8-1,.4c-.1.1-.3,0-.4-.1l-1-2v-.2c0-.1.1-.1.2-.2l2.7-1.2c.2-.1.3,0,.4.2s0,.3-.2.4l-2.5,1,.7,1.5,1.9-.7c.1,0,.3,0,.3.1a.3.3,0,0,1,0,.4l-1.4,1.5.8,1.2,1.7-.8a.192.192,0,0,1,.3.1.3.3,0,0,1,0,.4l-1.1,1.5.8,1.1,1.7-1.2a.292.292,0,0,1,.3.5l-2,1.4C82.5,29,82.4,29,82.3,28.9Z" fill="#d8c173"/><path d="M75,109.7l5.9,17.7h3.9l14-5.9,1.1-3.1,2.2,1.3,4.3-2.4-.8-2.8,3.1,1.6,4.1-3-.8-2.9,3.1,1.5,4.5-3.5-.6-2.9,4.9-1,4.3-10.8-1.7-2.3h3.4l2.4-5-4.1-2.9-9.5-5.1Z" fill="#690bd6"/><path d="M74.5,107.1a3.1,3.1,0,0,0-1.8-.9,5.525,5.525,0,0,0-2.2.1,6.436,6.436,0,0,0-3.6,2.4,5.889,5.889,0,0,0-1,4.1,8.3,8.3,0,0,0,.6,2.1c.1.2.2.3.2.5l.3.6c.2.4.4.8.6,1.3a23.656,23.656,0,0,1,1.8,5.5,15.526,15.526,0,0,1,.3,3.1,9.6,9.6,0,0,1-.6,3.3,8.123,8.123,0,0,1-1.9,2.9,12.055,12.055,0,0,1-2.6,2c-1.8,1-3.6,1.7-5.1,2.4l-1.7-4.3,2.5-.9c.8-.3,1.6-.6,2.2-.9a4.345,4.345,0,0,0,1.7-1.2,4.177,4.177,0,0,0,1.1-1.5,8.067,8.067,0,0,0,.4-4.2,21.418,21.418,0,0,0-1.3-4.8c-.2-.4-.3-.8-.5-1.2l-.3-.6c-.1-.2-.2-.5-.3-.7a10.758,10.758,0,0,1-.7-3.1,8.523,8.523,0,0,1,.3-3.2,8.927,8.927,0,0,1,1.5-2.9,8.594,8.594,0,0,1,5.3-3.1,6.968,6.968,0,0,1,3.2.1,4.714,4.714,0,0,1,1.5.6,6.42,6.42,0,0,1,1.3,1Z" fill="#ffed00"/><path d="M75.4,105.3a5.527,5.527,0,0,0-3.8-2.4,9.732,9.732,0,0,0-4.8.3,8.3,8.3,0,0,0-4,2.5,7.1,7.1,0,0,0-1.9,4.1,9.638,9.638,0,0,0,0,2.4,1.268,1.268,0,0,0,.1.6c0,.2.1.4.1.6s.1.4.1.6v.4l.1.4a13.565,13.565,0,0,1,.6,2.9,16.859,16.859,0,0,1,.1,3.2,10.461,10.461,0,0,1-.4,1.7,7.572,7.572,0,0,1-.9,1.8,5.725,5.725,0,0,1-1.6,1.5,6.982,6.982,0,0,1-2,.8,9.121,9.121,0,0,1-3.7-.1,5.775,5.775,0,0,1-1.7-.6,8.158,8.158,0,0,1-1.7-1.1l3.1-3.4a1.538,1.538,0,0,0,.6.4,3.552,3.552,0,0,0,.9.4,3.851,3.851,0,0,0,1.8.2,1.072,1.072,0,0,0,.6-.2c.2-.1.3-.2.5-.3a4.005,4.005,0,0,0,.7-1.6,16.95,16.95,0,0,0,.1-2.3c-.1-.8-.2-1.7-.3-2.5l-.1-.7a1.949,1.949,0,0,1-.1-.8c0-.3-.1-.5-.1-.8s-.1-.5-.1-.8a10.8,10.8,0,0,1,.2-3.1,10.6,10.6,0,0,1,1-3,9.663,9.663,0,0,1,1.9-2.6,11.6,11.6,0,0,1,5.4-3,12.6,12.6,0,0,1,6.1-.1,10.758,10.758,0,0,1,2.9,1.3,7.279,7.279,0,0,1,2.2,2.4Z" fill="#ffed00"/><path d="M129.4,82.7s-6.7-5.8-8.8-8.8l-8.2-12.2L90,78.1l5.8,8L76.4,101.3c-4.1,5.4-1.8,12.5-1.8,12.5l3.4.7,2-4.1,1.8,4.6,4.2-.3,1.1-4.6,2.8,3.7,3.9-1.5-.4-5.3,5.1,2.9,3.8-2.5-1.1-5.2,4.2,2.7,4.5-3.1-1.1-4.5,4.5,2.3,3.2-2.3-1.1-5.4,5.5,1.5,3.1-3.3-2.4-4.2,5.3.8Z" fill="#f4eeb2"/><path d="M117.7,29.1c-6.6-8.3-47,2.6-47,2.6L56,25.7l-5,5.9L66,45,86.7,73.5,93.1,87,76.8,100.3l-2.9,3.6,6.8.2,2.1-4.7,1.5,4,5.8-1.9L90,96.6l3.3,3,4.9-3.3-1.4-4.8,5.2,3.3,4.7-4-2-5.2,4.6,3.7,3.7-2.7-2-5.9,5.6,3.6,3.6-3.4-3-5.4,5.5,3.1,2.4-3.2-7.4-6.3L107.4,54.3C107.5,54.4,122.5,35.2,117.7,29.1Z" fill="#f45e60"/><path d="M65.9,42.7l21,33.2L91,74.4l-1.1-4.9L93.6,73l3.7-2-1.8-5,3.8,4,3.6-2.4-2.3-5.1,4.2,3.4,3-2.4-2.3-4.9,4.5,3.1,1.7-2.7-4.1-4.5s14.9-16.6,10.8-24.2S65.9,42.7,65.9,42.7Z" fill="#f4eeb2"/><path d="M70.7,31.8,59.8,27.3,57.1,37,66,45,77.7,62.7l3.8-1.4-1.3-6.8L84,60l3.8-2.1-1.3-7.2,4.6,5.4,4.2-2.3L92.8,47l5.7,4.9,3.1-3.1-3.5-6.2,6.2,4.3,2.4-3-3.1-6.3,6.2,3,3.6-4.6L110,31.1l5.1,2,2.2-3.1-.2-2.2C107.4,21.2,70.7,31.8,70.7,31.8Z" fill="#f45e60"/><path d="M69.1,40.5a.361.361,0,1,1,.6-.4l1.7,2.8,4.5-1.5c.2-.1.3,0,.4.2s0,.3-.1.4l-3.5,2.7,1.4,2.4,4.2-1.5c.2-.1.3,0,.4.1a.3.3,0,0,1,0,.4l-3.4,3.4,2.3,2.8,4.9-2.1a.381.381,0,0,1,.3.7L77.7,53c-.1.1-.3,0-.4-.1l-2.7-3.2a.446.446,0,0,1,0-.5l2.5-2.6L74,47.7c-.2.1-.3,0-.4-.1l-1.8-2.9c-.1-.2-.1-.3.1-.5L74,42.6l-2.7.9c-.2.1-.3,0-.4-.1l-1.8-2.9Z" fill="#f1393b"/><path d="M52.8,33.7,65.2,45.3l2-2.5L65,39.9l3.4,1.2,1.3-2.2-2.8-2.6,3.7,1,1-2.4-3.4-2.8,3.8.8.3-2.8L57.4,25.6Z" fill="#f4eeb2"/><path d="M56.2,24.9l6,1.5-.8,3.2-3.3-.8,2.7,2-2,2.9-2.7-1.5,1.4,3-2.3,1.7-4.4-5.6Z" fill="#f45e60"/><path d="M59.7,33.7h0a.438.438,0,0,1,.1-.3l2.8-2.1c.2-.1.4-.1.5.1s.1.4-.1.5l-2.5,1.9,1.3,1.5L63.7,34a.3.3,0,0,1,.4,0,.6.6,0,0,1,.1.4l-1.1,2.1,1.3,1.1,1.8-1.4a.3.3,0,0,1,.4,0c.1.1.2.3.1.4l-.9,1.7L67,39c.2.1.2.3.1.5s-.3.2-.5.1l-1.4-.9c-.2-.1-.2-.3-.1-.5l.3-.5-.6.5a.3.3,0,0,1-.4,0l-1.7-1.5c-.1-.1-.2-.3-.1-.4l.6-1.1-1,.7c-.1.1-.3.1-.5-.1l-1.7-2C59.7,33.8,59.7,33.8,59.7,33.7Z" fill="#d8c173"/><path d="M141.3,104.7,125.5,89.4l-2.4,3,2.3,3-3.6-1.2-1.4,2.3,3,2.7-3.9-1-1,2.5,3.5,3-4-.9-.3,3,18.9,6.9Z" fill="#ffed00"/><path d="M139.1,113.4l-10.9-3.1.9-4,3.6.7-2.9-2.1,2.1-3,2.9,1.5-1.6-3.1,2.5-1.8,7.9,8.1Z" fill="#690bd6"/><path d="M127.3,102.9h-.2l-2-.5-.3,1c-.1.2-.3.3-.4.2-.2-.1-.3-.3-.2-.4l.5-1.4c.1-.2.2-.3.4-.2l.7.2-.8-.6c-.1-.1-.2-.3-.1-.4l1.1-2.2a.52.52,0,0,1,.4-.2l1.3.3-1-.9a.44.44,0,0,1-.1-.5l1.6-2.3c.1-.1.1-.1.2-.1a.367.367,0,0,1,.3.1l2.9,2.3a.361.361,0,1,1-.4.6l-2.6-2.1-1.2,1.7,1.9,1.7c.1.1.2.3.1.4a.52.52,0,0,1-.4.2l-2.4-.6-.8,1.7,1.9,1.4c.1.1.2.3.1.4C127.5,102.8,127.4,102.9,127.3,102.9Z" fill="#e2cc00"/><path d="M118.4,28.7c-2.2-2.8-7.9-3.7-14.8-3.5l-.1,5.5,6.1-.6-4.8,4.4,3.1,4.3,4.7-3.4-1.1,6.2,4.5,1.6C118.8,37.6,120.8,31.7,118.4,28.7Z" fill="#f1393b"/><path d="M91.6,33.3a.3.3,0,0,1,0-.4c.1-.2.3-.2.5-.1l2.1,1.4,2.9-3.3c.1-.1.3-.2.4-.1a.758.758,0,0,1,.2.4l-1.5,4.3,2.4,1.6,3.3-3.5a.354.354,0,0,1,.5.5l-3.5,3.7a.6.6,0,0,1-.4.1l-2.9-2c-.1-.1-.2-.3-.1-.4l1-2.8-1.9,2.1a.471.471,0,0,1-.6.1l-2.4-1.6Z" fill="#f1393b"/><path d="M86.8,65.4h0l-2.1-2.7a.3.3,0,0,1,0-.4L87,59.7a.354.354,0,0,1,.5.5l-2.1,2.4,1.7,2.2,3-1.8a.3.3,0,0,1,.4,0,.6.6,0,0,1,.1.4l-1.5,3,2.4,1.7,2.3-2.4a.6.6,0,0,1,.4-.1.52.52,0,0,1,.2.4l-.7,3.8c0,.2-.2.3-.4.3s-.3-.2-.3-.4l.5-2.7-1.7,1.8a.446.446,0,0,1-.5,0l-2.9-2.1c-.1-.1-.2-.3-.1-.4l1.1-2.2-2.2,1.4A.247.247,0,0,1,86.8,65.4Z" fill="#d8c173"/><path d="M98.3,113.1l2.1,2.8,3.8-1.8-1.1-3.6,3.2,2.1,2.9-2.3-1.6-3.4,4.1,1.3" fill="#690bd6"/><path d="M100.5,116.2c-.1.1-.3,0-.4-.1l-2.2-2.8c-.1-.2-.1-.4.1-.5s.4-.1.5.1l2,2.6,3.3-1.5-1-3.4a.6.6,0,0,1,.1-.4.3.3,0,0,1,.4,0l3,2,2.5-2-1.5-3.1c-.1-.1,0-.3,0-.4.1-.1.2-.1.4-.1l4.1,1.3c.2.1.3.3.2.4-.1.2-.3.3-.4.2l-3.4-1,1.3,2.7c.1.1,0,.3-.1.4l-3,2.3a.3.3,0,0,1-.4,0l-2.4-1.6.8,2.7c0,.2,0,.3-.2.4l-3.7,1.8Z" fill="#5200a9"/><path d="M93.6,139.3l5-21.4-3.8-.6-1.4,3.6-.8-3.7H89.9l-.8,3.9-1.2-3.8-2.6.4-.8,4.5-1.2-3.8-2.7,1.2,3.7,19.7Z" fill="#ffed00"/><path d="M85,141.8l-2.9-10.9,3.9-1.2,1.2,3.4.3-3.6,3.6.3.2,3.2,1.9-2.9,2.8,1.2-2.8,10.9Z" fill="#690bd6"/><path d="M94.6,127.4h-.2c-.2,0-.3-.2-.3-.4l.5-3.3-2.1-.2L92,126a.319.319,0,0,1-.3.3c-.2,0-.3-.1-.3-.2l-.7-2.4-1.9.1-.3,2.4a.319.319,0,0,1-.3.3.52.52,0,0,1-.4-.2l-.6-2-1.1.2c-.2,0-.4-.1-.4-.3s.1-.4.3-.4l1.4-.3c.2,0,.4.1.4.2l.2.7.1-1a.319.319,0,0,1,.3-.3l2.4-.2a.52.52,0,0,1,.4.2l.4,1.3.3-1.3c0-.2.2-.3.4-.3l2.8.2a.349.349,0,0,1,.2.1.367.367,0,0,1,.1.3l-.5,3.7Q94.75,127.4,94.6,127.4Z" fill="#e2cc00"/><path d="M103.2,100.7a.6.6,0,0,1-.4-.1l-2.4-2a.361.361,0,0,1,.4-.6l2.2,1.8,2.9-2-.4-3.5a.367.367,0,0,1,.1-.3.188.188,0,0,1,.3,0l3.7,1.5,3-2.3-1.3-3.4c-.1-.1,0-.3.1-.4a.3.3,0,0,1,.4,0l3.3,2,1.4-1c.2-.1.4-.1.5.1s.1.4-.1.5l-1.6,1.2a.3.3,0,0,1-.4,0l-2.7-1.6,1.1,2.7c.1.1,0,.3-.1.4l-3.4,2.6a.188.188,0,0,1-.3,0l-3.3-1.4.3,3.1c0,.1,0,.3-.1.3l-3.2,2.4Z" fill="#e2cc00"/><path d="M75.8,108.1a4.691,4.691,0,0,0-3.8-.5,8.864,8.864,0,0,0-1.7.8,5.263,5.263,0,0,0-1.2,1.4,6.045,6.045,0,0,0-.6,3.8,14.62,14.62,0,0,0,.5,2c.1.2.1.3.2.5s.1.3.2.5l.5,1a24.606,24.606,0,0,1,2,4.7,19.733,19.733,0,0,1,.7,2.6,13.678,13.678,0,0,1,.2,2.9,8.172,8.172,0,0,1-.9,3.2,4.233,4.233,0,0,1-.5.7,1.381,1.381,0,0,0-.3.4l-.3.3a4.508,4.508,0,0,1-1.4,1c-.3.1-.5.3-.8.4s-.5.2-.8.3a7.581,7.581,0,0,1-1.6.3,10.072,10.072,0,0,1-3-.1l.9-4.5a6.01,6.01,0,0,0,3.3-.1,2.539,2.539,0,0,0,1-.8,3.755,3.755,0,0,0,.5-1.4,6.045,6.045,0,0,0,0-1.9,15.524,15.524,0,0,0-.4-2.1,36.641,36.641,0,0,0-1.5-4.3l-.5-1.2a24724899212716.105,24724899212716.105,0,0,0-.4-1.2,12.816,12.816,0,0,1-.5-2.7,8.834,8.834,0,0,1,.2-2.8,9.038,9.038,0,0,1,1.1-2.7,7,7,0,0,1,2.1-2.1,6.437,6.437,0,0,1,2.7-1.1,7.142,7.142,0,0,1,5.5,1.1Z" fill="#690bd6"/><path d="M92.2,53A7.343,7.343,0,1,1,95,43,7.288,7.288,0,0,1,92.2,53Z" fill="#fff"/><path d="M87.3,41.3a4.456,4.456,0,0,0-2.1,5.3l4.4-1.3-2.2,4.1a4.34,4.34,0,0,0,4.4-.1,4.589,4.589,0,0,0-4.5-8Z" fill="#690bd6"/></g><path d="M157.7,118.8c24.1-16.7,22.7-39.5,22.7-39.5S165.2,62,136.9,65.8c0,0-1,11.5,5.6,28.4S157.7,118.8,157.7,118.8Z" fill="#ff6300"/><path d="M74.8,96.3c-5.1,2.2-15.9.6-23.6-1.1a18.946,18.946,0,0,0-16,3.9l-7.9,6.5,25.9,9.9Z" fill="#ff6300"/><path d="M91.5,138.7c-5.2,1.8-12,10.4-16.6,16.9a18.824,18.824,0,0,1-14.4,8l-10.2.6,12.2-24.9Z" fill="#ff6300"/><line x2="15.2" y2="38.7" transform="translate(67.6 101.3)" fill="none" stroke="#ff6300" stroke-linecap="round" stroke-linejoin="round" stroke-miterlimit="10" stroke-width="3"/><line x1="67.4" y2="26.4" transform="translate(75.5 95.2)" fill="none" stroke="#ff6300" stroke-linecap="round" stroke-linejoin="round" stroke-miterlimit="10" stroke-width="3"/><path d="M139.3,73.1A71.175,71.175,0,0,1,177,78.6c-14.7,1.3-34.5,9-34.5,9A53.23,53.23,0,0,1,139.3,73.1Z" fill="#ffb383"/><path d="M-9.9,140c-2.9,3-6.6,5.3-10.8,5.3-6.3-.1-9.5-5.6-17.4-4.7-6,.7-10.8,5.3-14.2,10.3" fill="none" stroke="#ffed00" stroke-linecap="round" stroke-miterlimit="10" stroke-width="4"/><path d="M42.8,144c-1.5.7-3.2,1.4-4.1,2.8-1,1.5-1,3.5-.8,5.4a23.254,23.254,0,0,0,.5,2.8,20.156,20.156,0,0,1,.7,2.3c.7,3.2-1.1,6.6-3.6,8.6" fill="none" stroke="#ff6300" stroke-linecap="round" stroke-miterlimit="10" stroke-width="4"/><path d="M-14.1,103.3A11.454,11.454,0,0,0-9,111.2a13.793,13.793,0,0,0,9.3,2c1.1-.1,2.3-.4,3.4-.4a9.1,9.1,0,0,1,8.9,7.5" fill="none" stroke="#ff6300" stroke-linecap="round" stroke-miterlimit="10" stroke-width="4"/><line x1="38.4" y2="15.3" transform="translate(3.1 132.8)" fill="none" stroke="aqua" stroke-linecap="round" stroke-miterlimit="10" stroke-width="4"/><line x1="20.3" y2="14.5" transform="translate(1.5 153.4)" fill="none" stroke="#ffed00" stroke-linecap="round" stroke-miterlimit="10" stroke-width="4"/><line x1="34.3" y2="3.8" transform="translate(-39 126)" fill="none" stroke="#fff" stroke-linecap="round" stroke-miterlimit="10" stroke-width="4"/><circle cx="5" cy="5" r="5" transform="translate(24.2 115.7)" fill="none" stroke="aqua" stroke-linecap="round" stroke-miterlimit="10" stroke-width="4"/><circle cx="7" cy="7" r="7" transform="translate(-31.1 158)" fill="none" stroke="#ff6300" stroke-linecap="round" stroke-miterlimit="10" stroke-width="4"/><circle cx="3.5" cy="3.5" r="3.5" transform="translate(17.3 182)" fill="none" stroke="#fff" stroke-linecap="round" stroke-miterlimit="10" stroke-width="4"/><path d="M66.8,44.2l-3.4,5.1,2.7,3.2,3.1-.6-.9,3.7,2.5,3.2,3.8-1.1,1.6-3.4-5.3-2.5Z" fill="#f45e60"/><path d="M82.3,66.5l-2.6,3.1,2.2,2.7L86,71.2Z" fill="#f4eeb2"/><circle cx="39.9" cy="39.9" r="39.9" transform="translate(46.5 1.9)" fill="none" stroke="#fff" stroke-linecap="round" stroke-linejoin="round" stroke-miterlimit="10" stroke-width="2"/><path d="M117.7,38.6A29.064,29.064,0,0,0,88.6,9.5" fill="none" stroke="#fff" stroke-linecap="round" stroke-linejoin="round" stroke-miterlimit="10" stroke-width="2"/></g><g transform="translate(2145.3 705.663)"><g opacity="0.4"><rect width="33.6" height="35.52" transform="translate(169.2 16.84)" fill="none"/></g><path d="M202.8,42.2c-8.1,6.1-19.1,2-22.7-5.1-3.5-6.3-2.1-15.6,4.8-20.1a20.427,20.427,0,0,0-2.4,5c0,.2-.1.4-.1.6-1.8,7.4,3.6,18.8,14,20.2a8.622,8.622,0,0,0,1.7.1A21.416,21.416,0,0,0,202.8,42.2Z" fill="#fff"/><path d="M202.8,42.2a15.756,15.756,0,0,1-5.4,5.2,16.6,16.6,0,0,1-15.9.7c-.1,0-.1-.1-.2-.1l-.6-.3c-.1,0-.1-.1-.2-.1h0c-.2-.1-.5-.3-.7-.4a.1.1,0,0,1-.1-.1l-.1-.1c-.1,0-.1-.1-.2-.1-.2-.1-.3-.2-.5-.3h0c-.1,0-.1-.1-.2-.1l-.1-.1c-.2-.2-.5-.4-.7-.6l-.1-.1a17.119,17.119,0,0,1-5.6-10.4v-.1a16.465,16.465,0,0,1,5.6-14.6h0a13.09,13.09,0,0,1,3.7-2.4,15.958,15.958,0,0,1,3-1.1c.1,0,.2-.1.4-.1-9,6.4-8.8,20.1.8,25.8a.1.1,0,0,1,.1.1c.2.1.3.2.5.3A15.651,15.651,0,0,0,202.8,42.2Z" fill="#e6e6e6"/><circle cx="2" cy="2" r="2" transform="translate(181.5 37.1)" fill="#e6e6e6"/><path d="M183.5,37.2a2.127,2.127,0,0,0-1.5.7,1.9,1.9,0,0,1,1.3-.5,2.006,2.006,0,0,1,2,2,1.9,1.9,0,0,1-.5,1.3,2.127,2.127,0,0,0,.7-1.5A2.006,2.006,0,0,0,183.5,37.2Z" fill="#e6e6e6"/><circle cx="1.5" cy="1.5" r="1.5" transform="translate(177.4 29.1)" fill="#e6e6e6"/><path d="M178.9,29.1a1.29,1.29,0,0,0-1.1.5,1.777,1.777,0,0,1,1-.4,1.538,1.538,0,0,1,1.5,1.5,1.284,1.284,0,0,1-.4,1,1.606,1.606,0,0,0,.5-1.1A1.538,1.538,0,0,0,178.9,29.1Z" fill="#e6e6e6"/><circle cx="0.7" cy="0.7" r="0.7" transform="translate(180.2 22.6)" fill="#e6e6e6"/><path d="M180.9,22.6a.764.764,0,0,0-.5.2.764.764,0,0,1,.5-.2.871.871,0,0,1,.6.8c0,.2-.1.3-.2.5a.764.764,0,0,0,.2-.5A.606.606,0,0,0,180.9,22.6Z" fill="#e6e6e6"/><circle cx="0.7" cy="0.7" r="0.7" transform="translate(193.3 42.4)" fill="#e6e6e6"/><path d="M194,42.4a.764.764,0,0,0-.5.2c.1,0,.2-.1.5-.2a.871.871,0,0,1,.6.8c0,.2-.1.3-.2.5a.764.764,0,0,0,.2-.5A.641.641,0,0,0,194,42.4Z" fill="#e6e6e6"/><circle cx="0.7" cy="0.7" r="0.7" transform="translate(182.1 33.7)" fill="#e6e6e6"/><path d="M182.8,33.7a.764.764,0,0,0-.5.2,1.69,1.69,0,0,0,.5-.2.871.871,0,0,1,.6.8c0,.2-.1.3-.2.5a.764.764,0,0,0,.2-.5A.641.641,0,0,0,182.8,33.7Z" fill="#e6e6e6"/></g></g></svg>