<?xml version="1.0" encoding="utf-8"?>
<!-- Generator: Adobe Illustrator 25.4.1, SVG Export Plug-In . SVG Version: 6.00 Build 0)  -->
<svg version="1.1" id="Layer_1" xmlns="http://www.w3.org/2000/svg" xmlns:xlink="http://www.w3.org/1999/xlink" x="0px" y="0px"
	 viewBox="0 0 200 200" style="enable-background:new 0 0 200 200;" xml:space="preserve">
<style type="text/css">
	.st0{fill:#690BD6;}
	.st1{fill:#FFFFFF;}
</style>
<g>
	<circle class="st0" cx="100.3" cy="99.8" r="98.8"/>
</g>
<g>
	<circle class="st1" cx="132.5" cy="44.4" r="9.3"/>
</g>
<g>
	<circle class="st1" cx="77.9" cy="44.4" r="9.3"/>
</g>
<g>
	<path class="st1" d="M99.3,72.6c-1.1,0-2.2-0.3-3.2-0.9c-2.7-1.8-3.5-5.4-1.8-8.1c6.6-10.3,7.8-20.1,3.4-29
		C94.6,27.9,89.4,24,89.3,24c-2.6-1.9-3.3-5.6-1.4-8.2c1.9-2.6,5.6-3.3,8.2-1.4c0.3,0.2,7.6,5.5,12.2,14.9c4.3,8.8,7.1,23-4.1,40.5
		C103.1,71.6,101.2,72.6,99.3,72.6z"/>
</g>
<g>
	<path class="st1" d="M169.4,128.2c-2.1,0-4.1-1.1-5.2-3.1c-10.3-18.9-31.5-15.2-32.4-15.1c-3.2,0.6-6.3-1.5-6.9-4.7
		s1.5-6.3,4.7-6.9c0.3-0.1,7.8-1.4,16.9,0.4c12.3,2.5,22,9.6,28,20.6c1.6,2.9,0.5,6.4-2.3,8C171.3,128,170.3,128.2,169.4,128.2z"/>
</g>
<g>
	<path class="st1" d="M115.3,89.9c-1.4,0-2.8-0.5-3.9-1.5c-2.4-2.2-2.7-5.9-0.5-8.3c0.3-0.3,6.4-7.1,17.3-11.5c10-4,26.1-6.8,46.2,3
		c2.9,1.4,4.1,4.9,2.7,7.9c-1.4,2.9-4.9,4.1-7.9,2.7c-30.5-14.8-48.8,5-49.5,5.8C118.6,89.3,117,89.9,115.3,89.9z"/>
</g>
<g>
	<g>
		<path class="st1" d="M121.8,125.7c-2.5-4.9-8.5-14.8-21.5-28.6C80.6,76.2,64.6,70.2,64.6,70.2l-6.7,16.1
			C69.8,95.8,92.7,112.2,121.8,125.7z"/>
	</g>
	<g>
		<path class="st1" d="M89.5,143l20.7-8.6C84.8,122.1,64.8,108,52.7,98.7l-7.1,16.9C56.2,123.4,71.3,133.5,89.5,143z"/>
	</g>
	<g>
		<path class="st1" d="M40.5,127.8l-6.7,15.9l15.9,15.8l24.5-10.2C60.7,141.9,49.3,134.3,40.5,127.8z"/>
	</g>
</g>
</svg>
