<svg width="527" height="433" xmlns="http://www.w3.org/2000/svg" data-name="Layer 1">

 <g>
  <title>Layer 1</title>
  <polygon id="svg_1" fill="#ffed00" points="406.55999755859375,149.61999702453613 386.83001708984375,125.61999702453613 466.64996337890625,53.40000343322754 492.87994384765625,85.32000160217285 406.55999755859375,149.61999702453613 " class="cls-1"/>
  <polygon id="svg_2" fill="#ff6300" points="356.21002197265625,111.80999946594238 328.86993408203125,97.05999946594238 375.38995361328125,0 411.74993896484375,19.600000381469727 356.21002197265625,111.80999946594238 " class="cls-2"/>
  <polygon id="svg_3" fill="aqua" points="413.69000244140625,181.75999641418457 422.85992431640625,211.44999885559082 527.0999145507812,184.63000679016113 514.9199829101562,145.160005569458 413.69000244140625,181.75999641418457 " class="cls-3"/>
  <path id="svg_4" fill="#b59100" d="m126.17997,433.03c-51.67,0 -84.36,-28 -92.06,-78.81l-34.12,-228.19l238.06,0c4.35,-0.42 33.11,-3.1 50.94,-3.1c62,0 97.54,35.84 97.54,98.33c0,45.83 -17.1,78.45 -52.18,99.28l52.18,0l0,108.36l-198.13,0l0,-15.37c-15.38,12.95 -36.19,19.5 -62.23,19.5z" class="cls-4"/>
  <path id="svg_5" fill="#d9b400" d="m126.17997,422.47c-58.72,0 -76.8,-38 -81.63,-69.84l-32.3,-216l226.31,0s31.82,-3.09 50.44,-3.09c56.1,0 87,31.17 87,87.77c0,47.27 -18.76,77.93 -59,96.49l-13.83,6.23c-4,1.83 -5.59,2.59 -6.26,7.09l79.08,0l0,87.23l-177,0l0,-35.93c-12.66,26.61 -37.02,40.05 -72.81,40.05z" class="cls-5"/>
  <path id="svg_6" fill="#e2c53b" d="m359.88997,163.67l-256.56,256.56a111.31,111.31 0 0 0 22.85,2.24c35.79,0 60.15,-13.46 72.77,-40.05l0,22.22l176.9,-176.91c0.08,-2.12 0.14,-4.26 0.14,-6.45c0,-23.88 -5.52,-43.25 -16.1,-57.61z" class="cls-6"/>
  <path id="svg_7" fill="#e2c53b" d="m255.18997,135.18c-9.49,0.73 -16.63,1.42 -16.63,1.42l-58.82,0l-145.71,145.7l9.63,64.4l211.53,-211.52z" class="cls-6"/>
  <polygon id="svg_8" fill="#e2c53b" points="29.76995849609375,253.7800006866455 146.95001220703125,136.60000801086426 140.46002197265625,136.60000801086426 111.88995361328125,136.60000801086426 110.949951171875,136.60000801086426 25.0899658203125,222.45999336242676 29.76995849609375,253.7800006866455 " class="cls-6"/>
  <path id="svg_9" fill="#fff245" d="m156.40997,157.7l55.64,0l-28,191.77c-5.8,40.89 -29.35,51.89 -60.42,51.89c-30.72,0 -54.61,-11.34 -60.76,-51.89l-28.67,-191.77l56.66,0l25.26,189.71c1,6.87 3.76,8.24 7.51,8.24s6.49,-1.37 7.51,-8.24l25.27,-189.71zm61.11,182.49c0,-50.17 15.7,-63.23 49.83,-78.7l12.63,-5.84c11.27,-5.5 18.78,-13.06 18.78,-29.9c0,-15.81 -5.46,-26.12 -21.85,-26.12c-18.09,0 -29.69,3.44 -46.76,7.22l-7.85,-41.93c15.7,-4.47 38.23,-10.31 64.17,-10.31c43.69,0 65.88,20.28 65.88,66.67c0,44.34 -18.43,64.27 -46.76,77.33l-13.66,6.18c-17.07,7.91 -19.11,17.53 -19.11,39.52l0,7.91l79.53,0l0,45l-134.84,0l0.01,-57.03z" class="cls-7"/>
  <path id="svg_10" fill="#fff9ae" d="m108.75997,292.03l-47.35,47.41l1.5,10a89.36,89.36 0 0 0 4.32,17.43l45.47,-45.46l-3.94,-29.38z" class="cls-8"/>
  <path id="svg_11" fill="#fff9ae" d="m272.80997,352.22l0,-7.91c0,-22 2,-31.61 19.11,-39.52l13.66,-6.18c26.21,-12.09 43.94,-30.07 46.44,-67.81l-134.51,134.51l0,31.93l14.41,0l45,-45l-4.11,-0.02z" class="cls-8"/>
  <polygon id="svg_12" fill="#fff9ae" points="143.08001708984375,257.73001289367676 137.97003173828125,296.139986038208 201.03997802734375,233.05999946594238 206.72991943359375,194.08999824523926 143.08001708984375,257.73001289367676 " class="cls-8"/>
  <polygon id="svg_13" fill="#fff9ae" points="57.949951171875,316.5199909210205 105.65997314453125,268.8099994659424 94.67999267578125,186.33000373840332 45.78997802734375,235.20999336242676 57.949951171875,316.5199909210205 " class="cls-8"/>
  <path id="svg_14" fill="#fff9ae" d="m224.40997,176.38l5.26,28l49.64,-49.65a212.1,212.1 0 0 0 -38.66,5.38l-16.24,16.27z" class="cls-8"/>
  <polygon id="svg_15" fill="#fff9ae" points="147.12994384765625,227.33999824523926 211.23992919921875,163.2400074005127 212.03997802734375,157.70999336242676 156.39996337890625,157.70999336242676 147.12994384765625,227.33999824523926 " class="cls-8"/>
 </g>
</svg>