<svg xmlns="http://www.w3.org/2000/svg" viewBox="0 0 80 80"><g transform="translate(-12.5 -12.062)"><circle cx="40" cy="40" r="40" transform="translate(12.5 12.062)" fill="#690bd6"/><circle cx="28.756" cy="28.756" r="28.756" transform="translate(23.744 23.306)" fill="#5200a9"/><path d="M285.616,83.012a29.519,29.519,0,0,1,0,56.684,28.759,28.759,0,0,0,0-56.684Z" transform="translate(-228.241 -59.293)" fill="#3b0084"/><g transform="translate(39.281 36.649)"><path d="M183.922,180.277l-8.429-18.571h9.714l1.714,4.381c1.047,2.714,1.476,3.952,1.762,4.9h.048a36.06,36.06,0,0,1,1.762-4.9l1.809-4.381h9.619l-8.714,18.619V194.9h-9.286Z" transform="translate(-175.493 -161.706)" fill="#fff"/></g></g></svg>